G04 (created by PCBNEW (2013-may-18)-stable) date Wed 03 Jun 2015 10:46:25 PM CEST*
%MOIN*%
G04 Gerber Fmt 3.4, Leading zero omitted, Abs format*
%FSLAX34Y34*%
G01*
G70*
G90*
G04 APERTURE LIST*
%ADD10C,0.00590551*%
%ADD11R,0.0236X0.0551*%
%ADD12R,0.025X0.045*%
%ADD13R,0.045X0.025*%
%ADD14R,0.06X0.06*%
%ADD15C,0.06*%
%ADD16R,0.1417X0.063*%
%ADD17C,0.15*%
%ADD18R,0.15X0.15*%
%ADD19R,0.1X0.1*%
%ADD20C,0.1*%
%ADD21C,0.177165*%
%ADD22R,0.0787402X0.0787402*%
%ADD23C,0.0787402*%
%ADD24R,0.063X0.1417*%
%ADD25R,0.02X0.045*%
%ADD26R,0.0394X0.0236*%
%ADD27R,0.0240157X0.0598425*%
G04 APERTURE END LIST*
G54D10*
G54D11*
X5750Y-4950D03*
X5750Y-7050D03*
X6250Y-4950D03*
X6750Y-4950D03*
X7250Y-4950D03*
X6250Y-7050D03*
X6750Y-7050D03*
X7250Y-7050D03*
G54D12*
X5050Y-5750D03*
X4450Y-5750D03*
X1450Y-10750D03*
X2050Y-10750D03*
X2700Y-11500D03*
X3300Y-11500D03*
X2700Y-10750D03*
X3300Y-10750D03*
G54D13*
X1750Y-5050D03*
X1750Y-4450D03*
G54D12*
X9700Y-11250D03*
X10300Y-11250D03*
X1450Y-10000D03*
X2050Y-10000D03*
X2700Y-10000D03*
X3300Y-10000D03*
G54D14*
X2750Y-6000D03*
G54D15*
X1750Y-6000D03*
G54D16*
X12083Y-13000D03*
X9917Y-13000D03*
G54D17*
X5750Y-16000D03*
X7750Y-16000D03*
G54D18*
X3750Y-16000D03*
G54D17*
X9750Y-16000D03*
G54D19*
X8750Y-1500D03*
G54D20*
X6750Y-1500D03*
X4750Y-1500D03*
G54D12*
X1450Y-11500D03*
X2050Y-11500D03*
G54D21*
X12000Y-16000D03*
X1500Y-16000D03*
X12000Y-1500D03*
X1500Y-1500D03*
G54D13*
X9250Y-6450D03*
X9250Y-7050D03*
G54D12*
X4450Y-8000D03*
X5050Y-8000D03*
G54D13*
X10000Y-9950D03*
X10000Y-10550D03*
G54D12*
X4450Y-10500D03*
X5050Y-10500D03*
X12200Y-6750D03*
X12800Y-6750D03*
X3300Y-8000D03*
X2700Y-8000D03*
X2050Y-8000D03*
X1450Y-8000D03*
G54D22*
X11250Y-10750D03*
G54D23*
X11250Y-9750D03*
X11250Y-8750D03*
X11250Y-7750D03*
G54D24*
X11250Y-5833D03*
X11250Y-3667D03*
G54D25*
X5250Y-13850D03*
X5750Y-13850D03*
X6250Y-13850D03*
X6750Y-13850D03*
X7250Y-13850D03*
X7750Y-13850D03*
X8250Y-13850D03*
X8250Y-11750D03*
X7750Y-11750D03*
X7250Y-11750D03*
X6750Y-11750D03*
X6250Y-11750D03*
X5750Y-11750D03*
X5250Y-11750D03*
G54D26*
X8933Y-4250D03*
X8067Y-4250D03*
X8933Y-3500D03*
X8067Y-3500D03*
X4683Y-4250D03*
X3817Y-4250D03*
X4683Y-3500D03*
X3817Y-3500D03*
G54D27*
X5750Y-10500D03*
X6750Y-10500D03*
X6750Y-8000D03*
X5750Y-8000D03*
X9250Y-8000D03*
X8250Y-8000D03*
X8250Y-10500D03*
X9250Y-10500D03*
M02*
