G04 (created by PCBNEW (2013-may-18)-stable) date Wed 03 Jun 2015 10:46:25 PM CEST*
%MOIN*%
G04 Gerber Fmt 3.4, Leading zero omitted, Abs format*
%FSLAX34Y34*%
G01*
G70*
G90*
G04 APERTURE LIST*
%ADD10C,0.00590551*%
%ADD11R,0.0236X0.0551*%
%ADD12R,0.025X0.045*%
%ADD13R,0.045X0.025*%
%ADD14R,0.06X0.06*%
%ADD15C,0.06*%
%ADD16R,0.1417X0.063*%
%ADD17C,0.15*%
%ADD18R,0.15X0.15*%
%ADD19R,0.1X0.1*%
%ADD20C,0.1*%
%ADD21C,0.177165*%
%ADD22R,0.0787402X0.0787402*%
%ADD23C,0.0787402*%
%ADD24R,0.063X0.1417*%
%ADD25R,0.02X0.045*%
%ADD26R,0.0394X0.0236*%
%ADD27R,0.0240157X0.0598425*%
%ADD28C,0.0314961*%
%ADD29C,0.019685*%
%ADD30C,0.0393701*%
%ADD31C,0.00669291*%
G04 APERTURE END LIST*
G54D10*
G54D11*
X5750Y-4950D03*
X5750Y-7050D03*
X6250Y-4950D03*
X6750Y-4950D03*
X7250Y-4950D03*
X6250Y-7050D03*
X6750Y-7050D03*
X7250Y-7050D03*
G54D12*
X5050Y-5750D03*
X4450Y-5750D03*
X1450Y-10750D03*
X2050Y-10750D03*
X2700Y-11500D03*
X3300Y-11500D03*
X2700Y-10750D03*
X3300Y-10750D03*
G54D13*
X1750Y-5050D03*
X1750Y-4450D03*
G54D12*
X9700Y-11250D03*
X10300Y-11250D03*
X1450Y-10000D03*
X2050Y-10000D03*
X2700Y-10000D03*
X3300Y-10000D03*
G54D14*
X2750Y-6000D03*
G54D15*
X1750Y-6000D03*
G54D16*
X12083Y-13000D03*
X9917Y-13000D03*
G54D17*
X5750Y-16000D03*
X7750Y-16000D03*
G54D18*
X3750Y-16000D03*
G54D17*
X9750Y-16000D03*
G54D19*
X8750Y-1500D03*
G54D20*
X6750Y-1500D03*
X4750Y-1500D03*
G54D12*
X1450Y-11500D03*
X2050Y-11500D03*
G54D21*
X12000Y-16000D03*
X1500Y-16000D03*
X12000Y-1500D03*
X1500Y-1500D03*
G54D13*
X9250Y-6450D03*
X9250Y-7050D03*
G54D12*
X4450Y-8000D03*
X5050Y-8000D03*
G54D13*
X10000Y-9950D03*
X10000Y-10550D03*
G54D12*
X4450Y-10500D03*
X5050Y-10500D03*
X12200Y-6750D03*
X12800Y-6750D03*
X3300Y-8000D03*
X2700Y-8000D03*
X2050Y-8000D03*
X1450Y-8000D03*
G54D22*
X11250Y-10750D03*
G54D23*
X11250Y-9750D03*
X11250Y-8750D03*
X11250Y-7750D03*
G54D24*
X11250Y-5833D03*
X11250Y-3667D03*
G54D25*
X5250Y-13850D03*
X5750Y-13850D03*
X6250Y-13850D03*
X6750Y-13850D03*
X7250Y-13850D03*
X7750Y-13850D03*
X8250Y-13850D03*
X8250Y-11750D03*
X7750Y-11750D03*
X7250Y-11750D03*
X6750Y-11750D03*
X6250Y-11750D03*
X5750Y-11750D03*
X5250Y-11750D03*
G54D26*
X8933Y-4250D03*
X8067Y-4250D03*
X8933Y-3500D03*
X8067Y-3500D03*
X4683Y-4250D03*
X3817Y-4250D03*
X4683Y-3500D03*
X3817Y-3500D03*
G54D27*
X5750Y-10500D03*
X6750Y-10500D03*
X6750Y-8000D03*
X5750Y-8000D03*
X9250Y-8000D03*
X8250Y-8000D03*
X8250Y-10500D03*
X9250Y-10500D03*
G54D28*
X1750Y-3500D03*
X6250Y-3500D03*
X7250Y-3500D03*
X6750Y-4250D03*
X5750Y-4250D03*
X8750Y-11250D03*
X3750Y-10750D03*
X7250Y-13250D03*
X3750Y-11500D03*
X6250Y-11000D03*
X6250Y-13250D03*
G54D29*
X9250Y-12250D02*
X9250Y-11500D01*
X9500Y-11250D02*
X9250Y-11500D01*
X9500Y-11250D02*
X9700Y-11250D01*
X12083Y-12250D02*
X11000Y-12250D01*
X11000Y-12250D02*
X9250Y-12250D01*
X9250Y-12250D02*
X5250Y-12250D01*
X12083Y-12250D02*
X12000Y-12250D01*
X12000Y-12250D02*
X12083Y-12250D01*
G54D30*
X12083Y-13000D02*
X12083Y-12250D01*
X12083Y-12250D02*
X12083Y-10250D01*
X12083Y-10250D02*
X12083Y-10083D01*
X11750Y-9750D02*
X11250Y-9750D01*
X12083Y-10083D02*
X11750Y-9750D01*
X12000Y-13750D02*
X12000Y-13083D01*
X11750Y-14000D02*
X12000Y-13750D01*
X9750Y-16000D02*
X11750Y-14000D01*
X12000Y-13083D02*
X12083Y-13000D01*
G54D29*
X5250Y-11750D02*
X5250Y-12250D01*
X5250Y-12250D02*
X4250Y-12250D01*
X5000Y-11250D02*
X4500Y-10750D01*
X5250Y-11500D02*
X5000Y-11250D01*
X5250Y-11750D02*
X5250Y-11500D01*
X4500Y-10550D02*
X4450Y-10500D01*
X4500Y-10750D02*
X4500Y-10550D01*
X1450Y-11950D02*
X1450Y-11500D01*
X4250Y-12250D02*
X1750Y-12250D01*
X1450Y-11950D02*
X1750Y-12250D01*
X4250Y-12250D02*
X4250Y-12250D01*
X1450Y-10750D02*
X1450Y-11500D01*
X10000Y-9950D02*
X10550Y-9950D01*
X10550Y-9950D02*
X10750Y-9750D01*
X10750Y-9750D02*
X11250Y-9750D01*
X1450Y-10750D02*
X1450Y-10000D01*
X11250Y-6750D02*
X12200Y-6750D01*
X8933Y-4250D02*
X8933Y-6000D01*
X8933Y-6000D02*
X9000Y-6000D01*
X9250Y-6450D02*
X9250Y-6000D01*
X6750Y-6500D02*
X4250Y-6500D01*
X4000Y-6750D02*
X4000Y-8000D01*
X4250Y-6500D02*
X4000Y-6750D01*
X3300Y-8000D02*
X4000Y-8000D01*
X4000Y-8000D02*
X4450Y-8000D01*
X9500Y-6000D02*
X10250Y-6000D01*
X10417Y-5833D02*
X11250Y-5833D01*
X10250Y-6000D02*
X10417Y-5833D01*
X6750Y-7050D02*
X6750Y-6500D01*
X7250Y-6000D02*
X9000Y-6000D01*
X6750Y-6500D02*
X7250Y-6000D01*
X9000Y-6000D02*
X9250Y-6000D01*
X9250Y-6000D02*
X9500Y-6000D01*
X8933Y-3500D02*
X8933Y-4250D01*
G54D30*
X11250Y-7750D02*
X11250Y-6750D01*
X11250Y-6750D02*
X11250Y-5833D01*
G54D29*
X2050Y-10000D02*
X2700Y-10000D01*
X5750Y-8000D02*
X5750Y-7050D01*
X5750Y-8000D02*
X5050Y-8000D01*
X7250Y-7050D02*
X7250Y-7750D01*
X7500Y-8000D02*
X8250Y-8000D01*
X7250Y-7750D02*
X7500Y-8000D01*
X9250Y-8000D02*
X9250Y-7050D01*
X1750Y-6000D02*
X1750Y-5050D01*
X1750Y-3500D02*
X1750Y-4450D01*
X5250Y-3500D02*
X5250Y-3000D01*
X5250Y-3000D02*
X5250Y-2750D01*
X4750Y-2250D02*
X4750Y-1500D01*
X5250Y-2750D02*
X4750Y-2250D01*
X6250Y-4950D02*
X6250Y-3500D01*
X6250Y-3500D02*
X6250Y-3500D01*
X8067Y-3500D02*
X7250Y-3500D01*
X4683Y-3500D02*
X5250Y-3500D01*
X5250Y-3500D02*
X6250Y-3500D01*
X6250Y-3500D02*
X6317Y-3500D01*
X4500Y-5000D02*
X3250Y-5000D01*
X4683Y-4817D02*
X4500Y-5000D01*
X4683Y-4250D02*
X4683Y-4817D01*
X2750Y-5250D02*
X2750Y-6000D01*
X3000Y-5000D02*
X2750Y-5250D01*
X3250Y-5000D02*
X3000Y-5000D01*
X6750Y-4250D02*
X6750Y-1500D01*
X6750Y-4950D02*
X6750Y-4500D01*
X6750Y-4500D02*
X6750Y-4250D01*
X4683Y-4250D02*
X5750Y-4250D01*
X7500Y-4250D02*
X8000Y-4250D01*
X6683Y-4250D02*
X7500Y-4250D01*
X6750Y-4250D02*
X6683Y-4250D01*
X5050Y-5750D02*
X5500Y-5750D01*
X5750Y-5500D02*
X5750Y-4950D01*
X5500Y-5750D02*
X5750Y-5500D01*
X5750Y-10500D02*
X5050Y-10500D01*
X2050Y-10750D02*
X2700Y-10750D01*
X2050Y-11500D02*
X2700Y-11500D01*
X2700Y-8000D02*
X2050Y-8000D01*
X9000Y-11250D02*
X9250Y-11000D01*
X9250Y-11000D02*
X9250Y-10500D01*
X9000Y-11250D02*
X8750Y-11250D01*
X3750Y-10750D02*
X3300Y-10750D01*
X7250Y-13850D02*
X7250Y-13250D01*
X10000Y-10550D02*
X9550Y-10550D01*
X9550Y-10550D02*
X9500Y-10500D01*
X9500Y-10500D02*
X9250Y-10500D01*
X7750Y-13850D02*
X7750Y-16250D01*
X3750Y-11500D02*
X3300Y-11500D01*
X6750Y-10500D02*
X6750Y-10750D01*
X6500Y-11000D02*
X6250Y-11000D01*
X6750Y-10750D02*
X6500Y-11000D01*
X6250Y-13850D02*
X6250Y-13250D01*
X5750Y-16250D02*
X5750Y-13850D01*
G54D10*
G36*
X13379Y-8966D02*
X13025Y-8966D01*
X13025Y-6955D01*
X13025Y-6544D01*
X13025Y-6504D01*
X13019Y-6490D01*
X13019Y-1298D01*
X12864Y-923D01*
X12578Y-636D01*
X12203Y-480D01*
X11798Y-480D01*
X11423Y-635D01*
X11136Y-921D01*
X10980Y-1296D01*
X10980Y-1701D01*
X11135Y-2076D01*
X11421Y-2363D01*
X11796Y-2519D01*
X12201Y-2519D01*
X12576Y-2364D01*
X12863Y-2078D01*
X13019Y-1703D01*
X13019Y-1298D01*
X13019Y-6490D01*
X13010Y-6468D01*
X12981Y-6439D01*
X12944Y-6424D01*
X12887Y-6424D01*
X12862Y-6449D01*
X12862Y-6637D01*
X13000Y-6637D01*
X13025Y-6612D01*
X13025Y-6544D01*
X13025Y-6955D01*
X13025Y-6887D01*
X13000Y-6862D01*
X12862Y-6862D01*
X12862Y-7050D01*
X12887Y-7075D01*
X12944Y-7075D01*
X12981Y-7060D01*
X13010Y-7031D01*
X13025Y-6995D01*
X13025Y-6955D01*
X13025Y-8966D01*
X12737Y-8966D01*
X12737Y-7050D01*
X12737Y-6862D01*
X12737Y-6637D01*
X12737Y-6449D01*
X12712Y-6424D01*
X12655Y-6424D01*
X12618Y-6439D01*
X12589Y-6468D01*
X12574Y-6504D01*
X12574Y-6544D01*
X12574Y-6612D01*
X12599Y-6637D01*
X12737Y-6637D01*
X12737Y-6862D01*
X12599Y-6862D01*
X12574Y-6887D01*
X12574Y-6955D01*
X12574Y-6995D01*
X12589Y-7031D01*
X12618Y-7060D01*
X12655Y-7075D01*
X12712Y-7075D01*
X12737Y-7050D01*
X12737Y-8966D01*
X12458Y-8966D01*
X12458Y-6948D01*
X12458Y-6498D01*
X12438Y-6449D01*
X12400Y-6411D01*
X12351Y-6391D01*
X12298Y-6391D01*
X12048Y-6391D01*
X11999Y-6411D01*
X11961Y-6449D01*
X11941Y-6498D01*
X11941Y-6518D01*
X11698Y-6518D01*
X11698Y-6515D01*
X11698Y-5098D01*
X11678Y-5048D01*
X11665Y-5036D01*
X11665Y-4395D01*
X11665Y-2938D01*
X11650Y-2901D01*
X11621Y-2873D01*
X11585Y-2858D01*
X11545Y-2858D01*
X11432Y-2858D01*
X11407Y-2883D01*
X11407Y-3312D01*
X11640Y-3312D01*
X11665Y-3287D01*
X11665Y-2938D01*
X11665Y-4395D01*
X11665Y-4046D01*
X11640Y-4021D01*
X11407Y-4021D01*
X11407Y-4450D01*
X11432Y-4475D01*
X11545Y-4475D01*
X11585Y-4475D01*
X11621Y-4460D01*
X11650Y-4432D01*
X11665Y-4395D01*
X11665Y-5036D01*
X11640Y-5011D01*
X11591Y-4991D01*
X11538Y-4991D01*
X11092Y-4991D01*
X11092Y-4450D01*
X11092Y-4021D01*
X11092Y-3312D01*
X11092Y-2883D01*
X11067Y-2858D01*
X10954Y-2858D01*
X10914Y-2858D01*
X10878Y-2873D01*
X10849Y-2901D01*
X10834Y-2938D01*
X10834Y-3287D01*
X10859Y-3312D01*
X11092Y-3312D01*
X11092Y-4021D01*
X10859Y-4021D01*
X10834Y-4046D01*
X10834Y-4395D01*
X10849Y-4432D01*
X10878Y-4460D01*
X10914Y-4475D01*
X10954Y-4475D01*
X11067Y-4475D01*
X11092Y-4450D01*
X11092Y-4991D01*
X10908Y-4991D01*
X10859Y-5011D01*
X10821Y-5048D01*
X10801Y-5097D01*
X10801Y-5150D01*
X10801Y-5601D01*
X10417Y-5601D01*
X10328Y-5618D01*
X10253Y-5669D01*
X10153Y-5768D01*
X9500Y-5768D01*
X9350Y-5768D01*
X9350Y-1980D01*
X9350Y-1019D01*
X9350Y-979D01*
X9335Y-943D01*
X9306Y-914D01*
X9269Y-899D01*
X9025Y-899D01*
X9000Y-924D01*
X9000Y-1250D01*
X9325Y-1250D01*
X9350Y-1224D01*
X9350Y-1019D01*
X9350Y-1980D01*
X9350Y-1775D01*
X9325Y-1750D01*
X9000Y-1750D01*
X9000Y-2075D01*
X9025Y-2100D01*
X9269Y-2100D01*
X9306Y-2085D01*
X9335Y-2056D01*
X9350Y-2020D01*
X9350Y-1980D01*
X9350Y-5768D01*
X9250Y-5768D01*
X9164Y-5768D01*
X9164Y-4497D01*
X9205Y-4481D01*
X9243Y-4443D01*
X9263Y-4394D01*
X9263Y-4341D01*
X9263Y-4105D01*
X9243Y-4056D01*
X9205Y-4018D01*
X9164Y-4001D01*
X9164Y-3747D01*
X9205Y-3731D01*
X9243Y-3693D01*
X9263Y-3644D01*
X9263Y-3591D01*
X9263Y-3355D01*
X9243Y-3306D01*
X9205Y-3268D01*
X9156Y-3248D01*
X9103Y-3248D01*
X8709Y-3248D01*
X8660Y-3268D01*
X8622Y-3306D01*
X8602Y-3355D01*
X8602Y-3408D01*
X8602Y-3644D01*
X8622Y-3693D01*
X8660Y-3731D01*
X8701Y-3748D01*
X8701Y-4002D01*
X8660Y-4018D01*
X8622Y-4056D01*
X8602Y-4105D01*
X8602Y-4158D01*
X8602Y-4394D01*
X8622Y-4443D01*
X8660Y-4481D01*
X8701Y-4498D01*
X8701Y-5768D01*
X8500Y-5768D01*
X8500Y-2075D01*
X8500Y-1750D01*
X8500Y-1250D01*
X8500Y-924D01*
X8474Y-899D01*
X8230Y-899D01*
X8193Y-914D01*
X8164Y-943D01*
X8149Y-979D01*
X8149Y-1019D01*
X8149Y-1224D01*
X8174Y-1250D01*
X8500Y-1250D01*
X8500Y-1750D01*
X8174Y-1750D01*
X8149Y-1775D01*
X8149Y-1980D01*
X8149Y-2020D01*
X8164Y-2056D01*
X8193Y-2085D01*
X8230Y-2100D01*
X8474Y-2100D01*
X8500Y-2075D01*
X8500Y-5768D01*
X8397Y-5768D01*
X8397Y-4341D01*
X8397Y-4105D01*
X8377Y-4056D01*
X8339Y-4018D01*
X8290Y-3998D01*
X8237Y-3998D01*
X7843Y-3998D01*
X7796Y-4018D01*
X7500Y-4018D01*
X6981Y-4018D01*
X6981Y-3613D01*
X7003Y-3664D01*
X7084Y-3746D01*
X7191Y-3790D01*
X7307Y-3790D01*
X7414Y-3746D01*
X7429Y-3731D01*
X7796Y-3731D01*
X7843Y-3751D01*
X7896Y-3751D01*
X8290Y-3751D01*
X8339Y-3731D01*
X8377Y-3693D01*
X8397Y-3644D01*
X8397Y-3591D01*
X8397Y-3355D01*
X8377Y-3306D01*
X8339Y-3268D01*
X8290Y-3248D01*
X8237Y-3248D01*
X7843Y-3248D01*
X7796Y-3268D01*
X7429Y-3268D01*
X7415Y-3253D01*
X7308Y-3209D01*
X7192Y-3209D01*
X7085Y-3253D01*
X7003Y-3334D01*
X6981Y-3387D01*
X6981Y-2089D01*
X7108Y-2037D01*
X7286Y-1859D01*
X7383Y-1626D01*
X7383Y-1374D01*
X7287Y-1141D01*
X7109Y-963D01*
X6876Y-866D01*
X6624Y-866D01*
X6391Y-962D01*
X6213Y-1140D01*
X6116Y-1373D01*
X6116Y-1625D01*
X6212Y-1858D01*
X6390Y-2036D01*
X6518Y-2089D01*
X6518Y-3386D01*
X6496Y-3335D01*
X6415Y-3253D01*
X6308Y-3209D01*
X6192Y-3209D01*
X6085Y-3253D01*
X6070Y-3268D01*
X5481Y-3268D01*
X5481Y-3000D01*
X5481Y-2750D01*
X5464Y-2661D01*
X5464Y-2661D01*
X5413Y-2586D01*
X4981Y-2153D01*
X4981Y-2089D01*
X5108Y-2037D01*
X5286Y-1859D01*
X5383Y-1626D01*
X5383Y-1374D01*
X5287Y-1141D01*
X5109Y-963D01*
X4876Y-866D01*
X4624Y-866D01*
X4391Y-962D01*
X4213Y-1140D01*
X4116Y-1373D01*
X4116Y-1625D01*
X4212Y-1858D01*
X4390Y-2036D01*
X4518Y-2089D01*
X4518Y-2250D01*
X4535Y-2338D01*
X4586Y-2413D01*
X5018Y-2846D01*
X5018Y-3000D01*
X5018Y-3268D01*
X4953Y-3268D01*
X4906Y-3248D01*
X4853Y-3248D01*
X4459Y-3248D01*
X4410Y-3268D01*
X4372Y-3306D01*
X4352Y-3355D01*
X4352Y-3408D01*
X4352Y-3644D01*
X4372Y-3693D01*
X4410Y-3731D01*
X4459Y-3751D01*
X4512Y-3751D01*
X4906Y-3751D01*
X4953Y-3731D01*
X5250Y-3731D01*
X6018Y-3731D01*
X6018Y-4136D01*
X5996Y-4085D01*
X5915Y-4003D01*
X5808Y-3959D01*
X5692Y-3959D01*
X5585Y-4003D01*
X5570Y-4018D01*
X4953Y-4018D01*
X4906Y-3998D01*
X4853Y-3998D01*
X4459Y-3998D01*
X4410Y-4018D01*
X4372Y-4056D01*
X4352Y-4105D01*
X4352Y-4158D01*
X4352Y-4394D01*
X4372Y-4443D01*
X4410Y-4481D01*
X4451Y-4498D01*
X4451Y-4720D01*
X4403Y-4768D01*
X4114Y-4768D01*
X4114Y-4348D01*
X4114Y-4151D01*
X4114Y-3598D01*
X4114Y-3401D01*
X4114Y-3361D01*
X4099Y-3325D01*
X4070Y-3296D01*
X4033Y-3281D01*
X3940Y-3281D01*
X3915Y-3306D01*
X3915Y-3441D01*
X4089Y-3441D01*
X4114Y-3415D01*
X4114Y-3401D01*
X4114Y-3598D01*
X4114Y-3584D01*
X4089Y-3559D01*
X3915Y-3559D01*
X3915Y-3693D01*
X3940Y-3718D01*
X4033Y-3718D01*
X4070Y-3703D01*
X4099Y-3674D01*
X4114Y-3638D01*
X4114Y-3598D01*
X4114Y-4151D01*
X4114Y-4111D01*
X4099Y-4075D01*
X4070Y-4046D01*
X4033Y-4031D01*
X3940Y-4031D01*
X3915Y-4056D01*
X3915Y-4191D01*
X4089Y-4191D01*
X4114Y-4165D01*
X4114Y-4151D01*
X4114Y-4348D01*
X4114Y-4334D01*
X4089Y-4309D01*
X3915Y-4309D01*
X3915Y-4443D01*
X3940Y-4468D01*
X4033Y-4468D01*
X4070Y-4453D01*
X4099Y-4424D01*
X4114Y-4388D01*
X4114Y-4348D01*
X4114Y-4768D01*
X3718Y-4768D01*
X3718Y-4443D01*
X3718Y-4309D01*
X3718Y-4191D01*
X3718Y-4056D01*
X3718Y-3693D01*
X3718Y-3559D01*
X3718Y-3441D01*
X3718Y-3306D01*
X3693Y-3281D01*
X3600Y-3281D01*
X3563Y-3296D01*
X3534Y-3325D01*
X3519Y-3361D01*
X3519Y-3401D01*
X3519Y-3415D01*
X3544Y-3441D01*
X3718Y-3441D01*
X3718Y-3559D01*
X3544Y-3559D01*
X3519Y-3584D01*
X3519Y-3598D01*
X3519Y-3638D01*
X3534Y-3674D01*
X3563Y-3703D01*
X3600Y-3718D01*
X3693Y-3718D01*
X3718Y-3693D01*
X3718Y-4056D01*
X3693Y-4031D01*
X3600Y-4031D01*
X3563Y-4046D01*
X3534Y-4075D01*
X3519Y-4111D01*
X3519Y-4151D01*
X3519Y-4165D01*
X3544Y-4191D01*
X3718Y-4191D01*
X3718Y-4309D01*
X3544Y-4309D01*
X3519Y-4334D01*
X3519Y-4348D01*
X3519Y-4388D01*
X3534Y-4424D01*
X3563Y-4453D01*
X3600Y-4468D01*
X3693Y-4468D01*
X3718Y-4443D01*
X3718Y-4768D01*
X3250Y-4768D01*
X3000Y-4768D01*
X2911Y-4785D01*
X2836Y-4836D01*
X2836Y-4836D01*
X2586Y-5086D01*
X2535Y-5161D01*
X2519Y-5243D01*
X2519Y-1298D01*
X2364Y-923D01*
X2078Y-636D01*
X1703Y-480D01*
X1298Y-480D01*
X923Y-635D01*
X636Y-921D01*
X480Y-1296D01*
X480Y-1701D01*
X635Y-2076D01*
X921Y-2363D01*
X1296Y-2519D01*
X1701Y-2519D01*
X2076Y-2364D01*
X2363Y-2078D01*
X2519Y-1703D01*
X2519Y-1298D01*
X2519Y-5243D01*
X2518Y-5250D01*
X2518Y-5566D01*
X2423Y-5566D01*
X2374Y-5586D01*
X2336Y-5624D01*
X2316Y-5673D01*
X2316Y-5726D01*
X2316Y-6326D01*
X2336Y-6375D01*
X2374Y-6413D01*
X2423Y-6433D01*
X2476Y-6433D01*
X3076Y-6433D01*
X3125Y-6413D01*
X3163Y-6375D01*
X3183Y-6326D01*
X3183Y-6273D01*
X3183Y-5673D01*
X3163Y-5624D01*
X3125Y-5586D01*
X3076Y-5566D01*
X3023Y-5566D01*
X2981Y-5566D01*
X2981Y-5346D01*
X3096Y-5231D01*
X3250Y-5231D01*
X4500Y-5231D01*
X4588Y-5214D01*
X4588Y-5214D01*
X4663Y-5163D01*
X4846Y-4980D01*
X4846Y-4980D01*
X4846Y-4980D01*
X4897Y-4905D01*
X4914Y-4817D01*
X4914Y-4817D01*
X4914Y-4817D01*
X4914Y-4497D01*
X4953Y-4481D01*
X5570Y-4481D01*
X5584Y-4496D01*
X5691Y-4540D01*
X5807Y-4540D01*
X5914Y-4496D01*
X5996Y-4415D01*
X6018Y-4362D01*
X6018Y-4600D01*
X5999Y-4644D01*
X5981Y-4598D01*
X5943Y-4561D01*
X5894Y-4541D01*
X5841Y-4541D01*
X5605Y-4541D01*
X5556Y-4561D01*
X5518Y-4598D01*
X5498Y-4647D01*
X5498Y-4700D01*
X5498Y-5251D01*
X5518Y-5299D01*
X5518Y-5403D01*
X5403Y-5518D01*
X5308Y-5518D01*
X5308Y-5498D01*
X5288Y-5449D01*
X5250Y-5411D01*
X5201Y-5391D01*
X5148Y-5391D01*
X4898Y-5391D01*
X4849Y-5411D01*
X4811Y-5449D01*
X4791Y-5498D01*
X4791Y-5551D01*
X4791Y-6001D01*
X4811Y-6050D01*
X4849Y-6088D01*
X4898Y-6108D01*
X4951Y-6108D01*
X5201Y-6108D01*
X5250Y-6088D01*
X5288Y-6050D01*
X5308Y-6001D01*
X5308Y-5981D01*
X5500Y-5981D01*
X5588Y-5964D01*
X5588Y-5964D01*
X5663Y-5913D01*
X5913Y-5663D01*
X5913Y-5663D01*
X5913Y-5663D01*
X5964Y-5588D01*
X5981Y-5500D01*
X5981Y-5299D01*
X6000Y-5255D01*
X6018Y-5301D01*
X6056Y-5338D01*
X6105Y-5358D01*
X6158Y-5358D01*
X6394Y-5358D01*
X6443Y-5338D01*
X6481Y-5301D01*
X6500Y-5255D01*
X6518Y-5301D01*
X6556Y-5338D01*
X6605Y-5358D01*
X6658Y-5358D01*
X6894Y-5358D01*
X6943Y-5338D01*
X6981Y-5301D01*
X7000Y-5255D01*
X7018Y-5301D01*
X7056Y-5338D01*
X7105Y-5358D01*
X7158Y-5358D01*
X7394Y-5358D01*
X7443Y-5338D01*
X7481Y-5301D01*
X7501Y-5252D01*
X7501Y-5199D01*
X7501Y-4648D01*
X7481Y-4598D01*
X7443Y-4561D01*
X7394Y-4541D01*
X7341Y-4541D01*
X7105Y-4541D01*
X7056Y-4561D01*
X7018Y-4598D01*
X6999Y-4644D01*
X6981Y-4600D01*
X6981Y-4500D01*
X6981Y-4481D01*
X7500Y-4481D01*
X7796Y-4481D01*
X7843Y-4501D01*
X7896Y-4501D01*
X8290Y-4501D01*
X8339Y-4481D01*
X8377Y-4443D01*
X8397Y-4394D01*
X8397Y-4341D01*
X8397Y-5768D01*
X7250Y-5768D01*
X7161Y-5785D01*
X7086Y-5836D01*
X6653Y-6268D01*
X4675Y-6268D01*
X4675Y-5955D01*
X4675Y-5544D01*
X4675Y-5504D01*
X4660Y-5468D01*
X4631Y-5439D01*
X4594Y-5424D01*
X4537Y-5424D01*
X4512Y-5449D01*
X4512Y-5637D01*
X4650Y-5637D01*
X4675Y-5612D01*
X4675Y-5544D01*
X4675Y-5955D01*
X4675Y-5887D01*
X4650Y-5862D01*
X4512Y-5862D01*
X4512Y-6050D01*
X4537Y-6075D01*
X4594Y-6075D01*
X4631Y-6060D01*
X4660Y-6031D01*
X4675Y-5995D01*
X4675Y-5955D01*
X4675Y-6268D01*
X4387Y-6268D01*
X4387Y-6050D01*
X4387Y-5862D01*
X4387Y-5637D01*
X4387Y-5449D01*
X4362Y-5424D01*
X4305Y-5424D01*
X4268Y-5439D01*
X4239Y-5468D01*
X4224Y-5504D01*
X4224Y-5544D01*
X4224Y-5612D01*
X4249Y-5637D01*
X4387Y-5637D01*
X4387Y-5862D01*
X4249Y-5862D01*
X4224Y-5887D01*
X4224Y-5955D01*
X4224Y-5995D01*
X4239Y-6031D01*
X4268Y-6060D01*
X4305Y-6075D01*
X4362Y-6075D01*
X4387Y-6050D01*
X4387Y-6268D01*
X4250Y-6268D01*
X4161Y-6285D01*
X4086Y-6336D01*
X4086Y-6336D01*
X3836Y-6586D01*
X3785Y-6661D01*
X3768Y-6750D01*
X3768Y-7768D01*
X3558Y-7768D01*
X3558Y-7748D01*
X3538Y-7699D01*
X3500Y-7661D01*
X3451Y-7641D01*
X3398Y-7641D01*
X3148Y-7641D01*
X3099Y-7661D01*
X3061Y-7699D01*
X3041Y-7748D01*
X3041Y-7801D01*
X3041Y-8251D01*
X3061Y-8300D01*
X3099Y-8338D01*
X3148Y-8358D01*
X3201Y-8358D01*
X3451Y-8358D01*
X3500Y-8338D01*
X3538Y-8300D01*
X3558Y-8251D01*
X3558Y-8231D01*
X4000Y-8231D01*
X4191Y-8231D01*
X4191Y-8251D01*
X4211Y-8300D01*
X4249Y-8338D01*
X4298Y-8358D01*
X4351Y-8358D01*
X4601Y-8358D01*
X4650Y-8338D01*
X4688Y-8300D01*
X4708Y-8251D01*
X4708Y-8198D01*
X4708Y-7748D01*
X4688Y-7699D01*
X4650Y-7661D01*
X4601Y-7641D01*
X4548Y-7641D01*
X4298Y-7641D01*
X4249Y-7661D01*
X4231Y-7679D01*
X4231Y-6846D01*
X4346Y-6731D01*
X5505Y-6731D01*
X5498Y-6747D01*
X5498Y-6800D01*
X5498Y-7351D01*
X5518Y-7399D01*
X5518Y-7623D01*
X5516Y-7625D01*
X5496Y-7674D01*
X5496Y-7727D01*
X5496Y-7768D01*
X5308Y-7768D01*
X5308Y-7748D01*
X5288Y-7699D01*
X5250Y-7661D01*
X5201Y-7641D01*
X5148Y-7641D01*
X4898Y-7641D01*
X4849Y-7661D01*
X4811Y-7699D01*
X4791Y-7748D01*
X4791Y-7801D01*
X4791Y-8251D01*
X4811Y-8300D01*
X4849Y-8338D01*
X4898Y-8358D01*
X4951Y-8358D01*
X5201Y-8358D01*
X5250Y-8338D01*
X5288Y-8300D01*
X5308Y-8251D01*
X5308Y-8231D01*
X5496Y-8231D01*
X5496Y-8325D01*
X5516Y-8374D01*
X5554Y-8412D01*
X5603Y-8432D01*
X5656Y-8432D01*
X5896Y-8432D01*
X5945Y-8412D01*
X5983Y-8374D01*
X6003Y-8325D01*
X6003Y-8272D01*
X6003Y-7674D01*
X5983Y-7625D01*
X5981Y-7623D01*
X5981Y-7399D01*
X6001Y-7352D01*
X6001Y-7299D01*
X6001Y-6774D01*
X6031Y-6774D01*
X6031Y-6794D01*
X6031Y-6887D01*
X6056Y-6912D01*
X6191Y-6912D01*
X6191Y-6774D01*
X6309Y-6774D01*
X6309Y-6912D01*
X6443Y-6912D01*
X6468Y-6887D01*
X6468Y-6794D01*
X6468Y-6774D01*
X6498Y-6774D01*
X6498Y-6800D01*
X6498Y-7351D01*
X6518Y-7401D01*
X6556Y-7438D01*
X6605Y-7458D01*
X6658Y-7458D01*
X6894Y-7458D01*
X6943Y-7438D01*
X6981Y-7401D01*
X7000Y-7355D01*
X7018Y-7399D01*
X7018Y-7750D01*
X7035Y-7838D01*
X7086Y-7913D01*
X7336Y-8163D01*
X7336Y-8163D01*
X7411Y-8214D01*
X7500Y-8231D01*
X7996Y-8231D01*
X7996Y-8325D01*
X8016Y-8374D01*
X8054Y-8412D01*
X8103Y-8432D01*
X8156Y-8432D01*
X8396Y-8432D01*
X8445Y-8412D01*
X8483Y-8374D01*
X8503Y-8325D01*
X8503Y-8272D01*
X8503Y-7674D01*
X8483Y-7625D01*
X8445Y-7587D01*
X8396Y-7567D01*
X8343Y-7567D01*
X8103Y-7567D01*
X8054Y-7587D01*
X8016Y-7625D01*
X7996Y-7674D01*
X7996Y-7727D01*
X7996Y-7768D01*
X7596Y-7768D01*
X7481Y-7653D01*
X7481Y-7399D01*
X7501Y-7352D01*
X7501Y-7299D01*
X7501Y-6748D01*
X7481Y-6698D01*
X7443Y-6661D01*
X7394Y-6641D01*
X7341Y-6641D01*
X7105Y-6641D01*
X7056Y-6661D01*
X7018Y-6698D01*
X6999Y-6744D01*
X6981Y-6700D01*
X6981Y-6596D01*
X7346Y-6231D01*
X8929Y-6231D01*
X8911Y-6249D01*
X8891Y-6298D01*
X8891Y-6351D01*
X8891Y-6601D01*
X8911Y-6650D01*
X8949Y-6688D01*
X8998Y-6708D01*
X9051Y-6708D01*
X9501Y-6708D01*
X9550Y-6688D01*
X9588Y-6650D01*
X9608Y-6601D01*
X9608Y-6548D01*
X9608Y-6298D01*
X9588Y-6249D01*
X9570Y-6231D01*
X10250Y-6231D01*
X10338Y-6214D01*
X10338Y-6214D01*
X10413Y-6163D01*
X10513Y-6064D01*
X10801Y-6064D01*
X10801Y-6567D01*
X10821Y-6617D01*
X10859Y-6654D01*
X10908Y-6674D01*
X10919Y-6674D01*
X10919Y-6750D01*
X10919Y-7334D01*
X10803Y-7450D01*
X10722Y-7644D01*
X10722Y-7854D01*
X10802Y-8048D01*
X10950Y-8196D01*
X11124Y-8268D01*
X11080Y-8302D01*
X11250Y-8471D01*
X11419Y-8302D01*
X11375Y-8268D01*
X11548Y-8197D01*
X11696Y-8049D01*
X11777Y-7855D01*
X11777Y-7645D01*
X11697Y-7451D01*
X11580Y-7334D01*
X11580Y-6981D01*
X11941Y-6981D01*
X11941Y-7001D01*
X11961Y-7050D01*
X11999Y-7088D01*
X12048Y-7108D01*
X12101Y-7108D01*
X12351Y-7108D01*
X12400Y-7088D01*
X12438Y-7050D01*
X12458Y-7001D01*
X12458Y-6948D01*
X12458Y-8966D01*
X11746Y-8966D01*
X11744Y-8966D01*
X11746Y-8964D01*
X11860Y-8851D01*
X11765Y-8755D01*
X11746Y-8773D01*
X11743Y-8777D01*
X11746Y-8666D01*
X11740Y-8636D01*
X11697Y-8580D01*
X11528Y-8750D01*
X11649Y-8871D01*
X11554Y-8966D01*
X10971Y-8966D01*
X10945Y-8966D01*
X10850Y-8871D01*
X10971Y-8750D01*
X10802Y-8580D01*
X10759Y-8636D01*
X10754Y-8775D01*
X10734Y-8755D01*
X10639Y-8851D01*
X10755Y-8966D01*
X9608Y-8966D01*
X9608Y-7148D01*
X9608Y-6898D01*
X9588Y-6849D01*
X9550Y-6811D01*
X9501Y-6791D01*
X9448Y-6791D01*
X8998Y-6791D01*
X8949Y-6811D01*
X8911Y-6849D01*
X8891Y-6898D01*
X8891Y-6951D01*
X8891Y-7201D01*
X8911Y-7250D01*
X8949Y-7288D01*
X8998Y-7308D01*
X9018Y-7308D01*
X9018Y-7623D01*
X9016Y-7625D01*
X8996Y-7674D01*
X8996Y-7727D01*
X8996Y-8325D01*
X9016Y-8374D01*
X9054Y-8412D01*
X9103Y-8432D01*
X9156Y-8432D01*
X9396Y-8432D01*
X9445Y-8412D01*
X9483Y-8374D01*
X9503Y-8325D01*
X9503Y-8272D01*
X9503Y-7674D01*
X9483Y-7625D01*
X9481Y-7623D01*
X9481Y-7308D01*
X9501Y-7308D01*
X9550Y-7288D01*
X9588Y-7250D01*
X9608Y-7201D01*
X9608Y-7148D01*
X9608Y-8966D01*
X6970Y-8966D01*
X6970Y-8279D01*
X6970Y-7720D01*
X6970Y-7680D01*
X6955Y-7643D01*
X6926Y-7615D01*
X6889Y-7600D01*
X6835Y-7600D01*
X6810Y-7625D01*
X6810Y-7850D01*
X6945Y-7850D01*
X6970Y-7825D01*
X6970Y-7720D01*
X6970Y-8279D01*
X6970Y-8174D01*
X6945Y-8149D01*
X6810Y-8149D01*
X6810Y-8374D01*
X6835Y-8399D01*
X6889Y-8399D01*
X6926Y-8384D01*
X6955Y-8356D01*
X6970Y-8319D01*
X6970Y-8279D01*
X6970Y-8966D01*
X6689Y-8966D01*
X6689Y-8374D01*
X6689Y-8149D01*
X6689Y-7850D01*
X6689Y-7625D01*
X6664Y-7600D01*
X6610Y-7600D01*
X6573Y-7615D01*
X6544Y-7643D01*
X6529Y-7680D01*
X6529Y-7720D01*
X6529Y-7825D01*
X6554Y-7850D01*
X6689Y-7850D01*
X6689Y-8149D01*
X6554Y-8149D01*
X6529Y-8174D01*
X6529Y-8279D01*
X6529Y-8319D01*
X6544Y-8356D01*
X6573Y-8384D01*
X6610Y-8399D01*
X6664Y-8399D01*
X6689Y-8374D01*
X6689Y-8966D01*
X6468Y-8966D01*
X6468Y-7305D01*
X6468Y-7212D01*
X6443Y-7187D01*
X6309Y-7187D01*
X6309Y-7400D01*
X6334Y-7425D01*
X6387Y-7425D01*
X6424Y-7410D01*
X6453Y-7382D01*
X6468Y-7345D01*
X6468Y-7305D01*
X6468Y-8966D01*
X6191Y-8966D01*
X6191Y-7400D01*
X6191Y-7187D01*
X6056Y-7187D01*
X6031Y-7212D01*
X6031Y-7305D01*
X6031Y-7345D01*
X6046Y-7382D01*
X6075Y-7410D01*
X6112Y-7425D01*
X6165Y-7425D01*
X6191Y-7400D01*
X6191Y-8966D01*
X2958Y-8966D01*
X2958Y-8198D01*
X2958Y-7748D01*
X2938Y-7699D01*
X2900Y-7661D01*
X2851Y-7641D01*
X2798Y-7641D01*
X2548Y-7641D01*
X2499Y-7661D01*
X2461Y-7699D01*
X2441Y-7748D01*
X2441Y-7768D01*
X2308Y-7768D01*
X2308Y-7748D01*
X2288Y-7699D01*
X2250Y-7661D01*
X2201Y-7641D01*
X2183Y-7641D01*
X2183Y-5914D01*
X2117Y-5754D01*
X1995Y-5632D01*
X1981Y-5626D01*
X1981Y-5308D01*
X2001Y-5308D01*
X2050Y-5288D01*
X2088Y-5250D01*
X2108Y-5201D01*
X2108Y-5148D01*
X2108Y-4898D01*
X2108Y-4548D01*
X2108Y-4298D01*
X2088Y-4249D01*
X2050Y-4211D01*
X2001Y-4191D01*
X1981Y-4191D01*
X1981Y-3679D01*
X1996Y-3665D01*
X2040Y-3558D01*
X2040Y-3442D01*
X1996Y-3335D01*
X1915Y-3253D01*
X1808Y-3209D01*
X1692Y-3209D01*
X1585Y-3253D01*
X1503Y-3334D01*
X1459Y-3441D01*
X1459Y-3557D01*
X1503Y-3664D01*
X1518Y-3679D01*
X1518Y-4191D01*
X1498Y-4191D01*
X1449Y-4211D01*
X1411Y-4249D01*
X1391Y-4298D01*
X1391Y-4351D01*
X1391Y-4601D01*
X1411Y-4650D01*
X1449Y-4688D01*
X1498Y-4708D01*
X1551Y-4708D01*
X2001Y-4708D01*
X2050Y-4688D01*
X2088Y-4650D01*
X2108Y-4601D01*
X2108Y-4548D01*
X2108Y-4898D01*
X2088Y-4849D01*
X2050Y-4811D01*
X2001Y-4791D01*
X1948Y-4791D01*
X1498Y-4791D01*
X1449Y-4811D01*
X1411Y-4849D01*
X1391Y-4898D01*
X1391Y-4951D01*
X1391Y-5201D01*
X1411Y-5250D01*
X1449Y-5288D01*
X1498Y-5308D01*
X1518Y-5308D01*
X1518Y-5626D01*
X1504Y-5632D01*
X1382Y-5754D01*
X1316Y-5913D01*
X1316Y-6085D01*
X1382Y-6245D01*
X1504Y-6367D01*
X1663Y-6433D01*
X1835Y-6433D01*
X1995Y-6367D01*
X2117Y-6245D01*
X2183Y-6086D01*
X2183Y-5914D01*
X2183Y-7641D01*
X2148Y-7641D01*
X1898Y-7641D01*
X1849Y-7661D01*
X1811Y-7699D01*
X1791Y-7748D01*
X1791Y-7801D01*
X1791Y-8251D01*
X1811Y-8300D01*
X1849Y-8338D01*
X1898Y-8358D01*
X1951Y-8358D01*
X2201Y-8358D01*
X2250Y-8338D01*
X2288Y-8300D01*
X2308Y-8251D01*
X2308Y-8231D01*
X2441Y-8231D01*
X2441Y-8251D01*
X2461Y-8300D01*
X2499Y-8338D01*
X2548Y-8358D01*
X2601Y-8358D01*
X2851Y-8358D01*
X2900Y-8338D01*
X2938Y-8300D01*
X2958Y-8251D01*
X2958Y-8198D01*
X2958Y-8966D01*
X1675Y-8966D01*
X1675Y-8205D01*
X1675Y-7794D01*
X1675Y-7754D01*
X1660Y-7718D01*
X1631Y-7689D01*
X1594Y-7674D01*
X1537Y-7674D01*
X1512Y-7699D01*
X1512Y-7887D01*
X1650Y-7887D01*
X1675Y-7862D01*
X1675Y-7794D01*
X1675Y-8205D01*
X1675Y-8137D01*
X1650Y-8112D01*
X1512Y-8112D01*
X1512Y-8300D01*
X1537Y-8325D01*
X1594Y-8325D01*
X1631Y-8310D01*
X1660Y-8281D01*
X1675Y-8245D01*
X1675Y-8205D01*
X1675Y-8966D01*
X1387Y-8966D01*
X1387Y-8300D01*
X1387Y-8112D01*
X1387Y-7887D01*
X1387Y-7699D01*
X1362Y-7674D01*
X1305Y-7674D01*
X1268Y-7689D01*
X1239Y-7718D01*
X1224Y-7754D01*
X1224Y-7794D01*
X1224Y-7862D01*
X1249Y-7887D01*
X1387Y-7887D01*
X1387Y-8112D01*
X1249Y-8112D01*
X1224Y-8137D01*
X1224Y-8205D01*
X1224Y-8245D01*
X1239Y-8281D01*
X1268Y-8310D01*
X1305Y-8325D01*
X1362Y-8325D01*
X1387Y-8300D01*
X1387Y-8966D01*
X120Y-8966D01*
X120Y-1511D01*
X226Y-973D01*
X524Y-526D01*
X974Y-227D01*
X1514Y-120D01*
X11988Y-120D01*
X12526Y-226D01*
X12973Y-524D01*
X13272Y-974D01*
X13379Y-1514D01*
X13379Y-8966D01*
X13379Y-8966D01*
G37*
G54D31*
X13379Y-8966D02*
X13025Y-8966D01*
X13025Y-6955D01*
X13025Y-6544D01*
X13025Y-6504D01*
X13019Y-6490D01*
X13019Y-1298D01*
X12864Y-923D01*
X12578Y-636D01*
X12203Y-480D01*
X11798Y-480D01*
X11423Y-635D01*
X11136Y-921D01*
X10980Y-1296D01*
X10980Y-1701D01*
X11135Y-2076D01*
X11421Y-2363D01*
X11796Y-2519D01*
X12201Y-2519D01*
X12576Y-2364D01*
X12863Y-2078D01*
X13019Y-1703D01*
X13019Y-1298D01*
X13019Y-6490D01*
X13010Y-6468D01*
X12981Y-6439D01*
X12944Y-6424D01*
X12887Y-6424D01*
X12862Y-6449D01*
X12862Y-6637D01*
X13000Y-6637D01*
X13025Y-6612D01*
X13025Y-6544D01*
X13025Y-6955D01*
X13025Y-6887D01*
X13000Y-6862D01*
X12862Y-6862D01*
X12862Y-7050D01*
X12887Y-7075D01*
X12944Y-7075D01*
X12981Y-7060D01*
X13010Y-7031D01*
X13025Y-6995D01*
X13025Y-6955D01*
X13025Y-8966D01*
X12737Y-8966D01*
X12737Y-7050D01*
X12737Y-6862D01*
X12737Y-6637D01*
X12737Y-6449D01*
X12712Y-6424D01*
X12655Y-6424D01*
X12618Y-6439D01*
X12589Y-6468D01*
X12574Y-6504D01*
X12574Y-6544D01*
X12574Y-6612D01*
X12599Y-6637D01*
X12737Y-6637D01*
X12737Y-6862D01*
X12599Y-6862D01*
X12574Y-6887D01*
X12574Y-6955D01*
X12574Y-6995D01*
X12589Y-7031D01*
X12618Y-7060D01*
X12655Y-7075D01*
X12712Y-7075D01*
X12737Y-7050D01*
X12737Y-8966D01*
X12458Y-8966D01*
X12458Y-6948D01*
X12458Y-6498D01*
X12438Y-6449D01*
X12400Y-6411D01*
X12351Y-6391D01*
X12298Y-6391D01*
X12048Y-6391D01*
X11999Y-6411D01*
X11961Y-6449D01*
X11941Y-6498D01*
X11941Y-6518D01*
X11698Y-6518D01*
X11698Y-6515D01*
X11698Y-5098D01*
X11678Y-5048D01*
X11665Y-5036D01*
X11665Y-4395D01*
X11665Y-2938D01*
X11650Y-2901D01*
X11621Y-2873D01*
X11585Y-2858D01*
X11545Y-2858D01*
X11432Y-2858D01*
X11407Y-2883D01*
X11407Y-3312D01*
X11640Y-3312D01*
X11665Y-3287D01*
X11665Y-2938D01*
X11665Y-4395D01*
X11665Y-4046D01*
X11640Y-4021D01*
X11407Y-4021D01*
X11407Y-4450D01*
X11432Y-4475D01*
X11545Y-4475D01*
X11585Y-4475D01*
X11621Y-4460D01*
X11650Y-4432D01*
X11665Y-4395D01*
X11665Y-5036D01*
X11640Y-5011D01*
X11591Y-4991D01*
X11538Y-4991D01*
X11092Y-4991D01*
X11092Y-4450D01*
X11092Y-4021D01*
X11092Y-3312D01*
X11092Y-2883D01*
X11067Y-2858D01*
X10954Y-2858D01*
X10914Y-2858D01*
X10878Y-2873D01*
X10849Y-2901D01*
X10834Y-2938D01*
X10834Y-3287D01*
X10859Y-3312D01*
X11092Y-3312D01*
X11092Y-4021D01*
X10859Y-4021D01*
X10834Y-4046D01*
X10834Y-4395D01*
X10849Y-4432D01*
X10878Y-4460D01*
X10914Y-4475D01*
X10954Y-4475D01*
X11067Y-4475D01*
X11092Y-4450D01*
X11092Y-4991D01*
X10908Y-4991D01*
X10859Y-5011D01*
X10821Y-5048D01*
X10801Y-5097D01*
X10801Y-5150D01*
X10801Y-5601D01*
X10417Y-5601D01*
X10328Y-5618D01*
X10253Y-5669D01*
X10153Y-5768D01*
X9500Y-5768D01*
X9350Y-5768D01*
X9350Y-1980D01*
X9350Y-1019D01*
X9350Y-979D01*
X9335Y-943D01*
X9306Y-914D01*
X9269Y-899D01*
X9025Y-899D01*
X9000Y-924D01*
X9000Y-1250D01*
X9325Y-1250D01*
X9350Y-1224D01*
X9350Y-1019D01*
X9350Y-1980D01*
X9350Y-1775D01*
X9325Y-1750D01*
X9000Y-1750D01*
X9000Y-2075D01*
X9025Y-2100D01*
X9269Y-2100D01*
X9306Y-2085D01*
X9335Y-2056D01*
X9350Y-2020D01*
X9350Y-1980D01*
X9350Y-5768D01*
X9250Y-5768D01*
X9164Y-5768D01*
X9164Y-4497D01*
X9205Y-4481D01*
X9243Y-4443D01*
X9263Y-4394D01*
X9263Y-4341D01*
X9263Y-4105D01*
X9243Y-4056D01*
X9205Y-4018D01*
X9164Y-4001D01*
X9164Y-3747D01*
X9205Y-3731D01*
X9243Y-3693D01*
X9263Y-3644D01*
X9263Y-3591D01*
X9263Y-3355D01*
X9243Y-3306D01*
X9205Y-3268D01*
X9156Y-3248D01*
X9103Y-3248D01*
X8709Y-3248D01*
X8660Y-3268D01*
X8622Y-3306D01*
X8602Y-3355D01*
X8602Y-3408D01*
X8602Y-3644D01*
X8622Y-3693D01*
X8660Y-3731D01*
X8701Y-3748D01*
X8701Y-4002D01*
X8660Y-4018D01*
X8622Y-4056D01*
X8602Y-4105D01*
X8602Y-4158D01*
X8602Y-4394D01*
X8622Y-4443D01*
X8660Y-4481D01*
X8701Y-4498D01*
X8701Y-5768D01*
X8500Y-5768D01*
X8500Y-2075D01*
X8500Y-1750D01*
X8500Y-1250D01*
X8500Y-924D01*
X8474Y-899D01*
X8230Y-899D01*
X8193Y-914D01*
X8164Y-943D01*
X8149Y-979D01*
X8149Y-1019D01*
X8149Y-1224D01*
X8174Y-1250D01*
X8500Y-1250D01*
X8500Y-1750D01*
X8174Y-1750D01*
X8149Y-1775D01*
X8149Y-1980D01*
X8149Y-2020D01*
X8164Y-2056D01*
X8193Y-2085D01*
X8230Y-2100D01*
X8474Y-2100D01*
X8500Y-2075D01*
X8500Y-5768D01*
X8397Y-5768D01*
X8397Y-4341D01*
X8397Y-4105D01*
X8377Y-4056D01*
X8339Y-4018D01*
X8290Y-3998D01*
X8237Y-3998D01*
X7843Y-3998D01*
X7796Y-4018D01*
X7500Y-4018D01*
X6981Y-4018D01*
X6981Y-3613D01*
X7003Y-3664D01*
X7084Y-3746D01*
X7191Y-3790D01*
X7307Y-3790D01*
X7414Y-3746D01*
X7429Y-3731D01*
X7796Y-3731D01*
X7843Y-3751D01*
X7896Y-3751D01*
X8290Y-3751D01*
X8339Y-3731D01*
X8377Y-3693D01*
X8397Y-3644D01*
X8397Y-3591D01*
X8397Y-3355D01*
X8377Y-3306D01*
X8339Y-3268D01*
X8290Y-3248D01*
X8237Y-3248D01*
X7843Y-3248D01*
X7796Y-3268D01*
X7429Y-3268D01*
X7415Y-3253D01*
X7308Y-3209D01*
X7192Y-3209D01*
X7085Y-3253D01*
X7003Y-3334D01*
X6981Y-3387D01*
X6981Y-2089D01*
X7108Y-2037D01*
X7286Y-1859D01*
X7383Y-1626D01*
X7383Y-1374D01*
X7287Y-1141D01*
X7109Y-963D01*
X6876Y-866D01*
X6624Y-866D01*
X6391Y-962D01*
X6213Y-1140D01*
X6116Y-1373D01*
X6116Y-1625D01*
X6212Y-1858D01*
X6390Y-2036D01*
X6518Y-2089D01*
X6518Y-3386D01*
X6496Y-3335D01*
X6415Y-3253D01*
X6308Y-3209D01*
X6192Y-3209D01*
X6085Y-3253D01*
X6070Y-3268D01*
X5481Y-3268D01*
X5481Y-3000D01*
X5481Y-2750D01*
X5464Y-2661D01*
X5464Y-2661D01*
X5413Y-2586D01*
X4981Y-2153D01*
X4981Y-2089D01*
X5108Y-2037D01*
X5286Y-1859D01*
X5383Y-1626D01*
X5383Y-1374D01*
X5287Y-1141D01*
X5109Y-963D01*
X4876Y-866D01*
X4624Y-866D01*
X4391Y-962D01*
X4213Y-1140D01*
X4116Y-1373D01*
X4116Y-1625D01*
X4212Y-1858D01*
X4390Y-2036D01*
X4518Y-2089D01*
X4518Y-2250D01*
X4535Y-2338D01*
X4586Y-2413D01*
X5018Y-2846D01*
X5018Y-3000D01*
X5018Y-3268D01*
X4953Y-3268D01*
X4906Y-3248D01*
X4853Y-3248D01*
X4459Y-3248D01*
X4410Y-3268D01*
X4372Y-3306D01*
X4352Y-3355D01*
X4352Y-3408D01*
X4352Y-3644D01*
X4372Y-3693D01*
X4410Y-3731D01*
X4459Y-3751D01*
X4512Y-3751D01*
X4906Y-3751D01*
X4953Y-3731D01*
X5250Y-3731D01*
X6018Y-3731D01*
X6018Y-4136D01*
X5996Y-4085D01*
X5915Y-4003D01*
X5808Y-3959D01*
X5692Y-3959D01*
X5585Y-4003D01*
X5570Y-4018D01*
X4953Y-4018D01*
X4906Y-3998D01*
X4853Y-3998D01*
X4459Y-3998D01*
X4410Y-4018D01*
X4372Y-4056D01*
X4352Y-4105D01*
X4352Y-4158D01*
X4352Y-4394D01*
X4372Y-4443D01*
X4410Y-4481D01*
X4451Y-4498D01*
X4451Y-4720D01*
X4403Y-4768D01*
X4114Y-4768D01*
X4114Y-4348D01*
X4114Y-4151D01*
X4114Y-3598D01*
X4114Y-3401D01*
X4114Y-3361D01*
X4099Y-3325D01*
X4070Y-3296D01*
X4033Y-3281D01*
X3940Y-3281D01*
X3915Y-3306D01*
X3915Y-3441D01*
X4089Y-3441D01*
X4114Y-3415D01*
X4114Y-3401D01*
X4114Y-3598D01*
X4114Y-3584D01*
X4089Y-3559D01*
X3915Y-3559D01*
X3915Y-3693D01*
X3940Y-3718D01*
X4033Y-3718D01*
X4070Y-3703D01*
X4099Y-3674D01*
X4114Y-3638D01*
X4114Y-3598D01*
X4114Y-4151D01*
X4114Y-4111D01*
X4099Y-4075D01*
X4070Y-4046D01*
X4033Y-4031D01*
X3940Y-4031D01*
X3915Y-4056D01*
X3915Y-4191D01*
X4089Y-4191D01*
X4114Y-4165D01*
X4114Y-4151D01*
X4114Y-4348D01*
X4114Y-4334D01*
X4089Y-4309D01*
X3915Y-4309D01*
X3915Y-4443D01*
X3940Y-4468D01*
X4033Y-4468D01*
X4070Y-4453D01*
X4099Y-4424D01*
X4114Y-4388D01*
X4114Y-4348D01*
X4114Y-4768D01*
X3718Y-4768D01*
X3718Y-4443D01*
X3718Y-4309D01*
X3718Y-4191D01*
X3718Y-4056D01*
X3718Y-3693D01*
X3718Y-3559D01*
X3718Y-3441D01*
X3718Y-3306D01*
X3693Y-3281D01*
X3600Y-3281D01*
X3563Y-3296D01*
X3534Y-3325D01*
X3519Y-3361D01*
X3519Y-3401D01*
X3519Y-3415D01*
X3544Y-3441D01*
X3718Y-3441D01*
X3718Y-3559D01*
X3544Y-3559D01*
X3519Y-3584D01*
X3519Y-3598D01*
X3519Y-3638D01*
X3534Y-3674D01*
X3563Y-3703D01*
X3600Y-3718D01*
X3693Y-3718D01*
X3718Y-3693D01*
X3718Y-4056D01*
X3693Y-4031D01*
X3600Y-4031D01*
X3563Y-4046D01*
X3534Y-4075D01*
X3519Y-4111D01*
X3519Y-4151D01*
X3519Y-4165D01*
X3544Y-4191D01*
X3718Y-4191D01*
X3718Y-4309D01*
X3544Y-4309D01*
X3519Y-4334D01*
X3519Y-4348D01*
X3519Y-4388D01*
X3534Y-4424D01*
X3563Y-4453D01*
X3600Y-4468D01*
X3693Y-4468D01*
X3718Y-4443D01*
X3718Y-4768D01*
X3250Y-4768D01*
X3000Y-4768D01*
X2911Y-4785D01*
X2836Y-4836D01*
X2836Y-4836D01*
X2586Y-5086D01*
X2535Y-5161D01*
X2519Y-5243D01*
X2519Y-1298D01*
X2364Y-923D01*
X2078Y-636D01*
X1703Y-480D01*
X1298Y-480D01*
X923Y-635D01*
X636Y-921D01*
X480Y-1296D01*
X480Y-1701D01*
X635Y-2076D01*
X921Y-2363D01*
X1296Y-2519D01*
X1701Y-2519D01*
X2076Y-2364D01*
X2363Y-2078D01*
X2519Y-1703D01*
X2519Y-1298D01*
X2519Y-5243D01*
X2518Y-5250D01*
X2518Y-5566D01*
X2423Y-5566D01*
X2374Y-5586D01*
X2336Y-5624D01*
X2316Y-5673D01*
X2316Y-5726D01*
X2316Y-6326D01*
X2336Y-6375D01*
X2374Y-6413D01*
X2423Y-6433D01*
X2476Y-6433D01*
X3076Y-6433D01*
X3125Y-6413D01*
X3163Y-6375D01*
X3183Y-6326D01*
X3183Y-6273D01*
X3183Y-5673D01*
X3163Y-5624D01*
X3125Y-5586D01*
X3076Y-5566D01*
X3023Y-5566D01*
X2981Y-5566D01*
X2981Y-5346D01*
X3096Y-5231D01*
X3250Y-5231D01*
X4500Y-5231D01*
X4588Y-5214D01*
X4588Y-5214D01*
X4663Y-5163D01*
X4846Y-4980D01*
X4846Y-4980D01*
X4846Y-4980D01*
X4897Y-4905D01*
X4914Y-4817D01*
X4914Y-4817D01*
X4914Y-4817D01*
X4914Y-4497D01*
X4953Y-4481D01*
X5570Y-4481D01*
X5584Y-4496D01*
X5691Y-4540D01*
X5807Y-4540D01*
X5914Y-4496D01*
X5996Y-4415D01*
X6018Y-4362D01*
X6018Y-4600D01*
X5999Y-4644D01*
X5981Y-4598D01*
X5943Y-4561D01*
X5894Y-4541D01*
X5841Y-4541D01*
X5605Y-4541D01*
X5556Y-4561D01*
X5518Y-4598D01*
X5498Y-4647D01*
X5498Y-4700D01*
X5498Y-5251D01*
X5518Y-5299D01*
X5518Y-5403D01*
X5403Y-5518D01*
X5308Y-5518D01*
X5308Y-5498D01*
X5288Y-5449D01*
X5250Y-5411D01*
X5201Y-5391D01*
X5148Y-5391D01*
X4898Y-5391D01*
X4849Y-5411D01*
X4811Y-5449D01*
X4791Y-5498D01*
X4791Y-5551D01*
X4791Y-6001D01*
X4811Y-6050D01*
X4849Y-6088D01*
X4898Y-6108D01*
X4951Y-6108D01*
X5201Y-6108D01*
X5250Y-6088D01*
X5288Y-6050D01*
X5308Y-6001D01*
X5308Y-5981D01*
X5500Y-5981D01*
X5588Y-5964D01*
X5588Y-5964D01*
X5663Y-5913D01*
X5913Y-5663D01*
X5913Y-5663D01*
X5913Y-5663D01*
X5964Y-5588D01*
X5981Y-5500D01*
X5981Y-5299D01*
X6000Y-5255D01*
X6018Y-5301D01*
X6056Y-5338D01*
X6105Y-5358D01*
X6158Y-5358D01*
X6394Y-5358D01*
X6443Y-5338D01*
X6481Y-5301D01*
X6500Y-5255D01*
X6518Y-5301D01*
X6556Y-5338D01*
X6605Y-5358D01*
X6658Y-5358D01*
X6894Y-5358D01*
X6943Y-5338D01*
X6981Y-5301D01*
X7000Y-5255D01*
X7018Y-5301D01*
X7056Y-5338D01*
X7105Y-5358D01*
X7158Y-5358D01*
X7394Y-5358D01*
X7443Y-5338D01*
X7481Y-5301D01*
X7501Y-5252D01*
X7501Y-5199D01*
X7501Y-4648D01*
X7481Y-4598D01*
X7443Y-4561D01*
X7394Y-4541D01*
X7341Y-4541D01*
X7105Y-4541D01*
X7056Y-4561D01*
X7018Y-4598D01*
X6999Y-4644D01*
X6981Y-4600D01*
X6981Y-4500D01*
X6981Y-4481D01*
X7500Y-4481D01*
X7796Y-4481D01*
X7843Y-4501D01*
X7896Y-4501D01*
X8290Y-4501D01*
X8339Y-4481D01*
X8377Y-4443D01*
X8397Y-4394D01*
X8397Y-4341D01*
X8397Y-5768D01*
X7250Y-5768D01*
X7161Y-5785D01*
X7086Y-5836D01*
X6653Y-6268D01*
X4675Y-6268D01*
X4675Y-5955D01*
X4675Y-5544D01*
X4675Y-5504D01*
X4660Y-5468D01*
X4631Y-5439D01*
X4594Y-5424D01*
X4537Y-5424D01*
X4512Y-5449D01*
X4512Y-5637D01*
X4650Y-5637D01*
X4675Y-5612D01*
X4675Y-5544D01*
X4675Y-5955D01*
X4675Y-5887D01*
X4650Y-5862D01*
X4512Y-5862D01*
X4512Y-6050D01*
X4537Y-6075D01*
X4594Y-6075D01*
X4631Y-6060D01*
X4660Y-6031D01*
X4675Y-5995D01*
X4675Y-5955D01*
X4675Y-6268D01*
X4387Y-6268D01*
X4387Y-6050D01*
X4387Y-5862D01*
X4387Y-5637D01*
X4387Y-5449D01*
X4362Y-5424D01*
X4305Y-5424D01*
X4268Y-5439D01*
X4239Y-5468D01*
X4224Y-5504D01*
X4224Y-5544D01*
X4224Y-5612D01*
X4249Y-5637D01*
X4387Y-5637D01*
X4387Y-5862D01*
X4249Y-5862D01*
X4224Y-5887D01*
X4224Y-5955D01*
X4224Y-5995D01*
X4239Y-6031D01*
X4268Y-6060D01*
X4305Y-6075D01*
X4362Y-6075D01*
X4387Y-6050D01*
X4387Y-6268D01*
X4250Y-6268D01*
X4161Y-6285D01*
X4086Y-6336D01*
X4086Y-6336D01*
X3836Y-6586D01*
X3785Y-6661D01*
X3768Y-6750D01*
X3768Y-7768D01*
X3558Y-7768D01*
X3558Y-7748D01*
X3538Y-7699D01*
X3500Y-7661D01*
X3451Y-7641D01*
X3398Y-7641D01*
X3148Y-7641D01*
X3099Y-7661D01*
X3061Y-7699D01*
X3041Y-7748D01*
X3041Y-7801D01*
X3041Y-8251D01*
X3061Y-8300D01*
X3099Y-8338D01*
X3148Y-8358D01*
X3201Y-8358D01*
X3451Y-8358D01*
X3500Y-8338D01*
X3538Y-8300D01*
X3558Y-8251D01*
X3558Y-8231D01*
X4000Y-8231D01*
X4191Y-8231D01*
X4191Y-8251D01*
X4211Y-8300D01*
X4249Y-8338D01*
X4298Y-8358D01*
X4351Y-8358D01*
X4601Y-8358D01*
X4650Y-8338D01*
X4688Y-8300D01*
X4708Y-8251D01*
X4708Y-8198D01*
X4708Y-7748D01*
X4688Y-7699D01*
X4650Y-7661D01*
X4601Y-7641D01*
X4548Y-7641D01*
X4298Y-7641D01*
X4249Y-7661D01*
X4231Y-7679D01*
X4231Y-6846D01*
X4346Y-6731D01*
X5505Y-6731D01*
X5498Y-6747D01*
X5498Y-6800D01*
X5498Y-7351D01*
X5518Y-7399D01*
X5518Y-7623D01*
X5516Y-7625D01*
X5496Y-7674D01*
X5496Y-7727D01*
X5496Y-7768D01*
X5308Y-7768D01*
X5308Y-7748D01*
X5288Y-7699D01*
X5250Y-7661D01*
X5201Y-7641D01*
X5148Y-7641D01*
X4898Y-7641D01*
X4849Y-7661D01*
X4811Y-7699D01*
X4791Y-7748D01*
X4791Y-7801D01*
X4791Y-8251D01*
X4811Y-8300D01*
X4849Y-8338D01*
X4898Y-8358D01*
X4951Y-8358D01*
X5201Y-8358D01*
X5250Y-8338D01*
X5288Y-8300D01*
X5308Y-8251D01*
X5308Y-8231D01*
X5496Y-8231D01*
X5496Y-8325D01*
X5516Y-8374D01*
X5554Y-8412D01*
X5603Y-8432D01*
X5656Y-8432D01*
X5896Y-8432D01*
X5945Y-8412D01*
X5983Y-8374D01*
X6003Y-8325D01*
X6003Y-8272D01*
X6003Y-7674D01*
X5983Y-7625D01*
X5981Y-7623D01*
X5981Y-7399D01*
X6001Y-7352D01*
X6001Y-7299D01*
X6001Y-6774D01*
X6031Y-6774D01*
X6031Y-6794D01*
X6031Y-6887D01*
X6056Y-6912D01*
X6191Y-6912D01*
X6191Y-6774D01*
X6309Y-6774D01*
X6309Y-6912D01*
X6443Y-6912D01*
X6468Y-6887D01*
X6468Y-6794D01*
X6468Y-6774D01*
X6498Y-6774D01*
X6498Y-6800D01*
X6498Y-7351D01*
X6518Y-7401D01*
X6556Y-7438D01*
X6605Y-7458D01*
X6658Y-7458D01*
X6894Y-7458D01*
X6943Y-7438D01*
X6981Y-7401D01*
X7000Y-7355D01*
X7018Y-7399D01*
X7018Y-7750D01*
X7035Y-7838D01*
X7086Y-7913D01*
X7336Y-8163D01*
X7336Y-8163D01*
X7411Y-8214D01*
X7500Y-8231D01*
X7996Y-8231D01*
X7996Y-8325D01*
X8016Y-8374D01*
X8054Y-8412D01*
X8103Y-8432D01*
X8156Y-8432D01*
X8396Y-8432D01*
X8445Y-8412D01*
X8483Y-8374D01*
X8503Y-8325D01*
X8503Y-8272D01*
X8503Y-7674D01*
X8483Y-7625D01*
X8445Y-7587D01*
X8396Y-7567D01*
X8343Y-7567D01*
X8103Y-7567D01*
X8054Y-7587D01*
X8016Y-7625D01*
X7996Y-7674D01*
X7996Y-7727D01*
X7996Y-7768D01*
X7596Y-7768D01*
X7481Y-7653D01*
X7481Y-7399D01*
X7501Y-7352D01*
X7501Y-7299D01*
X7501Y-6748D01*
X7481Y-6698D01*
X7443Y-6661D01*
X7394Y-6641D01*
X7341Y-6641D01*
X7105Y-6641D01*
X7056Y-6661D01*
X7018Y-6698D01*
X6999Y-6744D01*
X6981Y-6700D01*
X6981Y-6596D01*
X7346Y-6231D01*
X8929Y-6231D01*
X8911Y-6249D01*
X8891Y-6298D01*
X8891Y-6351D01*
X8891Y-6601D01*
X8911Y-6650D01*
X8949Y-6688D01*
X8998Y-6708D01*
X9051Y-6708D01*
X9501Y-6708D01*
X9550Y-6688D01*
X9588Y-6650D01*
X9608Y-6601D01*
X9608Y-6548D01*
X9608Y-6298D01*
X9588Y-6249D01*
X9570Y-6231D01*
X10250Y-6231D01*
X10338Y-6214D01*
X10338Y-6214D01*
X10413Y-6163D01*
X10513Y-6064D01*
X10801Y-6064D01*
X10801Y-6567D01*
X10821Y-6617D01*
X10859Y-6654D01*
X10908Y-6674D01*
X10919Y-6674D01*
X10919Y-6750D01*
X10919Y-7334D01*
X10803Y-7450D01*
X10722Y-7644D01*
X10722Y-7854D01*
X10802Y-8048D01*
X10950Y-8196D01*
X11124Y-8268D01*
X11080Y-8302D01*
X11250Y-8471D01*
X11419Y-8302D01*
X11375Y-8268D01*
X11548Y-8197D01*
X11696Y-8049D01*
X11777Y-7855D01*
X11777Y-7645D01*
X11697Y-7451D01*
X11580Y-7334D01*
X11580Y-6981D01*
X11941Y-6981D01*
X11941Y-7001D01*
X11961Y-7050D01*
X11999Y-7088D01*
X12048Y-7108D01*
X12101Y-7108D01*
X12351Y-7108D01*
X12400Y-7088D01*
X12438Y-7050D01*
X12458Y-7001D01*
X12458Y-6948D01*
X12458Y-8966D01*
X11746Y-8966D01*
X11744Y-8966D01*
X11746Y-8964D01*
X11860Y-8851D01*
X11765Y-8755D01*
X11746Y-8773D01*
X11743Y-8777D01*
X11746Y-8666D01*
X11740Y-8636D01*
X11697Y-8580D01*
X11528Y-8750D01*
X11649Y-8871D01*
X11554Y-8966D01*
X10971Y-8966D01*
X10945Y-8966D01*
X10850Y-8871D01*
X10971Y-8750D01*
X10802Y-8580D01*
X10759Y-8636D01*
X10754Y-8775D01*
X10734Y-8755D01*
X10639Y-8851D01*
X10755Y-8966D01*
X9608Y-8966D01*
X9608Y-7148D01*
X9608Y-6898D01*
X9588Y-6849D01*
X9550Y-6811D01*
X9501Y-6791D01*
X9448Y-6791D01*
X8998Y-6791D01*
X8949Y-6811D01*
X8911Y-6849D01*
X8891Y-6898D01*
X8891Y-6951D01*
X8891Y-7201D01*
X8911Y-7250D01*
X8949Y-7288D01*
X8998Y-7308D01*
X9018Y-7308D01*
X9018Y-7623D01*
X9016Y-7625D01*
X8996Y-7674D01*
X8996Y-7727D01*
X8996Y-8325D01*
X9016Y-8374D01*
X9054Y-8412D01*
X9103Y-8432D01*
X9156Y-8432D01*
X9396Y-8432D01*
X9445Y-8412D01*
X9483Y-8374D01*
X9503Y-8325D01*
X9503Y-8272D01*
X9503Y-7674D01*
X9483Y-7625D01*
X9481Y-7623D01*
X9481Y-7308D01*
X9501Y-7308D01*
X9550Y-7288D01*
X9588Y-7250D01*
X9608Y-7201D01*
X9608Y-7148D01*
X9608Y-8966D01*
X6970Y-8966D01*
X6970Y-8279D01*
X6970Y-7720D01*
X6970Y-7680D01*
X6955Y-7643D01*
X6926Y-7615D01*
X6889Y-7600D01*
X6835Y-7600D01*
X6810Y-7625D01*
X6810Y-7850D01*
X6945Y-7850D01*
X6970Y-7825D01*
X6970Y-7720D01*
X6970Y-8279D01*
X6970Y-8174D01*
X6945Y-8149D01*
X6810Y-8149D01*
X6810Y-8374D01*
X6835Y-8399D01*
X6889Y-8399D01*
X6926Y-8384D01*
X6955Y-8356D01*
X6970Y-8319D01*
X6970Y-8279D01*
X6970Y-8966D01*
X6689Y-8966D01*
X6689Y-8374D01*
X6689Y-8149D01*
X6689Y-7850D01*
X6689Y-7625D01*
X6664Y-7600D01*
X6610Y-7600D01*
X6573Y-7615D01*
X6544Y-7643D01*
X6529Y-7680D01*
X6529Y-7720D01*
X6529Y-7825D01*
X6554Y-7850D01*
X6689Y-7850D01*
X6689Y-8149D01*
X6554Y-8149D01*
X6529Y-8174D01*
X6529Y-8279D01*
X6529Y-8319D01*
X6544Y-8356D01*
X6573Y-8384D01*
X6610Y-8399D01*
X6664Y-8399D01*
X6689Y-8374D01*
X6689Y-8966D01*
X6468Y-8966D01*
X6468Y-7305D01*
X6468Y-7212D01*
X6443Y-7187D01*
X6309Y-7187D01*
X6309Y-7400D01*
X6334Y-7425D01*
X6387Y-7425D01*
X6424Y-7410D01*
X6453Y-7382D01*
X6468Y-7345D01*
X6468Y-7305D01*
X6468Y-8966D01*
X6191Y-8966D01*
X6191Y-7400D01*
X6191Y-7187D01*
X6056Y-7187D01*
X6031Y-7212D01*
X6031Y-7305D01*
X6031Y-7345D01*
X6046Y-7382D01*
X6075Y-7410D01*
X6112Y-7425D01*
X6165Y-7425D01*
X6191Y-7400D01*
X6191Y-8966D01*
X2958Y-8966D01*
X2958Y-8198D01*
X2958Y-7748D01*
X2938Y-7699D01*
X2900Y-7661D01*
X2851Y-7641D01*
X2798Y-7641D01*
X2548Y-7641D01*
X2499Y-7661D01*
X2461Y-7699D01*
X2441Y-7748D01*
X2441Y-7768D01*
X2308Y-7768D01*
X2308Y-7748D01*
X2288Y-7699D01*
X2250Y-7661D01*
X2201Y-7641D01*
X2183Y-7641D01*
X2183Y-5914D01*
X2117Y-5754D01*
X1995Y-5632D01*
X1981Y-5626D01*
X1981Y-5308D01*
X2001Y-5308D01*
X2050Y-5288D01*
X2088Y-5250D01*
X2108Y-5201D01*
X2108Y-5148D01*
X2108Y-4898D01*
X2108Y-4548D01*
X2108Y-4298D01*
X2088Y-4249D01*
X2050Y-4211D01*
X2001Y-4191D01*
X1981Y-4191D01*
X1981Y-3679D01*
X1996Y-3665D01*
X2040Y-3558D01*
X2040Y-3442D01*
X1996Y-3335D01*
X1915Y-3253D01*
X1808Y-3209D01*
X1692Y-3209D01*
X1585Y-3253D01*
X1503Y-3334D01*
X1459Y-3441D01*
X1459Y-3557D01*
X1503Y-3664D01*
X1518Y-3679D01*
X1518Y-4191D01*
X1498Y-4191D01*
X1449Y-4211D01*
X1411Y-4249D01*
X1391Y-4298D01*
X1391Y-4351D01*
X1391Y-4601D01*
X1411Y-4650D01*
X1449Y-4688D01*
X1498Y-4708D01*
X1551Y-4708D01*
X2001Y-4708D01*
X2050Y-4688D01*
X2088Y-4650D01*
X2108Y-4601D01*
X2108Y-4548D01*
X2108Y-4898D01*
X2088Y-4849D01*
X2050Y-4811D01*
X2001Y-4791D01*
X1948Y-4791D01*
X1498Y-4791D01*
X1449Y-4811D01*
X1411Y-4849D01*
X1391Y-4898D01*
X1391Y-4951D01*
X1391Y-5201D01*
X1411Y-5250D01*
X1449Y-5288D01*
X1498Y-5308D01*
X1518Y-5308D01*
X1518Y-5626D01*
X1504Y-5632D01*
X1382Y-5754D01*
X1316Y-5913D01*
X1316Y-6085D01*
X1382Y-6245D01*
X1504Y-6367D01*
X1663Y-6433D01*
X1835Y-6433D01*
X1995Y-6367D01*
X2117Y-6245D01*
X2183Y-6086D01*
X2183Y-5914D01*
X2183Y-7641D01*
X2148Y-7641D01*
X1898Y-7641D01*
X1849Y-7661D01*
X1811Y-7699D01*
X1791Y-7748D01*
X1791Y-7801D01*
X1791Y-8251D01*
X1811Y-8300D01*
X1849Y-8338D01*
X1898Y-8358D01*
X1951Y-8358D01*
X2201Y-8358D01*
X2250Y-8338D01*
X2288Y-8300D01*
X2308Y-8251D01*
X2308Y-8231D01*
X2441Y-8231D01*
X2441Y-8251D01*
X2461Y-8300D01*
X2499Y-8338D01*
X2548Y-8358D01*
X2601Y-8358D01*
X2851Y-8358D01*
X2900Y-8338D01*
X2938Y-8300D01*
X2958Y-8251D01*
X2958Y-8198D01*
X2958Y-8966D01*
X1675Y-8966D01*
X1675Y-8205D01*
X1675Y-7794D01*
X1675Y-7754D01*
X1660Y-7718D01*
X1631Y-7689D01*
X1594Y-7674D01*
X1537Y-7674D01*
X1512Y-7699D01*
X1512Y-7887D01*
X1650Y-7887D01*
X1675Y-7862D01*
X1675Y-7794D01*
X1675Y-8205D01*
X1675Y-8137D01*
X1650Y-8112D01*
X1512Y-8112D01*
X1512Y-8300D01*
X1537Y-8325D01*
X1594Y-8325D01*
X1631Y-8310D01*
X1660Y-8281D01*
X1675Y-8245D01*
X1675Y-8205D01*
X1675Y-8966D01*
X1387Y-8966D01*
X1387Y-8300D01*
X1387Y-8112D01*
X1387Y-7887D01*
X1387Y-7699D01*
X1362Y-7674D01*
X1305Y-7674D01*
X1268Y-7689D01*
X1239Y-7718D01*
X1224Y-7754D01*
X1224Y-7794D01*
X1224Y-7862D01*
X1249Y-7887D01*
X1387Y-7887D01*
X1387Y-8112D01*
X1249Y-8112D01*
X1224Y-8137D01*
X1224Y-8205D01*
X1224Y-8245D01*
X1239Y-8281D01*
X1268Y-8310D01*
X1305Y-8325D01*
X1362Y-8325D01*
X1387Y-8300D01*
X1387Y-8966D01*
X120Y-8966D01*
X120Y-1511D01*
X226Y-973D01*
X524Y-526D01*
X974Y-227D01*
X1514Y-120D01*
X11988Y-120D01*
X12526Y-226D01*
X12973Y-524D01*
X13272Y-974D01*
X13379Y-1514D01*
X13379Y-8966D01*
G54D10*
G36*
X13379Y-15985D02*
X13272Y-16525D01*
X13019Y-16906D01*
X13019Y-15798D01*
X12864Y-15423D01*
X12578Y-15136D01*
X12203Y-14980D01*
X11798Y-14980D01*
X11423Y-15135D01*
X11136Y-15421D01*
X10980Y-15796D01*
X10980Y-16201D01*
X11135Y-16576D01*
X11421Y-16863D01*
X11796Y-17019D01*
X12201Y-17019D01*
X12576Y-16864D01*
X12863Y-16578D01*
X13019Y-16203D01*
X13019Y-15798D01*
X13019Y-16906D01*
X12973Y-16975D01*
X12526Y-17273D01*
X11988Y-17379D01*
X8633Y-17379D01*
X8633Y-15825D01*
X8499Y-15500D01*
X8450Y-15451D01*
X8450Y-14055D01*
X8450Y-13644D01*
X8450Y-13604D01*
X8435Y-13568D01*
X8406Y-13539D01*
X8369Y-13524D01*
X8325Y-13524D01*
X8300Y-13549D01*
X8300Y-13737D01*
X8425Y-13737D01*
X8450Y-13712D01*
X8450Y-13644D01*
X8450Y-14055D01*
X8450Y-13987D01*
X8425Y-13962D01*
X8300Y-13962D01*
X8300Y-14150D01*
X8325Y-14175D01*
X8369Y-14175D01*
X8406Y-14160D01*
X8435Y-14131D01*
X8450Y-14095D01*
X8450Y-14055D01*
X8450Y-15451D01*
X8251Y-15251D01*
X8200Y-15230D01*
X8200Y-14150D01*
X8200Y-13962D01*
X8200Y-13737D01*
X8200Y-13549D01*
X8174Y-13524D01*
X8130Y-13524D01*
X8093Y-13539D01*
X8064Y-13568D01*
X8049Y-13604D01*
X8049Y-13644D01*
X8049Y-13712D01*
X8074Y-13737D01*
X8200Y-13737D01*
X8200Y-13962D01*
X8074Y-13962D01*
X8049Y-13987D01*
X8049Y-14055D01*
X8049Y-14095D01*
X8064Y-14131D01*
X8093Y-14160D01*
X8130Y-14175D01*
X8174Y-14175D01*
X8200Y-14150D01*
X8200Y-15230D01*
X7981Y-15139D01*
X7981Y-14105D01*
X7983Y-14101D01*
X7983Y-14048D01*
X7983Y-13598D01*
X7963Y-13549D01*
X7925Y-13511D01*
X7876Y-13491D01*
X7823Y-13491D01*
X7623Y-13491D01*
X7574Y-13511D01*
X7540Y-13545D01*
X7540Y-13192D01*
X7496Y-13085D01*
X7415Y-13003D01*
X7308Y-12959D01*
X7192Y-12959D01*
X7085Y-13003D01*
X7003Y-13084D01*
X6959Y-13191D01*
X6959Y-13307D01*
X7003Y-13414D01*
X7018Y-13429D01*
X7018Y-13594D01*
X7016Y-13598D01*
X7016Y-13651D01*
X7016Y-14101D01*
X7036Y-14150D01*
X7074Y-14188D01*
X7123Y-14208D01*
X7176Y-14208D01*
X7376Y-14208D01*
X7425Y-14188D01*
X7463Y-14150D01*
X7483Y-14101D01*
X7483Y-14048D01*
X7483Y-13598D01*
X7481Y-13594D01*
X7481Y-13429D01*
X7496Y-13415D01*
X7540Y-13308D01*
X7540Y-13192D01*
X7540Y-13545D01*
X7536Y-13549D01*
X7516Y-13598D01*
X7516Y-13651D01*
X7516Y-14101D01*
X7518Y-14105D01*
X7518Y-15139D01*
X7250Y-15250D01*
X7001Y-15498D01*
X6950Y-15621D01*
X6950Y-14055D01*
X6950Y-13644D01*
X6950Y-13604D01*
X6935Y-13568D01*
X6906Y-13539D01*
X6869Y-13524D01*
X6825Y-13524D01*
X6800Y-13549D01*
X6800Y-13737D01*
X6925Y-13737D01*
X6950Y-13712D01*
X6950Y-13644D01*
X6950Y-14055D01*
X6950Y-13987D01*
X6925Y-13962D01*
X6800Y-13962D01*
X6800Y-14150D01*
X6825Y-14175D01*
X6869Y-14175D01*
X6906Y-14160D01*
X6935Y-14131D01*
X6950Y-14095D01*
X6950Y-14055D01*
X6950Y-15621D01*
X6866Y-15823D01*
X6866Y-16174D01*
X7000Y-16499D01*
X7248Y-16748D01*
X7573Y-16883D01*
X7924Y-16883D01*
X8249Y-16749D01*
X8498Y-16501D01*
X8633Y-16176D01*
X8633Y-15825D01*
X8633Y-17379D01*
X6700Y-17379D01*
X6700Y-14150D01*
X6700Y-13962D01*
X6700Y-13737D01*
X6700Y-13549D01*
X6674Y-13524D01*
X6630Y-13524D01*
X6593Y-13539D01*
X6564Y-13568D01*
X6549Y-13604D01*
X6549Y-13644D01*
X6549Y-13712D01*
X6574Y-13737D01*
X6700Y-13737D01*
X6700Y-13962D01*
X6574Y-13962D01*
X6549Y-13987D01*
X6549Y-14055D01*
X6549Y-14095D01*
X6564Y-14131D01*
X6593Y-14160D01*
X6630Y-14175D01*
X6674Y-14175D01*
X6700Y-14150D01*
X6700Y-17379D01*
X6633Y-17379D01*
X6633Y-15825D01*
X6540Y-15600D01*
X6540Y-13192D01*
X6496Y-13085D01*
X6415Y-13003D01*
X6308Y-12959D01*
X6192Y-12959D01*
X6085Y-13003D01*
X6003Y-13084D01*
X5959Y-13191D01*
X5959Y-13307D01*
X6003Y-13414D01*
X6018Y-13429D01*
X6018Y-13594D01*
X6016Y-13598D01*
X6016Y-13651D01*
X6016Y-14101D01*
X6036Y-14150D01*
X6074Y-14188D01*
X6123Y-14208D01*
X6176Y-14208D01*
X6376Y-14208D01*
X6425Y-14188D01*
X6463Y-14150D01*
X6483Y-14101D01*
X6483Y-14048D01*
X6483Y-13598D01*
X6481Y-13594D01*
X6481Y-13429D01*
X6496Y-13415D01*
X6540Y-13308D01*
X6540Y-13192D01*
X6540Y-15600D01*
X6499Y-15500D01*
X6251Y-15251D01*
X5981Y-15139D01*
X5981Y-14105D01*
X5983Y-14101D01*
X5983Y-14048D01*
X5983Y-13598D01*
X5963Y-13549D01*
X5925Y-13511D01*
X5876Y-13491D01*
X5823Y-13491D01*
X5623Y-13491D01*
X5574Y-13511D01*
X5536Y-13549D01*
X5516Y-13598D01*
X5516Y-13651D01*
X5516Y-14101D01*
X5518Y-14105D01*
X5518Y-15139D01*
X5450Y-15167D01*
X5450Y-14055D01*
X5450Y-13644D01*
X5450Y-13604D01*
X5435Y-13568D01*
X5406Y-13539D01*
X5369Y-13524D01*
X5325Y-13524D01*
X5300Y-13549D01*
X5300Y-13737D01*
X5425Y-13737D01*
X5450Y-13712D01*
X5450Y-13644D01*
X5450Y-14055D01*
X5450Y-13987D01*
X5425Y-13962D01*
X5300Y-13962D01*
X5300Y-14150D01*
X5325Y-14175D01*
X5369Y-14175D01*
X5406Y-14160D01*
X5435Y-14131D01*
X5450Y-14095D01*
X5450Y-14055D01*
X5450Y-15167D01*
X5250Y-15250D01*
X5200Y-15300D01*
X5200Y-14150D01*
X5200Y-13962D01*
X5200Y-13737D01*
X5200Y-13549D01*
X5174Y-13524D01*
X5130Y-13524D01*
X5093Y-13539D01*
X5064Y-13568D01*
X5049Y-13604D01*
X5049Y-13644D01*
X5049Y-13712D01*
X5074Y-13737D01*
X5200Y-13737D01*
X5200Y-13962D01*
X5074Y-13962D01*
X5049Y-13987D01*
X5049Y-14055D01*
X5049Y-14095D01*
X5064Y-14131D01*
X5093Y-14160D01*
X5130Y-14175D01*
X5174Y-14175D01*
X5200Y-14150D01*
X5200Y-15300D01*
X5001Y-15498D01*
X4866Y-15823D01*
X4866Y-16174D01*
X5000Y-16499D01*
X5248Y-16748D01*
X5573Y-16883D01*
X5924Y-16883D01*
X6249Y-16749D01*
X6498Y-16501D01*
X6633Y-16176D01*
X6633Y-15825D01*
X6633Y-17379D01*
X4600Y-17379D01*
X4600Y-16730D01*
X4600Y-15269D01*
X4600Y-15229D01*
X4585Y-15193D01*
X4556Y-15164D01*
X4519Y-15149D01*
X4135Y-15149D01*
X4110Y-15174D01*
X4110Y-15639D01*
X4575Y-15639D01*
X4600Y-15614D01*
X4600Y-15269D01*
X4600Y-16730D01*
X4600Y-16385D01*
X4575Y-16360D01*
X4110Y-16360D01*
X4110Y-16825D01*
X4135Y-16850D01*
X4519Y-16850D01*
X4556Y-16835D01*
X4585Y-16806D01*
X4600Y-16770D01*
X4600Y-16730D01*
X4600Y-17379D01*
X3389Y-17379D01*
X3389Y-16825D01*
X3389Y-16360D01*
X3389Y-15639D01*
X3389Y-15174D01*
X3364Y-15149D01*
X2980Y-15149D01*
X2943Y-15164D01*
X2914Y-15193D01*
X2899Y-15229D01*
X2899Y-15269D01*
X2899Y-15614D01*
X2924Y-15639D01*
X3389Y-15639D01*
X3389Y-16360D01*
X2924Y-16360D01*
X2899Y-16385D01*
X2899Y-16730D01*
X2899Y-16770D01*
X2914Y-16806D01*
X2943Y-16835D01*
X2980Y-16850D01*
X3364Y-16850D01*
X3389Y-16825D01*
X3389Y-17379D01*
X2519Y-17379D01*
X2519Y-15798D01*
X2364Y-15423D01*
X2078Y-15136D01*
X1703Y-14980D01*
X1298Y-14980D01*
X923Y-15135D01*
X636Y-15421D01*
X480Y-15796D01*
X480Y-16201D01*
X635Y-16576D01*
X921Y-16863D01*
X1296Y-17019D01*
X1701Y-17019D01*
X2076Y-16864D01*
X2363Y-16578D01*
X2519Y-16203D01*
X2519Y-15798D01*
X2519Y-17379D01*
X1514Y-17379D01*
X974Y-17272D01*
X524Y-16973D01*
X226Y-16526D01*
X120Y-15988D01*
X120Y-9533D01*
X10672Y-9533D01*
X10661Y-9535D01*
X10586Y-9586D01*
X10453Y-9718D01*
X10306Y-9718D01*
X10300Y-9711D01*
X10251Y-9691D01*
X10198Y-9691D01*
X9748Y-9691D01*
X9699Y-9711D01*
X9661Y-9749D01*
X9641Y-9798D01*
X9641Y-9851D01*
X9641Y-10101D01*
X9661Y-10150D01*
X9699Y-10188D01*
X9748Y-10208D01*
X9801Y-10208D01*
X10251Y-10208D01*
X10300Y-10188D01*
X10306Y-10181D01*
X10550Y-10181D01*
X10638Y-10164D01*
X10638Y-10164D01*
X10713Y-10113D01*
X10796Y-10031D01*
X10802Y-10048D01*
X10950Y-10196D01*
X11093Y-10255D01*
X11028Y-10255D01*
X10876Y-10255D01*
X10836Y-10255D01*
X10799Y-10271D01*
X10771Y-10299D01*
X10755Y-10336D01*
X10755Y-10528D01*
X10781Y-10553D01*
X11053Y-10553D01*
X11053Y-10381D01*
X11446Y-10381D01*
X11446Y-10553D01*
X11718Y-10553D01*
X11744Y-10528D01*
X11744Y-10336D01*
X11728Y-10299D01*
X11700Y-10271D01*
X11663Y-10255D01*
X11623Y-10255D01*
X11471Y-10255D01*
X11406Y-10255D01*
X11548Y-10197D01*
X11639Y-10106D01*
X11752Y-10219D01*
X11752Y-10250D01*
X11752Y-12018D01*
X11744Y-12018D01*
X11744Y-11163D01*
X11744Y-10971D01*
X11718Y-10946D01*
X11446Y-10946D01*
X11446Y-11218D01*
X11471Y-11244D01*
X11623Y-11244D01*
X11663Y-11244D01*
X11700Y-11228D01*
X11728Y-11200D01*
X11744Y-11163D01*
X11744Y-12018D01*
X11053Y-12018D01*
X11053Y-11218D01*
X11053Y-10946D01*
X10781Y-10946D01*
X10755Y-10971D01*
X10755Y-11163D01*
X10771Y-11200D01*
X10799Y-11228D01*
X10836Y-11244D01*
X10876Y-11244D01*
X11028Y-11244D01*
X11053Y-11218D01*
X11053Y-12018D01*
X11000Y-12018D01*
X10525Y-12018D01*
X10525Y-11455D01*
X10525Y-11044D01*
X10525Y-11004D01*
X10510Y-10968D01*
X10481Y-10939D01*
X10444Y-10924D01*
X10387Y-10924D01*
X10362Y-10949D01*
X10362Y-11137D01*
X10500Y-11137D01*
X10525Y-11112D01*
X10525Y-11044D01*
X10525Y-11455D01*
X10525Y-11387D01*
X10500Y-11362D01*
X10362Y-11362D01*
X10362Y-11550D01*
X10387Y-11575D01*
X10444Y-11575D01*
X10481Y-11560D01*
X10510Y-11531D01*
X10525Y-11495D01*
X10525Y-11455D01*
X10525Y-12018D01*
X10237Y-12018D01*
X10237Y-11550D01*
X10237Y-11362D01*
X10237Y-11137D01*
X10237Y-10949D01*
X10212Y-10924D01*
X10155Y-10924D01*
X10118Y-10939D01*
X10089Y-10968D01*
X10074Y-11004D01*
X10074Y-11044D01*
X10074Y-11112D01*
X10099Y-11137D01*
X10237Y-11137D01*
X10237Y-11362D01*
X10099Y-11362D01*
X10074Y-11387D01*
X10074Y-11455D01*
X10074Y-11495D01*
X10089Y-11531D01*
X10118Y-11560D01*
X10155Y-11575D01*
X10212Y-11575D01*
X10237Y-11550D01*
X10237Y-12018D01*
X9481Y-12018D01*
X9481Y-11596D01*
X9494Y-11583D01*
X9499Y-11588D01*
X9548Y-11608D01*
X9601Y-11608D01*
X9851Y-11608D01*
X9900Y-11588D01*
X9938Y-11550D01*
X9958Y-11501D01*
X9958Y-11448D01*
X9958Y-10998D01*
X9938Y-10949D01*
X9900Y-10911D01*
X9851Y-10891D01*
X9798Y-10891D01*
X9548Y-10891D01*
X9499Y-10911D01*
X9481Y-10929D01*
X9481Y-10876D01*
X9483Y-10874D01*
X9503Y-10825D01*
X9503Y-10772D01*
X9503Y-10772D01*
X9550Y-10781D01*
X9693Y-10781D01*
X9699Y-10788D01*
X9748Y-10808D01*
X9801Y-10808D01*
X10251Y-10808D01*
X10300Y-10788D01*
X10338Y-10750D01*
X10358Y-10701D01*
X10358Y-10648D01*
X10358Y-10398D01*
X10338Y-10349D01*
X10300Y-10311D01*
X10251Y-10291D01*
X10198Y-10291D01*
X9748Y-10291D01*
X9699Y-10311D01*
X9693Y-10318D01*
X9637Y-10318D01*
X9588Y-10285D01*
X9503Y-10268D01*
X9503Y-10174D01*
X9483Y-10125D01*
X9445Y-10087D01*
X9396Y-10067D01*
X9343Y-10067D01*
X9103Y-10067D01*
X9054Y-10087D01*
X9016Y-10125D01*
X8996Y-10174D01*
X8996Y-10227D01*
X8996Y-10825D01*
X9016Y-10874D01*
X9018Y-10876D01*
X9018Y-10903D01*
X8916Y-11005D01*
X8915Y-11003D01*
X8808Y-10959D01*
X8692Y-10959D01*
X8585Y-11003D01*
X8503Y-11084D01*
X8470Y-11164D01*
X8470Y-10779D01*
X8470Y-10220D01*
X8470Y-10180D01*
X8455Y-10143D01*
X8426Y-10115D01*
X8389Y-10100D01*
X8335Y-10100D01*
X8310Y-10125D01*
X8310Y-10350D01*
X8445Y-10350D01*
X8470Y-10325D01*
X8470Y-10220D01*
X8470Y-10779D01*
X8470Y-10674D01*
X8445Y-10649D01*
X8310Y-10649D01*
X8310Y-10874D01*
X8335Y-10899D01*
X8389Y-10899D01*
X8426Y-10884D01*
X8455Y-10856D01*
X8470Y-10819D01*
X8470Y-10779D01*
X8470Y-11164D01*
X8459Y-11191D01*
X8459Y-11307D01*
X8503Y-11414D01*
X8584Y-11496D01*
X8691Y-11540D01*
X8807Y-11540D01*
X8914Y-11496D01*
X8929Y-11481D01*
X9000Y-11481D01*
X9022Y-11477D01*
X9018Y-11500D01*
X9018Y-12018D01*
X8476Y-12018D01*
X8483Y-12001D01*
X8483Y-11948D01*
X8483Y-11498D01*
X8463Y-11449D01*
X8425Y-11411D01*
X8376Y-11391D01*
X8323Y-11391D01*
X8189Y-11391D01*
X8189Y-10874D01*
X8189Y-10649D01*
X8189Y-10350D01*
X8189Y-10125D01*
X8164Y-10100D01*
X8110Y-10100D01*
X8073Y-10115D01*
X8044Y-10143D01*
X8029Y-10180D01*
X8029Y-10220D01*
X8029Y-10325D01*
X8054Y-10350D01*
X8189Y-10350D01*
X8189Y-10649D01*
X8054Y-10649D01*
X8029Y-10674D01*
X8029Y-10779D01*
X8029Y-10819D01*
X8044Y-10856D01*
X8073Y-10884D01*
X8110Y-10899D01*
X8164Y-10899D01*
X8189Y-10874D01*
X8189Y-11391D01*
X8123Y-11391D01*
X8074Y-11411D01*
X8036Y-11449D01*
X8016Y-11498D01*
X8016Y-11551D01*
X8016Y-12001D01*
X8023Y-12018D01*
X7976Y-12018D01*
X7983Y-12001D01*
X7983Y-11948D01*
X7983Y-11498D01*
X7963Y-11449D01*
X7925Y-11411D01*
X7876Y-11391D01*
X7823Y-11391D01*
X7623Y-11391D01*
X7574Y-11411D01*
X7536Y-11449D01*
X7516Y-11498D01*
X7516Y-11551D01*
X7516Y-12001D01*
X7523Y-12018D01*
X7476Y-12018D01*
X7483Y-12001D01*
X7483Y-11948D01*
X7483Y-11498D01*
X7463Y-11449D01*
X7425Y-11411D01*
X7376Y-11391D01*
X7323Y-11391D01*
X7123Y-11391D01*
X7074Y-11411D01*
X7036Y-11449D01*
X7016Y-11498D01*
X7016Y-11551D01*
X7016Y-12001D01*
X7023Y-12018D01*
X7003Y-12018D01*
X7003Y-10772D01*
X7003Y-10174D01*
X6983Y-10125D01*
X6945Y-10087D01*
X6896Y-10067D01*
X6843Y-10067D01*
X6603Y-10067D01*
X6554Y-10087D01*
X6516Y-10125D01*
X6496Y-10174D01*
X6496Y-10227D01*
X6496Y-10675D01*
X6416Y-10755D01*
X6415Y-10753D01*
X6308Y-10709D01*
X6192Y-10709D01*
X6085Y-10753D01*
X6003Y-10834D01*
X5959Y-10941D01*
X5959Y-11057D01*
X6003Y-11164D01*
X6084Y-11246D01*
X6191Y-11290D01*
X6307Y-11290D01*
X6414Y-11246D01*
X6429Y-11231D01*
X6500Y-11231D01*
X6588Y-11214D01*
X6588Y-11214D01*
X6663Y-11163D01*
X6895Y-10932D01*
X6896Y-10932D01*
X6945Y-10912D01*
X6983Y-10874D01*
X7003Y-10825D01*
X7003Y-10772D01*
X7003Y-12018D01*
X6976Y-12018D01*
X6983Y-12001D01*
X6983Y-11948D01*
X6983Y-11498D01*
X6963Y-11449D01*
X6925Y-11411D01*
X6876Y-11391D01*
X6823Y-11391D01*
X6623Y-11391D01*
X6574Y-11411D01*
X6536Y-11449D01*
X6516Y-11498D01*
X6516Y-11551D01*
X6516Y-12001D01*
X6523Y-12018D01*
X6476Y-12018D01*
X6483Y-12001D01*
X6483Y-11948D01*
X6483Y-11498D01*
X6463Y-11449D01*
X6425Y-11411D01*
X6376Y-11391D01*
X6323Y-11391D01*
X6123Y-11391D01*
X6074Y-11411D01*
X6036Y-11449D01*
X6016Y-11498D01*
X6016Y-11551D01*
X6016Y-12001D01*
X6023Y-12018D01*
X5976Y-12018D01*
X5983Y-12001D01*
X5983Y-11948D01*
X5983Y-11498D01*
X5963Y-11449D01*
X5925Y-11411D01*
X5876Y-11391D01*
X5823Y-11391D01*
X5623Y-11391D01*
X5574Y-11411D01*
X5536Y-11449D01*
X5516Y-11498D01*
X5516Y-11551D01*
X5516Y-12001D01*
X5523Y-12018D01*
X5481Y-12018D01*
X5481Y-12005D01*
X5483Y-12001D01*
X5483Y-11948D01*
X5483Y-11498D01*
X5479Y-11489D01*
X5464Y-11411D01*
X5413Y-11336D01*
X5413Y-11336D01*
X5163Y-11086D01*
X4936Y-10858D01*
X4951Y-10858D01*
X5201Y-10858D01*
X5250Y-10838D01*
X5288Y-10800D01*
X5308Y-10751D01*
X5308Y-10731D01*
X5496Y-10731D01*
X5496Y-10825D01*
X5516Y-10874D01*
X5554Y-10912D01*
X5603Y-10932D01*
X5656Y-10932D01*
X5896Y-10932D01*
X5945Y-10912D01*
X5983Y-10874D01*
X6003Y-10825D01*
X6003Y-10772D01*
X6003Y-10174D01*
X5983Y-10125D01*
X5945Y-10087D01*
X5896Y-10067D01*
X5843Y-10067D01*
X5603Y-10067D01*
X5554Y-10087D01*
X5516Y-10125D01*
X5496Y-10174D01*
X5496Y-10227D01*
X5496Y-10268D01*
X5308Y-10268D01*
X5308Y-10248D01*
X5288Y-10199D01*
X5250Y-10161D01*
X5201Y-10141D01*
X5148Y-10141D01*
X4898Y-10141D01*
X4849Y-10161D01*
X4811Y-10199D01*
X4791Y-10248D01*
X4791Y-10301D01*
X4791Y-10713D01*
X4731Y-10653D01*
X4731Y-10550D01*
X4714Y-10461D01*
X4714Y-10461D01*
X4708Y-10452D01*
X4708Y-10248D01*
X4688Y-10199D01*
X4650Y-10161D01*
X4601Y-10141D01*
X4548Y-10141D01*
X4298Y-10141D01*
X4249Y-10161D01*
X4211Y-10199D01*
X4191Y-10248D01*
X4191Y-10301D01*
X4191Y-10751D01*
X4211Y-10800D01*
X4249Y-10838D01*
X4298Y-10858D01*
X4298Y-10858D01*
X4298Y-10858D01*
X4336Y-10913D01*
X4836Y-11413D01*
X5016Y-11594D01*
X5016Y-12001D01*
X5018Y-12005D01*
X5018Y-12018D01*
X4250Y-12018D01*
X4040Y-12018D01*
X4040Y-11442D01*
X4040Y-10692D01*
X3996Y-10585D01*
X3915Y-10503D01*
X3808Y-10459D01*
X3692Y-10459D01*
X3585Y-10503D01*
X3570Y-10518D01*
X3558Y-10518D01*
X3558Y-10498D01*
X3538Y-10449D01*
X3525Y-10436D01*
X3525Y-10205D01*
X3525Y-9794D01*
X3525Y-9754D01*
X3510Y-9718D01*
X3481Y-9689D01*
X3444Y-9674D01*
X3387Y-9674D01*
X3362Y-9699D01*
X3362Y-9887D01*
X3500Y-9887D01*
X3525Y-9862D01*
X3525Y-9794D01*
X3525Y-10205D01*
X3525Y-10137D01*
X3500Y-10112D01*
X3362Y-10112D01*
X3362Y-10300D01*
X3387Y-10325D01*
X3444Y-10325D01*
X3481Y-10310D01*
X3510Y-10281D01*
X3525Y-10245D01*
X3525Y-10205D01*
X3525Y-10436D01*
X3500Y-10411D01*
X3451Y-10391D01*
X3398Y-10391D01*
X3237Y-10391D01*
X3237Y-10300D01*
X3237Y-10112D01*
X3237Y-9887D01*
X3237Y-9699D01*
X3212Y-9674D01*
X3155Y-9674D01*
X3118Y-9689D01*
X3089Y-9718D01*
X3074Y-9754D01*
X3074Y-9794D01*
X3074Y-9862D01*
X3099Y-9887D01*
X3237Y-9887D01*
X3237Y-10112D01*
X3099Y-10112D01*
X3074Y-10137D01*
X3074Y-10205D01*
X3074Y-10245D01*
X3089Y-10281D01*
X3118Y-10310D01*
X3155Y-10325D01*
X3212Y-10325D01*
X3237Y-10300D01*
X3237Y-10391D01*
X3148Y-10391D01*
X3099Y-10411D01*
X3061Y-10449D01*
X3041Y-10498D01*
X3041Y-10551D01*
X3041Y-11001D01*
X3061Y-11050D01*
X3099Y-11088D01*
X3148Y-11108D01*
X3201Y-11108D01*
X3451Y-11108D01*
X3500Y-11088D01*
X3538Y-11050D01*
X3558Y-11001D01*
X3558Y-10981D01*
X3570Y-10981D01*
X3584Y-10996D01*
X3691Y-11040D01*
X3807Y-11040D01*
X3914Y-10996D01*
X3996Y-10915D01*
X4040Y-10808D01*
X4040Y-10692D01*
X4040Y-11442D01*
X3996Y-11335D01*
X3915Y-11253D01*
X3808Y-11209D01*
X3692Y-11209D01*
X3585Y-11253D01*
X3570Y-11268D01*
X3558Y-11268D01*
X3558Y-11248D01*
X3538Y-11199D01*
X3500Y-11161D01*
X3451Y-11141D01*
X3398Y-11141D01*
X3148Y-11141D01*
X3099Y-11161D01*
X3061Y-11199D01*
X3041Y-11248D01*
X3041Y-11301D01*
X3041Y-11751D01*
X3061Y-11800D01*
X3099Y-11838D01*
X3148Y-11858D01*
X3201Y-11858D01*
X3451Y-11858D01*
X3500Y-11838D01*
X3538Y-11800D01*
X3558Y-11751D01*
X3558Y-11731D01*
X3570Y-11731D01*
X3584Y-11746D01*
X3691Y-11790D01*
X3807Y-11790D01*
X3914Y-11746D01*
X3996Y-11665D01*
X4040Y-11558D01*
X4040Y-11442D01*
X4040Y-12018D01*
X2958Y-12018D01*
X2958Y-11698D01*
X2958Y-11248D01*
X2958Y-10948D01*
X2958Y-10498D01*
X2958Y-10198D01*
X2958Y-9748D01*
X2938Y-9699D01*
X2900Y-9661D01*
X2851Y-9641D01*
X2798Y-9641D01*
X2548Y-9641D01*
X2499Y-9661D01*
X2461Y-9699D01*
X2441Y-9748D01*
X2441Y-9768D01*
X2308Y-9768D01*
X2308Y-9748D01*
X2288Y-9699D01*
X2250Y-9661D01*
X2201Y-9641D01*
X2148Y-9641D01*
X1898Y-9641D01*
X1849Y-9661D01*
X1811Y-9699D01*
X1791Y-9748D01*
X1791Y-9801D01*
X1791Y-10251D01*
X1811Y-10300D01*
X1849Y-10338D01*
X1898Y-10358D01*
X1951Y-10358D01*
X2201Y-10358D01*
X2250Y-10338D01*
X2288Y-10300D01*
X2308Y-10251D01*
X2308Y-10231D01*
X2441Y-10231D01*
X2441Y-10251D01*
X2461Y-10300D01*
X2499Y-10338D01*
X2548Y-10358D01*
X2601Y-10358D01*
X2851Y-10358D01*
X2900Y-10338D01*
X2938Y-10300D01*
X2958Y-10251D01*
X2958Y-10198D01*
X2958Y-10498D01*
X2938Y-10449D01*
X2900Y-10411D01*
X2851Y-10391D01*
X2798Y-10391D01*
X2548Y-10391D01*
X2499Y-10411D01*
X2461Y-10449D01*
X2441Y-10498D01*
X2441Y-10518D01*
X2308Y-10518D01*
X2308Y-10498D01*
X2288Y-10449D01*
X2250Y-10411D01*
X2201Y-10391D01*
X2148Y-10391D01*
X1898Y-10391D01*
X1849Y-10411D01*
X1811Y-10449D01*
X1791Y-10498D01*
X1791Y-10551D01*
X1791Y-11001D01*
X1811Y-11050D01*
X1849Y-11088D01*
X1898Y-11108D01*
X1951Y-11108D01*
X2201Y-11108D01*
X2250Y-11088D01*
X2288Y-11050D01*
X2308Y-11001D01*
X2308Y-10981D01*
X2441Y-10981D01*
X2441Y-11001D01*
X2461Y-11050D01*
X2499Y-11088D01*
X2548Y-11108D01*
X2601Y-11108D01*
X2851Y-11108D01*
X2900Y-11088D01*
X2938Y-11050D01*
X2958Y-11001D01*
X2958Y-10948D01*
X2958Y-11248D01*
X2938Y-11199D01*
X2900Y-11161D01*
X2851Y-11141D01*
X2798Y-11141D01*
X2548Y-11141D01*
X2499Y-11161D01*
X2461Y-11199D01*
X2441Y-11248D01*
X2441Y-11268D01*
X2308Y-11268D01*
X2308Y-11248D01*
X2288Y-11199D01*
X2250Y-11161D01*
X2201Y-11141D01*
X2148Y-11141D01*
X1898Y-11141D01*
X1849Y-11161D01*
X1811Y-11199D01*
X1791Y-11248D01*
X1791Y-11301D01*
X1791Y-11751D01*
X1811Y-11800D01*
X1849Y-11838D01*
X1898Y-11858D01*
X1951Y-11858D01*
X2201Y-11858D01*
X2250Y-11838D01*
X2288Y-11800D01*
X2308Y-11751D01*
X2308Y-11731D01*
X2441Y-11731D01*
X2441Y-11751D01*
X2461Y-11800D01*
X2499Y-11838D01*
X2548Y-11858D01*
X2601Y-11858D01*
X2851Y-11858D01*
X2900Y-11838D01*
X2938Y-11800D01*
X2958Y-11751D01*
X2958Y-11698D01*
X2958Y-12018D01*
X1846Y-12018D01*
X1681Y-11853D01*
X1681Y-11806D01*
X1688Y-11800D01*
X1708Y-11751D01*
X1708Y-11698D01*
X1708Y-11248D01*
X1688Y-11199D01*
X1681Y-11193D01*
X1681Y-11056D01*
X1688Y-11050D01*
X1708Y-11001D01*
X1708Y-10948D01*
X1708Y-10498D01*
X1688Y-10449D01*
X1681Y-10443D01*
X1681Y-10306D01*
X1688Y-10300D01*
X1708Y-10251D01*
X1708Y-10198D01*
X1708Y-9748D01*
X1688Y-9699D01*
X1650Y-9661D01*
X1601Y-9641D01*
X1548Y-9641D01*
X1298Y-9641D01*
X1249Y-9661D01*
X1211Y-9699D01*
X1191Y-9748D01*
X1191Y-9801D01*
X1191Y-10251D01*
X1211Y-10300D01*
X1218Y-10306D01*
X1218Y-10443D01*
X1211Y-10449D01*
X1191Y-10498D01*
X1191Y-10551D01*
X1191Y-11001D01*
X1211Y-11050D01*
X1218Y-11056D01*
X1218Y-11193D01*
X1211Y-11199D01*
X1191Y-11248D01*
X1191Y-11301D01*
X1191Y-11751D01*
X1211Y-11800D01*
X1218Y-11806D01*
X1218Y-11950D01*
X1235Y-12038D01*
X1286Y-12113D01*
X1586Y-12413D01*
X1586Y-12413D01*
X1661Y-12464D01*
X1749Y-12481D01*
X1749Y-12481D01*
X1750Y-12481D01*
X4250Y-12481D01*
X5250Y-12481D01*
X9250Y-12481D01*
X11000Y-12481D01*
X11752Y-12481D01*
X11752Y-12551D01*
X11348Y-12551D01*
X11298Y-12571D01*
X11261Y-12609D01*
X11241Y-12658D01*
X11241Y-12711D01*
X11241Y-13341D01*
X11261Y-13390D01*
X11298Y-13428D01*
X11347Y-13448D01*
X11400Y-13448D01*
X11669Y-13448D01*
X11669Y-13613D01*
X11516Y-13766D01*
X11516Y-13766D01*
X10725Y-14556D01*
X10725Y-13295D01*
X10725Y-12704D01*
X10725Y-12664D01*
X10710Y-12628D01*
X10682Y-12599D01*
X10645Y-12584D01*
X10296Y-12584D01*
X10271Y-12609D01*
X10271Y-12842D01*
X10700Y-12842D01*
X10725Y-12817D01*
X10725Y-12704D01*
X10725Y-13295D01*
X10725Y-13182D01*
X10700Y-13157D01*
X10271Y-13157D01*
X10271Y-13390D01*
X10296Y-13415D01*
X10645Y-13415D01*
X10682Y-13400D01*
X10710Y-13371D01*
X10725Y-13335D01*
X10725Y-13295D01*
X10725Y-14556D01*
X10095Y-15187D01*
X9926Y-15116D01*
X9575Y-15116D01*
X9562Y-15121D01*
X9562Y-13390D01*
X9562Y-13157D01*
X9562Y-12842D01*
X9562Y-12609D01*
X9537Y-12584D01*
X9188Y-12584D01*
X9151Y-12599D01*
X9123Y-12628D01*
X9108Y-12664D01*
X9108Y-12704D01*
X9108Y-12817D01*
X9133Y-12842D01*
X9562Y-12842D01*
X9562Y-13157D01*
X9133Y-13157D01*
X9108Y-13182D01*
X9108Y-13295D01*
X9108Y-13335D01*
X9123Y-13371D01*
X9151Y-13400D01*
X9188Y-13415D01*
X9537Y-13415D01*
X9562Y-13390D01*
X9562Y-15121D01*
X9250Y-15250D01*
X9001Y-15498D01*
X8866Y-15823D01*
X8866Y-16174D01*
X9000Y-16499D01*
X9248Y-16748D01*
X9573Y-16883D01*
X9924Y-16883D01*
X10249Y-16749D01*
X10498Y-16501D01*
X10633Y-16176D01*
X10633Y-15825D01*
X10563Y-15654D01*
X11983Y-14233D01*
X11983Y-14233D01*
X11983Y-14233D01*
X12233Y-13983D01*
X12233Y-13983D01*
X12233Y-13983D01*
X12305Y-13876D01*
X12305Y-13876D01*
X12330Y-13750D01*
X12330Y-13448D01*
X12817Y-13448D01*
X12867Y-13428D01*
X12904Y-13390D01*
X12924Y-13341D01*
X12924Y-13288D01*
X12924Y-12658D01*
X12904Y-12609D01*
X12867Y-12571D01*
X12818Y-12551D01*
X12765Y-12551D01*
X12413Y-12551D01*
X12413Y-12250D01*
X12413Y-10250D01*
X12413Y-10083D01*
X12388Y-9956D01*
X12388Y-9956D01*
X12316Y-9849D01*
X12000Y-9533D01*
X13379Y-9533D01*
X13379Y-15985D01*
X13379Y-15985D01*
G37*
G54D31*
X13379Y-15985D02*
X13272Y-16525D01*
X13019Y-16906D01*
X13019Y-15798D01*
X12864Y-15423D01*
X12578Y-15136D01*
X12203Y-14980D01*
X11798Y-14980D01*
X11423Y-15135D01*
X11136Y-15421D01*
X10980Y-15796D01*
X10980Y-16201D01*
X11135Y-16576D01*
X11421Y-16863D01*
X11796Y-17019D01*
X12201Y-17019D01*
X12576Y-16864D01*
X12863Y-16578D01*
X13019Y-16203D01*
X13019Y-15798D01*
X13019Y-16906D01*
X12973Y-16975D01*
X12526Y-17273D01*
X11988Y-17379D01*
X8633Y-17379D01*
X8633Y-15825D01*
X8499Y-15500D01*
X8450Y-15451D01*
X8450Y-14055D01*
X8450Y-13644D01*
X8450Y-13604D01*
X8435Y-13568D01*
X8406Y-13539D01*
X8369Y-13524D01*
X8325Y-13524D01*
X8300Y-13549D01*
X8300Y-13737D01*
X8425Y-13737D01*
X8450Y-13712D01*
X8450Y-13644D01*
X8450Y-14055D01*
X8450Y-13987D01*
X8425Y-13962D01*
X8300Y-13962D01*
X8300Y-14150D01*
X8325Y-14175D01*
X8369Y-14175D01*
X8406Y-14160D01*
X8435Y-14131D01*
X8450Y-14095D01*
X8450Y-14055D01*
X8450Y-15451D01*
X8251Y-15251D01*
X8200Y-15230D01*
X8200Y-14150D01*
X8200Y-13962D01*
X8200Y-13737D01*
X8200Y-13549D01*
X8174Y-13524D01*
X8130Y-13524D01*
X8093Y-13539D01*
X8064Y-13568D01*
X8049Y-13604D01*
X8049Y-13644D01*
X8049Y-13712D01*
X8074Y-13737D01*
X8200Y-13737D01*
X8200Y-13962D01*
X8074Y-13962D01*
X8049Y-13987D01*
X8049Y-14055D01*
X8049Y-14095D01*
X8064Y-14131D01*
X8093Y-14160D01*
X8130Y-14175D01*
X8174Y-14175D01*
X8200Y-14150D01*
X8200Y-15230D01*
X7981Y-15139D01*
X7981Y-14105D01*
X7983Y-14101D01*
X7983Y-14048D01*
X7983Y-13598D01*
X7963Y-13549D01*
X7925Y-13511D01*
X7876Y-13491D01*
X7823Y-13491D01*
X7623Y-13491D01*
X7574Y-13511D01*
X7540Y-13545D01*
X7540Y-13192D01*
X7496Y-13085D01*
X7415Y-13003D01*
X7308Y-12959D01*
X7192Y-12959D01*
X7085Y-13003D01*
X7003Y-13084D01*
X6959Y-13191D01*
X6959Y-13307D01*
X7003Y-13414D01*
X7018Y-13429D01*
X7018Y-13594D01*
X7016Y-13598D01*
X7016Y-13651D01*
X7016Y-14101D01*
X7036Y-14150D01*
X7074Y-14188D01*
X7123Y-14208D01*
X7176Y-14208D01*
X7376Y-14208D01*
X7425Y-14188D01*
X7463Y-14150D01*
X7483Y-14101D01*
X7483Y-14048D01*
X7483Y-13598D01*
X7481Y-13594D01*
X7481Y-13429D01*
X7496Y-13415D01*
X7540Y-13308D01*
X7540Y-13192D01*
X7540Y-13545D01*
X7536Y-13549D01*
X7516Y-13598D01*
X7516Y-13651D01*
X7516Y-14101D01*
X7518Y-14105D01*
X7518Y-15139D01*
X7250Y-15250D01*
X7001Y-15498D01*
X6950Y-15621D01*
X6950Y-14055D01*
X6950Y-13644D01*
X6950Y-13604D01*
X6935Y-13568D01*
X6906Y-13539D01*
X6869Y-13524D01*
X6825Y-13524D01*
X6800Y-13549D01*
X6800Y-13737D01*
X6925Y-13737D01*
X6950Y-13712D01*
X6950Y-13644D01*
X6950Y-14055D01*
X6950Y-13987D01*
X6925Y-13962D01*
X6800Y-13962D01*
X6800Y-14150D01*
X6825Y-14175D01*
X6869Y-14175D01*
X6906Y-14160D01*
X6935Y-14131D01*
X6950Y-14095D01*
X6950Y-14055D01*
X6950Y-15621D01*
X6866Y-15823D01*
X6866Y-16174D01*
X7000Y-16499D01*
X7248Y-16748D01*
X7573Y-16883D01*
X7924Y-16883D01*
X8249Y-16749D01*
X8498Y-16501D01*
X8633Y-16176D01*
X8633Y-15825D01*
X8633Y-17379D01*
X6700Y-17379D01*
X6700Y-14150D01*
X6700Y-13962D01*
X6700Y-13737D01*
X6700Y-13549D01*
X6674Y-13524D01*
X6630Y-13524D01*
X6593Y-13539D01*
X6564Y-13568D01*
X6549Y-13604D01*
X6549Y-13644D01*
X6549Y-13712D01*
X6574Y-13737D01*
X6700Y-13737D01*
X6700Y-13962D01*
X6574Y-13962D01*
X6549Y-13987D01*
X6549Y-14055D01*
X6549Y-14095D01*
X6564Y-14131D01*
X6593Y-14160D01*
X6630Y-14175D01*
X6674Y-14175D01*
X6700Y-14150D01*
X6700Y-17379D01*
X6633Y-17379D01*
X6633Y-15825D01*
X6540Y-15600D01*
X6540Y-13192D01*
X6496Y-13085D01*
X6415Y-13003D01*
X6308Y-12959D01*
X6192Y-12959D01*
X6085Y-13003D01*
X6003Y-13084D01*
X5959Y-13191D01*
X5959Y-13307D01*
X6003Y-13414D01*
X6018Y-13429D01*
X6018Y-13594D01*
X6016Y-13598D01*
X6016Y-13651D01*
X6016Y-14101D01*
X6036Y-14150D01*
X6074Y-14188D01*
X6123Y-14208D01*
X6176Y-14208D01*
X6376Y-14208D01*
X6425Y-14188D01*
X6463Y-14150D01*
X6483Y-14101D01*
X6483Y-14048D01*
X6483Y-13598D01*
X6481Y-13594D01*
X6481Y-13429D01*
X6496Y-13415D01*
X6540Y-13308D01*
X6540Y-13192D01*
X6540Y-15600D01*
X6499Y-15500D01*
X6251Y-15251D01*
X5981Y-15139D01*
X5981Y-14105D01*
X5983Y-14101D01*
X5983Y-14048D01*
X5983Y-13598D01*
X5963Y-13549D01*
X5925Y-13511D01*
X5876Y-13491D01*
X5823Y-13491D01*
X5623Y-13491D01*
X5574Y-13511D01*
X5536Y-13549D01*
X5516Y-13598D01*
X5516Y-13651D01*
X5516Y-14101D01*
X5518Y-14105D01*
X5518Y-15139D01*
X5450Y-15167D01*
X5450Y-14055D01*
X5450Y-13644D01*
X5450Y-13604D01*
X5435Y-13568D01*
X5406Y-13539D01*
X5369Y-13524D01*
X5325Y-13524D01*
X5300Y-13549D01*
X5300Y-13737D01*
X5425Y-13737D01*
X5450Y-13712D01*
X5450Y-13644D01*
X5450Y-14055D01*
X5450Y-13987D01*
X5425Y-13962D01*
X5300Y-13962D01*
X5300Y-14150D01*
X5325Y-14175D01*
X5369Y-14175D01*
X5406Y-14160D01*
X5435Y-14131D01*
X5450Y-14095D01*
X5450Y-14055D01*
X5450Y-15167D01*
X5250Y-15250D01*
X5200Y-15300D01*
X5200Y-14150D01*
X5200Y-13962D01*
X5200Y-13737D01*
X5200Y-13549D01*
X5174Y-13524D01*
X5130Y-13524D01*
X5093Y-13539D01*
X5064Y-13568D01*
X5049Y-13604D01*
X5049Y-13644D01*
X5049Y-13712D01*
X5074Y-13737D01*
X5200Y-13737D01*
X5200Y-13962D01*
X5074Y-13962D01*
X5049Y-13987D01*
X5049Y-14055D01*
X5049Y-14095D01*
X5064Y-14131D01*
X5093Y-14160D01*
X5130Y-14175D01*
X5174Y-14175D01*
X5200Y-14150D01*
X5200Y-15300D01*
X5001Y-15498D01*
X4866Y-15823D01*
X4866Y-16174D01*
X5000Y-16499D01*
X5248Y-16748D01*
X5573Y-16883D01*
X5924Y-16883D01*
X6249Y-16749D01*
X6498Y-16501D01*
X6633Y-16176D01*
X6633Y-15825D01*
X6633Y-17379D01*
X4600Y-17379D01*
X4600Y-16730D01*
X4600Y-15269D01*
X4600Y-15229D01*
X4585Y-15193D01*
X4556Y-15164D01*
X4519Y-15149D01*
X4135Y-15149D01*
X4110Y-15174D01*
X4110Y-15639D01*
X4575Y-15639D01*
X4600Y-15614D01*
X4600Y-15269D01*
X4600Y-16730D01*
X4600Y-16385D01*
X4575Y-16360D01*
X4110Y-16360D01*
X4110Y-16825D01*
X4135Y-16850D01*
X4519Y-16850D01*
X4556Y-16835D01*
X4585Y-16806D01*
X4600Y-16770D01*
X4600Y-16730D01*
X4600Y-17379D01*
X3389Y-17379D01*
X3389Y-16825D01*
X3389Y-16360D01*
X3389Y-15639D01*
X3389Y-15174D01*
X3364Y-15149D01*
X2980Y-15149D01*
X2943Y-15164D01*
X2914Y-15193D01*
X2899Y-15229D01*
X2899Y-15269D01*
X2899Y-15614D01*
X2924Y-15639D01*
X3389Y-15639D01*
X3389Y-16360D01*
X2924Y-16360D01*
X2899Y-16385D01*
X2899Y-16730D01*
X2899Y-16770D01*
X2914Y-16806D01*
X2943Y-16835D01*
X2980Y-16850D01*
X3364Y-16850D01*
X3389Y-16825D01*
X3389Y-17379D01*
X2519Y-17379D01*
X2519Y-15798D01*
X2364Y-15423D01*
X2078Y-15136D01*
X1703Y-14980D01*
X1298Y-14980D01*
X923Y-15135D01*
X636Y-15421D01*
X480Y-15796D01*
X480Y-16201D01*
X635Y-16576D01*
X921Y-16863D01*
X1296Y-17019D01*
X1701Y-17019D01*
X2076Y-16864D01*
X2363Y-16578D01*
X2519Y-16203D01*
X2519Y-15798D01*
X2519Y-17379D01*
X1514Y-17379D01*
X974Y-17272D01*
X524Y-16973D01*
X226Y-16526D01*
X120Y-15988D01*
X120Y-9533D01*
X10672Y-9533D01*
X10661Y-9535D01*
X10586Y-9586D01*
X10453Y-9718D01*
X10306Y-9718D01*
X10300Y-9711D01*
X10251Y-9691D01*
X10198Y-9691D01*
X9748Y-9691D01*
X9699Y-9711D01*
X9661Y-9749D01*
X9641Y-9798D01*
X9641Y-9851D01*
X9641Y-10101D01*
X9661Y-10150D01*
X9699Y-10188D01*
X9748Y-10208D01*
X9801Y-10208D01*
X10251Y-10208D01*
X10300Y-10188D01*
X10306Y-10181D01*
X10550Y-10181D01*
X10638Y-10164D01*
X10638Y-10164D01*
X10713Y-10113D01*
X10796Y-10031D01*
X10802Y-10048D01*
X10950Y-10196D01*
X11093Y-10255D01*
X11028Y-10255D01*
X10876Y-10255D01*
X10836Y-10255D01*
X10799Y-10271D01*
X10771Y-10299D01*
X10755Y-10336D01*
X10755Y-10528D01*
X10781Y-10553D01*
X11053Y-10553D01*
X11053Y-10381D01*
X11446Y-10381D01*
X11446Y-10553D01*
X11718Y-10553D01*
X11744Y-10528D01*
X11744Y-10336D01*
X11728Y-10299D01*
X11700Y-10271D01*
X11663Y-10255D01*
X11623Y-10255D01*
X11471Y-10255D01*
X11406Y-10255D01*
X11548Y-10197D01*
X11639Y-10106D01*
X11752Y-10219D01*
X11752Y-10250D01*
X11752Y-12018D01*
X11744Y-12018D01*
X11744Y-11163D01*
X11744Y-10971D01*
X11718Y-10946D01*
X11446Y-10946D01*
X11446Y-11218D01*
X11471Y-11244D01*
X11623Y-11244D01*
X11663Y-11244D01*
X11700Y-11228D01*
X11728Y-11200D01*
X11744Y-11163D01*
X11744Y-12018D01*
X11053Y-12018D01*
X11053Y-11218D01*
X11053Y-10946D01*
X10781Y-10946D01*
X10755Y-10971D01*
X10755Y-11163D01*
X10771Y-11200D01*
X10799Y-11228D01*
X10836Y-11244D01*
X10876Y-11244D01*
X11028Y-11244D01*
X11053Y-11218D01*
X11053Y-12018D01*
X11000Y-12018D01*
X10525Y-12018D01*
X10525Y-11455D01*
X10525Y-11044D01*
X10525Y-11004D01*
X10510Y-10968D01*
X10481Y-10939D01*
X10444Y-10924D01*
X10387Y-10924D01*
X10362Y-10949D01*
X10362Y-11137D01*
X10500Y-11137D01*
X10525Y-11112D01*
X10525Y-11044D01*
X10525Y-11455D01*
X10525Y-11387D01*
X10500Y-11362D01*
X10362Y-11362D01*
X10362Y-11550D01*
X10387Y-11575D01*
X10444Y-11575D01*
X10481Y-11560D01*
X10510Y-11531D01*
X10525Y-11495D01*
X10525Y-11455D01*
X10525Y-12018D01*
X10237Y-12018D01*
X10237Y-11550D01*
X10237Y-11362D01*
X10237Y-11137D01*
X10237Y-10949D01*
X10212Y-10924D01*
X10155Y-10924D01*
X10118Y-10939D01*
X10089Y-10968D01*
X10074Y-11004D01*
X10074Y-11044D01*
X10074Y-11112D01*
X10099Y-11137D01*
X10237Y-11137D01*
X10237Y-11362D01*
X10099Y-11362D01*
X10074Y-11387D01*
X10074Y-11455D01*
X10074Y-11495D01*
X10089Y-11531D01*
X10118Y-11560D01*
X10155Y-11575D01*
X10212Y-11575D01*
X10237Y-11550D01*
X10237Y-12018D01*
X9481Y-12018D01*
X9481Y-11596D01*
X9494Y-11583D01*
X9499Y-11588D01*
X9548Y-11608D01*
X9601Y-11608D01*
X9851Y-11608D01*
X9900Y-11588D01*
X9938Y-11550D01*
X9958Y-11501D01*
X9958Y-11448D01*
X9958Y-10998D01*
X9938Y-10949D01*
X9900Y-10911D01*
X9851Y-10891D01*
X9798Y-10891D01*
X9548Y-10891D01*
X9499Y-10911D01*
X9481Y-10929D01*
X9481Y-10876D01*
X9483Y-10874D01*
X9503Y-10825D01*
X9503Y-10772D01*
X9503Y-10772D01*
X9550Y-10781D01*
X9693Y-10781D01*
X9699Y-10788D01*
X9748Y-10808D01*
X9801Y-10808D01*
X10251Y-10808D01*
X10300Y-10788D01*
X10338Y-10750D01*
X10358Y-10701D01*
X10358Y-10648D01*
X10358Y-10398D01*
X10338Y-10349D01*
X10300Y-10311D01*
X10251Y-10291D01*
X10198Y-10291D01*
X9748Y-10291D01*
X9699Y-10311D01*
X9693Y-10318D01*
X9637Y-10318D01*
X9588Y-10285D01*
X9503Y-10268D01*
X9503Y-10174D01*
X9483Y-10125D01*
X9445Y-10087D01*
X9396Y-10067D01*
X9343Y-10067D01*
X9103Y-10067D01*
X9054Y-10087D01*
X9016Y-10125D01*
X8996Y-10174D01*
X8996Y-10227D01*
X8996Y-10825D01*
X9016Y-10874D01*
X9018Y-10876D01*
X9018Y-10903D01*
X8916Y-11005D01*
X8915Y-11003D01*
X8808Y-10959D01*
X8692Y-10959D01*
X8585Y-11003D01*
X8503Y-11084D01*
X8470Y-11164D01*
X8470Y-10779D01*
X8470Y-10220D01*
X8470Y-10180D01*
X8455Y-10143D01*
X8426Y-10115D01*
X8389Y-10100D01*
X8335Y-10100D01*
X8310Y-10125D01*
X8310Y-10350D01*
X8445Y-10350D01*
X8470Y-10325D01*
X8470Y-10220D01*
X8470Y-10779D01*
X8470Y-10674D01*
X8445Y-10649D01*
X8310Y-10649D01*
X8310Y-10874D01*
X8335Y-10899D01*
X8389Y-10899D01*
X8426Y-10884D01*
X8455Y-10856D01*
X8470Y-10819D01*
X8470Y-10779D01*
X8470Y-11164D01*
X8459Y-11191D01*
X8459Y-11307D01*
X8503Y-11414D01*
X8584Y-11496D01*
X8691Y-11540D01*
X8807Y-11540D01*
X8914Y-11496D01*
X8929Y-11481D01*
X9000Y-11481D01*
X9022Y-11477D01*
X9018Y-11500D01*
X9018Y-12018D01*
X8476Y-12018D01*
X8483Y-12001D01*
X8483Y-11948D01*
X8483Y-11498D01*
X8463Y-11449D01*
X8425Y-11411D01*
X8376Y-11391D01*
X8323Y-11391D01*
X8189Y-11391D01*
X8189Y-10874D01*
X8189Y-10649D01*
X8189Y-10350D01*
X8189Y-10125D01*
X8164Y-10100D01*
X8110Y-10100D01*
X8073Y-10115D01*
X8044Y-10143D01*
X8029Y-10180D01*
X8029Y-10220D01*
X8029Y-10325D01*
X8054Y-10350D01*
X8189Y-10350D01*
X8189Y-10649D01*
X8054Y-10649D01*
X8029Y-10674D01*
X8029Y-10779D01*
X8029Y-10819D01*
X8044Y-10856D01*
X8073Y-10884D01*
X8110Y-10899D01*
X8164Y-10899D01*
X8189Y-10874D01*
X8189Y-11391D01*
X8123Y-11391D01*
X8074Y-11411D01*
X8036Y-11449D01*
X8016Y-11498D01*
X8016Y-11551D01*
X8016Y-12001D01*
X8023Y-12018D01*
X7976Y-12018D01*
X7983Y-12001D01*
X7983Y-11948D01*
X7983Y-11498D01*
X7963Y-11449D01*
X7925Y-11411D01*
X7876Y-11391D01*
X7823Y-11391D01*
X7623Y-11391D01*
X7574Y-11411D01*
X7536Y-11449D01*
X7516Y-11498D01*
X7516Y-11551D01*
X7516Y-12001D01*
X7523Y-12018D01*
X7476Y-12018D01*
X7483Y-12001D01*
X7483Y-11948D01*
X7483Y-11498D01*
X7463Y-11449D01*
X7425Y-11411D01*
X7376Y-11391D01*
X7323Y-11391D01*
X7123Y-11391D01*
X7074Y-11411D01*
X7036Y-11449D01*
X7016Y-11498D01*
X7016Y-11551D01*
X7016Y-12001D01*
X7023Y-12018D01*
X7003Y-12018D01*
X7003Y-10772D01*
X7003Y-10174D01*
X6983Y-10125D01*
X6945Y-10087D01*
X6896Y-10067D01*
X6843Y-10067D01*
X6603Y-10067D01*
X6554Y-10087D01*
X6516Y-10125D01*
X6496Y-10174D01*
X6496Y-10227D01*
X6496Y-10675D01*
X6416Y-10755D01*
X6415Y-10753D01*
X6308Y-10709D01*
X6192Y-10709D01*
X6085Y-10753D01*
X6003Y-10834D01*
X5959Y-10941D01*
X5959Y-11057D01*
X6003Y-11164D01*
X6084Y-11246D01*
X6191Y-11290D01*
X6307Y-11290D01*
X6414Y-11246D01*
X6429Y-11231D01*
X6500Y-11231D01*
X6588Y-11214D01*
X6588Y-11214D01*
X6663Y-11163D01*
X6895Y-10932D01*
X6896Y-10932D01*
X6945Y-10912D01*
X6983Y-10874D01*
X7003Y-10825D01*
X7003Y-10772D01*
X7003Y-12018D01*
X6976Y-12018D01*
X6983Y-12001D01*
X6983Y-11948D01*
X6983Y-11498D01*
X6963Y-11449D01*
X6925Y-11411D01*
X6876Y-11391D01*
X6823Y-11391D01*
X6623Y-11391D01*
X6574Y-11411D01*
X6536Y-11449D01*
X6516Y-11498D01*
X6516Y-11551D01*
X6516Y-12001D01*
X6523Y-12018D01*
X6476Y-12018D01*
X6483Y-12001D01*
X6483Y-11948D01*
X6483Y-11498D01*
X6463Y-11449D01*
X6425Y-11411D01*
X6376Y-11391D01*
X6323Y-11391D01*
X6123Y-11391D01*
X6074Y-11411D01*
X6036Y-11449D01*
X6016Y-11498D01*
X6016Y-11551D01*
X6016Y-12001D01*
X6023Y-12018D01*
X5976Y-12018D01*
X5983Y-12001D01*
X5983Y-11948D01*
X5983Y-11498D01*
X5963Y-11449D01*
X5925Y-11411D01*
X5876Y-11391D01*
X5823Y-11391D01*
X5623Y-11391D01*
X5574Y-11411D01*
X5536Y-11449D01*
X5516Y-11498D01*
X5516Y-11551D01*
X5516Y-12001D01*
X5523Y-12018D01*
X5481Y-12018D01*
X5481Y-12005D01*
X5483Y-12001D01*
X5483Y-11948D01*
X5483Y-11498D01*
X5479Y-11489D01*
X5464Y-11411D01*
X5413Y-11336D01*
X5413Y-11336D01*
X5163Y-11086D01*
X4936Y-10858D01*
X4951Y-10858D01*
X5201Y-10858D01*
X5250Y-10838D01*
X5288Y-10800D01*
X5308Y-10751D01*
X5308Y-10731D01*
X5496Y-10731D01*
X5496Y-10825D01*
X5516Y-10874D01*
X5554Y-10912D01*
X5603Y-10932D01*
X5656Y-10932D01*
X5896Y-10932D01*
X5945Y-10912D01*
X5983Y-10874D01*
X6003Y-10825D01*
X6003Y-10772D01*
X6003Y-10174D01*
X5983Y-10125D01*
X5945Y-10087D01*
X5896Y-10067D01*
X5843Y-10067D01*
X5603Y-10067D01*
X5554Y-10087D01*
X5516Y-10125D01*
X5496Y-10174D01*
X5496Y-10227D01*
X5496Y-10268D01*
X5308Y-10268D01*
X5308Y-10248D01*
X5288Y-10199D01*
X5250Y-10161D01*
X5201Y-10141D01*
X5148Y-10141D01*
X4898Y-10141D01*
X4849Y-10161D01*
X4811Y-10199D01*
X4791Y-10248D01*
X4791Y-10301D01*
X4791Y-10713D01*
X4731Y-10653D01*
X4731Y-10550D01*
X4714Y-10461D01*
X4714Y-10461D01*
X4708Y-10452D01*
X4708Y-10248D01*
X4688Y-10199D01*
X4650Y-10161D01*
X4601Y-10141D01*
X4548Y-10141D01*
X4298Y-10141D01*
X4249Y-10161D01*
X4211Y-10199D01*
X4191Y-10248D01*
X4191Y-10301D01*
X4191Y-10751D01*
X4211Y-10800D01*
X4249Y-10838D01*
X4298Y-10858D01*
X4298Y-10858D01*
X4298Y-10858D01*
X4336Y-10913D01*
X4836Y-11413D01*
X5016Y-11594D01*
X5016Y-12001D01*
X5018Y-12005D01*
X5018Y-12018D01*
X4250Y-12018D01*
X4040Y-12018D01*
X4040Y-11442D01*
X4040Y-10692D01*
X3996Y-10585D01*
X3915Y-10503D01*
X3808Y-10459D01*
X3692Y-10459D01*
X3585Y-10503D01*
X3570Y-10518D01*
X3558Y-10518D01*
X3558Y-10498D01*
X3538Y-10449D01*
X3525Y-10436D01*
X3525Y-10205D01*
X3525Y-9794D01*
X3525Y-9754D01*
X3510Y-9718D01*
X3481Y-9689D01*
X3444Y-9674D01*
X3387Y-9674D01*
X3362Y-9699D01*
X3362Y-9887D01*
X3500Y-9887D01*
X3525Y-9862D01*
X3525Y-9794D01*
X3525Y-10205D01*
X3525Y-10137D01*
X3500Y-10112D01*
X3362Y-10112D01*
X3362Y-10300D01*
X3387Y-10325D01*
X3444Y-10325D01*
X3481Y-10310D01*
X3510Y-10281D01*
X3525Y-10245D01*
X3525Y-10205D01*
X3525Y-10436D01*
X3500Y-10411D01*
X3451Y-10391D01*
X3398Y-10391D01*
X3237Y-10391D01*
X3237Y-10300D01*
X3237Y-10112D01*
X3237Y-9887D01*
X3237Y-9699D01*
X3212Y-9674D01*
X3155Y-9674D01*
X3118Y-9689D01*
X3089Y-9718D01*
X3074Y-9754D01*
X3074Y-9794D01*
X3074Y-9862D01*
X3099Y-9887D01*
X3237Y-9887D01*
X3237Y-10112D01*
X3099Y-10112D01*
X3074Y-10137D01*
X3074Y-10205D01*
X3074Y-10245D01*
X3089Y-10281D01*
X3118Y-10310D01*
X3155Y-10325D01*
X3212Y-10325D01*
X3237Y-10300D01*
X3237Y-10391D01*
X3148Y-10391D01*
X3099Y-10411D01*
X3061Y-10449D01*
X3041Y-10498D01*
X3041Y-10551D01*
X3041Y-11001D01*
X3061Y-11050D01*
X3099Y-11088D01*
X3148Y-11108D01*
X3201Y-11108D01*
X3451Y-11108D01*
X3500Y-11088D01*
X3538Y-11050D01*
X3558Y-11001D01*
X3558Y-10981D01*
X3570Y-10981D01*
X3584Y-10996D01*
X3691Y-11040D01*
X3807Y-11040D01*
X3914Y-10996D01*
X3996Y-10915D01*
X4040Y-10808D01*
X4040Y-10692D01*
X4040Y-11442D01*
X3996Y-11335D01*
X3915Y-11253D01*
X3808Y-11209D01*
X3692Y-11209D01*
X3585Y-11253D01*
X3570Y-11268D01*
X3558Y-11268D01*
X3558Y-11248D01*
X3538Y-11199D01*
X3500Y-11161D01*
X3451Y-11141D01*
X3398Y-11141D01*
X3148Y-11141D01*
X3099Y-11161D01*
X3061Y-11199D01*
X3041Y-11248D01*
X3041Y-11301D01*
X3041Y-11751D01*
X3061Y-11800D01*
X3099Y-11838D01*
X3148Y-11858D01*
X3201Y-11858D01*
X3451Y-11858D01*
X3500Y-11838D01*
X3538Y-11800D01*
X3558Y-11751D01*
X3558Y-11731D01*
X3570Y-11731D01*
X3584Y-11746D01*
X3691Y-11790D01*
X3807Y-11790D01*
X3914Y-11746D01*
X3996Y-11665D01*
X4040Y-11558D01*
X4040Y-11442D01*
X4040Y-12018D01*
X2958Y-12018D01*
X2958Y-11698D01*
X2958Y-11248D01*
X2958Y-10948D01*
X2958Y-10498D01*
X2958Y-10198D01*
X2958Y-9748D01*
X2938Y-9699D01*
X2900Y-9661D01*
X2851Y-9641D01*
X2798Y-9641D01*
X2548Y-9641D01*
X2499Y-9661D01*
X2461Y-9699D01*
X2441Y-9748D01*
X2441Y-9768D01*
X2308Y-9768D01*
X2308Y-9748D01*
X2288Y-9699D01*
X2250Y-9661D01*
X2201Y-9641D01*
X2148Y-9641D01*
X1898Y-9641D01*
X1849Y-9661D01*
X1811Y-9699D01*
X1791Y-9748D01*
X1791Y-9801D01*
X1791Y-10251D01*
X1811Y-10300D01*
X1849Y-10338D01*
X1898Y-10358D01*
X1951Y-10358D01*
X2201Y-10358D01*
X2250Y-10338D01*
X2288Y-10300D01*
X2308Y-10251D01*
X2308Y-10231D01*
X2441Y-10231D01*
X2441Y-10251D01*
X2461Y-10300D01*
X2499Y-10338D01*
X2548Y-10358D01*
X2601Y-10358D01*
X2851Y-10358D01*
X2900Y-10338D01*
X2938Y-10300D01*
X2958Y-10251D01*
X2958Y-10198D01*
X2958Y-10498D01*
X2938Y-10449D01*
X2900Y-10411D01*
X2851Y-10391D01*
X2798Y-10391D01*
X2548Y-10391D01*
X2499Y-10411D01*
X2461Y-10449D01*
X2441Y-10498D01*
X2441Y-10518D01*
X2308Y-10518D01*
X2308Y-10498D01*
X2288Y-10449D01*
X2250Y-10411D01*
X2201Y-10391D01*
X2148Y-10391D01*
X1898Y-10391D01*
X1849Y-10411D01*
X1811Y-10449D01*
X1791Y-10498D01*
X1791Y-10551D01*
X1791Y-11001D01*
X1811Y-11050D01*
X1849Y-11088D01*
X1898Y-11108D01*
X1951Y-11108D01*
X2201Y-11108D01*
X2250Y-11088D01*
X2288Y-11050D01*
X2308Y-11001D01*
X2308Y-10981D01*
X2441Y-10981D01*
X2441Y-11001D01*
X2461Y-11050D01*
X2499Y-11088D01*
X2548Y-11108D01*
X2601Y-11108D01*
X2851Y-11108D01*
X2900Y-11088D01*
X2938Y-11050D01*
X2958Y-11001D01*
X2958Y-10948D01*
X2958Y-11248D01*
X2938Y-11199D01*
X2900Y-11161D01*
X2851Y-11141D01*
X2798Y-11141D01*
X2548Y-11141D01*
X2499Y-11161D01*
X2461Y-11199D01*
X2441Y-11248D01*
X2441Y-11268D01*
X2308Y-11268D01*
X2308Y-11248D01*
X2288Y-11199D01*
X2250Y-11161D01*
X2201Y-11141D01*
X2148Y-11141D01*
X1898Y-11141D01*
X1849Y-11161D01*
X1811Y-11199D01*
X1791Y-11248D01*
X1791Y-11301D01*
X1791Y-11751D01*
X1811Y-11800D01*
X1849Y-11838D01*
X1898Y-11858D01*
X1951Y-11858D01*
X2201Y-11858D01*
X2250Y-11838D01*
X2288Y-11800D01*
X2308Y-11751D01*
X2308Y-11731D01*
X2441Y-11731D01*
X2441Y-11751D01*
X2461Y-11800D01*
X2499Y-11838D01*
X2548Y-11858D01*
X2601Y-11858D01*
X2851Y-11858D01*
X2900Y-11838D01*
X2938Y-11800D01*
X2958Y-11751D01*
X2958Y-11698D01*
X2958Y-12018D01*
X1846Y-12018D01*
X1681Y-11853D01*
X1681Y-11806D01*
X1688Y-11800D01*
X1708Y-11751D01*
X1708Y-11698D01*
X1708Y-11248D01*
X1688Y-11199D01*
X1681Y-11193D01*
X1681Y-11056D01*
X1688Y-11050D01*
X1708Y-11001D01*
X1708Y-10948D01*
X1708Y-10498D01*
X1688Y-10449D01*
X1681Y-10443D01*
X1681Y-10306D01*
X1688Y-10300D01*
X1708Y-10251D01*
X1708Y-10198D01*
X1708Y-9748D01*
X1688Y-9699D01*
X1650Y-9661D01*
X1601Y-9641D01*
X1548Y-9641D01*
X1298Y-9641D01*
X1249Y-9661D01*
X1211Y-9699D01*
X1191Y-9748D01*
X1191Y-9801D01*
X1191Y-10251D01*
X1211Y-10300D01*
X1218Y-10306D01*
X1218Y-10443D01*
X1211Y-10449D01*
X1191Y-10498D01*
X1191Y-10551D01*
X1191Y-11001D01*
X1211Y-11050D01*
X1218Y-11056D01*
X1218Y-11193D01*
X1211Y-11199D01*
X1191Y-11248D01*
X1191Y-11301D01*
X1191Y-11751D01*
X1211Y-11800D01*
X1218Y-11806D01*
X1218Y-11950D01*
X1235Y-12038D01*
X1286Y-12113D01*
X1586Y-12413D01*
X1586Y-12413D01*
X1661Y-12464D01*
X1749Y-12481D01*
X1749Y-12481D01*
X1750Y-12481D01*
X4250Y-12481D01*
X5250Y-12481D01*
X9250Y-12481D01*
X11000Y-12481D01*
X11752Y-12481D01*
X11752Y-12551D01*
X11348Y-12551D01*
X11298Y-12571D01*
X11261Y-12609D01*
X11241Y-12658D01*
X11241Y-12711D01*
X11241Y-13341D01*
X11261Y-13390D01*
X11298Y-13428D01*
X11347Y-13448D01*
X11400Y-13448D01*
X11669Y-13448D01*
X11669Y-13613D01*
X11516Y-13766D01*
X11516Y-13766D01*
X10725Y-14556D01*
X10725Y-13295D01*
X10725Y-12704D01*
X10725Y-12664D01*
X10710Y-12628D01*
X10682Y-12599D01*
X10645Y-12584D01*
X10296Y-12584D01*
X10271Y-12609D01*
X10271Y-12842D01*
X10700Y-12842D01*
X10725Y-12817D01*
X10725Y-12704D01*
X10725Y-13295D01*
X10725Y-13182D01*
X10700Y-13157D01*
X10271Y-13157D01*
X10271Y-13390D01*
X10296Y-13415D01*
X10645Y-13415D01*
X10682Y-13400D01*
X10710Y-13371D01*
X10725Y-13335D01*
X10725Y-13295D01*
X10725Y-14556D01*
X10095Y-15187D01*
X9926Y-15116D01*
X9575Y-15116D01*
X9562Y-15121D01*
X9562Y-13390D01*
X9562Y-13157D01*
X9562Y-12842D01*
X9562Y-12609D01*
X9537Y-12584D01*
X9188Y-12584D01*
X9151Y-12599D01*
X9123Y-12628D01*
X9108Y-12664D01*
X9108Y-12704D01*
X9108Y-12817D01*
X9133Y-12842D01*
X9562Y-12842D01*
X9562Y-13157D01*
X9133Y-13157D01*
X9108Y-13182D01*
X9108Y-13295D01*
X9108Y-13335D01*
X9123Y-13371D01*
X9151Y-13400D01*
X9188Y-13415D01*
X9537Y-13415D01*
X9562Y-13390D01*
X9562Y-15121D01*
X9250Y-15250D01*
X9001Y-15498D01*
X8866Y-15823D01*
X8866Y-16174D01*
X9000Y-16499D01*
X9248Y-16748D01*
X9573Y-16883D01*
X9924Y-16883D01*
X10249Y-16749D01*
X10498Y-16501D01*
X10633Y-16176D01*
X10633Y-15825D01*
X10563Y-15654D01*
X11983Y-14233D01*
X11983Y-14233D01*
X11983Y-14233D01*
X12233Y-13983D01*
X12233Y-13983D01*
X12233Y-13983D01*
X12305Y-13876D01*
X12305Y-13876D01*
X12330Y-13750D01*
X12330Y-13448D01*
X12817Y-13448D01*
X12867Y-13428D01*
X12904Y-13390D01*
X12924Y-13341D01*
X12924Y-13288D01*
X12924Y-12658D01*
X12904Y-12609D01*
X12867Y-12571D01*
X12818Y-12551D01*
X12765Y-12551D01*
X12413Y-12551D01*
X12413Y-12250D01*
X12413Y-10250D01*
X12413Y-10083D01*
X12388Y-9956D01*
X12388Y-9956D01*
X12316Y-9849D01*
X12000Y-9533D01*
X13379Y-9533D01*
X13379Y-15985D01*
M02*
