M48
;DRILL file {Pcbnew (2013-may-18)-stable} date Wed 03 Jun 2015 10:46:29 PM CEST
;FORMAT={3:3/ absolute / metric / suppress leading zeros}
FMAT,2
METRIC,TZ
T1C0.250
T2C0.813
T3C1.016
T4C1.524
T5C3.200
%
G90
G05
M71
T1
X4445Y-8890
X9525Y-27305
X9525Y-29210
X14605Y-10795
X15875Y-8890
X15875Y-27940
X15875Y-33655
X17145Y-10795
X18415Y-8890
X18415Y-33655
X22225Y-28575
T2
X28575Y-19685
X28575Y-22225
X28575Y-24765
X28575Y-27305
T3
X4445Y-15240
X6985Y-15240
T4
X9525Y-40640
X12065Y-3810
X14605Y-40640
X17145Y-3810
X19685Y-40640
X22225Y-3810
X24765Y-40640
T5
X3810Y-3810
X3810Y-40640
X30480Y-3810
X30480Y-40640
T0
M30
