G75*
%MOIN*%
%OFA0B0*%
%FSLAX24Y24*%
%IPPOS*%
%LPD*%
%AMOC8*
5,1,8,0,0,1.08239X$1,22.5*
%
%ADD10C,0.0040*%
D10*
X011000Y010451D02*
X011000Y010604D01*
X011077Y010681D01*
X011000Y010834D02*
X011000Y011141D01*
X011000Y010988D02*
X011460Y010988D01*
X011307Y010834D01*
X011384Y010681D02*
X011460Y010604D01*
X011460Y010451D01*
X011384Y010374D01*
X011077Y010374D01*
X011000Y010451D01*
X012463Y010334D02*
X012617Y010257D01*
X012770Y010104D01*
X012540Y010104D01*
X012463Y010027D01*
X012463Y009951D01*
X012540Y009874D01*
X012694Y009874D01*
X012770Y009951D01*
X012770Y010104D01*
X012924Y010104D02*
X012924Y010257D01*
X013001Y010334D01*
X013231Y010334D01*
X013231Y009874D01*
X013231Y010027D02*
X013001Y010027D01*
X012924Y010104D01*
X013077Y010027D02*
X012924Y009874D01*
X012924Y010874D02*
X013077Y011027D01*
X013001Y011027D02*
X013231Y011027D01*
X013231Y010874D02*
X013231Y011334D01*
X013001Y011334D01*
X012924Y011257D01*
X012924Y011104D01*
X013001Y011027D01*
X012770Y010951D02*
X012694Y010874D01*
X012540Y010874D01*
X012463Y010951D01*
X012463Y011104D01*
X012540Y011181D01*
X012617Y011181D01*
X012770Y011104D01*
X012770Y011334D01*
X012463Y011334D01*
X012540Y011874D02*
X012540Y012334D01*
X012770Y012104D01*
X012463Y012104D01*
X012924Y012104D02*
X013001Y012027D01*
X013231Y012027D01*
X013231Y011874D02*
X013231Y012334D01*
X013001Y012334D01*
X012924Y012257D01*
X012924Y012104D01*
X013077Y012027D02*
X012924Y011874D01*
M02*
