%
M48
M72
T01C0.0118
T02C0.0354
T03C0.0400
T04C0.1260
T05C0.1280
%
T01
X4680Y8704
X3680Y10704
X5430Y11204
X6430Y11204
X5930Y12954
X8680Y10204
X8930Y10704
X9680Y10954
X9680Y10454
X10180Y9204
X11930Y11204
X11180Y11704
X11180Y12454
X10180Y12454
X9180Y12454
X8930Y11704
X12430Y13704
X13430Y12204
X15030Y11804
X16180Y10204
X17680Y7704
X15680Y6204
X15280Y6604
X15680Y5204
X16180Y4954
X16180Y2954
X12680Y8204
X12930Y9204
X12430Y9704
X16680Y14354
X17680Y13204
X16180Y17204
T02
X16680Y13704
X16680Y12704
X16680Y11704
X16680Y10704
X16680Y9704
X16680Y8704
X16680Y7704
X16680Y6704
X11680Y6704
X11680Y7704
X11680Y8704
X11680Y9704
X11680Y10704
X11680Y11704
X11680Y12704
X11680Y13704
X8430Y14704
X7430Y14704
X6430Y14704
X5430Y14704
X4930Y13704
X5930Y13704
X6930Y13704
X7930Y13704
X7430Y6704
X6430Y6704
X5430Y6704
X4930Y5704
X5930Y5704
X6930Y5704
X7930Y5704
X8430Y6704
T03
X10290Y5484
X12070Y5484
X13930Y6704
X13930Y7704
X13930Y8704
X13930Y9704
X13930Y10704
X13930Y11704
X13930Y12704
X13930Y13704
X12070Y14924
X10290Y14924
X10290Y17484
X12070Y17484
X17680Y16704
X17680Y15704
X17680Y14704
X17680Y13704
X17680Y11704
X17680Y10704
X17680Y9704
X17680Y8704
X17680Y6704
X17680Y5704
X17680Y4704
X17680Y3704
X12070Y2924
X10290Y2924
T04
X2078Y4101
X2078Y16306
X14282Y16306
X14282Y4101
T05
X8930Y3204
X4430Y3204
X4430Y17204
X8930Y17204
M30
