G04 This is an RS-274x file exported by *
G04 gerbv version 2.6.1 *
G04 More information is available about gerbv at *
G04 http://gerbv.geda-project.org/ *
G04 --End of header info--*
%MOIN*%
%FSLAX34Y34*%
%IPPOS*%
G04 --Define apertures--*
%ADD10C,0.0080*%
%ADD11R,0.0502X0.0450*%
%ADD12R,0.0492X0.0450*%
%ADD13C,0.0060*%
%ADD14C,0.0050*%
%ADD15C,0.0040*%
%ADD16C,0.0020*%
%ADD17R,0.0098X0.0098*%
G04 --Start main section--*
G54D10*
G01X0003717Y0002460D02*
G01X0003717Y0007463D01*
G01X0003717Y0007463D02*
G01X0009643Y0007463D01*
G01X0009643Y0007463D02*
G01X0009643Y0002460D01*
G01X0001409Y0004101D02*
G01X0001411Y0004152D01*
G01X0001411Y0004152D02*
G01X0001417Y0004203D01*
G01X0001417Y0004203D02*
G01X0001427Y0004253D01*
G01X0001427Y0004253D02*
G01X0001440Y0004303D01*
G01X0001440Y0004303D02*
G01X0001458Y0004351D01*
G01X0001458Y0004351D02*
G01X0001478Y0004398D01*
G01X0001478Y0004398D02*
G01X0001503Y0004443D01*
G01X0001503Y0004443D02*
G01X0001531Y0004486D01*
G01X0001531Y0004486D02*
G01X0001562Y0004527D01*
G01X0001562Y0004527D02*
G01X0001596Y0004565D01*
G01X0001596Y0004565D02*
G01X0001633Y0004600D01*
G01X0001633Y0004600D02*
G01X0001672Y0004633D01*
G01X0001672Y0004633D02*
G01X0001714Y0004663D01*
G01X0001714Y0004663D02*
G01X0001758Y0004689D01*
G01X0001758Y0004689D02*
G01X0001804Y0004711D01*
G01X0001804Y0004711D02*
G01X0001852Y0004731D01*
G01X0001852Y0004731D02*
G01X0001901Y0004746D01*
G01X0001901Y0004746D02*
G01X0001951Y0004758D01*
G01X0001951Y0004758D02*
G01X0002001Y0004766D01*
G01X0002001Y0004766D02*
G01X0002052Y0004770D01*
G01X0002052Y0004770D02*
G01X0002104Y0004770D01*
G01X0002104Y0004770D02*
G01X0002155Y0004766D01*
G01X0002155Y0004766D02*
G01X0002205Y0004758D01*
G01X0002205Y0004758D02*
G01X0002255Y0004746D01*
G01X0002255Y0004746D02*
G01X0002304Y0004731D01*
G01X0002304Y0004731D02*
G01X0002352Y0004711D01*
G01X0002352Y0004711D02*
G01X0002398Y0004689D01*
G01X0002398Y0004689D02*
G01X0002442Y0004663D01*
G01X0002442Y0004663D02*
G01X0002484Y0004633D01*
G01X0002484Y0004633D02*
G01X0002523Y0004600D01*
G01X0002523Y0004600D02*
G01X0002560Y0004565D01*
G01X0002560Y0004565D02*
G01X0002594Y0004527D01*
G01X0002594Y0004527D02*
G01X0002625Y0004486D01*
G01X0002625Y0004486D02*
G01X0002653Y0004443D01*
G01X0002653Y0004443D02*
G01X0002678Y0004398D01*
G01X0002678Y0004398D02*
G01X0002698Y0004351D01*
G01X0002698Y0004351D02*
G01X0002716Y0004303D01*
G01X0002716Y0004303D02*
G01X0002729Y0004253D01*
G01X0002729Y0004253D02*
G01X0002739Y0004203D01*
G01X0002739Y0004203D02*
G01X0002745Y0004152D01*
G01X0002745Y0004152D02*
G01X0002747Y0004101D01*
G01X0002747Y0004101D02*
G01X0002745Y0004050D01*
G01X0002745Y0004050D02*
G01X0002739Y0003999D01*
G01X0002739Y0003999D02*
G01X0002729Y0003949D01*
G01X0002729Y0003949D02*
G01X0002716Y0003899D01*
G01X0002716Y0003899D02*
G01X0002698Y0003851D01*
G01X0002698Y0003851D02*
G01X0002678Y0003804D01*
G01X0002678Y0003804D02*
G01X0002653Y0003759D01*
G01X0002653Y0003759D02*
G01X0002625Y0003716D01*
G01X0002625Y0003716D02*
G01X0002594Y0003675D01*
G01X0002594Y0003675D02*
G01X0002560Y0003637D01*
G01X0002560Y0003637D02*
G01X0002523Y0003602D01*
G01X0002523Y0003602D02*
G01X0002484Y0003569D01*
G01X0002484Y0003569D02*
G01X0002442Y0003539D01*
G01X0002442Y0003539D02*
G01X0002398Y0003513D01*
G01X0002398Y0003513D02*
G01X0002352Y0003491D01*
G01X0002352Y0003491D02*
G01X0002304Y0003471D01*
G01X0002304Y0003471D02*
G01X0002255Y0003456D01*
G01X0002255Y0003456D02*
G01X0002205Y0003444D01*
G01X0002205Y0003444D02*
G01X0002155Y0003436D01*
G01X0002155Y0003436D02*
G01X0002104Y0003432D01*
G01X0002104Y0003432D02*
G01X0002052Y0003432D01*
G01X0002052Y0003432D02*
G01X0002001Y0003436D01*
G01X0002001Y0003436D02*
G01X0001951Y0003444D01*
G01X0001951Y0003444D02*
G01X0001901Y0003456D01*
G01X0001901Y0003456D02*
G01X0001852Y0003471D01*
G01X0001852Y0003471D02*
G01X0001804Y0003491D01*
G01X0001804Y0003491D02*
G01X0001758Y0003513D01*
G01X0001758Y0003513D02*
G01X0001714Y0003539D01*
G01X0001714Y0003539D02*
G01X0001672Y0003569D01*
G01X0001672Y0003569D02*
G01X0001633Y0003602D01*
G01X0001633Y0003602D02*
G01X0001596Y0003637D01*
G01X0001596Y0003637D02*
G01X0001562Y0003675D01*
G01X0001562Y0003675D02*
G01X0001531Y0003716D01*
G01X0001531Y0003716D02*
G01X0001503Y0003759D01*
G01X0001503Y0003759D02*
G01X0001478Y0003804D01*
G01X0001478Y0003804D02*
G01X0001458Y0003851D01*
G01X0001458Y0003851D02*
G01X0001440Y0003899D01*
G01X0001440Y0003899D02*
G01X0001427Y0003949D01*
G01X0001427Y0003949D02*
G01X0001417Y0003999D01*
G01X0001417Y0003999D02*
G01X0001411Y0004050D01*
G01X0001411Y0004050D02*
G01X0001409Y0004101D01*
G01X0008281Y0009458D02*
G01X0010079Y0009458D01*
G01X0008520Y0011600D02*
G01X0008522Y0011626D01*
G01X0008522Y0011626D02*
G01X0008528Y0011652D01*
G01X0008528Y0011652D02*
G01X0008537Y0011676D01*
G01X0008537Y0011676D02*
G01X0008550Y0011699D01*
G01X0008550Y0011699D02*
G01X0008566Y0011720D01*
G01X0008566Y0011720D02*
G01X0008585Y0011738D01*
G01X0008585Y0011738D02*
G01X0008606Y0011754D01*
G01X0008606Y0011754D02*
G01X0008630Y0011766D01*
G01X0008630Y0011766D02*
G01X0008654Y0011774D01*
G01X0008654Y0011774D02*
G01X0008680Y0011779D01*
G01X0008680Y0011779D02*
G01X0008707Y0011780D01*
G01X0008707Y0011780D02*
G01X0008733Y0011777D01*
G01X0008733Y0011777D02*
G01X0008758Y0011770D01*
G01X0008758Y0011770D02*
G01X0008782Y0011760D01*
G01X0008782Y0011760D02*
G01X0008805Y0011746D01*
G01X0008805Y0011746D02*
G01X0008825Y0011730D01*
G01X0008825Y0011730D02*
G01X0008842Y0011710D01*
G01X0008842Y0011710D02*
G01X0008857Y0011688D01*
G01X0008857Y0011688D02*
G01X0008868Y0011664D01*
G01X0008868Y0011664D02*
G01X0008876Y0011639D01*
G01X0008876Y0011639D02*
G01X0008880Y0011613D01*
G01X0008880Y0011613D02*
G01X0008880Y0011587D01*
G01X0008880Y0011587D02*
G01X0008876Y0011561D01*
G01X0008876Y0011561D02*
G01X0008868Y0011536D01*
G01X0008868Y0011536D02*
G01X0008857Y0011512D01*
G01X0008857Y0011512D02*
G01X0008842Y0011490D01*
G01X0008842Y0011490D02*
G01X0008825Y0011470D01*
G01X0008825Y0011470D02*
G01X0008805Y0011454D01*
G01X0008805Y0011454D02*
G01X0008782Y0011440D01*
G01X0008782Y0011440D02*
G01X0008758Y0011430D01*
G01X0008758Y0011430D02*
G01X0008733Y0011423D01*
G01X0008733Y0011423D02*
G01X0008707Y0011420D01*
G01X0008707Y0011420D02*
G01X0008680Y0011421D01*
G01X0008680Y0011421D02*
G01X0008654Y0011426D01*
G01X0008654Y0011426D02*
G01X0008630Y0011434D01*
G01X0008630Y0011434D02*
G01X0008606Y0011446D01*
G01X0008606Y0011446D02*
G01X0008585Y0011462D01*
G01X0008585Y0011462D02*
G01X0008566Y0011480D01*
G01X0008566Y0011480D02*
G01X0008550Y0011501D01*
G01X0008550Y0011501D02*
G01X0008537Y0011524D01*
G01X0008537Y0011524D02*
G01X0008528Y0011548D01*
G01X0008528Y0011548D02*
G01X0008522Y0011574D01*
G01X0008522Y0011574D02*
G01X0008520Y0011600D01*
G01X0008281Y0011950D02*
G01X0010079Y0011950D01*
G01X0009643Y0012944D02*
G01X0009643Y0018000D01*
G01X0003717Y0018000D02*
G01X0003717Y0012944D01*
G01X0003717Y0012944D02*
G01X0009643Y0012944D01*
G01X0013613Y0016306D02*
G01X0013615Y0016357D01*
G01X0013615Y0016357D02*
G01X0013621Y0016408D01*
G01X0013621Y0016408D02*
G01X0013631Y0016458D01*
G01X0013631Y0016458D02*
G01X0013644Y0016508D01*
G01X0013644Y0016508D02*
G01X0013662Y0016556D01*
G01X0013662Y0016556D02*
G01X0013682Y0016603D01*
G01X0013682Y0016603D02*
G01X0013707Y0016648D01*
G01X0013707Y0016648D02*
G01X0013735Y0016691D01*
G01X0013735Y0016691D02*
G01X0013766Y0016732D01*
G01X0013766Y0016732D02*
G01X0013800Y0016770D01*
G01X0013800Y0016770D02*
G01X0013837Y0016805D01*
G01X0013837Y0016805D02*
G01X0013876Y0016838D01*
G01X0013876Y0016838D02*
G01X0013918Y0016868D01*
G01X0013918Y0016868D02*
G01X0013962Y0016894D01*
G01X0013962Y0016894D02*
G01X0014008Y0016916D01*
G01X0014008Y0016916D02*
G01X0014056Y0016936D01*
G01X0014056Y0016936D02*
G01X0014105Y0016951D01*
G01X0014105Y0016951D02*
G01X0014155Y0016963D01*
G01X0014155Y0016963D02*
G01X0014205Y0016971D01*
G01X0014205Y0016971D02*
G01X0014256Y0016975D01*
G01X0014256Y0016975D02*
G01X0014308Y0016975D01*
G01X0014308Y0016975D02*
G01X0014359Y0016971D01*
G01X0014359Y0016971D02*
G01X0014409Y0016963D01*
G01X0014409Y0016963D02*
G01X0014459Y0016951D01*
G01X0014459Y0016951D02*
G01X0014508Y0016936D01*
G01X0014508Y0016936D02*
G01X0014556Y0016916D01*
G01X0014556Y0016916D02*
G01X0014602Y0016894D01*
G01X0014602Y0016894D02*
G01X0014646Y0016868D01*
G01X0014646Y0016868D02*
G01X0014688Y0016838D01*
G01X0014688Y0016838D02*
G01X0014727Y0016805D01*
G01X0014727Y0016805D02*
G01X0014764Y0016770D01*
G01X0014764Y0016770D02*
G01X0014798Y0016732D01*
G01X0014798Y0016732D02*
G01X0014829Y0016691D01*
G01X0014829Y0016691D02*
G01X0014857Y0016648D01*
G01X0014857Y0016648D02*
G01X0014882Y0016603D01*
G01X0014882Y0016603D02*
G01X0014902Y0016556D01*
G01X0014902Y0016556D02*
G01X0014920Y0016508D01*
G01X0014920Y0016508D02*
G01X0014933Y0016458D01*
G01X0014933Y0016458D02*
G01X0014943Y0016408D01*
G01X0014943Y0016408D02*
G01X0014949Y0016357D01*
G01X0014949Y0016357D02*
G01X0014951Y0016306D01*
G01X0014951Y0016306D02*
G01X0014949Y0016255D01*
G01X0014949Y0016255D02*
G01X0014943Y0016204D01*
G01X0014943Y0016204D02*
G01X0014933Y0016154D01*
G01X0014933Y0016154D02*
G01X0014920Y0016104D01*
G01X0014920Y0016104D02*
G01X0014902Y0016056D01*
G01X0014902Y0016056D02*
G01X0014882Y0016009D01*
G01X0014882Y0016009D02*
G01X0014857Y0015964D01*
G01X0014857Y0015964D02*
G01X0014829Y0015921D01*
G01X0014829Y0015921D02*
G01X0014798Y0015880D01*
G01X0014798Y0015880D02*
G01X0014764Y0015842D01*
G01X0014764Y0015842D02*
G01X0014727Y0015807D01*
G01X0014727Y0015807D02*
G01X0014688Y0015774D01*
G01X0014688Y0015774D02*
G01X0014646Y0015744D01*
G01X0014646Y0015744D02*
G01X0014602Y0015718D01*
G01X0014602Y0015718D02*
G01X0014556Y0015696D01*
G01X0014556Y0015696D02*
G01X0014508Y0015676D01*
G01X0014508Y0015676D02*
G01X0014459Y0015661D01*
G01X0014459Y0015661D02*
G01X0014409Y0015649D01*
G01X0014409Y0015649D02*
G01X0014359Y0015641D01*
G01X0014359Y0015641D02*
G01X0014308Y0015637D01*
G01X0014308Y0015637D02*
G01X0014256Y0015637D01*
G01X0014256Y0015637D02*
G01X0014205Y0015641D01*
G01X0014205Y0015641D02*
G01X0014155Y0015649D01*
G01X0014155Y0015649D02*
G01X0014105Y0015661D01*
G01X0014105Y0015661D02*
G01X0014056Y0015676D01*
G01X0014056Y0015676D02*
G01X0014008Y0015696D01*
G01X0014008Y0015696D02*
G01X0013962Y0015718D01*
G01X0013962Y0015718D02*
G01X0013918Y0015744D01*
G01X0013918Y0015744D02*
G01X0013876Y0015774D01*
G01X0013876Y0015774D02*
G01X0013837Y0015807D01*
G01X0013837Y0015807D02*
G01X0013800Y0015842D01*
G01X0013800Y0015842D02*
G01X0013766Y0015880D01*
G01X0013766Y0015880D02*
G01X0013735Y0015921D01*
G01X0013735Y0015921D02*
G01X0013707Y0015964D01*
G01X0013707Y0015964D02*
G01X0013682Y0016009D01*
G01X0013682Y0016009D02*
G01X0013662Y0016056D01*
G01X0013662Y0016056D02*
G01X0013644Y0016104D01*
G01X0013644Y0016104D02*
G01X0013631Y0016154D01*
G01X0013631Y0016154D02*
G01X0013621Y0016204D01*
G01X0013621Y0016204D02*
G01X0013615Y0016255D01*
G01X0013615Y0016255D02*
G01X0013613Y0016306D01*
G01X0013613Y0004101D02*
G01X0013615Y0004152D01*
G01X0013615Y0004152D02*
G01X0013621Y0004203D01*
G01X0013621Y0004203D02*
G01X0013631Y0004253D01*
G01X0013631Y0004253D02*
G01X0013644Y0004303D01*
G01X0013644Y0004303D02*
G01X0013662Y0004351D01*
G01X0013662Y0004351D02*
G01X0013682Y0004398D01*
G01X0013682Y0004398D02*
G01X0013707Y0004443D01*
G01X0013707Y0004443D02*
G01X0013735Y0004486D01*
G01X0013735Y0004486D02*
G01X0013766Y0004527D01*
G01X0013766Y0004527D02*
G01X0013800Y0004565D01*
G01X0013800Y0004565D02*
G01X0013837Y0004600D01*
G01X0013837Y0004600D02*
G01X0013876Y0004633D01*
G01X0013876Y0004633D02*
G01X0013918Y0004663D01*
G01X0013918Y0004663D02*
G01X0013962Y0004689D01*
G01X0013962Y0004689D02*
G01X0014008Y0004711D01*
G01X0014008Y0004711D02*
G01X0014056Y0004731D01*
G01X0014056Y0004731D02*
G01X0014105Y0004746D01*
G01X0014105Y0004746D02*
G01X0014155Y0004758D01*
G01X0014155Y0004758D02*
G01X0014205Y0004766D01*
G01X0014205Y0004766D02*
G01X0014256Y0004770D01*
G01X0014256Y0004770D02*
G01X0014308Y0004770D01*
G01X0014308Y0004770D02*
G01X0014359Y0004766D01*
G01X0014359Y0004766D02*
G01X0014409Y0004758D01*
G01X0014409Y0004758D02*
G01X0014459Y0004746D01*
G01X0014459Y0004746D02*
G01X0014508Y0004731D01*
G01X0014508Y0004731D02*
G01X0014556Y0004711D01*
G01X0014556Y0004711D02*
G01X0014602Y0004689D01*
G01X0014602Y0004689D02*
G01X0014646Y0004663D01*
G01X0014646Y0004663D02*
G01X0014688Y0004633D01*
G01X0014688Y0004633D02*
G01X0014727Y0004600D01*
G01X0014727Y0004600D02*
G01X0014764Y0004565D01*
G01X0014764Y0004565D02*
G01X0014798Y0004527D01*
G01X0014798Y0004527D02*
G01X0014829Y0004486D01*
G01X0014829Y0004486D02*
G01X0014857Y0004443D01*
G01X0014857Y0004443D02*
G01X0014882Y0004398D01*
G01X0014882Y0004398D02*
G01X0014902Y0004351D01*
G01X0014902Y0004351D02*
G01X0014920Y0004303D01*
G01X0014920Y0004303D02*
G01X0014933Y0004253D01*
G01X0014933Y0004253D02*
G01X0014943Y0004203D01*
G01X0014943Y0004203D02*
G01X0014949Y0004152D01*
G01X0014949Y0004152D02*
G01X0014951Y0004101D01*
G01X0014951Y0004101D02*
G01X0014949Y0004050D01*
G01X0014949Y0004050D02*
G01X0014943Y0003999D01*
G01X0014943Y0003999D02*
G01X0014933Y0003949D01*
G01X0014933Y0003949D02*
G01X0014920Y0003899D01*
G01X0014920Y0003899D02*
G01X0014902Y0003851D01*
G01X0014902Y0003851D02*
G01X0014882Y0003804D01*
G01X0014882Y0003804D02*
G01X0014857Y0003759D01*
G01X0014857Y0003759D02*
G01X0014829Y0003716D01*
G01X0014829Y0003716D02*
G01X0014798Y0003675D01*
G01X0014798Y0003675D02*
G01X0014764Y0003637D01*
G01X0014764Y0003637D02*
G01X0014727Y0003602D01*
G01X0014727Y0003602D02*
G01X0014688Y0003569D01*
G01X0014688Y0003569D02*
G01X0014646Y0003539D01*
G01X0014646Y0003539D02*
G01X0014602Y0003513D01*
G01X0014602Y0003513D02*
G01X0014556Y0003491D01*
G01X0014556Y0003491D02*
G01X0014508Y0003471D01*
G01X0014508Y0003471D02*
G01X0014459Y0003456D01*
G01X0014459Y0003456D02*
G01X0014409Y0003444D01*
G01X0014409Y0003444D02*
G01X0014359Y0003436D01*
G01X0014359Y0003436D02*
G01X0014308Y0003432D01*
G01X0014308Y0003432D02*
G01X0014256Y0003432D01*
G01X0014256Y0003432D02*
G01X0014205Y0003436D01*
G01X0014205Y0003436D02*
G01X0014155Y0003444D01*
G01X0014155Y0003444D02*
G01X0014105Y0003456D01*
G01X0014105Y0003456D02*
G01X0014056Y0003471D01*
G01X0014056Y0003471D02*
G01X0014008Y0003491D01*
G01X0014008Y0003491D02*
G01X0013962Y0003513D01*
G01X0013962Y0003513D02*
G01X0013918Y0003539D01*
G01X0013918Y0003539D02*
G01X0013876Y0003569D01*
G01X0013876Y0003569D02*
G01X0013837Y0003602D01*
G01X0013837Y0003602D02*
G01X0013800Y0003637D01*
G01X0013800Y0003637D02*
G01X0013766Y0003675D01*
G01X0013766Y0003675D02*
G01X0013735Y0003716D01*
G01X0013735Y0003716D02*
G01X0013707Y0003759D01*
G01X0013707Y0003759D02*
G01X0013682Y0003804D01*
G01X0013682Y0003804D02*
G01X0013662Y0003851D01*
G01X0013662Y0003851D02*
G01X0013644Y0003899D01*
G01X0013644Y0003899D02*
G01X0013631Y0003949D01*
G01X0013631Y0003949D02*
G01X0013621Y0003999D01*
G01X0013621Y0003999D02*
G01X0013615Y0004050D01*
G01X0013615Y0004050D02*
G01X0013613Y0004101D01*
G01X0001409Y0016306D02*
G01X0001411Y0016357D01*
G01X0001411Y0016357D02*
G01X0001417Y0016408D01*
G01X0001417Y0016408D02*
G01X0001427Y0016458D01*
G01X0001427Y0016458D02*
G01X0001440Y0016508D01*
G01X0001440Y0016508D02*
G01X0001458Y0016556D01*
G01X0001458Y0016556D02*
G01X0001478Y0016603D01*
G01X0001478Y0016603D02*
G01X0001503Y0016648D01*
G01X0001503Y0016648D02*
G01X0001531Y0016691D01*
G01X0001531Y0016691D02*
G01X0001562Y0016732D01*
G01X0001562Y0016732D02*
G01X0001596Y0016770D01*
G01X0001596Y0016770D02*
G01X0001633Y0016805D01*
G01X0001633Y0016805D02*
G01X0001672Y0016838D01*
G01X0001672Y0016838D02*
G01X0001714Y0016868D01*
G01X0001714Y0016868D02*
G01X0001758Y0016894D01*
G01X0001758Y0016894D02*
G01X0001804Y0016916D01*
G01X0001804Y0016916D02*
G01X0001852Y0016936D01*
G01X0001852Y0016936D02*
G01X0001901Y0016951D01*
G01X0001901Y0016951D02*
G01X0001951Y0016963D01*
G01X0001951Y0016963D02*
G01X0002001Y0016971D01*
G01X0002001Y0016971D02*
G01X0002052Y0016975D01*
G01X0002052Y0016975D02*
G01X0002104Y0016975D01*
G01X0002104Y0016975D02*
G01X0002155Y0016971D01*
G01X0002155Y0016971D02*
G01X0002205Y0016963D01*
G01X0002205Y0016963D02*
G01X0002255Y0016951D01*
G01X0002255Y0016951D02*
G01X0002304Y0016936D01*
G01X0002304Y0016936D02*
G01X0002352Y0016916D01*
G01X0002352Y0016916D02*
G01X0002398Y0016894D01*
G01X0002398Y0016894D02*
G01X0002442Y0016868D01*
G01X0002442Y0016868D02*
G01X0002484Y0016838D01*
G01X0002484Y0016838D02*
G01X0002523Y0016805D01*
G01X0002523Y0016805D02*
G01X0002560Y0016770D01*
G01X0002560Y0016770D02*
G01X0002594Y0016732D01*
G01X0002594Y0016732D02*
G01X0002625Y0016691D01*
G01X0002625Y0016691D02*
G01X0002653Y0016648D01*
G01X0002653Y0016648D02*
G01X0002678Y0016603D01*
G01X0002678Y0016603D02*
G01X0002698Y0016556D01*
G01X0002698Y0016556D02*
G01X0002716Y0016508D01*
G01X0002716Y0016508D02*
G01X0002729Y0016458D01*
G01X0002729Y0016458D02*
G01X0002739Y0016408D01*
G01X0002739Y0016408D02*
G01X0002745Y0016357D01*
G01X0002745Y0016357D02*
G01X0002747Y0016306D01*
G01X0002747Y0016306D02*
G01X0002745Y0016255D01*
G01X0002745Y0016255D02*
G01X0002739Y0016204D01*
G01X0002739Y0016204D02*
G01X0002729Y0016154D01*
G01X0002729Y0016154D02*
G01X0002716Y0016104D01*
G01X0002716Y0016104D02*
G01X0002698Y0016056D01*
G01X0002698Y0016056D02*
G01X0002678Y0016009D01*
G01X0002678Y0016009D02*
G01X0002653Y0015964D01*
G01X0002653Y0015964D02*
G01X0002625Y0015921D01*
G01X0002625Y0015921D02*
G01X0002594Y0015880D01*
G01X0002594Y0015880D02*
G01X0002560Y0015842D01*
G01X0002560Y0015842D02*
G01X0002523Y0015807D01*
G01X0002523Y0015807D02*
G01X0002484Y0015774D01*
G01X0002484Y0015774D02*
G01X0002442Y0015744D01*
G01X0002442Y0015744D02*
G01X0002398Y0015718D01*
G01X0002398Y0015718D02*
G01X0002352Y0015696D01*
G01X0002352Y0015696D02*
G01X0002304Y0015676D01*
G01X0002304Y0015676D02*
G01X0002255Y0015661D01*
G01X0002255Y0015661D02*
G01X0002205Y0015649D01*
G01X0002205Y0015649D02*
G01X0002155Y0015641D01*
G01X0002155Y0015641D02*
G01X0002104Y0015637D01*
G01X0002104Y0015637D02*
G01X0002052Y0015637D01*
G01X0002052Y0015637D02*
G01X0002001Y0015641D01*
G01X0002001Y0015641D02*
G01X0001951Y0015649D01*
G01X0001951Y0015649D02*
G01X0001901Y0015661D01*
G01X0001901Y0015661D02*
G01X0001852Y0015676D01*
G01X0001852Y0015676D02*
G01X0001804Y0015696D01*
G01X0001804Y0015696D02*
G01X0001758Y0015718D01*
G01X0001758Y0015718D02*
G01X0001714Y0015744D01*
G01X0001714Y0015744D02*
G01X0001672Y0015774D01*
G01X0001672Y0015774D02*
G01X0001633Y0015807D01*
G01X0001633Y0015807D02*
G01X0001596Y0015842D01*
G01X0001596Y0015842D02*
G01X0001562Y0015880D01*
G01X0001562Y0015880D02*
G01X0001531Y0015921D01*
G01X0001531Y0015921D02*
G01X0001503Y0015964D01*
G01X0001503Y0015964D02*
G01X0001478Y0016009D01*
G01X0001478Y0016009D02*
G01X0001458Y0016056D01*
G01X0001458Y0016056D02*
G01X0001440Y0016104D01*
G01X0001440Y0016104D02*
G01X0001427Y0016154D01*
G01X0001427Y0016154D02*
G01X0001417Y0016204D01*
G01X0001417Y0016204D02*
G01X0001411Y0016255D01*
G01X0001411Y0016255D02*
G01X0001409Y0016306D01*
G54D13*
G01X0010880Y0017504D02*
G01X0010880Y0017404D01*
G01X0010880Y0017404D02*
G01X0010780Y0017404D01*
G01X0010880Y0017504D02*
G01X0011480Y0017504D01*
G01X0011480Y0017504D02*
G01X0011480Y0017404D01*
G01X0011480Y0017404D02*
G01X0011580Y0017404D01*
G01X0012380Y0017054D02*
G01X0012380Y0016704D01*
G01X0012380Y0016704D02*
G01X0012380Y0015704D01*
G01X0012380Y0015704D02*
G01X0012380Y0015354D01*
G01X0011580Y0015004D02*
G01X0011480Y0015004D01*
G01X0011480Y0015004D02*
G01X0011480Y0014904D01*
G01X0011480Y0014904D02*
G01X0010880Y0014904D01*
G01X0010880Y0014904D02*
G01X0010880Y0015004D01*
G01X0010880Y0015004D02*
G01X0010780Y0015004D01*
G01X0009980Y0015354D02*
G01X0009980Y0015754D01*
G01X0009980Y0015754D02*
G01X0009980Y0016704D01*
G01X0009980Y0016704D02*
G01X0009980Y0017054D01*
G01X0011080Y0016204D02*
G01X0011082Y0016224D01*
G01X0011082Y0016224D02*
G01X0011088Y0016242D01*
G01X0011088Y0016242D02*
G01X0011097Y0016260D01*
G01X0011097Y0016260D02*
G01X0011109Y0016275D01*
G01X0011109Y0016275D02*
G01X0011124Y0016287D01*
G01X0011124Y0016287D02*
G01X0011142Y0016296D01*
G01X0011142Y0016296D02*
G01X0011160Y0016302D01*
G01X0011160Y0016302D02*
G01X0011180Y0016304D01*
G01X0011180Y0016304D02*
G01X0011200Y0016302D01*
G01X0011200Y0016302D02*
G01X0011218Y0016296D01*
G01X0011218Y0016296D02*
G01X0011236Y0016287D01*
G01X0011236Y0016287D02*
G01X0011251Y0016275D01*
G01X0011251Y0016275D02*
G01X0011263Y0016260D01*
G01X0011263Y0016260D02*
G01X0011272Y0016242D01*
G01X0011272Y0016242D02*
G01X0011278Y0016224D01*
G01X0011278Y0016224D02*
G01X0011280Y0016204D01*
G01X0011280Y0016204D02*
G01X0011278Y0016184D01*
G01X0011278Y0016184D02*
G01X0011272Y0016166D01*
G01X0011272Y0016166D02*
G01X0011263Y0016148D01*
G01X0011263Y0016148D02*
G01X0011251Y0016133D01*
G01X0011251Y0016133D02*
G01X0011236Y0016121D01*
G01X0011236Y0016121D02*
G01X0011218Y0016112D01*
G01X0011218Y0016112D02*
G01X0011200Y0016106D01*
G01X0011200Y0016106D02*
G01X0011180Y0016104D01*
G01X0011180Y0016104D02*
G01X0011160Y0016106D01*
G01X0011160Y0016106D02*
G01X0011142Y0016112D01*
G01X0011142Y0016112D02*
G01X0011124Y0016121D01*
G01X0011124Y0016121D02*
G01X0011109Y0016133D01*
G01X0011109Y0016133D02*
G01X0011097Y0016148D01*
G01X0011097Y0016148D02*
G01X0011088Y0016166D01*
G01X0011088Y0016166D02*
G01X0011082Y0016184D01*
G01X0011082Y0016184D02*
G01X0011080Y0016204D01*
G01X0010480Y0016204D02*
G01X0010482Y0016256D01*
G01X0010482Y0016256D02*
G01X0010488Y0016308D01*
G01X0010488Y0016308D02*
G01X0010498Y0016360D01*
G01X0010498Y0016360D02*
G01X0010511Y0016410D01*
G01X0010511Y0016410D02*
G01X0010528Y0016460D01*
G01X0010528Y0016460D02*
G01X0010549Y0016508D01*
G01X0010549Y0016508D02*
G01X0010574Y0016554D01*
G01X0010574Y0016554D02*
G01X0010602Y0016598D01*
G01X0010602Y0016598D02*
G01X0010633Y0016640D01*
G01X0010633Y0016640D02*
G01X0010667Y0016680D01*
G01X0010667Y0016680D02*
G01X0010704Y0016717D01*
G01X0010704Y0016717D02*
G01X0010744Y0016751D01*
G01X0010744Y0016751D02*
G01X0010786Y0016782D01*
G01X0010786Y0016782D02*
G01X0010830Y0016810D01*
G01X0010830Y0016810D02*
G01X0010876Y0016835D01*
G01X0010876Y0016835D02*
G01X0010924Y0016856D01*
G01X0010924Y0016856D02*
G01X0010974Y0016873D01*
G01X0010974Y0016873D02*
G01X0011024Y0016886D01*
G01X0011024Y0016886D02*
G01X0011076Y0016896D01*
G01X0011076Y0016896D02*
G01X0011128Y0016902D01*
G01X0011128Y0016902D02*
G01X0011180Y0016904D01*
G01X0011180Y0016904D02*
G01X0011232Y0016902D01*
G01X0011232Y0016902D02*
G01X0011284Y0016896D01*
G01X0011284Y0016896D02*
G01X0011336Y0016886D01*
G01X0011336Y0016886D02*
G01X0011386Y0016873D01*
G01X0011386Y0016873D02*
G01X0011436Y0016856D01*
G01X0011436Y0016856D02*
G01X0011484Y0016835D01*
G01X0011484Y0016835D02*
G01X0011530Y0016810D01*
G01X0011530Y0016810D02*
G01X0011574Y0016782D01*
G01X0011574Y0016782D02*
G01X0011616Y0016751D01*
G01X0011616Y0016751D02*
G01X0011656Y0016717D01*
G01X0011656Y0016717D02*
G01X0011693Y0016680D01*
G01X0011693Y0016680D02*
G01X0011727Y0016640D01*
G01X0011727Y0016640D02*
G01X0011758Y0016598D01*
G01X0011758Y0016598D02*
G01X0011786Y0016554D01*
G01X0011786Y0016554D02*
G01X0011811Y0016508D01*
G01X0011811Y0016508D02*
G01X0011832Y0016460D01*
G01X0011832Y0016460D02*
G01X0011849Y0016410D01*
G01X0011849Y0016410D02*
G01X0011862Y0016360D01*
G01X0011862Y0016360D02*
G01X0011872Y0016308D01*
G01X0011872Y0016308D02*
G01X0011878Y0016256D01*
G01X0011878Y0016256D02*
G01X0011880Y0016204D01*
G01X0011880Y0016204D02*
G01X0011878Y0016152D01*
G01X0011878Y0016152D02*
G01X0011872Y0016100D01*
G01X0011872Y0016100D02*
G01X0011862Y0016048D01*
G01X0011862Y0016048D02*
G01X0011849Y0015998D01*
G01X0011849Y0015998D02*
G01X0011832Y0015948D01*
G01X0011832Y0015948D02*
G01X0011811Y0015900D01*
G01X0011811Y0015900D02*
G01X0011786Y0015854D01*
G01X0011786Y0015854D02*
G01X0011758Y0015810D01*
G01X0011758Y0015810D02*
G01X0011727Y0015768D01*
G01X0011727Y0015768D02*
G01X0011693Y0015728D01*
G01X0011693Y0015728D02*
G01X0011656Y0015691D01*
G01X0011656Y0015691D02*
G01X0011616Y0015657D01*
G01X0011616Y0015657D02*
G01X0011574Y0015626D01*
G01X0011574Y0015626D02*
G01X0011530Y0015598D01*
G01X0011530Y0015598D02*
G01X0011484Y0015573D01*
G01X0011484Y0015573D02*
G01X0011436Y0015552D01*
G01X0011436Y0015552D02*
G01X0011386Y0015535D01*
G01X0011386Y0015535D02*
G01X0011336Y0015522D01*
G01X0011336Y0015522D02*
G01X0011284Y0015512D01*
G01X0011284Y0015512D02*
G01X0011232Y0015506D01*
G01X0011232Y0015506D02*
G01X0011180Y0015504D01*
G01X0011180Y0015504D02*
G01X0011128Y0015506D01*
G01X0011128Y0015506D02*
G01X0011076Y0015512D01*
G01X0011076Y0015512D02*
G01X0011024Y0015522D01*
G01X0011024Y0015522D02*
G01X0010974Y0015535D01*
G01X0010974Y0015535D02*
G01X0010924Y0015552D01*
G01X0010924Y0015552D02*
G01X0010876Y0015573D01*
G01X0010876Y0015573D02*
G01X0010830Y0015598D01*
G01X0010830Y0015598D02*
G01X0010786Y0015626D01*
G01X0010786Y0015626D02*
G01X0010744Y0015657D01*
G01X0010744Y0015657D02*
G01X0010704Y0015691D01*
G01X0010704Y0015691D02*
G01X0010667Y0015728D01*
G01X0010667Y0015728D02*
G01X0010633Y0015768D01*
G01X0010633Y0015768D02*
G01X0010602Y0015810D01*
G01X0010602Y0015810D02*
G01X0010574Y0015854D01*
G01X0010574Y0015854D02*
G01X0010549Y0015900D01*
G01X0010549Y0015900D02*
G01X0010528Y0015948D01*
G01X0010528Y0015948D02*
G01X0010511Y0015998D01*
G01X0010511Y0015998D02*
G01X0010498Y0016048D01*
G01X0010498Y0016048D02*
G01X0010488Y0016100D01*
G01X0010488Y0016100D02*
G01X0010482Y0016152D01*
G01X0010482Y0016152D02*
G01X0010480Y0016204D01*
G01X0011330Y0014154D02*
G01X0011330Y0006254D01*
G01X0011330Y0006254D02*
G01X0017030Y0006254D01*
G01X0017030Y0006254D02*
G01X0017030Y0014154D01*
G01X0017030Y0014154D02*
G01X0014680Y0014154D01*
G01X0014430Y0013954D02*
G01X0014430Y0013454D01*
G01X0014430Y0013454D02*
G01X0014180Y0013204D01*
G01X0014180Y0013204D02*
G01X0014430Y0012954D01*
G01X0014430Y0012954D02*
G01X0014430Y0012454D01*
G01X0014430Y0012454D02*
G01X0014180Y0012204D01*
G01X0014180Y0012204D02*
G01X0014430Y0011954D01*
G01X0014430Y0011954D02*
G01X0014430Y0011454D01*
G01X0014430Y0011454D02*
G01X0014180Y0011204D01*
G01X0014180Y0011204D02*
G01X0014430Y0010954D01*
G01X0014430Y0010954D02*
G01X0014430Y0010454D01*
G01X0014430Y0010454D02*
G01X0014180Y0010204D01*
G01X0014180Y0010204D02*
G01X0014430Y0009954D01*
G01X0014430Y0009954D02*
G01X0014430Y0009454D01*
G01X0014430Y0009454D02*
G01X0014180Y0009204D01*
G01X0014180Y0009204D02*
G01X0014430Y0008954D01*
G01X0014430Y0008954D02*
G01X0014430Y0008454D01*
G01X0014430Y0008454D02*
G01X0014180Y0008204D01*
G01X0014180Y0008204D02*
G01X0014430Y0007954D01*
G01X0014430Y0007954D02*
G01X0014430Y0007454D01*
G01X0014430Y0007454D02*
G01X0014180Y0007204D01*
G01X0014180Y0007204D02*
G01X0014430Y0006954D01*
G01X0014430Y0006954D02*
G01X0014430Y0006454D01*
G01X0014430Y0006454D02*
G01X0014180Y0006204D01*
G01X0014180Y0006204D02*
G01X0013680Y0006204D01*
G01X0013680Y0006204D02*
G01X0013430Y0006454D01*
G01X0013430Y0006454D02*
G01X0013430Y0006954D01*
G01X0013430Y0006954D02*
G01X0013680Y0007204D01*
G01X0013680Y0007204D02*
G01X0013430Y0007454D01*
G01X0013430Y0007454D02*
G01X0013430Y0007954D01*
G01X0013430Y0007954D02*
G01X0013680Y0008204D01*
G01X0013680Y0008204D02*
G01X0014180Y0008204D01*
G01X0013680Y0008204D02*
G01X0013430Y0008454D01*
G01X0013430Y0008454D02*
G01X0013430Y0008954D01*
G01X0013430Y0008954D02*
G01X0013680Y0009204D01*
G01X0013680Y0009204D02*
G01X0013430Y0009454D01*
G01X0013430Y0009454D02*
G01X0013430Y0009954D01*
G01X0013430Y0009954D02*
G01X0013680Y0010204D01*
G01X0013680Y0010204D02*
G01X0013430Y0010454D01*
G01X0013430Y0010454D02*
G01X0013430Y0010954D01*
G01X0013430Y0010954D02*
G01X0013680Y0011204D01*
G01X0013680Y0011204D02*
G01X0014180Y0011204D01*
G01X0013680Y0011204D02*
G01X0013430Y0011454D01*
G01X0013430Y0011454D02*
G01X0013430Y0011954D01*
G01X0013430Y0011954D02*
G01X0013680Y0012204D01*
G01X0013680Y0012204D02*
G01X0013430Y0012454D01*
G01X0013430Y0012454D02*
G01X0013430Y0012954D01*
G01X0013430Y0012954D02*
G01X0013680Y0013204D01*
G01X0013680Y0013204D02*
G01X0013430Y0013454D01*
G01X0013430Y0013454D02*
G01X0013430Y0013954D01*
G01X0013430Y0013954D02*
G01X0013680Y0014204D01*
G01X0013680Y0014204D02*
G01X0014180Y0014204D01*
G01X0014180Y0014204D02*
G01X0014430Y0013954D01*
G01X0014680Y0014154D02*
G01X0014678Y0014110D01*
G01X0014678Y0014110D02*
G01X0014672Y0014067D01*
G01X0014672Y0014067D02*
G01X0014663Y0014025D01*
G01X0014663Y0014025D02*
G01X0014650Y0013983D01*
G01X0014650Y0013983D02*
G01X0014633Y0013943D01*
G01X0014633Y0013943D02*
G01X0014613Y0013904D01*
G01X0014613Y0013904D02*
G01X0014590Y0013867D01*
G01X0014590Y0013867D02*
G01X0014563Y0013833D01*
G01X0014563Y0013833D02*
G01X0014534Y0013800D01*
G01X0014534Y0013800D02*
G01X0014501Y0013771D01*
G01X0014501Y0013771D02*
G01X0014467Y0013744D01*
G01X0014467Y0013744D02*
G01X0014430Y0013721D01*
G01X0014430Y0013721D02*
G01X0014391Y0013701D01*
G01X0014391Y0013701D02*
G01X0014351Y0013684D01*
G01X0014351Y0013684D02*
G01X0014309Y0013671D01*
G01X0014309Y0013671D02*
G01X0014267Y0013662D01*
G01X0014267Y0013662D02*
G01X0014224Y0013656D01*
G01X0014224Y0013656D02*
G01X0014180Y0013654D01*
G01X0014180Y0013654D02*
G01X0014136Y0013656D01*
G01X0014136Y0013656D02*
G01X0014093Y0013662D01*
G01X0014093Y0013662D02*
G01X0014051Y0013671D01*
G01X0014051Y0013671D02*
G01X0014009Y0013684D01*
G01X0014009Y0013684D02*
G01X0013969Y0013701D01*
G01X0013969Y0013701D02*
G01X0013930Y0013721D01*
G01X0013930Y0013721D02*
G01X0013893Y0013744D01*
G01X0013893Y0013744D02*
G01X0013859Y0013771D01*
G01X0013859Y0013771D02*
G01X0013826Y0013800D01*
G01X0013826Y0013800D02*
G01X0013797Y0013833D01*
G01X0013797Y0013833D02*
G01X0013770Y0013867D01*
G01X0013770Y0013867D02*
G01X0013747Y0013904D01*
G01X0013747Y0013904D02*
G01X0013727Y0013943D01*
G01X0013727Y0013943D02*
G01X0013710Y0013983D01*
G01X0013710Y0013983D02*
G01X0013697Y0014025D01*
G01X0013697Y0014025D02*
G01X0013688Y0014067D01*
G01X0013688Y0014067D02*
G01X0013682Y0014110D01*
G01X0013682Y0014110D02*
G01X0013680Y0014154D01*
G01X0013680Y0014154D02*
G01X0011330Y0014154D01*
G01X0013680Y0013204D02*
G01X0014180Y0013204D01*
G01X0014180Y0012204D02*
G01X0013680Y0012204D01*
G01X0013680Y0010204D02*
G01X0014180Y0010204D01*
G01X0014180Y0009204D02*
G01X0013680Y0009204D01*
G01X0013680Y0007204D02*
G01X0014180Y0007204D01*
G01X0012380Y0005054D02*
G01X0012380Y0004704D01*
G01X0012380Y0004704D02*
G01X0012380Y0003704D01*
G01X0012380Y0003704D02*
G01X0012380Y0003354D01*
G01X0011580Y0003004D02*
G01X0011480Y0003004D01*
G01X0011480Y0003004D02*
G01X0011480Y0002904D01*
G01X0011480Y0002904D02*
G01X0010880Y0002904D01*
G01X0010880Y0002904D02*
G01X0010880Y0003004D01*
G01X0010880Y0003004D02*
G01X0010780Y0003004D01*
G01X0009980Y0003354D02*
G01X0009980Y0003754D01*
G01X0009980Y0003754D02*
G01X0009980Y0004704D01*
G01X0009980Y0004704D02*
G01X0009980Y0005054D01*
G01X0010780Y0005404D02*
G01X0010880Y0005404D01*
G01X0010880Y0005404D02*
G01X0010880Y0005504D01*
G01X0010880Y0005504D02*
G01X0011480Y0005504D01*
G01X0011480Y0005504D02*
G01X0011480Y0005404D01*
G01X0011480Y0005404D02*
G01X0011580Y0005404D01*
G01X0011080Y0004204D02*
G01X0011082Y0004224D01*
G01X0011082Y0004224D02*
G01X0011088Y0004242D01*
G01X0011088Y0004242D02*
G01X0011097Y0004260D01*
G01X0011097Y0004260D02*
G01X0011109Y0004275D01*
G01X0011109Y0004275D02*
G01X0011124Y0004287D01*
G01X0011124Y0004287D02*
G01X0011142Y0004296D01*
G01X0011142Y0004296D02*
G01X0011160Y0004302D01*
G01X0011160Y0004302D02*
G01X0011180Y0004304D01*
G01X0011180Y0004304D02*
G01X0011200Y0004302D01*
G01X0011200Y0004302D02*
G01X0011218Y0004296D01*
G01X0011218Y0004296D02*
G01X0011236Y0004287D01*
G01X0011236Y0004287D02*
G01X0011251Y0004275D01*
G01X0011251Y0004275D02*
G01X0011263Y0004260D01*
G01X0011263Y0004260D02*
G01X0011272Y0004242D01*
G01X0011272Y0004242D02*
G01X0011278Y0004224D01*
G01X0011278Y0004224D02*
G01X0011280Y0004204D01*
G01X0011280Y0004204D02*
G01X0011278Y0004184D01*
G01X0011278Y0004184D02*
G01X0011272Y0004166D01*
G01X0011272Y0004166D02*
G01X0011263Y0004148D01*
G01X0011263Y0004148D02*
G01X0011251Y0004133D01*
G01X0011251Y0004133D02*
G01X0011236Y0004121D01*
G01X0011236Y0004121D02*
G01X0011218Y0004112D01*
G01X0011218Y0004112D02*
G01X0011200Y0004106D01*
G01X0011200Y0004106D02*
G01X0011180Y0004104D01*
G01X0011180Y0004104D02*
G01X0011160Y0004106D01*
G01X0011160Y0004106D02*
G01X0011142Y0004112D01*
G01X0011142Y0004112D02*
G01X0011124Y0004121D01*
G01X0011124Y0004121D02*
G01X0011109Y0004133D01*
G01X0011109Y0004133D02*
G01X0011097Y0004148D01*
G01X0011097Y0004148D02*
G01X0011088Y0004166D01*
G01X0011088Y0004166D02*
G01X0011082Y0004184D01*
G01X0011082Y0004184D02*
G01X0011080Y0004204D01*
G01X0010480Y0004204D02*
G01X0010482Y0004256D01*
G01X0010482Y0004256D02*
G01X0010488Y0004308D01*
G01X0010488Y0004308D02*
G01X0010498Y0004360D01*
G01X0010498Y0004360D02*
G01X0010511Y0004410D01*
G01X0010511Y0004410D02*
G01X0010528Y0004460D01*
G01X0010528Y0004460D02*
G01X0010549Y0004508D01*
G01X0010549Y0004508D02*
G01X0010574Y0004554D01*
G01X0010574Y0004554D02*
G01X0010602Y0004598D01*
G01X0010602Y0004598D02*
G01X0010633Y0004640D01*
G01X0010633Y0004640D02*
G01X0010667Y0004680D01*
G01X0010667Y0004680D02*
G01X0010704Y0004717D01*
G01X0010704Y0004717D02*
G01X0010744Y0004751D01*
G01X0010744Y0004751D02*
G01X0010786Y0004782D01*
G01X0010786Y0004782D02*
G01X0010830Y0004810D01*
G01X0010830Y0004810D02*
G01X0010876Y0004835D01*
G01X0010876Y0004835D02*
G01X0010924Y0004856D01*
G01X0010924Y0004856D02*
G01X0010974Y0004873D01*
G01X0010974Y0004873D02*
G01X0011024Y0004886D01*
G01X0011024Y0004886D02*
G01X0011076Y0004896D01*
G01X0011076Y0004896D02*
G01X0011128Y0004902D01*
G01X0011128Y0004902D02*
G01X0011180Y0004904D01*
G01X0011180Y0004904D02*
G01X0011232Y0004902D01*
G01X0011232Y0004902D02*
G01X0011284Y0004896D01*
G01X0011284Y0004896D02*
G01X0011336Y0004886D01*
G01X0011336Y0004886D02*
G01X0011386Y0004873D01*
G01X0011386Y0004873D02*
G01X0011436Y0004856D01*
G01X0011436Y0004856D02*
G01X0011484Y0004835D01*
G01X0011484Y0004835D02*
G01X0011530Y0004810D01*
G01X0011530Y0004810D02*
G01X0011574Y0004782D01*
G01X0011574Y0004782D02*
G01X0011616Y0004751D01*
G01X0011616Y0004751D02*
G01X0011656Y0004717D01*
G01X0011656Y0004717D02*
G01X0011693Y0004680D01*
G01X0011693Y0004680D02*
G01X0011727Y0004640D01*
G01X0011727Y0004640D02*
G01X0011758Y0004598D01*
G01X0011758Y0004598D02*
G01X0011786Y0004554D01*
G01X0011786Y0004554D02*
G01X0011811Y0004508D01*
G01X0011811Y0004508D02*
G01X0011832Y0004460D01*
G01X0011832Y0004460D02*
G01X0011849Y0004410D01*
G01X0011849Y0004410D02*
G01X0011862Y0004360D01*
G01X0011862Y0004360D02*
G01X0011872Y0004308D01*
G01X0011872Y0004308D02*
G01X0011878Y0004256D01*
G01X0011878Y0004256D02*
G01X0011880Y0004204D01*
G01X0011880Y0004204D02*
G01X0011878Y0004152D01*
G01X0011878Y0004152D02*
G01X0011872Y0004100D01*
G01X0011872Y0004100D02*
G01X0011862Y0004048D01*
G01X0011862Y0004048D02*
G01X0011849Y0003998D01*
G01X0011849Y0003998D02*
G01X0011832Y0003948D01*
G01X0011832Y0003948D02*
G01X0011811Y0003900D01*
G01X0011811Y0003900D02*
G01X0011786Y0003854D01*
G01X0011786Y0003854D02*
G01X0011758Y0003810D01*
G01X0011758Y0003810D02*
G01X0011727Y0003768D01*
G01X0011727Y0003768D02*
G01X0011693Y0003728D01*
G01X0011693Y0003728D02*
G01X0011656Y0003691D01*
G01X0011656Y0003691D02*
G01X0011616Y0003657D01*
G01X0011616Y0003657D02*
G01X0011574Y0003626D01*
G01X0011574Y0003626D02*
G01X0011530Y0003598D01*
G01X0011530Y0003598D02*
G01X0011484Y0003573D01*
G01X0011484Y0003573D02*
G01X0011436Y0003552D01*
G01X0011436Y0003552D02*
G01X0011386Y0003535D01*
G01X0011386Y0003535D02*
G01X0011336Y0003522D01*
G01X0011336Y0003522D02*
G01X0011284Y0003512D01*
G01X0011284Y0003512D02*
G01X0011232Y0003506D01*
G01X0011232Y0003506D02*
G01X0011180Y0003504D01*
G01X0011180Y0003504D02*
G01X0011128Y0003506D01*
G01X0011128Y0003506D02*
G01X0011076Y0003512D01*
G01X0011076Y0003512D02*
G01X0011024Y0003522D01*
G01X0011024Y0003522D02*
G01X0010974Y0003535D01*
G01X0010974Y0003535D02*
G01X0010924Y0003552D01*
G01X0010924Y0003552D02*
G01X0010876Y0003573D01*
G01X0010876Y0003573D02*
G01X0010830Y0003598D01*
G01X0010830Y0003598D02*
G01X0010786Y0003626D01*
G01X0010786Y0003626D02*
G01X0010744Y0003657D01*
G01X0010744Y0003657D02*
G01X0010704Y0003691D01*
G01X0010704Y0003691D02*
G01X0010667Y0003728D01*
G01X0010667Y0003728D02*
G01X0010633Y0003768D01*
G01X0010633Y0003768D02*
G01X0010602Y0003810D01*
G01X0010602Y0003810D02*
G01X0010574Y0003854D01*
G01X0010574Y0003854D02*
G01X0010549Y0003900D01*
G01X0010549Y0003900D02*
G01X0010528Y0003948D01*
G01X0010528Y0003948D02*
G01X0010511Y0003998D01*
G01X0010511Y0003998D02*
G01X0010498Y0004048D01*
G01X0010498Y0004048D02*
G01X0010488Y0004100D01*
G01X0010488Y0004100D02*
G01X0010482Y0004152D01*
G01X0010482Y0004152D02*
G01X0010480Y0004204D01*
G01X0012932Y0004101D02*
G01X0012934Y0004174D01*
G01X0012934Y0004174D02*
G01X0012940Y0004247D01*
G01X0012940Y0004247D02*
G01X0012950Y0004319D01*
G01X0012950Y0004319D02*
G01X0012964Y0004391D01*
G01X0012964Y0004391D02*
G01X0012981Y0004462D01*
G01X0012981Y0004462D02*
G01X0013003Y0004532D01*
G01X0013003Y0004532D02*
G01X0013028Y0004601D01*
G01X0013028Y0004601D02*
G01X0013057Y0004668D01*
G01X0013057Y0004668D02*
G01X0013089Y0004733D01*
G01X0013089Y0004733D02*
G01X0013125Y0004797D01*
G01X0013125Y0004797D02*
G01X0013165Y0004859D01*
G01X0013165Y0004859D02*
G01X0013207Y0004918D01*
G01X0013207Y0004918D02*
G01X0013253Y0004975D01*
G01X0013253Y0004975D02*
G01X0013302Y0005029D01*
G01X0013302Y0005029D02*
G01X0013354Y0005081D01*
G01X0013354Y0005081D02*
G01X0013408Y0005130D01*
G01X0013408Y0005130D02*
G01X0013465Y0005176D01*
G01X0013465Y0005176D02*
G01X0013524Y0005218D01*
G01X0013524Y0005218D02*
G01X0013586Y0005258D01*
G01X0013586Y0005258D02*
G01X0013650Y0005294D01*
G01X0013650Y0005294D02*
G01X0013715Y0005326D01*
G01X0013715Y0005326D02*
G01X0013782Y0005355D01*
G01X0013782Y0005355D02*
G01X0013851Y0005380D01*
G01X0013851Y0005380D02*
G01X0013921Y0005402D01*
G01X0013921Y0005402D02*
G01X0013992Y0005419D01*
G01X0013992Y0005419D02*
G01X0014064Y0005433D01*
G01X0014064Y0005433D02*
G01X0014136Y0005443D01*
G01X0014136Y0005443D02*
G01X0014209Y0005449D01*
G01X0014209Y0005449D02*
G01X0014282Y0005451D01*
G01X0014282Y0005451D02*
G01X0014355Y0005449D01*
G01X0014355Y0005449D02*
G01X0014428Y0005443D01*
G01X0014428Y0005443D02*
G01X0014500Y0005433D01*
G01X0014500Y0005433D02*
G01X0014572Y0005419D01*
G01X0014572Y0005419D02*
G01X0014643Y0005402D01*
G01X0014643Y0005402D02*
G01X0014713Y0005380D01*
G01X0014713Y0005380D02*
G01X0014782Y0005355D01*
G01X0014782Y0005355D02*
G01X0014849Y0005326D01*
G01X0014849Y0005326D02*
G01X0014914Y0005294D01*
G01X0014914Y0005294D02*
G01X0014978Y0005258D01*
G01X0014978Y0005258D02*
G01X0015040Y0005218D01*
G01X0015040Y0005218D02*
G01X0015099Y0005176D01*
G01X0015099Y0005176D02*
G01X0015156Y0005130D01*
G01X0015156Y0005130D02*
G01X0015210Y0005081D01*
G01X0015210Y0005081D02*
G01X0015262Y0005029D01*
G01X0015262Y0005029D02*
G01X0015311Y0004975D01*
G01X0015311Y0004975D02*
G01X0015357Y0004918D01*
G01X0015357Y0004918D02*
G01X0015399Y0004859D01*
G01X0015399Y0004859D02*
G01X0015439Y0004797D01*
G01X0015439Y0004797D02*
G01X0015475Y0004733D01*
G01X0015475Y0004733D02*
G01X0015507Y0004668D01*
G01X0015507Y0004668D02*
G01X0015536Y0004601D01*
G01X0015536Y0004601D02*
G01X0015561Y0004532D01*
G01X0015561Y0004532D02*
G01X0015583Y0004462D01*
G01X0015583Y0004462D02*
G01X0015600Y0004391D01*
G01X0015600Y0004391D02*
G01X0015614Y0004319D01*
G01X0015614Y0004319D02*
G01X0015624Y0004247D01*
G01X0015624Y0004247D02*
G01X0015630Y0004174D01*
G01X0015630Y0004174D02*
G01X0015632Y0004101D01*
G01X0015632Y0004101D02*
G01X0015630Y0004028D01*
G01X0015630Y0004028D02*
G01X0015624Y0003955D01*
G01X0015624Y0003955D02*
G01X0015614Y0003883D01*
G01X0015614Y0003883D02*
G01X0015600Y0003811D01*
G01X0015600Y0003811D02*
G01X0015583Y0003740D01*
G01X0015583Y0003740D02*
G01X0015561Y0003670D01*
G01X0015561Y0003670D02*
G01X0015536Y0003601D01*
G01X0015536Y0003601D02*
G01X0015507Y0003534D01*
G01X0015507Y0003534D02*
G01X0015475Y0003469D01*
G01X0015475Y0003469D02*
G01X0015439Y0003405D01*
G01X0015439Y0003405D02*
G01X0015399Y0003343D01*
G01X0015399Y0003343D02*
G01X0015357Y0003284D01*
G01X0015357Y0003284D02*
G01X0015311Y0003227D01*
G01X0015311Y0003227D02*
G01X0015262Y0003173D01*
G01X0015262Y0003173D02*
G01X0015210Y0003121D01*
G01X0015210Y0003121D02*
G01X0015156Y0003072D01*
G01X0015156Y0003072D02*
G01X0015099Y0003026D01*
G01X0015099Y0003026D02*
G01X0015040Y0002984D01*
G01X0015040Y0002984D02*
G01X0014978Y0002944D01*
G01X0014978Y0002944D02*
G01X0014914Y0002908D01*
G01X0014914Y0002908D02*
G01X0014849Y0002876D01*
G01X0014849Y0002876D02*
G01X0014782Y0002847D01*
G01X0014782Y0002847D02*
G01X0014713Y0002822D01*
G01X0014713Y0002822D02*
G01X0014643Y0002800D01*
G01X0014643Y0002800D02*
G01X0014572Y0002783D01*
G01X0014572Y0002783D02*
G01X0014500Y0002769D01*
G01X0014500Y0002769D02*
G01X0014428Y0002759D01*
G01X0014428Y0002759D02*
G01X0014355Y0002753D01*
G01X0014355Y0002753D02*
G01X0014282Y0002751D01*
G01X0014282Y0002751D02*
G01X0014209Y0002753D01*
G01X0014209Y0002753D02*
G01X0014136Y0002759D01*
G01X0014136Y0002759D02*
G01X0014064Y0002769D01*
G01X0014064Y0002769D02*
G01X0013992Y0002783D01*
G01X0013992Y0002783D02*
G01X0013921Y0002800D01*
G01X0013921Y0002800D02*
G01X0013851Y0002822D01*
G01X0013851Y0002822D02*
G01X0013782Y0002847D01*
G01X0013782Y0002847D02*
G01X0013715Y0002876D01*
G01X0013715Y0002876D02*
G01X0013650Y0002908D01*
G01X0013650Y0002908D02*
G01X0013586Y0002944D01*
G01X0013586Y0002944D02*
G01X0013524Y0002984D01*
G01X0013524Y0002984D02*
G01X0013465Y0003026D01*
G01X0013465Y0003026D02*
G01X0013408Y0003072D01*
G01X0013408Y0003072D02*
G01X0013354Y0003121D01*
G01X0013354Y0003121D02*
G01X0013302Y0003173D01*
G01X0013302Y0003173D02*
G01X0013253Y0003227D01*
G01X0013253Y0003227D02*
G01X0013207Y0003284D01*
G01X0013207Y0003284D02*
G01X0013165Y0003343D01*
G01X0013165Y0003343D02*
G01X0013125Y0003405D01*
G01X0013125Y0003405D02*
G01X0013089Y0003469D01*
G01X0013089Y0003469D02*
G01X0013057Y0003534D01*
G01X0013057Y0003534D02*
G01X0013028Y0003601D01*
G01X0013028Y0003601D02*
G01X0013003Y0003670D01*
G01X0013003Y0003670D02*
G01X0012981Y0003740D01*
G01X0012981Y0003740D02*
G01X0012964Y0003811D01*
G01X0012964Y0003811D02*
G01X0012950Y0003883D01*
G01X0012950Y0003883D02*
G01X0012940Y0003955D01*
G01X0012940Y0003955D02*
G01X0012934Y0004028D01*
G01X0012934Y0004028D02*
G01X0012932Y0004101D01*
G01X0017180Y0003954D02*
G01X0017180Y0003454D01*
G01X0017180Y0003454D02*
G01X0017430Y0003204D01*
G01X0017430Y0003204D02*
G01X0017930Y0003204D01*
G01X0017930Y0003204D02*
G01X0018180Y0003454D01*
G01X0018180Y0003454D02*
G01X0018180Y0003954D01*
G01X0018180Y0003954D02*
G01X0017930Y0004204D01*
G01X0017930Y0004204D02*
G01X0017430Y0004204D01*
G01X0017430Y0004204D02*
G01X0017180Y0003954D01*
G01X0017430Y0004204D02*
G01X0017180Y0004454D01*
G01X0017180Y0004454D02*
G01X0017180Y0004954D01*
G01X0017180Y0004954D02*
G01X0017430Y0005204D01*
G01X0017430Y0005204D02*
G01X0017180Y0005454D01*
G01X0017180Y0005454D02*
G01X0017180Y0005954D01*
G01X0017180Y0005954D02*
G01X0017430Y0006204D01*
G01X0017430Y0006204D02*
G01X0017180Y0006454D01*
G01X0017180Y0006454D02*
G01X0017180Y0006954D01*
G01X0017180Y0006954D02*
G01X0017430Y0007204D01*
G01X0017430Y0007204D02*
G01X0017930Y0007204D01*
G01X0017930Y0007204D02*
G01X0018180Y0006954D01*
G01X0018180Y0006954D02*
G01X0018180Y0006454D01*
G01X0018180Y0006454D02*
G01X0017930Y0006204D01*
G01X0017930Y0006204D02*
G01X0018180Y0005954D01*
G01X0018180Y0005954D02*
G01X0018180Y0005454D01*
G01X0018180Y0005454D02*
G01X0017930Y0005204D01*
G01X0017930Y0005204D02*
G01X0017430Y0005204D01*
G01X0017930Y0005204D02*
G01X0018180Y0004954D01*
G01X0018180Y0004954D02*
G01X0018180Y0004454D01*
G01X0018180Y0004454D02*
G01X0017930Y0004204D01*
G01X0017930Y0006204D02*
G01X0017430Y0006204D01*
G01X0017430Y0008204D02*
G01X0017180Y0008454D01*
G01X0017180Y0008454D02*
G01X0017180Y0008954D01*
G01X0017180Y0008954D02*
G01X0017430Y0009204D01*
G01X0017430Y0009204D02*
G01X0017180Y0009454D01*
G01X0017180Y0009454D02*
G01X0017180Y0009954D01*
G01X0017180Y0009954D02*
G01X0017430Y0010204D01*
G01X0017430Y0010204D02*
G01X0017180Y0010454D01*
G01X0017180Y0010454D02*
G01X0017180Y0010954D01*
G01X0017180Y0010954D02*
G01X0017430Y0011204D01*
G01X0017430Y0011204D02*
G01X0017180Y0011454D01*
G01X0017180Y0011454D02*
G01X0017180Y0011954D01*
G01X0017180Y0011954D02*
G01X0017430Y0012204D01*
G01X0017430Y0012204D02*
G01X0017930Y0012204D01*
G01X0017930Y0012204D02*
G01X0018180Y0011954D01*
G01X0018180Y0011954D02*
G01X0018180Y0011454D01*
G01X0018180Y0011454D02*
G01X0017930Y0011204D01*
G01X0017930Y0011204D02*
G01X0018180Y0010954D01*
G01X0018180Y0010954D02*
G01X0018180Y0010454D01*
G01X0018180Y0010454D02*
G01X0017930Y0010204D01*
G01X0017930Y0010204D02*
G01X0017430Y0010204D01*
G01X0017930Y0010204D02*
G01X0018180Y0009954D01*
G01X0018180Y0009954D02*
G01X0018180Y0009454D01*
G01X0018180Y0009454D02*
G01X0017930Y0009204D01*
G01X0017930Y0009204D02*
G01X0018180Y0008954D01*
G01X0018180Y0008954D02*
G01X0018180Y0008454D01*
G01X0018180Y0008454D02*
G01X0017930Y0008204D01*
G01X0017930Y0008204D02*
G01X0017430Y0008204D01*
G01X0017430Y0009204D02*
G01X0017930Y0009204D01*
G01X0017930Y0011204D02*
G01X0017430Y0011204D01*
G01X0017430Y0013204D02*
G01X0017180Y0013454D01*
G01X0017180Y0013454D02*
G01X0017180Y0013954D01*
G01X0017180Y0013954D02*
G01X0017430Y0014204D01*
G01X0017430Y0014204D02*
G01X0017180Y0014454D01*
G01X0017180Y0014454D02*
G01X0017180Y0014954D01*
G01X0017180Y0014954D02*
G01X0017430Y0015204D01*
G01X0017430Y0015204D02*
G01X0017180Y0015454D01*
G01X0017180Y0015454D02*
G01X0017180Y0015954D01*
G01X0017180Y0015954D02*
G01X0017430Y0016204D01*
G01X0017430Y0016204D02*
G01X0017180Y0016454D01*
G01X0017180Y0016454D02*
G01X0017180Y0016954D01*
G01X0017180Y0016954D02*
G01X0017430Y0017204D01*
G01X0017430Y0017204D02*
G01X0017930Y0017204D01*
G01X0017930Y0017204D02*
G01X0018180Y0016954D01*
G01X0018180Y0016954D02*
G01X0018180Y0016454D01*
G01X0018180Y0016454D02*
G01X0017930Y0016204D01*
G01X0017930Y0016204D02*
G01X0018180Y0015954D01*
G01X0018180Y0015954D02*
G01X0018180Y0015454D01*
G01X0018180Y0015454D02*
G01X0017930Y0015204D01*
G01X0017930Y0015204D02*
G01X0017430Y0015204D01*
G01X0017930Y0015204D02*
G01X0018180Y0014954D01*
G01X0018180Y0014954D02*
G01X0018180Y0014454D01*
G01X0018180Y0014454D02*
G01X0017930Y0014204D01*
G01X0017930Y0014204D02*
G01X0018180Y0013954D01*
G01X0018180Y0013954D02*
G01X0018180Y0013454D01*
G01X0018180Y0013454D02*
G01X0017930Y0013204D01*
G01X0017930Y0013204D02*
G01X0017430Y0013204D01*
G01X0017430Y0014204D02*
G01X0017930Y0014204D01*
G01X0017930Y0016204D02*
G01X0017430Y0016204D01*
G01X0012932Y0016306D02*
G01X0012934Y0016379D01*
G01X0012934Y0016379D02*
G01X0012940Y0016452D01*
G01X0012940Y0016452D02*
G01X0012950Y0016524D01*
G01X0012950Y0016524D02*
G01X0012964Y0016596D01*
G01X0012964Y0016596D02*
G01X0012981Y0016667D01*
G01X0012981Y0016667D02*
G01X0013003Y0016737D01*
G01X0013003Y0016737D02*
G01X0013028Y0016806D01*
G01X0013028Y0016806D02*
G01X0013057Y0016873D01*
G01X0013057Y0016873D02*
G01X0013089Y0016938D01*
G01X0013089Y0016938D02*
G01X0013125Y0017002D01*
G01X0013125Y0017002D02*
G01X0013165Y0017064D01*
G01X0013165Y0017064D02*
G01X0013207Y0017123D01*
G01X0013207Y0017123D02*
G01X0013253Y0017180D01*
G01X0013253Y0017180D02*
G01X0013302Y0017234D01*
G01X0013302Y0017234D02*
G01X0013354Y0017286D01*
G01X0013354Y0017286D02*
G01X0013408Y0017335D01*
G01X0013408Y0017335D02*
G01X0013465Y0017381D01*
G01X0013465Y0017381D02*
G01X0013524Y0017423D01*
G01X0013524Y0017423D02*
G01X0013586Y0017463D01*
G01X0013586Y0017463D02*
G01X0013650Y0017499D01*
G01X0013650Y0017499D02*
G01X0013715Y0017531D01*
G01X0013715Y0017531D02*
G01X0013782Y0017560D01*
G01X0013782Y0017560D02*
G01X0013851Y0017585D01*
G01X0013851Y0017585D02*
G01X0013921Y0017607D01*
G01X0013921Y0017607D02*
G01X0013992Y0017624D01*
G01X0013992Y0017624D02*
G01X0014064Y0017638D01*
G01X0014064Y0017638D02*
G01X0014136Y0017648D01*
G01X0014136Y0017648D02*
G01X0014209Y0017654D01*
G01X0014209Y0017654D02*
G01X0014282Y0017656D01*
G01X0014282Y0017656D02*
G01X0014355Y0017654D01*
G01X0014355Y0017654D02*
G01X0014428Y0017648D01*
G01X0014428Y0017648D02*
G01X0014500Y0017638D01*
G01X0014500Y0017638D02*
G01X0014572Y0017624D01*
G01X0014572Y0017624D02*
G01X0014643Y0017607D01*
G01X0014643Y0017607D02*
G01X0014713Y0017585D01*
G01X0014713Y0017585D02*
G01X0014782Y0017560D01*
G01X0014782Y0017560D02*
G01X0014849Y0017531D01*
G01X0014849Y0017531D02*
G01X0014914Y0017499D01*
G01X0014914Y0017499D02*
G01X0014978Y0017463D01*
G01X0014978Y0017463D02*
G01X0015040Y0017423D01*
G01X0015040Y0017423D02*
G01X0015099Y0017381D01*
G01X0015099Y0017381D02*
G01X0015156Y0017335D01*
G01X0015156Y0017335D02*
G01X0015210Y0017286D01*
G01X0015210Y0017286D02*
G01X0015262Y0017234D01*
G01X0015262Y0017234D02*
G01X0015311Y0017180D01*
G01X0015311Y0017180D02*
G01X0015357Y0017123D01*
G01X0015357Y0017123D02*
G01X0015399Y0017064D01*
G01X0015399Y0017064D02*
G01X0015439Y0017002D01*
G01X0015439Y0017002D02*
G01X0015475Y0016938D01*
G01X0015475Y0016938D02*
G01X0015507Y0016873D01*
G01X0015507Y0016873D02*
G01X0015536Y0016806D01*
G01X0015536Y0016806D02*
G01X0015561Y0016737D01*
G01X0015561Y0016737D02*
G01X0015583Y0016667D01*
G01X0015583Y0016667D02*
G01X0015600Y0016596D01*
G01X0015600Y0016596D02*
G01X0015614Y0016524D01*
G01X0015614Y0016524D02*
G01X0015624Y0016452D01*
G01X0015624Y0016452D02*
G01X0015630Y0016379D01*
G01X0015630Y0016379D02*
G01X0015632Y0016306D01*
G01X0015632Y0016306D02*
G01X0015630Y0016233D01*
G01X0015630Y0016233D02*
G01X0015624Y0016160D01*
G01X0015624Y0016160D02*
G01X0015614Y0016088D01*
G01X0015614Y0016088D02*
G01X0015600Y0016016D01*
G01X0015600Y0016016D02*
G01X0015583Y0015945D01*
G01X0015583Y0015945D02*
G01X0015561Y0015875D01*
G01X0015561Y0015875D02*
G01X0015536Y0015806D01*
G01X0015536Y0015806D02*
G01X0015507Y0015739D01*
G01X0015507Y0015739D02*
G01X0015475Y0015674D01*
G01X0015475Y0015674D02*
G01X0015439Y0015610D01*
G01X0015439Y0015610D02*
G01X0015399Y0015548D01*
G01X0015399Y0015548D02*
G01X0015357Y0015489D01*
G01X0015357Y0015489D02*
G01X0015311Y0015432D01*
G01X0015311Y0015432D02*
G01X0015262Y0015378D01*
G01X0015262Y0015378D02*
G01X0015210Y0015326D01*
G01X0015210Y0015326D02*
G01X0015156Y0015277D01*
G01X0015156Y0015277D02*
G01X0015099Y0015231D01*
G01X0015099Y0015231D02*
G01X0015040Y0015189D01*
G01X0015040Y0015189D02*
G01X0014978Y0015149D01*
G01X0014978Y0015149D02*
G01X0014914Y0015113D01*
G01X0014914Y0015113D02*
G01X0014849Y0015081D01*
G01X0014849Y0015081D02*
G01X0014782Y0015052D01*
G01X0014782Y0015052D02*
G01X0014713Y0015027D01*
G01X0014713Y0015027D02*
G01X0014643Y0015005D01*
G01X0014643Y0015005D02*
G01X0014572Y0014988D01*
G01X0014572Y0014988D02*
G01X0014500Y0014974D01*
G01X0014500Y0014974D02*
G01X0014428Y0014964D01*
G01X0014428Y0014964D02*
G01X0014355Y0014958D01*
G01X0014355Y0014958D02*
G01X0014282Y0014956D01*
G01X0014282Y0014956D02*
G01X0014209Y0014958D01*
G01X0014209Y0014958D02*
G01X0014136Y0014964D01*
G01X0014136Y0014964D02*
G01X0014064Y0014974D01*
G01X0014064Y0014974D02*
G01X0013992Y0014988D01*
G01X0013992Y0014988D02*
G01X0013921Y0015005D01*
G01X0013921Y0015005D02*
G01X0013851Y0015027D01*
G01X0013851Y0015027D02*
G01X0013782Y0015052D01*
G01X0013782Y0015052D02*
G01X0013715Y0015081D01*
G01X0013715Y0015081D02*
G01X0013650Y0015113D01*
G01X0013650Y0015113D02*
G01X0013586Y0015149D01*
G01X0013586Y0015149D02*
G01X0013524Y0015189D01*
G01X0013524Y0015189D02*
G01X0013465Y0015231D01*
G01X0013465Y0015231D02*
G01X0013408Y0015277D01*
G01X0013408Y0015277D02*
G01X0013354Y0015326D01*
G01X0013354Y0015326D02*
G01X0013302Y0015378D01*
G01X0013302Y0015378D02*
G01X0013253Y0015432D01*
G01X0013253Y0015432D02*
G01X0013207Y0015489D01*
G01X0013207Y0015489D02*
G01X0013165Y0015548D01*
G01X0013165Y0015548D02*
G01X0013125Y0015610D01*
G01X0013125Y0015610D02*
G01X0013089Y0015674D01*
G01X0013089Y0015674D02*
G01X0013057Y0015739D01*
G01X0013057Y0015739D02*
G01X0013028Y0015806D01*
G01X0013028Y0015806D02*
G01X0013003Y0015875D01*
G01X0013003Y0015875D02*
G01X0012981Y0015945D01*
G01X0012981Y0015945D02*
G01X0012964Y0016016D01*
G01X0012964Y0016016D02*
G01X0012950Y0016088D01*
G01X0012950Y0016088D02*
G01X0012940Y0016160D01*
G01X0012940Y0016160D02*
G01X0012934Y0016233D01*
G01X0012934Y0016233D02*
G01X0012932Y0016306D01*
G01X0007350Y0016372D02*
G01X0006709Y0015945D01*
G01X0006709Y0016372D02*
G01X0007350Y0015945D01*
G01X0007350Y0016589D02*
G01X0006923Y0017016D01*
G01X0006923Y0017016D02*
G01X0006816Y0017016D01*
G01X0006816Y0017016D02*
G01X0006709Y0016910D01*
G01X0006709Y0016910D02*
G01X0006709Y0016696D01*
G01X0006709Y0016696D02*
G01X0006816Y0016589D01*
G01X0007350Y0016589D02*
G01X0007350Y0017016D01*
G01X0000728Y0016306D02*
G01X0000730Y0016379D01*
G01X0000730Y0016379D02*
G01X0000736Y0016452D01*
G01X0000736Y0016452D02*
G01X0000746Y0016524D01*
G01X0000746Y0016524D02*
G01X0000760Y0016596D01*
G01X0000760Y0016596D02*
G01X0000777Y0016667D01*
G01X0000777Y0016667D02*
G01X0000799Y0016737D01*
G01X0000799Y0016737D02*
G01X0000824Y0016806D01*
G01X0000824Y0016806D02*
G01X0000853Y0016873D01*
G01X0000853Y0016873D02*
G01X0000885Y0016938D01*
G01X0000885Y0016938D02*
G01X0000921Y0017002D01*
G01X0000921Y0017002D02*
G01X0000961Y0017064D01*
G01X0000961Y0017064D02*
G01X0001003Y0017123D01*
G01X0001003Y0017123D02*
G01X0001049Y0017180D01*
G01X0001049Y0017180D02*
G01X0001098Y0017234D01*
G01X0001098Y0017234D02*
G01X0001150Y0017286D01*
G01X0001150Y0017286D02*
G01X0001204Y0017335D01*
G01X0001204Y0017335D02*
G01X0001261Y0017381D01*
G01X0001261Y0017381D02*
G01X0001320Y0017423D01*
G01X0001320Y0017423D02*
G01X0001382Y0017463D01*
G01X0001382Y0017463D02*
G01X0001446Y0017499D01*
G01X0001446Y0017499D02*
G01X0001511Y0017531D01*
G01X0001511Y0017531D02*
G01X0001578Y0017560D01*
G01X0001578Y0017560D02*
G01X0001647Y0017585D01*
G01X0001647Y0017585D02*
G01X0001717Y0017607D01*
G01X0001717Y0017607D02*
G01X0001788Y0017624D01*
G01X0001788Y0017624D02*
G01X0001860Y0017638D01*
G01X0001860Y0017638D02*
G01X0001932Y0017648D01*
G01X0001932Y0017648D02*
G01X0002005Y0017654D01*
G01X0002005Y0017654D02*
G01X0002078Y0017656D01*
G01X0002078Y0017656D02*
G01X0002151Y0017654D01*
G01X0002151Y0017654D02*
G01X0002224Y0017648D01*
G01X0002224Y0017648D02*
G01X0002296Y0017638D01*
G01X0002296Y0017638D02*
G01X0002368Y0017624D01*
G01X0002368Y0017624D02*
G01X0002439Y0017607D01*
G01X0002439Y0017607D02*
G01X0002509Y0017585D01*
G01X0002509Y0017585D02*
G01X0002578Y0017560D01*
G01X0002578Y0017560D02*
G01X0002645Y0017531D01*
G01X0002645Y0017531D02*
G01X0002710Y0017499D01*
G01X0002710Y0017499D02*
G01X0002774Y0017463D01*
G01X0002774Y0017463D02*
G01X0002836Y0017423D01*
G01X0002836Y0017423D02*
G01X0002895Y0017381D01*
G01X0002895Y0017381D02*
G01X0002952Y0017335D01*
G01X0002952Y0017335D02*
G01X0003006Y0017286D01*
G01X0003006Y0017286D02*
G01X0003058Y0017234D01*
G01X0003058Y0017234D02*
G01X0003107Y0017180D01*
G01X0003107Y0017180D02*
G01X0003153Y0017123D01*
G01X0003153Y0017123D02*
G01X0003195Y0017064D01*
G01X0003195Y0017064D02*
G01X0003235Y0017002D01*
G01X0003235Y0017002D02*
G01X0003271Y0016938D01*
G01X0003271Y0016938D02*
G01X0003303Y0016873D01*
G01X0003303Y0016873D02*
G01X0003332Y0016806D01*
G01X0003332Y0016806D02*
G01X0003357Y0016737D01*
G01X0003357Y0016737D02*
G01X0003379Y0016667D01*
G01X0003379Y0016667D02*
G01X0003396Y0016596D01*
G01X0003396Y0016596D02*
G01X0003410Y0016524D01*
G01X0003410Y0016524D02*
G01X0003420Y0016452D01*
G01X0003420Y0016452D02*
G01X0003426Y0016379D01*
G01X0003426Y0016379D02*
G01X0003428Y0016306D01*
G01X0003428Y0016306D02*
G01X0003426Y0016233D01*
G01X0003426Y0016233D02*
G01X0003420Y0016160D01*
G01X0003420Y0016160D02*
G01X0003410Y0016088D01*
G01X0003410Y0016088D02*
G01X0003396Y0016016D01*
G01X0003396Y0016016D02*
G01X0003379Y0015945D01*
G01X0003379Y0015945D02*
G01X0003357Y0015875D01*
G01X0003357Y0015875D02*
G01X0003332Y0015806D01*
G01X0003332Y0015806D02*
G01X0003303Y0015739D01*
G01X0003303Y0015739D02*
G01X0003271Y0015674D01*
G01X0003271Y0015674D02*
G01X0003235Y0015610D01*
G01X0003235Y0015610D02*
G01X0003195Y0015548D01*
G01X0003195Y0015548D02*
G01X0003153Y0015489D01*
G01X0003153Y0015489D02*
G01X0003107Y0015432D01*
G01X0003107Y0015432D02*
G01X0003058Y0015378D01*
G01X0003058Y0015378D02*
G01X0003006Y0015326D01*
G01X0003006Y0015326D02*
G01X0002952Y0015277D01*
G01X0002952Y0015277D02*
G01X0002895Y0015231D01*
G01X0002895Y0015231D02*
G01X0002836Y0015189D01*
G01X0002836Y0015189D02*
G01X0002774Y0015149D01*
G01X0002774Y0015149D02*
G01X0002710Y0015113D01*
G01X0002710Y0015113D02*
G01X0002645Y0015081D01*
G01X0002645Y0015081D02*
G01X0002578Y0015052D01*
G01X0002578Y0015052D02*
G01X0002509Y0015027D01*
G01X0002509Y0015027D02*
G01X0002439Y0015005D01*
G01X0002439Y0015005D02*
G01X0002368Y0014988D01*
G01X0002368Y0014988D02*
G01X0002296Y0014974D01*
G01X0002296Y0014974D02*
G01X0002224Y0014964D01*
G01X0002224Y0014964D02*
G01X0002151Y0014958D01*
G01X0002151Y0014958D02*
G01X0002078Y0014956D01*
G01X0002078Y0014956D02*
G01X0002005Y0014958D01*
G01X0002005Y0014958D02*
G01X0001932Y0014964D01*
G01X0001932Y0014964D02*
G01X0001860Y0014974D01*
G01X0001860Y0014974D02*
G01X0001788Y0014988D01*
G01X0001788Y0014988D02*
G01X0001717Y0015005D01*
G01X0001717Y0015005D02*
G01X0001647Y0015027D01*
G01X0001647Y0015027D02*
G01X0001578Y0015052D01*
G01X0001578Y0015052D02*
G01X0001511Y0015081D01*
G01X0001511Y0015081D02*
G01X0001446Y0015113D01*
G01X0001446Y0015113D02*
G01X0001382Y0015149D01*
G01X0001382Y0015149D02*
G01X0001320Y0015189D01*
G01X0001320Y0015189D02*
G01X0001261Y0015231D01*
G01X0001261Y0015231D02*
G01X0001204Y0015277D01*
G01X0001204Y0015277D02*
G01X0001150Y0015326D01*
G01X0001150Y0015326D02*
G01X0001098Y0015378D01*
G01X0001098Y0015378D02*
G01X0001049Y0015432D01*
G01X0001049Y0015432D02*
G01X0001003Y0015489D01*
G01X0001003Y0015489D02*
G01X0000961Y0015548D01*
G01X0000961Y0015548D02*
G01X0000921Y0015610D01*
G01X0000921Y0015610D02*
G01X0000885Y0015674D01*
G01X0000885Y0015674D02*
G01X0000853Y0015739D01*
G01X0000853Y0015739D02*
G01X0000824Y0015806D01*
G01X0000824Y0015806D02*
G01X0000799Y0015875D01*
G01X0000799Y0015875D02*
G01X0000777Y0015945D01*
G01X0000777Y0015945D02*
G01X0000760Y0016016D01*
G01X0000760Y0016016D02*
G01X0000746Y0016088D01*
G01X0000746Y0016088D02*
G01X0000736Y0016160D01*
G01X0000736Y0016160D02*
G01X0000730Y0016233D01*
G01X0000730Y0016233D02*
G01X0000728Y0016306D01*
G01X0001999Y0010434D02*
G01X0001999Y0007974D01*
G01X0001999Y0007974D02*
G01X0003361Y0007974D01*
G01X0003361Y0007974D02*
G01X0003361Y0010434D01*
G01X0003361Y0010434D02*
G01X0001999Y0010434D01*
G01X0006650Y0004305D02*
G01X0006650Y0003878D01*
G01X0006650Y0004092D02*
G01X0006009Y0004092D01*
G01X0006009Y0004092D02*
G01X0006223Y0003878D01*
G01X0006009Y0003661D02*
G01X0006650Y0003234D01*
G01X0006650Y0003661D02*
G01X0006009Y0003234D01*
G01X0000728Y0004101D02*
G01X0000730Y0004174D01*
G01X0000730Y0004174D02*
G01X0000736Y0004247D01*
G01X0000736Y0004247D02*
G01X0000746Y0004319D01*
G01X0000746Y0004319D02*
G01X0000760Y0004391D01*
G01X0000760Y0004391D02*
G01X0000777Y0004462D01*
G01X0000777Y0004462D02*
G01X0000799Y0004532D01*
G01X0000799Y0004532D02*
G01X0000824Y0004601D01*
G01X0000824Y0004601D02*
G01X0000853Y0004668D01*
G01X0000853Y0004668D02*
G01X0000885Y0004733D01*
G01X0000885Y0004733D02*
G01X0000921Y0004797D01*
G01X0000921Y0004797D02*
G01X0000961Y0004859D01*
G01X0000961Y0004859D02*
G01X0001003Y0004918D01*
G01X0001003Y0004918D02*
G01X0001049Y0004975D01*
G01X0001049Y0004975D02*
G01X0001098Y0005029D01*
G01X0001098Y0005029D02*
G01X0001150Y0005081D01*
G01X0001150Y0005081D02*
G01X0001204Y0005130D01*
G01X0001204Y0005130D02*
G01X0001261Y0005176D01*
G01X0001261Y0005176D02*
G01X0001320Y0005218D01*
G01X0001320Y0005218D02*
G01X0001382Y0005258D01*
G01X0001382Y0005258D02*
G01X0001446Y0005294D01*
G01X0001446Y0005294D02*
G01X0001511Y0005326D01*
G01X0001511Y0005326D02*
G01X0001578Y0005355D01*
G01X0001578Y0005355D02*
G01X0001647Y0005380D01*
G01X0001647Y0005380D02*
G01X0001717Y0005402D01*
G01X0001717Y0005402D02*
G01X0001788Y0005419D01*
G01X0001788Y0005419D02*
G01X0001860Y0005433D01*
G01X0001860Y0005433D02*
G01X0001932Y0005443D01*
G01X0001932Y0005443D02*
G01X0002005Y0005449D01*
G01X0002005Y0005449D02*
G01X0002078Y0005451D01*
G01X0002078Y0005451D02*
G01X0002151Y0005449D01*
G01X0002151Y0005449D02*
G01X0002224Y0005443D01*
G01X0002224Y0005443D02*
G01X0002296Y0005433D01*
G01X0002296Y0005433D02*
G01X0002368Y0005419D01*
G01X0002368Y0005419D02*
G01X0002439Y0005402D01*
G01X0002439Y0005402D02*
G01X0002509Y0005380D01*
G01X0002509Y0005380D02*
G01X0002578Y0005355D01*
G01X0002578Y0005355D02*
G01X0002645Y0005326D01*
G01X0002645Y0005326D02*
G01X0002710Y0005294D01*
G01X0002710Y0005294D02*
G01X0002774Y0005258D01*
G01X0002774Y0005258D02*
G01X0002836Y0005218D01*
G01X0002836Y0005218D02*
G01X0002895Y0005176D01*
G01X0002895Y0005176D02*
G01X0002952Y0005130D01*
G01X0002952Y0005130D02*
G01X0003006Y0005081D01*
G01X0003006Y0005081D02*
G01X0003058Y0005029D01*
G01X0003058Y0005029D02*
G01X0003107Y0004975D01*
G01X0003107Y0004975D02*
G01X0003153Y0004918D01*
G01X0003153Y0004918D02*
G01X0003195Y0004859D01*
G01X0003195Y0004859D02*
G01X0003235Y0004797D01*
G01X0003235Y0004797D02*
G01X0003271Y0004733D01*
G01X0003271Y0004733D02*
G01X0003303Y0004668D01*
G01X0003303Y0004668D02*
G01X0003332Y0004601D01*
G01X0003332Y0004601D02*
G01X0003357Y0004532D01*
G01X0003357Y0004532D02*
G01X0003379Y0004462D01*
G01X0003379Y0004462D02*
G01X0003396Y0004391D01*
G01X0003396Y0004391D02*
G01X0003410Y0004319D01*
G01X0003410Y0004319D02*
G01X0003420Y0004247D01*
G01X0003420Y0004247D02*
G01X0003426Y0004174D01*
G01X0003426Y0004174D02*
G01X0003428Y0004101D01*
G01X0003428Y0004101D02*
G01X0003426Y0004028D01*
G01X0003426Y0004028D02*
G01X0003420Y0003955D01*
G01X0003420Y0003955D02*
G01X0003410Y0003883D01*
G01X0003410Y0003883D02*
G01X0003396Y0003811D01*
G01X0003396Y0003811D02*
G01X0003379Y0003740D01*
G01X0003379Y0003740D02*
G01X0003357Y0003670D01*
G01X0003357Y0003670D02*
G01X0003332Y0003601D01*
G01X0003332Y0003601D02*
G01X0003303Y0003534D01*
G01X0003303Y0003534D02*
G01X0003271Y0003469D01*
G01X0003271Y0003469D02*
G01X0003235Y0003405D01*
G01X0003235Y0003405D02*
G01X0003195Y0003343D01*
G01X0003195Y0003343D02*
G01X0003153Y0003284D01*
G01X0003153Y0003284D02*
G01X0003107Y0003227D01*
G01X0003107Y0003227D02*
G01X0003058Y0003173D01*
G01X0003058Y0003173D02*
G01X0003006Y0003121D01*
G01X0003006Y0003121D02*
G01X0002952Y0003072D01*
G01X0002952Y0003072D02*
G01X0002895Y0003026D01*
G01X0002895Y0003026D02*
G01X0002836Y0002984D01*
G01X0002836Y0002984D02*
G01X0002774Y0002944D01*
G01X0002774Y0002944D02*
G01X0002710Y0002908D01*
G01X0002710Y0002908D02*
G01X0002645Y0002876D01*
G01X0002645Y0002876D02*
G01X0002578Y0002847D01*
G01X0002578Y0002847D02*
G01X0002509Y0002822D01*
G01X0002509Y0002822D02*
G01X0002439Y0002800D01*
G01X0002439Y0002800D02*
G01X0002368Y0002783D01*
G01X0002368Y0002783D02*
G01X0002296Y0002769D01*
G01X0002296Y0002769D02*
G01X0002224Y0002759D01*
G01X0002224Y0002759D02*
G01X0002151Y0002753D01*
G01X0002151Y0002753D02*
G01X0002078Y0002751D01*
G01X0002078Y0002751D02*
G01X0002005Y0002753D01*
G01X0002005Y0002753D02*
G01X0001932Y0002759D01*
G01X0001932Y0002759D02*
G01X0001860Y0002769D01*
G01X0001860Y0002769D02*
G01X0001788Y0002783D01*
G01X0001788Y0002783D02*
G01X0001717Y0002800D01*
G01X0001717Y0002800D02*
G01X0001647Y0002822D01*
G01X0001647Y0002822D02*
G01X0001578Y0002847D01*
G01X0001578Y0002847D02*
G01X0001511Y0002876D01*
G01X0001511Y0002876D02*
G01X0001446Y0002908D01*
G01X0001446Y0002908D02*
G01X0001382Y0002944D01*
G01X0001382Y0002944D02*
G01X0001320Y0002984D01*
G01X0001320Y0002984D02*
G01X0001261Y0003026D01*
G01X0001261Y0003026D02*
G01X0001204Y0003072D01*
G01X0001204Y0003072D02*
G01X0001150Y0003121D01*
G01X0001150Y0003121D02*
G01X0001098Y0003173D01*
G01X0001098Y0003173D02*
G01X0001049Y0003227D01*
G01X0001049Y0003227D02*
G01X0001003Y0003284D01*
G01X0001003Y0003284D02*
G01X0000961Y0003343D01*
G01X0000961Y0003343D02*
G01X0000921Y0003405D01*
G01X0000921Y0003405D02*
G01X0000885Y0003469D01*
G01X0000885Y0003469D02*
G01X0000853Y0003534D01*
G01X0000853Y0003534D02*
G01X0000824Y0003601D01*
G01X0000824Y0003601D02*
G01X0000799Y0003670D01*
G01X0000799Y0003670D02*
G01X0000777Y0003740D01*
G01X0000777Y0003740D02*
G01X0000760Y0003811D01*
G01X0000760Y0003811D02*
G01X0000746Y0003883D01*
G01X0000746Y0003883D02*
G01X0000736Y0003955D01*
G01X0000736Y0003955D02*
G01X0000730Y0004028D01*
G01X0000730Y0004028D02*
G01X0000728Y0004101D01*
G54D14*
G01X0000505Y0008229D02*
G01X0000505Y0008379D01*
G01X0000505Y0008304D02*
G01X0000955Y0008304D01*
G01X0000955Y0008229D02*
G01X0000955Y0008379D01*
G01X0000880Y0008536D02*
G01X0000955Y0008611D01*
G01X0000955Y0008611D02*
G01X0000955Y0008761D01*
G01X0000955Y0008761D02*
G01X0000880Y0008836D01*
G01X0000955Y0008996D02*
G01X0000955Y0009296D01*
G01X0000955Y0009146D02*
G01X0000505Y0009146D01*
G01X0000505Y0009146D02*
G01X0000655Y0008996D01*
G01X0000580Y0008836D02*
G01X0000505Y0008761D01*
G01X0000505Y0008761D02*
G01X0000505Y0008611D01*
G01X0000505Y0008611D02*
G01X0000580Y0008536D01*
G01X0000580Y0008536D02*
G01X0000880Y0008536D01*
G01X0010755Y0002804D02*
G01X0010755Y0002729D01*
G01X0010755Y0002729D02*
G01X0010830Y0002654D01*
G01X0010830Y0002654D02*
G01X0010980Y0002654D01*
G01X0010980Y0002654D02*
G01X0011055Y0002579D01*
G01X0011055Y0002579D02*
G01X0011055Y0002504D01*
G01X0011055Y0002504D02*
G01X0010980Y0002429D01*
G01X0010980Y0002429D02*
G01X0010830Y0002429D01*
G01X0010830Y0002429D02*
G01X0010755Y0002504D01*
G01X0010755Y0002804D02*
G01X0010830Y0002879D01*
G01X0010830Y0002879D02*
G01X0010980Y0002879D01*
G01X0010980Y0002879D02*
G01X0011055Y0002804D01*
G01X0011215Y0002729D02*
G01X0011366Y0002879D01*
G01X0011366Y0002879D02*
G01X0011366Y0002429D01*
G01X0011516Y0002429D02*
G01X0011215Y0002429D01*
G01X0013110Y0006199D02*
G01X0013185Y0006274D01*
G01X0013185Y0006274D02*
G01X0013185Y0006349D01*
G01X0013185Y0006349D02*
G01X0013110Y0006424D01*
G01X0013110Y0006424D02*
G01X0012735Y0006424D01*
G01X0012735Y0006349D02*
G01X0012735Y0006499D01*
G01X0012735Y0006659D02*
G01X0012735Y0006884D01*
G01X0012735Y0006884D02*
G01X0012810Y0006959D01*
G01X0012810Y0006959D02*
G01X0012960Y0006959D01*
G01X0012960Y0006959D02*
G01X0013035Y0006884D01*
G01X0013035Y0006884D02*
G01X0013035Y0006659D01*
G01X0013185Y0006659D02*
G01X0012735Y0006659D01*
G01X0012810Y0007120D02*
G01X0012735Y0007195D01*
G01X0012735Y0007195D02*
G01X0012735Y0007345D01*
G01X0012735Y0007345D02*
G01X0012810Y0007420D01*
G01X0012810Y0007420D02*
G01X0012885Y0007420D01*
G01X0012885Y0007420D02*
G01X0013185Y0007120D01*
G01X0013185Y0007120D02*
G01X0013185Y0007420D01*
G01X0017175Y0007524D02*
G01X0017250Y0007449D01*
G01X0017250Y0007449D02*
G01X0017325Y0007449D01*
G01X0017325Y0007449D02*
G01X0017400Y0007524D01*
G01X0017400Y0007524D02*
G01X0017400Y0007899D01*
G01X0017325Y0007899D02*
G01X0017475Y0007899D01*
G01X0017635Y0007899D02*
G01X0017861Y0007899D01*
G01X0017861Y0007899D02*
G01X0017936Y0007824D01*
G01X0017936Y0007824D02*
G01X0017936Y0007674D01*
G01X0017936Y0007674D02*
G01X0017861Y0007599D01*
G01X0017861Y0007599D02*
G01X0017635Y0007599D01*
G01X0017635Y0007449D02*
G01X0017635Y0007899D01*
G01X0018096Y0007824D02*
G01X0018171Y0007899D01*
G01X0018171Y0007899D02*
G01X0018321Y0007899D01*
G01X0018321Y0007899D02*
G01X0018396Y0007824D01*
G01X0018396Y0007824D02*
G01X0018396Y0007749D01*
G01X0018396Y0007749D02*
G01X0018321Y0007674D01*
G01X0018321Y0007674D02*
G01X0018396Y0007599D01*
G01X0018396Y0007599D02*
G01X0018396Y0007524D01*
G01X0018396Y0007524D02*
G01X0018321Y0007449D01*
G01X0018321Y0007449D02*
G01X0018171Y0007449D01*
G01X0018171Y0007449D02*
G01X0018096Y0007524D01*
G01X0018246Y0007674D02*
G01X0018321Y0007674D01*
G01X0018321Y0012449D02*
G01X0018321Y0012899D01*
G01X0018321Y0012899D02*
G01X0018096Y0012674D01*
G01X0018096Y0012674D02*
G01X0018396Y0012674D01*
G01X0017936Y0012674D02*
G01X0017861Y0012599D01*
G01X0017861Y0012599D02*
G01X0017635Y0012599D01*
G01X0017635Y0012449D02*
G01X0017635Y0012899D01*
G01X0017635Y0012899D02*
G01X0017861Y0012899D01*
G01X0017861Y0012899D02*
G01X0017936Y0012824D01*
G01X0017936Y0012824D02*
G01X0017936Y0012674D01*
G01X0017475Y0012899D02*
G01X0017325Y0012899D01*
G01X0017400Y0012899D02*
G01X0017400Y0012524D01*
G01X0017400Y0012524D02*
G01X0017325Y0012449D01*
G01X0017325Y0012449D02*
G01X0017250Y0012449D01*
G01X0017250Y0012449D02*
G01X0017175Y0012524D01*
G01X0016860Y0015199D02*
G01X0016935Y0015274D01*
G01X0016935Y0015274D02*
G01X0016935Y0015349D01*
G01X0016935Y0015349D02*
G01X0016860Y0015424D01*
G01X0016860Y0015424D02*
G01X0016485Y0015424D01*
G01X0016485Y0015349D02*
G01X0016485Y0015499D01*
G01X0016485Y0015659D02*
G01X0016485Y0015884D01*
G01X0016485Y0015884D02*
G01X0016560Y0015959D01*
G01X0016560Y0015959D02*
G01X0016710Y0015959D01*
G01X0016710Y0015959D02*
G01X0016785Y0015884D01*
G01X0016785Y0015884D02*
G01X0016785Y0015659D01*
G01X0016935Y0015659D02*
G01X0016485Y0015659D01*
G01X0016635Y0016120D02*
G01X0016485Y0016270D01*
G01X0016485Y0016270D02*
G01X0016935Y0016270D01*
G01X0016935Y0016120D02*
G01X0016935Y0016420D01*
G01X0011516Y0017679D02*
G01X0011215Y0017679D01*
G01X0011215Y0017679D02*
G01X0011516Y0017979D01*
G01X0011516Y0017979D02*
G01X0011516Y0018054D01*
G01X0011516Y0018054D02*
G01X0011441Y0018129D01*
G01X0011441Y0018129D02*
G01X0011290Y0018129D01*
G01X0011290Y0018129D02*
G01X0011215Y0018054D01*
G01X0011055Y0018054D02*
G01X0010980Y0018129D01*
G01X0010980Y0018129D02*
G01X0010830Y0018129D01*
G01X0010830Y0018129D02*
G01X0010755Y0018054D01*
G01X0010755Y0018054D02*
G01X0010755Y0017979D01*
G01X0010755Y0017979D02*
G01X0010830Y0017904D01*
G01X0010830Y0017904D02*
G01X0010980Y0017904D01*
G01X0010980Y0017904D02*
G01X0011055Y0017829D01*
G01X0011055Y0017829D02*
G01X0011055Y0017754D01*
G01X0011055Y0017754D02*
G01X0010980Y0017679D01*
G01X0010980Y0017679D02*
G01X0010830Y0017679D01*
G01X0010830Y0017679D02*
G01X0010755Y0017754D01*
G54D15*
G01X0013350Y0014784D02*
G01X0013580Y0014784D01*
G01X0013580Y0014784D02*
G01X0013657Y0014707D01*
G01X0013657Y0014707D02*
G01X0013657Y0014554D01*
G01X0013657Y0014554D02*
G01X0013580Y0014477D01*
G01X0013580Y0014477D02*
G01X0013350Y0014477D01*
G01X0013350Y0014324D02*
G01X0013350Y0014784D01*
G01X0013503Y0014477D02*
G01X0013657Y0014324D01*
G01X0013810Y0014324D02*
G01X0014117Y0014631D01*
G01X0014117Y0014631D02*
G01X0014117Y0014707D01*
G01X0014117Y0014707D02*
G01X0014041Y0014784D01*
G01X0014041Y0014784D02*
G01X0013887Y0014784D01*
G01X0013887Y0014784D02*
G01X0013810Y0014707D01*
G01X0013810Y0014324D02*
G01X0014117Y0014324D01*
G01X0015079Y0014401D02*
G01X0015156Y0014324D01*
G01X0015156Y0014324D02*
G01X0015309Y0014324D01*
G01X0015309Y0014324D02*
G01X0015386Y0014401D01*
G01X0015540Y0014401D02*
G01X0015616Y0014324D01*
G01X0015616Y0014324D02*
G01X0015770Y0014324D01*
G01X0015770Y0014324D02*
G01X0015847Y0014401D01*
G01X0015847Y0014401D02*
G01X0015847Y0014554D01*
G01X0015847Y0014554D02*
G01X0015770Y0014631D01*
G01X0015770Y0014631D02*
G01X0015693Y0014631D01*
G01X0015693Y0014631D02*
G01X0015540Y0014554D01*
G01X0015540Y0014554D02*
G01X0015540Y0014784D01*
G01X0015540Y0014784D02*
G01X0015847Y0014784D01*
G01X0015386Y0014707D02*
G01X0015309Y0014784D01*
G01X0015309Y0014784D02*
G01X0015156Y0014784D01*
G01X0015156Y0014784D02*
G01X0015079Y0014707D01*
G01X0015079Y0014707D02*
G01X0015079Y0014401D01*
G01X0010485Y0009434D02*
G01X0010485Y0008974D01*
G01X0010638Y0008974D02*
G01X0010331Y0008974D01*
G01X0010178Y0009051D02*
G01X0010178Y0009357D01*
G01X0010178Y0009357D02*
G01X0010101Y0009434D01*
G01X0010101Y0009434D02*
G01X0009871Y0009434D01*
G01X0009871Y0009434D02*
G01X0009871Y0008974D01*
G01X0009871Y0008974D02*
G01X0010101Y0008974D01*
G01X0010101Y0008974D02*
G01X0010178Y0009051D01*
G01X0010331Y0009281D02*
G01X0010485Y0009434D01*
G01X0009717Y0009434D02*
G01X0009410Y0009434D01*
G01X0009410Y0009434D02*
G01X0009410Y0008974D01*
G01X0009410Y0008974D02*
G01X0009717Y0008974D01*
G01X0009564Y0009204D02*
G01X0009410Y0009204D01*
G01X0009257Y0008974D02*
G01X0008950Y0008974D01*
G01X0008950Y0008974D02*
G01X0008950Y0009434D01*
G01X0008638Y0009357D02*
G01X0008561Y0009434D01*
G01X0008561Y0009434D02*
G01X0008408Y0009434D01*
G01X0008408Y0009434D02*
G01X0008331Y0009357D01*
G01X0008178Y0009357D02*
G01X0008178Y0009051D01*
G01X0008178Y0009051D02*
G01X0008101Y0008974D01*
G01X0008101Y0008974D02*
G01X0007871Y0008974D01*
G01X0007871Y0008974D02*
G01X0007871Y0009434D01*
G01X0007871Y0009434D02*
G01X0008101Y0009434D01*
G01X0008101Y0009434D02*
G01X0008178Y0009357D01*
G01X0008331Y0008974D02*
G01X0008638Y0009281D01*
G01X0008638Y0009281D02*
G01X0008638Y0009357D01*
G01X0008638Y0008974D02*
G01X0008331Y0008974D01*
G01X0008550Y0008517D02*
G01X0009010Y0008517D01*
G01X0009010Y0008670D02*
G01X0009010Y0008363D01*
G01X0009010Y0008210D02*
G01X0009010Y0007903D01*
G01X0009010Y0008056D02*
G01X0008550Y0008056D01*
G01X0008550Y0008056D02*
G01X0008703Y0007903D01*
G01X0008626Y0007750D02*
G01X0008780Y0007750D01*
G01X0008780Y0007750D02*
G01X0008857Y0007673D01*
G01X0008857Y0007673D02*
G01X0008857Y0007443D01*
G01X0009010Y0007443D02*
G01X0008550Y0007443D01*
G01X0008550Y0007443D02*
G01X0008550Y0007673D01*
G01X0008550Y0007673D02*
G01X0008626Y0007750D01*
G01X0008857Y0007596D02*
G01X0009010Y0007750D01*
G01X0008703Y0008363D02*
G01X0008550Y0008517D01*
G01X0007717Y0008974D02*
G01X0007410Y0008974D01*
G01X0007410Y0008974D02*
G01X0007410Y0009434D01*
G01X0007410Y0009434D02*
G01X0007717Y0009434D01*
G01X0007564Y0009204D02*
G01X0007410Y0009204D01*
G01X0007257Y0008974D02*
G01X0006950Y0008974D01*
G01X0006950Y0008974D02*
G01X0006950Y0009434D01*
G01X0006638Y0009357D02*
G01X0006638Y0009281D01*
G01X0006638Y0009281D02*
G01X0006561Y0009204D01*
G01X0006561Y0009204D02*
G01X0006638Y0009127D01*
G01X0006638Y0009127D02*
G01X0006638Y0009051D01*
G01X0006638Y0009051D02*
G01X0006561Y0008974D01*
G01X0006561Y0008974D02*
G01X0006408Y0008974D01*
G01X0006408Y0008974D02*
G01X0006331Y0009051D01*
G01X0006178Y0009051D02*
G01X0006101Y0008974D01*
G01X0006101Y0008974D02*
G01X0005871Y0008974D01*
G01X0005871Y0008974D02*
G01X0005871Y0009434D01*
G01X0005871Y0009434D02*
G01X0006101Y0009434D01*
G01X0006101Y0009434D02*
G01X0006178Y0009357D01*
G01X0006178Y0009357D02*
G01X0006178Y0009051D01*
G01X0006331Y0009357D02*
G01X0006408Y0009434D01*
G01X0006408Y0009434D02*
G01X0006561Y0009434D01*
G01X0006561Y0009434D02*
G01X0006638Y0009357D01*
G01X0006561Y0009204D02*
G01X0006485Y0009204D01*
G01X0006626Y0008670D02*
G01X0006550Y0008594D01*
G01X0006550Y0008594D02*
G01X0006550Y0008440D01*
G01X0006550Y0008440D02*
G01X0006626Y0008363D01*
G01X0006550Y0008056D02*
G01X0007010Y0008056D01*
G01X0007010Y0007903D02*
G01X0007010Y0008210D01*
G01X0007010Y0008363D02*
G01X0006703Y0008670D01*
G01X0006703Y0008670D02*
G01X0006626Y0008670D01*
G01X0007010Y0008670D02*
G01X0007010Y0008363D01*
G01X0006703Y0007903D02*
G01X0006550Y0008056D01*
G01X0006626Y0007750D02*
G01X0006550Y0007673D01*
G01X0006550Y0007673D02*
G01X0006550Y0007443D01*
G01X0006550Y0007443D02*
G01X0007010Y0007443D01*
G01X0006857Y0007443D02*
G01X0006857Y0007673D01*
G01X0006857Y0007673D02*
G01X0006780Y0007750D01*
G01X0006780Y0007750D02*
G01X0006626Y0007750D01*
G01X0006857Y0007596D02*
G01X0007010Y0007750D01*
G01X0005717Y0008974D02*
G01X0005410Y0008974D01*
G01X0005410Y0008974D02*
G01X0005410Y0009434D01*
G01X0005410Y0009434D02*
G01X0005717Y0009434D01*
G01X0005564Y0009204D02*
G01X0005410Y0009204D01*
G01X0005257Y0008974D02*
G01X0004950Y0008974D01*
G01X0004950Y0008974D02*
G01X0004950Y0009434D01*
G01X0004833Y0010474D02*
G01X0004450Y0010474D01*
G01X0004450Y0010781D02*
G01X0004833Y0010781D01*
G01X0004833Y0010781D02*
G01X0004910Y0010704D01*
G01X0004910Y0010704D02*
G01X0004910Y0010551D01*
G01X0004910Y0010551D02*
G01X0004833Y0010474D01*
G01X0004833Y0010934D02*
G01X0004910Y0011011D01*
G01X0004910Y0011011D02*
G01X0004910Y0011164D01*
G01X0004910Y0011164D02*
G01X0004833Y0011241D01*
G01X0004833Y0011241D02*
G01X0004757Y0011241D01*
G01X0004757Y0011241D02*
G01X0004680Y0011164D01*
G01X0004680Y0011164D02*
G01X0004680Y0011011D01*
G01X0004680Y0011011D02*
G01X0004603Y0010934D01*
G01X0004603Y0010934D02*
G01X0004526Y0010934D01*
G01X0004526Y0010934D02*
G01X0004450Y0011011D01*
G01X0004450Y0011011D02*
G01X0004450Y0011164D01*
G01X0004450Y0011164D02*
G01X0004526Y0011241D01*
G01X0004373Y0011088D02*
G01X0004987Y0011088D01*
G01X0004680Y0011395D02*
G01X0004680Y0011701D01*
G01X0004910Y0011625D02*
G01X0004450Y0011625D01*
G01X0004450Y0011625D02*
G01X0004680Y0011395D01*
G01X0004260Y0011440D02*
G01X0004260Y0011594D01*
G01X0004260Y0011594D02*
G01X0004183Y0011670D01*
G01X0004183Y0011670D02*
G01X0003876Y0011670D01*
G01X0003876Y0011670D02*
G01X0003800Y0011594D01*
G01X0003800Y0011594D02*
G01X0003800Y0011440D01*
G01X0003800Y0011440D02*
G01X0003876Y0011363D01*
G01X0003876Y0011363D02*
G01X0003953Y0011363D01*
G01X0003953Y0011363D02*
G01X0004030Y0011440D01*
G01X0004030Y0011440D02*
G01X0004030Y0011670D01*
G01X0004260Y0011440D02*
G01X0004183Y0011363D01*
G01X0004260Y0011210D02*
G01X0004107Y0011056D01*
G01X0004107Y0011133D02*
G01X0004107Y0010903D01*
G01X0004260Y0010903D02*
G01X0003800Y0010903D01*
G01X0003800Y0010903D02*
G01X0003800Y0011133D01*
G01X0003800Y0011133D02*
G01X0003876Y0011210D01*
G01X0003876Y0011210D02*
G01X0004030Y0011210D01*
G01X0004030Y0011210D02*
G01X0004107Y0011133D01*
G01X0001897Y0011077D02*
G01X0001897Y0011001D01*
G01X0001897Y0011001D02*
G01X0001820Y0010924D01*
G01X0001820Y0010924D02*
G01X0001666Y0010924D01*
G01X0001666Y0010924D02*
G01X0001590Y0011001D01*
G01X0001436Y0011001D02*
G01X0001359Y0010924D01*
G01X0001359Y0010924D02*
G01X0001206Y0010924D01*
G01X0001206Y0010924D02*
G01X0001129Y0011001D01*
G01X0001129Y0011001D02*
G01X0001129Y0011307D01*
G01X0001129Y0011307D02*
G01X0001206Y0011384D01*
G01X0001206Y0011384D02*
G01X0001359Y0011384D01*
G01X0001359Y0011384D02*
G01X0001436Y0011307D01*
G01X0001590Y0011307D02*
G01X0001666Y0011384D01*
G01X0001666Y0011384D02*
G01X0001820Y0011384D01*
G01X0001820Y0011384D02*
G01X0001897Y0011307D01*
G01X0001897Y0011307D02*
G01X0001897Y0011231D01*
G01X0001897Y0011231D02*
G01X0001820Y0011154D01*
G01X0001820Y0011154D02*
G01X0001897Y0011077D01*
G01X0001820Y0011154D02*
G01X0001743Y0011154D01*
G01X0001333Y0011974D02*
G01X0001410Y0012051D01*
G01X0001410Y0012051D02*
G01X0001410Y0012204D01*
G01X0001410Y0012204D02*
G01X0001333Y0012281D01*
G01X0001333Y0012281D02*
G01X0000950Y0012281D01*
G01X0001026Y0012434D02*
G01X0000950Y0012511D01*
G01X0000950Y0012511D02*
G01X0000950Y0012664D01*
G01X0000950Y0012664D02*
G01X0001026Y0012741D01*
G01X0001026Y0012895D02*
G01X0000950Y0012971D01*
G01X0000950Y0012971D02*
G01X0000950Y0013125D01*
G01X0000950Y0013125D02*
G01X0001026Y0013201D01*
G01X0001026Y0013201D02*
G01X0001103Y0013201D01*
G01X0001103Y0013201D02*
G01X0001180Y0013125D01*
G01X0001180Y0013125D02*
G01X0001257Y0013201D01*
G01X0001257Y0013201D02*
G01X0001333Y0013201D01*
G01X0001333Y0013201D02*
G01X0001410Y0013125D01*
G01X0001410Y0013125D02*
G01X0001410Y0012971D01*
G01X0001410Y0012971D02*
G01X0001333Y0012895D01*
G01X0001333Y0012741D02*
G01X0001257Y0012741D01*
G01X0001257Y0012741D02*
G01X0001180Y0012664D01*
G01X0001180Y0012664D02*
G01X0001180Y0012511D01*
G01X0001180Y0012511D02*
G01X0001103Y0012434D01*
G01X0001103Y0012434D02*
G01X0001026Y0012434D01*
G01X0000873Y0012588D02*
G01X0001487Y0012588D01*
G01X0001410Y0012511D02*
G01X0001410Y0012664D01*
G01X0001410Y0012664D02*
G01X0001333Y0012741D01*
G01X0001410Y0012511D02*
G01X0001333Y0012434D01*
G01X0001333Y0011974D02*
G01X0000950Y0011974D01*
G01X0001180Y0013048D02*
G01X0001180Y0013125D01*
G01X0001283Y0013874D02*
G01X0000976Y0013874D01*
G01X0000976Y0013874D02*
G01X0000900Y0013951D01*
G01X0000900Y0013951D02*
G01X0000900Y0014104D01*
G01X0000900Y0014104D02*
G01X0000976Y0014181D01*
G01X0000976Y0014334D02*
G01X0000900Y0014411D01*
G01X0000900Y0014411D02*
G01X0000900Y0014564D01*
G01X0000900Y0014564D02*
G01X0000976Y0014641D01*
G01X0000976Y0014641D02*
G01X0001053Y0014641D01*
G01X0001053Y0014641D02*
G01X0001360Y0014334D01*
G01X0001360Y0014334D02*
G01X0001360Y0014641D01*
G01X0001283Y0014181D02*
G01X0001360Y0014104D01*
G01X0001360Y0014104D02*
G01X0001360Y0013951D01*
G01X0001360Y0013951D02*
G01X0001283Y0013874D01*
G01X0001359Y0007384D02*
G01X0001206Y0007384D01*
G01X0001206Y0007384D02*
G01X0001129Y0007307D01*
G01X0001129Y0007307D02*
G01X0001129Y0007001D01*
G01X0001129Y0007001D02*
G01X0001206Y0006924D01*
G01X0001206Y0006924D02*
G01X0001359Y0006924D01*
G01X0001359Y0006924D02*
G01X0001436Y0007001D01*
G01X0001590Y0007154D02*
G01X0001897Y0007154D01*
G01X0001820Y0007384D02*
G01X0001590Y0007154D01*
G01X0001436Y0007307D02*
G01X0001359Y0007384D01*
G01X0001820Y0007384D02*
G01X0001820Y0006924D01*
G01X0008380Y0012153D02*
G01X0008413Y0012120D01*
G01X0008413Y0012120D02*
G01X0008480Y0012120D01*
G01X0008480Y0012120D02*
G01X0008513Y0012153D01*
G01X0008513Y0012153D02*
G01X0008513Y0012320D01*
G01X0008601Y0012286D02*
G01X0008634Y0012320D01*
G01X0008634Y0012320D02*
G01X0008701Y0012320D01*
G01X0008701Y0012320D02*
G01X0008734Y0012286D01*
G01X0008701Y0012220D02*
G01X0008634Y0012220D01*
G01X0008634Y0012220D02*
G01X0008601Y0012253D01*
G01X0008601Y0012253D02*
G01X0008601Y0012286D01*
G01X0008668Y0012353D02*
G01X0008668Y0012086D01*
G01X0008701Y0012120D02*
G01X0008734Y0012153D01*
G01X0008734Y0012153D02*
G01X0008734Y0012186D01*
G01X0008734Y0012186D02*
G01X0008701Y0012220D01*
G01X0008701Y0012120D02*
G01X0008634Y0012120D01*
G01X0008634Y0012120D02*
G01X0008601Y0012153D01*
G01X0008380Y0012153D02*
G01X0008380Y0012320D01*
G01X0008822Y0012253D02*
G01X0008889Y0012320D01*
G01X0008889Y0012320D02*
G01X0008889Y0012120D01*
G01X0008955Y0012120D02*
G01X0008822Y0012120D01*
G01X0010376Y0008670D02*
G01X0010683Y0008363D01*
G01X0010683Y0008363D02*
G01X0010760Y0008440D01*
G01X0010760Y0008440D02*
G01X0010760Y0008594D01*
G01X0010760Y0008594D02*
G01X0010683Y0008670D01*
G01X0010683Y0008670D02*
G01X0010376Y0008670D01*
G01X0010376Y0008670D02*
G01X0010300Y0008594D01*
G01X0010300Y0008594D02*
G01X0010300Y0008440D01*
G01X0010300Y0008440D02*
G01X0010376Y0008363D01*
G01X0010376Y0008363D02*
G01X0010683Y0008363D01*
G01X0010760Y0008210D02*
G01X0010760Y0007903D01*
G01X0010760Y0008056D02*
G01X0010300Y0008056D01*
G01X0010300Y0008056D02*
G01X0010453Y0007903D01*
G01X0010376Y0007750D02*
G01X0010530Y0007750D01*
G01X0010530Y0007750D02*
G01X0010607Y0007673D01*
G01X0010607Y0007673D02*
G01X0010607Y0007443D01*
G01X0010760Y0007443D02*
G01X0010300Y0007443D01*
G01X0010300Y0007443D02*
G01X0010300Y0007673D01*
G01X0010300Y0007673D02*
G01X0010376Y0007750D01*
G01X0010607Y0007596D02*
G01X0010760Y0007750D01*
G01X0010850Y0007738D02*
G01X0011310Y0007738D01*
G01X0011310Y0007891D02*
G01X0011310Y0007584D01*
G01X0011310Y0007431D02*
G01X0011157Y0007277D01*
G01X0011157Y0007354D02*
G01X0011157Y0007124D01*
G01X0011310Y0007124D02*
G01X0010850Y0007124D01*
G01X0010850Y0007124D02*
G01X0010850Y0007354D01*
G01X0010850Y0007354D02*
G01X0010926Y0007431D01*
G01X0010926Y0007431D02*
G01X0011080Y0007431D01*
G01X0011080Y0007431D02*
G01X0011157Y0007354D01*
G01X0011003Y0007584D02*
G01X0010850Y0007738D01*
G01X0014850Y0007714D02*
G01X0014926Y0007791D01*
G01X0014926Y0007791D02*
G01X0015003Y0007791D01*
G01X0015003Y0007791D02*
G01X0015080Y0007714D01*
G01X0015080Y0007714D02*
G01X0015157Y0007791D01*
G01X0015157Y0007791D02*
G01X0015233Y0007791D01*
G01X0015233Y0007791D02*
G01X0015310Y0007714D01*
G01X0015310Y0007714D02*
G01X0015310Y0007561D01*
G01X0015310Y0007561D02*
G01X0015233Y0007484D01*
G01X0015310Y0007331D02*
G01X0015157Y0007177D01*
G01X0015157Y0007254D02*
G01X0015157Y0007024D01*
G01X0015310Y0007024D02*
G01X0014850Y0007024D01*
G01X0014850Y0007024D02*
G01X0014850Y0007254D01*
G01X0014850Y0007254D02*
G01X0014926Y0007331D01*
G01X0014926Y0007331D02*
G01X0015080Y0007331D01*
G01X0015080Y0007331D02*
G01X0015157Y0007254D01*
G01X0014926Y0007484D02*
G01X0014850Y0007561D01*
G01X0014850Y0007561D02*
G01X0014850Y0007714D01*
G01X0015080Y0007714D02*
G01X0015080Y0007638D01*
G01X0014950Y0008224D02*
G01X0015410Y0008224D01*
G01X0015410Y0008224D02*
G01X0015410Y0008531D01*
G01X0015410Y0008684D02*
G01X0015410Y0008991D01*
G01X0015410Y0008838D02*
G01X0014950Y0008838D01*
G01X0014950Y0008838D02*
G01X0015103Y0008684D01*
G01X0016129Y0004834D02*
G01X0016359Y0004834D01*
G01X0016359Y0004834D02*
G01X0016436Y0004757D01*
G01X0016436Y0004757D02*
G01X0016436Y0004604D01*
G01X0016436Y0004604D02*
G01X0016359Y0004527D01*
G01X0016359Y0004527D02*
G01X0016129Y0004527D01*
G01X0016129Y0004374D02*
G01X0016129Y0004834D01*
G01X0016283Y0004527D02*
G01X0016436Y0004374D01*
G01X0016590Y0004374D02*
G01X0016590Y0004451D01*
G01X0016590Y0004451D02*
G01X0016897Y0004757D01*
G01X0016897Y0004757D02*
G01X0016897Y0004834D01*
G01X0016897Y0004834D02*
G01X0016590Y0004834D01*
G01X0016233Y0003391D02*
G01X0016310Y0003314D01*
G01X0016310Y0003314D02*
G01X0016310Y0003161D01*
G01X0016310Y0003161D02*
G01X0016233Y0003084D01*
G01X0016233Y0003084D02*
G01X0016157Y0003084D01*
G01X0016157Y0003084D02*
G01X0016080Y0003161D01*
G01X0016080Y0003161D02*
G01X0016080Y0003314D01*
G01X0016080Y0003314D02*
G01X0016157Y0003391D01*
G01X0016157Y0003391D02*
G01X0016233Y0003391D01*
G01X0016080Y0003314D02*
G01X0016003Y0003391D01*
G01X0016003Y0003391D02*
G01X0015926Y0003391D01*
G01X0015926Y0003391D02*
G01X0015850Y0003314D01*
G01X0015850Y0003314D02*
G01X0015850Y0003161D01*
G01X0015850Y0003161D02*
G01X0015926Y0003084D01*
G01X0015926Y0003084D02*
G01X0016003Y0003084D01*
G01X0016003Y0003084D02*
G01X0016080Y0003161D01*
G01X0016080Y0002931D02*
G01X0015926Y0002931D01*
G01X0015926Y0002931D02*
G01X0015850Y0002854D01*
G01X0015850Y0002854D02*
G01X0015850Y0002624D01*
G01X0015850Y0002624D02*
G01X0016310Y0002624D01*
G01X0016157Y0002624D02*
G01X0016157Y0002854D01*
G01X0016157Y0002854D02*
G01X0016080Y0002931D01*
G01X0016157Y0002777D02*
G01X0016310Y0002931D01*
G54D16*
G01X0016079Y0006724D02*
G01X0015969Y0006724D01*
G01X0015969Y0006724D02*
G01X0015969Y0006944D01*
G01X0015969Y0006944D02*
G01X0016079Y0006944D01*
G01X0016079Y0006944D02*
G01X0016116Y0006907D01*
G01X0016116Y0006907D02*
G01X0016116Y0006760D01*
G01X0016116Y0006760D02*
G01X0016079Y0006724D01*
G01X0015895Y0006724D02*
G01X0015895Y0006944D01*
G01X0015748Y0006944D02*
G01X0015895Y0006724D01*
G01X0015748Y0006724D02*
G01X0015748Y0006944D01*
G01X0015674Y0006907D02*
G01X0015637Y0006944D01*
G01X0015637Y0006944D02*
G01X0015564Y0006944D01*
G01X0015564Y0006944D02*
G01X0015527Y0006907D01*
G01X0015527Y0006907D02*
G01X0015527Y0006760D01*
G01X0015527Y0006760D02*
G01X0015564Y0006724D01*
G01X0015564Y0006724D02*
G01X0015637Y0006724D01*
G01X0015637Y0006724D02*
G01X0015674Y0006760D01*
G01X0015674Y0006760D02*
G01X0015674Y0006834D01*
G01X0015674Y0006834D02*
G01X0015600Y0006834D01*
G01X0015600Y0007724D02*
G01X0015674Y0007797D01*
G01X0015674Y0007797D02*
G01X0015674Y0007944D01*
G01X0015748Y0007944D02*
G01X0015748Y0007724D01*
G01X0015748Y0007724D02*
G01X0015858Y0007724D01*
G01X0015858Y0007724D02*
G01X0015895Y0007760D01*
G01X0015895Y0007760D02*
G01X0015895Y0007907D01*
G01X0015895Y0007907D02*
G01X0015858Y0007944D01*
G01X0015858Y0007944D02*
G01X0015748Y0007944D01*
G01X0015527Y0007944D02*
G01X0015527Y0007797D01*
G01X0015527Y0007797D02*
G01X0015600Y0007724D01*
G01X0015969Y0007724D02*
G01X0016079Y0007724D01*
G01X0016079Y0007724D02*
G01X0016116Y0007760D01*
G01X0016116Y0007760D02*
G01X0016116Y0007907D01*
G01X0016116Y0007907D02*
G01X0016079Y0007944D01*
G01X0016079Y0007944D02*
G01X0015969Y0007944D01*
G01X0015969Y0007944D02*
G01X0015969Y0007724D01*
G01X0015969Y0008724D02*
G01X0016079Y0008724D01*
G01X0016079Y0008724D02*
G01X0016116Y0008760D01*
G01X0016116Y0008760D02*
G01X0016116Y0008797D01*
G01X0016116Y0008797D02*
G01X0016079Y0008834D01*
G01X0016079Y0008834D02*
G01X0015969Y0008834D01*
G01X0015969Y0008944D02*
G01X0016079Y0008944D01*
G01X0016079Y0008944D02*
G01X0016116Y0008907D01*
G01X0016116Y0008907D02*
G01X0016116Y0008871D01*
G01X0016116Y0008871D02*
G01X0016079Y0008834D01*
G01X0015969Y0008724D02*
G01X0015969Y0008944D01*
G01X0015821Y0008944D02*
G01X0015821Y0008724D01*
G01X0015748Y0008724D02*
G01X0015895Y0008724D01*
G01X0015748Y0008871D02*
G01X0015821Y0008944D01*
G01X0015821Y0009724D02*
G01X0015821Y0009944D01*
G01X0015821Y0009944D02*
G01X0015748Y0009871D01*
G01X0015748Y0009724D02*
G01X0015895Y0009724D01*
G01X0015969Y0009724D02*
G01X0015969Y0009871D01*
G01X0015969Y0009871D02*
G01X0016042Y0009944D01*
G01X0016042Y0009944D02*
G01X0016116Y0009871D01*
G01X0016116Y0009871D02*
G01X0016116Y0009724D01*
G01X0016116Y0009834D02*
G01X0015969Y0009834D01*
G01X0015969Y0010724D02*
G01X0015969Y0010871D01*
G01X0015969Y0010871D02*
G01X0016042Y0010944D01*
G01X0016042Y0010944D02*
G01X0016116Y0010871D01*
G01X0016116Y0010871D02*
G01X0016116Y0010724D01*
G01X0016116Y0010834D02*
G01X0015969Y0010834D01*
G01X0015895Y0010871D02*
G01X0015895Y0010907D01*
G01X0015895Y0010907D02*
G01X0015858Y0010944D01*
G01X0015858Y0010944D02*
G01X0015785Y0010944D01*
G01X0015785Y0010944D02*
G01X0015748Y0010907D01*
G01X0015895Y0010871D02*
G01X0015748Y0010724D01*
G01X0015748Y0010724D02*
G01X0015895Y0010724D01*
G01X0015895Y0011724D02*
G01X0015748Y0011724D01*
G01X0015748Y0011724D02*
G01X0015895Y0011871D01*
G01X0015895Y0011871D02*
G01X0015895Y0011907D01*
G01X0015895Y0011907D02*
G01X0015858Y0011944D01*
G01X0015858Y0011944D02*
G01X0015785Y0011944D01*
G01X0015785Y0011944D02*
G01X0015748Y0011907D01*
G01X0015969Y0011944D02*
G01X0015969Y0011724D01*
G01X0015969Y0011724D02*
G01X0016079Y0011724D01*
G01X0016079Y0011724D02*
G01X0016116Y0011760D01*
G01X0016116Y0011760D02*
G01X0016116Y0011797D01*
G01X0016116Y0011797D02*
G01X0016079Y0011834D01*
G01X0016079Y0011834D02*
G01X0015969Y0011834D01*
G01X0015969Y0011944D02*
G01X0016079Y0011944D01*
G01X0016079Y0011944D02*
G01X0016116Y0011907D01*
G01X0016116Y0011907D02*
G01X0016116Y0011871D01*
G01X0016116Y0011871D02*
G01X0016079Y0011834D01*
G01X0016079Y0012724D02*
G01X0015969Y0012724D01*
G01X0015969Y0012724D02*
G01X0015969Y0012944D01*
G01X0015969Y0012944D02*
G01X0016079Y0012944D01*
G01X0016079Y0012944D02*
G01X0016116Y0012907D01*
G01X0016116Y0012907D02*
G01X0016116Y0012760D01*
G01X0016116Y0012760D02*
G01X0016079Y0012724D01*
G01X0015895Y0012724D02*
G01X0015895Y0012944D01*
G01X0015748Y0012944D02*
G01X0015748Y0012724D01*
G01X0015674Y0012760D02*
G01X0015674Y0012834D01*
G01X0015674Y0012834D02*
G01X0015600Y0012834D01*
G01X0015527Y0012907D02*
G01X0015527Y0012760D01*
G01X0015527Y0012760D02*
G01X0015564Y0012724D01*
G01X0015564Y0012724D02*
G01X0015637Y0012724D01*
G01X0015637Y0012724D02*
G01X0015674Y0012760D01*
G01X0015674Y0012907D02*
G01X0015637Y0012944D01*
G01X0015637Y0012944D02*
G01X0015564Y0012944D01*
G01X0015564Y0012944D02*
G01X0015527Y0012907D01*
G01X0015748Y0012944D02*
G01X0015895Y0012724D01*
G01X0015858Y0013724D02*
G01X0015822Y0013760D01*
G01X0015822Y0013760D02*
G01X0015822Y0013834D01*
G01X0015822Y0013834D02*
G01X0015858Y0013871D01*
G01X0015858Y0013871D02*
G01X0015932Y0013871D01*
G01X0015932Y0013871D02*
G01X0015968Y0013834D01*
G01X0015968Y0013834D02*
G01X0015968Y0013760D01*
G01X0015968Y0013760D02*
G01X0015932Y0013724D01*
G01X0015932Y0013724D02*
G01X0015858Y0013724D01*
G01X0015747Y0013724D02*
G01X0015747Y0013834D01*
G01X0015747Y0013834D02*
G01X0015711Y0013871D01*
G01X0015711Y0013871D02*
G01X0015674Y0013834D01*
G01X0015674Y0013834D02*
G01X0015674Y0013724D01*
G01X0015601Y0013724D02*
G01X0015601Y0013871D01*
G01X0015601Y0013871D02*
G01X0015637Y0013871D01*
G01X0015637Y0013871D02*
G01X0015674Y0013834D01*
G01X0015526Y0013797D02*
G01X0015526Y0013944D01*
G01X0015380Y0013944D02*
G01X0015380Y0013797D01*
G01X0015380Y0013797D02*
G01X0015453Y0013724D01*
G01X0015453Y0013724D02*
G01X0015526Y0013797D01*
G01X0016043Y0013871D02*
G01X0016116Y0013871D01*
G01X0016079Y0013907D02*
G01X0016079Y0013760D01*
G01X0016079Y0013760D02*
G01X0016116Y0013724D01*
G01X0012779Y0012464D02*
G01X0012632Y0012464D01*
G01X0012705Y0012464D02*
G01X0012705Y0012684D01*
G01X0012705Y0012684D02*
G01X0012632Y0012611D01*
G01X0012558Y0012647D02*
G01X0012521Y0012684D01*
G01X0012521Y0012684D02*
G01X0012448Y0012684D01*
G01X0012448Y0012684D02*
G01X0012411Y0012647D01*
G01X0012411Y0012647D02*
G01X0012411Y0012611D01*
G01X0012411Y0012611D02*
G01X0012448Y0012574D01*
G01X0012448Y0012574D02*
G01X0012521Y0012574D01*
G01X0012521Y0012574D02*
G01X0012558Y0012537D01*
G01X0012558Y0012537D02*
G01X0012558Y0012500D01*
G01X0012558Y0012500D02*
G01X0012521Y0012464D01*
G01X0012521Y0012464D02*
G01X0012448Y0012464D01*
G01X0012448Y0012464D02*
G01X0012411Y0012500D01*
G01X0012337Y0012464D02*
G01X0012337Y0012684D01*
G01X0012337Y0012684D02*
G01X0012263Y0012611D01*
G01X0012263Y0012611D02*
G01X0012190Y0012684D01*
G01X0012190Y0012684D02*
G01X0012190Y0012464D01*
G01X0012190Y0011684D02*
G01X0012263Y0011611D01*
G01X0012263Y0011611D02*
G01X0012337Y0011684D01*
G01X0012337Y0011684D02*
G01X0012337Y0011464D01*
G01X0012411Y0011500D02*
G01X0012448Y0011464D01*
G01X0012448Y0011464D02*
G01X0012521Y0011464D01*
G01X0012521Y0011464D02*
G01X0012558Y0011500D01*
G01X0012558Y0011500D02*
G01X0012558Y0011537D01*
G01X0012558Y0011537D02*
G01X0012521Y0011574D01*
G01X0012521Y0011574D02*
G01X0012448Y0011574D01*
G01X0012448Y0011574D02*
G01X0012411Y0011611D01*
G01X0012411Y0011611D02*
G01X0012411Y0011647D01*
G01X0012411Y0011647D02*
G01X0012448Y0011684D01*
G01X0012448Y0011684D02*
G01X0012521Y0011684D01*
G01X0012521Y0011684D02*
G01X0012558Y0011647D01*
G01X0012632Y0011647D02*
G01X0012669Y0011684D01*
G01X0012669Y0011684D02*
G01X0012742Y0011684D01*
G01X0012742Y0011684D02*
G01X0012779Y0011647D01*
G01X0012779Y0011647D02*
G01X0012779Y0011611D01*
G01X0012779Y0011611D02*
G01X0012632Y0011464D01*
G01X0012632Y0011464D02*
G01X0012779Y0011464D01*
G01X0012190Y0011464D02*
G01X0012190Y0011684D01*
G01X0012190Y0010684D02*
G01X0012263Y0010611D01*
G01X0012263Y0010611D02*
G01X0012337Y0010684D01*
G01X0012337Y0010684D02*
G01X0012337Y0010464D01*
G01X0012411Y0010500D02*
G01X0012448Y0010464D01*
G01X0012448Y0010464D02*
G01X0012521Y0010464D01*
G01X0012521Y0010464D02*
G01X0012558Y0010500D01*
G01X0012558Y0010500D02*
G01X0012558Y0010537D01*
G01X0012558Y0010537D02*
G01X0012521Y0010574D01*
G01X0012521Y0010574D02*
G01X0012448Y0010574D01*
G01X0012448Y0010574D02*
G01X0012411Y0010611D01*
G01X0012411Y0010611D02*
G01X0012411Y0010647D01*
G01X0012411Y0010647D02*
G01X0012448Y0010684D01*
G01X0012448Y0010684D02*
G01X0012521Y0010684D01*
G01X0012521Y0010684D02*
G01X0012558Y0010647D01*
G01X0012632Y0010647D02*
G01X0012669Y0010684D01*
G01X0012669Y0010684D02*
G01X0012742Y0010684D01*
G01X0012742Y0010684D02*
G01X0012779Y0010647D01*
G01X0012779Y0010647D02*
G01X0012779Y0010611D01*
G01X0012779Y0010611D02*
G01X0012742Y0010574D01*
G01X0012742Y0010574D02*
G01X0012779Y0010537D01*
G01X0012779Y0010537D02*
G01X0012779Y0010500D01*
G01X0012779Y0010500D02*
G01X0012742Y0010464D01*
G01X0012742Y0010464D02*
G01X0012669Y0010464D01*
G01X0012669Y0010464D02*
G01X0012632Y0010500D01*
G01X0012705Y0010574D02*
G01X0012742Y0010574D01*
G01X0012190Y0010464D02*
G01X0012190Y0010684D01*
G01X0012190Y0009684D02*
G01X0012300Y0009684D01*
G01X0012300Y0009684D02*
G01X0012337Y0009647D01*
G01X0012337Y0009647D02*
G01X0012337Y0009574D01*
G01X0012337Y0009574D02*
G01X0012300Y0009537D01*
G01X0012300Y0009537D02*
G01X0012190Y0009537D01*
G01X0012190Y0009464D02*
G01X0012190Y0009684D01*
G01X0012263Y0009537D02*
G01X0012337Y0009464D01*
G01X0012411Y0009500D02*
G01X0012448Y0009464D01*
G01X0012448Y0009464D02*
G01X0012521Y0009464D01*
G01X0012521Y0009464D02*
G01X0012558Y0009500D01*
G01X0012558Y0009500D02*
G01X0012558Y0009537D01*
G01X0012558Y0009537D02*
G01X0012521Y0009574D01*
G01X0012521Y0009574D02*
G01X0012448Y0009574D01*
G01X0012448Y0009574D02*
G01X0012411Y0009611D01*
G01X0012411Y0009611D02*
G01X0012411Y0009647D01*
G01X0012411Y0009647D02*
G01X0012448Y0009684D01*
G01X0012448Y0009684D02*
G01X0012521Y0009684D01*
G01X0012521Y0009684D02*
G01X0012558Y0009647D01*
G01X0012632Y0009684D02*
G01X0012779Y0009684D01*
G01X0012705Y0009684D02*
G01X0012705Y0009464D01*
G01X0012742Y0008684D02*
G01X0012779Y0008647D01*
G01X0012779Y0008647D02*
G01X0012779Y0008574D01*
G01X0012779Y0008574D02*
G01X0012742Y0008537D01*
G01X0012742Y0008537D02*
G01X0012632Y0008537D01*
G01X0012632Y0008464D02*
G01X0012632Y0008684D01*
G01X0012632Y0008684D02*
G01X0012742Y0008684D01*
G01X0012558Y0008464D02*
G01X0012411Y0008464D01*
G01X0012411Y0008464D02*
G01X0012411Y0008684D01*
G01X0012337Y0008647D02*
G01X0012300Y0008684D01*
G01X0012300Y0008684D02*
G01X0012227Y0008684D01*
G01X0012227Y0008684D02*
G01X0012190Y0008647D01*
G01X0012190Y0008647D02*
G01X0012190Y0008611D01*
G01X0012190Y0008611D02*
G01X0012227Y0008574D01*
G01X0012227Y0008574D02*
G01X0012300Y0008574D01*
G01X0012300Y0008574D02*
G01X0012337Y0008537D01*
G01X0012337Y0008537D02*
G01X0012337Y0008500D01*
G01X0012337Y0008500D02*
G01X0012300Y0008464D01*
G01X0012300Y0008464D02*
G01X0012227Y0008464D01*
G01X0012227Y0008464D02*
G01X0012190Y0008500D01*
G01X0012227Y0007684D02*
G01X0012190Y0007647D01*
G01X0012190Y0007647D02*
G01X0012190Y0007611D01*
G01X0012190Y0007611D02*
G01X0012227Y0007574D01*
G01X0012227Y0007574D02*
G01X0012300Y0007574D01*
G01X0012300Y0007574D02*
G01X0012337Y0007537D01*
G01X0012337Y0007537D02*
G01X0012337Y0007500D01*
G01X0012337Y0007500D02*
G01X0012300Y0007464D01*
G01X0012300Y0007464D02*
G01X0012227Y0007464D01*
G01X0012227Y0007464D02*
G01X0012190Y0007500D01*
G01X0012227Y0007684D02*
G01X0012300Y0007684D01*
G01X0012300Y0007684D02*
G01X0012337Y0007647D01*
G01X0012411Y0007684D02*
G01X0012558Y0007684D01*
G01X0012484Y0007684D02*
G01X0012484Y0007464D01*
G01X0012632Y0007464D02*
G01X0012632Y0007684D01*
G01X0012632Y0007684D02*
G01X0012779Y0007684D01*
G01X0012853Y0007684D02*
G01X0012963Y0007684D01*
G01X0012963Y0007684D02*
G01X0013000Y0007647D01*
G01X0013000Y0007647D02*
G01X0013000Y0007574D01*
G01X0013000Y0007574D02*
G01X0012963Y0007537D01*
G01X0012963Y0007537D02*
G01X0012853Y0007537D01*
G01X0012853Y0007464D02*
G01X0012853Y0007684D01*
G01X0012705Y0007574D02*
G01X0012632Y0007574D01*
G01X0012632Y0007464D02*
G01X0012779Y0007464D01*
G01X0012668Y0006684D02*
G01X0012558Y0006684D01*
G01X0012558Y0006684D02*
G01X0012558Y0006464D01*
G01X0012558Y0006537D02*
G01X0012668Y0006537D01*
G01X0012668Y0006537D02*
G01X0012705Y0006574D01*
G01X0012705Y0006574D02*
G01X0012705Y0006647D01*
G01X0012705Y0006647D02*
G01X0012668Y0006684D01*
G01X0012632Y0006537D02*
G01X0012705Y0006464D01*
G01X0012484Y0006464D02*
G01X0012411Y0006464D01*
G01X0012448Y0006464D02*
G01X0012448Y0006684D01*
G01X0012484Y0006684D02*
G01X0012411Y0006684D01*
G01X0012337Y0006647D02*
G01X0012337Y0006500D01*
G01X0012337Y0006500D02*
G01X0012300Y0006464D01*
G01X0012300Y0006464D02*
G01X0012190Y0006464D01*
G01X0012190Y0006464D02*
G01X0012190Y0006684D01*
G01X0012190Y0006684D02*
G01X0012300Y0006684D01*
G01X0012300Y0006684D02*
G01X0012337Y0006647D01*
G01X0012380Y0004704D02*
G01X0012280Y0004704D01*
G01X0012280Y0004704D02*
G01X0012280Y0003704D01*
G01X0012280Y0003704D02*
G01X0012380Y0003704D01*
G01X0010080Y0003754D02*
G01X0009980Y0003754D01*
G01X0010080Y0003754D02*
G01X0010080Y0004704D01*
G01X0010080Y0004704D02*
G01X0009980Y0004704D01*
G01X0012190Y0013464D02*
G01X0012337Y0013464D01*
G01X0012411Y0013464D02*
G01X0012411Y0013684D01*
G01X0012411Y0013684D02*
G01X0012558Y0013464D01*
G01X0012558Y0013464D02*
G01X0012558Y0013684D01*
G01X0012337Y0013684D02*
G01X0012190Y0013684D01*
G01X0012190Y0013684D02*
G01X0012190Y0013464D01*
G01X0012190Y0013574D02*
G01X0012263Y0013574D01*
G01X0012280Y0015704D02*
G01X0012380Y0015704D01*
G01X0012280Y0015704D02*
G01X0012280Y0016704D01*
G01X0012280Y0016704D02*
G01X0012380Y0016704D01*
G01X0010080Y0016704D02*
G01X0010080Y0015754D01*
G01X0010080Y0015754D02*
G01X0009980Y0015754D01*
G01X0009980Y0016704D02*
G01X0010080Y0016704D01*
G54D17*
G01X0009180Y0008253D03*
G01X0007180Y0008253D03*
G01X0005180Y0008253D03*
M02*
