G75*
%MOIN*%
%OFA0B0*%
%FSLAX24Y24*%
%IPPOS*%
%LPD*%
%AMOC8*
5,1,8,0,0,1.08239X$1,22.5*
%
%ADD10C,0.0000*%
D10*
X002180Y002204D02*
X016680Y002204D01*
X016767Y002206D01*
X016854Y002212D01*
X016941Y002221D01*
X017027Y002234D01*
X017113Y002251D01*
X017198Y002272D01*
X017281Y002297D01*
X017364Y002325D01*
X017445Y002356D01*
X017525Y002391D01*
X017603Y002430D01*
X017680Y002472D01*
X017755Y002517D01*
X017827Y002566D01*
X017898Y002617D01*
X017966Y002672D01*
X018031Y002729D01*
X018094Y002790D01*
X018155Y002853D01*
X018212Y002918D01*
X018267Y002986D01*
X018318Y003057D01*
X018367Y003129D01*
X018412Y003204D01*
X018454Y003281D01*
X018493Y003359D01*
X018528Y003439D01*
X018559Y003520D01*
X018587Y003603D01*
X018612Y003686D01*
X018633Y003771D01*
X018650Y003857D01*
X018663Y003943D01*
X018672Y004030D01*
X018678Y004117D01*
X018680Y004204D01*
X018680Y016204D01*
X018678Y016291D01*
X018672Y016378D01*
X018663Y016465D01*
X018650Y016551D01*
X018633Y016637D01*
X018612Y016722D01*
X018587Y016805D01*
X018559Y016888D01*
X018528Y016969D01*
X018493Y017049D01*
X018454Y017127D01*
X018412Y017204D01*
X018367Y017279D01*
X018318Y017351D01*
X018267Y017422D01*
X018212Y017490D01*
X018155Y017555D01*
X018094Y017618D01*
X018031Y017679D01*
X017966Y017736D01*
X017898Y017791D01*
X017827Y017842D01*
X017755Y017891D01*
X017680Y017936D01*
X017603Y017978D01*
X017525Y018017D01*
X017445Y018052D01*
X017364Y018083D01*
X017281Y018111D01*
X017198Y018136D01*
X017113Y018157D01*
X017027Y018174D01*
X016941Y018187D01*
X016854Y018196D01*
X016767Y018202D01*
X016680Y018204D01*
X002180Y018204D01*
X001448Y016306D02*
X001450Y016356D01*
X001456Y016406D01*
X001466Y016455D01*
X001480Y016503D01*
X001497Y016550D01*
X001518Y016595D01*
X001543Y016639D01*
X001571Y016680D01*
X001603Y016719D01*
X001637Y016756D01*
X001674Y016790D01*
X001714Y016820D01*
X001756Y016847D01*
X001800Y016871D01*
X001846Y016892D01*
X001893Y016908D01*
X001941Y016921D01*
X001991Y016930D01*
X002040Y016935D01*
X002091Y016936D01*
X002141Y016933D01*
X002190Y016926D01*
X002239Y016915D01*
X002287Y016900D01*
X002333Y016882D01*
X002378Y016860D01*
X002421Y016834D01*
X002462Y016805D01*
X002501Y016773D01*
X002537Y016738D01*
X002569Y016700D01*
X002599Y016660D01*
X002626Y016617D01*
X002649Y016573D01*
X002668Y016527D01*
X002684Y016479D01*
X002696Y016430D01*
X002704Y016381D01*
X002708Y016331D01*
X002708Y016281D01*
X002704Y016231D01*
X002696Y016182D01*
X002684Y016133D01*
X002668Y016085D01*
X002649Y016039D01*
X002626Y015995D01*
X002599Y015952D01*
X002569Y015912D01*
X002537Y015874D01*
X002501Y015839D01*
X002462Y015807D01*
X002421Y015778D01*
X002378Y015752D01*
X002333Y015730D01*
X002287Y015712D01*
X002239Y015697D01*
X002190Y015686D01*
X002141Y015679D01*
X002091Y015676D01*
X002040Y015677D01*
X001991Y015682D01*
X001941Y015691D01*
X001893Y015704D01*
X001846Y015720D01*
X001800Y015741D01*
X001756Y015765D01*
X001714Y015792D01*
X001674Y015822D01*
X001637Y015856D01*
X001603Y015893D01*
X001571Y015932D01*
X001543Y015973D01*
X001518Y016017D01*
X001497Y016062D01*
X001480Y016109D01*
X001466Y016157D01*
X001456Y016206D01*
X001450Y016256D01*
X001448Y016306D01*
X000180Y016204D02*
X000182Y016291D01*
X000188Y016378D01*
X000197Y016465D01*
X000210Y016551D01*
X000227Y016637D01*
X000248Y016722D01*
X000273Y016805D01*
X000301Y016888D01*
X000332Y016969D01*
X000367Y017049D01*
X000406Y017127D01*
X000448Y017204D01*
X000493Y017279D01*
X000542Y017351D01*
X000593Y017422D01*
X000648Y017490D01*
X000705Y017555D01*
X000766Y017618D01*
X000829Y017679D01*
X000894Y017736D01*
X000962Y017791D01*
X001033Y017842D01*
X001105Y017891D01*
X001180Y017936D01*
X001257Y017978D01*
X001335Y018017D01*
X001415Y018052D01*
X001496Y018083D01*
X001579Y018111D01*
X001662Y018136D01*
X001747Y018157D01*
X001833Y018174D01*
X001919Y018187D01*
X002006Y018196D01*
X002093Y018202D01*
X002180Y018204D01*
X003790Y017204D02*
X003792Y017254D01*
X003798Y017304D01*
X003808Y017353D01*
X003821Y017402D01*
X003839Y017449D01*
X003860Y017495D01*
X003884Y017538D01*
X003912Y017580D01*
X003943Y017620D01*
X003977Y017657D01*
X004014Y017691D01*
X004054Y017722D01*
X004096Y017750D01*
X004139Y017774D01*
X004185Y017795D01*
X004232Y017813D01*
X004281Y017826D01*
X004330Y017836D01*
X004380Y017842D01*
X004430Y017844D01*
X004480Y017842D01*
X004530Y017836D01*
X004579Y017826D01*
X004628Y017813D01*
X004675Y017795D01*
X004721Y017774D01*
X004764Y017750D01*
X004806Y017722D01*
X004846Y017691D01*
X004883Y017657D01*
X004917Y017620D01*
X004948Y017580D01*
X004976Y017538D01*
X005000Y017495D01*
X005021Y017449D01*
X005039Y017402D01*
X005052Y017353D01*
X005062Y017304D01*
X005068Y017254D01*
X005070Y017204D01*
X005068Y017154D01*
X005062Y017104D01*
X005052Y017055D01*
X005039Y017006D01*
X005021Y016959D01*
X005000Y016913D01*
X004976Y016870D01*
X004948Y016828D01*
X004917Y016788D01*
X004883Y016751D01*
X004846Y016717D01*
X004806Y016686D01*
X004764Y016658D01*
X004721Y016634D01*
X004675Y016613D01*
X004628Y016595D01*
X004579Y016582D01*
X004530Y016572D01*
X004480Y016566D01*
X004430Y016564D01*
X004380Y016566D01*
X004330Y016572D01*
X004281Y016582D01*
X004232Y016595D01*
X004185Y016613D01*
X004139Y016634D01*
X004096Y016658D01*
X004054Y016686D01*
X004014Y016717D01*
X003977Y016751D01*
X003943Y016788D01*
X003912Y016828D01*
X003884Y016870D01*
X003860Y016913D01*
X003839Y016959D01*
X003821Y017006D01*
X003808Y017055D01*
X003798Y017104D01*
X003792Y017154D01*
X003790Y017204D01*
X000180Y016204D02*
X000180Y004204D01*
X001448Y004101D02*
X001450Y004151D01*
X001456Y004201D01*
X001466Y004250D01*
X001480Y004298D01*
X001497Y004345D01*
X001518Y004390D01*
X001543Y004434D01*
X001571Y004475D01*
X001603Y004514D01*
X001637Y004551D01*
X001674Y004585D01*
X001714Y004615D01*
X001756Y004642D01*
X001800Y004666D01*
X001846Y004687D01*
X001893Y004703D01*
X001941Y004716D01*
X001991Y004725D01*
X002040Y004730D01*
X002091Y004731D01*
X002141Y004728D01*
X002190Y004721D01*
X002239Y004710D01*
X002287Y004695D01*
X002333Y004677D01*
X002378Y004655D01*
X002421Y004629D01*
X002462Y004600D01*
X002501Y004568D01*
X002537Y004533D01*
X002569Y004495D01*
X002599Y004455D01*
X002626Y004412D01*
X002649Y004368D01*
X002668Y004322D01*
X002684Y004274D01*
X002696Y004225D01*
X002704Y004176D01*
X002708Y004126D01*
X002708Y004076D01*
X002704Y004026D01*
X002696Y003977D01*
X002684Y003928D01*
X002668Y003880D01*
X002649Y003834D01*
X002626Y003790D01*
X002599Y003747D01*
X002569Y003707D01*
X002537Y003669D01*
X002501Y003634D01*
X002462Y003602D01*
X002421Y003573D01*
X002378Y003547D01*
X002333Y003525D01*
X002287Y003507D01*
X002239Y003492D01*
X002190Y003481D01*
X002141Y003474D01*
X002091Y003471D01*
X002040Y003472D01*
X001991Y003477D01*
X001941Y003486D01*
X001893Y003499D01*
X001846Y003515D01*
X001800Y003536D01*
X001756Y003560D01*
X001714Y003587D01*
X001674Y003617D01*
X001637Y003651D01*
X001603Y003688D01*
X001571Y003727D01*
X001543Y003768D01*
X001518Y003812D01*
X001497Y003857D01*
X001480Y003904D01*
X001466Y003952D01*
X001456Y004001D01*
X001450Y004051D01*
X001448Y004101D01*
X000180Y004204D02*
X000182Y004117D01*
X000188Y004030D01*
X000197Y003943D01*
X000210Y003857D01*
X000227Y003771D01*
X000248Y003686D01*
X000273Y003603D01*
X000301Y003520D01*
X000332Y003439D01*
X000367Y003359D01*
X000406Y003281D01*
X000448Y003204D01*
X000493Y003129D01*
X000542Y003057D01*
X000593Y002986D01*
X000648Y002918D01*
X000705Y002853D01*
X000766Y002790D01*
X000829Y002729D01*
X000894Y002672D01*
X000962Y002617D01*
X001033Y002566D01*
X001105Y002517D01*
X001180Y002472D01*
X001257Y002430D01*
X001335Y002391D01*
X001415Y002356D01*
X001496Y002325D01*
X001579Y002297D01*
X001662Y002272D01*
X001747Y002251D01*
X001833Y002234D01*
X001919Y002221D01*
X002006Y002212D01*
X002093Y002206D01*
X002180Y002204D01*
X003790Y003204D02*
X003792Y003254D01*
X003798Y003304D01*
X003808Y003353D01*
X003821Y003402D01*
X003839Y003449D01*
X003860Y003495D01*
X003884Y003538D01*
X003912Y003580D01*
X003943Y003620D01*
X003977Y003657D01*
X004014Y003691D01*
X004054Y003722D01*
X004096Y003750D01*
X004139Y003774D01*
X004185Y003795D01*
X004232Y003813D01*
X004281Y003826D01*
X004330Y003836D01*
X004380Y003842D01*
X004430Y003844D01*
X004480Y003842D01*
X004530Y003836D01*
X004579Y003826D01*
X004628Y003813D01*
X004675Y003795D01*
X004721Y003774D01*
X004764Y003750D01*
X004806Y003722D01*
X004846Y003691D01*
X004883Y003657D01*
X004917Y003620D01*
X004948Y003580D01*
X004976Y003538D01*
X005000Y003495D01*
X005021Y003449D01*
X005039Y003402D01*
X005052Y003353D01*
X005062Y003304D01*
X005068Y003254D01*
X005070Y003204D01*
X005068Y003154D01*
X005062Y003104D01*
X005052Y003055D01*
X005039Y003006D01*
X005021Y002959D01*
X005000Y002913D01*
X004976Y002870D01*
X004948Y002828D01*
X004917Y002788D01*
X004883Y002751D01*
X004846Y002717D01*
X004806Y002686D01*
X004764Y002658D01*
X004721Y002634D01*
X004675Y002613D01*
X004628Y002595D01*
X004579Y002582D01*
X004530Y002572D01*
X004480Y002566D01*
X004430Y002564D01*
X004380Y002566D01*
X004330Y002572D01*
X004281Y002582D01*
X004232Y002595D01*
X004185Y002613D01*
X004139Y002634D01*
X004096Y002658D01*
X004054Y002686D01*
X004014Y002717D01*
X003977Y002751D01*
X003943Y002788D01*
X003912Y002828D01*
X003884Y002870D01*
X003860Y002913D01*
X003839Y002959D01*
X003821Y003006D01*
X003808Y003055D01*
X003798Y003104D01*
X003792Y003154D01*
X003790Y003204D01*
X008290Y003204D02*
X008292Y003254D01*
X008298Y003304D01*
X008308Y003353D01*
X008321Y003402D01*
X008339Y003449D01*
X008360Y003495D01*
X008384Y003538D01*
X008412Y003580D01*
X008443Y003620D01*
X008477Y003657D01*
X008514Y003691D01*
X008554Y003722D01*
X008596Y003750D01*
X008639Y003774D01*
X008685Y003795D01*
X008732Y003813D01*
X008781Y003826D01*
X008830Y003836D01*
X008880Y003842D01*
X008930Y003844D01*
X008980Y003842D01*
X009030Y003836D01*
X009079Y003826D01*
X009128Y003813D01*
X009175Y003795D01*
X009221Y003774D01*
X009264Y003750D01*
X009306Y003722D01*
X009346Y003691D01*
X009383Y003657D01*
X009417Y003620D01*
X009448Y003580D01*
X009476Y003538D01*
X009500Y003495D01*
X009521Y003449D01*
X009539Y003402D01*
X009552Y003353D01*
X009562Y003304D01*
X009568Y003254D01*
X009570Y003204D01*
X009568Y003154D01*
X009562Y003104D01*
X009552Y003055D01*
X009539Y003006D01*
X009521Y002959D01*
X009500Y002913D01*
X009476Y002870D01*
X009448Y002828D01*
X009417Y002788D01*
X009383Y002751D01*
X009346Y002717D01*
X009306Y002686D01*
X009264Y002658D01*
X009221Y002634D01*
X009175Y002613D01*
X009128Y002595D01*
X009079Y002582D01*
X009030Y002572D01*
X008980Y002566D01*
X008930Y002564D01*
X008880Y002566D01*
X008830Y002572D01*
X008781Y002582D01*
X008732Y002595D01*
X008685Y002613D01*
X008639Y002634D01*
X008596Y002658D01*
X008554Y002686D01*
X008514Y002717D01*
X008477Y002751D01*
X008443Y002788D01*
X008412Y002828D01*
X008384Y002870D01*
X008360Y002913D01*
X008339Y002959D01*
X008321Y003006D01*
X008308Y003055D01*
X008298Y003104D01*
X008292Y003154D01*
X008290Y003204D01*
X013652Y004101D02*
X013654Y004151D01*
X013660Y004201D01*
X013670Y004250D01*
X013684Y004298D01*
X013701Y004345D01*
X013722Y004390D01*
X013747Y004434D01*
X013775Y004475D01*
X013807Y004514D01*
X013841Y004551D01*
X013878Y004585D01*
X013918Y004615D01*
X013960Y004642D01*
X014004Y004666D01*
X014050Y004687D01*
X014097Y004703D01*
X014145Y004716D01*
X014195Y004725D01*
X014244Y004730D01*
X014295Y004731D01*
X014345Y004728D01*
X014394Y004721D01*
X014443Y004710D01*
X014491Y004695D01*
X014537Y004677D01*
X014582Y004655D01*
X014625Y004629D01*
X014666Y004600D01*
X014705Y004568D01*
X014741Y004533D01*
X014773Y004495D01*
X014803Y004455D01*
X014830Y004412D01*
X014853Y004368D01*
X014872Y004322D01*
X014888Y004274D01*
X014900Y004225D01*
X014908Y004176D01*
X014912Y004126D01*
X014912Y004076D01*
X014908Y004026D01*
X014900Y003977D01*
X014888Y003928D01*
X014872Y003880D01*
X014853Y003834D01*
X014830Y003790D01*
X014803Y003747D01*
X014773Y003707D01*
X014741Y003669D01*
X014705Y003634D01*
X014666Y003602D01*
X014625Y003573D01*
X014582Y003547D01*
X014537Y003525D01*
X014491Y003507D01*
X014443Y003492D01*
X014394Y003481D01*
X014345Y003474D01*
X014295Y003471D01*
X014244Y003472D01*
X014195Y003477D01*
X014145Y003486D01*
X014097Y003499D01*
X014050Y003515D01*
X014004Y003536D01*
X013960Y003560D01*
X013918Y003587D01*
X013878Y003617D01*
X013841Y003651D01*
X013807Y003688D01*
X013775Y003727D01*
X013747Y003768D01*
X013722Y003812D01*
X013701Y003857D01*
X013684Y003904D01*
X013670Y003952D01*
X013660Y004001D01*
X013654Y004051D01*
X013652Y004101D01*
X013652Y016306D02*
X013654Y016356D01*
X013660Y016406D01*
X013670Y016455D01*
X013684Y016503D01*
X013701Y016550D01*
X013722Y016595D01*
X013747Y016639D01*
X013775Y016680D01*
X013807Y016719D01*
X013841Y016756D01*
X013878Y016790D01*
X013918Y016820D01*
X013960Y016847D01*
X014004Y016871D01*
X014050Y016892D01*
X014097Y016908D01*
X014145Y016921D01*
X014195Y016930D01*
X014244Y016935D01*
X014295Y016936D01*
X014345Y016933D01*
X014394Y016926D01*
X014443Y016915D01*
X014491Y016900D01*
X014537Y016882D01*
X014582Y016860D01*
X014625Y016834D01*
X014666Y016805D01*
X014705Y016773D01*
X014741Y016738D01*
X014773Y016700D01*
X014803Y016660D01*
X014830Y016617D01*
X014853Y016573D01*
X014872Y016527D01*
X014888Y016479D01*
X014900Y016430D01*
X014908Y016381D01*
X014912Y016331D01*
X014912Y016281D01*
X014908Y016231D01*
X014900Y016182D01*
X014888Y016133D01*
X014872Y016085D01*
X014853Y016039D01*
X014830Y015995D01*
X014803Y015952D01*
X014773Y015912D01*
X014741Y015874D01*
X014705Y015839D01*
X014666Y015807D01*
X014625Y015778D01*
X014582Y015752D01*
X014537Y015730D01*
X014491Y015712D01*
X014443Y015697D01*
X014394Y015686D01*
X014345Y015679D01*
X014295Y015676D01*
X014244Y015677D01*
X014195Y015682D01*
X014145Y015691D01*
X014097Y015704D01*
X014050Y015720D01*
X014004Y015741D01*
X013960Y015765D01*
X013918Y015792D01*
X013878Y015822D01*
X013841Y015856D01*
X013807Y015893D01*
X013775Y015932D01*
X013747Y015973D01*
X013722Y016017D01*
X013701Y016062D01*
X013684Y016109D01*
X013670Y016157D01*
X013660Y016206D01*
X013654Y016256D01*
X013652Y016306D01*
X008290Y017204D02*
X008292Y017254D01*
X008298Y017304D01*
X008308Y017353D01*
X008321Y017402D01*
X008339Y017449D01*
X008360Y017495D01*
X008384Y017538D01*
X008412Y017580D01*
X008443Y017620D01*
X008477Y017657D01*
X008514Y017691D01*
X008554Y017722D01*
X008596Y017750D01*
X008639Y017774D01*
X008685Y017795D01*
X008732Y017813D01*
X008781Y017826D01*
X008830Y017836D01*
X008880Y017842D01*
X008930Y017844D01*
X008980Y017842D01*
X009030Y017836D01*
X009079Y017826D01*
X009128Y017813D01*
X009175Y017795D01*
X009221Y017774D01*
X009264Y017750D01*
X009306Y017722D01*
X009346Y017691D01*
X009383Y017657D01*
X009417Y017620D01*
X009448Y017580D01*
X009476Y017538D01*
X009500Y017495D01*
X009521Y017449D01*
X009539Y017402D01*
X009552Y017353D01*
X009562Y017304D01*
X009568Y017254D01*
X009570Y017204D01*
X009568Y017154D01*
X009562Y017104D01*
X009552Y017055D01*
X009539Y017006D01*
X009521Y016959D01*
X009500Y016913D01*
X009476Y016870D01*
X009448Y016828D01*
X009417Y016788D01*
X009383Y016751D01*
X009346Y016717D01*
X009306Y016686D01*
X009264Y016658D01*
X009221Y016634D01*
X009175Y016613D01*
X009128Y016595D01*
X009079Y016582D01*
X009030Y016572D01*
X008980Y016566D01*
X008930Y016564D01*
X008880Y016566D01*
X008830Y016572D01*
X008781Y016582D01*
X008732Y016595D01*
X008685Y016613D01*
X008639Y016634D01*
X008596Y016658D01*
X008554Y016686D01*
X008514Y016717D01*
X008477Y016751D01*
X008443Y016788D01*
X008412Y016828D01*
X008384Y016870D01*
X008360Y016913D01*
X008339Y016959D01*
X008321Y017006D01*
X008308Y017055D01*
X008298Y017104D01*
X008292Y017154D01*
X008290Y017204D01*
M02*
