G75*
%MOIN*%
%OFA0B0*%
%FSLAX24Y24*%
%IPPOS*%
%LPD*%
%AMOC8*
5,1,8,0,0,1.08239X$1,22.5*
%
%ADD10C,0.0634*%
%ADD11C,0.1360*%
%ADD12C,0.0680*%
%ADD13R,0.0470X0.0200*%
%ADD14R,0.0631X0.0474*%
%ADD15R,0.0474X0.0513*%
%ADD16R,0.0513X0.0474*%
%ADD17R,0.0870X0.0670*%
%ADD18R,0.0870X0.1580*%
%ADD19R,0.0316X0.0946*%
%ADD20R,0.0395X0.0395*%
%ADD21R,0.1143X0.0710*%
%ADD22R,0.1419X0.0828*%
%ADD23C,0.1340*%
D10*
X004930Y005704D03*
X005930Y005704D03*
X006930Y005704D03*
X007930Y005704D03*
X007430Y006704D03*
X006430Y006704D03*
X005430Y006704D03*
X008430Y006704D03*
X011680Y006704D03*
X011680Y007704D03*
X011680Y008704D03*
X011680Y009704D03*
X011680Y010704D03*
X011680Y011704D03*
X011680Y012704D03*
X011680Y013704D03*
X008430Y014704D03*
X007430Y014704D03*
X006430Y014704D03*
X005430Y014704D03*
X004930Y013704D03*
X005930Y013704D03*
X006930Y013704D03*
X007930Y013704D03*
X016680Y013704D03*
X016680Y012704D03*
X016680Y011704D03*
X016680Y010704D03*
X016680Y009704D03*
X016680Y008704D03*
X016680Y007704D03*
X016680Y006704D03*
D11*
X008930Y003204D03*
X004430Y003204D03*
X004430Y017204D03*
X008930Y017204D03*
D12*
X010290Y017184D02*
X010290Y017784D01*
X012070Y017784D02*
X012070Y017184D01*
X012070Y015224D02*
X012070Y014624D01*
X013630Y013704D02*
X014230Y013704D01*
X014230Y012704D02*
X013630Y012704D01*
X013630Y011704D02*
X014230Y011704D01*
X014230Y010704D02*
X013630Y010704D01*
X013630Y009704D02*
X014230Y009704D01*
X014230Y008704D02*
X013630Y008704D01*
X013630Y007704D02*
X014230Y007704D01*
X014230Y006704D02*
X013630Y006704D01*
X012070Y005784D02*
X012070Y005184D01*
X010290Y005184D02*
X010290Y005784D01*
X010290Y003224D02*
X010290Y002624D01*
X012070Y002624D02*
X012070Y003224D01*
X017380Y003704D02*
X017980Y003704D01*
X017980Y004704D02*
X017380Y004704D01*
X017380Y005704D02*
X017980Y005704D01*
X017980Y006704D02*
X017380Y006704D01*
X017380Y008704D02*
X017980Y008704D01*
X017980Y009704D02*
X017380Y009704D01*
X017380Y010704D02*
X017980Y010704D01*
X017980Y011704D02*
X017380Y011704D01*
X017380Y013704D02*
X017980Y013704D01*
X017980Y014704D02*
X017380Y014704D01*
X017380Y015704D02*
X017980Y015704D01*
X017980Y016704D02*
X017380Y016704D01*
X010290Y015224D02*
X010290Y014624D01*
D13*
X010329Y011855D03*
X010329Y011599D03*
X010329Y011344D03*
X010329Y011088D03*
X010329Y010832D03*
X010329Y010576D03*
X010329Y010320D03*
X010329Y010064D03*
X010329Y009808D03*
X010329Y009552D03*
X008031Y009552D03*
X008031Y009808D03*
X008031Y010064D03*
X008031Y010320D03*
X008031Y010576D03*
X008031Y010832D03*
X008031Y011088D03*
X008031Y011344D03*
X008031Y011599D03*
X008031Y011855D03*
D14*
X002613Y012330D03*
X002613Y013078D03*
X001747Y012704D03*
D15*
X004095Y012204D03*
X004765Y012204D03*
X010095Y006704D03*
X010765Y006704D03*
D16*
X009930Y007869D03*
X009930Y008538D03*
X008180Y008538D03*
X008180Y007869D03*
X006180Y007869D03*
X006180Y008538D03*
X003015Y007204D03*
X002345Y007204D03*
X002345Y011204D03*
X003015Y011204D03*
X002515Y014204D03*
X001845Y014204D03*
X012930Y014538D03*
X012930Y013869D03*
X015680Y007688D03*
X015680Y007019D03*
X016680Y005788D03*
X016680Y005119D03*
X016680Y003788D03*
X016680Y003119D03*
D17*
X003920Y008314D03*
X003920Y009214D03*
X003920Y010114D03*
D18*
X001440Y009204D03*
D19*
X005430Y010180D03*
X005930Y010180D03*
X006430Y010180D03*
X006930Y010180D03*
X006930Y012227D03*
X006430Y012227D03*
X005930Y012227D03*
X005430Y012227D03*
D20*
X005180Y008499D03*
X005180Y007909D03*
X007180Y007909D03*
X007180Y008499D03*
X009180Y008499D03*
X009180Y007909D03*
D21*
X015430Y012653D03*
X015430Y013755D03*
D22*
X015430Y010971D03*
X015430Y009436D03*
D23*
X002078Y004101D03*
X002078Y016306D03*
X014282Y016306D03*
X014282Y004101D03*
M02*
