G04 This is an RS-274x file exported by *
G04 gerbv version 2.6.1 *
G04 More information is available about gerbv at *
G04 http://gerbv.geda-project.org/ *
G04 --End of header info--*
%MOIN*%
%FSLAX34Y34*%
%IPPOS*%
G04 --Define apertures--*
%ADD10C,0.0059*%
%ADD11C,0.0148*%
%ADD12C,0.0079*%
%ADD13C,0.0050*%
%ADD14C,0.0060*%
%ADD15C,0.0120*%
%ADD16C,0.0150*%
%ADD17C,0.0080*%
%ADD18C,0.0098*%
%ADD19C,0.0074*%
%ADD20C,0.0118*%
%ADD21C,0.0047*%
%ADD22C,0.0059*%
G04 --Start main section--*
G54D11*
G01X0000960Y-008255D02*
G01X0000989Y-008171D01*
G01X0000989Y-008171D02*
G01X0000989Y-008030D01*
G01X0000989Y-008030D02*
G01X0000960Y-007974D01*
G01X0000960Y-007974D02*
G01X0000932Y-007946D01*
G01X0000932Y-007946D02*
G01X0000876Y-007918D01*
G01X0000876Y-007918D02*
G01X0000820Y-007918D01*
G01X0000820Y-007918D02*
G01X0000764Y-007946D01*
G01X0000764Y-007946D02*
G01X0000735Y-007974D01*
G01X0000735Y-007974D02*
G01X0000707Y-008030D01*
G01X0000707Y-008030D02*
G01X0000679Y-008143D01*
G01X0000679Y-008143D02*
G01X0000651Y-008199D01*
G01X0000651Y-008199D02*
G01X0000623Y-008227D01*
G01X0000623Y-008227D02*
G01X0000567Y-008255D01*
G01X0000567Y-008255D02*
G01X0000510Y-008255D01*
G01X0000510Y-008255D02*
G01X0000454Y-008227D01*
G01X0000454Y-008227D02*
G01X0000426Y-008199D01*
G01X0000426Y-008199D02*
G01X0000398Y-008143D01*
G01X0000398Y-008143D02*
G01X0000398Y-008002D01*
G01X0000398Y-008002D02*
G01X0000426Y-007918D01*
G01X0000960Y-007693D02*
G01X0000989Y-007609D01*
G01X0000989Y-007609D02*
G01X0000989Y-007468D01*
G01X0000989Y-007468D02*
G01X0000960Y-007412D01*
G01X0000960Y-007412D02*
G01X0000932Y-007384D01*
G01X0000932Y-007384D02*
G01X0000876Y-007356D01*
G01X0000876Y-007356D02*
G01X0000820Y-007356D01*
G01X0000820Y-007356D02*
G01X0000764Y-007384D01*
G01X0000764Y-007384D02*
G01X0000735Y-007412D01*
G01X0000735Y-007412D02*
G01X0000707Y-007468D01*
G01X0000707Y-007468D02*
G01X0000679Y-007580D01*
G01X0000679Y-007580D02*
G01X0000651Y-007637D01*
G01X0000651Y-007637D02*
G01X0000623Y-007665D01*
G01X0000623Y-007665D02*
G01X0000567Y-007693D01*
G01X0000567Y-007693D02*
G01X0000510Y-007693D01*
G01X0000510Y-007693D02*
G01X0000454Y-007665D01*
G01X0000454Y-007665D02*
G01X0000426Y-007637D01*
G01X0000426Y-007637D02*
G01X0000398Y-007580D01*
G01X0000398Y-007580D02*
G01X0000398Y-007440D01*
G01X0000398Y-007440D02*
G01X0000426Y-007356D01*
G01X0000960Y-007131D02*
G01X0000989Y-007046D01*
G01X0000989Y-007046D02*
G01X0000989Y-006906D01*
G01X0000989Y-006906D02*
G01X0000960Y-006849D01*
G01X0000960Y-006849D02*
G01X0000932Y-006821D01*
G01X0000932Y-006821D02*
G01X0000876Y-006793D01*
G01X0000876Y-006793D02*
G01X0000820Y-006793D01*
G01X0000820Y-006793D02*
G01X0000764Y-006821D01*
G01X0000764Y-006821D02*
G01X0000735Y-006849D01*
G01X0000735Y-006849D02*
G01X0000707Y-006906D01*
G01X0000707Y-006906D02*
G01X0000679Y-007018D01*
G01X0000679Y-007018D02*
G01X0000651Y-007074D01*
G01X0000651Y-007074D02*
G01X0000623Y-007102D01*
G01X0000623Y-007102D02*
G01X0000567Y-007131D01*
G01X0000567Y-007131D02*
G01X0000510Y-007131D01*
G01X0000510Y-007131D02*
G01X0000454Y-007102D01*
G01X0000454Y-007102D02*
G01X0000426Y-007074D01*
G01X0000426Y-007074D02*
G01X0000398Y-007018D01*
G01X0000398Y-007018D02*
G01X0000398Y-006877D01*
G01X0000398Y-006877D02*
G01X0000426Y-006793D01*
G01X0000398Y-006596D02*
G01X0000398Y-006203D01*
G01X0000398Y-006203D02*
G01X0000989Y-006456D01*
G01X0000989Y-005528D02*
G01X0000398Y-005528D01*
G01X0000398Y-005528D02*
G01X0000820Y-005331D01*
G01X0000820Y-005331D02*
G01X0000398Y-005134D01*
G01X0000398Y-005134D02*
G01X0000989Y-005134D01*
G01X0000989Y-004768D02*
G01X0000960Y-004825D01*
G01X0000960Y-004825D02*
G01X0000932Y-004853D01*
G01X0000932Y-004853D02*
G01X0000876Y-004881D01*
G01X0000876Y-004881D02*
G01X0000707Y-004881D01*
G01X0000707Y-004881D02*
G01X0000651Y-004853D01*
G01X0000651Y-004853D02*
G01X0000623Y-004825D01*
G01X0000623Y-004825D02*
G01X0000595Y-004768D01*
G01X0000595Y-004768D02*
G01X0000595Y-004684D01*
G01X0000595Y-004684D02*
G01X0000623Y-004628D01*
G01X0000623Y-004628D02*
G01X0000651Y-004600D01*
G01X0000651Y-004600D02*
G01X0000707Y-004571D01*
G01X0000707Y-004571D02*
G01X0000876Y-004571D01*
G01X0000876Y-004571D02*
G01X0000932Y-004600D01*
G01X0000932Y-004600D02*
G01X0000960Y-004628D01*
G01X0000960Y-004628D02*
G01X0000989Y-004684D01*
G01X0000989Y-004684D02*
G01X0000989Y-004768D01*
G01X0000989Y-004065D02*
G01X0000398Y-004065D01*
G01X0000960Y-004065D02*
G01X0000989Y-004122D01*
G01X0000989Y-004122D02*
G01X0000989Y-004234D01*
G01X0000989Y-004234D02*
G01X0000960Y-004290D01*
G01X0000960Y-004290D02*
G01X0000932Y-004318D01*
G01X0000932Y-004318D02*
G01X0000876Y-004347D01*
G01X0000876Y-004347D02*
G01X0000707Y-004347D01*
G01X0000707Y-004347D02*
G01X0000651Y-004318D01*
G01X0000651Y-004318D02*
G01X0000623Y-004290D01*
G01X0000623Y-004290D02*
G01X0000595Y-004234D01*
G01X0000595Y-004234D02*
G01X0000595Y-004122D01*
G01X0000595Y-004122D02*
G01X0000623Y-004065D01*
G01X0000960Y-003559D02*
G01X0000989Y-003615D01*
G01X0000989Y-003615D02*
G01X0000989Y-003728D01*
G01X0000989Y-003728D02*
G01X0000960Y-003784D01*
G01X0000960Y-003784D02*
G01X0000904Y-003812D01*
G01X0000904Y-003812D02*
G01X0000679Y-003812D01*
G01X0000679Y-003812D02*
G01X0000623Y-003784D01*
G01X0000623Y-003784D02*
G01X0000595Y-003728D01*
G01X0000595Y-003728D02*
G01X0000595Y-003615D01*
G01X0000595Y-003615D02*
G01X0000623Y-003559D01*
G01X0000623Y-003559D02*
G01X0000679Y-003531D01*
G01X0000679Y-003531D02*
G01X0000735Y-003531D01*
G01X0000735Y-003531D02*
G01X0000792Y-003812D01*
G01X0000989Y-003278D02*
G01X0000595Y-003278D01*
G01X0000651Y-003278D02*
G01X0000623Y-003250D01*
G01X0000623Y-003250D02*
G01X0000595Y-003194D01*
G01X0000595Y-003194D02*
G01X0000595Y-003109D01*
G01X0000595Y-003109D02*
G01X0000623Y-003053D01*
G01X0000623Y-003053D02*
G01X0000679Y-003025D01*
G01X0000679Y-003025D02*
G01X0000989Y-003025D01*
G01X0000679Y-003025D02*
G01X0000623Y-002997D01*
G01X0000623Y-002997D02*
G01X0000595Y-002940D01*
G01X0000595Y-002940D02*
G01X0000595Y-002856D01*
G01X0000595Y-002856D02*
G01X0000623Y-002800D01*
G01X0000623Y-002800D02*
G01X0000679Y-002772D01*
G01X0000679Y-002772D02*
G01X0000989Y-002772D01*
G54D12*
G01X0012000Y-009250D02*
G01X0013250Y-009250D01*
G01X0009750Y-009250D02*
G01X0010500Y-009250D01*
G01X0007250Y-009250D02*
G01X0007750Y-009250D01*
G01X0000250Y-009250D02*
G01X0005000Y-009250D01*
G54D13*
G01X0005450Y-006700D02*
G01X0005450Y-006750D01*
G01X0005450Y-006750D02*
G01X0007550Y-006750D01*
G01X0007550Y-005250D02*
G01X0005450Y-005250D01*
G01X0005450Y-005250D02*
G01X0005450Y-006700D01*
G01X0005450Y-005800D02*
G01X0005650Y-005800D01*
G01X0005650Y-005800D02*
G01X0005650Y-006200D01*
G01X0005650Y-006200D02*
G01X0005450Y-006200D01*
G01X0007550Y-005250D02*
G01X0007550Y-006750D01*
G01X0005200Y-006000D02*
G01X0004300Y-006000D01*
G01X0004300Y-006000D02*
G01X0004300Y-005500D01*
G01X0004300Y-005500D02*
G01X0005200Y-005500D01*
G01X0005200Y-005500D02*
G01X0005200Y-006000D01*
G01X0001300Y-010500D02*
G01X0002200Y-010500D01*
G01X0002200Y-010500D02*
G01X0002200Y-011000D01*
G01X0002200Y-011000D02*
G01X0001300Y-011000D01*
G01X0001300Y-011000D02*
G01X0001300Y-010500D01*
G01X0002550Y-011250D02*
G01X0003450Y-011250D01*
G01X0003450Y-011250D02*
G01X0003450Y-011750D01*
G01X0003450Y-011750D02*
G01X0002550Y-011750D01*
G01X0002550Y-011750D02*
G01X0002550Y-011250D01*
G01X0002550Y-010500D02*
G01X0003450Y-010500D01*
G01X0003450Y-010500D02*
G01X0003450Y-011000D01*
G01X0003450Y-011000D02*
G01X0002550Y-011000D01*
G01X0002550Y-011000D02*
G01X0002550Y-010500D01*
G01X0001500Y-005200D02*
G01X0001500Y-004300D01*
G01X0001500Y-004300D02*
G01X0002000Y-004300D01*
G01X0002000Y-004300D02*
G01X0002000Y-005200D01*
G01X0002000Y-005200D02*
G01X0001500Y-005200D01*
G01X0009550Y-011000D02*
G01X0010450Y-011000D01*
G01X0010450Y-011000D02*
G01X0010450Y-011500D01*
G01X0010450Y-011500D02*
G01X0009550Y-011500D01*
G01X0009550Y-011500D02*
G01X0009550Y-011000D01*
G01X0001300Y-009750D02*
G01X0002200Y-009750D01*
G01X0002200Y-009750D02*
G01X0002200Y-010250D01*
G01X0002200Y-010250D02*
G01X0001300Y-010250D01*
G01X0001300Y-010250D02*
G01X0001300Y-009750D01*
G01X0002550Y-009750D02*
G01X0003450Y-009750D01*
G01X0003450Y-009750D02*
G01X0003450Y-010250D01*
G01X0003450Y-010250D02*
G01X0002550Y-010250D01*
G01X0002550Y-010250D02*
G01X0002550Y-009750D01*
G54D14*
G01X0003250Y-005500D02*
G01X0003250Y-006500D01*
G01X0003250Y-006500D02*
G01X0001250Y-006500D01*
G01X0001250Y-006500D02*
G01X0001250Y-005500D01*
G01X0001250Y-005500D02*
G01X0003250Y-005500D01*
G54D13*
G01X0009850Y-012700D02*
G01X0009850Y-013300D01*
G01X0009900Y-013450D02*
G01X0009900Y-012550D01*
G01X0009950Y-012450D02*
G01X0009950Y-013550D01*
G01X0010000Y-013650D02*
G01X0010000Y-012350D01*
G01X0010050Y-012300D02*
G01X0010050Y-013700D01*
G01X0012200Y-013000D02*
G75*
G03X0012200Y-013000I-001200J0000000D01*
G01X0009700Y-011700D02*
G01X0009700Y-014300D01*
G01X0009700Y-014300D02*
G01X0012000Y-014300D01*
G01X0012000Y-014300D02*
G01X0012300Y-014000D01*
G01X0012300Y-014000D02*
G01X0012300Y-012000D01*
G01X0012300Y-012000D02*
G01X0012000Y-011700D01*
G01X0012000Y-011700D02*
G01X0009700Y-011700D01*
G01X0011850Y-013000D02*
G01X0011550Y-013000D01*
G01X0011700Y-012850D02*
G01X0011700Y-013150D01*
G54D15*
G01X0002750Y-014500D02*
G01X0002750Y-017500D01*
G01X0010750Y-017500D02*
G01X0010750Y-014500D01*
G01X0010750Y-017000D02*
G01X0002750Y-017000D01*
G01X0002750Y-014500D02*
G01X0010750Y-014500D01*
G01X0002750Y-017500D02*
G01X0010750Y-017500D01*
G01X0009750Y0000000D02*
G01X0009750Y-003000D01*
G01X0003750Y0000000D02*
G01X0003750Y-003000D01*
G01X0009750Y-000500D02*
G01X0003750Y-000500D01*
G01X0009750Y-003000D02*
G01X0003750Y-003000D01*
G01X0009750Y0000000D02*
G01X0003750Y0000000D01*
G54D13*
G01X0001300Y-011250D02*
G01X0002200Y-011250D01*
G01X0002200Y-011250D02*
G01X0002200Y-011750D01*
G01X0002200Y-011750D02*
G01X0001300Y-011750D01*
G01X0001300Y-011750D02*
G01X0001300Y-011250D01*
G54D16*
G01X0012900Y-016000D02*
G75*
G03X0012900Y-016000I-000900J0000000D01*
G01X0002400Y-016000D02*
G75*
G03X0002400Y-016000I-000900J0000000D01*
G01X0012900Y-001500D02*
G75*
G03X0012900Y-001500I-000900J0000000D01*
G01X0002400Y-001500D02*
G75*
G03X0002400Y-001500I-000900J0000000D01*
G54D13*
G01X0009500Y-006300D02*
G01X0009500Y-007200D01*
G01X0009500Y-007200D02*
G01X0009000Y-007200D01*
G01X0009000Y-007200D02*
G01X0009000Y-006300D01*
G01X0009000Y-006300D02*
G01X0009500Y-006300D01*
G01X0004300Y-007750D02*
G01X0005200Y-007750D01*
G01X0005200Y-007750D02*
G01X0005200Y-008250D01*
G01X0005200Y-008250D02*
G01X0004300Y-008250D01*
G01X0004300Y-008250D02*
G01X0004300Y-007750D01*
G01X0010250Y-009800D02*
G01X0010250Y-010700D01*
G01X0010250Y-010700D02*
G01X0009750Y-010700D01*
G01X0009750Y-010700D02*
G01X0009750Y-009800D01*
G01X0009750Y-009800D02*
G01X0010250Y-009800D01*
G01X0004300Y-010250D02*
G01X0005200Y-010250D01*
G01X0005200Y-010250D02*
G01X0005200Y-010750D01*
G01X0005200Y-010750D02*
G01X0004300Y-010750D01*
G01X0004300Y-010750D02*
G01X0004300Y-010250D01*
G01X0012050Y-006500D02*
G01X0012950Y-006500D01*
G01X0012950Y-006500D02*
G01X0012950Y-007000D01*
G01X0012950Y-007000D02*
G01X0012050Y-007000D01*
G01X0012050Y-007000D02*
G01X0012050Y-006500D01*
G01X0003450Y-008250D02*
G01X0002550Y-008250D01*
G01X0002550Y-008250D02*
G01X0002550Y-007750D01*
G01X0002550Y-007750D02*
G01X0003450Y-007750D01*
G01X0003450Y-007750D02*
G01X0003450Y-008250D01*
G01X0002200Y-008250D02*
G01X0001300Y-008250D01*
G01X0001300Y-008250D02*
G01X0001300Y-007750D01*
G01X0001300Y-007750D02*
G01X0002200Y-007750D01*
G01X0002200Y-007750D02*
G01X0002200Y-008250D01*
G54D15*
G01X0010750Y-011250D02*
G01X0010750Y-011250D01*
G01X0011750Y-011250D02*
G01X0010750Y-011250D01*
G01X0010750Y-011250D02*
G01X0010750Y-011250D01*
G01X0010750Y-011250D02*
G01X0010750Y-007250D01*
G01X0010750Y-007250D02*
G01X0011750Y-007250D01*
G01X0011750Y-007250D02*
G01X0011750Y-011250D01*
G01X0011750Y-010250D02*
G01X0010750Y-010250D01*
G54D13*
G01X0011550Y-003600D02*
G01X0010950Y-003600D01*
G01X0010800Y-003650D02*
G01X0011700Y-003650D01*
G01X0011800Y-003700D02*
G01X0010700Y-003700D01*
G01X0010600Y-003750D02*
G01X0011900Y-003750D01*
G01X0011950Y-003800D02*
G01X0010550Y-003800D01*
G01X0012450Y-004750D02*
G75*
G03X0012450Y-004750I-001200J0000000D01*
G01X0012550Y-003450D02*
G01X0009950Y-003450D01*
G01X0009950Y-003450D02*
G01X0009950Y-005750D01*
G01X0009950Y-005750D02*
G01X0010250Y-006050D01*
G01X0010250Y-006050D02*
G01X0012250Y-006050D01*
G01X0012250Y-006050D02*
G01X0012550Y-005750D01*
G01X0012550Y-005750D02*
G01X0012550Y-003450D01*
G01X0011250Y-005600D02*
G01X0011250Y-005300D01*
G01X0011400Y-005450D02*
G01X0011100Y-005450D01*
G54D17*
G01X0004850Y-012050D02*
G01X0008650Y-012050D01*
G01X0008650Y-012050D02*
G01X0008650Y-013550D01*
G01X0008650Y-013550D02*
G01X0004850Y-013550D01*
G01X0004850Y-013550D02*
G01X0004850Y-012050D01*
G01X0004850Y-012550D02*
G01X0005150Y-012550D01*
G01X0005150Y-012550D02*
G01X0005150Y-012950D01*
G01X0005150Y-012950D02*
G01X0004850Y-012950D01*
G54D13*
G01X0008697Y-003974D02*
G01X0008697Y-004526D01*
G01X0008854Y-003974D02*
G01X0008146Y-003974D01*
G01X0008146Y-003974D02*
G01X0008146Y-004526D01*
G01X0008146Y-004526D02*
G01X0008854Y-004526D01*
G01X0008854Y-004526D02*
G01X0008854Y-003974D01*
G01X0008697Y-003224D02*
G01X0008697Y-003776D01*
G01X0008854Y-003224D02*
G01X0008146Y-003224D01*
G01X0008146Y-003224D02*
G01X0008146Y-003776D01*
G01X0008146Y-003776D02*
G01X0008854Y-003776D01*
G01X0008854Y-003776D02*
G01X0008854Y-003224D01*
G01X0004447Y-003974D02*
G01X0004447Y-004526D01*
G01X0004604Y-003974D02*
G01X0003896Y-003974D01*
G01X0003896Y-003974D02*
G01X0003896Y-004526D01*
G01X0003896Y-004526D02*
G01X0004604Y-004526D01*
G01X0004604Y-004526D02*
G01X0004604Y-003974D01*
G01X0004447Y-003224D02*
G01X0004447Y-003776D01*
G01X0004604Y-003224D02*
G01X0003896Y-003224D01*
G01X0003896Y-003224D02*
G01X0003896Y-003776D01*
G01X0003896Y-003776D02*
G01X0004604Y-003776D01*
G01X0004604Y-003776D02*
G01X0004604Y-003224D01*
G54D18*
G01X0005500Y-010000D02*
G01X0005500Y-008500D01*
G01X0005500Y-008500D02*
G01X0007000Y-008500D01*
G01X0007000Y-008500D02*
G01X0007000Y-010000D01*
G01X0007000Y-010000D02*
G01X0005500Y-010000D01*
G01X0005875Y-009840D02*
G75*
G03X0005875Y-009840I-000111J0000000D01*
G01X0009500Y-008500D02*
G01X0009500Y-010000D01*
G01X0009500Y-010000D02*
G01X0008000Y-010000D01*
G01X0008000Y-010000D02*
G01X0008000Y-008500D01*
G01X0008000Y-008500D02*
G01X0009500Y-008500D01*
G01X0009347Y-008659D02*
G75*
G03X0009347Y-008659I-000111J0000000D01*
G54D19*
G01X0007711Y-005619D02*
G01X0007711Y-005324D01*
G01X0008021Y-005591D02*
G01X0008007Y-005605D01*
G01X0008007Y-005605D02*
G01X0007964Y-005619D01*
G01X0007964Y-005619D02*
G01X0007936Y-005619D01*
G01X0007936Y-005619D02*
G01X0007894Y-005605D01*
G01X0007894Y-005605D02*
G01X0007866Y-005577D01*
G01X0007866Y-005577D02*
G01X0007852Y-005549D01*
G01X0007852Y-005549D02*
G01X0007838Y-005492D01*
G01X0007838Y-005492D02*
G01X0007838Y-005450D01*
G01X0007838Y-005450D02*
G01X0007852Y-005394D01*
G01X0007852Y-005394D02*
G01X0007866Y-005366D01*
G01X0007866Y-005366D02*
G01X0007894Y-005338D01*
G01X0007894Y-005338D02*
G01X0007936Y-005324D01*
G01X0007936Y-005324D02*
G01X0007964Y-005324D01*
G01X0007964Y-005324D02*
G01X0008007Y-005338D01*
G01X0008007Y-005338D02*
G01X0008021Y-005352D01*
G01X0008302Y-005619D02*
G01X0008133Y-005619D01*
G01X0008217Y-005619D02*
G01X0008217Y-005324D01*
G01X0008217Y-005324D02*
G01X0008189Y-005366D01*
G01X0008189Y-005366D02*
G01X0008161Y-005394D01*
G01X0008161Y-005394D02*
G01X0008133Y-005408D01*
G01X0005543Y-006619D02*
G01X0005543Y-006324D01*
G01X0005543Y-006324D02*
G01X0005642Y-006535D01*
G01X0005642Y-006535D02*
G01X0005740Y-006324D01*
G01X0005740Y-006324D02*
G01X0005740Y-006619D01*
G01X0006050Y-006591D02*
G01X0006035Y-006605D01*
G01X0006035Y-006605D02*
G01X0005993Y-006619D01*
G01X0005993Y-006619D02*
G01X0005965Y-006619D01*
G01X0005965Y-006619D02*
G01X0005923Y-006605D01*
G01X0005923Y-006605D02*
G01X0005895Y-006577D01*
G01X0005895Y-006577D02*
G01X0005881Y-006549D01*
G01X0005881Y-006549D02*
G01X0005867Y-006492D01*
G01X0005867Y-006492D02*
G01X0005867Y-006450D01*
G01X0005867Y-006450D02*
G01X0005881Y-006394D01*
G01X0005881Y-006394D02*
G01X0005895Y-006366D01*
G01X0005895Y-006366D02*
G01X0005923Y-006338D01*
G01X0005923Y-006338D02*
G01X0005965Y-006324D01*
G01X0005965Y-006324D02*
G01X0005993Y-006324D01*
G01X0005993Y-006324D02*
G01X0006035Y-006338D01*
G01X0006035Y-006338D02*
G01X0006050Y-006352D01*
G01X0006176Y-006619D02*
G01X0006176Y-006324D01*
G01X0006176Y-006324D02*
G01X0006289Y-006324D01*
G01X0006289Y-006324D02*
G01X0006317Y-006338D01*
G01X0006317Y-006338D02*
G01X0006331Y-006352D01*
G01X0006331Y-006352D02*
G01X0006345Y-006380D01*
G01X0006345Y-006380D02*
G01X0006345Y-006422D01*
G01X0006345Y-006422D02*
G01X0006331Y-006450D01*
G01X0006331Y-006450D02*
G01X0006317Y-006464D01*
G01X0006317Y-006464D02*
G01X0006289Y-006478D01*
G01X0006289Y-006478D02*
G01X0006176Y-006478D01*
G01X0006457Y-006352D02*
G01X0006471Y-006338D01*
G01X0006471Y-006338D02*
G01X0006500Y-006324D01*
G01X0006500Y-006324D02*
G01X0006570Y-006324D01*
G01X0006570Y-006324D02*
G01X0006598Y-006338D01*
G01X0006598Y-006338D02*
G01X0006612Y-006352D01*
G01X0006612Y-006352D02*
G01X0006626Y-006380D01*
G01X0006626Y-006380D02*
G01X0006626Y-006408D01*
G01X0006626Y-006408D02*
G01X0006612Y-006450D01*
G01X0006612Y-006450D02*
G01X0006443Y-006619D01*
G01X0006443Y-006619D02*
G01X0006626Y-006619D01*
G01X0006893Y-006324D02*
G01X0006753Y-006324D01*
G01X0006753Y-006324D02*
G01X0006739Y-006464D01*
G01X0006739Y-006464D02*
G01X0006753Y-006450D01*
G01X0006753Y-006450D02*
G01X0006781Y-006436D01*
G01X0006781Y-006436D02*
G01X0006851Y-006436D01*
G01X0006851Y-006436D02*
G01X0006879Y-006450D01*
G01X0006879Y-006450D02*
G01X0006893Y-006464D01*
G01X0006893Y-006464D02*
G01X0006907Y-006492D01*
G01X0006907Y-006492D02*
G01X0006907Y-006563D01*
G01X0006907Y-006563D02*
G01X0006893Y-006591D01*
G01X0006893Y-006591D02*
G01X0006879Y-006605D01*
G01X0006879Y-006605D02*
G01X0006851Y-006619D01*
G01X0006851Y-006619D02*
G01X0006781Y-006619D01*
G01X0006781Y-006619D02*
G01X0006753Y-006605D01*
G01X0006753Y-006605D02*
G01X0006739Y-006591D01*
G01X0007174Y-006324D02*
G01X0007034Y-006324D01*
G01X0007034Y-006324D02*
G01X0007020Y-006464D01*
G01X0007020Y-006464D02*
G01X0007034Y-006450D01*
G01X0007034Y-006450D02*
G01X0007062Y-006436D01*
G01X0007062Y-006436D02*
G01X0007132Y-006436D01*
G01X0007132Y-006436D02*
G01X0007160Y-006450D01*
G01X0007160Y-006450D02*
G01X0007174Y-006464D01*
G01X0007174Y-006464D02*
G01X0007188Y-006492D01*
G01X0007188Y-006492D02*
G01X0007188Y-006563D01*
G01X0007188Y-006563D02*
G01X0007174Y-006591D01*
G01X0007174Y-006591D02*
G01X0007160Y-006605D01*
G01X0007160Y-006605D02*
G01X0007132Y-006619D01*
G01X0007132Y-006619D02*
G01X0007062Y-006619D01*
G01X0007062Y-006619D02*
G01X0007034Y-006605D01*
G01X0007034Y-006605D02*
G01X0007020Y-006591D01*
G01X0007470Y-006619D02*
G01X0007301Y-006619D01*
G01X0007385Y-006619D02*
G01X0007385Y-006324D01*
G01X0007385Y-006324D02*
G01X0007357Y-006366D01*
G01X0007357Y-006366D02*
G01X0007329Y-006394D01*
G01X0007329Y-006394D02*
G01X0007301Y-006408D01*
G01X0003700Y-005869D02*
G01X0003602Y-005728D01*
G01X0003532Y-005869D02*
G01X0003532Y-005574D01*
G01X0003532Y-005574D02*
G01X0003644Y-005574D01*
G01X0003644Y-005574D02*
G01X0003672Y-005588D01*
G01X0003672Y-005588D02*
G01X0003686Y-005602D01*
G01X0003686Y-005602D02*
G01X0003700Y-005630D01*
G01X0003700Y-005630D02*
G01X0003700Y-005672D01*
G01X0003700Y-005672D02*
G01X0003686Y-005700D01*
G01X0003686Y-005700D02*
G01X0003672Y-005714D01*
G01X0003672Y-005714D02*
G01X0003644Y-005728D01*
G01X0003644Y-005728D02*
G01X0003532Y-005728D01*
G01X0003799Y-005574D02*
G01X0003982Y-005574D01*
G01X0003982Y-005574D02*
G01X0003883Y-005686D01*
G01X0003883Y-005686D02*
G01X0003925Y-005686D01*
G01X0003925Y-005686D02*
G01X0003953Y-005700D01*
G01X0003953Y-005700D02*
G01X0003967Y-005714D01*
G01X0003967Y-005714D02*
G01X0003982Y-005742D01*
G01X0003982Y-005742D02*
G01X0003982Y-005813D01*
G01X0003982Y-005813D02*
G01X0003967Y-005841D01*
G01X0003967Y-005841D02*
G01X0003953Y-005855D01*
G01X0003953Y-005855D02*
G01X0003925Y-005869D01*
G01X0003925Y-005869D02*
G01X0003841Y-005869D01*
G01X0003841Y-005869D02*
G01X0003813Y-005855D01*
G01X0003813Y-005855D02*
G01X0003799Y-005841D01*
G01X0000700Y-010869D02*
G01X0000602Y-010728D01*
G01X0000532Y-010869D02*
G01X0000532Y-010574D01*
G01X0000532Y-010574D02*
G01X0000644Y-010574D01*
G01X0000644Y-010574D02*
G01X0000672Y-010588D01*
G01X0000672Y-010588D02*
G01X0000686Y-010602D01*
G01X0000686Y-010602D02*
G01X0000700Y-010630D01*
G01X0000700Y-010630D02*
G01X0000700Y-010672D01*
G01X0000700Y-010672D02*
G01X0000686Y-010700D01*
G01X0000686Y-010700D02*
G01X0000672Y-010714D01*
G01X0000672Y-010714D02*
G01X0000644Y-010728D01*
G01X0000644Y-010728D02*
G01X0000532Y-010728D01*
G01X0000813Y-010602D02*
G01X0000827Y-010588D01*
G01X0000827Y-010588D02*
G01X0000855Y-010574D01*
G01X0000855Y-010574D02*
G01X0000925Y-010574D01*
G01X0000925Y-010574D02*
G01X0000953Y-010588D01*
G01X0000953Y-010588D02*
G01X0000967Y-010602D01*
G01X0000967Y-010602D02*
G01X0000982Y-010630D01*
G01X0000982Y-010630D02*
G01X0000982Y-010658D01*
G01X0000982Y-010658D02*
G01X0000967Y-010700D01*
G01X0000967Y-010700D02*
G01X0000799Y-010869D01*
G01X0000799Y-010869D02*
G01X0000982Y-010869D01*
G01X0004032Y-012119D02*
G01X0004032Y-011824D01*
G01X0004032Y-011824D02*
G01X0004102Y-011824D01*
G01X0004102Y-011824D02*
G01X0004144Y-011838D01*
G01X0004144Y-011838D02*
G01X0004172Y-011866D01*
G01X0004172Y-011866D02*
G01X0004186Y-011894D01*
G01X0004186Y-011894D02*
G01X0004200Y-011950D01*
G01X0004200Y-011950D02*
G01X0004200Y-011992D01*
G01X0004200Y-011992D02*
G01X0004186Y-012049D01*
G01X0004186Y-012049D02*
G01X0004172Y-012077D01*
G01X0004172Y-012077D02*
G01X0004144Y-012105D01*
G01X0004144Y-012105D02*
G01X0004102Y-012119D01*
G01X0004102Y-012119D02*
G01X0004032Y-012119D01*
G01X0004482Y-012119D02*
G01X0004313Y-012119D01*
G01X0004397Y-012119D02*
G01X0004397Y-011824D01*
G01X0004397Y-011824D02*
G01X0004369Y-011866D01*
G01X0004369Y-011866D02*
G01X0004341Y-011894D01*
G01X0004341Y-011894D02*
G01X0004313Y-011908D01*
G01X0004032Y-011369D02*
G01X0004032Y-011074D01*
G01X0004032Y-011074D02*
G01X0004102Y-011074D01*
G01X0004102Y-011074D02*
G01X0004144Y-011088D01*
G01X0004144Y-011088D02*
G01X0004172Y-011116D01*
G01X0004172Y-011116D02*
G01X0004186Y-011144D01*
G01X0004186Y-011144D02*
G01X0004200Y-011200D01*
G01X0004200Y-011200D02*
G01X0004200Y-011242D01*
G01X0004200Y-011242D02*
G01X0004186Y-011299D01*
G01X0004186Y-011299D02*
G01X0004172Y-011327D01*
G01X0004172Y-011327D02*
G01X0004144Y-011355D01*
G01X0004144Y-011355D02*
G01X0004102Y-011369D01*
G01X0004102Y-011369D02*
G01X0004032Y-011369D01*
G01X0004313Y-011102D02*
G01X0004327Y-011088D01*
G01X0004327Y-011088D02*
G01X0004355Y-011074D01*
G01X0004355Y-011074D02*
G01X0004425Y-011074D01*
G01X0004425Y-011074D02*
G01X0004453Y-011088D01*
G01X0004453Y-011088D02*
G01X0004467Y-011102D01*
G01X0004467Y-011102D02*
G01X0004482Y-011130D01*
G01X0004482Y-011130D02*
G01X0004482Y-011158D01*
G01X0004482Y-011158D02*
G01X0004467Y-011200D01*
G01X0004467Y-011200D02*
G01X0004299Y-011369D01*
G01X0004299Y-011369D02*
G01X0004482Y-011369D01*
G01X0002450Y-004869D02*
G01X0002352Y-004728D01*
G01X0002282Y-004869D02*
G01X0002282Y-004574D01*
G01X0002282Y-004574D02*
G01X0002394Y-004574D01*
G01X0002394Y-004574D02*
G01X0002422Y-004588D01*
G01X0002422Y-004588D02*
G01X0002436Y-004602D01*
G01X0002436Y-004602D02*
G01X0002450Y-004630D01*
G01X0002450Y-004630D02*
G01X0002450Y-004672D01*
G01X0002450Y-004672D02*
G01X0002436Y-004700D01*
G01X0002436Y-004700D02*
G01X0002422Y-004714D01*
G01X0002422Y-004714D02*
G01X0002394Y-004728D01*
G01X0002394Y-004728D02*
G01X0002282Y-004728D01*
G01X0002703Y-004672D02*
G01X0002703Y-004869D01*
G01X0002633Y-004560D02*
G01X0002563Y-004771D01*
G01X0002563Y-004771D02*
G01X0002746Y-004771D01*
G01X0009200Y-011841D02*
G01X0009186Y-011855D01*
G01X0009186Y-011855D02*
G01X0009144Y-011869D01*
G01X0009144Y-011869D02*
G01X0009116Y-011869D01*
G01X0009116Y-011869D02*
G01X0009074Y-011855D01*
G01X0009074Y-011855D02*
G01X0009046Y-011827D01*
G01X0009046Y-011827D02*
G01X0009032Y-011799D01*
G01X0009032Y-011799D02*
G01X0009017Y-011742D01*
G01X0009017Y-011742D02*
G01X0009017Y-011700D01*
G01X0009017Y-011700D02*
G01X0009032Y-011644D01*
G01X0009032Y-011644D02*
G01X0009046Y-011616D01*
G01X0009046Y-011616D02*
G01X0009074Y-011588D01*
G01X0009074Y-011588D02*
G01X0009116Y-011574D01*
G01X0009116Y-011574D02*
G01X0009144Y-011574D01*
G01X0009144Y-011574D02*
G01X0009186Y-011588D01*
G01X0009186Y-011588D02*
G01X0009200Y-011602D01*
G01X0009313Y-011602D02*
G01X0009327Y-011588D01*
G01X0009327Y-011588D02*
G01X0009355Y-011574D01*
G01X0009355Y-011574D02*
G01X0009425Y-011574D01*
G01X0009425Y-011574D02*
G01X0009453Y-011588D01*
G01X0009453Y-011588D02*
G01X0009467Y-011602D01*
G01X0009467Y-011602D02*
G01X0009482Y-011630D01*
G01X0009482Y-011630D02*
G01X0009482Y-011658D01*
G01X0009482Y-011658D02*
G01X0009467Y-011700D01*
G01X0009467Y-011700D02*
G01X0009299Y-011869D01*
G01X0009299Y-011869D02*
G01X0009482Y-011869D01*
G01X0000700Y-010119D02*
G01X0000602Y-009978D01*
G01X0000532Y-010119D02*
G01X0000532Y-009824D01*
G01X0000532Y-009824D02*
G01X0000644Y-009824D01*
G01X0000644Y-009824D02*
G01X0000672Y-009838D01*
G01X0000672Y-009838D02*
G01X0000686Y-009852D01*
G01X0000686Y-009852D02*
G01X0000700Y-009880D01*
G01X0000700Y-009880D02*
G01X0000700Y-009922D01*
G01X0000700Y-009922D02*
G01X0000686Y-009950D01*
G01X0000686Y-009950D02*
G01X0000672Y-009964D01*
G01X0000672Y-009964D02*
G01X0000644Y-009978D01*
G01X0000644Y-009978D02*
G01X0000532Y-009978D01*
G01X0000967Y-009824D02*
G01X0000827Y-009824D01*
G01X0000827Y-009824D02*
G01X0000813Y-009964D01*
G01X0000813Y-009964D02*
G01X0000827Y-009950D01*
G01X0000827Y-009950D02*
G01X0000855Y-009936D01*
G01X0000855Y-009936D02*
G01X0000925Y-009936D01*
G01X0000925Y-009936D02*
G01X0000953Y-009950D01*
G01X0000953Y-009950D02*
G01X0000967Y-009964D01*
G01X0000967Y-009964D02*
G01X0000982Y-009992D01*
G01X0000982Y-009992D02*
G01X0000982Y-010063D01*
G01X0000982Y-010063D02*
G01X0000967Y-010091D01*
G01X0000967Y-010091D02*
G01X0000953Y-010105D01*
G01X0000953Y-010105D02*
G01X0000925Y-010119D01*
G01X0000925Y-010119D02*
G01X0000855Y-010119D01*
G01X0000855Y-010119D02*
G01X0000827Y-010105D01*
G01X0000827Y-010105D02*
G01X0000813Y-010091D01*
G01X0003782Y-010119D02*
G01X0003782Y-009824D01*
G01X0003782Y-009824D02*
G01X0003852Y-009824D01*
G01X0003852Y-009824D02*
G01X0003894Y-009838D01*
G01X0003894Y-009838D02*
G01X0003922Y-009866D01*
G01X0003922Y-009866D02*
G01X0003936Y-009894D01*
G01X0003936Y-009894D02*
G01X0003950Y-009950D01*
G01X0003950Y-009950D02*
G01X0003950Y-009992D01*
G01X0003950Y-009992D02*
G01X0003936Y-010049D01*
G01X0003936Y-010049D02*
G01X0003922Y-010077D01*
G01X0003922Y-010077D02*
G01X0003894Y-010105D01*
G01X0003894Y-010105D02*
G01X0003852Y-010119D01*
G01X0003852Y-010119D02*
G01X0003782Y-010119D01*
G01X0004049Y-009824D02*
G01X0004232Y-009824D01*
G01X0004232Y-009824D02*
G01X0004133Y-009936D01*
G01X0004133Y-009936D02*
G01X0004175Y-009936D01*
G01X0004175Y-009936D02*
G01X0004203Y-009950D01*
G01X0004203Y-009950D02*
G01X0004217Y-009964D01*
G01X0004217Y-009964D02*
G01X0004232Y-009992D01*
G01X0004232Y-009992D02*
G01X0004232Y-010063D01*
G01X0004232Y-010063D02*
G01X0004217Y-010091D01*
G01X0004217Y-010091D02*
G01X0004203Y-010105D01*
G01X0004203Y-010105D02*
G01X0004175Y-010119D01*
G01X0004175Y-010119D02*
G01X0004091Y-010119D01*
G01X0004091Y-010119D02*
G01X0004063Y-010105D01*
G01X0004063Y-010105D02*
G01X0004049Y-010091D01*
G01X0002003Y-006574D02*
G01X0002003Y-006785D01*
G01X0002003Y-006785D02*
G01X0001989Y-006827D01*
G01X0001989Y-006827D02*
G01X0001961Y-006855D01*
G01X0001961Y-006855D02*
G01X0001919Y-006869D01*
G01X0001919Y-006869D02*
G01X0001891Y-006869D01*
G01X0002144Y-006869D02*
G01X0002144Y-006574D01*
G01X0002144Y-006574D02*
G01X0002257Y-006574D01*
G01X0002257Y-006574D02*
G01X0002285Y-006588D01*
G01X0002285Y-006588D02*
G01X0002299Y-006602D01*
G01X0002299Y-006602D02*
G01X0002313Y-006630D01*
G01X0002313Y-006630D02*
G01X0002313Y-006672D01*
G01X0002313Y-006672D02*
G01X0002299Y-006700D01*
G01X0002299Y-006700D02*
G01X0002285Y-006714D01*
G01X0002285Y-006714D02*
G01X0002257Y-006728D01*
G01X0002257Y-006728D02*
G01X0002144Y-006728D01*
G01X0002594Y-006869D02*
G01X0002425Y-006869D01*
G01X0002510Y-006869D02*
G01X0002510Y-006574D01*
G01X0002510Y-006574D02*
G01X0002482Y-006616D01*
G01X0002482Y-006616D02*
G01X0002453Y-006644D01*
G01X0002453Y-006644D02*
G01X0002425Y-006658D01*
G01X0011200Y-014841D02*
G01X0011186Y-014855D01*
G01X0011186Y-014855D02*
G01X0011144Y-014869D01*
G01X0011144Y-014869D02*
G01X0011116Y-014869D01*
G01X0011116Y-014869D02*
G01X0011074Y-014855D01*
G01X0011074Y-014855D02*
G01X0011046Y-014827D01*
G01X0011046Y-014827D02*
G01X0011032Y-014799D01*
G01X0011032Y-014799D02*
G01X0011017Y-014742D01*
G01X0011017Y-014742D02*
G01X0011017Y-014700D01*
G01X0011017Y-014700D02*
G01X0011032Y-014644D01*
G01X0011032Y-014644D02*
G01X0011046Y-014616D01*
G01X0011046Y-014616D02*
G01X0011074Y-014588D01*
G01X0011074Y-014588D02*
G01X0011116Y-014574D01*
G01X0011116Y-014574D02*
G01X0011144Y-014574D01*
G01X0011144Y-014574D02*
G01X0011186Y-014588D01*
G01X0011186Y-014588D02*
G01X0011200Y-014602D01*
G01X0011482Y-014869D02*
G01X0011313Y-014869D01*
G01X0011397Y-014869D02*
G01X0011397Y-014574D01*
G01X0011397Y-014574D02*
G01X0011369Y-014616D01*
G01X0011369Y-014616D02*
G01X0011341Y-014644D01*
G01X0011341Y-014644D02*
G01X0011313Y-014658D01*
G01X0002782Y-014119D02*
G01X0002782Y-013824D01*
G01X0002782Y-013824D02*
G01X0002894Y-013824D01*
G01X0002894Y-013824D02*
G01X0002922Y-013838D01*
G01X0002922Y-013838D02*
G01X0002936Y-013852D01*
G01X0002936Y-013852D02*
G01X0002950Y-013880D01*
G01X0002950Y-013880D02*
G01X0002950Y-013922D01*
G01X0002950Y-013922D02*
G01X0002936Y-013950D01*
G01X0002936Y-013950D02*
G01X0002922Y-013964D01*
G01X0002922Y-013964D02*
G01X0002894Y-013978D01*
G01X0002894Y-013978D02*
G01X0002782Y-013978D01*
G01X0003232Y-014119D02*
G01X0003063Y-014119D01*
G01X0003147Y-014119D02*
G01X0003147Y-013824D01*
G01X0003147Y-013824D02*
G01X0003119Y-013866D01*
G01X0003119Y-013866D02*
G01X0003091Y-013894D01*
G01X0003091Y-013894D02*
G01X0003063Y-013908D01*
G01X0003032Y-002869D02*
G01X0003032Y-002574D01*
G01X0003200Y-002869D02*
G01X0003074Y-002700D01*
G01X0003200Y-002574D02*
G01X0003032Y-002742D01*
G01X0003482Y-002869D02*
G01X0003313Y-002869D01*
G01X0003397Y-002869D02*
G01X0003397Y-002574D01*
G01X0003397Y-002574D02*
G01X0003369Y-002616D01*
G01X0003369Y-002616D02*
G01X0003341Y-002644D01*
G01X0003341Y-002644D02*
G01X0003313Y-002658D01*
G01X0000700Y-011619D02*
G01X0000602Y-011478D01*
G01X0000532Y-011619D02*
G01X0000532Y-011324D01*
G01X0000532Y-011324D02*
G01X0000644Y-011324D01*
G01X0000644Y-011324D02*
G01X0000672Y-011338D01*
G01X0000672Y-011338D02*
G01X0000686Y-011352D01*
G01X0000686Y-011352D02*
G01X0000700Y-011380D01*
G01X0000700Y-011380D02*
G01X0000700Y-011422D01*
G01X0000700Y-011422D02*
G01X0000686Y-011450D01*
G01X0000686Y-011450D02*
G01X0000672Y-011464D01*
G01X0000672Y-011464D02*
G01X0000644Y-011478D01*
G01X0000644Y-011478D02*
G01X0000532Y-011478D01*
G01X0000982Y-011619D02*
G01X0000813Y-011619D01*
G01X0000897Y-011619D02*
G01X0000897Y-011324D01*
G01X0000897Y-011324D02*
G01X0000869Y-011366D01*
G01X0000869Y-011366D02*
G01X0000841Y-011394D01*
G01X0000841Y-011394D02*
G01X0000813Y-011408D01*
G01X0008450Y-006869D02*
G01X0008352Y-006728D01*
G01X0008282Y-006869D02*
G01X0008282Y-006574D01*
G01X0008282Y-006574D02*
G01X0008394Y-006574D01*
G01X0008394Y-006574D02*
G01X0008422Y-006588D01*
G01X0008422Y-006588D02*
G01X0008436Y-006602D01*
G01X0008436Y-006602D02*
G01X0008450Y-006630D01*
G01X0008450Y-006630D02*
G01X0008450Y-006672D01*
G01X0008450Y-006672D02*
G01X0008436Y-006700D01*
G01X0008436Y-006700D02*
G01X0008422Y-006714D01*
G01X0008422Y-006714D02*
G01X0008394Y-006728D01*
G01X0008394Y-006728D02*
G01X0008282Y-006728D01*
G01X0008619Y-006700D02*
G01X0008591Y-006686D01*
G01X0008591Y-006686D02*
G01X0008577Y-006672D01*
G01X0008577Y-006672D02*
G01X0008563Y-006644D01*
G01X0008563Y-006644D02*
G01X0008563Y-006630D01*
G01X0008563Y-006630D02*
G01X0008577Y-006602D01*
G01X0008577Y-006602D02*
G01X0008591Y-006588D01*
G01X0008591Y-006588D02*
G01X0008619Y-006574D01*
G01X0008619Y-006574D02*
G01X0008675Y-006574D01*
G01X0008675Y-006574D02*
G01X0008703Y-006588D01*
G01X0008703Y-006588D02*
G01X0008717Y-006602D01*
G01X0008717Y-006602D02*
G01X0008732Y-006630D01*
G01X0008732Y-006630D02*
G01X0008732Y-006644D01*
G01X0008732Y-006644D02*
G01X0008717Y-006672D01*
G01X0008717Y-006672D02*
G01X0008703Y-006686D01*
G01X0008703Y-006686D02*
G01X0008675Y-006700D01*
G01X0008675Y-006700D02*
G01X0008619Y-006700D01*
G01X0008619Y-006700D02*
G01X0008591Y-006714D01*
G01X0008591Y-006714D02*
G01X0008577Y-006728D01*
G01X0008577Y-006728D02*
G01X0008563Y-006757D01*
G01X0008563Y-006757D02*
G01X0008563Y-006813D01*
G01X0008563Y-006813D02*
G01X0008577Y-006841D01*
G01X0008577Y-006841D02*
G01X0008591Y-006855D01*
G01X0008591Y-006855D02*
G01X0008619Y-006869D01*
G01X0008619Y-006869D02*
G01X0008675Y-006869D01*
G01X0008675Y-006869D02*
G01X0008703Y-006855D01*
G01X0008703Y-006855D02*
G01X0008717Y-006841D01*
G01X0008717Y-006841D02*
G01X0008732Y-006813D01*
G01X0008732Y-006813D02*
G01X0008732Y-006757D01*
G01X0008732Y-006757D02*
G01X0008717Y-006728D01*
G01X0008717Y-006728D02*
G01X0008703Y-006714D01*
G01X0008703Y-006714D02*
G01X0008675Y-006700D01*
G01X0004700Y-008869D02*
G01X0004602Y-008728D01*
G01X0004532Y-008869D02*
G01X0004532Y-008574D01*
G01X0004532Y-008574D02*
G01X0004644Y-008574D01*
G01X0004644Y-008574D02*
G01X0004672Y-008588D01*
G01X0004672Y-008588D02*
G01X0004686Y-008602D01*
G01X0004686Y-008602D02*
G01X0004700Y-008630D01*
G01X0004700Y-008630D02*
G01X0004700Y-008672D01*
G01X0004700Y-008672D02*
G01X0004686Y-008700D01*
G01X0004686Y-008700D02*
G01X0004672Y-008714D01*
G01X0004672Y-008714D02*
G01X0004644Y-008728D01*
G01X0004644Y-008728D02*
G01X0004532Y-008728D01*
G01X0004841Y-008869D02*
G01X0004897Y-008869D01*
G01X0004897Y-008869D02*
G01X0004925Y-008855D01*
G01X0004925Y-008855D02*
G01X0004939Y-008841D01*
G01X0004939Y-008841D02*
G01X0004967Y-008799D01*
G01X0004967Y-008799D02*
G01X0004982Y-008742D01*
G01X0004982Y-008742D02*
G01X0004982Y-008630D01*
G01X0004982Y-008630D02*
G01X0004967Y-008602D01*
G01X0004967Y-008602D02*
G01X0004953Y-008588D01*
G01X0004953Y-008588D02*
G01X0004925Y-008574D01*
G01X0004925Y-008574D02*
G01X0004869Y-008574D01*
G01X0004869Y-008574D02*
G01X0004841Y-008588D01*
G01X0004841Y-008588D02*
G01X0004827Y-008602D01*
G01X0004827Y-008602D02*
G01X0004813Y-008630D01*
G01X0004813Y-008630D02*
G01X0004813Y-008700D01*
G01X0004813Y-008700D02*
G01X0004827Y-008728D01*
G01X0004827Y-008728D02*
G01X0004841Y-008742D01*
G01X0004841Y-008742D02*
G01X0004869Y-008757D01*
G01X0004869Y-008757D02*
G01X0004925Y-008757D01*
G01X0004925Y-008757D02*
G01X0004953Y-008742D01*
G01X0004953Y-008742D02*
G01X0004967Y-008728D01*
G01X0004967Y-008728D02*
G01X0004982Y-008700D01*
G01X0009950Y-009619D02*
G01X0009852Y-009478D01*
G01X0009782Y-009619D02*
G01X0009782Y-009324D01*
G01X0009782Y-009324D02*
G01X0009894Y-009324D01*
G01X0009894Y-009324D02*
G01X0009922Y-009338D01*
G01X0009922Y-009338D02*
G01X0009936Y-009352D01*
G01X0009936Y-009352D02*
G01X0009950Y-009380D01*
G01X0009950Y-009380D02*
G01X0009950Y-009422D01*
G01X0009950Y-009422D02*
G01X0009936Y-009450D01*
G01X0009936Y-009450D02*
G01X0009922Y-009464D01*
G01X0009922Y-009464D02*
G01X0009894Y-009478D01*
G01X0009894Y-009478D02*
G01X0009782Y-009478D01*
G01X0010049Y-009324D02*
G01X0010246Y-009324D01*
G01X0010246Y-009324D02*
G01X0010119Y-009619D01*
G01X0004950Y-010119D02*
G01X0004852Y-009978D01*
G01X0004782Y-010119D02*
G01X0004782Y-009824D01*
G01X0004782Y-009824D02*
G01X0004894Y-009824D01*
G01X0004894Y-009824D02*
G01X0004922Y-009838D01*
G01X0004922Y-009838D02*
G01X0004936Y-009852D01*
G01X0004936Y-009852D02*
G01X0004950Y-009880D01*
G01X0004950Y-009880D02*
G01X0004950Y-009922D01*
G01X0004950Y-009922D02*
G01X0004936Y-009950D01*
G01X0004936Y-009950D02*
G01X0004922Y-009964D01*
G01X0004922Y-009964D02*
G01X0004894Y-009978D01*
G01X0004894Y-009978D02*
G01X0004782Y-009978D01*
G01X0005203Y-009824D02*
G01X0005147Y-009824D01*
G01X0005147Y-009824D02*
G01X0005119Y-009838D01*
G01X0005119Y-009838D02*
G01X0005105Y-009852D01*
G01X0005105Y-009852D02*
G01X0005077Y-009894D01*
G01X0005077Y-009894D02*
G01X0005063Y-009950D01*
G01X0005063Y-009950D02*
G01X0005063Y-010063D01*
G01X0005063Y-010063D02*
G01X0005077Y-010091D01*
G01X0005077Y-010091D02*
G01X0005091Y-010105D01*
G01X0005091Y-010105D02*
G01X0005119Y-010119D01*
G01X0005119Y-010119D02*
G01X0005175Y-010119D01*
G01X0005175Y-010119D02*
G01X0005203Y-010105D01*
G01X0005203Y-010105D02*
G01X0005217Y-010091D01*
G01X0005217Y-010091D02*
G01X0005232Y-010063D01*
G01X0005232Y-010063D02*
G01X0005232Y-009992D01*
G01X0005232Y-009992D02*
G01X0005217Y-009964D01*
G01X0005217Y-009964D02*
G01X0005203Y-009950D01*
G01X0005203Y-009950D02*
G01X0005175Y-009936D01*
G01X0005175Y-009936D02*
G01X0005119Y-009936D01*
G01X0005119Y-009936D02*
G01X0005091Y-009950D01*
G01X0005091Y-009950D02*
G01X0005077Y-009964D01*
G01X0005077Y-009964D02*
G01X0005063Y-009992D01*
G01X0012450Y-007591D02*
G01X0012436Y-007605D01*
G01X0012436Y-007605D02*
G01X0012394Y-007619D01*
G01X0012394Y-007619D02*
G01X0012366Y-007619D01*
G01X0012366Y-007619D02*
G01X0012324Y-007605D01*
G01X0012324Y-007605D02*
G01X0012296Y-007577D01*
G01X0012296Y-007577D02*
G01X0012282Y-007549D01*
G01X0012282Y-007549D02*
G01X0012267Y-007492D01*
G01X0012267Y-007492D02*
G01X0012267Y-007450D01*
G01X0012267Y-007450D02*
G01X0012282Y-007394D01*
G01X0012282Y-007394D02*
G01X0012296Y-007366D01*
G01X0012296Y-007366D02*
G01X0012324Y-007338D01*
G01X0012324Y-007338D02*
G01X0012366Y-007324D01*
G01X0012366Y-007324D02*
G01X0012394Y-007324D01*
G01X0012394Y-007324D02*
G01X0012436Y-007338D01*
G01X0012436Y-007338D02*
G01X0012450Y-007352D01*
G01X0012703Y-007422D02*
G01X0012703Y-007619D01*
G01X0012633Y-007310D02*
G01X0012563Y-007521D01*
G01X0012563Y-007521D02*
G01X0012746Y-007521D01*
G01X0002810Y-008869D02*
G01X0002711Y-008728D01*
G01X0002641Y-008869D02*
G01X0002641Y-008574D01*
G01X0002641Y-008574D02*
G01X0002753Y-008574D01*
G01X0002753Y-008574D02*
G01X0002782Y-008588D01*
G01X0002782Y-008588D02*
G01X0002796Y-008602D01*
G01X0002796Y-008602D02*
G01X0002810Y-008630D01*
G01X0002810Y-008630D02*
G01X0002810Y-008672D01*
G01X0002810Y-008672D02*
G01X0002796Y-008700D01*
G01X0002796Y-008700D02*
G01X0002782Y-008714D01*
G01X0002782Y-008714D02*
G01X0002753Y-008728D01*
G01X0002753Y-008728D02*
G01X0002641Y-008728D01*
G01X0003091Y-008869D02*
G01X0002922Y-008869D01*
G01X0003007Y-008869D02*
G01X0003007Y-008574D01*
G01X0003007Y-008574D02*
G01X0002978Y-008616D01*
G01X0002978Y-008616D02*
G01X0002950Y-008644D01*
G01X0002950Y-008644D02*
G01X0002922Y-008658D01*
G01X0003274Y-008574D02*
G01X0003302Y-008574D01*
G01X0003302Y-008574D02*
G01X0003330Y-008588D01*
G01X0003330Y-008588D02*
G01X0003344Y-008602D01*
G01X0003344Y-008602D02*
G01X0003358Y-008630D01*
G01X0003358Y-008630D02*
G01X0003372Y-008686D01*
G01X0003372Y-008686D02*
G01X0003372Y-008757D01*
G01X0003372Y-008757D02*
G01X0003358Y-008813D01*
G01X0003358Y-008813D02*
G01X0003344Y-008841D01*
G01X0003344Y-008841D02*
G01X0003330Y-008855D01*
G01X0003330Y-008855D02*
G01X0003302Y-008869D01*
G01X0003302Y-008869D02*
G01X0003274Y-008869D01*
G01X0003274Y-008869D02*
G01X0003246Y-008855D01*
G01X0003246Y-008855D02*
G01X0003232Y-008841D01*
G01X0003232Y-008841D02*
G01X0003217Y-008813D01*
G01X0003217Y-008813D02*
G01X0003203Y-008757D01*
G01X0003203Y-008757D02*
G01X0003203Y-008686D01*
G01X0003203Y-008686D02*
G01X0003217Y-008630D01*
G01X0003217Y-008630D02*
G01X0003232Y-008602D01*
G01X0003232Y-008602D02*
G01X0003246Y-008588D01*
G01X0003246Y-008588D02*
G01X0003274Y-008574D01*
G01X0001532Y-008869D02*
G01X0001532Y-008574D01*
G01X0001532Y-008574D02*
G01X0001602Y-008574D01*
G01X0001602Y-008574D02*
G01X0001644Y-008588D01*
G01X0001644Y-008588D02*
G01X0001672Y-008616D01*
G01X0001672Y-008616D02*
G01X0001686Y-008644D01*
G01X0001686Y-008644D02*
G01X0001700Y-008700D01*
G01X0001700Y-008700D02*
G01X0001700Y-008742D01*
G01X0001700Y-008742D02*
G01X0001686Y-008799D01*
G01X0001686Y-008799D02*
G01X0001672Y-008827D01*
G01X0001672Y-008827D02*
G01X0001644Y-008855D01*
G01X0001644Y-008855D02*
G01X0001602Y-008869D01*
G01X0001602Y-008869D02*
G01X0001532Y-008869D01*
G01X0001953Y-008672D02*
G01X0001953Y-008869D01*
G01X0001883Y-008560D02*
G01X0001813Y-008771D01*
G01X0001813Y-008771D02*
G01X0001996Y-008771D01*
G01X0012025Y-011074D02*
G01X0012025Y-011313D01*
G01X0012025Y-011313D02*
G01X0012039Y-011341D01*
G01X0012039Y-011341D02*
G01X0012053Y-011355D01*
G01X0012053Y-011355D02*
G01X0012081Y-011369D01*
G01X0012081Y-011369D02*
G01X0012137Y-011369D01*
G01X0012137Y-011369D02*
G01X0012165Y-011355D01*
G01X0012165Y-011355D02*
G01X0012179Y-011341D01*
G01X0012179Y-011341D02*
G01X0012193Y-011313D01*
G01X0012193Y-011313D02*
G01X0012193Y-011074D01*
G01X0012489Y-011369D02*
G01X0012320Y-011369D01*
G01X0012404Y-011369D02*
G01X0012404Y-011074D01*
G01X0012404Y-011074D02*
G01X0012376Y-011116D01*
G01X0012376Y-011116D02*
G01X0012348Y-011144D01*
G01X0012348Y-011144D02*
G01X0012320Y-011158D01*
G01X0012950Y-004841D02*
G01X0012936Y-004855D01*
G01X0012936Y-004855D02*
G01X0012894Y-004869D01*
G01X0012894Y-004869D02*
G01X0012866Y-004869D01*
G01X0012866Y-004869D02*
G01X0012824Y-004855D01*
G01X0012824Y-004855D02*
G01X0012796Y-004827D01*
G01X0012796Y-004827D02*
G01X0012782Y-004799D01*
G01X0012782Y-004799D02*
G01X0012767Y-004742D01*
G01X0012767Y-004742D02*
G01X0012767Y-004700D01*
G01X0012767Y-004700D02*
G01X0012782Y-004644D01*
G01X0012782Y-004644D02*
G01X0012796Y-004616D01*
G01X0012796Y-004616D02*
G01X0012824Y-004588D01*
G01X0012824Y-004588D02*
G01X0012866Y-004574D01*
G01X0012866Y-004574D02*
G01X0012894Y-004574D01*
G01X0012894Y-004574D02*
G01X0012936Y-004588D01*
G01X0012936Y-004588D02*
G01X0012950Y-004602D01*
G01X0013049Y-004574D02*
G01X0013232Y-004574D01*
G01X0013232Y-004574D02*
G01X0013133Y-004686D01*
G01X0013133Y-004686D02*
G01X0013175Y-004686D01*
G01X0013175Y-004686D02*
G01X0013203Y-004700D01*
G01X0013203Y-004700D02*
G01X0013217Y-004714D01*
G01X0013217Y-004714D02*
G01X0013232Y-004742D01*
G01X0013232Y-004742D02*
G01X0013232Y-004813D01*
G01X0013232Y-004813D02*
G01X0013217Y-004841D01*
G01X0013217Y-004841D02*
G01X0013203Y-004855D01*
G01X0013203Y-004855D02*
G01X0013175Y-004869D01*
G01X0013175Y-004869D02*
G01X0013091Y-004869D01*
G01X0013091Y-004869D02*
G01X0013063Y-004855D01*
G01X0013063Y-004855D02*
G01X0013049Y-004841D01*
G01X0004275Y-013574D02*
G01X0004275Y-013813D01*
G01X0004275Y-013813D02*
G01X0004289Y-013841D01*
G01X0004289Y-013841D02*
G01X0004303Y-013855D01*
G01X0004303Y-013855D02*
G01X0004331Y-013869D01*
G01X0004331Y-013869D02*
G01X0004387Y-013869D01*
G01X0004387Y-013869D02*
G01X0004415Y-013855D01*
G01X0004415Y-013855D02*
G01X0004429Y-013841D01*
G01X0004429Y-013841D02*
G01X0004443Y-013813D01*
G01X0004443Y-013813D02*
G01X0004443Y-013574D01*
G01X0004570Y-013602D02*
G01X0004584Y-013588D01*
G01X0004584Y-013588D02*
G01X0004612Y-013574D01*
G01X0004612Y-013574D02*
G01X0004682Y-013574D01*
G01X0004682Y-013574D02*
G01X0004710Y-013588D01*
G01X0004710Y-013588D02*
G01X0004724Y-013602D01*
G01X0004724Y-013602D02*
G01X0004739Y-013630D01*
G01X0004739Y-013630D02*
G01X0004739Y-013658D01*
G01X0004739Y-013658D02*
G01X0004724Y-013700D01*
G01X0004724Y-013700D02*
G01X0004556Y-013869D01*
G01X0004556Y-013869D02*
G01X0004739Y-013869D01*
G01X0005674Y-012324D02*
G01X0005871Y-012324D01*
G01X0005871Y-012324D02*
G01X0005744Y-012619D01*
G01X0006110Y-012422D02*
G01X0006110Y-012619D01*
G01X0006039Y-012310D02*
G01X0005969Y-012521D01*
G01X0005969Y-012521D02*
G01X0006152Y-012521D01*
G01X0006264Y-012619D02*
G01X0006264Y-012324D01*
G01X0006264Y-012464D02*
G01X0006433Y-012464D01*
G01X0006433Y-012619D02*
G01X0006433Y-012324D01*
G01X0006742Y-012591D02*
G01X0006728Y-012605D01*
G01X0006728Y-012605D02*
G01X0006686Y-012619D01*
G01X0006686Y-012619D02*
G01X0006658Y-012619D01*
G01X0006658Y-012619D02*
G01X0006616Y-012605D01*
G01X0006616Y-012605D02*
G01X0006588Y-012577D01*
G01X0006588Y-012577D02*
G01X0006574Y-012549D01*
G01X0006574Y-012549D02*
G01X0006560Y-012492D01*
G01X0006560Y-012492D02*
G01X0006560Y-012450D01*
G01X0006560Y-012450D02*
G01X0006574Y-012394D01*
G01X0006574Y-012394D02*
G01X0006588Y-012366D01*
G01X0006588Y-012366D02*
G01X0006616Y-012338D01*
G01X0006616Y-012338D02*
G01X0006658Y-012324D01*
G01X0006658Y-012324D02*
G01X0006686Y-012324D01*
G01X0006686Y-012324D02*
G01X0006728Y-012338D01*
G01X0006728Y-012338D02*
G01X0006742Y-012352D01*
G01X0006827Y-012324D02*
G01X0006996Y-012324D01*
G01X0006911Y-012619D02*
G01X0006911Y-012324D01*
G01X0007249Y-012619D02*
G01X0007080Y-012619D01*
G01X0007164Y-012619D02*
G01X0007164Y-012324D01*
G01X0007164Y-012324D02*
G01X0007136Y-012366D01*
G01X0007136Y-012366D02*
G01X0007108Y-012394D01*
G01X0007108Y-012394D02*
G01X0007080Y-012408D01*
G01X0007361Y-012352D02*
G01X0007375Y-012338D01*
G01X0007375Y-012338D02*
G01X0007403Y-012324D01*
G01X0007403Y-012324D02*
G01X0007474Y-012324D01*
G01X0007474Y-012324D02*
G01X0007502Y-012338D01*
G01X0007502Y-012338D02*
G01X0007516Y-012352D01*
G01X0007516Y-012352D02*
G01X0007530Y-012380D01*
G01X0007530Y-012380D02*
G01X0007530Y-012408D01*
G01X0007530Y-012408D02*
G01X0007516Y-012450D01*
G01X0007516Y-012450D02*
G01X0007347Y-012619D01*
G01X0007347Y-012619D02*
G01X0007530Y-012619D01*
G01X0007797Y-012324D02*
G01X0007656Y-012324D01*
G01X0007656Y-012324D02*
G01X0007642Y-012464D01*
G01X0007642Y-012464D02*
G01X0007656Y-012450D01*
G01X0007656Y-012450D02*
G01X0007685Y-012436D01*
G01X0007685Y-012436D02*
G01X0007755Y-012436D01*
G01X0007755Y-012436D02*
G01X0007783Y-012450D01*
G01X0007783Y-012450D02*
G01X0007797Y-012464D01*
G01X0007797Y-012464D02*
G01X0007811Y-012492D01*
G01X0007811Y-012492D02*
G01X0007811Y-012563D01*
G01X0007811Y-012563D02*
G01X0007797Y-012591D01*
G01X0007797Y-012591D02*
G01X0007783Y-012605D01*
G01X0007783Y-012605D02*
G01X0007755Y-012619D01*
G01X0007755Y-012619D02*
G01X0007685Y-012619D01*
G01X0007685Y-012619D02*
G01X0007656Y-012605D01*
G01X0007656Y-012605D02*
G01X0007642Y-012591D01*
G01X0007032Y-004369D02*
G01X0007032Y-004074D01*
G01X0007032Y-004074D02*
G01X0007102Y-004074D01*
G01X0007102Y-004074D02*
G01X0007144Y-004088D01*
G01X0007144Y-004088D02*
G01X0007172Y-004116D01*
G01X0007172Y-004116D02*
G01X0007186Y-004144D01*
G01X0007186Y-004144D02*
G01X0007200Y-004200D01*
G01X0007200Y-004200D02*
G01X0007200Y-004242D01*
G01X0007200Y-004242D02*
G01X0007186Y-004299D01*
G01X0007186Y-004299D02*
G01X0007172Y-004327D01*
G01X0007172Y-004327D02*
G01X0007144Y-004355D01*
G01X0007144Y-004355D02*
G01X0007102Y-004369D01*
G01X0007102Y-004369D02*
G01X0007032Y-004369D01*
G01X0007467Y-004074D02*
G01X0007327Y-004074D01*
G01X0007327Y-004074D02*
G01X0007313Y-004214D01*
G01X0007313Y-004214D02*
G01X0007327Y-004200D01*
G01X0007327Y-004200D02*
G01X0007355Y-004186D01*
G01X0007355Y-004186D02*
G01X0007425Y-004186D01*
G01X0007425Y-004186D02*
G01X0007453Y-004200D01*
G01X0007453Y-004200D02*
G01X0007467Y-004214D01*
G01X0007467Y-004214D02*
G01X0007482Y-004242D01*
G01X0007482Y-004242D02*
G01X0007482Y-004313D01*
G01X0007482Y-004313D02*
G01X0007467Y-004341D01*
G01X0007467Y-004341D02*
G01X0007453Y-004355D01*
G01X0007453Y-004355D02*
G01X0007425Y-004369D01*
G01X0007425Y-004369D02*
G01X0007355Y-004369D01*
G01X0007355Y-004369D02*
G01X0007327Y-004355D01*
G01X0007327Y-004355D02*
G01X0007313Y-004341D01*
G01X0009282Y-003619D02*
G01X0009282Y-003324D01*
G01X0009282Y-003324D02*
G01X0009352Y-003324D01*
G01X0009352Y-003324D02*
G01X0009394Y-003338D01*
G01X0009394Y-003338D02*
G01X0009422Y-003366D01*
G01X0009422Y-003366D02*
G01X0009436Y-003394D01*
G01X0009436Y-003394D02*
G01X0009450Y-003450D01*
G01X0009450Y-003450D02*
G01X0009450Y-003492D01*
G01X0009450Y-003492D02*
G01X0009436Y-003549D01*
G01X0009436Y-003549D02*
G01X0009422Y-003577D01*
G01X0009422Y-003577D02*
G01X0009394Y-003605D01*
G01X0009394Y-003605D02*
G01X0009352Y-003619D01*
G01X0009352Y-003619D02*
G01X0009282Y-003619D01*
G01X0009549Y-003324D02*
G01X0009746Y-003324D01*
G01X0009746Y-003324D02*
G01X0009619Y-003619D01*
G01X0002782Y-004369D02*
G01X0002782Y-004074D01*
G01X0002782Y-004074D02*
G01X0002852Y-004074D01*
G01X0002852Y-004074D02*
G01X0002894Y-004088D01*
G01X0002894Y-004088D02*
G01X0002922Y-004116D01*
G01X0002922Y-004116D02*
G01X0002936Y-004144D01*
G01X0002936Y-004144D02*
G01X0002950Y-004200D01*
G01X0002950Y-004200D02*
G01X0002950Y-004242D01*
G01X0002950Y-004242D02*
G01X0002936Y-004299D01*
G01X0002936Y-004299D02*
G01X0002922Y-004327D01*
G01X0002922Y-004327D02*
G01X0002894Y-004355D01*
G01X0002894Y-004355D02*
G01X0002852Y-004369D01*
G01X0002852Y-004369D02*
G01X0002782Y-004369D01*
G01X0003203Y-004074D02*
G01X0003147Y-004074D01*
G01X0003147Y-004074D02*
G01X0003119Y-004088D01*
G01X0003119Y-004088D02*
G01X0003105Y-004102D01*
G01X0003105Y-004102D02*
G01X0003077Y-004144D01*
G01X0003077Y-004144D02*
G01X0003063Y-004200D01*
G01X0003063Y-004200D02*
G01X0003063Y-004313D01*
G01X0003063Y-004313D02*
G01X0003077Y-004341D01*
G01X0003077Y-004341D02*
G01X0003091Y-004355D01*
G01X0003091Y-004355D02*
G01X0003119Y-004369D01*
G01X0003119Y-004369D02*
G01X0003175Y-004369D01*
G01X0003175Y-004369D02*
G01X0003203Y-004355D01*
G01X0003203Y-004355D02*
G01X0003217Y-004341D01*
G01X0003217Y-004341D02*
G01X0003232Y-004313D01*
G01X0003232Y-004313D02*
G01X0003232Y-004242D01*
G01X0003232Y-004242D02*
G01X0003217Y-004214D01*
G01X0003217Y-004214D02*
G01X0003203Y-004200D01*
G01X0003203Y-004200D02*
G01X0003175Y-004186D01*
G01X0003175Y-004186D02*
G01X0003119Y-004186D01*
G01X0003119Y-004186D02*
G01X0003091Y-004200D01*
G01X0003091Y-004200D02*
G01X0003077Y-004214D01*
G01X0003077Y-004214D02*
G01X0003063Y-004242D01*
G01X0005282Y-003619D02*
G01X0005282Y-003324D01*
G01X0005282Y-003324D02*
G01X0005352Y-003324D01*
G01X0005352Y-003324D02*
G01X0005394Y-003338D01*
G01X0005394Y-003338D02*
G01X0005422Y-003366D01*
G01X0005422Y-003366D02*
G01X0005436Y-003394D01*
G01X0005436Y-003394D02*
G01X0005450Y-003450D01*
G01X0005450Y-003450D02*
G01X0005450Y-003492D01*
G01X0005450Y-003492D02*
G01X0005436Y-003549D01*
G01X0005436Y-003549D02*
G01X0005422Y-003577D01*
G01X0005422Y-003577D02*
G01X0005394Y-003605D01*
G01X0005394Y-003605D02*
G01X0005352Y-003619D01*
G01X0005352Y-003619D02*
G01X0005282Y-003619D01*
G01X0005619Y-003450D02*
G01X0005591Y-003436D01*
G01X0005591Y-003436D02*
G01X0005577Y-003422D01*
G01X0005577Y-003422D02*
G01X0005563Y-003394D01*
G01X0005563Y-003394D02*
G01X0005563Y-003380D01*
G01X0005563Y-003380D02*
G01X0005577Y-003352D01*
G01X0005577Y-003352D02*
G01X0005591Y-003338D01*
G01X0005591Y-003338D02*
G01X0005619Y-003324D01*
G01X0005619Y-003324D02*
G01X0005675Y-003324D01*
G01X0005675Y-003324D02*
G01X0005703Y-003338D01*
G01X0005703Y-003338D02*
G01X0005717Y-003352D01*
G01X0005717Y-003352D02*
G01X0005732Y-003380D01*
G01X0005732Y-003380D02*
G01X0005732Y-003394D01*
G01X0005732Y-003394D02*
G01X0005717Y-003422D01*
G01X0005717Y-003422D02*
G01X0005703Y-003436D01*
G01X0005703Y-003436D02*
G01X0005675Y-003450D01*
G01X0005675Y-003450D02*
G01X0005619Y-003450D01*
G01X0005619Y-003450D02*
G01X0005591Y-003464D01*
G01X0005591Y-003464D02*
G01X0005577Y-003478D01*
G01X0005577Y-003478D02*
G01X0005563Y-003507D01*
G01X0005563Y-003507D02*
G01X0005563Y-003563D01*
G01X0005563Y-003563D02*
G01X0005577Y-003591D01*
G01X0005577Y-003591D02*
G01X0005591Y-003605D01*
G01X0005591Y-003605D02*
G01X0005619Y-003619D01*
G01X0005619Y-003619D02*
G01X0005675Y-003619D01*
G01X0005675Y-003619D02*
G01X0005703Y-003605D01*
G01X0005703Y-003605D02*
G01X0005717Y-003591D01*
G01X0005717Y-003591D02*
G01X0005732Y-003563D01*
G01X0005732Y-003563D02*
G01X0005732Y-003507D01*
G01X0005732Y-003507D02*
G01X0005717Y-003478D01*
G01X0005717Y-003478D02*
G01X0005703Y-003464D01*
G01X0005703Y-003464D02*
G01X0005675Y-003450D01*
G01X0007211Y-008869D02*
G01X0007211Y-008574D01*
G01X0007521Y-008841D02*
G01X0007507Y-008855D01*
G01X0007507Y-008855D02*
G01X0007464Y-008869D01*
G01X0007464Y-008869D02*
G01X0007436Y-008869D01*
G01X0007436Y-008869D02*
G01X0007394Y-008855D01*
G01X0007394Y-008855D02*
G01X0007366Y-008827D01*
G01X0007366Y-008827D02*
G01X0007352Y-008799D01*
G01X0007352Y-008799D02*
G01X0007338Y-008742D01*
G01X0007338Y-008742D02*
G01X0007338Y-008700D01*
G01X0007338Y-008700D02*
G01X0007352Y-008644D01*
G01X0007352Y-008644D02*
G01X0007366Y-008616D01*
G01X0007366Y-008616D02*
G01X0007394Y-008588D01*
G01X0007394Y-008588D02*
G01X0007436Y-008574D01*
G01X0007436Y-008574D02*
G01X0007464Y-008574D01*
G01X0007464Y-008574D02*
G01X0007507Y-008588D01*
G01X0007507Y-008588D02*
G01X0007521Y-008602D01*
G01X0007619Y-008574D02*
G01X0007802Y-008574D01*
G01X0007802Y-008574D02*
G01X0007703Y-008686D01*
G01X0007703Y-008686D02*
G01X0007746Y-008686D01*
G01X0007746Y-008686D02*
G01X0007774Y-008700D01*
G01X0007774Y-008700D02*
G01X0007788Y-008714D01*
G01X0007788Y-008714D02*
G01X0007802Y-008742D01*
G01X0007802Y-008742D02*
G01X0007802Y-008813D01*
G01X0007802Y-008813D02*
G01X0007788Y-008841D01*
G01X0007788Y-008841D02*
G01X0007774Y-008855D01*
G01X0007774Y-008855D02*
G01X0007746Y-008869D01*
G01X0007746Y-008869D02*
G01X0007661Y-008869D01*
G01X0007661Y-008869D02*
G01X0007633Y-008855D01*
G01X0007633Y-008855D02*
G01X0007619Y-008841D01*
G01X0009711Y-008869D02*
G01X0009711Y-008574D01*
G01X0010021Y-008841D02*
G01X0010007Y-008855D01*
G01X0010007Y-008855D02*
G01X0009964Y-008869D01*
G01X0009964Y-008869D02*
G01X0009936Y-008869D01*
G01X0009936Y-008869D02*
G01X0009894Y-008855D01*
G01X0009894Y-008855D02*
G01X0009866Y-008827D01*
G01X0009866Y-008827D02*
G01X0009852Y-008799D01*
G01X0009852Y-008799D02*
G01X0009838Y-008742D01*
G01X0009838Y-008742D02*
G01X0009838Y-008700D01*
G01X0009838Y-008700D02*
G01X0009852Y-008644D01*
G01X0009852Y-008644D02*
G01X0009866Y-008616D01*
G01X0009866Y-008616D02*
G01X0009894Y-008588D01*
G01X0009894Y-008588D02*
G01X0009936Y-008574D01*
G01X0009936Y-008574D02*
G01X0009964Y-008574D01*
G01X0009964Y-008574D02*
G01X0010007Y-008588D01*
G01X0010007Y-008588D02*
G01X0010021Y-008602D01*
G01X0010133Y-008602D02*
G01X0010147Y-008588D01*
G01X0010147Y-008588D02*
G01X0010175Y-008574D01*
G01X0010175Y-008574D02*
G01X0010246Y-008574D01*
G01X0010246Y-008574D02*
G01X0010274Y-008588D01*
G01X0010274Y-008588D02*
G01X0010288Y-008602D01*
G01X0010288Y-008602D02*
G01X0010302Y-008630D01*
G01X0010302Y-008630D02*
G01X0010302Y-008658D01*
G01X0010302Y-008658D02*
G01X0010288Y-008700D01*
G01X0010288Y-008700D02*
G01X0010119Y-008869D01*
G01X0010119Y-008869D02*
G01X0010302Y-008869D01*
G01X0000000Y-019685D02*
G54D11*
G01X0000960Y-027940D02*
G01X0000989Y-027856D01*
G01X0000989Y-027856D02*
G01X0000989Y-027715D01*
G01X0000989Y-027715D02*
G01X0000960Y-027659D01*
G01X0000960Y-027659D02*
G01X0000932Y-027631D01*
G01X0000932Y-027631D02*
G01X0000876Y-027603D01*
G01X0000876Y-027603D02*
G01X0000820Y-027603D01*
G01X0000820Y-027603D02*
G01X0000764Y-027631D01*
G01X0000764Y-027631D02*
G01X0000735Y-027659D01*
G01X0000735Y-027659D02*
G01X0000707Y-027715D01*
G01X0000707Y-027715D02*
G01X0000679Y-027828D01*
G01X0000679Y-027828D02*
G01X0000651Y-027884D01*
G01X0000651Y-027884D02*
G01X0000623Y-027912D01*
G01X0000623Y-027912D02*
G01X0000567Y-027940D01*
G01X0000567Y-027940D02*
G01X0000510Y-027940D01*
G01X0000510Y-027940D02*
G01X0000454Y-027912D01*
G01X0000454Y-027912D02*
G01X0000426Y-027884D01*
G01X0000426Y-027884D02*
G01X0000398Y-027828D01*
G01X0000398Y-027828D02*
G01X0000398Y-027687D01*
G01X0000398Y-027687D02*
G01X0000426Y-027603D01*
G01X0000960Y-027378D02*
G01X0000989Y-027294D01*
G01X0000989Y-027294D02*
G01X0000989Y-027153D01*
G01X0000989Y-027153D02*
G01X0000960Y-027097D01*
G01X0000960Y-027097D02*
G01X0000932Y-027069D01*
G01X0000932Y-027069D02*
G01X0000876Y-027041D01*
G01X0000876Y-027041D02*
G01X0000820Y-027041D01*
G01X0000820Y-027041D02*
G01X0000764Y-027069D01*
G01X0000764Y-027069D02*
G01X0000735Y-027097D01*
G01X0000735Y-027097D02*
G01X0000707Y-027153D01*
G01X0000707Y-027153D02*
G01X0000679Y-027265D01*
G01X0000679Y-027265D02*
G01X0000651Y-027322D01*
G01X0000651Y-027322D02*
G01X0000623Y-027350D01*
G01X0000623Y-027350D02*
G01X0000567Y-027378D01*
G01X0000567Y-027378D02*
G01X0000510Y-027378D01*
G01X0000510Y-027378D02*
G01X0000454Y-027350D01*
G01X0000454Y-027350D02*
G01X0000426Y-027322D01*
G01X0000426Y-027322D02*
G01X0000398Y-027265D01*
G01X0000398Y-027265D02*
G01X0000398Y-027125D01*
G01X0000398Y-027125D02*
G01X0000426Y-027041D01*
G01X0000960Y-026816D02*
G01X0000989Y-026731D01*
G01X0000989Y-026731D02*
G01X0000989Y-026591D01*
G01X0000989Y-026591D02*
G01X0000960Y-026534D01*
G01X0000960Y-026534D02*
G01X0000932Y-026506D01*
G01X0000932Y-026506D02*
G01X0000876Y-026478D01*
G01X0000876Y-026478D02*
G01X0000820Y-026478D01*
G01X0000820Y-026478D02*
G01X0000764Y-026506D01*
G01X0000764Y-026506D02*
G01X0000735Y-026534D01*
G01X0000735Y-026534D02*
G01X0000707Y-026591D01*
G01X0000707Y-026591D02*
G01X0000679Y-026703D01*
G01X0000679Y-026703D02*
G01X0000651Y-026759D01*
G01X0000651Y-026759D02*
G01X0000623Y-026787D01*
G01X0000623Y-026787D02*
G01X0000567Y-026816D01*
G01X0000567Y-026816D02*
G01X0000510Y-026816D01*
G01X0000510Y-026816D02*
G01X0000454Y-026787D01*
G01X0000454Y-026787D02*
G01X0000426Y-026759D01*
G01X0000426Y-026759D02*
G01X0000398Y-026703D01*
G01X0000398Y-026703D02*
G01X0000398Y-026562D01*
G01X0000398Y-026562D02*
G01X0000426Y-026478D01*
G01X0000398Y-026281D02*
G01X0000398Y-025888D01*
G01X0000398Y-025888D02*
G01X0000989Y-026141D01*
G01X0000989Y-025213D02*
G01X0000398Y-025213D01*
G01X0000398Y-025213D02*
G01X0000820Y-025016D01*
G01X0000820Y-025016D02*
G01X0000398Y-024819D01*
G01X0000398Y-024819D02*
G01X0000989Y-024819D01*
G01X0000989Y-024453D02*
G01X0000960Y-024510D01*
G01X0000960Y-024510D02*
G01X0000932Y-024538D01*
G01X0000932Y-024538D02*
G01X0000876Y-024566D01*
G01X0000876Y-024566D02*
G01X0000707Y-024566D01*
G01X0000707Y-024566D02*
G01X0000651Y-024538D01*
G01X0000651Y-024538D02*
G01X0000623Y-024510D01*
G01X0000623Y-024510D02*
G01X0000595Y-024453D01*
G01X0000595Y-024453D02*
G01X0000595Y-024369D01*
G01X0000595Y-024369D02*
G01X0000623Y-024313D01*
G01X0000623Y-024313D02*
G01X0000651Y-024285D01*
G01X0000651Y-024285D02*
G01X0000707Y-024256D01*
G01X0000707Y-024256D02*
G01X0000876Y-024256D01*
G01X0000876Y-024256D02*
G01X0000932Y-024285D01*
G01X0000932Y-024285D02*
G01X0000960Y-024313D01*
G01X0000960Y-024313D02*
G01X0000989Y-024369D01*
G01X0000989Y-024369D02*
G01X0000989Y-024453D01*
G01X0000989Y-023750D02*
G01X0000398Y-023750D01*
G01X0000960Y-023750D02*
G01X0000989Y-023807D01*
G01X0000989Y-023807D02*
G01X0000989Y-023919D01*
G01X0000989Y-023919D02*
G01X0000960Y-023975D01*
G01X0000960Y-023975D02*
G01X0000932Y-024003D01*
G01X0000932Y-024003D02*
G01X0000876Y-024032D01*
G01X0000876Y-024032D02*
G01X0000707Y-024032D01*
G01X0000707Y-024032D02*
G01X0000651Y-024003D01*
G01X0000651Y-024003D02*
G01X0000623Y-023975D01*
G01X0000623Y-023975D02*
G01X0000595Y-023919D01*
G01X0000595Y-023919D02*
G01X0000595Y-023807D01*
G01X0000595Y-023807D02*
G01X0000623Y-023750D01*
G01X0000960Y-023244D02*
G01X0000989Y-023300D01*
G01X0000989Y-023300D02*
G01X0000989Y-023413D01*
G01X0000989Y-023413D02*
G01X0000960Y-023469D01*
G01X0000960Y-023469D02*
G01X0000904Y-023497D01*
G01X0000904Y-023497D02*
G01X0000679Y-023497D01*
G01X0000679Y-023497D02*
G01X0000623Y-023469D01*
G01X0000623Y-023469D02*
G01X0000595Y-023413D01*
G01X0000595Y-023413D02*
G01X0000595Y-023300D01*
G01X0000595Y-023300D02*
G01X0000623Y-023244D01*
G01X0000623Y-023244D02*
G01X0000679Y-023216D01*
G01X0000679Y-023216D02*
G01X0000735Y-023216D01*
G01X0000735Y-023216D02*
G01X0000792Y-023497D01*
G01X0000989Y-022963D02*
G01X0000595Y-022963D01*
G01X0000651Y-022963D02*
G01X0000623Y-022935D01*
G01X0000623Y-022935D02*
G01X0000595Y-022879D01*
G01X0000595Y-022879D02*
G01X0000595Y-022794D01*
G01X0000595Y-022794D02*
G01X0000623Y-022738D01*
G01X0000623Y-022738D02*
G01X0000679Y-022710D01*
G01X0000679Y-022710D02*
G01X0000989Y-022710D01*
G01X0000679Y-022710D02*
G01X0000623Y-022682D01*
G01X0000623Y-022682D02*
G01X0000595Y-022625D01*
G01X0000595Y-022625D02*
G01X0000595Y-022541D01*
G01X0000595Y-022541D02*
G01X0000623Y-022485D01*
G01X0000623Y-022485D02*
G01X0000679Y-022457D01*
G01X0000679Y-022457D02*
G01X0000989Y-022457D01*
G54D12*
G01X0012000Y-028935D02*
G01X0013250Y-028935D01*
G01X0009750Y-028935D02*
G01X0010500Y-028935D01*
G01X0007250Y-028935D02*
G01X0007750Y-028935D01*
G01X0000250Y-028935D02*
G01X0005000Y-028935D01*
G54D13*
G01X0005450Y-026385D02*
G01X0005450Y-026435D01*
G01X0005450Y-026435D02*
G01X0007550Y-026435D01*
G01X0007550Y-024935D02*
G01X0005450Y-024935D01*
G01X0005450Y-024935D02*
G01X0005450Y-026385D01*
G01X0005450Y-025485D02*
G01X0005650Y-025485D01*
G01X0005650Y-025485D02*
G01X0005650Y-025885D01*
G01X0005650Y-025885D02*
G01X0005450Y-025885D01*
G01X0007550Y-024935D02*
G01X0007550Y-026435D01*
G01X0005200Y-025685D02*
G01X0004300Y-025685D01*
G01X0004300Y-025685D02*
G01X0004300Y-025185D01*
G01X0004300Y-025185D02*
G01X0005200Y-025185D01*
G01X0005200Y-025185D02*
G01X0005200Y-025685D01*
G01X0001300Y-030185D02*
G01X0002200Y-030185D01*
G01X0002200Y-030185D02*
G01X0002200Y-030685D01*
G01X0002200Y-030685D02*
G01X0001300Y-030685D01*
G01X0001300Y-030685D02*
G01X0001300Y-030185D01*
G01X0002550Y-030935D02*
G01X0003450Y-030935D01*
G01X0003450Y-030935D02*
G01X0003450Y-031435D01*
G01X0003450Y-031435D02*
G01X0002550Y-031435D01*
G01X0002550Y-031435D02*
G01X0002550Y-030935D01*
G01X0002550Y-030185D02*
G01X0003450Y-030185D01*
G01X0003450Y-030185D02*
G01X0003450Y-030685D01*
G01X0003450Y-030685D02*
G01X0002550Y-030685D01*
G01X0002550Y-030685D02*
G01X0002550Y-030185D01*
G01X0001500Y-024885D02*
G01X0001500Y-023985D01*
G01X0001500Y-023985D02*
G01X0002000Y-023985D01*
G01X0002000Y-023985D02*
G01X0002000Y-024885D01*
G01X0002000Y-024885D02*
G01X0001500Y-024885D01*
G01X0009550Y-030685D02*
G01X0010450Y-030685D01*
G01X0010450Y-030685D02*
G01X0010450Y-031185D01*
G01X0010450Y-031185D02*
G01X0009550Y-031185D01*
G01X0009550Y-031185D02*
G01X0009550Y-030685D01*
G01X0001300Y-029435D02*
G01X0002200Y-029435D01*
G01X0002200Y-029435D02*
G01X0002200Y-029935D01*
G01X0002200Y-029935D02*
G01X0001300Y-029935D01*
G01X0001300Y-029935D02*
G01X0001300Y-029435D01*
G01X0002550Y-029435D02*
G01X0003450Y-029435D01*
G01X0003450Y-029435D02*
G01X0003450Y-029935D01*
G01X0003450Y-029935D02*
G01X0002550Y-029935D01*
G01X0002550Y-029935D02*
G01X0002550Y-029435D01*
G54D14*
G01X0003250Y-025185D02*
G01X0003250Y-026185D01*
G01X0003250Y-026185D02*
G01X0001250Y-026185D01*
G01X0001250Y-026185D02*
G01X0001250Y-025185D01*
G01X0001250Y-025185D02*
G01X0003250Y-025185D01*
G54D13*
G01X0009850Y-032385D02*
G01X0009850Y-032985D01*
G01X0009900Y-033135D02*
G01X0009900Y-032235D01*
G01X0009950Y-032135D02*
G01X0009950Y-033235D01*
G01X0010000Y-033335D02*
G01X0010000Y-032035D01*
G01X0010050Y-031985D02*
G01X0010050Y-033385D01*
G01X0012200Y-032685D02*
G75*
G03X0012200Y-032685I-001200J0000000D01*
G01X0009700Y-031385D02*
G01X0009700Y-033985D01*
G01X0009700Y-033985D02*
G01X0012000Y-033985D01*
G01X0012000Y-033985D02*
G01X0012300Y-033685D01*
G01X0012300Y-033685D02*
G01X0012300Y-031685D01*
G01X0012300Y-031685D02*
G01X0012000Y-031385D01*
G01X0012000Y-031385D02*
G01X0009700Y-031385D01*
G01X0011850Y-032685D02*
G01X0011550Y-032685D01*
G01X0011700Y-032535D02*
G01X0011700Y-032835D01*
G54D15*
G01X0002750Y-034185D02*
G01X0002750Y-037185D01*
G01X0010750Y-037185D02*
G01X0010750Y-034185D01*
G01X0010750Y-036685D02*
G01X0002750Y-036685D01*
G01X0002750Y-034185D02*
G01X0010750Y-034185D01*
G01X0002750Y-037185D02*
G01X0010750Y-037185D01*
G01X0009750Y-019685D02*
G01X0009750Y-022685D01*
G01X0003750Y-019685D02*
G01X0003750Y-022685D01*
G01X0009750Y-020185D02*
G01X0003750Y-020185D01*
G01X0009750Y-022685D02*
G01X0003750Y-022685D01*
G01X0009750Y-019685D02*
G01X0003750Y-019685D01*
G54D13*
G01X0001300Y-030935D02*
G01X0002200Y-030935D01*
G01X0002200Y-030935D02*
G01X0002200Y-031435D01*
G01X0002200Y-031435D02*
G01X0001300Y-031435D01*
G01X0001300Y-031435D02*
G01X0001300Y-030935D01*
G54D16*
G01X0012900Y-035685D02*
G75*
G03X0012900Y-035685I-000900J0000000D01*
G01X0002400Y-035685D02*
G75*
G03X0002400Y-035685I-000900J0000000D01*
G01X0012900Y-021185D02*
G75*
G03X0012900Y-021185I-000900J0000000D01*
G01X0002400Y-021185D02*
G75*
G03X0002400Y-021185I-000900J0000000D01*
G54D13*
G01X0009500Y-025985D02*
G01X0009500Y-026885D01*
G01X0009500Y-026885D02*
G01X0009000Y-026885D01*
G01X0009000Y-026885D02*
G01X0009000Y-025985D01*
G01X0009000Y-025985D02*
G01X0009500Y-025985D01*
G01X0004300Y-027435D02*
G01X0005200Y-027435D01*
G01X0005200Y-027435D02*
G01X0005200Y-027935D01*
G01X0005200Y-027935D02*
G01X0004300Y-027935D01*
G01X0004300Y-027935D02*
G01X0004300Y-027435D01*
G01X0010250Y-029485D02*
G01X0010250Y-030385D01*
G01X0010250Y-030385D02*
G01X0009750Y-030385D01*
G01X0009750Y-030385D02*
G01X0009750Y-029485D01*
G01X0009750Y-029485D02*
G01X0010250Y-029485D01*
G01X0004300Y-029935D02*
G01X0005200Y-029935D01*
G01X0005200Y-029935D02*
G01X0005200Y-030435D01*
G01X0005200Y-030435D02*
G01X0004300Y-030435D01*
G01X0004300Y-030435D02*
G01X0004300Y-029935D01*
G01X0012050Y-026185D02*
G01X0012950Y-026185D01*
G01X0012950Y-026185D02*
G01X0012950Y-026685D01*
G01X0012950Y-026685D02*
G01X0012050Y-026685D01*
G01X0012050Y-026685D02*
G01X0012050Y-026185D01*
G01X0003450Y-027935D02*
G01X0002550Y-027935D01*
G01X0002550Y-027935D02*
G01X0002550Y-027435D01*
G01X0002550Y-027435D02*
G01X0003450Y-027435D01*
G01X0003450Y-027435D02*
G01X0003450Y-027935D01*
G01X0002200Y-027935D02*
G01X0001300Y-027935D01*
G01X0001300Y-027935D02*
G01X0001300Y-027435D01*
G01X0001300Y-027435D02*
G01X0002200Y-027435D01*
G01X0002200Y-027435D02*
G01X0002200Y-027935D01*
G54D15*
G01X0010750Y-030935D02*
G01X0010750Y-030935D01*
G01X0011750Y-030935D02*
G01X0010750Y-030935D01*
G01X0010750Y-030935D02*
G01X0010750Y-030935D01*
G01X0010750Y-030935D02*
G01X0010750Y-026935D01*
G01X0010750Y-026935D02*
G01X0011750Y-026935D01*
G01X0011750Y-026935D02*
G01X0011750Y-030935D01*
G01X0011750Y-029935D02*
G01X0010750Y-029935D01*
G54D13*
G01X0011550Y-023285D02*
G01X0010950Y-023285D01*
G01X0010800Y-023335D02*
G01X0011700Y-023335D01*
G01X0011800Y-023385D02*
G01X0010700Y-023385D01*
G01X0010600Y-023435D02*
G01X0011900Y-023435D01*
G01X0011950Y-023485D02*
G01X0010550Y-023485D01*
G01X0012450Y-024435D02*
G75*
G03X0012450Y-024435I-001200J0000000D01*
G01X0012550Y-023135D02*
G01X0009950Y-023135D01*
G01X0009950Y-023135D02*
G01X0009950Y-025435D01*
G01X0009950Y-025435D02*
G01X0010250Y-025735D01*
G01X0010250Y-025735D02*
G01X0012250Y-025735D01*
G01X0012250Y-025735D02*
G01X0012550Y-025435D01*
G01X0012550Y-025435D02*
G01X0012550Y-023135D01*
G01X0011250Y-025285D02*
G01X0011250Y-024985D01*
G01X0011400Y-025135D02*
G01X0011100Y-025135D01*
G54D17*
G01X0004850Y-031735D02*
G01X0008650Y-031735D01*
G01X0008650Y-031735D02*
G01X0008650Y-033235D01*
G01X0008650Y-033235D02*
G01X0004850Y-033235D01*
G01X0004850Y-033235D02*
G01X0004850Y-031735D01*
G01X0004850Y-032235D02*
G01X0005150Y-032235D01*
G01X0005150Y-032235D02*
G01X0005150Y-032635D01*
G01X0005150Y-032635D02*
G01X0004850Y-032635D01*
G54D13*
G01X0008697Y-023659D02*
G01X0008697Y-024211D01*
G01X0008854Y-023659D02*
G01X0008146Y-023659D01*
G01X0008146Y-023659D02*
G01X0008146Y-024211D01*
G01X0008146Y-024211D02*
G01X0008854Y-024211D01*
G01X0008854Y-024211D02*
G01X0008854Y-023659D01*
G01X0008697Y-022909D02*
G01X0008697Y-023461D01*
G01X0008854Y-022909D02*
G01X0008146Y-022909D01*
G01X0008146Y-022909D02*
G01X0008146Y-023461D01*
G01X0008146Y-023461D02*
G01X0008854Y-023461D01*
G01X0008854Y-023461D02*
G01X0008854Y-022909D01*
G01X0004447Y-023659D02*
G01X0004447Y-024211D01*
G01X0004604Y-023659D02*
G01X0003896Y-023659D01*
G01X0003896Y-023659D02*
G01X0003896Y-024211D01*
G01X0003896Y-024211D02*
G01X0004604Y-024211D01*
G01X0004604Y-024211D02*
G01X0004604Y-023659D01*
G01X0004447Y-022909D02*
G01X0004447Y-023461D01*
G01X0004604Y-022909D02*
G01X0003896Y-022909D01*
G01X0003896Y-022909D02*
G01X0003896Y-023461D01*
G01X0003896Y-023461D02*
G01X0004604Y-023461D01*
G01X0004604Y-023461D02*
G01X0004604Y-022909D01*
G54D18*
G01X0005500Y-029685D02*
G01X0005500Y-028185D01*
G01X0005500Y-028185D02*
G01X0007000Y-028185D01*
G01X0007000Y-028185D02*
G01X0007000Y-029685D01*
G01X0007000Y-029685D02*
G01X0005500Y-029685D01*
G01X0005875Y-029525D02*
G75*
G03X0005875Y-029525I-000111J0000000D01*
G01X0009500Y-028185D02*
G01X0009500Y-029685D01*
G01X0009500Y-029685D02*
G01X0008000Y-029685D01*
G01X0008000Y-029685D02*
G01X0008000Y-028185D01*
G01X0008000Y-028185D02*
G01X0009500Y-028185D01*
G01X0009347Y-028344D02*
G75*
G03X0009347Y-028344I-000111J0000000D01*
G54D19*
G01X0007711Y-025304D02*
G01X0007711Y-025009D01*
G01X0008021Y-025276D02*
G01X0008007Y-025290D01*
G01X0008007Y-025290D02*
G01X0007964Y-025304D01*
G01X0007964Y-025304D02*
G01X0007936Y-025304D01*
G01X0007936Y-025304D02*
G01X0007894Y-025290D01*
G01X0007894Y-025290D02*
G01X0007866Y-025262D01*
G01X0007866Y-025262D02*
G01X0007852Y-025234D01*
G01X0007852Y-025234D02*
G01X0007838Y-025177D01*
G01X0007838Y-025177D02*
G01X0007838Y-025135D01*
G01X0007838Y-025135D02*
G01X0007852Y-025079D01*
G01X0007852Y-025079D02*
G01X0007866Y-025051D01*
G01X0007866Y-025051D02*
G01X0007894Y-025023D01*
G01X0007894Y-025023D02*
G01X0007936Y-025009D01*
G01X0007936Y-025009D02*
G01X0007964Y-025009D01*
G01X0007964Y-025009D02*
G01X0008007Y-025023D01*
G01X0008007Y-025023D02*
G01X0008021Y-025037D01*
G01X0008302Y-025304D02*
G01X0008133Y-025304D01*
G01X0008217Y-025304D02*
G01X0008217Y-025009D01*
G01X0008217Y-025009D02*
G01X0008189Y-025051D01*
G01X0008189Y-025051D02*
G01X0008161Y-025079D01*
G01X0008161Y-025079D02*
G01X0008133Y-025093D01*
G01X0005543Y-026304D02*
G01X0005543Y-026009D01*
G01X0005543Y-026009D02*
G01X0005642Y-026220D01*
G01X0005642Y-026220D02*
G01X0005740Y-026009D01*
G01X0005740Y-026009D02*
G01X0005740Y-026304D01*
G01X0006050Y-026276D02*
G01X0006035Y-026290D01*
G01X0006035Y-026290D02*
G01X0005993Y-026304D01*
G01X0005993Y-026304D02*
G01X0005965Y-026304D01*
G01X0005965Y-026304D02*
G01X0005923Y-026290D01*
G01X0005923Y-026290D02*
G01X0005895Y-026262D01*
G01X0005895Y-026262D02*
G01X0005881Y-026234D01*
G01X0005881Y-026234D02*
G01X0005867Y-026177D01*
G01X0005867Y-026177D02*
G01X0005867Y-026135D01*
G01X0005867Y-026135D02*
G01X0005881Y-026079D01*
G01X0005881Y-026079D02*
G01X0005895Y-026051D01*
G01X0005895Y-026051D02*
G01X0005923Y-026023D01*
G01X0005923Y-026023D02*
G01X0005965Y-026009D01*
G01X0005965Y-026009D02*
G01X0005993Y-026009D01*
G01X0005993Y-026009D02*
G01X0006035Y-026023D01*
G01X0006035Y-026023D02*
G01X0006050Y-026037D01*
G01X0006176Y-026304D02*
G01X0006176Y-026009D01*
G01X0006176Y-026009D02*
G01X0006289Y-026009D01*
G01X0006289Y-026009D02*
G01X0006317Y-026023D01*
G01X0006317Y-026023D02*
G01X0006331Y-026037D01*
G01X0006331Y-026037D02*
G01X0006345Y-026065D01*
G01X0006345Y-026065D02*
G01X0006345Y-026107D01*
G01X0006345Y-026107D02*
G01X0006331Y-026135D01*
G01X0006331Y-026135D02*
G01X0006317Y-026149D01*
G01X0006317Y-026149D02*
G01X0006289Y-026163D01*
G01X0006289Y-026163D02*
G01X0006176Y-026163D01*
G01X0006457Y-026037D02*
G01X0006471Y-026023D01*
G01X0006471Y-026023D02*
G01X0006500Y-026009D01*
G01X0006500Y-026009D02*
G01X0006570Y-026009D01*
G01X0006570Y-026009D02*
G01X0006598Y-026023D01*
G01X0006598Y-026023D02*
G01X0006612Y-026037D01*
G01X0006612Y-026037D02*
G01X0006626Y-026065D01*
G01X0006626Y-026065D02*
G01X0006626Y-026093D01*
G01X0006626Y-026093D02*
G01X0006612Y-026135D01*
G01X0006612Y-026135D02*
G01X0006443Y-026304D01*
G01X0006443Y-026304D02*
G01X0006626Y-026304D01*
G01X0006893Y-026009D02*
G01X0006753Y-026009D01*
G01X0006753Y-026009D02*
G01X0006739Y-026149D01*
G01X0006739Y-026149D02*
G01X0006753Y-026135D01*
G01X0006753Y-026135D02*
G01X0006781Y-026121D01*
G01X0006781Y-026121D02*
G01X0006851Y-026121D01*
G01X0006851Y-026121D02*
G01X0006879Y-026135D01*
G01X0006879Y-026135D02*
G01X0006893Y-026149D01*
G01X0006893Y-026149D02*
G01X0006907Y-026177D01*
G01X0006907Y-026177D02*
G01X0006907Y-026248D01*
G01X0006907Y-026248D02*
G01X0006893Y-026276D01*
G01X0006893Y-026276D02*
G01X0006879Y-026290D01*
G01X0006879Y-026290D02*
G01X0006851Y-026304D01*
G01X0006851Y-026304D02*
G01X0006781Y-026304D01*
G01X0006781Y-026304D02*
G01X0006753Y-026290D01*
G01X0006753Y-026290D02*
G01X0006739Y-026276D01*
G01X0007174Y-026009D02*
G01X0007034Y-026009D01*
G01X0007034Y-026009D02*
G01X0007020Y-026149D01*
G01X0007020Y-026149D02*
G01X0007034Y-026135D01*
G01X0007034Y-026135D02*
G01X0007062Y-026121D01*
G01X0007062Y-026121D02*
G01X0007132Y-026121D01*
G01X0007132Y-026121D02*
G01X0007160Y-026135D01*
G01X0007160Y-026135D02*
G01X0007174Y-026149D01*
G01X0007174Y-026149D02*
G01X0007188Y-026177D01*
G01X0007188Y-026177D02*
G01X0007188Y-026248D01*
G01X0007188Y-026248D02*
G01X0007174Y-026276D01*
G01X0007174Y-026276D02*
G01X0007160Y-026290D01*
G01X0007160Y-026290D02*
G01X0007132Y-026304D01*
G01X0007132Y-026304D02*
G01X0007062Y-026304D01*
G01X0007062Y-026304D02*
G01X0007034Y-026290D01*
G01X0007034Y-026290D02*
G01X0007020Y-026276D01*
G01X0007470Y-026304D02*
G01X0007301Y-026304D01*
G01X0007385Y-026304D02*
G01X0007385Y-026009D01*
G01X0007385Y-026009D02*
G01X0007357Y-026051D01*
G01X0007357Y-026051D02*
G01X0007329Y-026079D01*
G01X0007329Y-026079D02*
G01X0007301Y-026093D01*
G01X0003700Y-025554D02*
G01X0003602Y-025413D01*
G01X0003532Y-025554D02*
G01X0003532Y-025259D01*
G01X0003532Y-025259D02*
G01X0003644Y-025259D01*
G01X0003644Y-025259D02*
G01X0003672Y-025273D01*
G01X0003672Y-025273D02*
G01X0003686Y-025287D01*
G01X0003686Y-025287D02*
G01X0003700Y-025315D01*
G01X0003700Y-025315D02*
G01X0003700Y-025357D01*
G01X0003700Y-025357D02*
G01X0003686Y-025385D01*
G01X0003686Y-025385D02*
G01X0003672Y-025399D01*
G01X0003672Y-025399D02*
G01X0003644Y-025413D01*
G01X0003644Y-025413D02*
G01X0003532Y-025413D01*
G01X0003799Y-025259D02*
G01X0003982Y-025259D01*
G01X0003982Y-025259D02*
G01X0003883Y-025371D01*
G01X0003883Y-025371D02*
G01X0003925Y-025371D01*
G01X0003925Y-025371D02*
G01X0003953Y-025385D01*
G01X0003953Y-025385D02*
G01X0003967Y-025399D01*
G01X0003967Y-025399D02*
G01X0003982Y-025427D01*
G01X0003982Y-025427D02*
G01X0003982Y-025498D01*
G01X0003982Y-025498D02*
G01X0003967Y-025526D01*
G01X0003967Y-025526D02*
G01X0003953Y-025540D01*
G01X0003953Y-025540D02*
G01X0003925Y-025554D01*
G01X0003925Y-025554D02*
G01X0003841Y-025554D01*
G01X0003841Y-025554D02*
G01X0003813Y-025540D01*
G01X0003813Y-025540D02*
G01X0003799Y-025526D01*
G01X0000700Y-030554D02*
G01X0000602Y-030413D01*
G01X0000532Y-030554D02*
G01X0000532Y-030259D01*
G01X0000532Y-030259D02*
G01X0000644Y-030259D01*
G01X0000644Y-030259D02*
G01X0000672Y-030273D01*
G01X0000672Y-030273D02*
G01X0000686Y-030287D01*
G01X0000686Y-030287D02*
G01X0000700Y-030315D01*
G01X0000700Y-030315D02*
G01X0000700Y-030357D01*
G01X0000700Y-030357D02*
G01X0000686Y-030385D01*
G01X0000686Y-030385D02*
G01X0000672Y-030399D01*
G01X0000672Y-030399D02*
G01X0000644Y-030413D01*
G01X0000644Y-030413D02*
G01X0000532Y-030413D01*
G01X0000813Y-030287D02*
G01X0000827Y-030273D01*
G01X0000827Y-030273D02*
G01X0000855Y-030259D01*
G01X0000855Y-030259D02*
G01X0000925Y-030259D01*
G01X0000925Y-030259D02*
G01X0000953Y-030273D01*
G01X0000953Y-030273D02*
G01X0000967Y-030287D01*
G01X0000967Y-030287D02*
G01X0000982Y-030315D01*
G01X0000982Y-030315D02*
G01X0000982Y-030343D01*
G01X0000982Y-030343D02*
G01X0000967Y-030385D01*
G01X0000967Y-030385D02*
G01X0000799Y-030554D01*
G01X0000799Y-030554D02*
G01X0000982Y-030554D01*
G01X0004032Y-031804D02*
G01X0004032Y-031509D01*
G01X0004032Y-031509D02*
G01X0004102Y-031509D01*
G01X0004102Y-031509D02*
G01X0004144Y-031523D01*
G01X0004144Y-031523D02*
G01X0004172Y-031551D01*
G01X0004172Y-031551D02*
G01X0004186Y-031579D01*
G01X0004186Y-031579D02*
G01X0004200Y-031635D01*
G01X0004200Y-031635D02*
G01X0004200Y-031677D01*
G01X0004200Y-031677D02*
G01X0004186Y-031734D01*
G01X0004186Y-031734D02*
G01X0004172Y-031762D01*
G01X0004172Y-031762D02*
G01X0004144Y-031790D01*
G01X0004144Y-031790D02*
G01X0004102Y-031804D01*
G01X0004102Y-031804D02*
G01X0004032Y-031804D01*
G01X0004482Y-031804D02*
G01X0004313Y-031804D01*
G01X0004397Y-031804D02*
G01X0004397Y-031509D01*
G01X0004397Y-031509D02*
G01X0004369Y-031551D01*
G01X0004369Y-031551D02*
G01X0004341Y-031579D01*
G01X0004341Y-031579D02*
G01X0004313Y-031593D01*
G01X0004032Y-031054D02*
G01X0004032Y-030759D01*
G01X0004032Y-030759D02*
G01X0004102Y-030759D01*
G01X0004102Y-030759D02*
G01X0004144Y-030773D01*
G01X0004144Y-030773D02*
G01X0004172Y-030801D01*
G01X0004172Y-030801D02*
G01X0004186Y-030829D01*
G01X0004186Y-030829D02*
G01X0004200Y-030885D01*
G01X0004200Y-030885D02*
G01X0004200Y-030927D01*
G01X0004200Y-030927D02*
G01X0004186Y-030984D01*
G01X0004186Y-030984D02*
G01X0004172Y-031012D01*
G01X0004172Y-031012D02*
G01X0004144Y-031040D01*
G01X0004144Y-031040D02*
G01X0004102Y-031054D01*
G01X0004102Y-031054D02*
G01X0004032Y-031054D01*
G01X0004313Y-030787D02*
G01X0004327Y-030773D01*
G01X0004327Y-030773D02*
G01X0004355Y-030759D01*
G01X0004355Y-030759D02*
G01X0004425Y-030759D01*
G01X0004425Y-030759D02*
G01X0004453Y-030773D01*
G01X0004453Y-030773D02*
G01X0004467Y-030787D01*
G01X0004467Y-030787D02*
G01X0004482Y-030815D01*
G01X0004482Y-030815D02*
G01X0004482Y-030843D01*
G01X0004482Y-030843D02*
G01X0004467Y-030885D01*
G01X0004467Y-030885D02*
G01X0004299Y-031054D01*
G01X0004299Y-031054D02*
G01X0004482Y-031054D01*
G01X0002450Y-024554D02*
G01X0002352Y-024413D01*
G01X0002282Y-024554D02*
G01X0002282Y-024259D01*
G01X0002282Y-024259D02*
G01X0002394Y-024259D01*
G01X0002394Y-024259D02*
G01X0002422Y-024273D01*
G01X0002422Y-024273D02*
G01X0002436Y-024287D01*
G01X0002436Y-024287D02*
G01X0002450Y-024315D01*
G01X0002450Y-024315D02*
G01X0002450Y-024357D01*
G01X0002450Y-024357D02*
G01X0002436Y-024385D01*
G01X0002436Y-024385D02*
G01X0002422Y-024399D01*
G01X0002422Y-024399D02*
G01X0002394Y-024413D01*
G01X0002394Y-024413D02*
G01X0002282Y-024413D01*
G01X0002703Y-024357D02*
G01X0002703Y-024554D01*
G01X0002633Y-024245D02*
G01X0002563Y-024456D01*
G01X0002563Y-024456D02*
G01X0002746Y-024456D01*
G01X0009200Y-031526D02*
G01X0009186Y-031540D01*
G01X0009186Y-031540D02*
G01X0009144Y-031554D01*
G01X0009144Y-031554D02*
G01X0009116Y-031554D01*
G01X0009116Y-031554D02*
G01X0009074Y-031540D01*
G01X0009074Y-031540D02*
G01X0009046Y-031512D01*
G01X0009046Y-031512D02*
G01X0009032Y-031484D01*
G01X0009032Y-031484D02*
G01X0009017Y-031427D01*
G01X0009017Y-031427D02*
G01X0009017Y-031385D01*
G01X0009017Y-031385D02*
G01X0009032Y-031329D01*
G01X0009032Y-031329D02*
G01X0009046Y-031301D01*
G01X0009046Y-031301D02*
G01X0009074Y-031273D01*
G01X0009074Y-031273D02*
G01X0009116Y-031259D01*
G01X0009116Y-031259D02*
G01X0009144Y-031259D01*
G01X0009144Y-031259D02*
G01X0009186Y-031273D01*
G01X0009186Y-031273D02*
G01X0009200Y-031287D01*
G01X0009313Y-031287D02*
G01X0009327Y-031273D01*
G01X0009327Y-031273D02*
G01X0009355Y-031259D01*
G01X0009355Y-031259D02*
G01X0009425Y-031259D01*
G01X0009425Y-031259D02*
G01X0009453Y-031273D01*
G01X0009453Y-031273D02*
G01X0009467Y-031287D01*
G01X0009467Y-031287D02*
G01X0009482Y-031315D01*
G01X0009482Y-031315D02*
G01X0009482Y-031343D01*
G01X0009482Y-031343D02*
G01X0009467Y-031385D01*
G01X0009467Y-031385D02*
G01X0009299Y-031554D01*
G01X0009299Y-031554D02*
G01X0009482Y-031554D01*
G01X0000700Y-029804D02*
G01X0000602Y-029663D01*
G01X0000532Y-029804D02*
G01X0000532Y-029509D01*
G01X0000532Y-029509D02*
G01X0000644Y-029509D01*
G01X0000644Y-029509D02*
G01X0000672Y-029523D01*
G01X0000672Y-029523D02*
G01X0000686Y-029537D01*
G01X0000686Y-029537D02*
G01X0000700Y-029565D01*
G01X0000700Y-029565D02*
G01X0000700Y-029607D01*
G01X0000700Y-029607D02*
G01X0000686Y-029635D01*
G01X0000686Y-029635D02*
G01X0000672Y-029649D01*
G01X0000672Y-029649D02*
G01X0000644Y-029663D01*
G01X0000644Y-029663D02*
G01X0000532Y-029663D01*
G01X0000967Y-029509D02*
G01X0000827Y-029509D01*
G01X0000827Y-029509D02*
G01X0000813Y-029649D01*
G01X0000813Y-029649D02*
G01X0000827Y-029635D01*
G01X0000827Y-029635D02*
G01X0000855Y-029621D01*
G01X0000855Y-029621D02*
G01X0000925Y-029621D01*
G01X0000925Y-029621D02*
G01X0000953Y-029635D01*
G01X0000953Y-029635D02*
G01X0000967Y-029649D01*
G01X0000967Y-029649D02*
G01X0000982Y-029677D01*
G01X0000982Y-029677D02*
G01X0000982Y-029748D01*
G01X0000982Y-029748D02*
G01X0000967Y-029776D01*
G01X0000967Y-029776D02*
G01X0000953Y-029790D01*
G01X0000953Y-029790D02*
G01X0000925Y-029804D01*
G01X0000925Y-029804D02*
G01X0000855Y-029804D01*
G01X0000855Y-029804D02*
G01X0000827Y-029790D01*
G01X0000827Y-029790D02*
G01X0000813Y-029776D01*
G01X0003782Y-029804D02*
G01X0003782Y-029509D01*
G01X0003782Y-029509D02*
G01X0003852Y-029509D01*
G01X0003852Y-029509D02*
G01X0003894Y-029523D01*
G01X0003894Y-029523D02*
G01X0003922Y-029551D01*
G01X0003922Y-029551D02*
G01X0003936Y-029579D01*
G01X0003936Y-029579D02*
G01X0003950Y-029635D01*
G01X0003950Y-029635D02*
G01X0003950Y-029677D01*
G01X0003950Y-029677D02*
G01X0003936Y-029734D01*
G01X0003936Y-029734D02*
G01X0003922Y-029762D01*
G01X0003922Y-029762D02*
G01X0003894Y-029790D01*
G01X0003894Y-029790D02*
G01X0003852Y-029804D01*
G01X0003852Y-029804D02*
G01X0003782Y-029804D01*
G01X0004049Y-029509D02*
G01X0004232Y-029509D01*
G01X0004232Y-029509D02*
G01X0004133Y-029621D01*
G01X0004133Y-029621D02*
G01X0004175Y-029621D01*
G01X0004175Y-029621D02*
G01X0004203Y-029635D01*
G01X0004203Y-029635D02*
G01X0004217Y-029649D01*
G01X0004217Y-029649D02*
G01X0004232Y-029677D01*
G01X0004232Y-029677D02*
G01X0004232Y-029748D01*
G01X0004232Y-029748D02*
G01X0004217Y-029776D01*
G01X0004217Y-029776D02*
G01X0004203Y-029790D01*
G01X0004203Y-029790D02*
G01X0004175Y-029804D01*
G01X0004175Y-029804D02*
G01X0004091Y-029804D01*
G01X0004091Y-029804D02*
G01X0004063Y-029790D01*
G01X0004063Y-029790D02*
G01X0004049Y-029776D01*
G01X0002003Y-026259D02*
G01X0002003Y-026470D01*
G01X0002003Y-026470D02*
G01X0001989Y-026512D01*
G01X0001989Y-026512D02*
G01X0001961Y-026540D01*
G01X0001961Y-026540D02*
G01X0001919Y-026554D01*
G01X0001919Y-026554D02*
G01X0001891Y-026554D01*
G01X0002144Y-026554D02*
G01X0002144Y-026259D01*
G01X0002144Y-026259D02*
G01X0002257Y-026259D01*
G01X0002257Y-026259D02*
G01X0002285Y-026273D01*
G01X0002285Y-026273D02*
G01X0002299Y-026287D01*
G01X0002299Y-026287D02*
G01X0002313Y-026315D01*
G01X0002313Y-026315D02*
G01X0002313Y-026357D01*
G01X0002313Y-026357D02*
G01X0002299Y-026385D01*
G01X0002299Y-026385D02*
G01X0002285Y-026399D01*
G01X0002285Y-026399D02*
G01X0002257Y-026413D01*
G01X0002257Y-026413D02*
G01X0002144Y-026413D01*
G01X0002594Y-026554D02*
G01X0002425Y-026554D01*
G01X0002510Y-026554D02*
G01X0002510Y-026259D01*
G01X0002510Y-026259D02*
G01X0002482Y-026301D01*
G01X0002482Y-026301D02*
G01X0002453Y-026329D01*
G01X0002453Y-026329D02*
G01X0002425Y-026343D01*
G01X0011200Y-034526D02*
G01X0011186Y-034540D01*
G01X0011186Y-034540D02*
G01X0011144Y-034554D01*
G01X0011144Y-034554D02*
G01X0011116Y-034554D01*
G01X0011116Y-034554D02*
G01X0011074Y-034540D01*
G01X0011074Y-034540D02*
G01X0011046Y-034512D01*
G01X0011046Y-034512D02*
G01X0011032Y-034484D01*
G01X0011032Y-034484D02*
G01X0011017Y-034427D01*
G01X0011017Y-034427D02*
G01X0011017Y-034385D01*
G01X0011017Y-034385D02*
G01X0011032Y-034329D01*
G01X0011032Y-034329D02*
G01X0011046Y-034301D01*
G01X0011046Y-034301D02*
G01X0011074Y-034273D01*
G01X0011074Y-034273D02*
G01X0011116Y-034259D01*
G01X0011116Y-034259D02*
G01X0011144Y-034259D01*
G01X0011144Y-034259D02*
G01X0011186Y-034273D01*
G01X0011186Y-034273D02*
G01X0011200Y-034287D01*
G01X0011482Y-034554D02*
G01X0011313Y-034554D01*
G01X0011397Y-034554D02*
G01X0011397Y-034259D01*
G01X0011397Y-034259D02*
G01X0011369Y-034301D01*
G01X0011369Y-034301D02*
G01X0011341Y-034329D01*
G01X0011341Y-034329D02*
G01X0011313Y-034343D01*
G01X0002782Y-033804D02*
G01X0002782Y-033509D01*
G01X0002782Y-033509D02*
G01X0002894Y-033509D01*
G01X0002894Y-033509D02*
G01X0002922Y-033523D01*
G01X0002922Y-033523D02*
G01X0002936Y-033537D01*
G01X0002936Y-033537D02*
G01X0002950Y-033565D01*
G01X0002950Y-033565D02*
G01X0002950Y-033607D01*
G01X0002950Y-033607D02*
G01X0002936Y-033635D01*
G01X0002936Y-033635D02*
G01X0002922Y-033649D01*
G01X0002922Y-033649D02*
G01X0002894Y-033663D01*
G01X0002894Y-033663D02*
G01X0002782Y-033663D01*
G01X0003232Y-033804D02*
G01X0003063Y-033804D01*
G01X0003147Y-033804D02*
G01X0003147Y-033509D01*
G01X0003147Y-033509D02*
G01X0003119Y-033551D01*
G01X0003119Y-033551D02*
G01X0003091Y-033579D01*
G01X0003091Y-033579D02*
G01X0003063Y-033593D01*
G01X0003032Y-022554D02*
G01X0003032Y-022259D01*
G01X0003200Y-022554D02*
G01X0003074Y-022385D01*
G01X0003200Y-022259D02*
G01X0003032Y-022427D01*
G01X0003482Y-022554D02*
G01X0003313Y-022554D01*
G01X0003397Y-022554D02*
G01X0003397Y-022259D01*
G01X0003397Y-022259D02*
G01X0003369Y-022301D01*
G01X0003369Y-022301D02*
G01X0003341Y-022329D01*
G01X0003341Y-022329D02*
G01X0003313Y-022343D01*
G01X0000700Y-031304D02*
G01X0000602Y-031163D01*
G01X0000532Y-031304D02*
G01X0000532Y-031009D01*
G01X0000532Y-031009D02*
G01X0000644Y-031009D01*
G01X0000644Y-031009D02*
G01X0000672Y-031023D01*
G01X0000672Y-031023D02*
G01X0000686Y-031037D01*
G01X0000686Y-031037D02*
G01X0000700Y-031065D01*
G01X0000700Y-031065D02*
G01X0000700Y-031107D01*
G01X0000700Y-031107D02*
G01X0000686Y-031135D01*
G01X0000686Y-031135D02*
G01X0000672Y-031149D01*
G01X0000672Y-031149D02*
G01X0000644Y-031163D01*
G01X0000644Y-031163D02*
G01X0000532Y-031163D01*
G01X0000982Y-031304D02*
G01X0000813Y-031304D01*
G01X0000897Y-031304D02*
G01X0000897Y-031009D01*
G01X0000897Y-031009D02*
G01X0000869Y-031051D01*
G01X0000869Y-031051D02*
G01X0000841Y-031079D01*
G01X0000841Y-031079D02*
G01X0000813Y-031093D01*
G01X0008450Y-026554D02*
G01X0008352Y-026413D01*
G01X0008282Y-026554D02*
G01X0008282Y-026259D01*
G01X0008282Y-026259D02*
G01X0008394Y-026259D01*
G01X0008394Y-026259D02*
G01X0008422Y-026273D01*
G01X0008422Y-026273D02*
G01X0008436Y-026287D01*
G01X0008436Y-026287D02*
G01X0008450Y-026315D01*
G01X0008450Y-026315D02*
G01X0008450Y-026357D01*
G01X0008450Y-026357D02*
G01X0008436Y-026385D01*
G01X0008436Y-026385D02*
G01X0008422Y-026399D01*
G01X0008422Y-026399D02*
G01X0008394Y-026413D01*
G01X0008394Y-026413D02*
G01X0008282Y-026413D01*
G01X0008619Y-026385D02*
G01X0008591Y-026371D01*
G01X0008591Y-026371D02*
G01X0008577Y-026357D01*
G01X0008577Y-026357D02*
G01X0008563Y-026329D01*
G01X0008563Y-026329D02*
G01X0008563Y-026315D01*
G01X0008563Y-026315D02*
G01X0008577Y-026287D01*
G01X0008577Y-026287D02*
G01X0008591Y-026273D01*
G01X0008591Y-026273D02*
G01X0008619Y-026259D01*
G01X0008619Y-026259D02*
G01X0008675Y-026259D01*
G01X0008675Y-026259D02*
G01X0008703Y-026273D01*
G01X0008703Y-026273D02*
G01X0008717Y-026287D01*
G01X0008717Y-026287D02*
G01X0008732Y-026315D01*
G01X0008732Y-026315D02*
G01X0008732Y-026329D01*
G01X0008732Y-026329D02*
G01X0008717Y-026357D01*
G01X0008717Y-026357D02*
G01X0008703Y-026371D01*
G01X0008703Y-026371D02*
G01X0008675Y-026385D01*
G01X0008675Y-026385D02*
G01X0008619Y-026385D01*
G01X0008619Y-026385D02*
G01X0008591Y-026399D01*
G01X0008591Y-026399D02*
G01X0008577Y-026413D01*
G01X0008577Y-026413D02*
G01X0008563Y-026442D01*
G01X0008563Y-026442D02*
G01X0008563Y-026498D01*
G01X0008563Y-026498D02*
G01X0008577Y-026526D01*
G01X0008577Y-026526D02*
G01X0008591Y-026540D01*
G01X0008591Y-026540D02*
G01X0008619Y-026554D01*
G01X0008619Y-026554D02*
G01X0008675Y-026554D01*
G01X0008675Y-026554D02*
G01X0008703Y-026540D01*
G01X0008703Y-026540D02*
G01X0008717Y-026526D01*
G01X0008717Y-026526D02*
G01X0008732Y-026498D01*
G01X0008732Y-026498D02*
G01X0008732Y-026442D01*
G01X0008732Y-026442D02*
G01X0008717Y-026413D01*
G01X0008717Y-026413D02*
G01X0008703Y-026399D01*
G01X0008703Y-026399D02*
G01X0008675Y-026385D01*
G01X0004700Y-028554D02*
G01X0004602Y-028413D01*
G01X0004532Y-028554D02*
G01X0004532Y-028259D01*
G01X0004532Y-028259D02*
G01X0004644Y-028259D01*
G01X0004644Y-028259D02*
G01X0004672Y-028273D01*
G01X0004672Y-028273D02*
G01X0004686Y-028287D01*
G01X0004686Y-028287D02*
G01X0004700Y-028315D01*
G01X0004700Y-028315D02*
G01X0004700Y-028357D01*
G01X0004700Y-028357D02*
G01X0004686Y-028385D01*
G01X0004686Y-028385D02*
G01X0004672Y-028399D01*
G01X0004672Y-028399D02*
G01X0004644Y-028413D01*
G01X0004644Y-028413D02*
G01X0004532Y-028413D01*
G01X0004841Y-028554D02*
G01X0004897Y-028554D01*
G01X0004897Y-028554D02*
G01X0004925Y-028540D01*
G01X0004925Y-028540D02*
G01X0004939Y-028526D01*
G01X0004939Y-028526D02*
G01X0004967Y-028484D01*
G01X0004967Y-028484D02*
G01X0004982Y-028427D01*
G01X0004982Y-028427D02*
G01X0004982Y-028315D01*
G01X0004982Y-028315D02*
G01X0004967Y-028287D01*
G01X0004967Y-028287D02*
G01X0004953Y-028273D01*
G01X0004953Y-028273D02*
G01X0004925Y-028259D01*
G01X0004925Y-028259D02*
G01X0004869Y-028259D01*
G01X0004869Y-028259D02*
G01X0004841Y-028273D01*
G01X0004841Y-028273D02*
G01X0004827Y-028287D01*
G01X0004827Y-028287D02*
G01X0004813Y-028315D01*
G01X0004813Y-028315D02*
G01X0004813Y-028385D01*
G01X0004813Y-028385D02*
G01X0004827Y-028413D01*
G01X0004827Y-028413D02*
G01X0004841Y-028427D01*
G01X0004841Y-028427D02*
G01X0004869Y-028442D01*
G01X0004869Y-028442D02*
G01X0004925Y-028442D01*
G01X0004925Y-028442D02*
G01X0004953Y-028427D01*
G01X0004953Y-028427D02*
G01X0004967Y-028413D01*
G01X0004967Y-028413D02*
G01X0004982Y-028385D01*
G01X0009950Y-029304D02*
G01X0009852Y-029163D01*
G01X0009782Y-029304D02*
G01X0009782Y-029009D01*
G01X0009782Y-029009D02*
G01X0009894Y-029009D01*
G01X0009894Y-029009D02*
G01X0009922Y-029023D01*
G01X0009922Y-029023D02*
G01X0009936Y-029037D01*
G01X0009936Y-029037D02*
G01X0009950Y-029065D01*
G01X0009950Y-029065D02*
G01X0009950Y-029107D01*
G01X0009950Y-029107D02*
G01X0009936Y-029135D01*
G01X0009936Y-029135D02*
G01X0009922Y-029149D01*
G01X0009922Y-029149D02*
G01X0009894Y-029163D01*
G01X0009894Y-029163D02*
G01X0009782Y-029163D01*
G01X0010049Y-029009D02*
G01X0010246Y-029009D01*
G01X0010246Y-029009D02*
G01X0010119Y-029304D01*
G01X0004950Y-029804D02*
G01X0004852Y-029663D01*
G01X0004782Y-029804D02*
G01X0004782Y-029509D01*
G01X0004782Y-029509D02*
G01X0004894Y-029509D01*
G01X0004894Y-029509D02*
G01X0004922Y-029523D01*
G01X0004922Y-029523D02*
G01X0004936Y-029537D01*
G01X0004936Y-029537D02*
G01X0004950Y-029565D01*
G01X0004950Y-029565D02*
G01X0004950Y-029607D01*
G01X0004950Y-029607D02*
G01X0004936Y-029635D01*
G01X0004936Y-029635D02*
G01X0004922Y-029649D01*
G01X0004922Y-029649D02*
G01X0004894Y-029663D01*
G01X0004894Y-029663D02*
G01X0004782Y-029663D01*
G01X0005203Y-029509D02*
G01X0005147Y-029509D01*
G01X0005147Y-029509D02*
G01X0005119Y-029523D01*
G01X0005119Y-029523D02*
G01X0005105Y-029537D01*
G01X0005105Y-029537D02*
G01X0005077Y-029579D01*
G01X0005077Y-029579D02*
G01X0005063Y-029635D01*
G01X0005063Y-029635D02*
G01X0005063Y-029748D01*
G01X0005063Y-029748D02*
G01X0005077Y-029776D01*
G01X0005077Y-029776D02*
G01X0005091Y-029790D01*
G01X0005091Y-029790D02*
G01X0005119Y-029804D01*
G01X0005119Y-029804D02*
G01X0005175Y-029804D01*
G01X0005175Y-029804D02*
G01X0005203Y-029790D01*
G01X0005203Y-029790D02*
G01X0005217Y-029776D01*
G01X0005217Y-029776D02*
G01X0005232Y-029748D01*
G01X0005232Y-029748D02*
G01X0005232Y-029677D01*
G01X0005232Y-029677D02*
G01X0005217Y-029649D01*
G01X0005217Y-029649D02*
G01X0005203Y-029635D01*
G01X0005203Y-029635D02*
G01X0005175Y-029621D01*
G01X0005175Y-029621D02*
G01X0005119Y-029621D01*
G01X0005119Y-029621D02*
G01X0005091Y-029635D01*
G01X0005091Y-029635D02*
G01X0005077Y-029649D01*
G01X0005077Y-029649D02*
G01X0005063Y-029677D01*
G01X0012450Y-027276D02*
G01X0012436Y-027290D01*
G01X0012436Y-027290D02*
G01X0012394Y-027304D01*
G01X0012394Y-027304D02*
G01X0012366Y-027304D01*
G01X0012366Y-027304D02*
G01X0012324Y-027290D01*
G01X0012324Y-027290D02*
G01X0012296Y-027262D01*
G01X0012296Y-027262D02*
G01X0012282Y-027234D01*
G01X0012282Y-027234D02*
G01X0012267Y-027177D01*
G01X0012267Y-027177D02*
G01X0012267Y-027135D01*
G01X0012267Y-027135D02*
G01X0012282Y-027079D01*
G01X0012282Y-027079D02*
G01X0012296Y-027051D01*
G01X0012296Y-027051D02*
G01X0012324Y-027023D01*
G01X0012324Y-027023D02*
G01X0012366Y-027009D01*
G01X0012366Y-027009D02*
G01X0012394Y-027009D01*
G01X0012394Y-027009D02*
G01X0012436Y-027023D01*
G01X0012436Y-027023D02*
G01X0012450Y-027037D01*
G01X0012703Y-027107D02*
G01X0012703Y-027304D01*
G01X0012633Y-026995D02*
G01X0012563Y-027206D01*
G01X0012563Y-027206D02*
G01X0012746Y-027206D01*
G01X0002810Y-028554D02*
G01X0002711Y-028413D01*
G01X0002641Y-028554D02*
G01X0002641Y-028259D01*
G01X0002641Y-028259D02*
G01X0002753Y-028259D01*
G01X0002753Y-028259D02*
G01X0002782Y-028273D01*
G01X0002782Y-028273D02*
G01X0002796Y-028287D01*
G01X0002796Y-028287D02*
G01X0002810Y-028315D01*
G01X0002810Y-028315D02*
G01X0002810Y-028357D01*
G01X0002810Y-028357D02*
G01X0002796Y-028385D01*
G01X0002796Y-028385D02*
G01X0002782Y-028399D01*
G01X0002782Y-028399D02*
G01X0002753Y-028413D01*
G01X0002753Y-028413D02*
G01X0002641Y-028413D01*
G01X0003091Y-028554D02*
G01X0002922Y-028554D01*
G01X0003007Y-028554D02*
G01X0003007Y-028259D01*
G01X0003007Y-028259D02*
G01X0002978Y-028301D01*
G01X0002978Y-028301D02*
G01X0002950Y-028329D01*
G01X0002950Y-028329D02*
G01X0002922Y-028343D01*
G01X0003274Y-028259D02*
G01X0003302Y-028259D01*
G01X0003302Y-028259D02*
G01X0003330Y-028273D01*
G01X0003330Y-028273D02*
G01X0003344Y-028287D01*
G01X0003344Y-028287D02*
G01X0003358Y-028315D01*
G01X0003358Y-028315D02*
G01X0003372Y-028371D01*
G01X0003372Y-028371D02*
G01X0003372Y-028442D01*
G01X0003372Y-028442D02*
G01X0003358Y-028498D01*
G01X0003358Y-028498D02*
G01X0003344Y-028526D01*
G01X0003344Y-028526D02*
G01X0003330Y-028540D01*
G01X0003330Y-028540D02*
G01X0003302Y-028554D01*
G01X0003302Y-028554D02*
G01X0003274Y-028554D01*
G01X0003274Y-028554D02*
G01X0003246Y-028540D01*
G01X0003246Y-028540D02*
G01X0003232Y-028526D01*
G01X0003232Y-028526D02*
G01X0003217Y-028498D01*
G01X0003217Y-028498D02*
G01X0003203Y-028442D01*
G01X0003203Y-028442D02*
G01X0003203Y-028371D01*
G01X0003203Y-028371D02*
G01X0003217Y-028315D01*
G01X0003217Y-028315D02*
G01X0003232Y-028287D01*
G01X0003232Y-028287D02*
G01X0003246Y-028273D01*
G01X0003246Y-028273D02*
G01X0003274Y-028259D01*
G01X0001532Y-028554D02*
G01X0001532Y-028259D01*
G01X0001532Y-028259D02*
G01X0001602Y-028259D01*
G01X0001602Y-028259D02*
G01X0001644Y-028273D01*
G01X0001644Y-028273D02*
G01X0001672Y-028301D01*
G01X0001672Y-028301D02*
G01X0001686Y-028329D01*
G01X0001686Y-028329D02*
G01X0001700Y-028385D01*
G01X0001700Y-028385D02*
G01X0001700Y-028427D01*
G01X0001700Y-028427D02*
G01X0001686Y-028484D01*
G01X0001686Y-028484D02*
G01X0001672Y-028512D01*
G01X0001672Y-028512D02*
G01X0001644Y-028540D01*
G01X0001644Y-028540D02*
G01X0001602Y-028554D01*
G01X0001602Y-028554D02*
G01X0001532Y-028554D01*
G01X0001953Y-028357D02*
G01X0001953Y-028554D01*
G01X0001883Y-028245D02*
G01X0001813Y-028456D01*
G01X0001813Y-028456D02*
G01X0001996Y-028456D01*
G01X0012025Y-030759D02*
G01X0012025Y-030998D01*
G01X0012025Y-030998D02*
G01X0012039Y-031026D01*
G01X0012039Y-031026D02*
G01X0012053Y-031040D01*
G01X0012053Y-031040D02*
G01X0012081Y-031054D01*
G01X0012081Y-031054D02*
G01X0012137Y-031054D01*
G01X0012137Y-031054D02*
G01X0012165Y-031040D01*
G01X0012165Y-031040D02*
G01X0012179Y-031026D01*
G01X0012179Y-031026D02*
G01X0012193Y-030998D01*
G01X0012193Y-030998D02*
G01X0012193Y-030759D01*
G01X0012489Y-031054D02*
G01X0012320Y-031054D01*
G01X0012404Y-031054D02*
G01X0012404Y-030759D01*
G01X0012404Y-030759D02*
G01X0012376Y-030801D01*
G01X0012376Y-030801D02*
G01X0012348Y-030829D01*
G01X0012348Y-030829D02*
G01X0012320Y-030843D01*
G01X0012950Y-024526D02*
G01X0012936Y-024540D01*
G01X0012936Y-024540D02*
G01X0012894Y-024554D01*
G01X0012894Y-024554D02*
G01X0012866Y-024554D01*
G01X0012866Y-024554D02*
G01X0012824Y-024540D01*
G01X0012824Y-024540D02*
G01X0012796Y-024512D01*
G01X0012796Y-024512D02*
G01X0012782Y-024484D01*
G01X0012782Y-024484D02*
G01X0012767Y-024427D01*
G01X0012767Y-024427D02*
G01X0012767Y-024385D01*
G01X0012767Y-024385D02*
G01X0012782Y-024329D01*
G01X0012782Y-024329D02*
G01X0012796Y-024301D01*
G01X0012796Y-024301D02*
G01X0012824Y-024273D01*
G01X0012824Y-024273D02*
G01X0012866Y-024259D01*
G01X0012866Y-024259D02*
G01X0012894Y-024259D01*
G01X0012894Y-024259D02*
G01X0012936Y-024273D01*
G01X0012936Y-024273D02*
G01X0012950Y-024287D01*
G01X0013049Y-024259D02*
G01X0013232Y-024259D01*
G01X0013232Y-024259D02*
G01X0013133Y-024371D01*
G01X0013133Y-024371D02*
G01X0013175Y-024371D01*
G01X0013175Y-024371D02*
G01X0013203Y-024385D01*
G01X0013203Y-024385D02*
G01X0013217Y-024399D01*
G01X0013217Y-024399D02*
G01X0013232Y-024427D01*
G01X0013232Y-024427D02*
G01X0013232Y-024498D01*
G01X0013232Y-024498D02*
G01X0013217Y-024526D01*
G01X0013217Y-024526D02*
G01X0013203Y-024540D01*
G01X0013203Y-024540D02*
G01X0013175Y-024554D01*
G01X0013175Y-024554D02*
G01X0013091Y-024554D01*
G01X0013091Y-024554D02*
G01X0013063Y-024540D01*
G01X0013063Y-024540D02*
G01X0013049Y-024526D01*
G01X0004275Y-033259D02*
G01X0004275Y-033498D01*
G01X0004275Y-033498D02*
G01X0004289Y-033526D01*
G01X0004289Y-033526D02*
G01X0004303Y-033540D01*
G01X0004303Y-033540D02*
G01X0004331Y-033554D01*
G01X0004331Y-033554D02*
G01X0004387Y-033554D01*
G01X0004387Y-033554D02*
G01X0004415Y-033540D01*
G01X0004415Y-033540D02*
G01X0004429Y-033526D01*
G01X0004429Y-033526D02*
G01X0004443Y-033498D01*
G01X0004443Y-033498D02*
G01X0004443Y-033259D01*
G01X0004570Y-033287D02*
G01X0004584Y-033273D01*
G01X0004584Y-033273D02*
G01X0004612Y-033259D01*
G01X0004612Y-033259D02*
G01X0004682Y-033259D01*
G01X0004682Y-033259D02*
G01X0004710Y-033273D01*
G01X0004710Y-033273D02*
G01X0004724Y-033287D01*
G01X0004724Y-033287D02*
G01X0004739Y-033315D01*
G01X0004739Y-033315D02*
G01X0004739Y-033343D01*
G01X0004739Y-033343D02*
G01X0004724Y-033385D01*
G01X0004724Y-033385D02*
G01X0004556Y-033554D01*
G01X0004556Y-033554D02*
G01X0004739Y-033554D01*
G01X0005674Y-032009D02*
G01X0005871Y-032009D01*
G01X0005871Y-032009D02*
G01X0005744Y-032304D01*
G01X0006110Y-032107D02*
G01X0006110Y-032304D01*
G01X0006039Y-031995D02*
G01X0005969Y-032206D01*
G01X0005969Y-032206D02*
G01X0006152Y-032206D01*
G01X0006264Y-032304D02*
G01X0006264Y-032009D01*
G01X0006264Y-032149D02*
G01X0006433Y-032149D01*
G01X0006433Y-032304D02*
G01X0006433Y-032009D01*
G01X0006742Y-032276D02*
G01X0006728Y-032290D01*
G01X0006728Y-032290D02*
G01X0006686Y-032304D01*
G01X0006686Y-032304D02*
G01X0006658Y-032304D01*
G01X0006658Y-032304D02*
G01X0006616Y-032290D01*
G01X0006616Y-032290D02*
G01X0006588Y-032262D01*
G01X0006588Y-032262D02*
G01X0006574Y-032234D01*
G01X0006574Y-032234D02*
G01X0006560Y-032177D01*
G01X0006560Y-032177D02*
G01X0006560Y-032135D01*
G01X0006560Y-032135D02*
G01X0006574Y-032079D01*
G01X0006574Y-032079D02*
G01X0006588Y-032051D01*
G01X0006588Y-032051D02*
G01X0006616Y-032023D01*
G01X0006616Y-032023D02*
G01X0006658Y-032009D01*
G01X0006658Y-032009D02*
G01X0006686Y-032009D01*
G01X0006686Y-032009D02*
G01X0006728Y-032023D01*
G01X0006728Y-032023D02*
G01X0006742Y-032037D01*
G01X0006827Y-032009D02*
G01X0006996Y-032009D01*
G01X0006911Y-032304D02*
G01X0006911Y-032009D01*
G01X0007249Y-032304D02*
G01X0007080Y-032304D01*
G01X0007164Y-032304D02*
G01X0007164Y-032009D01*
G01X0007164Y-032009D02*
G01X0007136Y-032051D01*
G01X0007136Y-032051D02*
G01X0007108Y-032079D01*
G01X0007108Y-032079D02*
G01X0007080Y-032093D01*
G01X0007361Y-032037D02*
G01X0007375Y-032023D01*
G01X0007375Y-032023D02*
G01X0007403Y-032009D01*
G01X0007403Y-032009D02*
G01X0007474Y-032009D01*
G01X0007474Y-032009D02*
G01X0007502Y-032023D01*
G01X0007502Y-032023D02*
G01X0007516Y-032037D01*
G01X0007516Y-032037D02*
G01X0007530Y-032065D01*
G01X0007530Y-032065D02*
G01X0007530Y-032093D01*
G01X0007530Y-032093D02*
G01X0007516Y-032135D01*
G01X0007516Y-032135D02*
G01X0007347Y-032304D01*
G01X0007347Y-032304D02*
G01X0007530Y-032304D01*
G01X0007797Y-032009D02*
G01X0007656Y-032009D01*
G01X0007656Y-032009D02*
G01X0007642Y-032149D01*
G01X0007642Y-032149D02*
G01X0007656Y-032135D01*
G01X0007656Y-032135D02*
G01X0007685Y-032121D01*
G01X0007685Y-032121D02*
G01X0007755Y-032121D01*
G01X0007755Y-032121D02*
G01X0007783Y-032135D01*
G01X0007783Y-032135D02*
G01X0007797Y-032149D01*
G01X0007797Y-032149D02*
G01X0007811Y-032177D01*
G01X0007811Y-032177D02*
G01X0007811Y-032248D01*
G01X0007811Y-032248D02*
G01X0007797Y-032276D01*
G01X0007797Y-032276D02*
G01X0007783Y-032290D01*
G01X0007783Y-032290D02*
G01X0007755Y-032304D01*
G01X0007755Y-032304D02*
G01X0007685Y-032304D01*
G01X0007685Y-032304D02*
G01X0007656Y-032290D01*
G01X0007656Y-032290D02*
G01X0007642Y-032276D01*
G01X0007032Y-024054D02*
G01X0007032Y-023759D01*
G01X0007032Y-023759D02*
G01X0007102Y-023759D01*
G01X0007102Y-023759D02*
G01X0007144Y-023773D01*
G01X0007144Y-023773D02*
G01X0007172Y-023801D01*
G01X0007172Y-023801D02*
G01X0007186Y-023829D01*
G01X0007186Y-023829D02*
G01X0007200Y-023885D01*
G01X0007200Y-023885D02*
G01X0007200Y-023927D01*
G01X0007200Y-023927D02*
G01X0007186Y-023984D01*
G01X0007186Y-023984D02*
G01X0007172Y-024012D01*
G01X0007172Y-024012D02*
G01X0007144Y-024040D01*
G01X0007144Y-024040D02*
G01X0007102Y-024054D01*
G01X0007102Y-024054D02*
G01X0007032Y-024054D01*
G01X0007467Y-023759D02*
G01X0007327Y-023759D01*
G01X0007327Y-023759D02*
G01X0007313Y-023899D01*
G01X0007313Y-023899D02*
G01X0007327Y-023885D01*
G01X0007327Y-023885D02*
G01X0007355Y-023871D01*
G01X0007355Y-023871D02*
G01X0007425Y-023871D01*
G01X0007425Y-023871D02*
G01X0007453Y-023885D01*
G01X0007453Y-023885D02*
G01X0007467Y-023899D01*
G01X0007467Y-023899D02*
G01X0007482Y-023927D01*
G01X0007482Y-023927D02*
G01X0007482Y-023998D01*
G01X0007482Y-023998D02*
G01X0007467Y-024026D01*
G01X0007467Y-024026D02*
G01X0007453Y-024040D01*
G01X0007453Y-024040D02*
G01X0007425Y-024054D01*
G01X0007425Y-024054D02*
G01X0007355Y-024054D01*
G01X0007355Y-024054D02*
G01X0007327Y-024040D01*
G01X0007327Y-024040D02*
G01X0007313Y-024026D01*
G01X0009282Y-023304D02*
G01X0009282Y-023009D01*
G01X0009282Y-023009D02*
G01X0009352Y-023009D01*
G01X0009352Y-023009D02*
G01X0009394Y-023023D01*
G01X0009394Y-023023D02*
G01X0009422Y-023051D01*
G01X0009422Y-023051D02*
G01X0009436Y-023079D01*
G01X0009436Y-023079D02*
G01X0009450Y-023135D01*
G01X0009450Y-023135D02*
G01X0009450Y-023177D01*
G01X0009450Y-023177D02*
G01X0009436Y-023234D01*
G01X0009436Y-023234D02*
G01X0009422Y-023262D01*
G01X0009422Y-023262D02*
G01X0009394Y-023290D01*
G01X0009394Y-023290D02*
G01X0009352Y-023304D01*
G01X0009352Y-023304D02*
G01X0009282Y-023304D01*
G01X0009549Y-023009D02*
G01X0009746Y-023009D01*
G01X0009746Y-023009D02*
G01X0009619Y-023304D01*
G01X0002782Y-024054D02*
G01X0002782Y-023759D01*
G01X0002782Y-023759D02*
G01X0002852Y-023759D01*
G01X0002852Y-023759D02*
G01X0002894Y-023773D01*
G01X0002894Y-023773D02*
G01X0002922Y-023801D01*
G01X0002922Y-023801D02*
G01X0002936Y-023829D01*
G01X0002936Y-023829D02*
G01X0002950Y-023885D01*
G01X0002950Y-023885D02*
G01X0002950Y-023927D01*
G01X0002950Y-023927D02*
G01X0002936Y-023984D01*
G01X0002936Y-023984D02*
G01X0002922Y-024012D01*
G01X0002922Y-024012D02*
G01X0002894Y-024040D01*
G01X0002894Y-024040D02*
G01X0002852Y-024054D01*
G01X0002852Y-024054D02*
G01X0002782Y-024054D01*
G01X0003203Y-023759D02*
G01X0003147Y-023759D01*
G01X0003147Y-023759D02*
G01X0003119Y-023773D01*
G01X0003119Y-023773D02*
G01X0003105Y-023787D01*
G01X0003105Y-023787D02*
G01X0003077Y-023829D01*
G01X0003077Y-023829D02*
G01X0003063Y-023885D01*
G01X0003063Y-023885D02*
G01X0003063Y-023998D01*
G01X0003063Y-023998D02*
G01X0003077Y-024026D01*
G01X0003077Y-024026D02*
G01X0003091Y-024040D01*
G01X0003091Y-024040D02*
G01X0003119Y-024054D01*
G01X0003119Y-024054D02*
G01X0003175Y-024054D01*
G01X0003175Y-024054D02*
G01X0003203Y-024040D01*
G01X0003203Y-024040D02*
G01X0003217Y-024026D01*
G01X0003217Y-024026D02*
G01X0003232Y-023998D01*
G01X0003232Y-023998D02*
G01X0003232Y-023927D01*
G01X0003232Y-023927D02*
G01X0003217Y-023899D01*
G01X0003217Y-023899D02*
G01X0003203Y-023885D01*
G01X0003203Y-023885D02*
G01X0003175Y-023871D01*
G01X0003175Y-023871D02*
G01X0003119Y-023871D01*
G01X0003119Y-023871D02*
G01X0003091Y-023885D01*
G01X0003091Y-023885D02*
G01X0003077Y-023899D01*
G01X0003077Y-023899D02*
G01X0003063Y-023927D01*
G01X0005282Y-023304D02*
G01X0005282Y-023009D01*
G01X0005282Y-023009D02*
G01X0005352Y-023009D01*
G01X0005352Y-023009D02*
G01X0005394Y-023023D01*
G01X0005394Y-023023D02*
G01X0005422Y-023051D01*
G01X0005422Y-023051D02*
G01X0005436Y-023079D01*
G01X0005436Y-023079D02*
G01X0005450Y-023135D01*
G01X0005450Y-023135D02*
G01X0005450Y-023177D01*
G01X0005450Y-023177D02*
G01X0005436Y-023234D01*
G01X0005436Y-023234D02*
G01X0005422Y-023262D01*
G01X0005422Y-023262D02*
G01X0005394Y-023290D01*
G01X0005394Y-023290D02*
G01X0005352Y-023304D01*
G01X0005352Y-023304D02*
G01X0005282Y-023304D01*
G01X0005619Y-023135D02*
G01X0005591Y-023121D01*
G01X0005591Y-023121D02*
G01X0005577Y-023107D01*
G01X0005577Y-023107D02*
G01X0005563Y-023079D01*
G01X0005563Y-023079D02*
G01X0005563Y-023065D01*
G01X0005563Y-023065D02*
G01X0005577Y-023037D01*
G01X0005577Y-023037D02*
G01X0005591Y-023023D01*
G01X0005591Y-023023D02*
G01X0005619Y-023009D01*
G01X0005619Y-023009D02*
G01X0005675Y-023009D01*
G01X0005675Y-023009D02*
G01X0005703Y-023023D01*
G01X0005703Y-023023D02*
G01X0005717Y-023037D01*
G01X0005717Y-023037D02*
G01X0005732Y-023065D01*
G01X0005732Y-023065D02*
G01X0005732Y-023079D01*
G01X0005732Y-023079D02*
G01X0005717Y-023107D01*
G01X0005717Y-023107D02*
G01X0005703Y-023121D01*
G01X0005703Y-023121D02*
G01X0005675Y-023135D01*
G01X0005675Y-023135D02*
G01X0005619Y-023135D01*
G01X0005619Y-023135D02*
G01X0005591Y-023149D01*
G01X0005591Y-023149D02*
G01X0005577Y-023163D01*
G01X0005577Y-023163D02*
G01X0005563Y-023192D01*
G01X0005563Y-023192D02*
G01X0005563Y-023248D01*
G01X0005563Y-023248D02*
G01X0005577Y-023276D01*
G01X0005577Y-023276D02*
G01X0005591Y-023290D01*
G01X0005591Y-023290D02*
G01X0005619Y-023304D01*
G01X0005619Y-023304D02*
G01X0005675Y-023304D01*
G01X0005675Y-023304D02*
G01X0005703Y-023290D01*
G01X0005703Y-023290D02*
G01X0005717Y-023276D01*
G01X0005717Y-023276D02*
G01X0005732Y-023248D01*
G01X0005732Y-023248D02*
G01X0005732Y-023192D01*
G01X0005732Y-023192D02*
G01X0005717Y-023163D01*
G01X0005717Y-023163D02*
G01X0005703Y-023149D01*
G01X0005703Y-023149D02*
G01X0005675Y-023135D01*
G01X0007211Y-028554D02*
G01X0007211Y-028259D01*
G01X0007521Y-028526D02*
G01X0007507Y-028540D01*
G01X0007507Y-028540D02*
G01X0007464Y-028554D01*
G01X0007464Y-028554D02*
G01X0007436Y-028554D01*
G01X0007436Y-028554D02*
G01X0007394Y-028540D01*
G01X0007394Y-028540D02*
G01X0007366Y-028512D01*
G01X0007366Y-028512D02*
G01X0007352Y-028484D01*
G01X0007352Y-028484D02*
G01X0007338Y-028427D01*
G01X0007338Y-028427D02*
G01X0007338Y-028385D01*
G01X0007338Y-028385D02*
G01X0007352Y-028329D01*
G01X0007352Y-028329D02*
G01X0007366Y-028301D01*
G01X0007366Y-028301D02*
G01X0007394Y-028273D01*
G01X0007394Y-028273D02*
G01X0007436Y-028259D01*
G01X0007436Y-028259D02*
G01X0007464Y-028259D01*
G01X0007464Y-028259D02*
G01X0007507Y-028273D01*
G01X0007507Y-028273D02*
G01X0007521Y-028287D01*
G01X0007619Y-028259D02*
G01X0007802Y-028259D01*
G01X0007802Y-028259D02*
G01X0007703Y-028371D01*
G01X0007703Y-028371D02*
G01X0007746Y-028371D01*
G01X0007746Y-028371D02*
G01X0007774Y-028385D01*
G01X0007774Y-028385D02*
G01X0007788Y-028399D01*
G01X0007788Y-028399D02*
G01X0007802Y-028427D01*
G01X0007802Y-028427D02*
G01X0007802Y-028498D01*
G01X0007802Y-028498D02*
G01X0007788Y-028526D01*
G01X0007788Y-028526D02*
G01X0007774Y-028540D01*
G01X0007774Y-028540D02*
G01X0007746Y-028554D01*
G01X0007746Y-028554D02*
G01X0007661Y-028554D01*
G01X0007661Y-028554D02*
G01X0007633Y-028540D01*
G01X0007633Y-028540D02*
G01X0007619Y-028526D01*
G01X0009711Y-028554D02*
G01X0009711Y-028259D01*
G01X0010021Y-028526D02*
G01X0010007Y-028540D01*
G01X0010007Y-028540D02*
G01X0009964Y-028554D01*
G01X0009964Y-028554D02*
G01X0009936Y-028554D01*
G01X0009936Y-028554D02*
G01X0009894Y-028540D01*
G01X0009894Y-028540D02*
G01X0009866Y-028512D01*
G01X0009866Y-028512D02*
G01X0009852Y-028484D01*
G01X0009852Y-028484D02*
G01X0009838Y-028427D01*
G01X0009838Y-028427D02*
G01X0009838Y-028385D01*
G01X0009838Y-028385D02*
G01X0009852Y-028329D01*
G01X0009852Y-028329D02*
G01X0009866Y-028301D01*
G01X0009866Y-028301D02*
G01X0009894Y-028273D01*
G01X0009894Y-028273D02*
G01X0009936Y-028259D01*
G01X0009936Y-028259D02*
G01X0009964Y-028259D01*
G01X0009964Y-028259D02*
G01X0010007Y-028273D01*
G01X0010007Y-028273D02*
G01X0010021Y-028287D01*
G01X0010133Y-028287D02*
G01X0010147Y-028273D01*
G01X0010147Y-028273D02*
G01X0010175Y-028259D01*
G01X0010175Y-028259D02*
G01X0010246Y-028259D01*
G01X0010246Y-028259D02*
G01X0010274Y-028273D01*
G01X0010274Y-028273D02*
G01X0010288Y-028287D01*
G01X0010288Y-028287D02*
G01X0010302Y-028315D01*
G01X0010302Y-028315D02*
G01X0010302Y-028343D01*
G01X0010302Y-028343D02*
G01X0010288Y-028385D01*
G01X0010288Y-028385D02*
G01X0010119Y-028554D01*
G01X0010119Y-028554D02*
G01X0010302Y-028554D01*
G01X0015748Y0000000D02*
G01X0018072Y-012770D02*
G01X0018367Y-012671D01*
G01X0018367Y-012671D02*
G01X0018072Y-012573D01*
G01X0018339Y-012474D02*
G01X0018353Y-012460D01*
G01X0018353Y-012460D02*
G01X0018367Y-012474D01*
G01X0018367Y-012474D02*
G01X0018353Y-012489D01*
G01X0018353Y-012489D02*
G01X0018339Y-012474D01*
G01X0018339Y-012474D02*
G01X0018367Y-012474D01*
G01X0018072Y-012278D02*
G01X0018072Y-012250D01*
G01X0018072Y-012250D02*
G01X0018086Y-012221D01*
G01X0018086Y-012221D02*
G01X0018100Y-012207D01*
G01X0018100Y-012207D02*
G01X0018128Y-012193D01*
G01X0018128Y-012193D02*
G01X0018184Y-012179D01*
G01X0018184Y-012179D02*
G01X0018255Y-012179D01*
G01X0018255Y-012179D02*
G01X0018311Y-012193D01*
G01X0018311Y-012193D02*
G01X0018339Y-012207D01*
G01X0018339Y-012207D02*
G01X0018353Y-012221D01*
G01X0018353Y-012221D02*
G01X0018367Y-012250D01*
G01X0018367Y-012250D02*
G01X0018367Y-012278D01*
G01X0018367Y-012278D02*
G01X0018353Y-012306D01*
G01X0018353Y-012306D02*
G01X0018339Y-012320D01*
G01X0018339Y-012320D02*
G01X0018311Y-012334D01*
G01X0018311Y-012334D02*
G01X0018255Y-012348D01*
G01X0018255Y-012348D02*
G01X0018184Y-012348D01*
G01X0018184Y-012348D02*
G01X0018128Y-012334D01*
G01X0018128Y-012334D02*
G01X0018100Y-012320D01*
G01X0018100Y-012320D02*
G01X0018086Y-012306D01*
G01X0018086Y-012306D02*
G01X0018072Y-012278D01*
G01X0018339Y-012053D02*
G01X0018353Y-012039D01*
G01X0018353Y-012039D02*
G01X0018367Y-012053D01*
G01X0018367Y-012053D02*
G01X0018353Y-012067D01*
G01X0018353Y-012067D02*
G01X0018339Y-012053D01*
G01X0018339Y-012053D02*
G01X0018367Y-012053D01*
G01X0018367Y-011757D02*
G01X0018367Y-011926D01*
G01X0018367Y-011842D02*
G01X0018072Y-011842D01*
G01X0018072Y-011842D02*
G01X0018114Y-011870D01*
G01X0018114Y-011870D02*
G01X0018142Y-011898D01*
G01X0018142Y-011898D02*
G01X0018156Y-011926D01*
G01X0025089Y-003149D02*
G01X0025103Y-003163D01*
G01X0025103Y-003163D02*
G01X0025117Y-003206D01*
G01X0025117Y-003206D02*
G01X0025117Y-003234D01*
G01X0025117Y-003234D02*
G01X0025103Y-003276D01*
G01X0025103Y-003276D02*
G01X0025075Y-003304D01*
G01X0025075Y-003304D02*
G01X0025047Y-003318D01*
G01X0025047Y-003318D02*
G01X0024990Y-003332D01*
G01X0024990Y-003332D02*
G01X0024948Y-003332D01*
G01X0024948Y-003332D02*
G01X0024892Y-003318D01*
G01X0024892Y-003318D02*
G01X0024864Y-003304D01*
G01X0024864Y-003304D02*
G01X0024836Y-003276D01*
G01X0024836Y-003276D02*
G01X0024822Y-003234D01*
G01X0024822Y-003234D02*
G01X0024822Y-003206D01*
G01X0024822Y-003206D02*
G01X0024836Y-003163D01*
G01X0024836Y-003163D02*
G01X0024850Y-003149D01*
G01X0025117Y-002882D02*
G01X0025117Y-003023D01*
G01X0025117Y-003023D02*
G01X0024822Y-003023D01*
G01X0025117Y-002784D02*
G01X0024822Y-002784D01*
G01X0025117Y-002615D02*
G01X0024948Y-002742D01*
G01X0024822Y-002615D02*
G01X0024990Y-002784D01*
G01X0024822Y-002432D02*
G01X0024822Y-002376D01*
G01X0024822Y-002376D02*
G01X0024836Y-002348D01*
G01X0024836Y-002348D02*
G01X0024864Y-002320D01*
G01X0024864Y-002320D02*
G01X0024920Y-002306D01*
G01X0024920Y-002306D02*
G01X0025019Y-002306D01*
G01X0025019Y-002306D02*
G01X0025075Y-002320D01*
G01X0025075Y-002320D02*
G01X0025103Y-002348D01*
G01X0025103Y-002348D02*
G01X0025117Y-002376D01*
G01X0025117Y-002376D02*
G01X0025117Y-002432D01*
G01X0025117Y-002432D02*
G01X0025103Y-002460D01*
G01X0025103Y-002460D02*
G01X0025075Y-002489D01*
G01X0025075Y-002489D02*
G01X0025019Y-002503D01*
G01X0025019Y-002503D02*
G01X0024920Y-002503D01*
G01X0024920Y-002503D02*
G01X0024864Y-002489D01*
G01X0024864Y-002489D02*
G01X0024836Y-002460D01*
G01X0024836Y-002460D02*
G01X0024822Y-002432D01*
G01X0026117Y-002784D02*
G01X0025822Y-002784D01*
G01X0025822Y-002784D02*
G01X0025822Y-002714D01*
G01X0025822Y-002714D02*
G01X0025836Y-002671D01*
G01X0025836Y-002671D02*
G01X0025864Y-002643D01*
G01X0025864Y-002643D02*
G01X0025892Y-002629D01*
G01X0025892Y-002629D02*
G01X0025948Y-002615D01*
G01X0025948Y-002615D02*
G01X0025990Y-002615D01*
G01X0025990Y-002615D02*
G01X0026047Y-002629D01*
G01X0026047Y-002629D02*
G01X0026075Y-002643D01*
G01X0026075Y-002643D02*
G01X0026103Y-002671D01*
G01X0026103Y-002671D02*
G01X0026117Y-002714D01*
G01X0026117Y-002714D02*
G01X0026117Y-002784D01*
G01X0025822Y-002432D02*
G01X0025822Y-002376D01*
G01X0025822Y-002376D02*
G01X0025836Y-002348D01*
G01X0025836Y-002348D02*
G01X0025864Y-002320D01*
G01X0025864Y-002320D02*
G01X0025920Y-002306D01*
G01X0025920Y-002306D02*
G01X0026019Y-002306D01*
G01X0026019Y-002306D02*
G01X0026075Y-002320D01*
G01X0026075Y-002320D02*
G01X0026103Y-002348D01*
G01X0026103Y-002348D02*
G01X0026117Y-002376D01*
G01X0026117Y-002376D02*
G01X0026117Y-002432D01*
G01X0026117Y-002432D02*
G01X0026103Y-002460D01*
G01X0026103Y-002460D02*
G01X0026075Y-002489D01*
G01X0026075Y-002489D02*
G01X0026019Y-002503D01*
G01X0026019Y-002503D02*
G01X0025920Y-002503D01*
G01X0025920Y-002503D02*
G01X0025864Y-002489D01*
G01X0025864Y-002489D02*
G01X0025836Y-002460D01*
G01X0025836Y-002460D02*
G01X0025822Y-002432D01*
G01X0026836Y-002924D02*
G01X0026822Y-002953D01*
G01X0026822Y-002953D02*
G01X0026822Y-002995D01*
G01X0026822Y-002995D02*
G01X0026836Y-003037D01*
G01X0026836Y-003037D02*
G01X0026864Y-003065D01*
G01X0026864Y-003065D02*
G01X0026892Y-003079D01*
G01X0026892Y-003079D02*
G01X0026948Y-003093D01*
G01X0026948Y-003093D02*
G01X0026990Y-003093D01*
G01X0026990Y-003093D02*
G01X0027047Y-003079D01*
G01X0027047Y-003079D02*
G01X0027075Y-003065D01*
G01X0027075Y-003065D02*
G01X0027103Y-003037D01*
G01X0027103Y-003037D02*
G01X0027117Y-002995D01*
G01X0027117Y-002995D02*
G01X0027117Y-002967D01*
G01X0027117Y-002967D02*
G01X0027103Y-002924D01*
G01X0027103Y-002924D02*
G01X0027089Y-002910D01*
G01X0027089Y-002910D02*
G01X0026990Y-002910D01*
G01X0026990Y-002910D02*
G01X0026990Y-002967D01*
G01X0027117Y-002784D02*
G01X0026822Y-002784D01*
G01X0026822Y-002784D02*
G01X0027117Y-002615D01*
G01X0027117Y-002615D02*
G01X0026822Y-002615D01*
G01X0027117Y-002474D02*
G01X0026822Y-002474D01*
G01X0026822Y-002474D02*
G01X0026822Y-002404D01*
G01X0026822Y-002404D02*
G01X0026836Y-002362D01*
G01X0026836Y-002362D02*
G01X0026864Y-002334D01*
G01X0026864Y-002334D02*
G01X0026892Y-002320D01*
G01X0026892Y-002320D02*
G01X0026948Y-002306D01*
G01X0026948Y-002306D02*
G01X0026990Y-002306D01*
G01X0026990Y-002306D02*
G01X0027047Y-002320D01*
G01X0027047Y-002320D02*
G01X0027075Y-002334D01*
G01X0027075Y-002334D02*
G01X0027103Y-002362D01*
G01X0027103Y-002362D02*
G01X0027117Y-002404D01*
G01X0027117Y-002404D02*
G01X0027117Y-002474D01*
G01X0026836Y-017025D02*
G01X0026822Y-017053D01*
G01X0026822Y-017053D02*
G01X0026822Y-017095D01*
G01X0026822Y-017095D02*
G01X0026836Y-017137D01*
G01X0026836Y-017137D02*
G01X0026864Y-017165D01*
G01X0026864Y-017165D02*
G01X0026892Y-017179D01*
G01X0026892Y-017179D02*
G01X0026948Y-017193D01*
G01X0026948Y-017193D02*
G01X0026990Y-017193D01*
G01X0026990Y-017193D02*
G01X0027047Y-017179D01*
G01X0027047Y-017179D02*
G01X0027075Y-017165D01*
G01X0027075Y-017165D02*
G01X0027103Y-017137D01*
G01X0027103Y-017137D02*
G01X0027117Y-017095D01*
G01X0027117Y-017095D02*
G01X0027117Y-017067D01*
G01X0027117Y-017067D02*
G01X0027103Y-017025D01*
G01X0027103Y-017025D02*
G01X0027089Y-017010D01*
G01X0027089Y-017010D02*
G01X0026990Y-017010D01*
G01X0026990Y-017010D02*
G01X0026990Y-017067D01*
G01X0027117Y-016884D02*
G01X0026822Y-016884D01*
G01X0026822Y-016884D02*
G01X0027117Y-016715D01*
G01X0027117Y-016715D02*
G01X0026822Y-016715D01*
G01X0027117Y-016575D02*
G01X0026822Y-016575D01*
G01X0026822Y-016575D02*
G01X0026822Y-016504D01*
G01X0026822Y-016504D02*
G01X0026836Y-016462D01*
G01X0026836Y-016462D02*
G01X0026864Y-016434D01*
G01X0026864Y-016434D02*
G01X0026892Y-016420D01*
G01X0026892Y-016420D02*
G01X0026948Y-016406D01*
G01X0026948Y-016406D02*
G01X0026990Y-016406D01*
G01X0026990Y-016406D02*
G01X0027047Y-016420D01*
G01X0027047Y-016420D02*
G01X0027075Y-016434D01*
G01X0027075Y-016434D02*
G01X0027103Y-016462D01*
G01X0027103Y-016462D02*
G01X0027117Y-016504D01*
G01X0027117Y-016504D02*
G01X0027117Y-016575D01*
G01X0026117Y-017179D02*
G01X0025822Y-017179D01*
G01X0025822Y-017179D02*
G01X0025822Y-017109D01*
G01X0025822Y-017109D02*
G01X0025836Y-017067D01*
G01X0025836Y-017067D02*
G01X0025864Y-017039D01*
G01X0025864Y-017039D02*
G01X0025892Y-017025D01*
G01X0025892Y-017025D02*
G01X0025948Y-017010D01*
G01X0025948Y-017010D02*
G01X0025990Y-017010D01*
G01X0025990Y-017010D02*
G01X0026047Y-017025D01*
G01X0026047Y-017025D02*
G01X0026075Y-017039D01*
G01X0026075Y-017039D02*
G01X0026103Y-017067D01*
G01X0026103Y-017067D02*
G01X0026117Y-017109D01*
G01X0026117Y-017109D02*
G01X0026117Y-017179D01*
G01X0026117Y-016884D02*
G01X0025822Y-016884D01*
G01X0025089Y-017010D02*
G01X0025103Y-017025D01*
G01X0025103Y-017025D02*
G01X0025117Y-017067D01*
G01X0025117Y-017067D02*
G01X0025117Y-017095D01*
G01X0025117Y-017095D02*
G01X0025103Y-017137D01*
G01X0025103Y-017137D02*
G01X0025075Y-017165D01*
G01X0025075Y-017165D02*
G01X0025047Y-017179D01*
G01X0025047Y-017179D02*
G01X0024990Y-017193D01*
G01X0024990Y-017193D02*
G01X0024948Y-017193D01*
G01X0024948Y-017193D02*
G01X0024892Y-017179D01*
G01X0024892Y-017179D02*
G01X0024864Y-017165D01*
G01X0024864Y-017165D02*
G01X0024836Y-017137D01*
G01X0024836Y-017137D02*
G01X0024822Y-017095D01*
G01X0024822Y-017095D02*
G01X0024822Y-017067D01*
G01X0024822Y-017067D02*
G01X0024836Y-017025D01*
G01X0024836Y-017025D02*
G01X0024850Y-017010D01*
G01X0025117Y-016743D02*
G01X0025117Y-016884D01*
G01X0025117Y-016884D02*
G01X0024822Y-016884D01*
G01X0025117Y-016645D02*
G01X0024822Y-016645D01*
G01X0025117Y-016476D02*
G01X0024948Y-016603D01*
G01X0024822Y-016476D02*
G01X0024990Y-016645D01*
G01X0025117Y-016350D02*
G01X0024822Y-016350D01*
G01X0018367Y-010766D02*
G01X0018072Y-010766D01*
G01X0018184Y-010766D02*
G01X0018170Y-010737D01*
G01X0018170Y-010737D02*
G01X0018170Y-010681D01*
G01X0018170Y-010681D02*
G01X0018184Y-010653D01*
G01X0018184Y-010653D02*
G01X0018198Y-010639D01*
G01X0018198Y-010639D02*
G01X0018226Y-010625D01*
G01X0018226Y-010625D02*
G01X0018311Y-010625D01*
G01X0018311Y-010625D02*
G01X0018339Y-010639D01*
G01X0018339Y-010639D02*
G01X0018353Y-010653D01*
G01X0018353Y-010653D02*
G01X0018367Y-010681D01*
G01X0018367Y-010681D02*
G01X0018367Y-010737D01*
G01X0018367Y-010737D02*
G01X0018353Y-010766D01*
G01X0018170Y-010526D02*
G01X0018367Y-010456D01*
G01X0018170Y-010386D02*
G01X0018367Y-010456D01*
G01X0018367Y-010456D02*
G01X0018437Y-010484D01*
G01X0018437Y-010484D02*
G01X0018451Y-010498D01*
G01X0018451Y-010498D02*
G01X0018465Y-010526D01*
G01X0018353Y-010062D02*
G01X0018367Y-010020D01*
G01X0018367Y-010020D02*
G01X0018367Y-009950D01*
G01X0018367Y-009950D02*
G01X0018353Y-009922D01*
G01X0018353Y-009922D02*
G01X0018339Y-009908D01*
G01X0018339Y-009908D02*
G01X0018311Y-009894D01*
G01X0018311Y-009894D02*
G01X0018283Y-009894D01*
G01X0018283Y-009894D02*
G01X0018255Y-009908D01*
G01X0018255Y-009908D02*
G01X0018240Y-009922D01*
G01X0018240Y-009922D02*
G01X0018226Y-009950D01*
G01X0018226Y-009950D02*
G01X0018212Y-010006D01*
G01X0018212Y-010006D02*
G01X0018198Y-010034D01*
G01X0018198Y-010034D02*
G01X0018184Y-010048D01*
G01X0018184Y-010048D02*
G01X0018156Y-010062D01*
G01X0018156Y-010062D02*
G01X0018128Y-010062D01*
G01X0018128Y-010062D02*
G01X0018100Y-010048D01*
G01X0018100Y-010048D02*
G01X0018086Y-010034D01*
G01X0018086Y-010034D02*
G01X0018072Y-010006D01*
G01X0018072Y-010006D02*
G01X0018072Y-009936D01*
G01X0018072Y-009936D02*
G01X0018086Y-009894D01*
G01X0018353Y-009655D02*
G01X0018367Y-009683D01*
G01X0018367Y-009683D02*
G01X0018367Y-009739D01*
G01X0018367Y-009739D02*
G01X0018353Y-009767D01*
G01X0018353Y-009767D02*
G01X0018325Y-009781D01*
G01X0018325Y-009781D02*
G01X0018212Y-009781D01*
G01X0018212Y-009781D02*
G01X0018184Y-009767D01*
G01X0018184Y-009767D02*
G01X0018170Y-009739D01*
G01X0018170Y-009739D02*
G01X0018170Y-009683D01*
G01X0018170Y-009683D02*
G01X0018184Y-009655D01*
G01X0018184Y-009655D02*
G01X0018212Y-009641D01*
G01X0018212Y-009641D02*
G01X0018240Y-009641D01*
G01X0018240Y-009641D02*
G01X0018269Y-009781D01*
G01X0018367Y-009514D02*
G01X0018072Y-009514D01*
G01X0018184Y-009514D02*
G01X0018170Y-009486D01*
G01X0018170Y-009486D02*
G01X0018170Y-009430D01*
G01X0018170Y-009430D02*
G01X0018184Y-009402D01*
G01X0018184Y-009402D02*
G01X0018198Y-009388D01*
G01X0018198Y-009388D02*
G01X0018226Y-009374D01*
G01X0018226Y-009374D02*
G01X0018311Y-009374D01*
G01X0018311Y-009374D02*
G01X0018339Y-009388D01*
G01X0018339Y-009388D02*
G01X0018353Y-009402D01*
G01X0018353Y-009402D02*
G01X0018367Y-009430D01*
G01X0018367Y-009430D02*
G01X0018367Y-009486D01*
G01X0018367Y-009486D02*
G01X0018353Y-009514D01*
G01X0018367Y-009120D02*
G01X0018212Y-009120D01*
G01X0018212Y-009120D02*
G01X0018184Y-009134D01*
G01X0018184Y-009134D02*
G01X0018170Y-009163D01*
G01X0018170Y-009163D02*
G01X0018170Y-009219D01*
G01X0018170Y-009219D02*
G01X0018184Y-009247D01*
G01X0018353Y-009120D02*
G01X0018367Y-009149D01*
G01X0018367Y-009149D02*
G01X0018367Y-009219D01*
G01X0018367Y-009219D02*
G01X0018353Y-009247D01*
G01X0018353Y-009247D02*
G01X0018325Y-009261D01*
G01X0018325Y-009261D02*
G01X0018297Y-009261D01*
G01X0018297Y-009261D02*
G01X0018269Y-009247D01*
G01X0018269Y-009247D02*
G01X0018255Y-009219D01*
G01X0018255Y-009219D02*
G01X0018255Y-009149D01*
G01X0018255Y-009149D02*
G01X0018240Y-009120D01*
G01X0018353Y-008994D02*
G01X0018367Y-008966D01*
G01X0018367Y-008966D02*
G01X0018367Y-008910D01*
G01X0018367Y-008910D02*
G01X0018353Y-008881D01*
G01X0018353Y-008881D02*
G01X0018325Y-008867D01*
G01X0018325Y-008867D02*
G01X0018311Y-008867D01*
G01X0018311Y-008867D02*
G01X0018283Y-008881D01*
G01X0018283Y-008881D02*
G01X0018269Y-008910D01*
G01X0018269Y-008910D02*
G01X0018269Y-008952D01*
G01X0018269Y-008952D02*
G01X0018255Y-008980D01*
G01X0018255Y-008980D02*
G01X0018226Y-008994D01*
G01X0018226Y-008994D02*
G01X0018212Y-008994D01*
G01X0018212Y-008994D02*
G01X0018184Y-008980D01*
G01X0018184Y-008980D02*
G01X0018170Y-008952D01*
G01X0018170Y-008952D02*
G01X0018170Y-008910D01*
G01X0018170Y-008910D02*
G01X0018184Y-008881D01*
G01X0018170Y-008783D02*
G01X0018170Y-008670D01*
G01X0018072Y-008741D02*
G01X0018325Y-008741D01*
G01X0018325Y-008741D02*
G01X0018353Y-008727D01*
G01X0018353Y-008727D02*
G01X0018367Y-008699D01*
G01X0018367Y-008699D02*
G01X0018367Y-008670D01*
G01X0018367Y-008572D02*
G01X0018170Y-008572D01*
G01X0018072Y-008572D02*
G01X0018086Y-008586D01*
G01X0018086Y-008586D02*
G01X0018100Y-008572D01*
G01X0018100Y-008572D02*
G01X0018086Y-008558D01*
G01X0018086Y-008558D02*
G01X0018072Y-008572D01*
G01X0018072Y-008572D02*
G01X0018100Y-008572D01*
G01X0018367Y-008305D02*
G01X0018212Y-008305D01*
G01X0018212Y-008305D02*
G01X0018184Y-008319D01*
G01X0018184Y-008319D02*
G01X0018170Y-008347D01*
G01X0018170Y-008347D02*
G01X0018170Y-008403D01*
G01X0018170Y-008403D02*
G01X0018184Y-008431D01*
G01X0018353Y-008305D02*
G01X0018367Y-008333D01*
G01X0018367Y-008333D02*
G01X0018367Y-008403D01*
G01X0018367Y-008403D02*
G01X0018353Y-008431D01*
G01X0018353Y-008431D02*
G01X0018325Y-008446D01*
G01X0018325Y-008446D02*
G01X0018297Y-008446D01*
G01X0018297Y-008446D02*
G01X0018269Y-008431D01*
G01X0018269Y-008431D02*
G01X0018255Y-008403D01*
G01X0018255Y-008403D02*
G01X0018255Y-008333D01*
G01X0018255Y-008333D02*
G01X0018240Y-008305D01*
G01X0018170Y-008164D02*
G01X0018367Y-008164D01*
G01X0018198Y-008164D02*
G01X0018184Y-008150D01*
G01X0018184Y-008150D02*
G01X0018170Y-008122D01*
G01X0018170Y-008122D02*
G01X0018170Y-008080D01*
G01X0018170Y-008080D02*
G01X0018184Y-008052D01*
G01X0018184Y-008052D02*
G01X0018212Y-008038D01*
G01X0018212Y-008038D02*
G01X0018367Y-008038D01*
G01X0018353Y-007686D02*
G01X0018367Y-007644D01*
G01X0018367Y-007644D02*
G01X0018367Y-007574D01*
G01X0018367Y-007574D02*
G01X0018353Y-007546D01*
G01X0018353Y-007546D02*
G01X0018339Y-007532D01*
G01X0018339Y-007532D02*
G01X0018311Y-007517D01*
G01X0018311Y-007517D02*
G01X0018283Y-007517D01*
G01X0018283Y-007517D02*
G01X0018255Y-007532D01*
G01X0018255Y-007532D02*
G01X0018240Y-007546D01*
G01X0018240Y-007546D02*
G01X0018226Y-007574D01*
G01X0018226Y-007574D02*
G01X0018212Y-007630D01*
G01X0018212Y-007630D02*
G01X0018198Y-007658D01*
G01X0018198Y-007658D02*
G01X0018184Y-007672D01*
G01X0018184Y-007672D02*
G01X0018156Y-007686D01*
G01X0018156Y-007686D02*
G01X0018128Y-007686D01*
G01X0018128Y-007686D02*
G01X0018100Y-007672D01*
G01X0018100Y-007672D02*
G01X0018086Y-007658D01*
G01X0018086Y-007658D02*
G01X0018072Y-007630D01*
G01X0018072Y-007630D02*
G01X0018072Y-007560D01*
G01X0018072Y-007560D02*
G01X0018086Y-007517D01*
G01X0018353Y-007264D02*
G01X0018367Y-007293D01*
G01X0018367Y-007293D02*
G01X0018367Y-007349D01*
G01X0018367Y-007349D02*
G01X0018353Y-007377D01*
G01X0018353Y-007377D02*
G01X0018339Y-007391D01*
G01X0018339Y-007391D02*
G01X0018311Y-007405D01*
G01X0018311Y-007405D02*
G01X0018226Y-007405D01*
G01X0018226Y-007405D02*
G01X0018198Y-007391D01*
G01X0018198Y-007391D02*
G01X0018184Y-007377D01*
G01X0018184Y-007377D02*
G01X0018170Y-007349D01*
G01X0018170Y-007349D02*
G01X0018170Y-007293D01*
G01X0018170Y-007293D02*
G01X0018184Y-007264D01*
G01X0018367Y-007138D02*
G01X0018072Y-007138D01*
G01X0018367Y-007011D02*
G01X0018212Y-007011D01*
G01X0018212Y-007011D02*
G01X0018184Y-007025D01*
G01X0018184Y-007025D02*
G01X0018170Y-007053D01*
G01X0018170Y-007053D02*
G01X0018170Y-007096D01*
G01X0018170Y-007096D02*
G01X0018184Y-007124D01*
G01X0018184Y-007124D02*
G01X0018198Y-007138D01*
G01X0018170Y-006744D02*
G01X0018367Y-006744D01*
G01X0018170Y-006871D02*
G01X0018325Y-006871D01*
G01X0018325Y-006871D02*
G01X0018353Y-006857D01*
G01X0018353Y-006857D02*
G01X0018367Y-006829D01*
G01X0018367Y-006829D02*
G01X0018367Y-006786D01*
G01X0018367Y-006786D02*
G01X0018353Y-006758D01*
G01X0018353Y-006758D02*
G01X0018339Y-006744D01*
G01X0018367Y-006604D02*
G01X0018170Y-006604D01*
G01X0018198Y-006604D02*
G01X0018184Y-006589D01*
G01X0018184Y-006589D02*
G01X0018170Y-006561D01*
G01X0018170Y-006561D02*
G01X0018170Y-006519D01*
G01X0018170Y-006519D02*
G01X0018184Y-006491D01*
G01X0018184Y-006491D02*
G01X0018212Y-006477D01*
G01X0018212Y-006477D02*
G01X0018367Y-006477D01*
G01X0018212Y-006477D02*
G01X0018184Y-006463D01*
G01X0018184Y-006463D02*
G01X0018170Y-006435D01*
G01X0018170Y-006435D02*
G01X0018170Y-006393D01*
G01X0018170Y-006393D02*
G01X0018184Y-006365D01*
G01X0018184Y-006365D02*
G01X0018212Y-006350D01*
G01X0018212Y-006350D02*
G01X0018367Y-006350D01*
G01X0018367Y-006210D02*
G01X0018072Y-006210D01*
G01X0018184Y-006210D02*
G01X0018170Y-006182D01*
G01X0018170Y-006182D02*
G01X0018170Y-006125D01*
G01X0018170Y-006125D02*
G01X0018184Y-006097D01*
G01X0018184Y-006097D02*
G01X0018198Y-006083D01*
G01X0018198Y-006083D02*
G01X0018226Y-006069D01*
G01X0018226Y-006069D02*
G01X0018311Y-006069D01*
G01X0018311Y-006069D02*
G01X0018339Y-006083D01*
G01X0018339Y-006083D02*
G01X0018353Y-006097D01*
G01X0018353Y-006097D02*
G01X0018367Y-006125D01*
G01X0018367Y-006125D02*
G01X0018367Y-006182D01*
G01X0018367Y-006182D02*
G01X0018353Y-006210D01*
G01X0018100Y-005732D02*
G01X0018086Y-005718D01*
G01X0018086Y-005718D02*
G01X0018072Y-005690D01*
G01X0018072Y-005690D02*
G01X0018072Y-005619D01*
G01X0018072Y-005619D02*
G01X0018086Y-005591D01*
G01X0018086Y-005591D02*
G01X0018100Y-005577D01*
G01X0018100Y-005577D02*
G01X0018128Y-005563D01*
G01X0018128Y-005563D02*
G01X0018156Y-005563D01*
G01X0018156Y-005563D02*
G01X0018198Y-005577D01*
G01X0018198Y-005577D02*
G01X0018367Y-005746D01*
G01X0018367Y-005746D02*
G01X0018367Y-005563D01*
G01X0018072Y-005380D02*
G01X0018072Y-005352D01*
G01X0018072Y-005352D02*
G01X0018086Y-005324D01*
G01X0018086Y-005324D02*
G01X0018100Y-005310D01*
G01X0018100Y-005310D02*
G01X0018128Y-005296D01*
G01X0018128Y-005296D02*
G01X0018184Y-005282D01*
G01X0018184Y-005282D02*
G01X0018255Y-005282D01*
G01X0018255Y-005282D02*
G01X0018311Y-005296D01*
G01X0018311Y-005296D02*
G01X0018339Y-005310D01*
G01X0018339Y-005310D02*
G01X0018353Y-005324D01*
G01X0018353Y-005324D02*
G01X0018367Y-005352D01*
G01X0018367Y-005352D02*
G01X0018367Y-005380D01*
G01X0018367Y-005380D02*
G01X0018353Y-005408D01*
G01X0018353Y-005408D02*
G01X0018339Y-005422D01*
G01X0018339Y-005422D02*
G01X0018311Y-005437D01*
G01X0018311Y-005437D02*
G01X0018255Y-005451D01*
G01X0018255Y-005451D02*
G01X0018184Y-005451D01*
G01X0018184Y-005451D02*
G01X0018128Y-005437D01*
G01X0018128Y-005437D02*
G01X0018100Y-005422D01*
G01X0018100Y-005422D02*
G01X0018086Y-005408D01*
G01X0018086Y-005408D02*
G01X0018072Y-005380D01*
G01X0018367Y-005001D02*
G01X0018367Y-005169D01*
G01X0018367Y-005085D02*
G01X0018072Y-005085D01*
G01X0018072Y-005085D02*
G01X0018114Y-005113D01*
G01X0018114Y-005113D02*
G01X0018142Y-005141D01*
G01X0018142Y-005141D02*
G01X0018156Y-005169D01*
G01X0018072Y-004733D02*
G01X0018072Y-004874D01*
G01X0018072Y-004874D02*
G01X0018212Y-004888D01*
G01X0018212Y-004888D02*
G01X0018198Y-004874D01*
G01X0018198Y-004874D02*
G01X0018184Y-004846D01*
G01X0018184Y-004846D02*
G01X0018184Y-004776D01*
G01X0018184Y-004776D02*
G01X0018198Y-004748D01*
G01X0018198Y-004748D02*
G01X0018212Y-004733D01*
G01X0018212Y-004733D02*
G01X0018240Y-004719D01*
G01X0018240Y-004719D02*
G01X0018311Y-004719D01*
G01X0018311Y-004719D02*
G01X0018339Y-004733D01*
G01X0018339Y-004733D02*
G01X0018353Y-004748D01*
G01X0018353Y-004748D02*
G01X0018367Y-004776D01*
G01X0018367Y-004776D02*
G01X0018367Y-004846D01*
G01X0018367Y-004846D02*
G01X0018353Y-004874D01*
G01X0018353Y-004874D02*
G01X0018339Y-004888D01*
G54D20*
G01X0016529Y-015530D02*
G01X0017316Y-015343D01*
G01X0017316Y-015343D02*
G01X0016754Y-015193D01*
G01X0016754Y-015193D02*
G01X0017316Y-015043D01*
G01X0017316Y-015043D02*
G01X0016529Y-014855D01*
G01X0017279Y-014593D02*
G01X0017316Y-014480D01*
G01X0017316Y-014480D02*
G01X0017316Y-014293D01*
G01X0017316Y-014293D02*
G01X0017279Y-014218D01*
G01X0017279Y-014218D02*
G01X0017241Y-014180D01*
G01X0017241Y-014180D02*
G01X0017166Y-014143D01*
G01X0017166Y-014143D02*
G01X0017091Y-014143D01*
G01X0017091Y-014143D02*
G01X0017016Y-014180D01*
G01X0017016Y-014180D02*
G01X0016979Y-014218D01*
G01X0016979Y-014218D02*
G01X0016941Y-014293D01*
G01X0016941Y-014293D02*
G01X0016904Y-014443D01*
G01X0016904Y-014443D02*
G01X0016866Y-014518D01*
G01X0016866Y-014518D02*
G01X0016829Y-014555D01*
G01X0016829Y-014555D02*
G01X0016754Y-014593D01*
G01X0016754Y-014593D02*
G01X0016679Y-014593D01*
G01X0016679Y-014593D02*
G01X0016604Y-014555D01*
G01X0016604Y-014555D02*
G01X0016566Y-014518D01*
G01X0016566Y-014518D02*
G01X0016529Y-014443D01*
G01X0016529Y-014443D02*
G01X0016529Y-014255D01*
G01X0016529Y-014255D02*
G01X0016566Y-014143D01*
G01X0016604Y-013843D02*
G01X0016566Y-013805D01*
G01X0016566Y-013805D02*
G01X0016529Y-013730D01*
G01X0016529Y-013730D02*
G01X0016529Y-013543D01*
G01X0016529Y-013543D02*
G01X0016566Y-013468D01*
G01X0016566Y-013468D02*
G01X0016604Y-013430D01*
G01X0016604Y-013430D02*
G01X0016679Y-013393D01*
G01X0016679Y-013393D02*
G01X0016754Y-013393D01*
G01X0016754Y-013393D02*
G01X0016866Y-013430D01*
G01X0016866Y-013430D02*
G01X0017316Y-013880D01*
G01X0017316Y-013880D02*
G01X0017316Y-013393D01*
G01X0016866Y-012943D02*
G01X0016829Y-013018D01*
G01X0016829Y-013018D02*
G01X0016791Y-013055D01*
G01X0016791Y-013055D02*
G01X0016716Y-013093D01*
G01X0016716Y-013093D02*
G01X0016679Y-013093D01*
G01X0016679Y-013093D02*
G01X0016604Y-013055D01*
G01X0016604Y-013055D02*
G01X0016566Y-013018D01*
G01X0016566Y-013018D02*
G01X0016529Y-012943D01*
G01X0016529Y-012943D02*
G01X0016529Y-012793D01*
G01X0016529Y-012793D02*
G01X0016566Y-012718D01*
G01X0016566Y-012718D02*
G01X0016604Y-012680D01*
G01X0016604Y-012680D02*
G01X0016679Y-012643D01*
G01X0016679Y-012643D02*
G01X0016716Y-012643D01*
G01X0016716Y-012643D02*
G01X0016791Y-012680D01*
G01X0016791Y-012680D02*
G01X0016829Y-012718D01*
G01X0016829Y-012718D02*
G01X0016866Y-012793D01*
G01X0016866Y-012793D02*
G01X0016866Y-012943D01*
G01X0016866Y-012943D02*
G01X0016904Y-013018D01*
G01X0016904Y-013018D02*
G01X0016941Y-013055D01*
G01X0016941Y-013055D02*
G01X0017016Y-013093D01*
G01X0017016Y-013093D02*
G01X0017166Y-013093D01*
G01X0017166Y-013093D02*
G01X0017241Y-013055D01*
G01X0017241Y-013055D02*
G01X0017279Y-013018D01*
G01X0017279Y-013018D02*
G01X0017316Y-012943D01*
G01X0017316Y-012943D02*
G01X0017316Y-012793D01*
G01X0017316Y-012793D02*
G01X0017279Y-012718D01*
G01X0017279Y-012718D02*
G01X0017241Y-012680D01*
G01X0017241Y-012680D02*
G01X0017166Y-012643D01*
G01X0017166Y-012643D02*
G01X0017016Y-012643D01*
G01X0017016Y-012643D02*
G01X0016941Y-012680D01*
G01X0016941Y-012680D02*
G01X0016904Y-012718D01*
G01X0016904Y-012718D02*
G01X0016866Y-012793D01*
G01X0016529Y-012155D02*
G01X0016529Y-012080D01*
G01X0016529Y-012080D02*
G01X0016566Y-012005D01*
G01X0016566Y-012005D02*
G01X0016604Y-011968D01*
G01X0016604Y-011968D02*
G01X0016679Y-011931D01*
G01X0016679Y-011931D02*
G01X0016829Y-011893D01*
G01X0016829Y-011893D02*
G01X0017016Y-011893D01*
G01X0017016Y-011893D02*
G01X0017166Y-011931D01*
G01X0017166Y-011931D02*
G01X0017241Y-011968D01*
G01X0017241Y-011968D02*
G01X0017279Y-012005D01*
G01X0017279Y-012005D02*
G01X0017316Y-012080D01*
G01X0017316Y-012080D02*
G01X0017316Y-012155D01*
G01X0017316Y-012155D02*
G01X0017279Y-012230D01*
G01X0017279Y-012230D02*
G01X0017241Y-012268D01*
G01X0017241Y-012268D02*
G01X0017166Y-012305D01*
G01X0017166Y-012305D02*
G01X0017016Y-012343D01*
G01X0017016Y-012343D02*
G01X0016829Y-012343D01*
G01X0016829Y-012343D02*
G01X0016679Y-012305D01*
G01X0016679Y-012305D02*
G01X0016604Y-012268D01*
G01X0016604Y-012268D02*
G01X0016566Y-012230D01*
G01X0016566Y-012230D02*
G01X0016529Y-012155D01*
G01X0017316Y-011143D02*
G01X0017316Y-011593D01*
G01X0017316Y-011368D02*
G01X0016529Y-011368D01*
G01X0016529Y-011368D02*
G01X0016641Y-011443D01*
G01X0016641Y-011443D02*
G01X0016716Y-011518D01*
G01X0016716Y-011518D02*
G01X0016754Y-011593D01*
G01X0017316Y-009831D02*
G01X0017316Y-010206D01*
G01X0017316Y-010206D02*
G01X0016529Y-010206D01*
G01X0017279Y-009268D02*
G01X0017316Y-009343D01*
G01X0017316Y-009343D02*
G01X0017316Y-009493D01*
G01X0017316Y-009493D02*
G01X0017279Y-009568D01*
G01X0017279Y-009568D02*
G01X0017204Y-009606D01*
G01X0017204Y-009606D02*
G01X0016904Y-009606D01*
G01X0016904Y-009606D02*
G01X0016829Y-009568D01*
G01X0016829Y-009568D02*
G01X0016791Y-009493D01*
G01X0016791Y-009493D02*
G01X0016791Y-009343D01*
G01X0016791Y-009343D02*
G01X0016829Y-009268D01*
G01X0016829Y-009268D02*
G01X0016904Y-009231D01*
G01X0016904Y-009231D02*
G01X0016979Y-009231D01*
G01X0016979Y-009231D02*
G01X0017054Y-009606D01*
G01X0017316Y-008556D02*
G01X0016529Y-008556D01*
G01X0017279Y-008556D02*
G01X0017316Y-008631D01*
G01X0017316Y-008631D02*
G01X0017316Y-008781D01*
G01X0017316Y-008781D02*
G01X0017279Y-008856D01*
G01X0017279Y-008856D02*
G01X0017241Y-008893D01*
G01X0017241Y-008893D02*
G01X0017166Y-008931D01*
G01X0017166Y-008931D02*
G01X0016941Y-008931D01*
G01X0016941Y-008931D02*
G01X0016866Y-008893D01*
G01X0016866Y-008893D02*
G01X0016829Y-008856D01*
G01X0016829Y-008856D02*
G01X0016791Y-008781D01*
G01X0016791Y-008781D02*
G01X0016791Y-008631D01*
G01X0016791Y-008631D02*
G01X0016829Y-008556D01*
G01X0017316Y-007581D02*
G01X0016529Y-007581D01*
G01X0016529Y-007581D02*
G01X0016529Y-007394D01*
G01X0016529Y-007394D02*
G01X0016566Y-007281D01*
G01X0016566Y-007281D02*
G01X0016641Y-007206D01*
G01X0016641Y-007206D02*
G01X0016716Y-007169D01*
G01X0016716Y-007169D02*
G01X0016866Y-007131D01*
G01X0016866Y-007131D02*
G01X0016979Y-007131D01*
G01X0016979Y-007131D02*
G01X0017129Y-007169D01*
G01X0017129Y-007169D02*
G01X0017204Y-007206D01*
G01X0017204Y-007206D02*
G01X0017279Y-007281D01*
G01X0017279Y-007281D02*
G01X0017316Y-007394D01*
G01X0017316Y-007394D02*
G01X0017316Y-007581D01*
G01X0017316Y-006794D02*
G01X0016791Y-006794D01*
G01X0016941Y-006794D02*
G01X0016866Y-006756D01*
G01X0016866Y-006756D02*
G01X0016829Y-006719D01*
G01X0016829Y-006719D02*
G01X0016791Y-006644D01*
G01X0016791Y-006644D02*
G01X0016791Y-006569D01*
G01X0017316Y-006306D02*
G01X0016791Y-006306D01*
G01X0016529Y-006306D02*
G01X0016566Y-006344D01*
G01X0016566Y-006344D02*
G01X0016604Y-006306D01*
G01X0016604Y-006306D02*
G01X0016566Y-006269D01*
G01X0016566Y-006269D02*
G01X0016529Y-006306D01*
G01X0016529Y-006306D02*
G01X0016604Y-006306D01*
G01X0016791Y-006006D02*
G01X0017316Y-005819D01*
G01X0017316Y-005819D02*
G01X0016791Y-005631D01*
G01X0017279Y-005031D02*
G01X0017316Y-005106D01*
G01X0017316Y-005106D02*
G01X0017316Y-005256D01*
G01X0017316Y-005256D02*
G01X0017279Y-005331D01*
G01X0017279Y-005331D02*
G01X0017204Y-005369D01*
G01X0017204Y-005369D02*
G01X0016904Y-005369D01*
G01X0016904Y-005369D02*
G01X0016829Y-005331D01*
G01X0016829Y-005331D02*
G01X0016791Y-005256D01*
G01X0016791Y-005256D02*
G01X0016791Y-005106D01*
G01X0016791Y-005106D02*
G01X0016829Y-005031D01*
G01X0016829Y-005031D02*
G01X0016904Y-004994D01*
G01X0016904Y-004994D02*
G01X0016979Y-004994D01*
G01X0016979Y-004994D02*
G01X0017054Y-005369D01*
G01X0017316Y-004656D02*
G01X0016791Y-004656D01*
G01X0016941Y-004656D02*
G01X0016866Y-004619D01*
G01X0016866Y-004619D02*
G01X0016829Y-004581D01*
G01X0016829Y-004581D02*
G01X0016791Y-004506D01*
G01X0016791Y-004506D02*
G01X0016791Y-004431D01*
G54D21*
G01X0026098Y-015350D02*
G01X0026098Y-014150D01*
G01X0026098Y-014150D02*
G01X0026398Y-014150D01*
G01X0026398Y-014150D02*
G01X0026398Y-015350D01*
G01X0026398Y-015350D02*
G01X0026098Y-015350D01*
G01X0026098Y-013850D02*
G01X0026098Y-012650D01*
G01X0026098Y-012650D02*
G01X0026398Y-012650D01*
G01X0026398Y-012650D02*
G01X0026398Y-013850D01*
G01X0026398Y-013850D02*
G01X0026098Y-013850D01*
G01X0026098Y-012350D02*
G01X0026098Y-011150D01*
G01X0026098Y-011150D02*
G01X0026398Y-011150D01*
G01X0026398Y-011150D02*
G01X0026398Y-012350D01*
G01X0026398Y-012350D02*
G01X0026098Y-012350D01*
G54D13*
G01X0028683Y-005390D02*
G01X0028683Y-006610D01*
G01X0028683Y-006610D02*
G01X0027978Y-006610D01*
G01X0028683Y-005390D02*
G01X0027978Y-005390D01*
G01X0025813Y-006745D02*
G01X0025813Y-007065D01*
G01X0025813Y-007065D02*
G01X0026518Y-007065D01*
G01X0025813Y-006745D02*
G01X0026518Y-006745D01*
G01X0025813Y-005840D02*
G01X0026518Y-005840D01*
G01X0025813Y-006160D02*
G01X0026518Y-006160D01*
G01X0025813Y-005840D02*
G01X0025813Y-006160D01*
G01X0025813Y-004935D02*
G01X0025813Y-005255D01*
G01X0025813Y-005255D02*
G01X0026518Y-005255D01*
G01X0025813Y-004935D02*
G01X0026518Y-004935D01*
G01X0026518Y-007320D02*
G01X0026518Y-004680D01*
G01X0026518Y-004680D02*
G01X0027978Y-004680D01*
G01X0027978Y-004680D02*
G01X0027978Y-007320D01*
G01X0027978Y-007320D02*
G01X0026518Y-007320D01*
G54D17*
G01X0020348Y-013800D02*
G01X0024148Y-013800D01*
G01X0024148Y-013800D02*
G01X0024148Y-015300D01*
G01X0024148Y-015300D02*
G01X0020348Y-015300D01*
G01X0020348Y-015300D02*
G01X0020348Y-013800D01*
G01X0020348Y-014300D02*
G01X0020648Y-014300D01*
G01X0020648Y-014300D02*
G01X0020648Y-014700D01*
G01X0020648Y-014700D02*
G01X0020348Y-014700D01*
G54D22*
G01X0020825Y-003425D02*
G01X0019171Y-003425D01*
G01X0020825Y-003307D02*
G01X0019171Y-003307D01*
G01X0020825Y-006693D02*
G01X0019171Y-006693D01*
G01X0019169Y-005786D02*
G01X0019169Y-006686D01*
G01X0020827Y-006686D02*
G01X0020827Y-005786D01*
G01X0020827Y-004213D02*
G01X0020827Y-003313D01*
G01X0019169Y-003314D02*
G01X0019169Y-004214D01*
G54D13*
G01X0019048Y-014250D02*
G01X0019948Y-014250D01*
G01X0019948Y-014250D02*
G01X0019948Y-014750D01*
G01X0019948Y-014750D02*
G01X0019048Y-014750D01*
G01X0019048Y-014750D02*
G01X0019048Y-014250D01*
G01X0019048Y-015000D02*
G01X0019948Y-015000D01*
G01X0019948Y-015000D02*
G01X0019948Y-015500D01*
G01X0019948Y-015500D02*
G01X0019048Y-015500D01*
G01X0019048Y-015500D02*
G01X0019048Y-015000D01*
G01X0019048Y-013500D02*
G01X0019948Y-013500D01*
G01X0019948Y-013500D02*
G01X0019948Y-014000D01*
G01X0019948Y-014000D02*
G01X0019048Y-014000D01*
G01X0019048Y-014000D02*
G01X0019048Y-013500D01*
G01X0025798Y-003750D02*
G01X0026698Y-003750D01*
G01X0026698Y-003750D02*
G01X0026698Y-004250D01*
G01X0026698Y-004250D02*
G01X0025798Y-004250D01*
G01X0025798Y-004250D02*
G01X0025798Y-003750D01*
G01X0027048Y-003750D02*
G01X0027948Y-003750D01*
G01X0027948Y-003750D02*
G01X0027948Y-004250D01*
G01X0027948Y-004250D02*
G01X0027048Y-004250D01*
G01X0027048Y-004250D02*
G01X0027048Y-003750D01*
G01X0023498Y-004700D02*
G01X0023498Y-003800D01*
G01X0023498Y-003800D02*
G01X0023998Y-003800D01*
G01X0023998Y-003800D02*
G01X0023998Y-004700D01*
G01X0023998Y-004700D02*
G01X0023498Y-004700D01*
G01X0023998Y-007050D02*
G01X0023998Y-007950D01*
G01X0023998Y-007950D02*
G01X0023498Y-007950D01*
G01X0023498Y-007950D02*
G01X0023498Y-007050D01*
G01X0023498Y-007050D02*
G01X0023998Y-007050D01*
G54D15*
G01X0024498Y-002000D02*
G01X0024498Y-001000D01*
G01X0024498Y-001000D02*
G01X0027498Y-001000D01*
G01X0027498Y-001000D02*
G01X0027498Y-002000D01*
G01X0027498Y-002000D02*
G01X0024498Y-002000D01*
G01X0025498Y-001000D02*
G01X0025498Y-002000D01*
G54D13*
G01X0022248Y-007350D02*
G01X0022248Y-007650D01*
G01X0022098Y-007500D02*
G01X0022398Y-007500D01*
G01X0023148Y-007400D02*
G01X0023148Y-008900D01*
G01X0021648Y-007100D02*
G01X0022848Y-007100D01*
G01X0023148Y-007400D02*
G01X0022848Y-007100D01*
G01X0021348Y-007400D02*
G01X0021348Y-008900D01*
G01X0021348Y-007400D02*
G01X0021648Y-007100D01*
G01X0022298Y-008800D02*
G01X0022198Y-008800D01*
G01X0021998Y-008750D02*
G01X0022498Y-008750D01*
G01X0022598Y-008700D02*
G01X0021898Y-008700D01*
G01X0022698Y-008650D02*
G01X0021798Y-008650D01*
G01X0021748Y-008600D02*
G01X0022748Y-008600D01*
G01X0022798Y-008550D02*
G01X0021698Y-008550D01*
G01X0021648Y-008500D02*
G01X0022848Y-008500D01*
G01X0021598Y-008450D02*
G01X0022898Y-008450D01*
G01X0023048Y-008000D02*
G75*
G03X0023048Y-008000I-000800J0000000D01*
G01X0021348Y-008900D02*
G01X0023148Y-008900D01*
G01X0022248Y-005150D02*
G01X0022248Y-004850D01*
G01X0022398Y-005000D02*
G01X0022098Y-005000D01*
G01X0021348Y-005100D02*
G01X0021348Y-003600D01*
G01X0022848Y-005400D02*
G01X0021648Y-005400D01*
G01X0021348Y-005100D02*
G01X0021648Y-005400D01*
G01X0023148Y-005100D02*
G01X0023148Y-003600D01*
G01X0023148Y-005100D02*
G01X0022848Y-005400D01*
G01X0022198Y-003700D02*
G01X0022298Y-003700D01*
G01X0022498Y-003750D02*
G01X0021998Y-003750D01*
G01X0021898Y-003800D02*
G01X0022598Y-003800D01*
G01X0021798Y-003850D02*
G01X0022698Y-003850D01*
G01X0022748Y-003900D02*
G01X0021748Y-003900D01*
G01X0021698Y-003950D02*
G01X0022798Y-003950D01*
G01X0022848Y-004000D02*
G01X0021648Y-004000D01*
G01X0022898Y-004050D02*
G01X0021598Y-004050D01*
G01X0023048Y-004500D02*
G75*
G03X0023048Y-004500I-000800J0000000D01*
G01X0023148Y-003600D02*
G01X0021348Y-003600D01*
G54D15*
G01X0027498Y-015750D02*
G01X0030498Y-015750D01*
G01X0030498Y-007750D02*
G01X0027498Y-007750D01*
G01X0029998Y-007750D02*
G01X0029998Y-015750D01*
G01X0027498Y-015750D02*
G01X0027498Y-007750D01*
G01X0030498Y-015750D02*
G01X0030498Y-007750D01*
G01X0022998Y-019000D02*
G01X0018998Y-019000D01*
G01X0022998Y-019500D02*
G01X0022998Y-016500D01*
G01X0022998Y-016500D02*
G01X0018998Y-016500D01*
G01X0018998Y-016500D02*
G01X0018998Y-019500D01*
G01X0018998Y-019500D02*
G01X0022998Y-019500D01*
G01X0018998Y-000500D02*
G01X0022998Y-000500D01*
G01X0018998Y0000000D02*
G01X0018998Y-003000D01*
G01X0018998Y-003000D02*
G01X0022998Y-003000D01*
G01X0022998Y-003000D02*
G01X0022998Y0000000D01*
G01X0022998Y0000000D02*
G01X0018998Y0000000D01*
G01X0024498Y-018500D02*
G01X0024498Y-017500D01*
G01X0024498Y-017500D02*
G01X0027498Y-017500D01*
G01X0027498Y-017500D02*
G01X0027498Y-018500D01*
G01X0027498Y-018500D02*
G01X0024498Y-018500D01*
G01X0025498Y-017500D02*
G01X0025498Y-018500D01*
G54D16*
G01X0029898Y-001500D02*
G75*
G03X0029898Y-001500I-000900J0000000D01*
G01X0029898Y-018000D02*
G75*
G03X0029898Y-018000I-000900J0000000D01*
G01X0018148Y-018000D02*
G75*
G03X0018148Y-018000I-000900J0000000D01*
G01X0018148Y-001500D02*
G75*
G03X0018148Y-001500I-000900J0000000D01*
G54D19*
G01X0026719Y-015647D02*
G01X0026691Y-015633D01*
G01X0026691Y-015633D02*
G01X0026663Y-015605D01*
G01X0026663Y-015605D02*
G01X0026621Y-015563D01*
G01X0026621Y-015563D02*
G01X0026593Y-015549D01*
G01X0026593Y-015549D02*
G01X0026565Y-015549D01*
G01X0026579Y-015619D02*
G01X0026551Y-015605D01*
G01X0026551Y-015605D02*
G01X0026523Y-015577D01*
G01X0026523Y-015577D02*
G01X0026508Y-015521D01*
G01X0026508Y-015521D02*
G01X0026508Y-015422D01*
G01X0026508Y-015422D02*
G01X0026523Y-015366D01*
G01X0026523Y-015366D02*
G01X0026551Y-015338D01*
G01X0026551Y-015338D02*
G01X0026579Y-015324D01*
G01X0026579Y-015324D02*
G01X0026635Y-015324D01*
G01X0026635Y-015324D02*
G01X0026663Y-015338D01*
G01X0026663Y-015338D02*
G01X0026691Y-015366D01*
G01X0026691Y-015366D02*
G01X0026705Y-015422D01*
G01X0026705Y-015422D02*
G01X0026705Y-015521D01*
G01X0026705Y-015521D02*
G01X0026691Y-015577D01*
G01X0026691Y-015577D02*
G01X0026663Y-015605D01*
G01X0026663Y-015605D02*
G01X0026635Y-015619D01*
G01X0026635Y-015619D02*
G01X0026579Y-015619D01*
G01X0026804Y-015324D02*
G01X0026987Y-015324D01*
G01X0026987Y-015324D02*
G01X0026888Y-015436D01*
G01X0026888Y-015436D02*
G01X0026930Y-015436D01*
G01X0026930Y-015436D02*
G01X0026958Y-015450D01*
G01X0026958Y-015450D02*
G01X0026972Y-015464D01*
G01X0026972Y-015464D02*
G01X0026987Y-015492D01*
G01X0026987Y-015492D02*
G01X0026987Y-015563D01*
G01X0026987Y-015563D02*
G01X0026972Y-015591D01*
G01X0026972Y-015591D02*
G01X0026958Y-015605D01*
G01X0026958Y-015605D02*
G01X0026930Y-015619D01*
G01X0026930Y-015619D02*
G01X0026846Y-015619D01*
G01X0026846Y-015619D02*
G01X0026818Y-015605D01*
G01X0026818Y-015605D02*
G01X0026804Y-015591D01*
G01X0026719Y-014147D02*
G01X0026691Y-014133D01*
G01X0026691Y-014133D02*
G01X0026663Y-014105D01*
G01X0026663Y-014105D02*
G01X0026621Y-014063D01*
G01X0026621Y-014063D02*
G01X0026593Y-014049D01*
G01X0026593Y-014049D02*
G01X0026565Y-014049D01*
G01X0026579Y-014119D02*
G01X0026551Y-014105D01*
G01X0026551Y-014105D02*
G01X0026523Y-014077D01*
G01X0026523Y-014077D02*
G01X0026508Y-014021D01*
G01X0026508Y-014021D02*
G01X0026508Y-013922D01*
G01X0026508Y-013922D02*
G01X0026523Y-013866D01*
G01X0026523Y-013866D02*
G01X0026551Y-013838D01*
G01X0026551Y-013838D02*
G01X0026579Y-013824D01*
G01X0026579Y-013824D02*
G01X0026635Y-013824D01*
G01X0026635Y-013824D02*
G01X0026663Y-013838D01*
G01X0026663Y-013838D02*
G01X0026691Y-013866D01*
G01X0026691Y-013866D02*
G01X0026705Y-013922D01*
G01X0026705Y-013922D02*
G01X0026705Y-014021D01*
G01X0026705Y-014021D02*
G01X0026691Y-014077D01*
G01X0026691Y-014077D02*
G01X0026663Y-014105D01*
G01X0026663Y-014105D02*
G01X0026635Y-014119D01*
G01X0026635Y-014119D02*
G01X0026579Y-014119D01*
G01X0026818Y-013852D02*
G01X0026832Y-013838D01*
G01X0026832Y-013838D02*
G01X0026860Y-013824D01*
G01X0026860Y-013824D02*
G01X0026930Y-013824D01*
G01X0026930Y-013824D02*
G01X0026958Y-013838D01*
G01X0026958Y-013838D02*
G01X0026972Y-013852D01*
G01X0026972Y-013852D02*
G01X0026987Y-013880D01*
G01X0026987Y-013880D02*
G01X0026987Y-013908D01*
G01X0026987Y-013908D02*
G01X0026972Y-013950D01*
G01X0026972Y-013950D02*
G01X0026804Y-014119D01*
G01X0026804Y-014119D02*
G01X0026987Y-014119D01*
G01X0026719Y-012647D02*
G01X0026691Y-012633D01*
G01X0026691Y-012633D02*
G01X0026663Y-012605D01*
G01X0026663Y-012605D02*
G01X0026621Y-012563D01*
G01X0026621Y-012563D02*
G01X0026593Y-012549D01*
G01X0026593Y-012549D02*
G01X0026565Y-012549D01*
G01X0026579Y-012619D02*
G01X0026551Y-012605D01*
G01X0026551Y-012605D02*
G01X0026523Y-012577D01*
G01X0026523Y-012577D02*
G01X0026508Y-012521D01*
G01X0026508Y-012521D02*
G01X0026508Y-012422D01*
G01X0026508Y-012422D02*
G01X0026523Y-012366D01*
G01X0026523Y-012366D02*
G01X0026551Y-012338D01*
G01X0026551Y-012338D02*
G01X0026579Y-012324D01*
G01X0026579Y-012324D02*
G01X0026635Y-012324D01*
G01X0026635Y-012324D02*
G01X0026663Y-012338D01*
G01X0026663Y-012338D02*
G01X0026691Y-012366D01*
G01X0026691Y-012366D02*
G01X0026705Y-012422D01*
G01X0026705Y-012422D02*
G01X0026705Y-012521D01*
G01X0026705Y-012521D02*
G01X0026691Y-012577D01*
G01X0026691Y-012577D02*
G01X0026663Y-012605D01*
G01X0026663Y-012605D02*
G01X0026635Y-012619D01*
G01X0026635Y-012619D02*
G01X0026579Y-012619D01*
G01X0026987Y-012619D02*
G01X0026818Y-012619D01*
G01X0026902Y-012619D02*
G01X0026902Y-012324D01*
G01X0026902Y-012324D02*
G01X0026874Y-012366D01*
G01X0026874Y-012366D02*
G01X0026846Y-012394D01*
G01X0026846Y-012394D02*
G01X0026818Y-012408D01*
G01X0028273Y-007074D02*
G01X0028273Y-007313D01*
G01X0028273Y-007313D02*
G01X0028287Y-007341D01*
G01X0028287Y-007341D02*
G01X0028301Y-007355D01*
G01X0028301Y-007355D02*
G01X0028329Y-007369D01*
G01X0028329Y-007369D02*
G01X0028385Y-007369D01*
G01X0028385Y-007369D02*
G01X0028413Y-007355D01*
G01X0028413Y-007355D02*
G01X0028427Y-007341D01*
G01X0028427Y-007341D02*
G01X0028441Y-007313D01*
G01X0028441Y-007313D02*
G01X0028441Y-007074D01*
G01X0028737Y-007369D02*
G01X0028568Y-007369D01*
G01X0028652Y-007369D02*
G01X0028652Y-007074D01*
G01X0028652Y-007074D02*
G01X0028624Y-007116D01*
G01X0028624Y-007116D02*
G01X0028596Y-007144D01*
G01X0028596Y-007144D02*
G01X0028568Y-007158D01*
G01X0024273Y-015574D02*
G01X0024273Y-015813D01*
G01X0024273Y-015813D02*
G01X0024287Y-015841D01*
G01X0024287Y-015841D02*
G01X0024301Y-015855D01*
G01X0024301Y-015855D02*
G01X0024329Y-015869D01*
G01X0024329Y-015869D02*
G01X0024385Y-015869D01*
G01X0024385Y-015869D02*
G01X0024413Y-015855D01*
G01X0024413Y-015855D02*
G01X0024427Y-015841D01*
G01X0024427Y-015841D02*
G01X0024441Y-015813D01*
G01X0024441Y-015813D02*
G01X0024441Y-015574D01*
G01X0024568Y-015602D02*
G01X0024582Y-015588D01*
G01X0024582Y-015588D02*
G01X0024610Y-015574D01*
G01X0024610Y-015574D02*
G01X0024680Y-015574D01*
G01X0024680Y-015574D02*
G01X0024708Y-015588D01*
G01X0024708Y-015588D02*
G01X0024722Y-015602D01*
G01X0024722Y-015602D02*
G01X0024737Y-015630D01*
G01X0024737Y-015630D02*
G01X0024737Y-015658D01*
G01X0024737Y-015658D02*
G01X0024722Y-015700D01*
G01X0024722Y-015700D02*
G01X0024554Y-015869D01*
G01X0024554Y-015869D02*
G01X0024737Y-015869D01*
G01X0021418Y-014324D02*
G01X0021488Y-014619D01*
G01X0021488Y-014619D02*
G01X0021544Y-014408D01*
G01X0021544Y-014408D02*
G01X0021601Y-014619D01*
G01X0021601Y-014619D02*
G01X0021671Y-014324D01*
G01X0021769Y-014605D02*
G01X0021812Y-014619D01*
G01X0021812Y-014619D02*
G01X0021882Y-014619D01*
G01X0021882Y-014619D02*
G01X0021910Y-014605D01*
G01X0021910Y-014605D02*
G01X0021924Y-014591D01*
G01X0021924Y-014591D02*
G01X0021938Y-014563D01*
G01X0021938Y-014563D02*
G01X0021938Y-014535D01*
G01X0021938Y-014535D02*
G01X0021924Y-014507D01*
G01X0021924Y-014507D02*
G01X0021910Y-014492D01*
G01X0021910Y-014492D02*
G01X0021882Y-014478D01*
G01X0021882Y-014478D02*
G01X0021826Y-014464D01*
G01X0021826Y-014464D02*
G01X0021798Y-014450D01*
G01X0021798Y-014450D02*
G01X0021783Y-014436D01*
G01X0021783Y-014436D02*
G01X0021769Y-014408D01*
G01X0021769Y-014408D02*
G01X0021769Y-014380D01*
G01X0021769Y-014380D02*
G01X0021783Y-014352D01*
G01X0021783Y-014352D02*
G01X0021798Y-014338D01*
G01X0021798Y-014338D02*
G01X0021826Y-014324D01*
G01X0021826Y-014324D02*
G01X0021896Y-014324D01*
G01X0021896Y-014324D02*
G01X0021938Y-014338D01*
G01X0022051Y-014352D02*
G01X0022065Y-014338D01*
G01X0022065Y-014338D02*
G01X0022093Y-014324D01*
G01X0022093Y-014324D02*
G01X0022163Y-014324D01*
G01X0022163Y-014324D02*
G01X0022191Y-014338D01*
G01X0022191Y-014338D02*
G01X0022205Y-014352D01*
G01X0022205Y-014352D02*
G01X0022219Y-014380D01*
G01X0022219Y-014380D02*
G01X0022219Y-014408D01*
G01X0022219Y-014408D02*
G01X0022205Y-014450D01*
G01X0022205Y-014450D02*
G01X0022037Y-014619D01*
G01X0022037Y-014619D02*
G01X0022219Y-014619D01*
G01X0022388Y-014450D02*
G01X0022360Y-014436D01*
G01X0022360Y-014436D02*
G01X0022346Y-014422D01*
G01X0022346Y-014422D02*
G01X0022332Y-014394D01*
G01X0022332Y-014394D02*
G01X0022332Y-014380D01*
G01X0022332Y-014380D02*
G01X0022346Y-014352D01*
G01X0022346Y-014352D02*
G01X0022360Y-014338D01*
G01X0022360Y-014338D02*
G01X0022388Y-014324D01*
G01X0022388Y-014324D02*
G01X0022444Y-014324D01*
G01X0022444Y-014324D02*
G01X0022472Y-014338D01*
G01X0022472Y-014338D02*
G01X0022487Y-014352D01*
G01X0022487Y-014352D02*
G01X0022501Y-014380D01*
G01X0022501Y-014380D02*
G01X0022501Y-014394D01*
G01X0022501Y-014394D02*
G01X0022487Y-014422D01*
G01X0022487Y-014422D02*
G01X0022472Y-014436D01*
G01X0022472Y-014436D02*
G01X0022444Y-014450D01*
G01X0022444Y-014450D02*
G01X0022388Y-014450D01*
G01X0022388Y-014450D02*
G01X0022360Y-014464D01*
G01X0022360Y-014464D02*
G01X0022346Y-014478D01*
G01X0022346Y-014478D02*
G01X0022332Y-014507D01*
G01X0022332Y-014507D02*
G01X0022332Y-014563D01*
G01X0022332Y-014563D02*
G01X0022346Y-014591D01*
G01X0022346Y-014591D02*
G01X0022360Y-014605D01*
G01X0022360Y-014605D02*
G01X0022388Y-014619D01*
G01X0022388Y-014619D02*
G01X0022444Y-014619D01*
G01X0022444Y-014619D02*
G01X0022472Y-014605D01*
G01X0022472Y-014605D02*
G01X0022487Y-014591D01*
G01X0022487Y-014591D02*
G01X0022501Y-014563D01*
G01X0022501Y-014563D02*
G01X0022501Y-014507D01*
G01X0022501Y-014507D02*
G01X0022487Y-014478D01*
G01X0022487Y-014478D02*
G01X0022472Y-014464D01*
G01X0022472Y-014464D02*
G01X0022444Y-014450D01*
G01X0022683Y-014324D02*
G01X0022712Y-014324D01*
G01X0022712Y-014324D02*
G01X0022740Y-014338D01*
G01X0022740Y-014338D02*
G01X0022754Y-014352D01*
G01X0022754Y-014352D02*
G01X0022768Y-014380D01*
G01X0022768Y-014380D02*
G01X0022782Y-014436D01*
G01X0022782Y-014436D02*
G01X0022782Y-014507D01*
G01X0022782Y-014507D02*
G01X0022768Y-014563D01*
G01X0022768Y-014563D02*
G01X0022754Y-014591D01*
G01X0022754Y-014591D02*
G01X0022740Y-014605D01*
G01X0022740Y-014605D02*
G01X0022712Y-014619D01*
G01X0022712Y-014619D02*
G01X0022683Y-014619D01*
G01X0022683Y-014619D02*
G01X0022655Y-014605D01*
G01X0022655Y-014605D02*
G01X0022641Y-014591D01*
G01X0022641Y-014591D02*
G01X0022627Y-014563D01*
G01X0022627Y-014563D02*
G01X0022613Y-014507D01*
G01X0022613Y-014507D02*
G01X0022613Y-014436D01*
G01X0022613Y-014436D02*
G01X0022627Y-014380D01*
G01X0022627Y-014380D02*
G01X0022641Y-014352D01*
G01X0022641Y-014352D02*
G01X0022655Y-014338D01*
G01X0022655Y-014338D02*
G01X0022683Y-014324D01*
G01X0023063Y-014619D02*
G01X0022894Y-014619D01*
G01X0022979Y-014619D02*
G01X0022979Y-014324D01*
G01X0022979Y-014324D02*
G01X0022951Y-014366D01*
G01X0022951Y-014366D02*
G01X0022922Y-014394D01*
G01X0022922Y-014394D02*
G01X0022894Y-014408D01*
G01X0019899Y-006964D02*
G01X0019801Y-006964D01*
G01X0019801Y-007119D02*
G01X0019801Y-006824D01*
G01X0019801Y-006824D02*
G01X0019941Y-006824D01*
G01X0020208Y-007119D02*
G01X0020040Y-007119D01*
G01X0020124Y-007119D02*
G01X0020124Y-006824D01*
G01X0020124Y-006824D02*
G01X0020096Y-006866D01*
G01X0020096Y-006866D02*
G01X0020068Y-006894D01*
G01X0020068Y-006894D02*
G01X0020040Y-006908D01*
G01X0018448Y-014619D02*
G01X0018350Y-014478D01*
G01X0018280Y-014619D02*
G01X0018280Y-014324D01*
G01X0018280Y-014324D02*
G01X0018392Y-014324D01*
G01X0018392Y-014324D02*
G01X0018420Y-014338D01*
G01X0018420Y-014338D02*
G01X0018434Y-014352D01*
G01X0018434Y-014352D02*
G01X0018448Y-014380D01*
G01X0018448Y-014380D02*
G01X0018448Y-014422D01*
G01X0018448Y-014422D02*
G01X0018434Y-014450D01*
G01X0018434Y-014450D02*
G01X0018420Y-014464D01*
G01X0018420Y-014464D02*
G01X0018392Y-014478D01*
G01X0018392Y-014478D02*
G01X0018280Y-014478D01*
G01X0018547Y-014324D02*
G01X0018730Y-014324D01*
G01X0018730Y-014324D02*
G01X0018631Y-014436D01*
G01X0018631Y-014436D02*
G01X0018673Y-014436D01*
G01X0018673Y-014436D02*
G01X0018701Y-014450D01*
G01X0018701Y-014450D02*
G01X0018715Y-014464D01*
G01X0018715Y-014464D02*
G01X0018730Y-014492D01*
G01X0018730Y-014492D02*
G01X0018730Y-014563D01*
G01X0018730Y-014563D02*
G01X0018715Y-014591D01*
G01X0018715Y-014591D02*
G01X0018701Y-014605D01*
G01X0018701Y-014605D02*
G01X0018673Y-014619D01*
G01X0018673Y-014619D02*
G01X0018589Y-014619D01*
G01X0018589Y-014619D02*
G01X0018561Y-014605D01*
G01X0018561Y-014605D02*
G01X0018547Y-014591D01*
G01X0018448Y-015369D02*
G01X0018350Y-015228D01*
G01X0018280Y-015369D02*
G01X0018280Y-015074D01*
G01X0018280Y-015074D02*
G01X0018392Y-015074D01*
G01X0018392Y-015074D02*
G01X0018420Y-015088D01*
G01X0018420Y-015088D02*
G01X0018434Y-015102D01*
G01X0018434Y-015102D02*
G01X0018448Y-015130D01*
G01X0018448Y-015130D02*
G01X0018448Y-015172D01*
G01X0018448Y-015172D02*
G01X0018434Y-015200D01*
G01X0018434Y-015200D02*
G01X0018420Y-015214D01*
G01X0018420Y-015214D02*
G01X0018392Y-015228D01*
G01X0018392Y-015228D02*
G01X0018280Y-015228D01*
G01X0018701Y-015172D02*
G01X0018701Y-015369D01*
G01X0018631Y-015060D02*
G01X0018561Y-015271D01*
G01X0018561Y-015271D02*
G01X0018744Y-015271D01*
G01X0018448Y-013869D02*
G01X0018350Y-013728D01*
G01X0018280Y-013869D02*
G01X0018280Y-013574D01*
G01X0018280Y-013574D02*
G01X0018392Y-013574D01*
G01X0018392Y-013574D02*
G01X0018420Y-013588D01*
G01X0018420Y-013588D02*
G01X0018434Y-013602D01*
G01X0018434Y-013602D02*
G01X0018448Y-013630D01*
G01X0018448Y-013630D02*
G01X0018448Y-013672D01*
G01X0018448Y-013672D02*
G01X0018434Y-013700D01*
G01X0018434Y-013700D02*
G01X0018420Y-013714D01*
G01X0018420Y-013714D02*
G01X0018392Y-013728D01*
G01X0018392Y-013728D02*
G01X0018280Y-013728D01*
G01X0018561Y-013602D02*
G01X0018575Y-013588D01*
G01X0018575Y-013588D02*
G01X0018603Y-013574D01*
G01X0018603Y-013574D02*
G01X0018673Y-013574D01*
G01X0018673Y-013574D02*
G01X0018701Y-013588D01*
G01X0018701Y-013588D02*
G01X0018715Y-013602D01*
G01X0018715Y-013602D02*
G01X0018730Y-013630D01*
G01X0018730Y-013630D02*
G01X0018730Y-013658D01*
G01X0018730Y-013658D02*
G01X0018715Y-013700D01*
G01X0018715Y-013700D02*
G01X0018547Y-013869D01*
G01X0018547Y-013869D02*
G01X0018730Y-013869D01*
G01X0026198Y-003619D02*
G01X0026100Y-003478D01*
G01X0026030Y-003619D02*
G01X0026030Y-003324D01*
G01X0026030Y-003324D02*
G01X0026142Y-003324D01*
G01X0026142Y-003324D02*
G01X0026170Y-003338D01*
G01X0026170Y-003338D02*
G01X0026184Y-003352D01*
G01X0026184Y-003352D02*
G01X0026198Y-003380D01*
G01X0026198Y-003380D02*
G01X0026198Y-003422D01*
G01X0026198Y-003422D02*
G01X0026184Y-003450D01*
G01X0026184Y-003450D02*
G01X0026170Y-003464D01*
G01X0026170Y-003464D02*
G01X0026142Y-003478D01*
G01X0026142Y-003478D02*
G01X0026030Y-003478D01*
G01X0026480Y-003619D02*
G01X0026311Y-003619D01*
G01X0026395Y-003619D02*
G01X0026395Y-003324D01*
G01X0026395Y-003324D02*
G01X0026367Y-003366D01*
G01X0026367Y-003366D02*
G01X0026339Y-003394D01*
G01X0026339Y-003394D02*
G01X0026311Y-003408D01*
G01X0027280Y-003619D02*
G01X0027280Y-003324D01*
G01X0027280Y-003324D02*
G01X0027350Y-003324D01*
G01X0027350Y-003324D02*
G01X0027392Y-003338D01*
G01X0027392Y-003338D02*
G01X0027420Y-003366D01*
G01X0027420Y-003366D02*
G01X0027434Y-003394D01*
G01X0027434Y-003394D02*
G01X0027448Y-003450D01*
G01X0027448Y-003450D02*
G01X0027448Y-003492D01*
G01X0027448Y-003492D02*
G01X0027434Y-003549D01*
G01X0027434Y-003549D02*
G01X0027420Y-003577D01*
G01X0027420Y-003577D02*
G01X0027392Y-003605D01*
G01X0027392Y-003605D02*
G01X0027350Y-003619D01*
G01X0027350Y-003619D02*
G01X0027280Y-003619D01*
G01X0027730Y-003619D02*
G01X0027561Y-003619D01*
G01X0027645Y-003619D02*
G01X0027645Y-003324D01*
G01X0027645Y-003324D02*
G01X0027617Y-003366D01*
G01X0027617Y-003366D02*
G01X0027589Y-003394D01*
G01X0027589Y-003394D02*
G01X0027561Y-003408D01*
G01X0023698Y-003591D02*
G01X0023684Y-003605D01*
G01X0023684Y-003605D02*
G01X0023642Y-003619D01*
G01X0023642Y-003619D02*
G01X0023614Y-003619D01*
G01X0023614Y-003619D02*
G01X0023572Y-003605D01*
G01X0023572Y-003605D02*
G01X0023544Y-003577D01*
G01X0023544Y-003577D02*
G01X0023530Y-003549D01*
G01X0023530Y-003549D02*
G01X0023515Y-003492D01*
G01X0023515Y-003492D02*
G01X0023515Y-003450D01*
G01X0023515Y-003450D02*
G01X0023530Y-003394D01*
G01X0023530Y-003394D02*
G01X0023544Y-003366D01*
G01X0023544Y-003366D02*
G01X0023572Y-003338D01*
G01X0023572Y-003338D02*
G01X0023614Y-003324D01*
G01X0023614Y-003324D02*
G01X0023642Y-003324D01*
G01X0023642Y-003324D02*
G01X0023684Y-003338D01*
G01X0023684Y-003338D02*
G01X0023698Y-003352D01*
G01X0023797Y-003324D02*
G01X0023980Y-003324D01*
G01X0023980Y-003324D02*
G01X0023881Y-003436D01*
G01X0023881Y-003436D02*
G01X0023923Y-003436D01*
G01X0023923Y-003436D02*
G01X0023951Y-003450D01*
G01X0023951Y-003450D02*
G01X0023965Y-003464D01*
G01X0023965Y-003464D02*
G01X0023980Y-003492D01*
G01X0023980Y-003492D02*
G01X0023980Y-003563D01*
G01X0023980Y-003563D02*
G01X0023965Y-003591D01*
G01X0023965Y-003591D02*
G01X0023951Y-003605D01*
G01X0023951Y-003605D02*
G01X0023923Y-003619D01*
G01X0023923Y-003619D02*
G01X0023839Y-003619D01*
G01X0023839Y-003619D02*
G01X0023811Y-003605D01*
G01X0023811Y-003605D02*
G01X0023797Y-003591D01*
G01X0023698Y-006841D02*
G01X0023684Y-006855D01*
G01X0023684Y-006855D02*
G01X0023642Y-006869D01*
G01X0023642Y-006869D02*
G01X0023614Y-006869D01*
G01X0023614Y-006869D02*
G01X0023572Y-006855D01*
G01X0023572Y-006855D02*
G01X0023544Y-006827D01*
G01X0023544Y-006827D02*
G01X0023530Y-006799D01*
G01X0023530Y-006799D02*
G01X0023515Y-006742D01*
G01X0023515Y-006742D02*
G01X0023515Y-006700D01*
G01X0023515Y-006700D02*
G01X0023530Y-006644D01*
G01X0023530Y-006644D02*
G01X0023544Y-006616D01*
G01X0023544Y-006616D02*
G01X0023572Y-006588D01*
G01X0023572Y-006588D02*
G01X0023614Y-006574D01*
G01X0023614Y-006574D02*
G01X0023642Y-006574D01*
G01X0023642Y-006574D02*
G01X0023684Y-006588D01*
G01X0023684Y-006588D02*
G01X0023698Y-006602D01*
G01X0023811Y-006602D02*
G01X0023825Y-006588D01*
G01X0023825Y-006588D02*
G01X0023853Y-006574D01*
G01X0023853Y-006574D02*
G01X0023923Y-006574D01*
G01X0023923Y-006574D02*
G01X0023951Y-006588D01*
G01X0023951Y-006588D02*
G01X0023965Y-006602D01*
G01X0023965Y-006602D02*
G01X0023980Y-006630D01*
G01X0023980Y-006630D02*
G01X0023980Y-006658D01*
G01X0023980Y-006658D02*
G01X0023965Y-006700D01*
G01X0023965Y-006700D02*
G01X0023797Y-006869D01*
G01X0023797Y-006869D02*
G01X0023980Y-006869D01*
G01X0023780Y-002119D02*
G01X0023780Y-001824D01*
G01X0023948Y-002119D02*
G01X0023822Y-001950D01*
G01X0023948Y-001824D02*
G01X0023780Y-001992D01*
G01X0024061Y-001852D02*
G01X0024075Y-001838D01*
G01X0024075Y-001838D02*
G01X0024103Y-001824D01*
G01X0024103Y-001824D02*
G01X0024173Y-001824D01*
G01X0024173Y-001824D02*
G01X0024201Y-001838D01*
G01X0024201Y-001838D02*
G01X0024215Y-001852D01*
G01X0024215Y-001852D02*
G01X0024230Y-001880D01*
G01X0024230Y-001880D02*
G01X0024230Y-001908D01*
G01X0024230Y-001908D02*
G01X0024215Y-001950D01*
G01X0024215Y-001950D02*
G01X0024047Y-002119D01*
G01X0024047Y-002119D02*
G01X0024230Y-002119D01*
G01X0021448Y-009341D02*
G01X0021434Y-009355D01*
G01X0021434Y-009355D02*
G01X0021392Y-009369D01*
G01X0021392Y-009369D02*
G01X0021364Y-009369D01*
G01X0021364Y-009369D02*
G01X0021322Y-009355D01*
G01X0021322Y-009355D02*
G01X0021294Y-009327D01*
G01X0021294Y-009327D02*
G01X0021280Y-009299D01*
G01X0021280Y-009299D02*
G01X0021265Y-009242D01*
G01X0021265Y-009242D02*
G01X0021265Y-009200D01*
G01X0021265Y-009200D02*
G01X0021280Y-009144D01*
G01X0021280Y-009144D02*
G01X0021294Y-009116D01*
G01X0021294Y-009116D02*
G01X0021322Y-009088D01*
G01X0021322Y-009088D02*
G01X0021364Y-009074D01*
G01X0021364Y-009074D02*
G01X0021392Y-009074D01*
G01X0021392Y-009074D02*
G01X0021434Y-009088D01*
G01X0021434Y-009088D02*
G01X0021448Y-009102D01*
G01X0021730Y-009369D02*
G01X0021561Y-009369D01*
G01X0021645Y-009369D02*
G01X0021645Y-009074D01*
G01X0021645Y-009074D02*
G01X0021617Y-009116D01*
G01X0021617Y-009116D02*
G01X0021589Y-009144D01*
G01X0021589Y-009144D02*
G01X0021561Y-009158D01*
G01X0021448Y-005841D02*
G01X0021434Y-005855D01*
G01X0021434Y-005855D02*
G01X0021392Y-005869D01*
G01X0021392Y-005869D02*
G01X0021364Y-005869D01*
G01X0021364Y-005869D02*
G01X0021322Y-005855D01*
G01X0021322Y-005855D02*
G01X0021294Y-005827D01*
G01X0021294Y-005827D02*
G01X0021280Y-005799D01*
G01X0021280Y-005799D02*
G01X0021265Y-005742D01*
G01X0021265Y-005742D02*
G01X0021265Y-005700D01*
G01X0021265Y-005700D02*
G01X0021280Y-005644D01*
G01X0021280Y-005644D02*
G01X0021294Y-005616D01*
G01X0021294Y-005616D02*
G01X0021322Y-005588D01*
G01X0021322Y-005588D02*
G01X0021364Y-005574D01*
G01X0021364Y-005574D02*
G01X0021392Y-005574D01*
G01X0021392Y-005574D02*
G01X0021434Y-005588D01*
G01X0021434Y-005588D02*
G01X0021448Y-005602D01*
G01X0021701Y-005672D02*
G01X0021701Y-005869D01*
G01X0021631Y-005560D02*
G01X0021561Y-005771D01*
G01X0021561Y-005771D02*
G01X0021744Y-005771D01*
G01X0027530Y-016369D02*
G01X0027530Y-016074D01*
G01X0027530Y-016074D02*
G01X0027642Y-016074D01*
G01X0027642Y-016074D02*
G01X0027670Y-016088D01*
G01X0027670Y-016088D02*
G01X0027684Y-016102D01*
G01X0027684Y-016102D02*
G01X0027698Y-016130D01*
G01X0027698Y-016130D02*
G01X0027698Y-016172D01*
G01X0027698Y-016172D02*
G01X0027684Y-016200D01*
G01X0027684Y-016200D02*
G01X0027670Y-016214D01*
G01X0027670Y-016214D02*
G01X0027642Y-016228D01*
G01X0027642Y-016228D02*
G01X0027530Y-016228D01*
G01X0027797Y-016074D02*
G01X0027980Y-016074D01*
G01X0027980Y-016074D02*
G01X0027881Y-016186D01*
G01X0027881Y-016186D02*
G01X0027923Y-016186D01*
G01X0027923Y-016186D02*
G01X0027951Y-016200D01*
G01X0027951Y-016200D02*
G01X0027965Y-016214D01*
G01X0027965Y-016214D02*
G01X0027980Y-016242D01*
G01X0027980Y-016242D02*
G01X0027980Y-016313D01*
G01X0027980Y-016313D02*
G01X0027965Y-016341D01*
G01X0027965Y-016341D02*
G01X0027951Y-016355D01*
G01X0027951Y-016355D02*
G01X0027923Y-016369D01*
G01X0027923Y-016369D02*
G01X0027839Y-016369D01*
G01X0027839Y-016369D02*
G01X0027811Y-016355D01*
G01X0027811Y-016355D02*
G01X0027797Y-016341D01*
G01X0023280Y-019119D02*
G01X0023280Y-018824D01*
G01X0023280Y-018824D02*
G01X0023392Y-018824D01*
G01X0023392Y-018824D02*
G01X0023420Y-018838D01*
G01X0023420Y-018838D02*
G01X0023434Y-018852D01*
G01X0023434Y-018852D02*
G01X0023448Y-018880D01*
G01X0023448Y-018880D02*
G01X0023448Y-018922D01*
G01X0023448Y-018922D02*
G01X0023434Y-018950D01*
G01X0023434Y-018950D02*
G01X0023420Y-018964D01*
G01X0023420Y-018964D02*
G01X0023392Y-018978D01*
G01X0023392Y-018978D02*
G01X0023280Y-018978D01*
G01X0023730Y-019119D02*
G01X0023561Y-019119D01*
G01X0023645Y-019119D02*
G01X0023645Y-018824D01*
G01X0023645Y-018824D02*
G01X0023617Y-018866D01*
G01X0023617Y-018866D02*
G01X0023589Y-018894D01*
G01X0023589Y-018894D02*
G01X0023561Y-018908D01*
G01X0018280Y-002869D02*
G01X0018280Y-002574D01*
G01X0018280Y-002574D02*
G01X0018392Y-002574D01*
G01X0018392Y-002574D02*
G01X0018420Y-002588D01*
G01X0018420Y-002588D02*
G01X0018434Y-002602D01*
G01X0018434Y-002602D02*
G01X0018448Y-002630D01*
G01X0018448Y-002630D02*
G01X0018448Y-002672D01*
G01X0018448Y-002672D02*
G01X0018434Y-002700D01*
G01X0018434Y-002700D02*
G01X0018420Y-002714D01*
G01X0018420Y-002714D02*
G01X0018392Y-002728D01*
G01X0018392Y-002728D02*
G01X0018280Y-002728D01*
G01X0018561Y-002602D02*
G01X0018575Y-002588D01*
G01X0018575Y-002588D02*
G01X0018603Y-002574D01*
G01X0018603Y-002574D02*
G01X0018673Y-002574D01*
G01X0018673Y-002574D02*
G01X0018701Y-002588D01*
G01X0018701Y-002588D02*
G01X0018715Y-002602D01*
G01X0018715Y-002602D02*
G01X0018730Y-002630D01*
G01X0018730Y-002630D02*
G01X0018730Y-002658D01*
G01X0018730Y-002658D02*
G01X0018715Y-002700D01*
G01X0018715Y-002700D02*
G01X0018547Y-002869D01*
G01X0018547Y-002869D02*
G01X0018730Y-002869D01*
G01X0027030Y-019119D02*
G01X0027030Y-018824D01*
G01X0027198Y-019119D02*
G01X0027072Y-018950D01*
G01X0027198Y-018824D02*
G01X0027030Y-018992D01*
G01X0027480Y-019119D02*
G01X0027311Y-019119D01*
G01X0027395Y-019119D02*
G01X0027395Y-018824D01*
G01X0027395Y-018824D02*
G01X0027367Y-018866D01*
G01X0027367Y-018866D02*
G01X0027339Y-018894D01*
G01X0027339Y-018894D02*
G01X0027311Y-018908D01*
M02*
