M48
INCH,TZ
T10C0.010
T11C0.032
T12C0.040
T13C0.060
T14C0.126
T15C0.025
T16C0.120
T17C0.138
%
T10
X001750Y-03500
X003750Y-10750
X003750Y-11500
X005750Y-04250
X006250Y-03500
X006250Y-11000
X006250Y-13250
X006750Y-04250
X007250Y-03500
X007250Y-13250
X008750Y-11250
X001750Y-23185
X003750Y-30435
X003750Y-31185
X005750Y-23935
X006250Y-23185
X006250Y-30685
X006250Y-32935
X006750Y-23935
X007250Y-23185
X007250Y-32935
X008750Y-30935
T11
X011250Y-07750
X011250Y-08750
X011250Y-09750
X011250Y-10750
X011250Y-27435
X011250Y-28435
X011250Y-29435
X011250Y-30435
X024998Y-01500
X024998Y-18000
X025998Y-01500
X025998Y-18000
X026998Y-01500
X026998Y-18000
T12
X001750Y-06000
X002750Y-06000
X001750Y-25685
X002750Y-25685
T13
X003750Y-16000
X004750Y-01500
X005750Y-16000
X006750Y-01500
X007750Y-16000
X008750Y-01500
X009750Y-16000
X003750Y-35685
X004750Y-21185
X005750Y-35685
X006750Y-21185
X007750Y-35685
X008750Y-21185
X009750Y-35685
X019998Y-01500
X019998Y-18000
X021998Y-01500
X021998Y-18000
X028998Y-08750
X028998Y-10750
X028998Y-12750
X028998Y-14750
T14
X001500Y-01500
X001500Y-16000
X012000Y-01500
X012000Y-16000
X001500Y-21185
X001500Y-35685
X012000Y-21185
X012000Y-35685
T15
X019498Y-16000
X021248Y-12500
X021748Y-12750
X022748Y-11500
X023248Y-12750
X023748Y-05250
X023748Y-14500
X024248Y-03250
X024498Y-03750
X025248Y-11500
X025248Y-12750
X025248Y-14500
T16
X017248Y-01500
X017248Y-18000
X028998Y-18000
T17
X028998Y-01500
M30

