M48
INCH,TZ
T10C0.010
T11C0.032
T12C0.040
T13C0.060
T14C0.126
T15C0.025
T16C0.120
T17C0.138
T18C0.012
T19C0.035
T20C0.128
%
T10
X001750Y-03500
X003750Y-10750
X003750Y-11500
X005750Y-04250
X006250Y-03500
X006250Y-11000
X006250Y-13250
X006750Y-04250
X007250Y-03500
X007250Y-13250
X008750Y-11250
X001750Y-23185
X003750Y-30435
X003750Y-31185
X005750Y-23935
X006250Y-23185
X006250Y-30685
X006250Y-32935
X006750Y-23935
X007250Y-23185
X007250Y-32935
X008750Y-30935
T11
X011250Y-07750
X011250Y-08750
X011250Y-09750
X011250Y-10750
X011250Y-27435
X011250Y-28435
X011250Y-29435
X011250Y-30435
X024998Y-01500
X024998Y-18000
X025998Y-01500
X025998Y-18000
X026998Y-01500
X026998Y-18000
T12
X001750Y-06000
X002750Y-06000
X001750Y-25685
X002750Y-25685
X026038Y-33886
X027818Y-33886
X029678Y-32666
X029678Y-31666
X029678Y-30666
X029678Y-29666
X029678Y-28666
X029678Y-27666
X029678Y-26666
X029678Y-25666
X027818Y-24446
X026038Y-24446
X026038Y-21886
X027818Y-21886
X033428Y-22666
X033428Y-23666
X033428Y-24666
X033428Y-25666
X033428Y-27666
X033428Y-28666
X033428Y-29666
X033428Y-30666
X033428Y-32666
X033428Y-33666
X033428Y-34666
X033428Y-35666
X027818Y-36446
X026038Y-36446
T13
X003750Y-16000
X004750Y-01500
X005750Y-16000
X006750Y-01500
X007750Y-16000
X008750Y-01500
X009750Y-16000
X003750Y-35685
X004750Y-21185
X005750Y-35685
X006750Y-21185
X007750Y-35685
X008750Y-21185
X009750Y-35685
X019998Y-01500
X019998Y-18000
X021998Y-01500
X021998Y-18000
X028998Y-08750
X028998Y-10750
X028998Y-12750
X028998Y-14750
T14
X001500Y-01500
X001500Y-16000
X012000Y-01500
X012000Y-16000
X001500Y-21185
X001500Y-35685
X012000Y-21185
X012000Y-35685
X017826Y-35269
X017826Y-23064
X030030Y-23064
X030030Y-35269
T15
X019498Y-16000
X021248Y-12500
X021748Y-12750
X022748Y-11500
X023248Y-12750
X023748Y-05250
X023748Y-14500
X024248Y-03250
X024498Y-03750
X025248Y-11500
X025248Y-12750
X025248Y-14500
T16
X017248Y-01500
X017248Y-18000
X028998Y-18000
T17
X028998Y-01500
T18
X020428Y-30666
X019428Y-28666
X021178Y-28166
X022178Y-28166
X021678Y-26416
X024428Y-29166
X024678Y-28666
X025428Y-28416
X025428Y-28916
X025928Y-30166
X027678Y-28166
X026928Y-27666
X026928Y-26916
X025928Y-26916
X024928Y-26916
X024678Y-27666
X028178Y-25666
X029178Y-27166
X030778Y-27566
X031928Y-29166
X033428Y-31666
X031428Y-33166
X031028Y-32766
X031428Y-34166
X031928Y-34416
X031928Y-36416
X028428Y-31166
X028678Y-30166
X028178Y-29666
X032428Y-25016
X033428Y-26166
X031928Y-22166
T19
X032428Y-25666
X032428Y-26666
X032428Y-27666
X032428Y-28666
X032428Y-29666
X032428Y-30666
X032428Y-31666
X032428Y-32666
X027428Y-32666
X027428Y-31666
X027428Y-30666
X027428Y-29666
X027428Y-28666
X027428Y-27666
X027428Y-26666
X027428Y-25666
X024178Y-24666
X023178Y-24666
X022178Y-24666
X021178Y-24666
X020678Y-25666
X021678Y-25666
X022678Y-25666
X023678Y-25666
X023178Y-32666
X022178Y-32666
X021178Y-32666
X020678Y-33666
X021678Y-33666
X022678Y-33666
X023678Y-33666
X024178Y-32666
T20
X024678Y-36166
X020178Y-36166
X020178Y-22166
X024678Y-22166
M30

