G04 This is an RS-274x file exported by *
G04 gerbv version 2.6.1 *
G04 More information is available about gerbv at *
G04 http://gerbv.geda-project.org/ *
G04 --End of header info--*
%MOIN*%
%FSLAX34Y34*%
%IPPOS*%
G04 --Define apertures--*
%ADD10C,0.0059*%
%ADD11R,0.0600X0.0600*%
%ADD12C,0.0600*%
%ADD13C,0.1500*%
%ADD14R,0.1500X0.1500*%
%ADD15R,0.1000X0.1000*%
%ADD16C,0.1000*%
%ADD17C,0.1772*%
%ADD18R,0.0787X0.0787*%
%ADD19C,0.0787*%
%ADD20C,0.0315*%
%ADD21C,0.0197*%
%ADD22C,0.0067*%
%ADD23R,0.0550X0.0550*%
%ADD24C,0.0550*%
%ADD25C,0.1600*%
%ADD26C,0.0350*%
G04 --Start main section--*
G54D11*
G01X0002750Y-006000D03*
G54D12*
G01X0001750Y-006000D03*
G54D13*
G01X0005750Y-016000D03*
G01X0007750Y-016000D03*
G54D14*
G01X0003750Y-016000D03*
G54D13*
G01X0009750Y-016000D03*
G54D15*
G01X0008750Y-001500D03*
G54D16*
G01X0006750Y-001500D03*
G01X0004750Y-001500D03*
G54D17*
G01X0012000Y-016000D03*
G01X0001500Y-016000D03*
G01X0012000Y-001500D03*
G01X0001500Y-001500D03*
G54D18*
G01X0011250Y-010750D03*
G54D19*
G01X0011250Y-009750D03*
G01X0011250Y-008750D03*
G01X0011250Y-007750D03*
G54D20*
G01X0001750Y-003500D03*
G01X0006250Y-003500D03*
G01X0007250Y-003500D03*
G01X0006750Y-004250D03*
G01X0005750Y-004250D03*
G01X0008750Y-011250D03*
G01X0003750Y-010750D03*
G01X0007250Y-013250D03*
G01X0003750Y-011500D03*
G01X0006250Y-011000D03*
G01X0006250Y-013250D03*
G54D21*
G01X0006250Y-003500D02*
G01X0001750Y-003500D01*
G01X0007250Y-003500D02*
G01X0006250Y-003500D01*
G01X0005750Y-004250D02*
G01X0006750Y-004250D01*
G01X0007500Y-010500D02*
G01X0008250Y-011250D01*
G01X0007250Y-010500D02*
G01X0007500Y-010500D01*
G01X0008750Y-011250D02*
G01X0008250Y-011250D01*
G01X0004000Y-010500D02*
G01X0007250Y-010500D01*
G01X0003750Y-010750D02*
G01X0004000Y-010500D01*
G01X0007250Y-010500D02*
G01X0007250Y-013250D01*
G01X0004250Y-011000D02*
G01X0003750Y-011500D01*
G01X0006250Y-011000D02*
G01X0004250Y-011000D01*
G01X0006250Y-011000D02*
G01X0006250Y-013250D01*
G01X0006250Y-013250D02*
G01X0006250Y-013250D01*
G54D10*
G36*
G01X0013379Y-008966D02*
G01X0013019Y-008966D01*
G01X0013019Y-001298D01*
G01X0012864Y-000923D01*
G01X0012578Y-000636D01*
G01X0012203Y-000480D01*
G01X0011798Y-000480D01*
G01X0011423Y-000635D01*
G01X0011136Y-000921D01*
G01X0010980Y-001296D01*
G01X0010980Y-001701D01*
G01X0011135Y-002076D01*
G01X0011421Y-002363D01*
G01X0011796Y-002519D01*
G01X0012201Y-002519D01*
G01X0012576Y-002364D01*
G01X0012863Y-002078D01*
G01X0013019Y-001703D01*
G01X0013019Y-001298D01*
G01X0013019Y-008966D01*
G01X0011777Y-008966D01*
G01X0011746Y-008966D01*
G01X0011744Y-008966D01*
G01X0011746Y-008964D01*
G01X0011777Y-008934D01*
G01X0011860Y-008851D01*
G01X0011777Y-008767D01*
G01X0011777Y-007645D01*
G01X0011697Y-007451D01*
G01X0011549Y-007303D01*
G01X0011355Y-007222D01*
G01X0011145Y-007222D01*
G01X0010951Y-007302D01*
G01X0010803Y-007450D01*
G01X0010722Y-007644D01*
G01X0010722Y-007854D01*
G01X0010802Y-008048D01*
G01X0010950Y-008196D01*
G01X0011124Y-008268D01*
G01X0011080Y-008302D01*
G01X0011250Y-008471D01*
G01X0011419Y-008302D01*
G01X0011375Y-008268D01*
G01X0011548Y-008197D01*
G01X0011696Y-008049D01*
G01X0011777Y-007855D01*
G01X0011777Y-007645D01*
G01X0011777Y-008767D01*
G01X0011765Y-008755D01*
G01X0011746Y-008773D01*
G01X0011743Y-008777D01*
G01X0011746Y-008666D01*
G01X0011740Y-008636D01*
G01X0011697Y-008580D01*
G01X0011528Y-008750D01*
G01X0011649Y-008871D01*
G01X0011554Y-008966D01*
G01X0010971Y-008966D01*
G01X0010945Y-008966D01*
G01X0010850Y-008871D01*
G01X0010971Y-008750D01*
G01X0010802Y-008580D01*
G01X0010759Y-008636D01*
G01X0010754Y-008775D01*
G01X0010734Y-008755D01*
G01X0010639Y-008851D01*
G01X0010755Y-008966D01*
G01X0009350Y-008966D01*
G01X0009350Y-001980D01*
G01X0009350Y-001019D01*
G01X0009350Y-000979D01*
G01X0009335Y-000943D01*
G01X0009306Y-000914D01*
G01X0009269Y-000899D01*
G01X0009025Y-000899D01*
G01X0009000Y-000924D01*
G01X0009000Y-001250D01*
G01X0009325Y-001250D01*
G01X0009350Y-001224D01*
G01X0009350Y-001019D01*
G01X0009350Y-001980D01*
G01X0009350Y-001775D01*
G01X0009325Y-001750D01*
G01X0009000Y-001750D01*
G01X0009000Y-002075D01*
G01X0009025Y-002100D01*
G01X0009269Y-002100D01*
G01X0009306Y-002085D01*
G01X0009335Y-002056D01*
G01X0009350Y-002020D01*
G01X0009350Y-001980D01*
G01X0009350Y-008966D01*
G01X0008500Y-008966D01*
G01X0008500Y-002075D01*
G01X0008500Y-001750D01*
G01X0008500Y-001250D01*
G01X0008500Y-000924D01*
G01X0008474Y-000899D01*
G01X0008230Y-000899D01*
G01X0008193Y-000914D01*
G01X0008164Y-000943D01*
G01X0008149Y-000979D01*
G01X0008149Y-001019D01*
G01X0008149Y-001224D01*
G01X0008174Y-001250D01*
G01X0008500Y-001250D01*
G01X0008500Y-001750D01*
G01X0008174Y-001750D01*
G01X0008149Y-001775D01*
G01X0008149Y-001980D01*
G01X0008149Y-002020D01*
G01X0008164Y-002056D01*
G01X0008193Y-002085D01*
G01X0008230Y-002100D01*
G01X0008474Y-002100D01*
G01X0008500Y-002075D01*
G01X0008500Y-008966D01*
G01X0007540Y-008966D01*
G01X0007540Y-003442D01*
G01X0007496Y-003335D01*
G01X0007415Y-003253D01*
G01X0007383Y-003240D01*
G01X0007383Y-001374D01*
G01X0007287Y-001141D01*
G01X0007109Y-000963D01*
G01X0006876Y-000866D01*
G01X0006624Y-000866D01*
G01X0006391Y-000962D01*
G01X0006213Y-001140D01*
G01X0006116Y-001373D01*
G01X0006116Y-001625D01*
G01X0006212Y-001858D01*
G01X0006390Y-002036D01*
G01X0006623Y-002133D01*
G01X0006875Y-002133D01*
G01X0007108Y-002037D01*
G01X0007286Y-001859D01*
G01X0007383Y-001626D01*
G01X0007383Y-001374D01*
G01X0007383Y-003240D01*
G01X0007308Y-003209D01*
G01X0007192Y-003209D01*
G01X0007085Y-003253D01*
G01X0007070Y-003268D01*
G01X0006429Y-003268D01*
G01X0006415Y-003253D01*
G01X0006308Y-003209D01*
G01X0006192Y-003209D01*
G01X0006085Y-003253D01*
G01X0006070Y-003268D01*
G01X0005383Y-003268D01*
G01X0005383Y-001374D01*
G01X0005287Y-001141D01*
G01X0005109Y-000963D01*
G01X0004876Y-000866D01*
G01X0004624Y-000866D01*
G01X0004391Y-000962D01*
G01X0004213Y-001140D01*
G01X0004116Y-001373D01*
G01X0004116Y-001625D01*
G01X0004212Y-001858D01*
G01X0004390Y-002036D01*
G01X0004623Y-002133D01*
G01X0004875Y-002133D01*
G01X0005108Y-002037D01*
G01X0005286Y-001859D01*
G01X0005383Y-001626D01*
G01X0005383Y-001374D01*
G01X0005383Y-003268D01*
G01X0002519Y-003268D01*
G01X0002519Y-001298D01*
G01X0002364Y-000923D01*
G01X0002078Y-000636D01*
G01X0001703Y-000480D01*
G01X0001298Y-000480D01*
G01X0000923Y-000635D01*
G01X0000636Y-000921D01*
G01X0000480Y-001296D01*
G01X0000480Y-001701D01*
G01X0000635Y-002076D01*
G01X0000921Y-002363D01*
G01X0001296Y-002519D01*
G01X0001701Y-002519D01*
G01X0002076Y-002364D01*
G01X0002363Y-002078D01*
G01X0002519Y-001703D01*
G01X0002519Y-001298D01*
G01X0002519Y-003268D01*
G01X0001929Y-003268D01*
G01X0001915Y-003253D01*
G01X0001808Y-003209D01*
G01X0001692Y-003209D01*
G01X0001585Y-003253D01*
G01X0001503Y-003334D01*
G01X0001459Y-003441D01*
G01X0001459Y-003557D01*
G01X0001503Y-003664D01*
G01X0001584Y-003746D01*
G01X0001691Y-003790D01*
G01X0001807Y-003790D01*
G01X0001914Y-003746D01*
G01X0001929Y-003731D01*
G01X0006070Y-003731D01*
G01X0006084Y-003746D01*
G01X0006191Y-003790D01*
G01X0006307Y-003790D01*
G01X0006414Y-003746D01*
G01X0006429Y-003731D01*
G01X0007070Y-003731D01*
G01X0007084Y-003746D01*
G01X0007191Y-003790D01*
G01X0007307Y-003790D01*
G01X0007414Y-003746D01*
G01X0007496Y-003665D01*
G01X0007540Y-003558D01*
G01X0007540Y-003442D01*
G01X0007540Y-008966D01*
G01X0007040Y-008966D01*
G01X0007040Y-004192D01*
G01X0006996Y-004085D01*
G01X0006915Y-004003D01*
G01X0006808Y-003959D01*
G01X0006692Y-003959D01*
G01X0006585Y-004003D01*
G01X0006570Y-004018D01*
G01X0005929Y-004018D01*
G01X0005915Y-004003D01*
G01X0005808Y-003959D01*
G01X0005692Y-003959D01*
G01X0005585Y-004003D01*
G01X0005503Y-004084D01*
G01X0005459Y-004191D01*
G01X0005459Y-004307D01*
G01X0005503Y-004414D01*
G01X0005584Y-004496D01*
G01X0005691Y-004540D01*
G01X0005807Y-004540D01*
G01X0005914Y-004496D01*
G01X0005929Y-004481D01*
G01X0006570Y-004481D01*
G01X0006584Y-004496D01*
G01X0006691Y-004540D01*
G01X0006807Y-004540D01*
G01X0006914Y-004496D01*
G01X0006996Y-004415D01*
G01X0007040Y-004308D01*
G01X0007040Y-004192D01*
G01X0007040Y-008966D01*
G01X0003183Y-008966D01*
G01X0003183Y-006273D01*
G01X0003183Y-005673D01*
G01X0003163Y-005624D01*
G01X0003125Y-005586D01*
G01X0003076Y-005566D01*
G01X0003023Y-005566D01*
G01X0002423Y-005566D01*
G01X0002374Y-005586D01*
G01X0002336Y-005624D01*
G01X0002316Y-005673D01*
G01X0002316Y-005726D01*
G01X0002316Y-006326D01*
G01X0002336Y-006375D01*
G01X0002374Y-006413D01*
G01X0002423Y-006433D01*
G01X0002476Y-006433D01*
G01X0003076Y-006433D01*
G01X0003125Y-006413D01*
G01X0003163Y-006375D01*
G01X0003183Y-006326D01*
G01X0003183Y-006273D01*
G01X0003183Y-008966D01*
G01X0002183Y-008966D01*
G01X0002183Y-005914D01*
G01X0002117Y-005754D01*
G01X0001995Y-005632D01*
G01X0001836Y-005566D01*
G01X0001664Y-005566D01*
G01X0001504Y-005632D01*
G01X0001382Y-005754D01*
G01X0001316Y-005913D01*
G01X0001316Y-006085D01*
G01X0001382Y-006245D01*
G01X0001504Y-006367D01*
G01X0001663Y-006433D01*
G01X0001835Y-006433D01*
G01X0001995Y-006367D01*
G01X0002117Y-006245D01*
G01X0002183Y-006086D01*
G01X0002183Y-005914D01*
G01X0002183Y-008966D01*
G01X0000120Y-008966D01*
G01X0000120Y-001511D01*
G01X0000226Y-000973D01*
G01X0000524Y-000526D01*
G01X0000974Y-000227D01*
G01X0001514Y-000120D01*
G01X0011988Y-000120D01*
G01X0012526Y-000226D01*
G01X0012973Y-000524D01*
G01X0013272Y-000974D01*
G01X0013379Y-001514D01*
G01X0013379Y-008966D01*
G01X0013379Y-008966D01*
G37*
G54D22*
G01X0013379Y-008966D02*
G01X0013019Y-008966D01*
G01X0013019Y-008966D02*
G01X0013019Y-001298D01*
G01X0013019Y-001298D02*
G01X0012864Y-000923D01*
G01X0012864Y-000923D02*
G01X0012578Y-000636D01*
G01X0012578Y-000636D02*
G01X0012203Y-000480D01*
G01X0012203Y-000480D02*
G01X0011798Y-000480D01*
G01X0011798Y-000480D02*
G01X0011423Y-000635D01*
G01X0011423Y-000635D02*
G01X0011136Y-000921D01*
G01X0011136Y-000921D02*
G01X0010980Y-001296D01*
G01X0010980Y-001296D02*
G01X0010980Y-001701D01*
G01X0010980Y-001701D02*
G01X0011135Y-002076D01*
G01X0011135Y-002076D02*
G01X0011421Y-002363D01*
G01X0011421Y-002363D02*
G01X0011796Y-002519D01*
G01X0011796Y-002519D02*
G01X0012201Y-002519D01*
G01X0012201Y-002519D02*
G01X0012576Y-002364D01*
G01X0012576Y-002364D02*
G01X0012863Y-002078D01*
G01X0012863Y-002078D02*
G01X0013019Y-001703D01*
G01X0013019Y-001703D02*
G01X0013019Y-001298D01*
G01X0013019Y-001298D02*
G01X0013019Y-008966D01*
G01X0013019Y-008966D02*
G01X0011777Y-008966D01*
G01X0011777Y-008966D02*
G01X0011746Y-008966D01*
G01X0011746Y-008966D02*
G01X0011744Y-008966D01*
G01X0011744Y-008966D02*
G01X0011746Y-008964D01*
G01X0011746Y-008964D02*
G01X0011777Y-008934D01*
G01X0011777Y-008934D02*
G01X0011860Y-008851D01*
G01X0011860Y-008851D02*
G01X0011777Y-008767D01*
G01X0011777Y-008767D02*
G01X0011777Y-007645D01*
G01X0011777Y-007645D02*
G01X0011697Y-007451D01*
G01X0011697Y-007451D02*
G01X0011549Y-007303D01*
G01X0011549Y-007303D02*
G01X0011355Y-007222D01*
G01X0011355Y-007222D02*
G01X0011145Y-007222D01*
G01X0011145Y-007222D02*
G01X0010951Y-007302D01*
G01X0010951Y-007302D02*
G01X0010803Y-007450D01*
G01X0010803Y-007450D02*
G01X0010722Y-007644D01*
G01X0010722Y-007644D02*
G01X0010722Y-007854D01*
G01X0010722Y-007854D02*
G01X0010802Y-008048D01*
G01X0010802Y-008048D02*
G01X0010950Y-008196D01*
G01X0010950Y-008196D02*
G01X0011124Y-008268D01*
G01X0011124Y-008268D02*
G01X0011080Y-008302D01*
G01X0011080Y-008302D02*
G01X0011250Y-008471D01*
G01X0011250Y-008471D02*
G01X0011419Y-008302D01*
G01X0011419Y-008302D02*
G01X0011375Y-008268D01*
G01X0011375Y-008268D02*
G01X0011548Y-008197D01*
G01X0011548Y-008197D02*
G01X0011696Y-008049D01*
G01X0011696Y-008049D02*
G01X0011777Y-007855D01*
G01X0011777Y-007855D02*
G01X0011777Y-007645D01*
G01X0011777Y-007645D02*
G01X0011777Y-008767D01*
G01X0011777Y-008767D02*
G01X0011765Y-008755D01*
G01X0011765Y-008755D02*
G01X0011746Y-008773D01*
G01X0011746Y-008773D02*
G01X0011743Y-008777D01*
G01X0011743Y-008777D02*
G01X0011746Y-008666D01*
G01X0011746Y-008666D02*
G01X0011740Y-008636D01*
G01X0011740Y-008636D02*
G01X0011697Y-008580D01*
G01X0011697Y-008580D02*
G01X0011528Y-008750D01*
G01X0011528Y-008750D02*
G01X0011649Y-008871D01*
G01X0011649Y-008871D02*
G01X0011554Y-008966D01*
G01X0011554Y-008966D02*
G01X0010971Y-008966D01*
G01X0010971Y-008966D02*
G01X0010945Y-008966D01*
G01X0010945Y-008966D02*
G01X0010850Y-008871D01*
G01X0010850Y-008871D02*
G01X0010971Y-008750D01*
G01X0010971Y-008750D02*
G01X0010802Y-008580D01*
G01X0010802Y-008580D02*
G01X0010759Y-008636D01*
G01X0010759Y-008636D02*
G01X0010754Y-008775D01*
G01X0010754Y-008775D02*
G01X0010734Y-008755D01*
G01X0010734Y-008755D02*
G01X0010639Y-008851D01*
G01X0010639Y-008851D02*
G01X0010755Y-008966D01*
G01X0010755Y-008966D02*
G01X0009350Y-008966D01*
G01X0009350Y-008966D02*
G01X0009350Y-001980D01*
G01X0009350Y-001980D02*
G01X0009350Y-001019D01*
G01X0009350Y-001019D02*
G01X0009350Y-000979D01*
G01X0009350Y-000979D02*
G01X0009335Y-000943D01*
G01X0009335Y-000943D02*
G01X0009306Y-000914D01*
G01X0009306Y-000914D02*
G01X0009269Y-000899D01*
G01X0009269Y-000899D02*
G01X0009025Y-000899D01*
G01X0009025Y-000899D02*
G01X0009000Y-000924D01*
G01X0009000Y-000924D02*
G01X0009000Y-001250D01*
G01X0009000Y-001250D02*
G01X0009325Y-001250D01*
G01X0009325Y-001250D02*
G01X0009350Y-001224D01*
G01X0009350Y-001224D02*
G01X0009350Y-001019D01*
G01X0009350Y-001019D02*
G01X0009350Y-001980D01*
G01X0009350Y-001980D02*
G01X0009350Y-001775D01*
G01X0009350Y-001775D02*
G01X0009325Y-001750D01*
G01X0009325Y-001750D02*
G01X0009000Y-001750D01*
G01X0009000Y-001750D02*
G01X0009000Y-002075D01*
G01X0009000Y-002075D02*
G01X0009025Y-002100D01*
G01X0009025Y-002100D02*
G01X0009269Y-002100D01*
G01X0009269Y-002100D02*
G01X0009306Y-002085D01*
G01X0009306Y-002085D02*
G01X0009335Y-002056D01*
G01X0009335Y-002056D02*
G01X0009350Y-002020D01*
G01X0009350Y-002020D02*
G01X0009350Y-001980D01*
G01X0009350Y-001980D02*
G01X0009350Y-008966D01*
G01X0009350Y-008966D02*
G01X0008500Y-008966D01*
G01X0008500Y-008966D02*
G01X0008500Y-002075D01*
G01X0008500Y-002075D02*
G01X0008500Y-001750D01*
G01X0008500Y-001750D02*
G01X0008500Y-001250D01*
G01X0008500Y-001250D02*
G01X0008500Y-000924D01*
G01X0008500Y-000924D02*
G01X0008474Y-000899D01*
G01X0008474Y-000899D02*
G01X0008230Y-000899D01*
G01X0008230Y-000899D02*
G01X0008193Y-000914D01*
G01X0008193Y-000914D02*
G01X0008164Y-000943D01*
G01X0008164Y-000943D02*
G01X0008149Y-000979D01*
G01X0008149Y-000979D02*
G01X0008149Y-001019D01*
G01X0008149Y-001019D02*
G01X0008149Y-001224D01*
G01X0008149Y-001224D02*
G01X0008174Y-001250D01*
G01X0008174Y-001250D02*
G01X0008500Y-001250D01*
G01X0008500Y-001250D02*
G01X0008500Y-001750D01*
G01X0008500Y-001750D02*
G01X0008174Y-001750D01*
G01X0008174Y-001750D02*
G01X0008149Y-001775D01*
G01X0008149Y-001775D02*
G01X0008149Y-001980D01*
G01X0008149Y-001980D02*
G01X0008149Y-002020D01*
G01X0008149Y-002020D02*
G01X0008164Y-002056D01*
G01X0008164Y-002056D02*
G01X0008193Y-002085D01*
G01X0008193Y-002085D02*
G01X0008230Y-002100D01*
G01X0008230Y-002100D02*
G01X0008474Y-002100D01*
G01X0008474Y-002100D02*
G01X0008500Y-002075D01*
G01X0008500Y-002075D02*
G01X0008500Y-008966D01*
G01X0008500Y-008966D02*
G01X0007540Y-008966D01*
G01X0007540Y-008966D02*
G01X0007540Y-003442D01*
G01X0007540Y-003442D02*
G01X0007496Y-003335D01*
G01X0007496Y-003335D02*
G01X0007415Y-003253D01*
G01X0007415Y-003253D02*
G01X0007383Y-003240D01*
G01X0007383Y-003240D02*
G01X0007383Y-001374D01*
G01X0007383Y-001374D02*
G01X0007287Y-001141D01*
G01X0007287Y-001141D02*
G01X0007109Y-000963D01*
G01X0007109Y-000963D02*
G01X0006876Y-000866D01*
G01X0006876Y-000866D02*
G01X0006624Y-000866D01*
G01X0006624Y-000866D02*
G01X0006391Y-000962D01*
G01X0006391Y-000962D02*
G01X0006213Y-001140D01*
G01X0006213Y-001140D02*
G01X0006116Y-001373D01*
G01X0006116Y-001373D02*
G01X0006116Y-001625D01*
G01X0006116Y-001625D02*
G01X0006212Y-001858D01*
G01X0006212Y-001858D02*
G01X0006390Y-002036D01*
G01X0006390Y-002036D02*
G01X0006623Y-002133D01*
G01X0006623Y-002133D02*
G01X0006875Y-002133D01*
G01X0006875Y-002133D02*
G01X0007108Y-002037D01*
G01X0007108Y-002037D02*
G01X0007286Y-001859D01*
G01X0007286Y-001859D02*
G01X0007383Y-001626D01*
G01X0007383Y-001626D02*
G01X0007383Y-001374D01*
G01X0007383Y-001374D02*
G01X0007383Y-003240D01*
G01X0007383Y-003240D02*
G01X0007308Y-003209D01*
G01X0007308Y-003209D02*
G01X0007192Y-003209D01*
G01X0007192Y-003209D02*
G01X0007085Y-003253D01*
G01X0007085Y-003253D02*
G01X0007070Y-003268D01*
G01X0007070Y-003268D02*
G01X0006429Y-003268D01*
G01X0006429Y-003268D02*
G01X0006415Y-003253D01*
G01X0006415Y-003253D02*
G01X0006308Y-003209D01*
G01X0006308Y-003209D02*
G01X0006192Y-003209D01*
G01X0006192Y-003209D02*
G01X0006085Y-003253D01*
G01X0006085Y-003253D02*
G01X0006070Y-003268D01*
G01X0006070Y-003268D02*
G01X0005383Y-003268D01*
G01X0005383Y-003268D02*
G01X0005383Y-001374D01*
G01X0005383Y-001374D02*
G01X0005287Y-001141D01*
G01X0005287Y-001141D02*
G01X0005109Y-000963D01*
G01X0005109Y-000963D02*
G01X0004876Y-000866D01*
G01X0004876Y-000866D02*
G01X0004624Y-000866D01*
G01X0004624Y-000866D02*
G01X0004391Y-000962D01*
G01X0004391Y-000962D02*
G01X0004213Y-001140D01*
G01X0004213Y-001140D02*
G01X0004116Y-001373D01*
G01X0004116Y-001373D02*
G01X0004116Y-001625D01*
G01X0004116Y-001625D02*
G01X0004212Y-001858D01*
G01X0004212Y-001858D02*
G01X0004390Y-002036D01*
G01X0004390Y-002036D02*
G01X0004623Y-002133D01*
G01X0004623Y-002133D02*
G01X0004875Y-002133D01*
G01X0004875Y-002133D02*
G01X0005108Y-002037D01*
G01X0005108Y-002037D02*
G01X0005286Y-001859D01*
G01X0005286Y-001859D02*
G01X0005383Y-001626D01*
G01X0005383Y-001626D02*
G01X0005383Y-001374D01*
G01X0005383Y-001374D02*
G01X0005383Y-003268D01*
G01X0005383Y-003268D02*
G01X0002519Y-003268D01*
G01X0002519Y-003268D02*
G01X0002519Y-001298D01*
G01X0002519Y-001298D02*
G01X0002364Y-000923D01*
G01X0002364Y-000923D02*
G01X0002078Y-000636D01*
G01X0002078Y-000636D02*
G01X0001703Y-000480D01*
G01X0001703Y-000480D02*
G01X0001298Y-000480D01*
G01X0001298Y-000480D02*
G01X0000923Y-000635D01*
G01X0000923Y-000635D02*
G01X0000636Y-000921D01*
G01X0000636Y-000921D02*
G01X0000480Y-001296D01*
G01X0000480Y-001296D02*
G01X0000480Y-001701D01*
G01X0000480Y-001701D02*
G01X0000635Y-002076D01*
G01X0000635Y-002076D02*
G01X0000921Y-002363D01*
G01X0000921Y-002363D02*
G01X0001296Y-002519D01*
G01X0001296Y-002519D02*
G01X0001701Y-002519D01*
G01X0001701Y-002519D02*
G01X0002076Y-002364D01*
G01X0002076Y-002364D02*
G01X0002363Y-002078D01*
G01X0002363Y-002078D02*
G01X0002519Y-001703D01*
G01X0002519Y-001703D02*
G01X0002519Y-001298D01*
G01X0002519Y-001298D02*
G01X0002519Y-003268D01*
G01X0002519Y-003268D02*
G01X0001929Y-003268D01*
G01X0001929Y-003268D02*
G01X0001915Y-003253D01*
G01X0001915Y-003253D02*
G01X0001808Y-003209D01*
G01X0001808Y-003209D02*
G01X0001692Y-003209D01*
G01X0001692Y-003209D02*
G01X0001585Y-003253D01*
G01X0001585Y-003253D02*
G01X0001503Y-003334D01*
G01X0001503Y-003334D02*
G01X0001459Y-003441D01*
G01X0001459Y-003441D02*
G01X0001459Y-003557D01*
G01X0001459Y-003557D02*
G01X0001503Y-003664D01*
G01X0001503Y-003664D02*
G01X0001584Y-003746D01*
G01X0001584Y-003746D02*
G01X0001691Y-003790D01*
G01X0001691Y-003790D02*
G01X0001807Y-003790D01*
G01X0001807Y-003790D02*
G01X0001914Y-003746D01*
G01X0001914Y-003746D02*
G01X0001929Y-003731D01*
G01X0001929Y-003731D02*
G01X0006070Y-003731D01*
G01X0006070Y-003731D02*
G01X0006084Y-003746D01*
G01X0006084Y-003746D02*
G01X0006191Y-003790D01*
G01X0006191Y-003790D02*
G01X0006307Y-003790D01*
G01X0006307Y-003790D02*
G01X0006414Y-003746D01*
G01X0006414Y-003746D02*
G01X0006429Y-003731D01*
G01X0006429Y-003731D02*
G01X0007070Y-003731D01*
G01X0007070Y-003731D02*
G01X0007084Y-003746D01*
G01X0007084Y-003746D02*
G01X0007191Y-003790D01*
G01X0007191Y-003790D02*
G01X0007307Y-003790D01*
G01X0007307Y-003790D02*
G01X0007414Y-003746D01*
G01X0007414Y-003746D02*
G01X0007496Y-003665D01*
G01X0007496Y-003665D02*
G01X0007540Y-003558D01*
G01X0007540Y-003558D02*
G01X0007540Y-003442D01*
G01X0007540Y-003442D02*
G01X0007540Y-008966D01*
G01X0007540Y-008966D02*
G01X0007040Y-008966D01*
G01X0007040Y-008966D02*
G01X0007040Y-004192D01*
G01X0007040Y-004192D02*
G01X0006996Y-004085D01*
G01X0006996Y-004085D02*
G01X0006915Y-004003D01*
G01X0006915Y-004003D02*
G01X0006808Y-003959D01*
G01X0006808Y-003959D02*
G01X0006692Y-003959D01*
G01X0006692Y-003959D02*
G01X0006585Y-004003D01*
G01X0006585Y-004003D02*
G01X0006570Y-004018D01*
G01X0006570Y-004018D02*
G01X0005929Y-004018D01*
G01X0005929Y-004018D02*
G01X0005915Y-004003D01*
G01X0005915Y-004003D02*
G01X0005808Y-003959D01*
G01X0005808Y-003959D02*
G01X0005692Y-003959D01*
G01X0005692Y-003959D02*
G01X0005585Y-004003D01*
G01X0005585Y-004003D02*
G01X0005503Y-004084D01*
G01X0005503Y-004084D02*
G01X0005459Y-004191D01*
G01X0005459Y-004191D02*
G01X0005459Y-004307D01*
G01X0005459Y-004307D02*
G01X0005503Y-004414D01*
G01X0005503Y-004414D02*
G01X0005584Y-004496D01*
G01X0005584Y-004496D02*
G01X0005691Y-004540D01*
G01X0005691Y-004540D02*
G01X0005807Y-004540D01*
G01X0005807Y-004540D02*
G01X0005914Y-004496D01*
G01X0005914Y-004496D02*
G01X0005929Y-004481D01*
G01X0005929Y-004481D02*
G01X0006570Y-004481D01*
G01X0006570Y-004481D02*
G01X0006584Y-004496D01*
G01X0006584Y-004496D02*
G01X0006691Y-004540D01*
G01X0006691Y-004540D02*
G01X0006807Y-004540D01*
G01X0006807Y-004540D02*
G01X0006914Y-004496D01*
G01X0006914Y-004496D02*
G01X0006996Y-004415D01*
G01X0006996Y-004415D02*
G01X0007040Y-004308D01*
G01X0007040Y-004308D02*
G01X0007040Y-004192D01*
G01X0007040Y-004192D02*
G01X0007040Y-008966D01*
G01X0007040Y-008966D02*
G01X0003183Y-008966D01*
G01X0003183Y-008966D02*
G01X0003183Y-006273D01*
G01X0003183Y-006273D02*
G01X0003183Y-005673D01*
G01X0003183Y-005673D02*
G01X0003163Y-005624D01*
G01X0003163Y-005624D02*
G01X0003125Y-005586D01*
G01X0003125Y-005586D02*
G01X0003076Y-005566D01*
G01X0003076Y-005566D02*
G01X0003023Y-005566D01*
G01X0003023Y-005566D02*
G01X0002423Y-005566D01*
G01X0002423Y-005566D02*
G01X0002374Y-005586D01*
G01X0002374Y-005586D02*
G01X0002336Y-005624D01*
G01X0002336Y-005624D02*
G01X0002316Y-005673D01*
G01X0002316Y-005673D02*
G01X0002316Y-005726D01*
G01X0002316Y-005726D02*
G01X0002316Y-006326D01*
G01X0002316Y-006326D02*
G01X0002336Y-006375D01*
G01X0002336Y-006375D02*
G01X0002374Y-006413D01*
G01X0002374Y-006413D02*
G01X0002423Y-006433D01*
G01X0002423Y-006433D02*
G01X0002476Y-006433D01*
G01X0002476Y-006433D02*
G01X0003076Y-006433D01*
G01X0003076Y-006433D02*
G01X0003125Y-006413D01*
G01X0003125Y-006413D02*
G01X0003163Y-006375D01*
G01X0003163Y-006375D02*
G01X0003183Y-006326D01*
G01X0003183Y-006326D02*
G01X0003183Y-006273D01*
G01X0003183Y-006273D02*
G01X0003183Y-008966D01*
G01X0003183Y-008966D02*
G01X0002183Y-008966D01*
G01X0002183Y-008966D02*
G01X0002183Y-005914D01*
G01X0002183Y-005914D02*
G01X0002117Y-005754D01*
G01X0002117Y-005754D02*
G01X0001995Y-005632D01*
G01X0001995Y-005632D02*
G01X0001836Y-005566D01*
G01X0001836Y-005566D02*
G01X0001664Y-005566D01*
G01X0001664Y-005566D02*
G01X0001504Y-005632D01*
G01X0001504Y-005632D02*
G01X0001382Y-005754D01*
G01X0001382Y-005754D02*
G01X0001316Y-005913D01*
G01X0001316Y-005913D02*
G01X0001316Y-006085D01*
G01X0001316Y-006085D02*
G01X0001382Y-006245D01*
G01X0001382Y-006245D02*
G01X0001504Y-006367D01*
G01X0001504Y-006367D02*
G01X0001663Y-006433D01*
G01X0001663Y-006433D02*
G01X0001835Y-006433D01*
G01X0001835Y-006433D02*
G01X0001995Y-006367D01*
G01X0001995Y-006367D02*
G01X0002117Y-006245D01*
G01X0002117Y-006245D02*
G01X0002183Y-006086D01*
G01X0002183Y-006086D02*
G01X0002183Y-005914D01*
G01X0002183Y-005914D02*
G01X0002183Y-008966D01*
G01X0002183Y-008966D02*
G01X0000120Y-008966D01*
G01X0000120Y-008966D02*
G01X0000120Y-001511D01*
G01X0000120Y-001511D02*
G01X0000226Y-000973D01*
G01X0000226Y-000973D02*
G01X0000524Y-000526D01*
G01X0000524Y-000526D02*
G01X0000974Y-000227D01*
G01X0000974Y-000227D02*
G01X0001514Y-000120D01*
G01X0001514Y-000120D02*
G01X0011988Y-000120D01*
G01X0011988Y-000120D02*
G01X0012526Y-000226D01*
G01X0012526Y-000226D02*
G01X0012973Y-000524D01*
G01X0012973Y-000524D02*
G01X0013272Y-000974D01*
G01X0013272Y-000974D02*
G01X0013379Y-001514D01*
G01X0013379Y-001514D02*
G01X0013379Y-008966D01*
G54D10*
G36*
G01X0013379Y-015985D02*
G01X0013272Y-016525D01*
G01X0013019Y-016906D01*
G01X0013019Y-015798D01*
G01X0012864Y-015423D01*
G01X0012578Y-015136D01*
G01X0012203Y-014980D01*
G01X0011798Y-014980D01*
G01X0011744Y-015002D01*
G01X0011744Y-011163D01*
G01X0011744Y-010971D01*
G01X0011718Y-010946D01*
G01X0011446Y-010946D01*
G01X0011446Y-011218D01*
G01X0011471Y-011244D01*
G01X0011623Y-011244D01*
G01X0011663Y-011244D01*
G01X0011700Y-011228D01*
G01X0011728Y-011200D01*
G01X0011744Y-011163D01*
G01X0011744Y-015002D01*
G01X0011423Y-015135D01*
G01X0011136Y-015421D01*
G01X0011053Y-015622D01*
G01X0011053Y-011218D01*
G01X0011053Y-010946D01*
G01X0010781Y-010946D01*
G01X0010755Y-010971D01*
G01X0010755Y-011163D01*
G01X0010771Y-011200D01*
G01X0010799Y-011228D01*
G01X0010836Y-011244D01*
G01X0010876Y-011244D01*
G01X0011028Y-011244D01*
G01X0011053Y-011218D01*
G01X0011053Y-015622D01*
G01X0010980Y-015796D01*
G01X0010980Y-016201D01*
G01X0011135Y-016576D01*
G01X0011421Y-016863D01*
G01X0011796Y-017019D01*
G01X0012201Y-017019D01*
G01X0012576Y-016864D01*
G01X0012863Y-016578D01*
G01X0013019Y-016203D01*
G01X0013019Y-015798D01*
G01X0013019Y-016906D01*
G01X0012973Y-016975D01*
G01X0012526Y-017273D01*
G01X0011988Y-017379D01*
G01X0010633Y-017379D01*
G01X0010633Y-015825D01*
G01X0010499Y-015500D01*
G01X0010251Y-015251D01*
G01X0009926Y-015116D01*
G01X0009575Y-015116D01*
G01X0009250Y-015250D01*
G01X0009040Y-015459D01*
G01X0009040Y-011192D01*
G01X0008996Y-011085D01*
G01X0008915Y-011003D01*
G01X0008808Y-010959D01*
G01X0008692Y-010959D01*
G01X0008585Y-011003D01*
G01X0008570Y-011018D01*
G01X0008346Y-011018D01*
G01X0007663Y-010336D01*
G01X0007588Y-010285D01*
G01X0007500Y-010268D01*
G01X0007250Y-010268D01*
G01X0004000Y-010268D01*
G01X0003911Y-010285D01*
G01X0003836Y-010336D01*
G01X0003836Y-010336D01*
G01X0003713Y-010459D01*
G01X0003692Y-010459D01*
G01X0003585Y-010503D01*
G01X0003503Y-010584D01*
G01X0003459Y-010691D01*
G01X0003459Y-010807D01*
G01X0003503Y-010914D01*
G01X0003584Y-010996D01*
G01X0003691Y-011040D01*
G01X0003807Y-011040D01*
G01X0003914Y-010996D01*
G01X0003996Y-010915D01*
G01X0004040Y-010808D01*
G01X0004040Y-010787D01*
G01X0004096Y-010731D01*
G01X0006136Y-010731D01*
G01X0006085Y-010753D01*
G01X0006070Y-010768D01*
G01X0004250Y-010768D01*
G01X0004161Y-010785D01*
G01X0004086Y-010836D01*
G01X0003713Y-011209D01*
G01X0003692Y-011209D01*
G01X0003585Y-011253D01*
G01X0003503Y-011334D01*
G01X0003459Y-011441D01*
G01X0003459Y-011557D01*
G01X0003503Y-011664D01*
G01X0003584Y-011746D01*
G01X0003691Y-011790D01*
G01X0003807Y-011790D01*
G01X0003914Y-011746D01*
G01X0003996Y-011665D01*
G01X0004040Y-011558D01*
G01X0004040Y-011537D01*
G01X0004346Y-011231D01*
G01X0006018Y-011231D01*
G01X0006018Y-013070D01*
G01X0006003Y-013084D01*
G01X0005959Y-013191D01*
G01X0005959Y-013307D01*
G01X0006003Y-013414D01*
G01X0006084Y-013496D01*
G01X0006191Y-013540D01*
G01X0006307Y-013540D01*
G01X0006414Y-013496D01*
G01X0006496Y-013415D01*
G01X0006540Y-013308D01*
G01X0006540Y-013192D01*
G01X0006496Y-013085D01*
G01X0006481Y-013070D01*
G01X0006481Y-011179D01*
G01X0006496Y-011165D01*
G01X0006540Y-011058D01*
G01X0006540Y-010942D01*
G01X0006496Y-010835D01*
G01X0006415Y-010753D01*
G01X0006362Y-010731D01*
G01X0007018Y-010731D01*
G01X0007018Y-013070D01*
G01X0007003Y-013084D01*
G01X0006959Y-013191D01*
G01X0006959Y-013307D01*
G01X0007003Y-013414D01*
G01X0007084Y-013496D01*
G01X0007191Y-013540D01*
G01X0007307Y-013540D01*
G01X0007414Y-013496D01*
G01X0007496Y-013415D01*
G01X0007540Y-013308D01*
G01X0007540Y-013192D01*
G01X0007496Y-013085D01*
G01X0007481Y-013070D01*
G01X0007481Y-010809D01*
G01X0008086Y-011413D01*
G01X0008086Y-011413D01*
G01X0008161Y-011464D01*
G01X0008249Y-011481D01*
G01X0008249Y-011481D01*
G01X0008250Y-011481D01*
G01X0008570Y-011481D01*
G01X0008584Y-011496D01*
G01X0008691Y-011540D01*
G01X0008807Y-011540D01*
G01X0008914Y-011496D01*
G01X0008996Y-011415D01*
G01X0009040Y-011308D01*
G01X0009040Y-011192D01*
G01X0009040Y-015459D01*
G01X0009001Y-015498D01*
G01X0008866Y-015823D01*
G01X0008866Y-016174D01*
G01X0009000Y-016499D01*
G01X0009248Y-016748D01*
G01X0009573Y-016883D01*
G01X0009924Y-016883D01*
G01X0010249Y-016749D01*
G01X0010498Y-016501D01*
G01X0010633Y-016176D01*
G01X0010633Y-015825D01*
G01X0010633Y-017379D01*
G01X0008633Y-017379D01*
G01X0008633Y-015825D01*
G01X0008499Y-015500D01*
G01X0008251Y-015251D01*
G01X0007926Y-015116D01*
G01X0007575Y-015116D01*
G01X0007250Y-015250D01*
G01X0007001Y-015498D01*
G01X0006866Y-015823D01*
G01X0006866Y-016174D01*
G01X0007000Y-016499D01*
G01X0007248Y-016748D01*
G01X0007573Y-016883D01*
G01X0007924Y-016883D01*
G01X0008249Y-016749D01*
G01X0008498Y-016501D01*
G01X0008633Y-016176D01*
G01X0008633Y-015825D01*
G01X0008633Y-017379D01*
G01X0006633Y-017379D01*
G01X0006633Y-015825D01*
G01X0006499Y-015500D01*
G01X0006251Y-015251D01*
G01X0005926Y-015116D01*
G01X0005575Y-015116D01*
G01X0005250Y-015250D01*
G01X0005001Y-015498D01*
G01X0004866Y-015823D01*
G01X0004866Y-016174D01*
G01X0005000Y-016499D01*
G01X0005248Y-016748D01*
G01X0005573Y-016883D01*
G01X0005924Y-016883D01*
G01X0006249Y-016749D01*
G01X0006498Y-016501D01*
G01X0006633Y-016176D01*
G01X0006633Y-015825D01*
G01X0006633Y-017379D01*
G01X0004600Y-017379D01*
G01X0004600Y-016730D01*
G01X0004600Y-015269D01*
G01X0004600Y-015229D01*
G01X0004585Y-015193D01*
G01X0004556Y-015164D01*
G01X0004519Y-015149D01*
G01X0004135Y-015149D01*
G01X0004110Y-015174D01*
G01X0004110Y-015639D01*
G01X0004575Y-015639D01*
G01X0004600Y-015614D01*
G01X0004600Y-015269D01*
G01X0004600Y-016730D01*
G01X0004600Y-016385D01*
G01X0004575Y-016360D01*
G01X0004110Y-016360D01*
G01X0004110Y-016825D01*
G01X0004135Y-016850D01*
G01X0004519Y-016850D01*
G01X0004556Y-016835D01*
G01X0004585Y-016806D01*
G01X0004600Y-016770D01*
G01X0004600Y-016730D01*
G01X0004600Y-017379D01*
G01X0003389Y-017379D01*
G01X0003389Y-016825D01*
G01X0003389Y-016360D01*
G01X0003389Y-015639D01*
G01X0003389Y-015174D01*
G01X0003364Y-015149D01*
G01X0002980Y-015149D01*
G01X0002943Y-015164D01*
G01X0002914Y-015193D01*
G01X0002899Y-015229D01*
G01X0002899Y-015269D01*
G01X0002899Y-015614D01*
G01X0002924Y-015639D01*
G01X0003389Y-015639D01*
G01X0003389Y-016360D01*
G01X0002924Y-016360D01*
G01X0002899Y-016385D01*
G01X0002899Y-016730D01*
G01X0002899Y-016770D01*
G01X0002914Y-016806D01*
G01X0002943Y-016835D01*
G01X0002980Y-016850D01*
G01X0003364Y-016850D01*
G01X0003389Y-016825D01*
G01X0003389Y-017379D01*
G01X0002519Y-017379D01*
G01X0002519Y-015798D01*
G01X0002364Y-015423D01*
G01X0002078Y-015136D01*
G01X0001703Y-014980D01*
G01X0001298Y-014980D01*
G01X0000923Y-015135D01*
G01X0000636Y-015421D01*
G01X0000480Y-015796D01*
G01X0000480Y-016201D01*
G01X0000635Y-016576D01*
G01X0000921Y-016863D01*
G01X0001296Y-017019D01*
G01X0001701Y-017019D01*
G01X0002076Y-016864D01*
G01X0002363Y-016578D01*
G01X0002519Y-016203D01*
G01X0002519Y-015798D01*
G01X0002519Y-017379D01*
G01X0001514Y-017379D01*
G01X0000974Y-017272D01*
G01X0000524Y-016973D01*
G01X0000226Y-016526D01*
G01X0000120Y-015988D01*
G01X0000120Y-009533D01*
G01X0010769Y-009533D01*
G01X0010722Y-009644D01*
G01X0010722Y-009854D01*
G01X0010802Y-010048D01*
G01X0010950Y-010196D01*
G01X0011093Y-010255D01*
G01X0011028Y-010255D01*
G01X0010876Y-010255D01*
G01X0010836Y-010255D01*
G01X0010799Y-010271D01*
G01X0010771Y-010299D01*
G01X0010755Y-010336D01*
G01X0010755Y-010528D01*
G01X0010781Y-010553D01*
G01X0011053Y-010553D01*
G01X0011053Y-010381D01*
G01X0011446Y-010381D01*
G01X0011446Y-010553D01*
G01X0011718Y-010553D01*
G01X0011744Y-010528D01*
G01X0011744Y-010336D01*
G01X0011728Y-010299D01*
G01X0011700Y-010271D01*
G01X0011663Y-010255D01*
G01X0011623Y-010255D01*
G01X0011471Y-010255D01*
G01X0011406Y-010255D01*
G01X0011548Y-010197D01*
G01X0011696Y-010049D01*
G01X0011777Y-009855D01*
G01X0011777Y-009645D01*
G01X0011730Y-009533D01*
G01X0013379Y-009533D01*
G01X0013379Y-015985D01*
G01X0013379Y-015985D01*
G37*
G54D22*
G01X0013379Y-015985D02*
G01X0013272Y-016525D01*
G01X0013272Y-016525D02*
G01X0013019Y-016906D01*
G01X0013019Y-016906D02*
G01X0013019Y-015798D01*
G01X0013019Y-015798D02*
G01X0012864Y-015423D01*
G01X0012864Y-015423D02*
G01X0012578Y-015136D01*
G01X0012578Y-015136D02*
G01X0012203Y-014980D01*
G01X0012203Y-014980D02*
G01X0011798Y-014980D01*
G01X0011798Y-014980D02*
G01X0011744Y-015002D01*
G01X0011744Y-015002D02*
G01X0011744Y-011163D01*
G01X0011744Y-011163D02*
G01X0011744Y-010971D01*
G01X0011744Y-010971D02*
G01X0011718Y-010946D01*
G01X0011718Y-010946D02*
G01X0011446Y-010946D01*
G01X0011446Y-010946D02*
G01X0011446Y-011218D01*
G01X0011446Y-011218D02*
G01X0011471Y-011244D01*
G01X0011471Y-011244D02*
G01X0011623Y-011244D01*
G01X0011623Y-011244D02*
G01X0011663Y-011244D01*
G01X0011663Y-011244D02*
G01X0011700Y-011228D01*
G01X0011700Y-011228D02*
G01X0011728Y-011200D01*
G01X0011728Y-011200D02*
G01X0011744Y-011163D01*
G01X0011744Y-011163D02*
G01X0011744Y-015002D01*
G01X0011744Y-015002D02*
G01X0011423Y-015135D01*
G01X0011423Y-015135D02*
G01X0011136Y-015421D01*
G01X0011136Y-015421D02*
G01X0011053Y-015622D01*
G01X0011053Y-015622D02*
G01X0011053Y-011218D01*
G01X0011053Y-011218D02*
G01X0011053Y-010946D01*
G01X0011053Y-010946D02*
G01X0010781Y-010946D01*
G01X0010781Y-010946D02*
G01X0010755Y-010971D01*
G01X0010755Y-010971D02*
G01X0010755Y-011163D01*
G01X0010755Y-011163D02*
G01X0010771Y-011200D01*
G01X0010771Y-011200D02*
G01X0010799Y-011228D01*
G01X0010799Y-011228D02*
G01X0010836Y-011244D01*
G01X0010836Y-011244D02*
G01X0010876Y-011244D01*
G01X0010876Y-011244D02*
G01X0011028Y-011244D01*
G01X0011028Y-011244D02*
G01X0011053Y-011218D01*
G01X0011053Y-011218D02*
G01X0011053Y-015622D01*
G01X0011053Y-015622D02*
G01X0010980Y-015796D01*
G01X0010980Y-015796D02*
G01X0010980Y-016201D01*
G01X0010980Y-016201D02*
G01X0011135Y-016576D01*
G01X0011135Y-016576D02*
G01X0011421Y-016863D01*
G01X0011421Y-016863D02*
G01X0011796Y-017019D01*
G01X0011796Y-017019D02*
G01X0012201Y-017019D01*
G01X0012201Y-017019D02*
G01X0012576Y-016864D01*
G01X0012576Y-016864D02*
G01X0012863Y-016578D01*
G01X0012863Y-016578D02*
G01X0013019Y-016203D01*
G01X0013019Y-016203D02*
G01X0013019Y-015798D01*
G01X0013019Y-015798D02*
G01X0013019Y-016906D01*
G01X0013019Y-016906D02*
G01X0012973Y-016975D01*
G01X0012973Y-016975D02*
G01X0012526Y-017273D01*
G01X0012526Y-017273D02*
G01X0011988Y-017379D01*
G01X0011988Y-017379D02*
G01X0010633Y-017379D01*
G01X0010633Y-017379D02*
G01X0010633Y-015825D01*
G01X0010633Y-015825D02*
G01X0010499Y-015500D01*
G01X0010499Y-015500D02*
G01X0010251Y-015251D01*
G01X0010251Y-015251D02*
G01X0009926Y-015116D01*
G01X0009926Y-015116D02*
G01X0009575Y-015116D01*
G01X0009575Y-015116D02*
G01X0009250Y-015250D01*
G01X0009250Y-015250D02*
G01X0009040Y-015459D01*
G01X0009040Y-015459D02*
G01X0009040Y-011192D01*
G01X0009040Y-011192D02*
G01X0008996Y-011085D01*
G01X0008996Y-011085D02*
G01X0008915Y-011003D01*
G01X0008915Y-011003D02*
G01X0008808Y-010959D01*
G01X0008808Y-010959D02*
G01X0008692Y-010959D01*
G01X0008692Y-010959D02*
G01X0008585Y-011003D01*
G01X0008585Y-011003D02*
G01X0008570Y-011018D01*
G01X0008570Y-011018D02*
G01X0008346Y-011018D01*
G01X0008346Y-011018D02*
G01X0007663Y-010336D01*
G01X0007663Y-010336D02*
G01X0007588Y-010285D01*
G01X0007588Y-010285D02*
G01X0007500Y-010268D01*
G01X0007500Y-010268D02*
G01X0007250Y-010268D01*
G01X0007250Y-010268D02*
G01X0004000Y-010268D01*
G01X0004000Y-010268D02*
G01X0003911Y-010285D01*
G01X0003911Y-010285D02*
G01X0003836Y-010336D01*
G01X0003836Y-010336D02*
G01X0003836Y-010336D01*
G01X0003836Y-010336D02*
G01X0003713Y-010459D01*
G01X0003713Y-010459D02*
G01X0003692Y-010459D01*
G01X0003692Y-010459D02*
G01X0003585Y-010503D01*
G01X0003585Y-010503D02*
G01X0003503Y-010584D01*
G01X0003503Y-010584D02*
G01X0003459Y-010691D01*
G01X0003459Y-010691D02*
G01X0003459Y-010807D01*
G01X0003459Y-010807D02*
G01X0003503Y-010914D01*
G01X0003503Y-010914D02*
G01X0003584Y-010996D01*
G01X0003584Y-010996D02*
G01X0003691Y-011040D01*
G01X0003691Y-011040D02*
G01X0003807Y-011040D01*
G01X0003807Y-011040D02*
G01X0003914Y-010996D01*
G01X0003914Y-010996D02*
G01X0003996Y-010915D01*
G01X0003996Y-010915D02*
G01X0004040Y-010808D01*
G01X0004040Y-010808D02*
G01X0004040Y-010787D01*
G01X0004040Y-010787D02*
G01X0004096Y-010731D01*
G01X0004096Y-010731D02*
G01X0006136Y-010731D01*
G01X0006136Y-010731D02*
G01X0006085Y-010753D01*
G01X0006085Y-010753D02*
G01X0006070Y-010768D01*
G01X0006070Y-010768D02*
G01X0004250Y-010768D01*
G01X0004250Y-010768D02*
G01X0004161Y-010785D01*
G01X0004161Y-010785D02*
G01X0004086Y-010836D01*
G01X0004086Y-010836D02*
G01X0003713Y-011209D01*
G01X0003713Y-011209D02*
G01X0003692Y-011209D01*
G01X0003692Y-011209D02*
G01X0003585Y-011253D01*
G01X0003585Y-011253D02*
G01X0003503Y-011334D01*
G01X0003503Y-011334D02*
G01X0003459Y-011441D01*
G01X0003459Y-011441D02*
G01X0003459Y-011557D01*
G01X0003459Y-011557D02*
G01X0003503Y-011664D01*
G01X0003503Y-011664D02*
G01X0003584Y-011746D01*
G01X0003584Y-011746D02*
G01X0003691Y-011790D01*
G01X0003691Y-011790D02*
G01X0003807Y-011790D01*
G01X0003807Y-011790D02*
G01X0003914Y-011746D01*
G01X0003914Y-011746D02*
G01X0003996Y-011665D01*
G01X0003996Y-011665D02*
G01X0004040Y-011558D01*
G01X0004040Y-011558D02*
G01X0004040Y-011537D01*
G01X0004040Y-011537D02*
G01X0004346Y-011231D01*
G01X0004346Y-011231D02*
G01X0006018Y-011231D01*
G01X0006018Y-011231D02*
G01X0006018Y-013070D01*
G01X0006018Y-013070D02*
G01X0006003Y-013084D01*
G01X0006003Y-013084D02*
G01X0005959Y-013191D01*
G01X0005959Y-013191D02*
G01X0005959Y-013307D01*
G01X0005959Y-013307D02*
G01X0006003Y-013414D01*
G01X0006003Y-013414D02*
G01X0006084Y-013496D01*
G01X0006084Y-013496D02*
G01X0006191Y-013540D01*
G01X0006191Y-013540D02*
G01X0006307Y-013540D01*
G01X0006307Y-013540D02*
G01X0006414Y-013496D01*
G01X0006414Y-013496D02*
G01X0006496Y-013415D01*
G01X0006496Y-013415D02*
G01X0006540Y-013308D01*
G01X0006540Y-013308D02*
G01X0006540Y-013192D01*
G01X0006540Y-013192D02*
G01X0006496Y-013085D01*
G01X0006496Y-013085D02*
G01X0006481Y-013070D01*
G01X0006481Y-013070D02*
G01X0006481Y-011179D01*
G01X0006481Y-011179D02*
G01X0006496Y-011165D01*
G01X0006496Y-011165D02*
G01X0006540Y-011058D01*
G01X0006540Y-011058D02*
G01X0006540Y-010942D01*
G01X0006540Y-010942D02*
G01X0006496Y-010835D01*
G01X0006496Y-010835D02*
G01X0006415Y-010753D01*
G01X0006415Y-010753D02*
G01X0006362Y-010731D01*
G01X0006362Y-010731D02*
G01X0007018Y-010731D01*
G01X0007018Y-010731D02*
G01X0007018Y-013070D01*
G01X0007018Y-013070D02*
G01X0007003Y-013084D01*
G01X0007003Y-013084D02*
G01X0006959Y-013191D01*
G01X0006959Y-013191D02*
G01X0006959Y-013307D01*
G01X0006959Y-013307D02*
G01X0007003Y-013414D01*
G01X0007003Y-013414D02*
G01X0007084Y-013496D01*
G01X0007084Y-013496D02*
G01X0007191Y-013540D01*
G01X0007191Y-013540D02*
G01X0007307Y-013540D01*
G01X0007307Y-013540D02*
G01X0007414Y-013496D01*
G01X0007414Y-013496D02*
G01X0007496Y-013415D01*
G01X0007496Y-013415D02*
G01X0007540Y-013308D01*
G01X0007540Y-013308D02*
G01X0007540Y-013192D01*
G01X0007540Y-013192D02*
G01X0007496Y-013085D01*
G01X0007496Y-013085D02*
G01X0007481Y-013070D01*
G01X0007481Y-013070D02*
G01X0007481Y-010809D01*
G01X0007481Y-010809D02*
G01X0008086Y-011413D01*
G01X0008086Y-011413D02*
G01X0008086Y-011413D01*
G01X0008086Y-011413D02*
G01X0008161Y-011464D01*
G01X0008161Y-011464D02*
G01X0008249Y-011481D01*
G01X0008249Y-011481D02*
G01X0008249Y-011481D01*
G01X0008249Y-011481D02*
G01X0008250Y-011481D01*
G01X0008250Y-011481D02*
G01X0008570Y-011481D01*
G01X0008570Y-011481D02*
G01X0008584Y-011496D01*
G01X0008584Y-011496D02*
G01X0008691Y-011540D01*
G01X0008691Y-011540D02*
G01X0008807Y-011540D01*
G01X0008807Y-011540D02*
G01X0008914Y-011496D01*
G01X0008914Y-011496D02*
G01X0008996Y-011415D01*
G01X0008996Y-011415D02*
G01X0009040Y-011308D01*
G01X0009040Y-011308D02*
G01X0009040Y-011192D01*
G01X0009040Y-011192D02*
G01X0009040Y-015459D01*
G01X0009040Y-015459D02*
G01X0009001Y-015498D01*
G01X0009001Y-015498D02*
G01X0008866Y-015823D01*
G01X0008866Y-015823D02*
G01X0008866Y-016174D01*
G01X0008866Y-016174D02*
G01X0009000Y-016499D01*
G01X0009000Y-016499D02*
G01X0009248Y-016748D01*
G01X0009248Y-016748D02*
G01X0009573Y-016883D01*
G01X0009573Y-016883D02*
G01X0009924Y-016883D01*
G01X0009924Y-016883D02*
G01X0010249Y-016749D01*
G01X0010249Y-016749D02*
G01X0010498Y-016501D01*
G01X0010498Y-016501D02*
G01X0010633Y-016176D01*
G01X0010633Y-016176D02*
G01X0010633Y-015825D01*
G01X0010633Y-015825D02*
G01X0010633Y-017379D01*
G01X0010633Y-017379D02*
G01X0008633Y-017379D01*
G01X0008633Y-017379D02*
G01X0008633Y-015825D01*
G01X0008633Y-015825D02*
G01X0008499Y-015500D01*
G01X0008499Y-015500D02*
G01X0008251Y-015251D01*
G01X0008251Y-015251D02*
G01X0007926Y-015116D01*
G01X0007926Y-015116D02*
G01X0007575Y-015116D01*
G01X0007575Y-015116D02*
G01X0007250Y-015250D01*
G01X0007250Y-015250D02*
G01X0007001Y-015498D01*
G01X0007001Y-015498D02*
G01X0006866Y-015823D01*
G01X0006866Y-015823D02*
G01X0006866Y-016174D01*
G01X0006866Y-016174D02*
G01X0007000Y-016499D01*
G01X0007000Y-016499D02*
G01X0007248Y-016748D01*
G01X0007248Y-016748D02*
G01X0007573Y-016883D01*
G01X0007573Y-016883D02*
G01X0007924Y-016883D01*
G01X0007924Y-016883D02*
G01X0008249Y-016749D01*
G01X0008249Y-016749D02*
G01X0008498Y-016501D01*
G01X0008498Y-016501D02*
G01X0008633Y-016176D01*
G01X0008633Y-016176D02*
G01X0008633Y-015825D01*
G01X0008633Y-015825D02*
G01X0008633Y-017379D01*
G01X0008633Y-017379D02*
G01X0006633Y-017379D01*
G01X0006633Y-017379D02*
G01X0006633Y-015825D01*
G01X0006633Y-015825D02*
G01X0006499Y-015500D01*
G01X0006499Y-015500D02*
G01X0006251Y-015251D01*
G01X0006251Y-015251D02*
G01X0005926Y-015116D01*
G01X0005926Y-015116D02*
G01X0005575Y-015116D01*
G01X0005575Y-015116D02*
G01X0005250Y-015250D01*
G01X0005250Y-015250D02*
G01X0005001Y-015498D01*
G01X0005001Y-015498D02*
G01X0004866Y-015823D01*
G01X0004866Y-015823D02*
G01X0004866Y-016174D01*
G01X0004866Y-016174D02*
G01X0005000Y-016499D01*
G01X0005000Y-016499D02*
G01X0005248Y-016748D01*
G01X0005248Y-016748D02*
G01X0005573Y-016883D01*
G01X0005573Y-016883D02*
G01X0005924Y-016883D01*
G01X0005924Y-016883D02*
G01X0006249Y-016749D01*
G01X0006249Y-016749D02*
G01X0006498Y-016501D01*
G01X0006498Y-016501D02*
G01X0006633Y-016176D01*
G01X0006633Y-016176D02*
G01X0006633Y-015825D01*
G01X0006633Y-015825D02*
G01X0006633Y-017379D01*
G01X0006633Y-017379D02*
G01X0004600Y-017379D01*
G01X0004600Y-017379D02*
G01X0004600Y-016730D01*
G01X0004600Y-016730D02*
G01X0004600Y-015269D01*
G01X0004600Y-015269D02*
G01X0004600Y-015229D01*
G01X0004600Y-015229D02*
G01X0004585Y-015193D01*
G01X0004585Y-015193D02*
G01X0004556Y-015164D01*
G01X0004556Y-015164D02*
G01X0004519Y-015149D01*
G01X0004519Y-015149D02*
G01X0004135Y-015149D01*
G01X0004135Y-015149D02*
G01X0004110Y-015174D01*
G01X0004110Y-015174D02*
G01X0004110Y-015639D01*
G01X0004110Y-015639D02*
G01X0004575Y-015639D01*
G01X0004575Y-015639D02*
G01X0004600Y-015614D01*
G01X0004600Y-015614D02*
G01X0004600Y-015269D01*
G01X0004600Y-015269D02*
G01X0004600Y-016730D01*
G01X0004600Y-016730D02*
G01X0004600Y-016385D01*
G01X0004600Y-016385D02*
G01X0004575Y-016360D01*
G01X0004575Y-016360D02*
G01X0004110Y-016360D01*
G01X0004110Y-016360D02*
G01X0004110Y-016825D01*
G01X0004110Y-016825D02*
G01X0004135Y-016850D01*
G01X0004135Y-016850D02*
G01X0004519Y-016850D01*
G01X0004519Y-016850D02*
G01X0004556Y-016835D01*
G01X0004556Y-016835D02*
G01X0004585Y-016806D01*
G01X0004585Y-016806D02*
G01X0004600Y-016770D01*
G01X0004600Y-016770D02*
G01X0004600Y-016730D01*
G01X0004600Y-016730D02*
G01X0004600Y-017379D01*
G01X0004600Y-017379D02*
G01X0003389Y-017379D01*
G01X0003389Y-017379D02*
G01X0003389Y-016825D01*
G01X0003389Y-016825D02*
G01X0003389Y-016360D01*
G01X0003389Y-016360D02*
G01X0003389Y-015639D01*
G01X0003389Y-015639D02*
G01X0003389Y-015174D01*
G01X0003389Y-015174D02*
G01X0003364Y-015149D01*
G01X0003364Y-015149D02*
G01X0002980Y-015149D01*
G01X0002980Y-015149D02*
G01X0002943Y-015164D01*
G01X0002943Y-015164D02*
G01X0002914Y-015193D01*
G01X0002914Y-015193D02*
G01X0002899Y-015229D01*
G01X0002899Y-015229D02*
G01X0002899Y-015269D01*
G01X0002899Y-015269D02*
G01X0002899Y-015614D01*
G01X0002899Y-015614D02*
G01X0002924Y-015639D01*
G01X0002924Y-015639D02*
G01X0003389Y-015639D01*
G01X0003389Y-015639D02*
G01X0003389Y-016360D01*
G01X0003389Y-016360D02*
G01X0002924Y-016360D01*
G01X0002924Y-016360D02*
G01X0002899Y-016385D01*
G01X0002899Y-016385D02*
G01X0002899Y-016730D01*
G01X0002899Y-016730D02*
G01X0002899Y-016770D01*
G01X0002899Y-016770D02*
G01X0002914Y-016806D01*
G01X0002914Y-016806D02*
G01X0002943Y-016835D01*
G01X0002943Y-016835D02*
G01X0002980Y-016850D01*
G01X0002980Y-016850D02*
G01X0003364Y-016850D01*
G01X0003364Y-016850D02*
G01X0003389Y-016825D01*
G01X0003389Y-016825D02*
G01X0003389Y-017379D01*
G01X0003389Y-017379D02*
G01X0002519Y-017379D01*
G01X0002519Y-017379D02*
G01X0002519Y-015798D01*
G01X0002519Y-015798D02*
G01X0002364Y-015423D01*
G01X0002364Y-015423D02*
G01X0002078Y-015136D01*
G01X0002078Y-015136D02*
G01X0001703Y-014980D01*
G01X0001703Y-014980D02*
G01X0001298Y-014980D01*
G01X0001298Y-014980D02*
G01X0000923Y-015135D01*
G01X0000923Y-015135D02*
G01X0000636Y-015421D01*
G01X0000636Y-015421D02*
G01X0000480Y-015796D01*
G01X0000480Y-015796D02*
G01X0000480Y-016201D01*
G01X0000480Y-016201D02*
G01X0000635Y-016576D01*
G01X0000635Y-016576D02*
G01X0000921Y-016863D01*
G01X0000921Y-016863D02*
G01X0001296Y-017019D01*
G01X0001296Y-017019D02*
G01X0001701Y-017019D01*
G01X0001701Y-017019D02*
G01X0002076Y-016864D01*
G01X0002076Y-016864D02*
G01X0002363Y-016578D01*
G01X0002363Y-016578D02*
G01X0002519Y-016203D01*
G01X0002519Y-016203D02*
G01X0002519Y-015798D01*
G01X0002519Y-015798D02*
G01X0002519Y-017379D01*
G01X0002519Y-017379D02*
G01X0001514Y-017379D01*
G01X0001514Y-017379D02*
G01X0000974Y-017272D01*
G01X0000974Y-017272D02*
G01X0000524Y-016973D01*
G01X0000524Y-016973D02*
G01X0000226Y-016526D01*
G01X0000226Y-016526D02*
G01X0000120Y-015988D01*
G01X0000120Y-015988D02*
G01X0000120Y-009533D01*
G01X0000120Y-009533D02*
G01X0010769Y-009533D01*
G01X0010769Y-009533D02*
G01X0010722Y-009644D01*
G01X0010722Y-009644D02*
G01X0010722Y-009854D01*
G01X0010722Y-009854D02*
G01X0010802Y-010048D01*
G01X0010802Y-010048D02*
G01X0010950Y-010196D01*
G01X0010950Y-010196D02*
G01X0011093Y-010255D01*
G01X0011093Y-010255D02*
G01X0011028Y-010255D01*
G01X0011028Y-010255D02*
G01X0010876Y-010255D01*
G01X0010876Y-010255D02*
G01X0010836Y-010255D01*
G01X0010836Y-010255D02*
G01X0010799Y-010271D01*
G01X0010799Y-010271D02*
G01X0010771Y-010299D01*
G01X0010771Y-010299D02*
G01X0010755Y-010336D01*
G01X0010755Y-010336D02*
G01X0010755Y-010528D01*
G01X0010755Y-010528D02*
G01X0010781Y-010553D01*
G01X0010781Y-010553D02*
G01X0011053Y-010553D01*
G01X0011053Y-010553D02*
G01X0011053Y-010381D01*
G01X0011053Y-010381D02*
G01X0011446Y-010381D01*
G01X0011446Y-010381D02*
G01X0011446Y-010553D01*
G01X0011446Y-010553D02*
G01X0011718Y-010553D01*
G01X0011718Y-010553D02*
G01X0011744Y-010528D01*
G01X0011744Y-010528D02*
G01X0011744Y-010336D01*
G01X0011744Y-010336D02*
G01X0011728Y-010299D01*
G01X0011728Y-010299D02*
G01X0011700Y-010271D01*
G01X0011700Y-010271D02*
G01X0011663Y-010255D01*
G01X0011663Y-010255D02*
G01X0011623Y-010255D01*
G01X0011623Y-010255D02*
G01X0011471Y-010255D01*
G01X0011471Y-010255D02*
G01X0011406Y-010255D01*
G01X0011406Y-010255D02*
G01X0011548Y-010197D01*
G01X0011548Y-010197D02*
G01X0011696Y-010049D01*
G01X0011696Y-010049D02*
G01X0011777Y-009855D01*
G01X0011777Y-009855D02*
G01X0011777Y-009645D01*
G01X0011777Y-009645D02*
G01X0011730Y-009533D01*
G01X0011730Y-009533D02*
G01X0013379Y-009533D01*
G01X0013379Y-009533D02*
G01X0013379Y-015985D01*
G01X0000000Y-019685D02*
G54D11*
G01X0002750Y-025685D03*
G54D12*
G01X0001750Y-025685D03*
G54D13*
G01X0005750Y-035685D03*
G01X0007750Y-035685D03*
G54D14*
G01X0003750Y-035685D03*
G54D13*
G01X0009750Y-035685D03*
G54D15*
G01X0008750Y-021185D03*
G54D16*
G01X0006750Y-021185D03*
G01X0004750Y-021185D03*
G54D17*
G01X0012000Y-035685D03*
G01X0001500Y-035685D03*
G01X0012000Y-021185D03*
G01X0001500Y-021185D03*
G54D18*
G01X0011250Y-030435D03*
G54D19*
G01X0011250Y-029435D03*
G01X0011250Y-028435D03*
G01X0011250Y-027435D03*
G54D20*
G01X0001750Y-023185D03*
G01X0006250Y-023185D03*
G01X0007250Y-023185D03*
G01X0006750Y-023935D03*
G01X0005750Y-023935D03*
G01X0008750Y-030935D03*
G01X0003750Y-030435D03*
G01X0007250Y-032935D03*
G01X0003750Y-031185D03*
G01X0006250Y-030685D03*
G01X0006250Y-032935D03*
G54D21*
G01X0006250Y-023185D02*
G01X0001750Y-023185D01*
G01X0007250Y-023185D02*
G01X0006250Y-023185D01*
G01X0005750Y-023935D02*
G01X0006750Y-023935D01*
G01X0007500Y-030185D02*
G01X0008250Y-030935D01*
G01X0007250Y-030185D02*
G01X0007500Y-030185D01*
G01X0008750Y-030935D02*
G01X0008250Y-030935D01*
G01X0004000Y-030185D02*
G01X0007250Y-030185D01*
G01X0003750Y-030435D02*
G01X0004000Y-030185D01*
G01X0007250Y-030185D02*
G01X0007250Y-032935D01*
G01X0004250Y-030685D02*
G01X0003750Y-031185D01*
G01X0006250Y-030685D02*
G01X0004250Y-030685D01*
G01X0006250Y-030685D02*
G01X0006250Y-032935D01*
G01X0006250Y-032935D02*
G01X0006250Y-032935D01*
G54D10*
G36*
G01X0013379Y-028651D02*
G01X0013019Y-028651D01*
G01X0013019Y-020983D01*
G01X0012864Y-020608D01*
G01X0012578Y-020321D01*
G01X0012203Y-020165D01*
G01X0011798Y-020165D01*
G01X0011423Y-020320D01*
G01X0011136Y-020606D01*
G01X0010980Y-020981D01*
G01X0010980Y-021386D01*
G01X0011135Y-021761D01*
G01X0011421Y-022048D01*
G01X0011796Y-022204D01*
G01X0012201Y-022204D01*
G01X0012576Y-022049D01*
G01X0012863Y-021763D01*
G01X0013019Y-021388D01*
G01X0013019Y-020983D01*
G01X0013019Y-028651D01*
G01X0011777Y-028651D01*
G01X0011746Y-028651D01*
G01X0011744Y-028651D01*
G01X0011746Y-028649D01*
G01X0011777Y-028619D01*
G01X0011860Y-028536D01*
G01X0011777Y-028452D01*
G01X0011777Y-027330D01*
G01X0011697Y-027136D01*
G01X0011549Y-026988D01*
G01X0011355Y-026907D01*
G01X0011145Y-026907D01*
G01X0010951Y-026987D01*
G01X0010803Y-027135D01*
G01X0010722Y-027329D01*
G01X0010722Y-027539D01*
G01X0010802Y-027733D01*
G01X0010950Y-027881D01*
G01X0011124Y-027953D01*
G01X0011080Y-027987D01*
G01X0011250Y-028156D01*
G01X0011419Y-027987D01*
G01X0011375Y-027953D01*
G01X0011548Y-027882D01*
G01X0011696Y-027734D01*
G01X0011777Y-027540D01*
G01X0011777Y-027330D01*
G01X0011777Y-028452D01*
G01X0011765Y-028440D01*
G01X0011746Y-028458D01*
G01X0011743Y-028462D01*
G01X0011746Y-028351D01*
G01X0011740Y-028321D01*
G01X0011697Y-028265D01*
G01X0011528Y-028435D01*
G01X0011649Y-028556D01*
G01X0011554Y-028651D01*
G01X0010971Y-028651D01*
G01X0010945Y-028651D01*
G01X0010850Y-028556D01*
G01X0010971Y-028435D01*
G01X0010802Y-028265D01*
G01X0010759Y-028321D01*
G01X0010754Y-028460D01*
G01X0010734Y-028440D01*
G01X0010639Y-028536D01*
G01X0010755Y-028651D01*
G01X0009350Y-028651D01*
G01X0009350Y-021665D01*
G01X0009350Y-020704D01*
G01X0009350Y-020664D01*
G01X0009335Y-020628D01*
G01X0009306Y-020599D01*
G01X0009269Y-020584D01*
G01X0009025Y-020584D01*
G01X0009000Y-020609D01*
G01X0009000Y-020935D01*
G01X0009325Y-020935D01*
G01X0009350Y-020909D01*
G01X0009350Y-020704D01*
G01X0009350Y-021665D01*
G01X0009350Y-021460D01*
G01X0009325Y-021435D01*
G01X0009000Y-021435D01*
G01X0009000Y-021760D01*
G01X0009025Y-021785D01*
G01X0009269Y-021785D01*
G01X0009306Y-021770D01*
G01X0009335Y-021741D01*
G01X0009350Y-021705D01*
G01X0009350Y-021665D01*
G01X0009350Y-028651D01*
G01X0008500Y-028651D01*
G01X0008500Y-021760D01*
G01X0008500Y-021435D01*
G01X0008500Y-020935D01*
G01X0008500Y-020609D01*
G01X0008474Y-020584D01*
G01X0008230Y-020584D01*
G01X0008193Y-020599D01*
G01X0008164Y-020628D01*
G01X0008149Y-020664D01*
G01X0008149Y-020704D01*
G01X0008149Y-020909D01*
G01X0008174Y-020935D01*
G01X0008500Y-020935D01*
G01X0008500Y-021435D01*
G01X0008174Y-021435D01*
G01X0008149Y-021460D01*
G01X0008149Y-021665D01*
G01X0008149Y-021705D01*
G01X0008164Y-021741D01*
G01X0008193Y-021770D01*
G01X0008230Y-021785D01*
G01X0008474Y-021785D01*
G01X0008500Y-021760D01*
G01X0008500Y-028651D01*
G01X0007540Y-028651D01*
G01X0007540Y-023127D01*
G01X0007496Y-023020D01*
G01X0007415Y-022938D01*
G01X0007383Y-022925D01*
G01X0007383Y-021059D01*
G01X0007287Y-020826D01*
G01X0007109Y-020648D01*
G01X0006876Y-020551D01*
G01X0006624Y-020551D01*
G01X0006391Y-020647D01*
G01X0006213Y-020825D01*
G01X0006116Y-021058D01*
G01X0006116Y-021310D01*
G01X0006212Y-021543D01*
G01X0006390Y-021721D01*
G01X0006623Y-021818D01*
G01X0006875Y-021818D01*
G01X0007108Y-021722D01*
G01X0007286Y-021544D01*
G01X0007383Y-021311D01*
G01X0007383Y-021059D01*
G01X0007383Y-022925D01*
G01X0007308Y-022894D01*
G01X0007192Y-022894D01*
G01X0007085Y-022938D01*
G01X0007070Y-022953D01*
G01X0006429Y-022953D01*
G01X0006415Y-022938D01*
G01X0006308Y-022894D01*
G01X0006192Y-022894D01*
G01X0006085Y-022938D01*
G01X0006070Y-022953D01*
G01X0005383Y-022953D01*
G01X0005383Y-021059D01*
G01X0005287Y-020826D01*
G01X0005109Y-020648D01*
G01X0004876Y-020551D01*
G01X0004624Y-020551D01*
G01X0004391Y-020647D01*
G01X0004213Y-020825D01*
G01X0004116Y-021058D01*
G01X0004116Y-021310D01*
G01X0004212Y-021543D01*
G01X0004390Y-021721D01*
G01X0004623Y-021818D01*
G01X0004875Y-021818D01*
G01X0005108Y-021722D01*
G01X0005286Y-021544D01*
G01X0005383Y-021311D01*
G01X0005383Y-021059D01*
G01X0005383Y-022953D01*
G01X0002519Y-022953D01*
G01X0002519Y-020983D01*
G01X0002364Y-020608D01*
G01X0002078Y-020321D01*
G01X0001703Y-020165D01*
G01X0001298Y-020165D01*
G01X0000923Y-020320D01*
G01X0000636Y-020606D01*
G01X0000480Y-020981D01*
G01X0000480Y-021386D01*
G01X0000635Y-021761D01*
G01X0000921Y-022048D01*
G01X0001296Y-022204D01*
G01X0001701Y-022204D01*
G01X0002076Y-022049D01*
G01X0002363Y-021763D01*
G01X0002519Y-021388D01*
G01X0002519Y-020983D01*
G01X0002519Y-022953D01*
G01X0001929Y-022953D01*
G01X0001915Y-022938D01*
G01X0001808Y-022894D01*
G01X0001692Y-022894D01*
G01X0001585Y-022938D01*
G01X0001503Y-023019D01*
G01X0001459Y-023126D01*
G01X0001459Y-023242D01*
G01X0001503Y-023349D01*
G01X0001584Y-023431D01*
G01X0001691Y-023475D01*
G01X0001807Y-023475D01*
G01X0001914Y-023431D01*
G01X0001929Y-023416D01*
G01X0006070Y-023416D01*
G01X0006084Y-023431D01*
G01X0006191Y-023475D01*
G01X0006307Y-023475D01*
G01X0006414Y-023431D01*
G01X0006429Y-023416D01*
G01X0007070Y-023416D01*
G01X0007084Y-023431D01*
G01X0007191Y-023475D01*
G01X0007307Y-023475D01*
G01X0007414Y-023431D01*
G01X0007496Y-023350D01*
G01X0007540Y-023243D01*
G01X0007540Y-023127D01*
G01X0007540Y-028651D01*
G01X0007040Y-028651D01*
G01X0007040Y-023877D01*
G01X0006996Y-023770D01*
G01X0006915Y-023688D01*
G01X0006808Y-023644D01*
G01X0006692Y-023644D01*
G01X0006585Y-023688D01*
G01X0006570Y-023703D01*
G01X0005929Y-023703D01*
G01X0005915Y-023688D01*
G01X0005808Y-023644D01*
G01X0005692Y-023644D01*
G01X0005585Y-023688D01*
G01X0005503Y-023769D01*
G01X0005459Y-023876D01*
G01X0005459Y-023992D01*
G01X0005503Y-024099D01*
G01X0005584Y-024181D01*
G01X0005691Y-024225D01*
G01X0005807Y-024225D01*
G01X0005914Y-024181D01*
G01X0005929Y-024166D01*
G01X0006570Y-024166D01*
G01X0006584Y-024181D01*
G01X0006691Y-024225D01*
G01X0006807Y-024225D01*
G01X0006914Y-024181D01*
G01X0006996Y-024100D01*
G01X0007040Y-023993D01*
G01X0007040Y-023877D01*
G01X0007040Y-028651D01*
G01X0003183Y-028651D01*
G01X0003183Y-025958D01*
G01X0003183Y-025358D01*
G01X0003163Y-025309D01*
G01X0003125Y-025271D01*
G01X0003076Y-025251D01*
G01X0003023Y-025251D01*
G01X0002423Y-025251D01*
G01X0002374Y-025271D01*
G01X0002336Y-025309D01*
G01X0002316Y-025358D01*
G01X0002316Y-025411D01*
G01X0002316Y-026011D01*
G01X0002336Y-026060D01*
G01X0002374Y-026098D01*
G01X0002423Y-026118D01*
G01X0002476Y-026118D01*
G01X0003076Y-026118D01*
G01X0003125Y-026098D01*
G01X0003163Y-026060D01*
G01X0003183Y-026011D01*
G01X0003183Y-025958D01*
G01X0003183Y-028651D01*
G01X0002183Y-028651D01*
G01X0002183Y-025599D01*
G01X0002117Y-025439D01*
G01X0001995Y-025317D01*
G01X0001836Y-025251D01*
G01X0001664Y-025251D01*
G01X0001504Y-025317D01*
G01X0001382Y-025439D01*
G01X0001316Y-025598D01*
G01X0001316Y-025770D01*
G01X0001382Y-025930D01*
G01X0001504Y-026052D01*
G01X0001663Y-026118D01*
G01X0001835Y-026118D01*
G01X0001995Y-026052D01*
G01X0002117Y-025930D01*
G01X0002183Y-025771D01*
G01X0002183Y-025599D01*
G01X0002183Y-028651D01*
G01X0000120Y-028651D01*
G01X0000120Y-021196D01*
G01X0000226Y-020658D01*
G01X0000524Y-020211D01*
G01X0000974Y-019912D01*
G01X0001514Y-019805D01*
G01X0011988Y-019805D01*
G01X0012526Y-019911D01*
G01X0012973Y-020209D01*
G01X0013272Y-020659D01*
G01X0013379Y-021199D01*
G01X0013379Y-028651D01*
G01X0013379Y-028651D01*
G37*
G54D22*
G01X0013379Y-028651D02*
G01X0013019Y-028651D01*
G01X0013019Y-028651D02*
G01X0013019Y-020983D01*
G01X0013019Y-020983D02*
G01X0012864Y-020608D01*
G01X0012864Y-020608D02*
G01X0012578Y-020321D01*
G01X0012578Y-020321D02*
G01X0012203Y-020165D01*
G01X0012203Y-020165D02*
G01X0011798Y-020165D01*
G01X0011798Y-020165D02*
G01X0011423Y-020320D01*
G01X0011423Y-020320D02*
G01X0011136Y-020606D01*
G01X0011136Y-020606D02*
G01X0010980Y-020981D01*
G01X0010980Y-020981D02*
G01X0010980Y-021386D01*
G01X0010980Y-021386D02*
G01X0011135Y-021761D01*
G01X0011135Y-021761D02*
G01X0011421Y-022048D01*
G01X0011421Y-022048D02*
G01X0011796Y-022204D01*
G01X0011796Y-022204D02*
G01X0012201Y-022204D01*
G01X0012201Y-022204D02*
G01X0012576Y-022049D01*
G01X0012576Y-022049D02*
G01X0012863Y-021763D01*
G01X0012863Y-021763D02*
G01X0013019Y-021388D01*
G01X0013019Y-021388D02*
G01X0013019Y-020983D01*
G01X0013019Y-020983D02*
G01X0013019Y-028651D01*
G01X0013019Y-028651D02*
G01X0011777Y-028651D01*
G01X0011777Y-028651D02*
G01X0011746Y-028651D01*
G01X0011746Y-028651D02*
G01X0011744Y-028651D01*
G01X0011744Y-028651D02*
G01X0011746Y-028649D01*
G01X0011746Y-028649D02*
G01X0011777Y-028619D01*
G01X0011777Y-028619D02*
G01X0011860Y-028536D01*
G01X0011860Y-028536D02*
G01X0011777Y-028452D01*
G01X0011777Y-028452D02*
G01X0011777Y-027330D01*
G01X0011777Y-027330D02*
G01X0011697Y-027136D01*
G01X0011697Y-027136D02*
G01X0011549Y-026988D01*
G01X0011549Y-026988D02*
G01X0011355Y-026907D01*
G01X0011355Y-026907D02*
G01X0011145Y-026907D01*
G01X0011145Y-026907D02*
G01X0010951Y-026987D01*
G01X0010951Y-026987D02*
G01X0010803Y-027135D01*
G01X0010803Y-027135D02*
G01X0010722Y-027329D01*
G01X0010722Y-027329D02*
G01X0010722Y-027539D01*
G01X0010722Y-027539D02*
G01X0010802Y-027733D01*
G01X0010802Y-027733D02*
G01X0010950Y-027881D01*
G01X0010950Y-027881D02*
G01X0011124Y-027953D01*
G01X0011124Y-027953D02*
G01X0011080Y-027987D01*
G01X0011080Y-027987D02*
G01X0011250Y-028156D01*
G01X0011250Y-028156D02*
G01X0011419Y-027987D01*
G01X0011419Y-027987D02*
G01X0011375Y-027953D01*
G01X0011375Y-027953D02*
G01X0011548Y-027882D01*
G01X0011548Y-027882D02*
G01X0011696Y-027734D01*
G01X0011696Y-027734D02*
G01X0011777Y-027540D01*
G01X0011777Y-027540D02*
G01X0011777Y-027330D01*
G01X0011777Y-027330D02*
G01X0011777Y-028452D01*
G01X0011777Y-028452D02*
G01X0011765Y-028440D01*
G01X0011765Y-028440D02*
G01X0011746Y-028458D01*
G01X0011746Y-028458D02*
G01X0011743Y-028462D01*
G01X0011743Y-028462D02*
G01X0011746Y-028351D01*
G01X0011746Y-028351D02*
G01X0011740Y-028321D01*
G01X0011740Y-028321D02*
G01X0011697Y-028265D01*
G01X0011697Y-028265D02*
G01X0011528Y-028435D01*
G01X0011528Y-028435D02*
G01X0011649Y-028556D01*
G01X0011649Y-028556D02*
G01X0011554Y-028651D01*
G01X0011554Y-028651D02*
G01X0010971Y-028651D01*
G01X0010971Y-028651D02*
G01X0010945Y-028651D01*
G01X0010945Y-028651D02*
G01X0010850Y-028556D01*
G01X0010850Y-028556D02*
G01X0010971Y-028435D01*
G01X0010971Y-028435D02*
G01X0010802Y-028265D01*
G01X0010802Y-028265D02*
G01X0010759Y-028321D01*
G01X0010759Y-028321D02*
G01X0010754Y-028460D01*
G01X0010754Y-028460D02*
G01X0010734Y-028440D01*
G01X0010734Y-028440D02*
G01X0010639Y-028536D01*
G01X0010639Y-028536D02*
G01X0010755Y-028651D01*
G01X0010755Y-028651D02*
G01X0009350Y-028651D01*
G01X0009350Y-028651D02*
G01X0009350Y-021665D01*
G01X0009350Y-021665D02*
G01X0009350Y-020704D01*
G01X0009350Y-020704D02*
G01X0009350Y-020664D01*
G01X0009350Y-020664D02*
G01X0009335Y-020628D01*
G01X0009335Y-020628D02*
G01X0009306Y-020599D01*
G01X0009306Y-020599D02*
G01X0009269Y-020584D01*
G01X0009269Y-020584D02*
G01X0009025Y-020584D01*
G01X0009025Y-020584D02*
G01X0009000Y-020609D01*
G01X0009000Y-020609D02*
G01X0009000Y-020935D01*
G01X0009000Y-020935D02*
G01X0009325Y-020935D01*
G01X0009325Y-020935D02*
G01X0009350Y-020909D01*
G01X0009350Y-020909D02*
G01X0009350Y-020704D01*
G01X0009350Y-020704D02*
G01X0009350Y-021665D01*
G01X0009350Y-021665D02*
G01X0009350Y-021460D01*
G01X0009350Y-021460D02*
G01X0009325Y-021435D01*
G01X0009325Y-021435D02*
G01X0009000Y-021435D01*
G01X0009000Y-021435D02*
G01X0009000Y-021760D01*
G01X0009000Y-021760D02*
G01X0009025Y-021785D01*
G01X0009025Y-021785D02*
G01X0009269Y-021785D01*
G01X0009269Y-021785D02*
G01X0009306Y-021770D01*
G01X0009306Y-021770D02*
G01X0009335Y-021741D01*
G01X0009335Y-021741D02*
G01X0009350Y-021705D01*
G01X0009350Y-021705D02*
G01X0009350Y-021665D01*
G01X0009350Y-021665D02*
G01X0009350Y-028651D01*
G01X0009350Y-028651D02*
G01X0008500Y-028651D01*
G01X0008500Y-028651D02*
G01X0008500Y-021760D01*
G01X0008500Y-021760D02*
G01X0008500Y-021435D01*
G01X0008500Y-021435D02*
G01X0008500Y-020935D01*
G01X0008500Y-020935D02*
G01X0008500Y-020609D01*
G01X0008500Y-020609D02*
G01X0008474Y-020584D01*
G01X0008474Y-020584D02*
G01X0008230Y-020584D01*
G01X0008230Y-020584D02*
G01X0008193Y-020599D01*
G01X0008193Y-020599D02*
G01X0008164Y-020628D01*
G01X0008164Y-020628D02*
G01X0008149Y-020664D01*
G01X0008149Y-020664D02*
G01X0008149Y-020704D01*
G01X0008149Y-020704D02*
G01X0008149Y-020909D01*
G01X0008149Y-020909D02*
G01X0008174Y-020935D01*
G01X0008174Y-020935D02*
G01X0008500Y-020935D01*
G01X0008500Y-020935D02*
G01X0008500Y-021435D01*
G01X0008500Y-021435D02*
G01X0008174Y-021435D01*
G01X0008174Y-021435D02*
G01X0008149Y-021460D01*
G01X0008149Y-021460D02*
G01X0008149Y-021665D01*
G01X0008149Y-021665D02*
G01X0008149Y-021705D01*
G01X0008149Y-021705D02*
G01X0008164Y-021741D01*
G01X0008164Y-021741D02*
G01X0008193Y-021770D01*
G01X0008193Y-021770D02*
G01X0008230Y-021785D01*
G01X0008230Y-021785D02*
G01X0008474Y-021785D01*
G01X0008474Y-021785D02*
G01X0008500Y-021760D01*
G01X0008500Y-021760D02*
G01X0008500Y-028651D01*
G01X0008500Y-028651D02*
G01X0007540Y-028651D01*
G01X0007540Y-028651D02*
G01X0007540Y-023127D01*
G01X0007540Y-023127D02*
G01X0007496Y-023020D01*
G01X0007496Y-023020D02*
G01X0007415Y-022938D01*
G01X0007415Y-022938D02*
G01X0007383Y-022925D01*
G01X0007383Y-022925D02*
G01X0007383Y-021059D01*
G01X0007383Y-021059D02*
G01X0007287Y-020826D01*
G01X0007287Y-020826D02*
G01X0007109Y-020648D01*
G01X0007109Y-020648D02*
G01X0006876Y-020551D01*
G01X0006876Y-020551D02*
G01X0006624Y-020551D01*
G01X0006624Y-020551D02*
G01X0006391Y-020647D01*
G01X0006391Y-020647D02*
G01X0006213Y-020825D01*
G01X0006213Y-020825D02*
G01X0006116Y-021058D01*
G01X0006116Y-021058D02*
G01X0006116Y-021310D01*
G01X0006116Y-021310D02*
G01X0006212Y-021543D01*
G01X0006212Y-021543D02*
G01X0006390Y-021721D01*
G01X0006390Y-021721D02*
G01X0006623Y-021818D01*
G01X0006623Y-021818D02*
G01X0006875Y-021818D01*
G01X0006875Y-021818D02*
G01X0007108Y-021722D01*
G01X0007108Y-021722D02*
G01X0007286Y-021544D01*
G01X0007286Y-021544D02*
G01X0007383Y-021311D01*
G01X0007383Y-021311D02*
G01X0007383Y-021059D01*
G01X0007383Y-021059D02*
G01X0007383Y-022925D01*
G01X0007383Y-022925D02*
G01X0007308Y-022894D01*
G01X0007308Y-022894D02*
G01X0007192Y-022894D01*
G01X0007192Y-022894D02*
G01X0007085Y-022938D01*
G01X0007085Y-022938D02*
G01X0007070Y-022953D01*
G01X0007070Y-022953D02*
G01X0006429Y-022953D01*
G01X0006429Y-022953D02*
G01X0006415Y-022938D01*
G01X0006415Y-022938D02*
G01X0006308Y-022894D01*
G01X0006308Y-022894D02*
G01X0006192Y-022894D01*
G01X0006192Y-022894D02*
G01X0006085Y-022938D01*
G01X0006085Y-022938D02*
G01X0006070Y-022953D01*
G01X0006070Y-022953D02*
G01X0005383Y-022953D01*
G01X0005383Y-022953D02*
G01X0005383Y-021059D01*
G01X0005383Y-021059D02*
G01X0005287Y-020826D01*
G01X0005287Y-020826D02*
G01X0005109Y-020648D01*
G01X0005109Y-020648D02*
G01X0004876Y-020551D01*
G01X0004876Y-020551D02*
G01X0004624Y-020551D01*
G01X0004624Y-020551D02*
G01X0004391Y-020647D01*
G01X0004391Y-020647D02*
G01X0004213Y-020825D01*
G01X0004213Y-020825D02*
G01X0004116Y-021058D01*
G01X0004116Y-021058D02*
G01X0004116Y-021310D01*
G01X0004116Y-021310D02*
G01X0004212Y-021543D01*
G01X0004212Y-021543D02*
G01X0004390Y-021721D01*
G01X0004390Y-021721D02*
G01X0004623Y-021818D01*
G01X0004623Y-021818D02*
G01X0004875Y-021818D01*
G01X0004875Y-021818D02*
G01X0005108Y-021722D01*
G01X0005108Y-021722D02*
G01X0005286Y-021544D01*
G01X0005286Y-021544D02*
G01X0005383Y-021311D01*
G01X0005383Y-021311D02*
G01X0005383Y-021059D01*
G01X0005383Y-021059D02*
G01X0005383Y-022953D01*
G01X0005383Y-022953D02*
G01X0002519Y-022953D01*
G01X0002519Y-022953D02*
G01X0002519Y-020983D01*
G01X0002519Y-020983D02*
G01X0002364Y-020608D01*
G01X0002364Y-020608D02*
G01X0002078Y-020321D01*
G01X0002078Y-020321D02*
G01X0001703Y-020165D01*
G01X0001703Y-020165D02*
G01X0001298Y-020165D01*
G01X0001298Y-020165D02*
G01X0000923Y-020320D01*
G01X0000923Y-020320D02*
G01X0000636Y-020606D01*
G01X0000636Y-020606D02*
G01X0000480Y-020981D01*
G01X0000480Y-020981D02*
G01X0000480Y-021386D01*
G01X0000480Y-021386D02*
G01X0000635Y-021761D01*
G01X0000635Y-021761D02*
G01X0000921Y-022048D01*
G01X0000921Y-022048D02*
G01X0001296Y-022204D01*
G01X0001296Y-022204D02*
G01X0001701Y-022204D01*
G01X0001701Y-022204D02*
G01X0002076Y-022049D01*
G01X0002076Y-022049D02*
G01X0002363Y-021763D01*
G01X0002363Y-021763D02*
G01X0002519Y-021388D01*
G01X0002519Y-021388D02*
G01X0002519Y-020983D01*
G01X0002519Y-020983D02*
G01X0002519Y-022953D01*
G01X0002519Y-022953D02*
G01X0001929Y-022953D01*
G01X0001929Y-022953D02*
G01X0001915Y-022938D01*
G01X0001915Y-022938D02*
G01X0001808Y-022894D01*
G01X0001808Y-022894D02*
G01X0001692Y-022894D01*
G01X0001692Y-022894D02*
G01X0001585Y-022938D01*
G01X0001585Y-022938D02*
G01X0001503Y-023019D01*
G01X0001503Y-023019D02*
G01X0001459Y-023126D01*
G01X0001459Y-023126D02*
G01X0001459Y-023242D01*
G01X0001459Y-023242D02*
G01X0001503Y-023349D01*
G01X0001503Y-023349D02*
G01X0001584Y-023431D01*
G01X0001584Y-023431D02*
G01X0001691Y-023475D01*
G01X0001691Y-023475D02*
G01X0001807Y-023475D01*
G01X0001807Y-023475D02*
G01X0001914Y-023431D01*
G01X0001914Y-023431D02*
G01X0001929Y-023416D01*
G01X0001929Y-023416D02*
G01X0006070Y-023416D01*
G01X0006070Y-023416D02*
G01X0006084Y-023431D01*
G01X0006084Y-023431D02*
G01X0006191Y-023475D01*
G01X0006191Y-023475D02*
G01X0006307Y-023475D01*
G01X0006307Y-023475D02*
G01X0006414Y-023431D01*
G01X0006414Y-023431D02*
G01X0006429Y-023416D01*
G01X0006429Y-023416D02*
G01X0007070Y-023416D01*
G01X0007070Y-023416D02*
G01X0007084Y-023431D01*
G01X0007084Y-023431D02*
G01X0007191Y-023475D01*
G01X0007191Y-023475D02*
G01X0007307Y-023475D01*
G01X0007307Y-023475D02*
G01X0007414Y-023431D01*
G01X0007414Y-023431D02*
G01X0007496Y-023350D01*
G01X0007496Y-023350D02*
G01X0007540Y-023243D01*
G01X0007540Y-023243D02*
G01X0007540Y-023127D01*
G01X0007540Y-023127D02*
G01X0007540Y-028651D01*
G01X0007540Y-028651D02*
G01X0007040Y-028651D01*
G01X0007040Y-028651D02*
G01X0007040Y-023877D01*
G01X0007040Y-023877D02*
G01X0006996Y-023770D01*
G01X0006996Y-023770D02*
G01X0006915Y-023688D01*
G01X0006915Y-023688D02*
G01X0006808Y-023644D01*
G01X0006808Y-023644D02*
G01X0006692Y-023644D01*
G01X0006692Y-023644D02*
G01X0006585Y-023688D01*
G01X0006585Y-023688D02*
G01X0006570Y-023703D01*
G01X0006570Y-023703D02*
G01X0005929Y-023703D01*
G01X0005929Y-023703D02*
G01X0005915Y-023688D01*
G01X0005915Y-023688D02*
G01X0005808Y-023644D01*
G01X0005808Y-023644D02*
G01X0005692Y-023644D01*
G01X0005692Y-023644D02*
G01X0005585Y-023688D01*
G01X0005585Y-023688D02*
G01X0005503Y-023769D01*
G01X0005503Y-023769D02*
G01X0005459Y-023876D01*
G01X0005459Y-023876D02*
G01X0005459Y-023992D01*
G01X0005459Y-023992D02*
G01X0005503Y-024099D01*
G01X0005503Y-024099D02*
G01X0005584Y-024181D01*
G01X0005584Y-024181D02*
G01X0005691Y-024225D01*
G01X0005691Y-024225D02*
G01X0005807Y-024225D01*
G01X0005807Y-024225D02*
G01X0005914Y-024181D01*
G01X0005914Y-024181D02*
G01X0005929Y-024166D01*
G01X0005929Y-024166D02*
G01X0006570Y-024166D01*
G01X0006570Y-024166D02*
G01X0006584Y-024181D01*
G01X0006584Y-024181D02*
G01X0006691Y-024225D01*
G01X0006691Y-024225D02*
G01X0006807Y-024225D01*
G01X0006807Y-024225D02*
G01X0006914Y-024181D01*
G01X0006914Y-024181D02*
G01X0006996Y-024100D01*
G01X0006996Y-024100D02*
G01X0007040Y-023993D01*
G01X0007040Y-023993D02*
G01X0007040Y-023877D01*
G01X0007040Y-023877D02*
G01X0007040Y-028651D01*
G01X0007040Y-028651D02*
G01X0003183Y-028651D01*
G01X0003183Y-028651D02*
G01X0003183Y-025958D01*
G01X0003183Y-025958D02*
G01X0003183Y-025358D01*
G01X0003183Y-025358D02*
G01X0003163Y-025309D01*
G01X0003163Y-025309D02*
G01X0003125Y-025271D01*
G01X0003125Y-025271D02*
G01X0003076Y-025251D01*
G01X0003076Y-025251D02*
G01X0003023Y-025251D01*
G01X0003023Y-025251D02*
G01X0002423Y-025251D01*
G01X0002423Y-025251D02*
G01X0002374Y-025271D01*
G01X0002374Y-025271D02*
G01X0002336Y-025309D01*
G01X0002336Y-025309D02*
G01X0002316Y-025358D01*
G01X0002316Y-025358D02*
G01X0002316Y-025411D01*
G01X0002316Y-025411D02*
G01X0002316Y-026011D01*
G01X0002316Y-026011D02*
G01X0002336Y-026060D01*
G01X0002336Y-026060D02*
G01X0002374Y-026098D01*
G01X0002374Y-026098D02*
G01X0002423Y-026118D01*
G01X0002423Y-026118D02*
G01X0002476Y-026118D01*
G01X0002476Y-026118D02*
G01X0003076Y-026118D01*
G01X0003076Y-026118D02*
G01X0003125Y-026098D01*
G01X0003125Y-026098D02*
G01X0003163Y-026060D01*
G01X0003163Y-026060D02*
G01X0003183Y-026011D01*
G01X0003183Y-026011D02*
G01X0003183Y-025958D01*
G01X0003183Y-025958D02*
G01X0003183Y-028651D01*
G01X0003183Y-028651D02*
G01X0002183Y-028651D01*
G01X0002183Y-028651D02*
G01X0002183Y-025599D01*
G01X0002183Y-025599D02*
G01X0002117Y-025439D01*
G01X0002117Y-025439D02*
G01X0001995Y-025317D01*
G01X0001995Y-025317D02*
G01X0001836Y-025251D01*
G01X0001836Y-025251D02*
G01X0001664Y-025251D01*
G01X0001664Y-025251D02*
G01X0001504Y-025317D01*
G01X0001504Y-025317D02*
G01X0001382Y-025439D01*
G01X0001382Y-025439D02*
G01X0001316Y-025598D01*
G01X0001316Y-025598D02*
G01X0001316Y-025770D01*
G01X0001316Y-025770D02*
G01X0001382Y-025930D01*
G01X0001382Y-025930D02*
G01X0001504Y-026052D01*
G01X0001504Y-026052D02*
G01X0001663Y-026118D01*
G01X0001663Y-026118D02*
G01X0001835Y-026118D01*
G01X0001835Y-026118D02*
G01X0001995Y-026052D01*
G01X0001995Y-026052D02*
G01X0002117Y-025930D01*
G01X0002117Y-025930D02*
G01X0002183Y-025771D01*
G01X0002183Y-025771D02*
G01X0002183Y-025599D01*
G01X0002183Y-025599D02*
G01X0002183Y-028651D01*
G01X0002183Y-028651D02*
G01X0000120Y-028651D01*
G01X0000120Y-028651D02*
G01X0000120Y-021196D01*
G01X0000120Y-021196D02*
G01X0000226Y-020658D01*
G01X0000226Y-020658D02*
G01X0000524Y-020211D01*
G01X0000524Y-020211D02*
G01X0000974Y-019912D01*
G01X0000974Y-019912D02*
G01X0001514Y-019805D01*
G01X0001514Y-019805D02*
G01X0011988Y-019805D01*
G01X0011988Y-019805D02*
G01X0012526Y-019911D01*
G01X0012526Y-019911D02*
G01X0012973Y-020209D01*
G01X0012973Y-020209D02*
G01X0013272Y-020659D01*
G01X0013272Y-020659D02*
G01X0013379Y-021199D01*
G01X0013379Y-021199D02*
G01X0013379Y-028651D01*
G54D10*
G36*
G01X0013379Y-035670D02*
G01X0013272Y-036210D01*
G01X0013019Y-036591D01*
G01X0013019Y-035483D01*
G01X0012864Y-035108D01*
G01X0012578Y-034821D01*
G01X0012203Y-034665D01*
G01X0011798Y-034665D01*
G01X0011744Y-034687D01*
G01X0011744Y-030848D01*
G01X0011744Y-030656D01*
G01X0011718Y-030631D01*
G01X0011446Y-030631D01*
G01X0011446Y-030903D01*
G01X0011471Y-030929D01*
G01X0011623Y-030929D01*
G01X0011663Y-030929D01*
G01X0011700Y-030913D01*
G01X0011728Y-030885D01*
G01X0011744Y-030848D01*
G01X0011744Y-034687D01*
G01X0011423Y-034820D01*
G01X0011136Y-035106D01*
G01X0011053Y-035307D01*
G01X0011053Y-030903D01*
G01X0011053Y-030631D01*
G01X0010781Y-030631D01*
G01X0010755Y-030656D01*
G01X0010755Y-030848D01*
G01X0010771Y-030885D01*
G01X0010799Y-030913D01*
G01X0010836Y-030929D01*
G01X0010876Y-030929D01*
G01X0011028Y-030929D01*
G01X0011053Y-030903D01*
G01X0011053Y-035307D01*
G01X0010980Y-035481D01*
G01X0010980Y-035886D01*
G01X0011135Y-036261D01*
G01X0011421Y-036548D01*
G01X0011796Y-036704D01*
G01X0012201Y-036704D01*
G01X0012576Y-036549D01*
G01X0012863Y-036263D01*
G01X0013019Y-035888D01*
G01X0013019Y-035483D01*
G01X0013019Y-036591D01*
G01X0012973Y-036660D01*
G01X0012526Y-036958D01*
G01X0011988Y-037064D01*
G01X0010633Y-037064D01*
G01X0010633Y-035510D01*
G01X0010499Y-035185D01*
G01X0010251Y-034936D01*
G01X0009926Y-034801D01*
G01X0009575Y-034801D01*
G01X0009250Y-034935D01*
G01X0009040Y-035144D01*
G01X0009040Y-030877D01*
G01X0008996Y-030770D01*
G01X0008915Y-030688D01*
G01X0008808Y-030644D01*
G01X0008692Y-030644D01*
G01X0008585Y-030688D01*
G01X0008570Y-030703D01*
G01X0008346Y-030703D01*
G01X0007663Y-030021D01*
G01X0007588Y-029970D01*
G01X0007500Y-029953D01*
G01X0007250Y-029953D01*
G01X0004000Y-029953D01*
G01X0003911Y-029970D01*
G01X0003836Y-030021D01*
G01X0003836Y-030021D01*
G01X0003713Y-030144D01*
G01X0003692Y-030144D01*
G01X0003585Y-030188D01*
G01X0003503Y-030269D01*
G01X0003459Y-030376D01*
G01X0003459Y-030492D01*
G01X0003503Y-030599D01*
G01X0003584Y-030681D01*
G01X0003691Y-030725D01*
G01X0003807Y-030725D01*
G01X0003914Y-030681D01*
G01X0003996Y-030600D01*
G01X0004040Y-030493D01*
G01X0004040Y-030472D01*
G01X0004096Y-030416D01*
G01X0006136Y-030416D01*
G01X0006085Y-030438D01*
G01X0006070Y-030453D01*
G01X0004250Y-030453D01*
G01X0004161Y-030470D01*
G01X0004086Y-030521D01*
G01X0003713Y-030894D01*
G01X0003692Y-030894D01*
G01X0003585Y-030938D01*
G01X0003503Y-031019D01*
G01X0003459Y-031126D01*
G01X0003459Y-031242D01*
G01X0003503Y-031349D01*
G01X0003584Y-031431D01*
G01X0003691Y-031475D01*
G01X0003807Y-031475D01*
G01X0003914Y-031431D01*
G01X0003996Y-031350D01*
G01X0004040Y-031243D01*
G01X0004040Y-031222D01*
G01X0004346Y-030916D01*
G01X0006018Y-030916D01*
G01X0006018Y-032755D01*
G01X0006003Y-032769D01*
G01X0005959Y-032876D01*
G01X0005959Y-032992D01*
G01X0006003Y-033099D01*
G01X0006084Y-033181D01*
G01X0006191Y-033225D01*
G01X0006307Y-033225D01*
G01X0006414Y-033181D01*
G01X0006496Y-033100D01*
G01X0006540Y-032993D01*
G01X0006540Y-032877D01*
G01X0006496Y-032770D01*
G01X0006481Y-032755D01*
G01X0006481Y-030864D01*
G01X0006496Y-030850D01*
G01X0006540Y-030743D01*
G01X0006540Y-030627D01*
G01X0006496Y-030520D01*
G01X0006415Y-030438D01*
G01X0006362Y-030416D01*
G01X0007018Y-030416D01*
G01X0007018Y-032755D01*
G01X0007003Y-032769D01*
G01X0006959Y-032876D01*
G01X0006959Y-032992D01*
G01X0007003Y-033099D01*
G01X0007084Y-033181D01*
G01X0007191Y-033225D01*
G01X0007307Y-033225D01*
G01X0007414Y-033181D01*
G01X0007496Y-033100D01*
G01X0007540Y-032993D01*
G01X0007540Y-032877D01*
G01X0007496Y-032770D01*
G01X0007481Y-032755D01*
G01X0007481Y-030494D01*
G01X0008086Y-031098D01*
G01X0008086Y-031098D01*
G01X0008161Y-031149D01*
G01X0008249Y-031166D01*
G01X0008249Y-031166D01*
G01X0008250Y-031166D01*
G01X0008570Y-031166D01*
G01X0008584Y-031181D01*
G01X0008691Y-031225D01*
G01X0008807Y-031225D01*
G01X0008914Y-031181D01*
G01X0008996Y-031100D01*
G01X0009040Y-030993D01*
G01X0009040Y-030877D01*
G01X0009040Y-035144D01*
G01X0009001Y-035183D01*
G01X0008866Y-035508D01*
G01X0008866Y-035859D01*
G01X0009000Y-036184D01*
G01X0009248Y-036433D01*
G01X0009573Y-036568D01*
G01X0009924Y-036568D01*
G01X0010249Y-036434D01*
G01X0010498Y-036186D01*
G01X0010633Y-035861D01*
G01X0010633Y-035510D01*
G01X0010633Y-037064D01*
G01X0008633Y-037064D01*
G01X0008633Y-035510D01*
G01X0008499Y-035185D01*
G01X0008251Y-034936D01*
G01X0007926Y-034801D01*
G01X0007575Y-034801D01*
G01X0007250Y-034935D01*
G01X0007001Y-035183D01*
G01X0006866Y-035508D01*
G01X0006866Y-035859D01*
G01X0007000Y-036184D01*
G01X0007248Y-036433D01*
G01X0007573Y-036568D01*
G01X0007924Y-036568D01*
G01X0008249Y-036434D01*
G01X0008498Y-036186D01*
G01X0008633Y-035861D01*
G01X0008633Y-035510D01*
G01X0008633Y-037064D01*
G01X0006633Y-037064D01*
G01X0006633Y-035510D01*
G01X0006499Y-035185D01*
G01X0006251Y-034936D01*
G01X0005926Y-034801D01*
G01X0005575Y-034801D01*
G01X0005250Y-034935D01*
G01X0005001Y-035183D01*
G01X0004866Y-035508D01*
G01X0004866Y-035859D01*
G01X0005000Y-036184D01*
G01X0005248Y-036433D01*
G01X0005573Y-036568D01*
G01X0005924Y-036568D01*
G01X0006249Y-036434D01*
G01X0006498Y-036186D01*
G01X0006633Y-035861D01*
G01X0006633Y-035510D01*
G01X0006633Y-037064D01*
G01X0004600Y-037064D01*
G01X0004600Y-036415D01*
G01X0004600Y-034954D01*
G01X0004600Y-034914D01*
G01X0004585Y-034878D01*
G01X0004556Y-034849D01*
G01X0004519Y-034834D01*
G01X0004135Y-034834D01*
G01X0004110Y-034859D01*
G01X0004110Y-035324D01*
G01X0004575Y-035324D01*
G01X0004600Y-035299D01*
G01X0004600Y-034954D01*
G01X0004600Y-036415D01*
G01X0004600Y-036070D01*
G01X0004575Y-036045D01*
G01X0004110Y-036045D01*
G01X0004110Y-036510D01*
G01X0004135Y-036535D01*
G01X0004519Y-036535D01*
G01X0004556Y-036520D01*
G01X0004585Y-036491D01*
G01X0004600Y-036455D01*
G01X0004600Y-036415D01*
G01X0004600Y-037064D01*
G01X0003389Y-037064D01*
G01X0003389Y-036510D01*
G01X0003389Y-036045D01*
G01X0003389Y-035324D01*
G01X0003389Y-034859D01*
G01X0003364Y-034834D01*
G01X0002980Y-034834D01*
G01X0002943Y-034849D01*
G01X0002914Y-034878D01*
G01X0002899Y-034914D01*
G01X0002899Y-034954D01*
G01X0002899Y-035299D01*
G01X0002924Y-035324D01*
G01X0003389Y-035324D01*
G01X0003389Y-036045D01*
G01X0002924Y-036045D01*
G01X0002899Y-036070D01*
G01X0002899Y-036415D01*
G01X0002899Y-036455D01*
G01X0002914Y-036491D01*
G01X0002943Y-036520D01*
G01X0002980Y-036535D01*
G01X0003364Y-036535D01*
G01X0003389Y-036510D01*
G01X0003389Y-037064D01*
G01X0002519Y-037064D01*
G01X0002519Y-035483D01*
G01X0002364Y-035108D01*
G01X0002078Y-034821D01*
G01X0001703Y-034665D01*
G01X0001298Y-034665D01*
G01X0000923Y-034820D01*
G01X0000636Y-035106D01*
G01X0000480Y-035481D01*
G01X0000480Y-035886D01*
G01X0000635Y-036261D01*
G01X0000921Y-036548D01*
G01X0001296Y-036704D01*
G01X0001701Y-036704D01*
G01X0002076Y-036549D01*
G01X0002363Y-036263D01*
G01X0002519Y-035888D01*
G01X0002519Y-035483D01*
G01X0002519Y-037064D01*
G01X0001514Y-037064D01*
G01X0000974Y-036957D01*
G01X0000524Y-036658D01*
G01X0000226Y-036211D01*
G01X0000120Y-035673D01*
G01X0000120Y-029218D01*
G01X0010769Y-029218D01*
G01X0010722Y-029329D01*
G01X0010722Y-029539D01*
G01X0010802Y-029733D01*
G01X0010950Y-029881D01*
G01X0011093Y-029940D01*
G01X0011028Y-029940D01*
G01X0010876Y-029940D01*
G01X0010836Y-029940D01*
G01X0010799Y-029956D01*
G01X0010771Y-029984D01*
G01X0010755Y-030021D01*
G01X0010755Y-030213D01*
G01X0010781Y-030238D01*
G01X0011053Y-030238D01*
G01X0011053Y-030066D01*
G01X0011446Y-030066D01*
G01X0011446Y-030238D01*
G01X0011718Y-030238D01*
G01X0011744Y-030213D01*
G01X0011744Y-030021D01*
G01X0011728Y-029984D01*
G01X0011700Y-029956D01*
G01X0011663Y-029940D01*
G01X0011623Y-029940D01*
G01X0011471Y-029940D01*
G01X0011406Y-029940D01*
G01X0011548Y-029882D01*
G01X0011696Y-029734D01*
G01X0011777Y-029540D01*
G01X0011777Y-029330D01*
G01X0011730Y-029218D01*
G01X0013379Y-029218D01*
G01X0013379Y-035670D01*
G01X0013379Y-035670D01*
G37*
G54D22*
G01X0013379Y-035670D02*
G01X0013272Y-036210D01*
G01X0013272Y-036210D02*
G01X0013019Y-036591D01*
G01X0013019Y-036591D02*
G01X0013019Y-035483D01*
G01X0013019Y-035483D02*
G01X0012864Y-035108D01*
G01X0012864Y-035108D02*
G01X0012578Y-034821D01*
G01X0012578Y-034821D02*
G01X0012203Y-034665D01*
G01X0012203Y-034665D02*
G01X0011798Y-034665D01*
G01X0011798Y-034665D02*
G01X0011744Y-034687D01*
G01X0011744Y-034687D02*
G01X0011744Y-030848D01*
G01X0011744Y-030848D02*
G01X0011744Y-030656D01*
G01X0011744Y-030656D02*
G01X0011718Y-030631D01*
G01X0011718Y-030631D02*
G01X0011446Y-030631D01*
G01X0011446Y-030631D02*
G01X0011446Y-030903D01*
G01X0011446Y-030903D02*
G01X0011471Y-030929D01*
G01X0011471Y-030929D02*
G01X0011623Y-030929D01*
G01X0011623Y-030929D02*
G01X0011663Y-030929D01*
G01X0011663Y-030929D02*
G01X0011700Y-030913D01*
G01X0011700Y-030913D02*
G01X0011728Y-030885D01*
G01X0011728Y-030885D02*
G01X0011744Y-030848D01*
G01X0011744Y-030848D02*
G01X0011744Y-034687D01*
G01X0011744Y-034687D02*
G01X0011423Y-034820D01*
G01X0011423Y-034820D02*
G01X0011136Y-035106D01*
G01X0011136Y-035106D02*
G01X0011053Y-035307D01*
G01X0011053Y-035307D02*
G01X0011053Y-030903D01*
G01X0011053Y-030903D02*
G01X0011053Y-030631D01*
G01X0011053Y-030631D02*
G01X0010781Y-030631D01*
G01X0010781Y-030631D02*
G01X0010755Y-030656D01*
G01X0010755Y-030656D02*
G01X0010755Y-030848D01*
G01X0010755Y-030848D02*
G01X0010771Y-030885D01*
G01X0010771Y-030885D02*
G01X0010799Y-030913D01*
G01X0010799Y-030913D02*
G01X0010836Y-030929D01*
G01X0010836Y-030929D02*
G01X0010876Y-030929D01*
G01X0010876Y-030929D02*
G01X0011028Y-030929D01*
G01X0011028Y-030929D02*
G01X0011053Y-030903D01*
G01X0011053Y-030903D02*
G01X0011053Y-035307D01*
G01X0011053Y-035307D02*
G01X0010980Y-035481D01*
G01X0010980Y-035481D02*
G01X0010980Y-035886D01*
G01X0010980Y-035886D02*
G01X0011135Y-036261D01*
G01X0011135Y-036261D02*
G01X0011421Y-036548D01*
G01X0011421Y-036548D02*
G01X0011796Y-036704D01*
G01X0011796Y-036704D02*
G01X0012201Y-036704D01*
G01X0012201Y-036704D02*
G01X0012576Y-036549D01*
G01X0012576Y-036549D02*
G01X0012863Y-036263D01*
G01X0012863Y-036263D02*
G01X0013019Y-035888D01*
G01X0013019Y-035888D02*
G01X0013019Y-035483D01*
G01X0013019Y-035483D02*
G01X0013019Y-036591D01*
G01X0013019Y-036591D02*
G01X0012973Y-036660D01*
G01X0012973Y-036660D02*
G01X0012526Y-036958D01*
G01X0012526Y-036958D02*
G01X0011988Y-037064D01*
G01X0011988Y-037064D02*
G01X0010633Y-037064D01*
G01X0010633Y-037064D02*
G01X0010633Y-035510D01*
G01X0010633Y-035510D02*
G01X0010499Y-035185D01*
G01X0010499Y-035185D02*
G01X0010251Y-034936D01*
G01X0010251Y-034936D02*
G01X0009926Y-034801D01*
G01X0009926Y-034801D02*
G01X0009575Y-034801D01*
G01X0009575Y-034801D02*
G01X0009250Y-034935D01*
G01X0009250Y-034935D02*
G01X0009040Y-035144D01*
G01X0009040Y-035144D02*
G01X0009040Y-030877D01*
G01X0009040Y-030877D02*
G01X0008996Y-030770D01*
G01X0008996Y-030770D02*
G01X0008915Y-030688D01*
G01X0008915Y-030688D02*
G01X0008808Y-030644D01*
G01X0008808Y-030644D02*
G01X0008692Y-030644D01*
G01X0008692Y-030644D02*
G01X0008585Y-030688D01*
G01X0008585Y-030688D02*
G01X0008570Y-030703D01*
G01X0008570Y-030703D02*
G01X0008346Y-030703D01*
G01X0008346Y-030703D02*
G01X0007663Y-030021D01*
G01X0007663Y-030021D02*
G01X0007588Y-029970D01*
G01X0007588Y-029970D02*
G01X0007500Y-029953D01*
G01X0007500Y-029953D02*
G01X0007250Y-029953D01*
G01X0007250Y-029953D02*
G01X0004000Y-029953D01*
G01X0004000Y-029953D02*
G01X0003911Y-029970D01*
G01X0003911Y-029970D02*
G01X0003836Y-030021D01*
G01X0003836Y-030021D02*
G01X0003836Y-030021D01*
G01X0003836Y-030021D02*
G01X0003713Y-030144D01*
G01X0003713Y-030144D02*
G01X0003692Y-030144D01*
G01X0003692Y-030144D02*
G01X0003585Y-030188D01*
G01X0003585Y-030188D02*
G01X0003503Y-030269D01*
G01X0003503Y-030269D02*
G01X0003459Y-030376D01*
G01X0003459Y-030376D02*
G01X0003459Y-030492D01*
G01X0003459Y-030492D02*
G01X0003503Y-030599D01*
G01X0003503Y-030599D02*
G01X0003584Y-030681D01*
G01X0003584Y-030681D02*
G01X0003691Y-030725D01*
G01X0003691Y-030725D02*
G01X0003807Y-030725D01*
G01X0003807Y-030725D02*
G01X0003914Y-030681D01*
G01X0003914Y-030681D02*
G01X0003996Y-030600D01*
G01X0003996Y-030600D02*
G01X0004040Y-030493D01*
G01X0004040Y-030493D02*
G01X0004040Y-030472D01*
G01X0004040Y-030472D02*
G01X0004096Y-030416D01*
G01X0004096Y-030416D02*
G01X0006136Y-030416D01*
G01X0006136Y-030416D02*
G01X0006085Y-030438D01*
G01X0006085Y-030438D02*
G01X0006070Y-030453D01*
G01X0006070Y-030453D02*
G01X0004250Y-030453D01*
G01X0004250Y-030453D02*
G01X0004161Y-030470D01*
G01X0004161Y-030470D02*
G01X0004086Y-030521D01*
G01X0004086Y-030521D02*
G01X0003713Y-030894D01*
G01X0003713Y-030894D02*
G01X0003692Y-030894D01*
G01X0003692Y-030894D02*
G01X0003585Y-030938D01*
G01X0003585Y-030938D02*
G01X0003503Y-031019D01*
G01X0003503Y-031019D02*
G01X0003459Y-031126D01*
G01X0003459Y-031126D02*
G01X0003459Y-031242D01*
G01X0003459Y-031242D02*
G01X0003503Y-031349D01*
G01X0003503Y-031349D02*
G01X0003584Y-031431D01*
G01X0003584Y-031431D02*
G01X0003691Y-031475D01*
G01X0003691Y-031475D02*
G01X0003807Y-031475D01*
G01X0003807Y-031475D02*
G01X0003914Y-031431D01*
G01X0003914Y-031431D02*
G01X0003996Y-031350D01*
G01X0003996Y-031350D02*
G01X0004040Y-031243D01*
G01X0004040Y-031243D02*
G01X0004040Y-031222D01*
G01X0004040Y-031222D02*
G01X0004346Y-030916D01*
G01X0004346Y-030916D02*
G01X0006018Y-030916D01*
G01X0006018Y-030916D02*
G01X0006018Y-032755D01*
G01X0006018Y-032755D02*
G01X0006003Y-032769D01*
G01X0006003Y-032769D02*
G01X0005959Y-032876D01*
G01X0005959Y-032876D02*
G01X0005959Y-032992D01*
G01X0005959Y-032992D02*
G01X0006003Y-033099D01*
G01X0006003Y-033099D02*
G01X0006084Y-033181D01*
G01X0006084Y-033181D02*
G01X0006191Y-033225D01*
G01X0006191Y-033225D02*
G01X0006307Y-033225D01*
G01X0006307Y-033225D02*
G01X0006414Y-033181D01*
G01X0006414Y-033181D02*
G01X0006496Y-033100D01*
G01X0006496Y-033100D02*
G01X0006540Y-032993D01*
G01X0006540Y-032993D02*
G01X0006540Y-032877D01*
G01X0006540Y-032877D02*
G01X0006496Y-032770D01*
G01X0006496Y-032770D02*
G01X0006481Y-032755D01*
G01X0006481Y-032755D02*
G01X0006481Y-030864D01*
G01X0006481Y-030864D02*
G01X0006496Y-030850D01*
G01X0006496Y-030850D02*
G01X0006540Y-030743D01*
G01X0006540Y-030743D02*
G01X0006540Y-030627D01*
G01X0006540Y-030627D02*
G01X0006496Y-030520D01*
G01X0006496Y-030520D02*
G01X0006415Y-030438D01*
G01X0006415Y-030438D02*
G01X0006362Y-030416D01*
G01X0006362Y-030416D02*
G01X0007018Y-030416D01*
G01X0007018Y-030416D02*
G01X0007018Y-032755D01*
G01X0007018Y-032755D02*
G01X0007003Y-032769D01*
G01X0007003Y-032769D02*
G01X0006959Y-032876D01*
G01X0006959Y-032876D02*
G01X0006959Y-032992D01*
G01X0006959Y-032992D02*
G01X0007003Y-033099D01*
G01X0007003Y-033099D02*
G01X0007084Y-033181D01*
G01X0007084Y-033181D02*
G01X0007191Y-033225D01*
G01X0007191Y-033225D02*
G01X0007307Y-033225D01*
G01X0007307Y-033225D02*
G01X0007414Y-033181D01*
G01X0007414Y-033181D02*
G01X0007496Y-033100D01*
G01X0007496Y-033100D02*
G01X0007540Y-032993D01*
G01X0007540Y-032993D02*
G01X0007540Y-032877D01*
G01X0007540Y-032877D02*
G01X0007496Y-032770D01*
G01X0007496Y-032770D02*
G01X0007481Y-032755D01*
G01X0007481Y-032755D02*
G01X0007481Y-030494D01*
G01X0007481Y-030494D02*
G01X0008086Y-031098D01*
G01X0008086Y-031098D02*
G01X0008086Y-031098D01*
G01X0008086Y-031098D02*
G01X0008161Y-031149D01*
G01X0008161Y-031149D02*
G01X0008249Y-031166D01*
G01X0008249Y-031166D02*
G01X0008249Y-031166D01*
G01X0008249Y-031166D02*
G01X0008250Y-031166D01*
G01X0008250Y-031166D02*
G01X0008570Y-031166D01*
G01X0008570Y-031166D02*
G01X0008584Y-031181D01*
G01X0008584Y-031181D02*
G01X0008691Y-031225D01*
G01X0008691Y-031225D02*
G01X0008807Y-031225D01*
G01X0008807Y-031225D02*
G01X0008914Y-031181D01*
G01X0008914Y-031181D02*
G01X0008996Y-031100D01*
G01X0008996Y-031100D02*
G01X0009040Y-030993D01*
G01X0009040Y-030993D02*
G01X0009040Y-030877D01*
G01X0009040Y-030877D02*
G01X0009040Y-035144D01*
G01X0009040Y-035144D02*
G01X0009001Y-035183D01*
G01X0009001Y-035183D02*
G01X0008866Y-035508D01*
G01X0008866Y-035508D02*
G01X0008866Y-035859D01*
G01X0008866Y-035859D02*
G01X0009000Y-036184D01*
G01X0009000Y-036184D02*
G01X0009248Y-036433D01*
G01X0009248Y-036433D02*
G01X0009573Y-036568D01*
G01X0009573Y-036568D02*
G01X0009924Y-036568D01*
G01X0009924Y-036568D02*
G01X0010249Y-036434D01*
G01X0010249Y-036434D02*
G01X0010498Y-036186D01*
G01X0010498Y-036186D02*
G01X0010633Y-035861D01*
G01X0010633Y-035861D02*
G01X0010633Y-035510D01*
G01X0010633Y-035510D02*
G01X0010633Y-037064D01*
G01X0010633Y-037064D02*
G01X0008633Y-037064D01*
G01X0008633Y-037064D02*
G01X0008633Y-035510D01*
G01X0008633Y-035510D02*
G01X0008499Y-035185D01*
G01X0008499Y-035185D02*
G01X0008251Y-034936D01*
G01X0008251Y-034936D02*
G01X0007926Y-034801D01*
G01X0007926Y-034801D02*
G01X0007575Y-034801D01*
G01X0007575Y-034801D02*
G01X0007250Y-034935D01*
G01X0007250Y-034935D02*
G01X0007001Y-035183D01*
G01X0007001Y-035183D02*
G01X0006866Y-035508D01*
G01X0006866Y-035508D02*
G01X0006866Y-035859D01*
G01X0006866Y-035859D02*
G01X0007000Y-036184D01*
G01X0007000Y-036184D02*
G01X0007248Y-036433D01*
G01X0007248Y-036433D02*
G01X0007573Y-036568D01*
G01X0007573Y-036568D02*
G01X0007924Y-036568D01*
G01X0007924Y-036568D02*
G01X0008249Y-036434D01*
G01X0008249Y-036434D02*
G01X0008498Y-036186D01*
G01X0008498Y-036186D02*
G01X0008633Y-035861D01*
G01X0008633Y-035861D02*
G01X0008633Y-035510D01*
G01X0008633Y-035510D02*
G01X0008633Y-037064D01*
G01X0008633Y-037064D02*
G01X0006633Y-037064D01*
G01X0006633Y-037064D02*
G01X0006633Y-035510D01*
G01X0006633Y-035510D02*
G01X0006499Y-035185D01*
G01X0006499Y-035185D02*
G01X0006251Y-034936D01*
G01X0006251Y-034936D02*
G01X0005926Y-034801D01*
G01X0005926Y-034801D02*
G01X0005575Y-034801D01*
G01X0005575Y-034801D02*
G01X0005250Y-034935D01*
G01X0005250Y-034935D02*
G01X0005001Y-035183D01*
G01X0005001Y-035183D02*
G01X0004866Y-035508D01*
G01X0004866Y-035508D02*
G01X0004866Y-035859D01*
G01X0004866Y-035859D02*
G01X0005000Y-036184D01*
G01X0005000Y-036184D02*
G01X0005248Y-036433D01*
G01X0005248Y-036433D02*
G01X0005573Y-036568D01*
G01X0005573Y-036568D02*
G01X0005924Y-036568D01*
G01X0005924Y-036568D02*
G01X0006249Y-036434D01*
G01X0006249Y-036434D02*
G01X0006498Y-036186D01*
G01X0006498Y-036186D02*
G01X0006633Y-035861D01*
G01X0006633Y-035861D02*
G01X0006633Y-035510D01*
G01X0006633Y-035510D02*
G01X0006633Y-037064D01*
G01X0006633Y-037064D02*
G01X0004600Y-037064D01*
G01X0004600Y-037064D02*
G01X0004600Y-036415D01*
G01X0004600Y-036415D02*
G01X0004600Y-034954D01*
G01X0004600Y-034954D02*
G01X0004600Y-034914D01*
G01X0004600Y-034914D02*
G01X0004585Y-034878D01*
G01X0004585Y-034878D02*
G01X0004556Y-034849D01*
G01X0004556Y-034849D02*
G01X0004519Y-034834D01*
G01X0004519Y-034834D02*
G01X0004135Y-034834D01*
G01X0004135Y-034834D02*
G01X0004110Y-034859D01*
G01X0004110Y-034859D02*
G01X0004110Y-035324D01*
G01X0004110Y-035324D02*
G01X0004575Y-035324D01*
G01X0004575Y-035324D02*
G01X0004600Y-035299D01*
G01X0004600Y-035299D02*
G01X0004600Y-034954D01*
G01X0004600Y-034954D02*
G01X0004600Y-036415D01*
G01X0004600Y-036415D02*
G01X0004600Y-036070D01*
G01X0004600Y-036070D02*
G01X0004575Y-036045D01*
G01X0004575Y-036045D02*
G01X0004110Y-036045D01*
G01X0004110Y-036045D02*
G01X0004110Y-036510D01*
G01X0004110Y-036510D02*
G01X0004135Y-036535D01*
G01X0004135Y-036535D02*
G01X0004519Y-036535D01*
G01X0004519Y-036535D02*
G01X0004556Y-036520D01*
G01X0004556Y-036520D02*
G01X0004585Y-036491D01*
G01X0004585Y-036491D02*
G01X0004600Y-036455D01*
G01X0004600Y-036455D02*
G01X0004600Y-036415D01*
G01X0004600Y-036415D02*
G01X0004600Y-037064D01*
G01X0004600Y-037064D02*
G01X0003389Y-037064D01*
G01X0003389Y-037064D02*
G01X0003389Y-036510D01*
G01X0003389Y-036510D02*
G01X0003389Y-036045D01*
G01X0003389Y-036045D02*
G01X0003389Y-035324D01*
G01X0003389Y-035324D02*
G01X0003389Y-034859D01*
G01X0003389Y-034859D02*
G01X0003364Y-034834D01*
G01X0003364Y-034834D02*
G01X0002980Y-034834D01*
G01X0002980Y-034834D02*
G01X0002943Y-034849D01*
G01X0002943Y-034849D02*
G01X0002914Y-034878D01*
G01X0002914Y-034878D02*
G01X0002899Y-034914D01*
G01X0002899Y-034914D02*
G01X0002899Y-034954D01*
G01X0002899Y-034954D02*
G01X0002899Y-035299D01*
G01X0002899Y-035299D02*
G01X0002924Y-035324D01*
G01X0002924Y-035324D02*
G01X0003389Y-035324D01*
G01X0003389Y-035324D02*
G01X0003389Y-036045D01*
G01X0003389Y-036045D02*
G01X0002924Y-036045D01*
G01X0002924Y-036045D02*
G01X0002899Y-036070D01*
G01X0002899Y-036070D02*
G01X0002899Y-036415D01*
G01X0002899Y-036415D02*
G01X0002899Y-036455D01*
G01X0002899Y-036455D02*
G01X0002914Y-036491D01*
G01X0002914Y-036491D02*
G01X0002943Y-036520D01*
G01X0002943Y-036520D02*
G01X0002980Y-036535D01*
G01X0002980Y-036535D02*
G01X0003364Y-036535D01*
G01X0003364Y-036535D02*
G01X0003389Y-036510D01*
G01X0003389Y-036510D02*
G01X0003389Y-037064D01*
G01X0003389Y-037064D02*
G01X0002519Y-037064D01*
G01X0002519Y-037064D02*
G01X0002519Y-035483D01*
G01X0002519Y-035483D02*
G01X0002364Y-035108D01*
G01X0002364Y-035108D02*
G01X0002078Y-034821D01*
G01X0002078Y-034821D02*
G01X0001703Y-034665D01*
G01X0001703Y-034665D02*
G01X0001298Y-034665D01*
G01X0001298Y-034665D02*
G01X0000923Y-034820D01*
G01X0000923Y-034820D02*
G01X0000636Y-035106D01*
G01X0000636Y-035106D02*
G01X0000480Y-035481D01*
G01X0000480Y-035481D02*
G01X0000480Y-035886D01*
G01X0000480Y-035886D02*
G01X0000635Y-036261D01*
G01X0000635Y-036261D02*
G01X0000921Y-036548D01*
G01X0000921Y-036548D02*
G01X0001296Y-036704D01*
G01X0001296Y-036704D02*
G01X0001701Y-036704D01*
G01X0001701Y-036704D02*
G01X0002076Y-036549D01*
G01X0002076Y-036549D02*
G01X0002363Y-036263D01*
G01X0002363Y-036263D02*
G01X0002519Y-035888D01*
G01X0002519Y-035888D02*
G01X0002519Y-035483D01*
G01X0002519Y-035483D02*
G01X0002519Y-037064D01*
G01X0002519Y-037064D02*
G01X0001514Y-037064D01*
G01X0001514Y-037064D02*
G01X0000974Y-036957D01*
G01X0000974Y-036957D02*
G01X0000524Y-036658D01*
G01X0000524Y-036658D02*
G01X0000226Y-036211D01*
G01X0000226Y-036211D02*
G01X0000120Y-035673D01*
G01X0000120Y-035673D02*
G01X0000120Y-029218D01*
G01X0000120Y-029218D02*
G01X0010769Y-029218D01*
G01X0010769Y-029218D02*
G01X0010722Y-029329D01*
G01X0010722Y-029329D02*
G01X0010722Y-029539D01*
G01X0010722Y-029539D02*
G01X0010802Y-029733D01*
G01X0010802Y-029733D02*
G01X0010950Y-029881D01*
G01X0010950Y-029881D02*
G01X0011093Y-029940D01*
G01X0011093Y-029940D02*
G01X0011028Y-029940D01*
G01X0011028Y-029940D02*
G01X0010876Y-029940D01*
G01X0010876Y-029940D02*
G01X0010836Y-029940D01*
G01X0010836Y-029940D02*
G01X0010799Y-029956D01*
G01X0010799Y-029956D02*
G01X0010771Y-029984D01*
G01X0010771Y-029984D02*
G01X0010755Y-030021D01*
G01X0010755Y-030021D02*
G01X0010755Y-030213D01*
G01X0010755Y-030213D02*
G01X0010781Y-030238D01*
G01X0010781Y-030238D02*
G01X0011053Y-030238D01*
G01X0011053Y-030238D02*
G01X0011053Y-030066D01*
G01X0011053Y-030066D02*
G01X0011446Y-030066D01*
G01X0011446Y-030066D02*
G01X0011446Y-030238D01*
G01X0011446Y-030238D02*
G01X0011718Y-030238D01*
G01X0011718Y-030238D02*
G01X0011744Y-030213D01*
G01X0011744Y-030213D02*
G01X0011744Y-030021D01*
G01X0011744Y-030021D02*
G01X0011728Y-029984D01*
G01X0011728Y-029984D02*
G01X0011700Y-029956D01*
G01X0011700Y-029956D02*
G01X0011663Y-029940D01*
G01X0011663Y-029940D02*
G01X0011623Y-029940D01*
G01X0011623Y-029940D02*
G01X0011471Y-029940D01*
G01X0011471Y-029940D02*
G01X0011406Y-029940D01*
G01X0011406Y-029940D02*
G01X0011548Y-029882D01*
G01X0011548Y-029882D02*
G01X0011696Y-029734D01*
G01X0011696Y-029734D02*
G01X0011777Y-029540D01*
G01X0011777Y-029540D02*
G01X0011777Y-029330D01*
G01X0011777Y-029330D02*
G01X0011730Y-029218D01*
G01X0011730Y-029218D02*
G01X0013379Y-029218D01*
G01X0013379Y-029218D02*
G01X0013379Y-035670D01*
G01X0015748Y0000000D02*
G54D23*
G01X0024998Y-001500D03*
G54D24*
G01X0025998Y-001500D03*
G01X0026998Y-001500D03*
G54D13*
G01X0028998Y-012750D03*
G01X0028998Y-010750D03*
G54D14*
G01X0028998Y-014750D03*
G54D13*
G01X0028998Y-008750D03*
G54D15*
G01X0019998Y-018000D03*
G54D16*
G01X0021998Y-018000D03*
G54D15*
G01X0021998Y-001500D03*
G54D16*
G01X0019998Y-001500D03*
G54D23*
G01X0024998Y-018000D03*
G54D24*
G01X0025998Y-018000D03*
G01X0026998Y-018000D03*
G54D17*
G01X0028998Y-001500D03*
G54D25*
G01X0028998Y-018000D03*
G01X0017248Y-018000D03*
G01X0017248Y-001500D03*
G54D26*
G01X0019498Y-016000D03*
G01X0023748Y-005250D03*
G01X0021248Y-012500D03*
G01X0024248Y-003250D03*
G01X0021748Y-012750D03*
G01X0024498Y-003750D03*
G01X0023248Y-012750D03*
G01X0025248Y-012750D03*
G01X0023748Y-014500D03*
G01X0025248Y-014500D03*
G01X0022748Y-011500D03*
G01X0025248Y-011500D03*
G54D21*
G01X0022248Y-013500D02*
G01X0022248Y-006750D01*
G01X0019498Y-016000D02*
G01X0020998Y-016000D01*
G01X0020998Y-016000D02*
G01X0022248Y-014750D01*
G01X0022248Y-014750D02*
G01X0022248Y-013500D01*
G01X0022248Y-006750D02*
G01X0023748Y-005250D01*
G01X0021248Y-006500D02*
G01X0021248Y-006250D01*
G01X0021248Y-012500D02*
G01X0021248Y-006500D01*
G01X0021248Y-006250D02*
G01X0024248Y-003250D01*
G01X0024498Y-003750D02*
G01X0021748Y-006500D01*
G01X0021748Y-006500D02*
G01X0021748Y-007250D01*
G01X0021748Y-012750D02*
G01X0021748Y-008250D01*
G01X0021748Y-008250D02*
G01X0021748Y-007250D01*
G01X0023248Y-012750D02*
G01X0025248Y-012750D01*
G01X0025248Y-014500D02*
G01X0023748Y-014500D01*
G01X0025248Y-011500D02*
G01X0022748Y-011500D01*
G54D10*
G36*
G01X0030377Y-017994D02*
G01X0030351Y-018267D01*
G01X0030273Y-018525D01*
G01X0030146Y-018763D01*
G01X0029987Y-018959D01*
G01X0029987Y-001560D01*
G01X0029980Y-001366D01*
G01X0029956Y-001248D01*
G01X0029886Y-001121D01*
G01X0029507Y-001500D01*
G01X0029886Y-001878D01*
G01X0029956Y-001751D01*
G01X0029987Y-001560D01*
G01X0029987Y-018959D01*
G01X0029976Y-018971D01*
G01X0029902Y-019033D01*
G01X0029902Y-018021D01*
G01X0029889Y-017845D01*
G01X0029881Y-017805D01*
G01X0029881Y-015487D01*
G01X0029881Y-014529D01*
G01X0029881Y-012663D01*
G01X0029881Y-010663D01*
G01X0029881Y-008663D01*
G01X0029847Y-008493D01*
G01X0029781Y-008333D01*
G01X0029685Y-008188D01*
G01X0029563Y-008065D01*
G01X0029420Y-007969D01*
G01X0029376Y-007950D01*
G01X0029376Y-002388D01*
G01X0029376Y-000611D01*
G01X0029249Y-000541D01*
G01X0029058Y-000510D01*
G01X0028864Y-000517D01*
G01X0028746Y-000541D01*
G01X0028619Y-000611D01*
G01X0028998Y-000990D01*
G01X0029376Y-000611D01*
G01X0029376Y-002388D01*
G01X0028998Y-002009D01*
G01X0028619Y-002388D01*
G01X0028746Y-002458D01*
G01X0028937Y-002489D01*
G01X0029131Y-002482D01*
G01X0029249Y-002458D01*
G01X0029376Y-002388D01*
G01X0029376Y-007950D01*
G01X0029260Y-007901D01*
G01X0029090Y-007867D01*
G01X0028917Y-007865D01*
G01X0028747Y-007898D01*
G01X0028586Y-007963D01*
G01X0028488Y-008027D01*
G01X0028488Y-001500D01*
G01X0028109Y-001121D01*
G01X0028039Y-001248D01*
G01X0028008Y-001439D01*
G01X0028015Y-001633D01*
G01X0028039Y-001751D01*
G01X0028109Y-001878D01*
G01X0028488Y-001500D01*
G01X0028488Y-008027D01*
G01X0028441Y-008058D01*
G01X0028317Y-008179D01*
G01X0028220Y-008322D01*
G01X0028151Y-008481D01*
G01X0028115Y-008651D01*
G01X0028113Y-008824D01*
G01X0028144Y-008994D01*
G01X0028208Y-009155D01*
G01X0028302Y-009301D01*
G01X0028422Y-009426D01*
G01X0028564Y-009524D01*
G01X0028723Y-009594D01*
G01X0028892Y-009631D01*
G01X0029066Y-009635D01*
G01X0029236Y-009605D01*
G01X0029398Y-009542D01*
G01X0029544Y-009449D01*
G01X0029670Y-009330D01*
G01X0029769Y-009188D01*
G01X0029840Y-009030D01*
G01X0029878Y-008861D01*
G01X0029881Y-008663D01*
G01X0029881Y-010663D01*
G01X0029847Y-010493D01*
G01X0029781Y-010333D01*
G01X0029685Y-010188D01*
G01X0029563Y-010065D01*
G01X0029420Y-009969D01*
G01X0029260Y-009901D01*
G01X0029090Y-009867D01*
G01X0028917Y-009865D01*
G01X0028747Y-009898D01*
G01X0028586Y-009963D01*
G01X0028441Y-010058D01*
G01X0028317Y-010179D01*
G01X0028220Y-010322D01*
G01X0028151Y-010481D01*
G01X0028115Y-010651D01*
G01X0028113Y-010824D01*
G01X0028144Y-010994D01*
G01X0028208Y-011155D01*
G01X0028302Y-011301D01*
G01X0028422Y-011426D01*
G01X0028564Y-011524D01*
G01X0028723Y-011594D01*
G01X0028892Y-011631D01*
G01X0029066Y-011635D01*
G01X0029236Y-011605D01*
G01X0029398Y-011542D01*
G01X0029544Y-011449D01*
G01X0029670Y-011330D01*
G01X0029769Y-011188D01*
G01X0029840Y-011030D01*
G01X0029878Y-010861D01*
G01X0029881Y-010663D01*
G01X0029881Y-012663D01*
G01X0029847Y-012493D01*
G01X0029781Y-012333D01*
G01X0029685Y-012188D01*
G01X0029563Y-012065D01*
G01X0029420Y-011969D01*
G01X0029260Y-011901D01*
G01X0029090Y-011867D01*
G01X0028917Y-011865D01*
G01X0028747Y-011898D01*
G01X0028586Y-011963D01*
G01X0028441Y-012058D01*
G01X0028317Y-012179D01*
G01X0028220Y-012322D01*
G01X0028151Y-012481D01*
G01X0028115Y-012651D01*
G01X0028113Y-012824D01*
G01X0028144Y-012994D01*
G01X0028208Y-013155D01*
G01X0028302Y-013301D01*
G01X0028422Y-013426D01*
G01X0028564Y-013524D01*
G01X0028723Y-013594D01*
G01X0028892Y-013631D01*
G01X0029066Y-013635D01*
G01X0029236Y-013605D01*
G01X0029398Y-013542D01*
G01X0029544Y-013449D01*
G01X0029670Y-013330D01*
G01X0029769Y-013188D01*
G01X0029840Y-013030D01*
G01X0029878Y-012861D01*
G01X0029881Y-012663D01*
G01X0029881Y-014529D01*
G01X0029881Y-013986D01*
G01X0029876Y-013961D01*
G01X0029866Y-013937D01*
G01X0029851Y-013915D01*
G01X0029833Y-013896D01*
G01X0029811Y-013882D01*
G01X0029787Y-013871D01*
G01X0029762Y-013866D01*
G01X0029735Y-013866D01*
G01X0028234Y-013866D01*
G01X0028209Y-013871D01*
G01X0028185Y-013881D01*
G01X0028163Y-013896D01*
G01X0028144Y-013914D01*
G01X0028130Y-013936D01*
G01X0028119Y-013960D01*
G01X0028114Y-013985D01*
G01X0028114Y-014012D01*
G01X0028114Y-015513D01*
G01X0028119Y-015538D01*
G01X0028129Y-015562D01*
G01X0028144Y-015584D01*
G01X0028162Y-015603D01*
G01X0028184Y-015617D01*
G01X0028208Y-015628D01*
G01X0028233Y-015633D01*
G01X0028260Y-015633D01*
G01X0029761Y-015633D01*
G01X0029786Y-015628D01*
G01X0029810Y-015618D01*
G01X0029832Y-015603D01*
G01X0029851Y-015585D01*
G01X0029865Y-015563D01*
G01X0029876Y-015539D01*
G01X0029881Y-015514D01*
G01X0029881Y-015487D01*
G01X0029881Y-017805D01*
G01X0029881Y-017803D01*
G01X0029820Y-017687D01*
G01X0029507Y-018000D01*
G01X0029820Y-018312D01*
G01X0029881Y-018196D01*
G01X0029902Y-018021D01*
G01X0029902Y-019033D01*
G01X0029769Y-019143D01*
G01X0029532Y-019271D01*
G01X0029310Y-019340D01*
G01X0029310Y-018822D01*
G01X0029310Y-017177D01*
G01X0029194Y-017116D01*
G01X0029019Y-017095D01*
G01X0028843Y-017108D01*
G01X0028801Y-017116D01*
G01X0028685Y-017177D01*
G01X0028998Y-017490D01*
G01X0029310Y-017177D01*
G01X0029310Y-018822D01*
G01X0028998Y-018509D01*
G01X0028685Y-018822D01*
G01X0028801Y-018883D01*
G01X0028976Y-018904D01*
G01X0029152Y-018891D01*
G01X0029194Y-018883D01*
G01X0029310Y-018822D01*
G01X0029310Y-019340D01*
G01X0029275Y-019351D01*
G01X0029001Y-019379D01*
G01X0028997Y-019379D01*
G01X0028488Y-019379D01*
G01X0028488Y-018000D01*
G01X0028175Y-017687D01*
G01X0028114Y-017803D01*
G01X0028093Y-017978D01*
G01X0028106Y-018154D01*
G01X0028114Y-018196D01*
G01X0028175Y-018312D01*
G01X0028488Y-018000D01*
G01X0028488Y-019379D01*
G01X0027374Y-019379D01*
G01X0027374Y-018022D01*
G01X0027374Y-001522D01*
G01X0027371Y-001448D01*
G01X0027362Y-001404D01*
G01X0027324Y-001368D01*
G01X0027192Y-001500D01*
G01X0027324Y-001631D01*
G01X0027362Y-001595D01*
G01X0027374Y-001522D01*
G01X0027374Y-018022D01*
G01X0027371Y-017948D01*
G01X0027362Y-017904D01*
G01X0027324Y-017868D01*
G01X0027192Y-018000D01*
G01X0027324Y-018131D01*
G01X0027362Y-018095D01*
G01X0027374Y-018022D01*
G01X0027374Y-019379D01*
G01X0027129Y-019379D01*
G01X0027129Y-018326D01*
G01X0027129Y-017673D01*
G01X0027129Y-001826D01*
G01X0027129Y-001173D01*
G01X0027093Y-001135D01*
G01X0027020Y-001123D01*
G01X0026946Y-001126D01*
G01X0026902Y-001135D01*
G01X0026866Y-001173D01*
G01X0026998Y-001305D01*
G01X0027129Y-001173D01*
G01X0027129Y-001826D01*
G01X0026998Y-001694D01*
G01X0026866Y-001826D01*
G01X0026902Y-001864D01*
G01X0026975Y-001876D01*
G01X0027049Y-001873D01*
G01X0027093Y-001864D01*
G01X0027129Y-001826D01*
G01X0027129Y-017673D01*
G01X0027093Y-017635D01*
G01X0027020Y-017623D01*
G01X0026946Y-017626D01*
G01X0026902Y-017635D01*
G01X0026866Y-017673D01*
G01X0026998Y-017805D01*
G01X0027129Y-017673D01*
G01X0027129Y-018326D01*
G01X0026998Y-018194D01*
G01X0026866Y-018326D01*
G01X0026902Y-018364D01*
G01X0026975Y-018376D01*
G01X0027049Y-018373D01*
G01X0027093Y-018364D01*
G01X0027129Y-018326D01*
G01X0027129Y-019379D01*
G01X0026803Y-019379D01*
G01X0026803Y-018000D01*
G01X0026803Y-001500D01*
G01X0026671Y-001368D01*
G01X0026633Y-001404D01*
G01X0026621Y-001477D01*
G01X0026624Y-001551D01*
G01X0026633Y-001595D01*
G01X0026671Y-001631D01*
G01X0026803Y-001500D01*
G01X0026803Y-018000D01*
G01X0026671Y-017868D01*
G01X0026633Y-017904D01*
G01X0026621Y-017977D01*
G01X0026624Y-018051D01*
G01X0026633Y-018095D01*
G01X0026671Y-018131D01*
G01X0026803Y-018000D01*
G01X0026803Y-019379D01*
G01X0026406Y-019379D01*
G01X0026406Y-017959D01*
G01X0026406Y-001459D01*
G01X0026390Y-001381D01*
G01X0026360Y-001307D01*
G01X0026316Y-001240D01*
G01X0026259Y-001183D01*
G01X0026193Y-001138D01*
G01X0026119Y-001107D01*
G01X0026040Y-001091D01*
G01X0025960Y-001091D01*
G01X0025882Y-001106D01*
G01X0025807Y-001136D01*
G01X0025740Y-001180D01*
G01X0025683Y-001236D01*
G01X0025638Y-001302D01*
G01X0025606Y-001375D01*
G01X0025590Y-001454D01*
G01X0025588Y-001534D01*
G01X0025603Y-001613D01*
G01X0025632Y-001687D01*
G01X0025676Y-001754D01*
G01X0025731Y-001812D01*
G01X0025797Y-001858D01*
G01X0025871Y-001890D01*
G01X0025949Y-001907D01*
G01X0026029Y-001909D01*
G01X0026108Y-001895D01*
G01X0026183Y-001866D01*
G01X0026250Y-001823D01*
G01X0026308Y-001768D01*
G01X0026354Y-001702D01*
G01X0026387Y-001629D01*
G01X0026405Y-001551D01*
G01X0026406Y-001459D01*
G01X0026406Y-017959D01*
G01X0026390Y-017881D01*
G01X0026360Y-017807D01*
G01X0026316Y-017740D01*
G01X0026259Y-017683D01*
G01X0026193Y-017638D01*
G01X0026119Y-017607D01*
G01X0026040Y-017591D01*
G01X0025960Y-017591D01*
G01X0025882Y-017606D01*
G01X0025807Y-017636D01*
G01X0025740Y-017680D01*
G01X0025683Y-017736D01*
G01X0025638Y-017802D01*
G01X0025606Y-017875D01*
G01X0025590Y-017954D01*
G01X0025588Y-018034D01*
G01X0025603Y-018113D01*
G01X0025632Y-018187D01*
G01X0025676Y-018254D01*
G01X0025731Y-018312D01*
G01X0025797Y-018358D01*
G01X0025871Y-018390D01*
G01X0025949Y-018407D01*
G01X0026029Y-018409D01*
G01X0026108Y-018395D01*
G01X0026183Y-018366D01*
G01X0026250Y-018323D01*
G01X0026308Y-018268D01*
G01X0026354Y-018202D01*
G01X0026387Y-018129D01*
G01X0026405Y-018051D01*
G01X0026406Y-017959D01*
G01X0026406Y-019379D01*
G01X0025556Y-019379D01*
G01X0025556Y-014469D01*
G01X0025556Y-012719D01*
G01X0025544Y-012660D01*
G01X0025521Y-012604D01*
G01X0025488Y-012554D01*
G01X0025445Y-012511D01*
G01X0025395Y-012477D01*
G01X0025339Y-012453D01*
G01X0025280Y-012441D01*
G01X0025219Y-012441D01*
G01X0025160Y-012452D01*
G01X0025104Y-012475D01*
G01X0025053Y-012508D01*
G01X0025043Y-012518D01*
G01X0023452Y-012518D01*
G01X0023445Y-012511D01*
G01X0023395Y-012477D01*
G01X0023339Y-012453D01*
G01X0023280Y-012441D01*
G01X0023219Y-012441D01*
G01X0023160Y-012452D01*
G01X0023104Y-012475D01*
G01X0023053Y-012508D01*
G01X0023010Y-012550D01*
G01X0022976Y-012600D01*
G01X0022952Y-012656D01*
G01X0022939Y-012715D01*
G01X0022939Y-012775D01*
G01X0022950Y-012835D01*
G01X0022972Y-012891D01*
G01X0023005Y-012942D01*
G01X0023047Y-012986D01*
G01X0023096Y-013020D01*
G01X0023152Y-013044D01*
G01X0023211Y-013057D01*
G01X0023271Y-013059D01*
G01X0023331Y-013048D01*
G01X0023387Y-013026D01*
G01X0023438Y-012994D01*
G01X0023451Y-012981D01*
G01X0025043Y-012981D01*
G01X0025047Y-012986D01*
G01X0025096Y-013020D01*
G01X0025152Y-013044D01*
G01X0025211Y-013057D01*
G01X0025271Y-013059D01*
G01X0025331Y-013048D01*
G01X0025387Y-013026D01*
G01X0025438Y-012994D01*
G01X0025482Y-012952D01*
G01X0025517Y-012903D01*
G01X0025542Y-012847D01*
G01X0025555Y-012788D01*
G01X0025556Y-012719D01*
G01X0025556Y-014469D01*
G01X0025544Y-014410D01*
G01X0025521Y-014354D01*
G01X0025488Y-014304D01*
G01X0025445Y-014261D01*
G01X0025395Y-014227D01*
G01X0025339Y-014203D01*
G01X0025280Y-014191D01*
G01X0025219Y-014191D01*
G01X0025160Y-014202D01*
G01X0025104Y-014225D01*
G01X0025053Y-014258D01*
G01X0025043Y-014268D01*
G01X0023952Y-014268D01*
G01X0023945Y-014261D01*
G01X0023895Y-014227D01*
G01X0023839Y-014203D01*
G01X0023780Y-014191D01*
G01X0023719Y-014191D01*
G01X0023660Y-014202D01*
G01X0023604Y-014225D01*
G01X0023553Y-014258D01*
G01X0023510Y-014300D01*
G01X0023476Y-014350D01*
G01X0023452Y-014406D01*
G01X0023439Y-014465D01*
G01X0023439Y-014525D01*
G01X0023450Y-014585D01*
G01X0023472Y-014641D01*
G01X0023505Y-014692D01*
G01X0023547Y-014736D01*
G01X0023596Y-014770D01*
G01X0023652Y-014794D01*
G01X0023711Y-014807D01*
G01X0023771Y-014809D01*
G01X0023831Y-014798D01*
G01X0023887Y-014776D01*
G01X0023938Y-014744D01*
G01X0023951Y-014731D01*
G01X0025043Y-014731D01*
G01X0025047Y-014736D01*
G01X0025096Y-014770D01*
G01X0025152Y-014794D01*
G01X0025211Y-014807D01*
G01X0025271Y-014809D01*
G01X0025331Y-014798D01*
G01X0025387Y-014776D01*
G01X0025438Y-014744D01*
G01X0025482Y-014702D01*
G01X0025517Y-014653D01*
G01X0025542Y-014597D01*
G01X0025555Y-014538D01*
G01X0025556Y-014469D01*
G01X0025556Y-019379D01*
G01X0025406Y-019379D01*
G01X0025406Y-018262D01*
G01X0025406Y-017711D01*
G01X0025401Y-017686D01*
G01X0025391Y-017662D01*
G01X0025376Y-017640D01*
G01X0025358Y-017621D01*
G01X0025336Y-017607D01*
G01X0025312Y-017596D01*
G01X0025287Y-017591D01*
G01X0025260Y-017591D01*
G01X0024709Y-017591D01*
G01X0024684Y-017596D01*
G01X0024660Y-017606D01*
G01X0024638Y-017621D01*
G01X0024619Y-017639D01*
G01X0024605Y-017661D01*
G01X0024594Y-017685D01*
G01X0024589Y-017710D01*
G01X0024589Y-017737D01*
G01X0024589Y-018288D01*
G01X0024594Y-018313D01*
G01X0024604Y-018337D01*
G01X0024619Y-018359D01*
G01X0024637Y-018378D01*
G01X0024659Y-018392D01*
G01X0024683Y-018403D01*
G01X0024708Y-018408D01*
G01X0024735Y-018408D01*
G01X0025286Y-018408D01*
G01X0025311Y-018403D01*
G01X0025335Y-018393D01*
G01X0025357Y-018378D01*
G01X0025376Y-018360D01*
G01X0025390Y-018338D01*
G01X0025401Y-018314D01*
G01X0025406Y-018289D01*
G01X0025406Y-018262D01*
G01X0025406Y-019379D01*
G01X0022601Y-019379D01*
G01X0022601Y-018003D01*
G01X0022590Y-017886D01*
G01X0022589Y-017879D01*
G01X0022543Y-017808D01*
G01X0022351Y-018000D01*
G01X0022543Y-018191D01*
G01X0022589Y-018120D01*
G01X0022601Y-018003D01*
G01X0022601Y-019379D01*
G01X0022189Y-019379D01*
G01X0022189Y-018545D01*
G01X0022189Y-017454D01*
G01X0022118Y-017408D01*
G01X0022001Y-017396D01*
G01X0021884Y-017407D01*
G01X0021877Y-017408D01*
G01X0021806Y-017454D01*
G01X0021998Y-017646D01*
G01X0022189Y-017454D01*
G01X0022189Y-018545D01*
G01X0021998Y-018353D01*
G01X0021806Y-018545D01*
G01X0021877Y-018591D01*
G01X0021994Y-018603D01*
G01X0022111Y-018592D01*
G01X0022118Y-018591D01*
G01X0022189Y-018545D01*
G01X0022189Y-019379D01*
G01X0021644Y-019379D01*
G01X0021644Y-018000D01*
G01X0021452Y-017808D01*
G01X0021406Y-017879D01*
G01X0021394Y-017996D01*
G01X0021405Y-018113D01*
G01X0021406Y-018120D01*
G01X0021452Y-018191D01*
G01X0021644Y-018000D01*
G01X0021644Y-019379D01*
G01X0021281Y-019379D01*
G01X0021281Y-016044D01*
G01X0022411Y-014913D01*
G01X0022425Y-014897D01*
G01X0022439Y-014881D01*
G01X0022439Y-014879D01*
G01X0022440Y-014878D01*
G01X0022450Y-014860D01*
G01X0022461Y-014841D01*
G01X0022461Y-014840D01*
G01X0022462Y-014839D01*
G01X0022468Y-014818D01*
G01X0022474Y-014798D01*
G01X0022474Y-014797D01*
G01X0022475Y-014795D01*
G01X0022477Y-014774D01*
G01X0022479Y-014753D01*
G01X0022479Y-014750D01*
G01X0022479Y-014750D01*
G01X0022479Y-014750D01*
G01X0022479Y-014750D01*
G01X0022479Y-013500D01*
G01X0022479Y-011653D01*
G01X0022505Y-011692D01*
G01X0022547Y-011736D01*
G01X0022596Y-011770D01*
G01X0022652Y-011794D01*
G01X0022711Y-011807D01*
G01X0022771Y-011809D01*
G01X0022831Y-011798D01*
G01X0022887Y-011776D01*
G01X0022938Y-011744D01*
G01X0022951Y-011731D01*
G01X0025043Y-011731D01*
G01X0025047Y-011736D01*
G01X0025096Y-011770D01*
G01X0025152Y-011794D01*
G01X0025211Y-011807D01*
G01X0025271Y-011809D01*
G01X0025331Y-011798D01*
G01X0025387Y-011776D01*
G01X0025438Y-011744D01*
G01X0025482Y-011702D01*
G01X0025517Y-011653D01*
G01X0025542Y-011597D01*
G01X0025555Y-011538D01*
G01X0025556Y-011469D01*
G01X0025544Y-011410D01*
G01X0025521Y-011354D01*
G01X0025488Y-011304D01*
G01X0025445Y-011261D01*
G01X0025406Y-011234D01*
G01X0025406Y-001762D01*
G01X0025406Y-001211D01*
G01X0025401Y-001186D01*
G01X0025391Y-001162D01*
G01X0025376Y-001140D01*
G01X0025358Y-001121D01*
G01X0025336Y-001107D01*
G01X0025312Y-001096D01*
G01X0025287Y-001091D01*
G01X0025260Y-001091D01*
G01X0024709Y-001091D01*
G01X0024684Y-001096D01*
G01X0024660Y-001106D01*
G01X0024638Y-001121D01*
G01X0024619Y-001139D01*
G01X0024605Y-001161D01*
G01X0024594Y-001185D01*
G01X0024589Y-001210D01*
G01X0024589Y-001237D01*
G01X0024589Y-001788D01*
G01X0024594Y-001813D01*
G01X0024604Y-001837D01*
G01X0024619Y-001859D01*
G01X0024637Y-001878D01*
G01X0024659Y-001892D01*
G01X0024683Y-001903D01*
G01X0024708Y-001908D01*
G01X0024735Y-001908D01*
G01X0025286Y-001908D01*
G01X0025311Y-001903D01*
G01X0025335Y-001893D01*
G01X0025357Y-001878D01*
G01X0025376Y-001860D01*
G01X0025390Y-001838D01*
G01X0025401Y-001814D01*
G01X0025406Y-001789D01*
G01X0025406Y-001762D01*
G01X0025406Y-011234D01*
G01X0025395Y-011227D01*
G01X0025339Y-011203D01*
G01X0025280Y-011191D01*
G01X0025219Y-011191D01*
G01X0025160Y-011202D01*
G01X0025104Y-011225D01*
G01X0025053Y-011258D01*
G01X0025043Y-011268D01*
G01X0022952Y-011268D01*
G01X0022945Y-011261D01*
G01X0022895Y-011227D01*
G01X0022839Y-011203D01*
G01X0022780Y-011191D01*
G01X0022719Y-011191D01*
G01X0022660Y-011202D01*
G01X0022604Y-011225D01*
G01X0022553Y-011258D01*
G01X0022510Y-011300D01*
G01X0022479Y-011345D01*
G01X0022479Y-006846D01*
G01X0023766Y-005558D01*
G01X0023771Y-005559D01*
G01X0023831Y-005548D01*
G01X0023887Y-005526D01*
G01X0023938Y-005494D01*
G01X0023982Y-005452D01*
G01X0024017Y-005403D01*
G01X0024042Y-005347D01*
G01X0024055Y-005288D01*
G01X0024056Y-005219D01*
G01X0024044Y-005160D01*
G01X0024021Y-005104D01*
G01X0023988Y-005054D01*
G01X0023945Y-005011D01*
G01X0023895Y-004977D01*
G01X0023839Y-004953D01*
G01X0023780Y-004941D01*
G01X0023719Y-004941D01*
G01X0023660Y-004952D01*
G01X0023604Y-004975D01*
G01X0023593Y-004982D01*
G01X0024516Y-004058D01*
G01X0024521Y-004059D01*
G01X0024581Y-004048D01*
G01X0024637Y-004026D01*
G01X0024688Y-003994D01*
G01X0024732Y-003952D01*
G01X0024767Y-003903D01*
G01X0024792Y-003847D01*
G01X0024805Y-003788D01*
G01X0024806Y-003719D01*
G01X0024794Y-003660D01*
G01X0024771Y-003604D01*
G01X0024738Y-003554D01*
G01X0024695Y-003511D01*
G01X0024645Y-003477D01*
G01X0024589Y-003453D01*
G01X0024530Y-003441D01*
G01X0024490Y-003441D01*
G01X0024517Y-003403D01*
G01X0024542Y-003347D01*
G01X0024555Y-003288D01*
G01X0024556Y-003219D01*
G01X0024544Y-003160D01*
G01X0024521Y-003104D01*
G01X0024488Y-003054D01*
G01X0024445Y-003011D01*
G01X0024395Y-002977D01*
G01X0024339Y-002953D01*
G01X0024280Y-002941D01*
G01X0024219Y-002941D01*
G01X0024160Y-002952D01*
G01X0024104Y-002975D01*
G01X0024053Y-003008D01*
G01X0024010Y-003050D01*
G01X0023976Y-003100D01*
G01X0023952Y-003156D01*
G01X0023939Y-003215D01*
G01X0023939Y-003230D01*
G01X0022598Y-004571D01*
G01X0022598Y-001990D01*
G01X0022598Y-001009D01*
G01X0022598Y-000989D01*
G01X0022594Y-000970D01*
G01X0022586Y-000952D01*
G01X0022575Y-000935D01*
G01X0022561Y-000921D01*
G01X0022545Y-000910D01*
G01X0022527Y-000903D01*
G01X0022507Y-000899D01*
G01X0022273Y-000899D01*
G01X0022248Y-000924D01*
G01X0022248Y-001250D01*
G01X0022573Y-001250D01*
G01X0022598Y-001224D01*
G01X0022598Y-001009D01*
G01X0022598Y-001990D01*
G01X0022598Y-001775D01*
G01X0022573Y-001750D01*
G01X0022248Y-001750D01*
G01X0022248Y-002075D01*
G01X0022273Y-002100D01*
G01X0022507Y-002100D01*
G01X0022527Y-002096D01*
G01X0022545Y-002089D01*
G01X0022561Y-002078D01*
G01X0022575Y-002064D01*
G01X0022586Y-002047D01*
G01X0022594Y-002029D01*
G01X0022598Y-002010D01*
G01X0022598Y-001990D01*
G01X0022598Y-004571D01*
G01X0021748Y-005422D01*
G01X0021748Y-002075D01*
G01X0021748Y-001750D01*
G01X0021748Y-001250D01*
G01X0021748Y-000924D01*
G01X0021722Y-000899D01*
G01X0021488Y-000899D01*
G01X0021468Y-000903D01*
G01X0021450Y-000910D01*
G01X0021434Y-000921D01*
G01X0021420Y-000935D01*
G01X0021409Y-000952D01*
G01X0021401Y-000970D01*
G01X0021397Y-000989D01*
G01X0021397Y-001009D01*
G01X0021397Y-001224D01*
G01X0021422Y-001250D01*
G01X0021748Y-001250D01*
G01X0021748Y-001750D01*
G01X0021422Y-001750D01*
G01X0021397Y-001775D01*
G01X0021397Y-001990D01*
G01X0021397Y-002010D01*
G01X0021401Y-002029D01*
G01X0021409Y-002047D01*
G01X0021420Y-002064D01*
G01X0021434Y-002078D01*
G01X0021450Y-002089D01*
G01X0021468Y-002096D01*
G01X0021488Y-002100D01*
G01X0021722Y-002100D01*
G01X0021748Y-002075D01*
G01X0021748Y-005422D01*
G01X0021281Y-005888D01*
G01X0021281Y-000120D01*
G01X0028992Y-000120D01*
G01X0029265Y-000146D01*
G01X0029523Y-000224D01*
G01X0029761Y-000351D01*
G01X0029969Y-000521D01*
G01X0030141Y-000728D01*
G01X0030269Y-000965D01*
G01X0030349Y-001222D01*
G01X0030377Y-001496D01*
G01X0030377Y-001500D01*
G01X0030377Y-017994D01*
G01X0030377Y-017994D01*
G37*
G54D22*
G01X0030377Y-017994D02*
G01X0030351Y-018267D01*
G01X0030351Y-018267D02*
G01X0030273Y-018525D01*
G01X0030273Y-018525D02*
G01X0030146Y-018763D01*
G01X0030146Y-018763D02*
G01X0029987Y-018959D01*
G01X0029987Y-018959D02*
G01X0029987Y-001560D01*
G01X0029987Y-001560D02*
G01X0029980Y-001366D01*
G01X0029980Y-001366D02*
G01X0029956Y-001248D01*
G01X0029956Y-001248D02*
G01X0029886Y-001121D01*
G01X0029886Y-001121D02*
G01X0029507Y-001500D01*
G01X0029507Y-001500D02*
G01X0029886Y-001878D01*
G01X0029886Y-001878D02*
G01X0029956Y-001751D01*
G01X0029956Y-001751D02*
G01X0029987Y-001560D01*
G01X0029987Y-001560D02*
G01X0029987Y-018959D01*
G01X0029987Y-018959D02*
G01X0029976Y-018971D01*
G01X0029976Y-018971D02*
G01X0029902Y-019033D01*
G01X0029902Y-019033D02*
G01X0029902Y-018021D01*
G01X0029902Y-018021D02*
G01X0029889Y-017845D01*
G01X0029889Y-017845D02*
G01X0029881Y-017805D01*
G01X0029881Y-017805D02*
G01X0029881Y-015487D01*
G01X0029881Y-015487D02*
G01X0029881Y-014529D01*
G01X0029881Y-014529D02*
G01X0029881Y-012663D01*
G01X0029881Y-012663D02*
G01X0029881Y-010663D01*
G01X0029881Y-010663D02*
G01X0029881Y-008663D01*
G01X0029881Y-008663D02*
G01X0029847Y-008493D01*
G01X0029847Y-008493D02*
G01X0029781Y-008333D01*
G01X0029781Y-008333D02*
G01X0029685Y-008188D01*
G01X0029685Y-008188D02*
G01X0029563Y-008065D01*
G01X0029563Y-008065D02*
G01X0029420Y-007969D01*
G01X0029420Y-007969D02*
G01X0029376Y-007950D01*
G01X0029376Y-007950D02*
G01X0029376Y-002388D01*
G01X0029376Y-002388D02*
G01X0029376Y-000611D01*
G01X0029376Y-000611D02*
G01X0029249Y-000541D01*
G01X0029249Y-000541D02*
G01X0029058Y-000510D01*
G01X0029058Y-000510D02*
G01X0028864Y-000517D01*
G01X0028864Y-000517D02*
G01X0028746Y-000541D01*
G01X0028746Y-000541D02*
G01X0028619Y-000611D01*
G01X0028619Y-000611D02*
G01X0028998Y-000990D01*
G01X0028998Y-000990D02*
G01X0029376Y-000611D01*
G01X0029376Y-000611D02*
G01X0029376Y-002388D01*
G01X0029376Y-002388D02*
G01X0028998Y-002009D01*
G01X0028998Y-002009D02*
G01X0028619Y-002388D01*
G01X0028619Y-002388D02*
G01X0028746Y-002458D01*
G01X0028746Y-002458D02*
G01X0028937Y-002489D01*
G01X0028937Y-002489D02*
G01X0029131Y-002482D01*
G01X0029131Y-002482D02*
G01X0029249Y-002458D01*
G01X0029249Y-002458D02*
G01X0029376Y-002388D01*
G01X0029376Y-002388D02*
G01X0029376Y-007950D01*
G01X0029376Y-007950D02*
G01X0029260Y-007901D01*
G01X0029260Y-007901D02*
G01X0029090Y-007867D01*
G01X0029090Y-007867D02*
G01X0028917Y-007865D01*
G01X0028917Y-007865D02*
G01X0028747Y-007898D01*
G01X0028747Y-007898D02*
G01X0028586Y-007963D01*
G01X0028586Y-007963D02*
G01X0028488Y-008027D01*
G01X0028488Y-008027D02*
G01X0028488Y-001500D01*
G01X0028488Y-001500D02*
G01X0028109Y-001121D01*
G01X0028109Y-001121D02*
G01X0028039Y-001248D01*
G01X0028039Y-001248D02*
G01X0028008Y-001439D01*
G01X0028008Y-001439D02*
G01X0028015Y-001633D01*
G01X0028015Y-001633D02*
G01X0028039Y-001751D01*
G01X0028039Y-001751D02*
G01X0028109Y-001878D01*
G01X0028109Y-001878D02*
G01X0028488Y-001500D01*
G01X0028488Y-001500D02*
G01X0028488Y-008027D01*
G01X0028488Y-008027D02*
G01X0028441Y-008058D01*
G01X0028441Y-008058D02*
G01X0028317Y-008179D01*
G01X0028317Y-008179D02*
G01X0028220Y-008322D01*
G01X0028220Y-008322D02*
G01X0028151Y-008481D01*
G01X0028151Y-008481D02*
G01X0028115Y-008651D01*
G01X0028115Y-008651D02*
G01X0028113Y-008824D01*
G01X0028113Y-008824D02*
G01X0028144Y-008994D01*
G01X0028144Y-008994D02*
G01X0028208Y-009155D01*
G01X0028208Y-009155D02*
G01X0028302Y-009301D01*
G01X0028302Y-009301D02*
G01X0028422Y-009426D01*
G01X0028422Y-009426D02*
G01X0028564Y-009524D01*
G01X0028564Y-009524D02*
G01X0028723Y-009594D01*
G01X0028723Y-009594D02*
G01X0028892Y-009631D01*
G01X0028892Y-009631D02*
G01X0029066Y-009635D01*
G01X0029066Y-009635D02*
G01X0029236Y-009605D01*
G01X0029236Y-009605D02*
G01X0029398Y-009542D01*
G01X0029398Y-009542D02*
G01X0029544Y-009449D01*
G01X0029544Y-009449D02*
G01X0029670Y-009330D01*
G01X0029670Y-009330D02*
G01X0029769Y-009188D01*
G01X0029769Y-009188D02*
G01X0029840Y-009030D01*
G01X0029840Y-009030D02*
G01X0029878Y-008861D01*
G01X0029878Y-008861D02*
G01X0029881Y-008663D01*
G01X0029881Y-008663D02*
G01X0029881Y-010663D01*
G01X0029881Y-010663D02*
G01X0029847Y-010493D01*
G01X0029847Y-010493D02*
G01X0029781Y-010333D01*
G01X0029781Y-010333D02*
G01X0029685Y-010188D01*
G01X0029685Y-010188D02*
G01X0029563Y-010065D01*
G01X0029563Y-010065D02*
G01X0029420Y-009969D01*
G01X0029420Y-009969D02*
G01X0029260Y-009901D01*
G01X0029260Y-009901D02*
G01X0029090Y-009867D01*
G01X0029090Y-009867D02*
G01X0028917Y-009865D01*
G01X0028917Y-009865D02*
G01X0028747Y-009898D01*
G01X0028747Y-009898D02*
G01X0028586Y-009963D01*
G01X0028586Y-009963D02*
G01X0028441Y-010058D01*
G01X0028441Y-010058D02*
G01X0028317Y-010179D01*
G01X0028317Y-010179D02*
G01X0028220Y-010322D01*
G01X0028220Y-010322D02*
G01X0028151Y-010481D01*
G01X0028151Y-010481D02*
G01X0028115Y-010651D01*
G01X0028115Y-010651D02*
G01X0028113Y-010824D01*
G01X0028113Y-010824D02*
G01X0028144Y-010994D01*
G01X0028144Y-010994D02*
G01X0028208Y-011155D01*
G01X0028208Y-011155D02*
G01X0028302Y-011301D01*
G01X0028302Y-011301D02*
G01X0028422Y-011426D01*
G01X0028422Y-011426D02*
G01X0028564Y-011524D01*
G01X0028564Y-011524D02*
G01X0028723Y-011594D01*
G01X0028723Y-011594D02*
G01X0028892Y-011631D01*
G01X0028892Y-011631D02*
G01X0029066Y-011635D01*
G01X0029066Y-011635D02*
G01X0029236Y-011605D01*
G01X0029236Y-011605D02*
G01X0029398Y-011542D01*
G01X0029398Y-011542D02*
G01X0029544Y-011449D01*
G01X0029544Y-011449D02*
G01X0029670Y-011330D01*
G01X0029670Y-011330D02*
G01X0029769Y-011188D01*
G01X0029769Y-011188D02*
G01X0029840Y-011030D01*
G01X0029840Y-011030D02*
G01X0029878Y-010861D01*
G01X0029878Y-010861D02*
G01X0029881Y-010663D01*
G01X0029881Y-010663D02*
G01X0029881Y-012663D01*
G01X0029881Y-012663D02*
G01X0029847Y-012493D01*
G01X0029847Y-012493D02*
G01X0029781Y-012333D01*
G01X0029781Y-012333D02*
G01X0029685Y-012188D01*
G01X0029685Y-012188D02*
G01X0029563Y-012065D01*
G01X0029563Y-012065D02*
G01X0029420Y-011969D01*
G01X0029420Y-011969D02*
G01X0029260Y-011901D01*
G01X0029260Y-011901D02*
G01X0029090Y-011867D01*
G01X0029090Y-011867D02*
G01X0028917Y-011865D01*
G01X0028917Y-011865D02*
G01X0028747Y-011898D01*
G01X0028747Y-011898D02*
G01X0028586Y-011963D01*
G01X0028586Y-011963D02*
G01X0028441Y-012058D01*
G01X0028441Y-012058D02*
G01X0028317Y-012179D01*
G01X0028317Y-012179D02*
G01X0028220Y-012322D01*
G01X0028220Y-012322D02*
G01X0028151Y-012481D01*
G01X0028151Y-012481D02*
G01X0028115Y-012651D01*
G01X0028115Y-012651D02*
G01X0028113Y-012824D01*
G01X0028113Y-012824D02*
G01X0028144Y-012994D01*
G01X0028144Y-012994D02*
G01X0028208Y-013155D01*
G01X0028208Y-013155D02*
G01X0028302Y-013301D01*
G01X0028302Y-013301D02*
G01X0028422Y-013426D01*
G01X0028422Y-013426D02*
G01X0028564Y-013524D01*
G01X0028564Y-013524D02*
G01X0028723Y-013594D01*
G01X0028723Y-013594D02*
G01X0028892Y-013631D01*
G01X0028892Y-013631D02*
G01X0029066Y-013635D01*
G01X0029066Y-013635D02*
G01X0029236Y-013605D01*
G01X0029236Y-013605D02*
G01X0029398Y-013542D01*
G01X0029398Y-013542D02*
G01X0029544Y-013449D01*
G01X0029544Y-013449D02*
G01X0029670Y-013330D01*
G01X0029670Y-013330D02*
G01X0029769Y-013188D01*
G01X0029769Y-013188D02*
G01X0029840Y-013030D01*
G01X0029840Y-013030D02*
G01X0029878Y-012861D01*
G01X0029878Y-012861D02*
G01X0029881Y-012663D01*
G01X0029881Y-012663D02*
G01X0029881Y-014529D01*
G01X0029881Y-014529D02*
G01X0029881Y-013986D01*
G01X0029881Y-013986D02*
G01X0029876Y-013961D01*
G01X0029876Y-013961D02*
G01X0029866Y-013937D01*
G01X0029866Y-013937D02*
G01X0029851Y-013915D01*
G01X0029851Y-013915D02*
G01X0029833Y-013896D01*
G01X0029833Y-013896D02*
G01X0029811Y-013882D01*
G01X0029811Y-013882D02*
G01X0029787Y-013871D01*
G01X0029787Y-013871D02*
G01X0029762Y-013866D01*
G01X0029762Y-013866D02*
G01X0029735Y-013866D01*
G01X0029735Y-013866D02*
G01X0028234Y-013866D01*
G01X0028234Y-013866D02*
G01X0028209Y-013871D01*
G01X0028209Y-013871D02*
G01X0028185Y-013881D01*
G01X0028185Y-013881D02*
G01X0028163Y-013896D01*
G01X0028163Y-013896D02*
G01X0028144Y-013914D01*
G01X0028144Y-013914D02*
G01X0028130Y-013936D01*
G01X0028130Y-013936D02*
G01X0028119Y-013960D01*
G01X0028119Y-013960D02*
G01X0028114Y-013985D01*
G01X0028114Y-013985D02*
G01X0028114Y-014012D01*
G01X0028114Y-014012D02*
G01X0028114Y-015513D01*
G01X0028114Y-015513D02*
G01X0028119Y-015538D01*
G01X0028119Y-015538D02*
G01X0028129Y-015562D01*
G01X0028129Y-015562D02*
G01X0028144Y-015584D01*
G01X0028144Y-015584D02*
G01X0028162Y-015603D01*
G01X0028162Y-015603D02*
G01X0028184Y-015617D01*
G01X0028184Y-015617D02*
G01X0028208Y-015628D01*
G01X0028208Y-015628D02*
G01X0028233Y-015633D01*
G01X0028233Y-015633D02*
G01X0028260Y-015633D01*
G01X0028260Y-015633D02*
G01X0029761Y-015633D01*
G01X0029761Y-015633D02*
G01X0029786Y-015628D01*
G01X0029786Y-015628D02*
G01X0029810Y-015618D01*
G01X0029810Y-015618D02*
G01X0029832Y-015603D01*
G01X0029832Y-015603D02*
G01X0029851Y-015585D01*
G01X0029851Y-015585D02*
G01X0029865Y-015563D01*
G01X0029865Y-015563D02*
G01X0029876Y-015539D01*
G01X0029876Y-015539D02*
G01X0029881Y-015514D01*
G01X0029881Y-015514D02*
G01X0029881Y-015487D01*
G01X0029881Y-015487D02*
G01X0029881Y-017805D01*
G01X0029881Y-017805D02*
G01X0029881Y-017803D01*
G01X0029881Y-017803D02*
G01X0029820Y-017687D01*
G01X0029820Y-017687D02*
G01X0029507Y-018000D01*
G01X0029507Y-018000D02*
G01X0029820Y-018312D01*
G01X0029820Y-018312D02*
G01X0029881Y-018196D01*
G01X0029881Y-018196D02*
G01X0029902Y-018021D01*
G01X0029902Y-018021D02*
G01X0029902Y-019033D01*
G01X0029902Y-019033D02*
G01X0029769Y-019143D01*
G01X0029769Y-019143D02*
G01X0029532Y-019271D01*
G01X0029532Y-019271D02*
G01X0029310Y-019340D01*
G01X0029310Y-019340D02*
G01X0029310Y-018822D01*
G01X0029310Y-018822D02*
G01X0029310Y-017177D01*
G01X0029310Y-017177D02*
G01X0029194Y-017116D01*
G01X0029194Y-017116D02*
G01X0029019Y-017095D01*
G01X0029019Y-017095D02*
G01X0028843Y-017108D01*
G01X0028843Y-017108D02*
G01X0028801Y-017116D01*
G01X0028801Y-017116D02*
G01X0028685Y-017177D01*
G01X0028685Y-017177D02*
G01X0028998Y-017490D01*
G01X0028998Y-017490D02*
G01X0029310Y-017177D01*
G01X0029310Y-017177D02*
G01X0029310Y-018822D01*
G01X0029310Y-018822D02*
G01X0028998Y-018509D01*
G01X0028998Y-018509D02*
G01X0028685Y-018822D01*
G01X0028685Y-018822D02*
G01X0028801Y-018883D01*
G01X0028801Y-018883D02*
G01X0028976Y-018904D01*
G01X0028976Y-018904D02*
G01X0029152Y-018891D01*
G01X0029152Y-018891D02*
G01X0029194Y-018883D01*
G01X0029194Y-018883D02*
G01X0029310Y-018822D01*
G01X0029310Y-018822D02*
G01X0029310Y-019340D01*
G01X0029310Y-019340D02*
G01X0029275Y-019351D01*
G01X0029275Y-019351D02*
G01X0029001Y-019379D01*
G01X0029001Y-019379D02*
G01X0028997Y-019379D01*
G01X0028997Y-019379D02*
G01X0028488Y-019379D01*
G01X0028488Y-019379D02*
G01X0028488Y-018000D01*
G01X0028488Y-018000D02*
G01X0028175Y-017687D01*
G01X0028175Y-017687D02*
G01X0028114Y-017803D01*
G01X0028114Y-017803D02*
G01X0028093Y-017978D01*
G01X0028093Y-017978D02*
G01X0028106Y-018154D01*
G01X0028106Y-018154D02*
G01X0028114Y-018196D01*
G01X0028114Y-018196D02*
G01X0028175Y-018312D01*
G01X0028175Y-018312D02*
G01X0028488Y-018000D01*
G01X0028488Y-018000D02*
G01X0028488Y-019379D01*
G01X0028488Y-019379D02*
G01X0027374Y-019379D01*
G01X0027374Y-019379D02*
G01X0027374Y-018022D01*
G01X0027374Y-018022D02*
G01X0027374Y-001522D01*
G01X0027374Y-001522D02*
G01X0027371Y-001448D01*
G01X0027371Y-001448D02*
G01X0027362Y-001404D01*
G01X0027362Y-001404D02*
G01X0027324Y-001368D01*
G01X0027324Y-001368D02*
G01X0027192Y-001500D01*
G01X0027192Y-001500D02*
G01X0027324Y-001631D01*
G01X0027324Y-001631D02*
G01X0027362Y-001595D01*
G01X0027362Y-001595D02*
G01X0027374Y-001522D01*
G01X0027374Y-001522D02*
G01X0027374Y-018022D01*
G01X0027374Y-018022D02*
G01X0027371Y-017948D01*
G01X0027371Y-017948D02*
G01X0027362Y-017904D01*
G01X0027362Y-017904D02*
G01X0027324Y-017868D01*
G01X0027324Y-017868D02*
G01X0027192Y-018000D01*
G01X0027192Y-018000D02*
G01X0027324Y-018131D01*
G01X0027324Y-018131D02*
G01X0027362Y-018095D01*
G01X0027362Y-018095D02*
G01X0027374Y-018022D01*
G01X0027374Y-018022D02*
G01X0027374Y-019379D01*
G01X0027374Y-019379D02*
G01X0027129Y-019379D01*
G01X0027129Y-019379D02*
G01X0027129Y-018326D01*
G01X0027129Y-018326D02*
G01X0027129Y-017673D01*
G01X0027129Y-017673D02*
G01X0027129Y-001826D01*
G01X0027129Y-001826D02*
G01X0027129Y-001173D01*
G01X0027129Y-001173D02*
G01X0027093Y-001135D01*
G01X0027093Y-001135D02*
G01X0027020Y-001123D01*
G01X0027020Y-001123D02*
G01X0026946Y-001126D01*
G01X0026946Y-001126D02*
G01X0026902Y-001135D01*
G01X0026902Y-001135D02*
G01X0026866Y-001173D01*
G01X0026866Y-001173D02*
G01X0026998Y-001305D01*
G01X0026998Y-001305D02*
G01X0027129Y-001173D01*
G01X0027129Y-001173D02*
G01X0027129Y-001826D01*
G01X0027129Y-001826D02*
G01X0026998Y-001694D01*
G01X0026998Y-001694D02*
G01X0026866Y-001826D01*
G01X0026866Y-001826D02*
G01X0026902Y-001864D01*
G01X0026902Y-001864D02*
G01X0026975Y-001876D01*
G01X0026975Y-001876D02*
G01X0027049Y-001873D01*
G01X0027049Y-001873D02*
G01X0027093Y-001864D01*
G01X0027093Y-001864D02*
G01X0027129Y-001826D01*
G01X0027129Y-001826D02*
G01X0027129Y-017673D01*
G01X0027129Y-017673D02*
G01X0027093Y-017635D01*
G01X0027093Y-017635D02*
G01X0027020Y-017623D01*
G01X0027020Y-017623D02*
G01X0026946Y-017626D01*
G01X0026946Y-017626D02*
G01X0026902Y-017635D01*
G01X0026902Y-017635D02*
G01X0026866Y-017673D01*
G01X0026866Y-017673D02*
G01X0026998Y-017805D01*
G01X0026998Y-017805D02*
G01X0027129Y-017673D01*
G01X0027129Y-017673D02*
G01X0027129Y-018326D01*
G01X0027129Y-018326D02*
G01X0026998Y-018194D01*
G01X0026998Y-018194D02*
G01X0026866Y-018326D01*
G01X0026866Y-018326D02*
G01X0026902Y-018364D01*
G01X0026902Y-018364D02*
G01X0026975Y-018376D01*
G01X0026975Y-018376D02*
G01X0027049Y-018373D01*
G01X0027049Y-018373D02*
G01X0027093Y-018364D01*
G01X0027093Y-018364D02*
G01X0027129Y-018326D01*
G01X0027129Y-018326D02*
G01X0027129Y-019379D01*
G01X0027129Y-019379D02*
G01X0026803Y-019379D01*
G01X0026803Y-019379D02*
G01X0026803Y-018000D01*
G01X0026803Y-018000D02*
G01X0026803Y-001500D01*
G01X0026803Y-001500D02*
G01X0026671Y-001368D01*
G01X0026671Y-001368D02*
G01X0026633Y-001404D01*
G01X0026633Y-001404D02*
G01X0026621Y-001477D01*
G01X0026621Y-001477D02*
G01X0026624Y-001551D01*
G01X0026624Y-001551D02*
G01X0026633Y-001595D01*
G01X0026633Y-001595D02*
G01X0026671Y-001631D01*
G01X0026671Y-001631D02*
G01X0026803Y-001500D01*
G01X0026803Y-001500D02*
G01X0026803Y-018000D01*
G01X0026803Y-018000D02*
G01X0026671Y-017868D01*
G01X0026671Y-017868D02*
G01X0026633Y-017904D01*
G01X0026633Y-017904D02*
G01X0026621Y-017977D01*
G01X0026621Y-017977D02*
G01X0026624Y-018051D01*
G01X0026624Y-018051D02*
G01X0026633Y-018095D01*
G01X0026633Y-018095D02*
G01X0026671Y-018131D01*
G01X0026671Y-018131D02*
G01X0026803Y-018000D01*
G01X0026803Y-018000D02*
G01X0026803Y-019379D01*
G01X0026803Y-019379D02*
G01X0026406Y-019379D01*
G01X0026406Y-019379D02*
G01X0026406Y-017959D01*
G01X0026406Y-017959D02*
G01X0026406Y-001459D01*
G01X0026406Y-001459D02*
G01X0026390Y-001381D01*
G01X0026390Y-001381D02*
G01X0026360Y-001307D01*
G01X0026360Y-001307D02*
G01X0026316Y-001240D01*
G01X0026316Y-001240D02*
G01X0026259Y-001183D01*
G01X0026259Y-001183D02*
G01X0026193Y-001138D01*
G01X0026193Y-001138D02*
G01X0026119Y-001107D01*
G01X0026119Y-001107D02*
G01X0026040Y-001091D01*
G01X0026040Y-001091D02*
G01X0025960Y-001091D01*
G01X0025960Y-001091D02*
G01X0025882Y-001106D01*
G01X0025882Y-001106D02*
G01X0025807Y-001136D01*
G01X0025807Y-001136D02*
G01X0025740Y-001180D01*
G01X0025740Y-001180D02*
G01X0025683Y-001236D01*
G01X0025683Y-001236D02*
G01X0025638Y-001302D01*
G01X0025638Y-001302D02*
G01X0025606Y-001375D01*
G01X0025606Y-001375D02*
G01X0025590Y-001454D01*
G01X0025590Y-001454D02*
G01X0025588Y-001534D01*
G01X0025588Y-001534D02*
G01X0025603Y-001613D01*
G01X0025603Y-001613D02*
G01X0025632Y-001687D01*
G01X0025632Y-001687D02*
G01X0025676Y-001754D01*
G01X0025676Y-001754D02*
G01X0025731Y-001812D01*
G01X0025731Y-001812D02*
G01X0025797Y-001858D01*
G01X0025797Y-001858D02*
G01X0025871Y-001890D01*
G01X0025871Y-001890D02*
G01X0025949Y-001907D01*
G01X0025949Y-001907D02*
G01X0026029Y-001909D01*
G01X0026029Y-001909D02*
G01X0026108Y-001895D01*
G01X0026108Y-001895D02*
G01X0026183Y-001866D01*
G01X0026183Y-001866D02*
G01X0026250Y-001823D01*
G01X0026250Y-001823D02*
G01X0026308Y-001768D01*
G01X0026308Y-001768D02*
G01X0026354Y-001702D01*
G01X0026354Y-001702D02*
G01X0026387Y-001629D01*
G01X0026387Y-001629D02*
G01X0026405Y-001551D01*
G01X0026405Y-001551D02*
G01X0026406Y-001459D01*
G01X0026406Y-001459D02*
G01X0026406Y-017959D01*
G01X0026406Y-017959D02*
G01X0026390Y-017881D01*
G01X0026390Y-017881D02*
G01X0026360Y-017807D01*
G01X0026360Y-017807D02*
G01X0026316Y-017740D01*
G01X0026316Y-017740D02*
G01X0026259Y-017683D01*
G01X0026259Y-017683D02*
G01X0026193Y-017638D01*
G01X0026193Y-017638D02*
G01X0026119Y-017607D01*
G01X0026119Y-017607D02*
G01X0026040Y-017591D01*
G01X0026040Y-017591D02*
G01X0025960Y-017591D01*
G01X0025960Y-017591D02*
G01X0025882Y-017606D01*
G01X0025882Y-017606D02*
G01X0025807Y-017636D01*
G01X0025807Y-017636D02*
G01X0025740Y-017680D01*
G01X0025740Y-017680D02*
G01X0025683Y-017736D01*
G01X0025683Y-017736D02*
G01X0025638Y-017802D01*
G01X0025638Y-017802D02*
G01X0025606Y-017875D01*
G01X0025606Y-017875D02*
G01X0025590Y-017954D01*
G01X0025590Y-017954D02*
G01X0025588Y-018034D01*
G01X0025588Y-018034D02*
G01X0025603Y-018113D01*
G01X0025603Y-018113D02*
G01X0025632Y-018187D01*
G01X0025632Y-018187D02*
G01X0025676Y-018254D01*
G01X0025676Y-018254D02*
G01X0025731Y-018312D01*
G01X0025731Y-018312D02*
G01X0025797Y-018358D01*
G01X0025797Y-018358D02*
G01X0025871Y-018390D01*
G01X0025871Y-018390D02*
G01X0025949Y-018407D01*
G01X0025949Y-018407D02*
G01X0026029Y-018409D01*
G01X0026029Y-018409D02*
G01X0026108Y-018395D01*
G01X0026108Y-018395D02*
G01X0026183Y-018366D01*
G01X0026183Y-018366D02*
G01X0026250Y-018323D01*
G01X0026250Y-018323D02*
G01X0026308Y-018268D01*
G01X0026308Y-018268D02*
G01X0026354Y-018202D01*
G01X0026354Y-018202D02*
G01X0026387Y-018129D01*
G01X0026387Y-018129D02*
G01X0026405Y-018051D01*
G01X0026405Y-018051D02*
G01X0026406Y-017959D01*
G01X0026406Y-017959D02*
G01X0026406Y-019379D01*
G01X0026406Y-019379D02*
G01X0025556Y-019379D01*
G01X0025556Y-019379D02*
G01X0025556Y-014469D01*
G01X0025556Y-014469D02*
G01X0025556Y-012719D01*
G01X0025556Y-012719D02*
G01X0025544Y-012660D01*
G01X0025544Y-012660D02*
G01X0025521Y-012604D01*
G01X0025521Y-012604D02*
G01X0025488Y-012554D01*
G01X0025488Y-012554D02*
G01X0025445Y-012511D01*
G01X0025445Y-012511D02*
G01X0025395Y-012477D01*
G01X0025395Y-012477D02*
G01X0025339Y-012453D01*
G01X0025339Y-012453D02*
G01X0025280Y-012441D01*
G01X0025280Y-012441D02*
G01X0025219Y-012441D01*
G01X0025219Y-012441D02*
G01X0025160Y-012452D01*
G01X0025160Y-012452D02*
G01X0025104Y-012475D01*
G01X0025104Y-012475D02*
G01X0025053Y-012508D01*
G01X0025053Y-012508D02*
G01X0025043Y-012518D01*
G01X0025043Y-012518D02*
G01X0023452Y-012518D01*
G01X0023452Y-012518D02*
G01X0023445Y-012511D01*
G01X0023445Y-012511D02*
G01X0023395Y-012477D01*
G01X0023395Y-012477D02*
G01X0023339Y-012453D01*
G01X0023339Y-012453D02*
G01X0023280Y-012441D01*
G01X0023280Y-012441D02*
G01X0023219Y-012441D01*
G01X0023219Y-012441D02*
G01X0023160Y-012452D01*
G01X0023160Y-012452D02*
G01X0023104Y-012475D01*
G01X0023104Y-012475D02*
G01X0023053Y-012508D01*
G01X0023053Y-012508D02*
G01X0023010Y-012550D01*
G01X0023010Y-012550D02*
G01X0022976Y-012600D01*
G01X0022976Y-012600D02*
G01X0022952Y-012656D01*
G01X0022952Y-012656D02*
G01X0022939Y-012715D01*
G01X0022939Y-012715D02*
G01X0022939Y-012775D01*
G01X0022939Y-012775D02*
G01X0022950Y-012835D01*
G01X0022950Y-012835D02*
G01X0022972Y-012891D01*
G01X0022972Y-012891D02*
G01X0023005Y-012942D01*
G01X0023005Y-012942D02*
G01X0023047Y-012986D01*
G01X0023047Y-012986D02*
G01X0023096Y-013020D01*
G01X0023096Y-013020D02*
G01X0023152Y-013044D01*
G01X0023152Y-013044D02*
G01X0023211Y-013057D01*
G01X0023211Y-013057D02*
G01X0023271Y-013059D01*
G01X0023271Y-013059D02*
G01X0023331Y-013048D01*
G01X0023331Y-013048D02*
G01X0023387Y-013026D01*
G01X0023387Y-013026D02*
G01X0023438Y-012994D01*
G01X0023438Y-012994D02*
G01X0023451Y-012981D01*
G01X0023451Y-012981D02*
G01X0025043Y-012981D01*
G01X0025043Y-012981D02*
G01X0025047Y-012986D01*
G01X0025047Y-012986D02*
G01X0025096Y-013020D01*
G01X0025096Y-013020D02*
G01X0025152Y-013044D01*
G01X0025152Y-013044D02*
G01X0025211Y-013057D01*
G01X0025211Y-013057D02*
G01X0025271Y-013059D01*
G01X0025271Y-013059D02*
G01X0025331Y-013048D01*
G01X0025331Y-013048D02*
G01X0025387Y-013026D01*
G01X0025387Y-013026D02*
G01X0025438Y-012994D01*
G01X0025438Y-012994D02*
G01X0025482Y-012952D01*
G01X0025482Y-012952D02*
G01X0025517Y-012903D01*
G01X0025517Y-012903D02*
G01X0025542Y-012847D01*
G01X0025542Y-012847D02*
G01X0025555Y-012788D01*
G01X0025555Y-012788D02*
G01X0025556Y-012719D01*
G01X0025556Y-012719D02*
G01X0025556Y-014469D01*
G01X0025556Y-014469D02*
G01X0025544Y-014410D01*
G01X0025544Y-014410D02*
G01X0025521Y-014354D01*
G01X0025521Y-014354D02*
G01X0025488Y-014304D01*
G01X0025488Y-014304D02*
G01X0025445Y-014261D01*
G01X0025445Y-014261D02*
G01X0025395Y-014227D01*
G01X0025395Y-014227D02*
G01X0025339Y-014203D01*
G01X0025339Y-014203D02*
G01X0025280Y-014191D01*
G01X0025280Y-014191D02*
G01X0025219Y-014191D01*
G01X0025219Y-014191D02*
G01X0025160Y-014202D01*
G01X0025160Y-014202D02*
G01X0025104Y-014225D01*
G01X0025104Y-014225D02*
G01X0025053Y-014258D01*
G01X0025053Y-014258D02*
G01X0025043Y-014268D01*
G01X0025043Y-014268D02*
G01X0023952Y-014268D01*
G01X0023952Y-014268D02*
G01X0023945Y-014261D01*
G01X0023945Y-014261D02*
G01X0023895Y-014227D01*
G01X0023895Y-014227D02*
G01X0023839Y-014203D01*
G01X0023839Y-014203D02*
G01X0023780Y-014191D01*
G01X0023780Y-014191D02*
G01X0023719Y-014191D01*
G01X0023719Y-014191D02*
G01X0023660Y-014202D01*
G01X0023660Y-014202D02*
G01X0023604Y-014225D01*
G01X0023604Y-014225D02*
G01X0023553Y-014258D01*
G01X0023553Y-014258D02*
G01X0023510Y-014300D01*
G01X0023510Y-014300D02*
G01X0023476Y-014350D01*
G01X0023476Y-014350D02*
G01X0023452Y-014406D01*
G01X0023452Y-014406D02*
G01X0023439Y-014465D01*
G01X0023439Y-014465D02*
G01X0023439Y-014525D01*
G01X0023439Y-014525D02*
G01X0023450Y-014585D01*
G01X0023450Y-014585D02*
G01X0023472Y-014641D01*
G01X0023472Y-014641D02*
G01X0023505Y-014692D01*
G01X0023505Y-014692D02*
G01X0023547Y-014736D01*
G01X0023547Y-014736D02*
G01X0023596Y-014770D01*
G01X0023596Y-014770D02*
G01X0023652Y-014794D01*
G01X0023652Y-014794D02*
G01X0023711Y-014807D01*
G01X0023711Y-014807D02*
G01X0023771Y-014809D01*
G01X0023771Y-014809D02*
G01X0023831Y-014798D01*
G01X0023831Y-014798D02*
G01X0023887Y-014776D01*
G01X0023887Y-014776D02*
G01X0023938Y-014744D01*
G01X0023938Y-014744D02*
G01X0023951Y-014731D01*
G01X0023951Y-014731D02*
G01X0025043Y-014731D01*
G01X0025043Y-014731D02*
G01X0025047Y-014736D01*
G01X0025047Y-014736D02*
G01X0025096Y-014770D01*
G01X0025096Y-014770D02*
G01X0025152Y-014794D01*
G01X0025152Y-014794D02*
G01X0025211Y-014807D01*
G01X0025211Y-014807D02*
G01X0025271Y-014809D01*
G01X0025271Y-014809D02*
G01X0025331Y-014798D01*
G01X0025331Y-014798D02*
G01X0025387Y-014776D01*
G01X0025387Y-014776D02*
G01X0025438Y-014744D01*
G01X0025438Y-014744D02*
G01X0025482Y-014702D01*
G01X0025482Y-014702D02*
G01X0025517Y-014653D01*
G01X0025517Y-014653D02*
G01X0025542Y-014597D01*
G01X0025542Y-014597D02*
G01X0025555Y-014538D01*
G01X0025555Y-014538D02*
G01X0025556Y-014469D01*
G01X0025556Y-014469D02*
G01X0025556Y-019379D01*
G01X0025556Y-019379D02*
G01X0025406Y-019379D01*
G01X0025406Y-019379D02*
G01X0025406Y-018262D01*
G01X0025406Y-018262D02*
G01X0025406Y-017711D01*
G01X0025406Y-017711D02*
G01X0025401Y-017686D01*
G01X0025401Y-017686D02*
G01X0025391Y-017662D01*
G01X0025391Y-017662D02*
G01X0025376Y-017640D01*
G01X0025376Y-017640D02*
G01X0025358Y-017621D01*
G01X0025358Y-017621D02*
G01X0025336Y-017607D01*
G01X0025336Y-017607D02*
G01X0025312Y-017596D01*
G01X0025312Y-017596D02*
G01X0025287Y-017591D01*
G01X0025287Y-017591D02*
G01X0025260Y-017591D01*
G01X0025260Y-017591D02*
G01X0024709Y-017591D01*
G01X0024709Y-017591D02*
G01X0024684Y-017596D01*
G01X0024684Y-017596D02*
G01X0024660Y-017606D01*
G01X0024660Y-017606D02*
G01X0024638Y-017621D01*
G01X0024638Y-017621D02*
G01X0024619Y-017639D01*
G01X0024619Y-017639D02*
G01X0024605Y-017661D01*
G01X0024605Y-017661D02*
G01X0024594Y-017685D01*
G01X0024594Y-017685D02*
G01X0024589Y-017710D01*
G01X0024589Y-017710D02*
G01X0024589Y-017737D01*
G01X0024589Y-017737D02*
G01X0024589Y-018288D01*
G01X0024589Y-018288D02*
G01X0024594Y-018313D01*
G01X0024594Y-018313D02*
G01X0024604Y-018337D01*
G01X0024604Y-018337D02*
G01X0024619Y-018359D01*
G01X0024619Y-018359D02*
G01X0024637Y-018378D01*
G01X0024637Y-018378D02*
G01X0024659Y-018392D01*
G01X0024659Y-018392D02*
G01X0024683Y-018403D01*
G01X0024683Y-018403D02*
G01X0024708Y-018408D01*
G01X0024708Y-018408D02*
G01X0024735Y-018408D01*
G01X0024735Y-018408D02*
G01X0025286Y-018408D01*
G01X0025286Y-018408D02*
G01X0025311Y-018403D01*
G01X0025311Y-018403D02*
G01X0025335Y-018393D01*
G01X0025335Y-018393D02*
G01X0025357Y-018378D01*
G01X0025357Y-018378D02*
G01X0025376Y-018360D01*
G01X0025376Y-018360D02*
G01X0025390Y-018338D01*
G01X0025390Y-018338D02*
G01X0025401Y-018314D01*
G01X0025401Y-018314D02*
G01X0025406Y-018289D01*
G01X0025406Y-018289D02*
G01X0025406Y-018262D01*
G01X0025406Y-018262D02*
G01X0025406Y-019379D01*
G01X0025406Y-019379D02*
G01X0022601Y-019379D01*
G01X0022601Y-019379D02*
G01X0022601Y-018003D01*
G01X0022601Y-018003D02*
G01X0022590Y-017886D01*
G01X0022590Y-017886D02*
G01X0022589Y-017879D01*
G01X0022589Y-017879D02*
G01X0022543Y-017808D01*
G01X0022543Y-017808D02*
G01X0022351Y-018000D01*
G01X0022351Y-018000D02*
G01X0022543Y-018191D01*
G01X0022543Y-018191D02*
G01X0022589Y-018120D01*
G01X0022589Y-018120D02*
G01X0022601Y-018003D01*
G01X0022601Y-018003D02*
G01X0022601Y-019379D01*
G01X0022601Y-019379D02*
G01X0022189Y-019379D01*
G01X0022189Y-019379D02*
G01X0022189Y-018545D01*
G01X0022189Y-018545D02*
G01X0022189Y-017454D01*
G01X0022189Y-017454D02*
G01X0022118Y-017408D01*
G01X0022118Y-017408D02*
G01X0022001Y-017396D01*
G01X0022001Y-017396D02*
G01X0021884Y-017407D01*
G01X0021884Y-017407D02*
G01X0021877Y-017408D01*
G01X0021877Y-017408D02*
G01X0021806Y-017454D01*
G01X0021806Y-017454D02*
G01X0021998Y-017646D01*
G01X0021998Y-017646D02*
G01X0022189Y-017454D01*
G01X0022189Y-017454D02*
G01X0022189Y-018545D01*
G01X0022189Y-018545D02*
G01X0021998Y-018353D01*
G01X0021998Y-018353D02*
G01X0021806Y-018545D01*
G01X0021806Y-018545D02*
G01X0021877Y-018591D01*
G01X0021877Y-018591D02*
G01X0021994Y-018603D01*
G01X0021994Y-018603D02*
G01X0022111Y-018592D01*
G01X0022111Y-018592D02*
G01X0022118Y-018591D01*
G01X0022118Y-018591D02*
G01X0022189Y-018545D01*
G01X0022189Y-018545D02*
G01X0022189Y-019379D01*
G01X0022189Y-019379D02*
G01X0021644Y-019379D01*
G01X0021644Y-019379D02*
G01X0021644Y-018000D01*
G01X0021644Y-018000D02*
G01X0021452Y-017808D01*
G01X0021452Y-017808D02*
G01X0021406Y-017879D01*
G01X0021406Y-017879D02*
G01X0021394Y-017996D01*
G01X0021394Y-017996D02*
G01X0021405Y-018113D01*
G01X0021405Y-018113D02*
G01X0021406Y-018120D01*
G01X0021406Y-018120D02*
G01X0021452Y-018191D01*
G01X0021452Y-018191D02*
G01X0021644Y-018000D01*
G01X0021644Y-018000D02*
G01X0021644Y-019379D01*
G01X0021644Y-019379D02*
G01X0021281Y-019379D01*
G01X0021281Y-019379D02*
G01X0021281Y-016044D01*
G01X0021281Y-016044D02*
G01X0022411Y-014913D01*
G01X0022411Y-014913D02*
G01X0022425Y-014897D01*
G01X0022425Y-014897D02*
G01X0022439Y-014881D01*
G01X0022439Y-014881D02*
G01X0022439Y-014879D01*
G01X0022439Y-014879D02*
G01X0022440Y-014878D01*
G01X0022440Y-014878D02*
G01X0022450Y-014860D01*
G01X0022450Y-014860D02*
G01X0022461Y-014841D01*
G01X0022461Y-014841D02*
G01X0022461Y-014840D01*
G01X0022461Y-014840D02*
G01X0022462Y-014839D01*
G01X0022462Y-014839D02*
G01X0022468Y-014818D01*
G01X0022468Y-014818D02*
G01X0022474Y-014798D01*
G01X0022474Y-014798D02*
G01X0022474Y-014797D01*
G01X0022474Y-014797D02*
G01X0022475Y-014795D01*
G01X0022475Y-014795D02*
G01X0022477Y-014774D01*
G01X0022477Y-014774D02*
G01X0022479Y-014753D01*
G01X0022479Y-014753D02*
G01X0022479Y-014750D01*
G01X0022479Y-014750D02*
G01X0022479Y-014750D01*
G01X0022479Y-014750D02*
G01X0022479Y-014750D01*
G01X0022479Y-014750D02*
G01X0022479Y-014750D01*
G01X0022479Y-014750D02*
G01X0022479Y-013500D01*
G01X0022479Y-013500D02*
G01X0022479Y-011653D01*
G01X0022479Y-011653D02*
G01X0022505Y-011692D01*
G01X0022505Y-011692D02*
G01X0022547Y-011736D01*
G01X0022547Y-011736D02*
G01X0022596Y-011770D01*
G01X0022596Y-011770D02*
G01X0022652Y-011794D01*
G01X0022652Y-011794D02*
G01X0022711Y-011807D01*
G01X0022711Y-011807D02*
G01X0022771Y-011809D01*
G01X0022771Y-011809D02*
G01X0022831Y-011798D01*
G01X0022831Y-011798D02*
G01X0022887Y-011776D01*
G01X0022887Y-011776D02*
G01X0022938Y-011744D01*
G01X0022938Y-011744D02*
G01X0022951Y-011731D01*
G01X0022951Y-011731D02*
G01X0025043Y-011731D01*
G01X0025043Y-011731D02*
G01X0025047Y-011736D01*
G01X0025047Y-011736D02*
G01X0025096Y-011770D01*
G01X0025096Y-011770D02*
G01X0025152Y-011794D01*
G01X0025152Y-011794D02*
G01X0025211Y-011807D01*
G01X0025211Y-011807D02*
G01X0025271Y-011809D01*
G01X0025271Y-011809D02*
G01X0025331Y-011798D01*
G01X0025331Y-011798D02*
G01X0025387Y-011776D01*
G01X0025387Y-011776D02*
G01X0025438Y-011744D01*
G01X0025438Y-011744D02*
G01X0025482Y-011702D01*
G01X0025482Y-011702D02*
G01X0025517Y-011653D01*
G01X0025517Y-011653D02*
G01X0025542Y-011597D01*
G01X0025542Y-011597D02*
G01X0025555Y-011538D01*
G01X0025555Y-011538D02*
G01X0025556Y-011469D01*
G01X0025556Y-011469D02*
G01X0025544Y-011410D01*
G01X0025544Y-011410D02*
G01X0025521Y-011354D01*
G01X0025521Y-011354D02*
G01X0025488Y-011304D01*
G01X0025488Y-011304D02*
G01X0025445Y-011261D01*
G01X0025445Y-011261D02*
G01X0025406Y-011234D01*
G01X0025406Y-011234D02*
G01X0025406Y-001762D01*
G01X0025406Y-001762D02*
G01X0025406Y-001211D01*
G01X0025406Y-001211D02*
G01X0025401Y-001186D01*
G01X0025401Y-001186D02*
G01X0025391Y-001162D01*
G01X0025391Y-001162D02*
G01X0025376Y-001140D01*
G01X0025376Y-001140D02*
G01X0025358Y-001121D01*
G01X0025358Y-001121D02*
G01X0025336Y-001107D01*
G01X0025336Y-001107D02*
G01X0025312Y-001096D01*
G01X0025312Y-001096D02*
G01X0025287Y-001091D01*
G01X0025287Y-001091D02*
G01X0025260Y-001091D01*
G01X0025260Y-001091D02*
G01X0024709Y-001091D01*
G01X0024709Y-001091D02*
G01X0024684Y-001096D01*
G01X0024684Y-001096D02*
G01X0024660Y-001106D01*
G01X0024660Y-001106D02*
G01X0024638Y-001121D01*
G01X0024638Y-001121D02*
G01X0024619Y-001139D01*
G01X0024619Y-001139D02*
G01X0024605Y-001161D01*
G01X0024605Y-001161D02*
G01X0024594Y-001185D01*
G01X0024594Y-001185D02*
G01X0024589Y-001210D01*
G01X0024589Y-001210D02*
G01X0024589Y-001237D01*
G01X0024589Y-001237D02*
G01X0024589Y-001788D01*
G01X0024589Y-001788D02*
G01X0024594Y-001813D01*
G01X0024594Y-001813D02*
G01X0024604Y-001837D01*
G01X0024604Y-001837D02*
G01X0024619Y-001859D01*
G01X0024619Y-001859D02*
G01X0024637Y-001878D01*
G01X0024637Y-001878D02*
G01X0024659Y-001892D01*
G01X0024659Y-001892D02*
G01X0024683Y-001903D01*
G01X0024683Y-001903D02*
G01X0024708Y-001908D01*
G01X0024708Y-001908D02*
G01X0024735Y-001908D01*
G01X0024735Y-001908D02*
G01X0025286Y-001908D01*
G01X0025286Y-001908D02*
G01X0025311Y-001903D01*
G01X0025311Y-001903D02*
G01X0025335Y-001893D01*
G01X0025335Y-001893D02*
G01X0025357Y-001878D01*
G01X0025357Y-001878D02*
G01X0025376Y-001860D01*
G01X0025376Y-001860D02*
G01X0025390Y-001838D01*
G01X0025390Y-001838D02*
G01X0025401Y-001814D01*
G01X0025401Y-001814D02*
G01X0025406Y-001789D01*
G01X0025406Y-001789D02*
G01X0025406Y-001762D01*
G01X0025406Y-001762D02*
G01X0025406Y-011234D01*
G01X0025406Y-011234D02*
G01X0025395Y-011227D01*
G01X0025395Y-011227D02*
G01X0025339Y-011203D01*
G01X0025339Y-011203D02*
G01X0025280Y-011191D01*
G01X0025280Y-011191D02*
G01X0025219Y-011191D01*
G01X0025219Y-011191D02*
G01X0025160Y-011202D01*
G01X0025160Y-011202D02*
G01X0025104Y-011225D01*
G01X0025104Y-011225D02*
G01X0025053Y-011258D01*
G01X0025053Y-011258D02*
G01X0025043Y-011268D01*
G01X0025043Y-011268D02*
G01X0022952Y-011268D01*
G01X0022952Y-011268D02*
G01X0022945Y-011261D01*
G01X0022945Y-011261D02*
G01X0022895Y-011227D01*
G01X0022895Y-011227D02*
G01X0022839Y-011203D01*
G01X0022839Y-011203D02*
G01X0022780Y-011191D01*
G01X0022780Y-011191D02*
G01X0022719Y-011191D01*
G01X0022719Y-011191D02*
G01X0022660Y-011202D01*
G01X0022660Y-011202D02*
G01X0022604Y-011225D01*
G01X0022604Y-011225D02*
G01X0022553Y-011258D01*
G01X0022553Y-011258D02*
G01X0022510Y-011300D01*
G01X0022510Y-011300D02*
G01X0022479Y-011345D01*
G01X0022479Y-011345D02*
G01X0022479Y-006846D01*
G01X0022479Y-006846D02*
G01X0023766Y-005558D01*
G01X0023766Y-005558D02*
G01X0023771Y-005559D01*
G01X0023771Y-005559D02*
G01X0023831Y-005548D01*
G01X0023831Y-005548D02*
G01X0023887Y-005526D01*
G01X0023887Y-005526D02*
G01X0023938Y-005494D01*
G01X0023938Y-005494D02*
G01X0023982Y-005452D01*
G01X0023982Y-005452D02*
G01X0024017Y-005403D01*
G01X0024017Y-005403D02*
G01X0024042Y-005347D01*
G01X0024042Y-005347D02*
G01X0024055Y-005288D01*
G01X0024055Y-005288D02*
G01X0024056Y-005219D01*
G01X0024056Y-005219D02*
G01X0024044Y-005160D01*
G01X0024044Y-005160D02*
G01X0024021Y-005104D01*
G01X0024021Y-005104D02*
G01X0023988Y-005054D01*
G01X0023988Y-005054D02*
G01X0023945Y-005011D01*
G01X0023945Y-005011D02*
G01X0023895Y-004977D01*
G01X0023895Y-004977D02*
G01X0023839Y-004953D01*
G01X0023839Y-004953D02*
G01X0023780Y-004941D01*
G01X0023780Y-004941D02*
G01X0023719Y-004941D01*
G01X0023719Y-004941D02*
G01X0023660Y-004952D01*
G01X0023660Y-004952D02*
G01X0023604Y-004975D01*
G01X0023604Y-004975D02*
G01X0023593Y-004982D01*
G01X0023593Y-004982D02*
G01X0024516Y-004058D01*
G01X0024516Y-004058D02*
G01X0024521Y-004059D01*
G01X0024521Y-004059D02*
G01X0024581Y-004048D01*
G01X0024581Y-004048D02*
G01X0024637Y-004026D01*
G01X0024637Y-004026D02*
G01X0024688Y-003994D01*
G01X0024688Y-003994D02*
G01X0024732Y-003952D01*
G01X0024732Y-003952D02*
G01X0024767Y-003903D01*
G01X0024767Y-003903D02*
G01X0024792Y-003847D01*
G01X0024792Y-003847D02*
G01X0024805Y-003788D01*
G01X0024805Y-003788D02*
G01X0024806Y-003719D01*
G01X0024806Y-003719D02*
G01X0024794Y-003660D01*
G01X0024794Y-003660D02*
G01X0024771Y-003604D01*
G01X0024771Y-003604D02*
G01X0024738Y-003554D01*
G01X0024738Y-003554D02*
G01X0024695Y-003511D01*
G01X0024695Y-003511D02*
G01X0024645Y-003477D01*
G01X0024645Y-003477D02*
G01X0024589Y-003453D01*
G01X0024589Y-003453D02*
G01X0024530Y-003441D01*
G01X0024530Y-003441D02*
G01X0024490Y-003441D01*
G01X0024490Y-003441D02*
G01X0024517Y-003403D01*
G01X0024517Y-003403D02*
G01X0024542Y-003347D01*
G01X0024542Y-003347D02*
G01X0024555Y-003288D01*
G01X0024555Y-003288D02*
G01X0024556Y-003219D01*
G01X0024556Y-003219D02*
G01X0024544Y-003160D01*
G01X0024544Y-003160D02*
G01X0024521Y-003104D01*
G01X0024521Y-003104D02*
G01X0024488Y-003054D01*
G01X0024488Y-003054D02*
G01X0024445Y-003011D01*
G01X0024445Y-003011D02*
G01X0024395Y-002977D01*
G01X0024395Y-002977D02*
G01X0024339Y-002953D01*
G01X0024339Y-002953D02*
G01X0024280Y-002941D01*
G01X0024280Y-002941D02*
G01X0024219Y-002941D01*
G01X0024219Y-002941D02*
G01X0024160Y-002952D01*
G01X0024160Y-002952D02*
G01X0024104Y-002975D01*
G01X0024104Y-002975D02*
G01X0024053Y-003008D01*
G01X0024053Y-003008D02*
G01X0024010Y-003050D01*
G01X0024010Y-003050D02*
G01X0023976Y-003100D01*
G01X0023976Y-003100D02*
G01X0023952Y-003156D01*
G01X0023952Y-003156D02*
G01X0023939Y-003215D01*
G01X0023939Y-003215D02*
G01X0023939Y-003230D01*
G01X0023939Y-003230D02*
G01X0022598Y-004571D01*
G01X0022598Y-004571D02*
G01X0022598Y-001990D01*
G01X0022598Y-001990D02*
G01X0022598Y-001009D01*
G01X0022598Y-001009D02*
G01X0022598Y-000989D01*
G01X0022598Y-000989D02*
G01X0022594Y-000970D01*
G01X0022594Y-000970D02*
G01X0022586Y-000952D01*
G01X0022586Y-000952D02*
G01X0022575Y-000935D01*
G01X0022575Y-000935D02*
G01X0022561Y-000921D01*
G01X0022561Y-000921D02*
G01X0022545Y-000910D01*
G01X0022545Y-000910D02*
G01X0022527Y-000903D01*
G01X0022527Y-000903D02*
G01X0022507Y-000899D01*
G01X0022507Y-000899D02*
G01X0022273Y-000899D01*
G01X0022273Y-000899D02*
G01X0022248Y-000924D01*
G01X0022248Y-000924D02*
G01X0022248Y-001250D01*
G01X0022248Y-001250D02*
G01X0022573Y-001250D01*
G01X0022573Y-001250D02*
G01X0022598Y-001224D01*
G01X0022598Y-001224D02*
G01X0022598Y-001009D01*
G01X0022598Y-001009D02*
G01X0022598Y-001990D01*
G01X0022598Y-001990D02*
G01X0022598Y-001775D01*
G01X0022598Y-001775D02*
G01X0022573Y-001750D01*
G01X0022573Y-001750D02*
G01X0022248Y-001750D01*
G01X0022248Y-001750D02*
G01X0022248Y-002075D01*
G01X0022248Y-002075D02*
G01X0022273Y-002100D01*
G01X0022273Y-002100D02*
G01X0022507Y-002100D01*
G01X0022507Y-002100D02*
G01X0022527Y-002096D01*
G01X0022527Y-002096D02*
G01X0022545Y-002089D01*
G01X0022545Y-002089D02*
G01X0022561Y-002078D01*
G01X0022561Y-002078D02*
G01X0022575Y-002064D01*
G01X0022575Y-002064D02*
G01X0022586Y-002047D01*
G01X0022586Y-002047D02*
G01X0022594Y-002029D01*
G01X0022594Y-002029D02*
G01X0022598Y-002010D01*
G01X0022598Y-002010D02*
G01X0022598Y-001990D01*
G01X0022598Y-001990D02*
G01X0022598Y-004571D01*
G01X0022598Y-004571D02*
G01X0021748Y-005422D01*
G01X0021748Y-005422D02*
G01X0021748Y-002075D01*
G01X0021748Y-002075D02*
G01X0021748Y-001750D01*
G01X0021748Y-001750D02*
G01X0021748Y-001250D01*
G01X0021748Y-001250D02*
G01X0021748Y-000924D01*
G01X0021748Y-000924D02*
G01X0021722Y-000899D01*
G01X0021722Y-000899D02*
G01X0021488Y-000899D01*
G01X0021488Y-000899D02*
G01X0021468Y-000903D01*
G01X0021468Y-000903D02*
G01X0021450Y-000910D01*
G01X0021450Y-000910D02*
G01X0021434Y-000921D01*
G01X0021434Y-000921D02*
G01X0021420Y-000935D01*
G01X0021420Y-000935D02*
G01X0021409Y-000952D01*
G01X0021409Y-000952D02*
G01X0021401Y-000970D01*
G01X0021401Y-000970D02*
G01X0021397Y-000989D01*
G01X0021397Y-000989D02*
G01X0021397Y-001009D01*
G01X0021397Y-001009D02*
G01X0021397Y-001224D01*
G01X0021397Y-001224D02*
G01X0021422Y-001250D01*
G01X0021422Y-001250D02*
G01X0021748Y-001250D01*
G01X0021748Y-001250D02*
G01X0021748Y-001750D01*
G01X0021748Y-001750D02*
G01X0021422Y-001750D01*
G01X0021422Y-001750D02*
G01X0021397Y-001775D01*
G01X0021397Y-001775D02*
G01X0021397Y-001990D01*
G01X0021397Y-001990D02*
G01X0021397Y-002010D01*
G01X0021397Y-002010D02*
G01X0021401Y-002029D01*
G01X0021401Y-002029D02*
G01X0021409Y-002047D01*
G01X0021409Y-002047D02*
G01X0021420Y-002064D01*
G01X0021420Y-002064D02*
G01X0021434Y-002078D01*
G01X0021434Y-002078D02*
G01X0021450Y-002089D01*
G01X0021450Y-002089D02*
G01X0021468Y-002096D01*
G01X0021468Y-002096D02*
G01X0021488Y-002100D01*
G01X0021488Y-002100D02*
G01X0021722Y-002100D01*
G01X0021722Y-002100D02*
G01X0021748Y-002075D01*
G01X0021748Y-002075D02*
G01X0021748Y-005422D01*
G01X0021748Y-005422D02*
G01X0021281Y-005888D01*
G01X0021281Y-005888D02*
G01X0021281Y-000120D01*
G01X0021281Y-000120D02*
G01X0028992Y-000120D01*
G01X0028992Y-000120D02*
G01X0029265Y-000146D01*
G01X0029265Y-000146D02*
G01X0029523Y-000224D01*
G01X0029523Y-000224D02*
G01X0029761Y-000351D01*
G01X0029761Y-000351D02*
G01X0029969Y-000521D01*
G01X0029969Y-000521D02*
G01X0030141Y-000728D01*
G01X0030141Y-000728D02*
G01X0030269Y-000965D01*
G01X0030269Y-000965D02*
G01X0030349Y-001222D01*
G01X0030349Y-001222D02*
G01X0030377Y-001496D01*
G01X0030377Y-001496D02*
G01X0030377Y-001500D01*
G01X0030377Y-001500D02*
G01X0030377Y-017994D01*
G54D10*
G36*
G01X0020714Y-019379D02*
G01X0020598Y-019379D01*
G01X0020598Y-018490D01*
G01X0020598Y-017509D01*
G01X0020598Y-017489D01*
G01X0020594Y-017470D01*
G01X0020586Y-017452D01*
G01X0020575Y-017435D01*
G01X0020561Y-017421D01*
G01X0020545Y-017410D01*
G01X0020527Y-017403D01*
G01X0020507Y-017399D01*
G01X0020273Y-017399D01*
G01X0020248Y-017424D01*
G01X0020248Y-017750D01*
G01X0020573Y-017750D01*
G01X0020598Y-017724D01*
G01X0020598Y-017509D01*
G01X0020598Y-018490D01*
G01X0020598Y-018275D01*
G01X0020573Y-018250D01*
G01X0020248Y-018250D01*
G01X0020248Y-018575D01*
G01X0020273Y-018600D01*
G01X0020507Y-018600D01*
G01X0020527Y-018596D01*
G01X0020545Y-018589D01*
G01X0020561Y-018578D01*
G01X0020575Y-018564D01*
G01X0020586Y-018547D01*
G01X0020594Y-018529D01*
G01X0020598Y-018510D01*
G01X0020598Y-018490D01*
G01X0020598Y-019379D01*
G01X0019748Y-019379D01*
G01X0019748Y-018575D01*
G01X0019748Y-018250D01*
G01X0019748Y-017750D01*
G01X0019748Y-017424D01*
G01X0019722Y-017399D01*
G01X0019488Y-017399D01*
G01X0019468Y-017403D01*
G01X0019450Y-017410D01*
G01X0019434Y-017421D01*
G01X0019420Y-017435D01*
G01X0019409Y-017452D01*
G01X0019401Y-017470D01*
G01X0019397Y-017489D01*
G01X0019397Y-017509D01*
G01X0019397Y-017724D01*
G01X0019422Y-017750D01*
G01X0019748Y-017750D01*
G01X0019748Y-018250D01*
G01X0019422Y-018250D01*
G01X0019397Y-018275D01*
G01X0019397Y-018490D01*
G01X0019397Y-018510D01*
G01X0019401Y-018529D01*
G01X0019409Y-018547D01*
G01X0019420Y-018564D01*
G01X0019434Y-018578D01*
G01X0019450Y-018589D01*
G01X0019468Y-018596D01*
G01X0019488Y-018600D01*
G01X0019722Y-018600D01*
G01X0019748Y-018575D01*
G01X0019748Y-019379D01*
G01X0018181Y-019379D01*
G01X0018181Y-017908D01*
G01X0018181Y-001408D01*
G01X0018145Y-001228D01*
G01X0018076Y-001059D01*
G01X0017974Y-000907D01*
G01X0017845Y-000777D01*
G01X0017694Y-000674D01*
G01X0017525Y-000603D01*
G01X0017346Y-000567D01*
G01X0017162Y-000565D01*
G01X0016983Y-000600D01*
G01X0016813Y-000668D01*
G01X0016660Y-000768D01*
G01X0016529Y-000897D01*
G01X0016426Y-001048D01*
G01X0016353Y-001216D01*
G01X0016315Y-001395D01*
G01X0016313Y-001578D01*
G01X0016346Y-001758D01*
G01X0016413Y-001928D01*
G01X0016512Y-002082D01*
G01X0016640Y-002214D01*
G01X0016790Y-002318D01*
G01X0016958Y-002392D01*
G01X0017136Y-002431D01*
G01X0017319Y-002435D01*
G01X0017500Y-002403D01*
G01X0017670Y-002337D01*
G01X0017825Y-002239D01*
G01X0017958Y-002112D01*
G01X0018063Y-001963D01*
G01X0018138Y-001796D01*
G01X0018178Y-001617D01*
G01X0018181Y-001408D01*
G01X0018181Y-017908D01*
G01X0018145Y-017728D01*
G01X0018076Y-017559D01*
G01X0017974Y-017407D01*
G01X0017845Y-017277D01*
G01X0017694Y-017174D01*
G01X0017525Y-017103D01*
G01X0017346Y-017067D01*
G01X0017162Y-017065D01*
G01X0016983Y-017100D01*
G01X0016813Y-017168D01*
G01X0016660Y-017268D01*
G01X0016529Y-017397D01*
G01X0016426Y-017548D01*
G01X0016353Y-017716D01*
G01X0016315Y-017895D01*
G01X0016313Y-018078D01*
G01X0016346Y-018258D01*
G01X0016413Y-018428D01*
G01X0016512Y-018582D01*
G01X0016640Y-018714D01*
G01X0016790Y-018818D01*
G01X0016958Y-018892D01*
G01X0017136Y-018931D01*
G01X0017319Y-018935D01*
G01X0017500Y-018903D01*
G01X0017670Y-018837D01*
G01X0017825Y-018739D01*
G01X0017958Y-018612D01*
G01X0018063Y-018463D01*
G01X0018138Y-018296D01*
G01X0018178Y-018117D01*
G01X0018181Y-017908D01*
G01X0018181Y-019379D01*
G01X0017253Y-019379D01*
G01X0016980Y-019353D01*
G01X0016722Y-019275D01*
G01X0016484Y-019148D01*
G01X0016276Y-018978D01*
G01X0016104Y-018771D01*
G01X0015976Y-018534D01*
G01X0015896Y-018277D01*
G01X0015868Y-018003D01*
G01X0015868Y-017999D01*
G01X0015868Y-001505D01*
G01X0015894Y-001232D01*
G01X0015972Y-000974D01*
G01X0016099Y-000736D01*
G01X0016269Y-000528D01*
G01X0016476Y-000356D01*
G01X0016713Y-000228D01*
G01X0016970Y-000148D01*
G01X0017244Y-000120D01*
G01X0017248Y-000120D01*
G01X0020714Y-000120D01*
G01X0020714Y-015768D01*
G01X0020601Y-015768D01*
G01X0020601Y-001503D01*
G01X0020590Y-001386D01*
G01X0020589Y-001379D01*
G01X0020543Y-001308D01*
G01X0020351Y-001500D01*
G01X0020543Y-001691D01*
G01X0020589Y-001620D01*
G01X0020601Y-001503D01*
G01X0020601Y-015768D01*
G01X0020189Y-015768D01*
G01X0020189Y-002045D01*
G01X0020189Y-000954D01*
G01X0020118Y-000908D01*
G01X0020001Y-000896D01*
G01X0019884Y-000907D01*
G01X0019877Y-000908D01*
G01X0019806Y-000954D01*
G01X0019998Y-001146D01*
G01X0020189Y-000954D01*
G01X0020189Y-002045D01*
G01X0019998Y-001853D01*
G01X0019806Y-002045D01*
G01X0019877Y-002091D01*
G01X0019994Y-002103D01*
G01X0020111Y-002092D01*
G01X0020118Y-002091D01*
G01X0020189Y-002045D01*
G01X0020189Y-015768D01*
G01X0019702Y-015768D01*
G01X0019695Y-015761D01*
G01X0019645Y-015727D01*
G01X0019644Y-015726D01*
G01X0019644Y-001500D01*
G01X0019452Y-001308D01*
G01X0019406Y-001379D01*
G01X0019394Y-001496D01*
G01X0019405Y-001613D01*
G01X0019406Y-001620D01*
G01X0019452Y-001691D01*
G01X0019644Y-001500D01*
G01X0019644Y-015726D01*
G01X0019589Y-015703D01*
G01X0019530Y-015691D01*
G01X0019469Y-015691D01*
G01X0019410Y-015702D01*
G01X0019354Y-015725D01*
G01X0019303Y-015758D01*
G01X0019260Y-015800D01*
G01X0019226Y-015850D01*
G01X0019202Y-015906D01*
G01X0019189Y-015965D01*
G01X0019189Y-016025D01*
G01X0019200Y-016085D01*
G01X0019222Y-016141D01*
G01X0019255Y-016192D01*
G01X0019297Y-016236D01*
G01X0019346Y-016270D01*
G01X0019402Y-016294D01*
G01X0019461Y-016307D01*
G01X0019521Y-016309D01*
G01X0019581Y-016298D01*
G01X0019637Y-016276D01*
G01X0019688Y-016244D01*
G01X0019701Y-016231D01*
G01X0020714Y-016231D01*
G01X0020714Y-019379D01*
G01X0020714Y-019379D01*
G37*
G54D22*
G01X0020714Y-019379D02*
G01X0020598Y-019379D01*
G01X0020598Y-019379D02*
G01X0020598Y-018490D01*
G01X0020598Y-018490D02*
G01X0020598Y-017509D01*
G01X0020598Y-017509D02*
G01X0020598Y-017489D01*
G01X0020598Y-017489D02*
G01X0020594Y-017470D01*
G01X0020594Y-017470D02*
G01X0020586Y-017452D01*
G01X0020586Y-017452D02*
G01X0020575Y-017435D01*
G01X0020575Y-017435D02*
G01X0020561Y-017421D01*
G01X0020561Y-017421D02*
G01X0020545Y-017410D01*
G01X0020545Y-017410D02*
G01X0020527Y-017403D01*
G01X0020527Y-017403D02*
G01X0020507Y-017399D01*
G01X0020507Y-017399D02*
G01X0020273Y-017399D01*
G01X0020273Y-017399D02*
G01X0020248Y-017424D01*
G01X0020248Y-017424D02*
G01X0020248Y-017750D01*
G01X0020248Y-017750D02*
G01X0020573Y-017750D01*
G01X0020573Y-017750D02*
G01X0020598Y-017724D01*
G01X0020598Y-017724D02*
G01X0020598Y-017509D01*
G01X0020598Y-017509D02*
G01X0020598Y-018490D01*
G01X0020598Y-018490D02*
G01X0020598Y-018275D01*
G01X0020598Y-018275D02*
G01X0020573Y-018250D01*
G01X0020573Y-018250D02*
G01X0020248Y-018250D01*
G01X0020248Y-018250D02*
G01X0020248Y-018575D01*
G01X0020248Y-018575D02*
G01X0020273Y-018600D01*
G01X0020273Y-018600D02*
G01X0020507Y-018600D01*
G01X0020507Y-018600D02*
G01X0020527Y-018596D01*
G01X0020527Y-018596D02*
G01X0020545Y-018589D01*
G01X0020545Y-018589D02*
G01X0020561Y-018578D01*
G01X0020561Y-018578D02*
G01X0020575Y-018564D01*
G01X0020575Y-018564D02*
G01X0020586Y-018547D01*
G01X0020586Y-018547D02*
G01X0020594Y-018529D01*
G01X0020594Y-018529D02*
G01X0020598Y-018510D01*
G01X0020598Y-018510D02*
G01X0020598Y-018490D01*
G01X0020598Y-018490D02*
G01X0020598Y-019379D01*
G01X0020598Y-019379D02*
G01X0019748Y-019379D01*
G01X0019748Y-019379D02*
G01X0019748Y-018575D01*
G01X0019748Y-018575D02*
G01X0019748Y-018250D01*
G01X0019748Y-018250D02*
G01X0019748Y-017750D01*
G01X0019748Y-017750D02*
G01X0019748Y-017424D01*
G01X0019748Y-017424D02*
G01X0019722Y-017399D01*
G01X0019722Y-017399D02*
G01X0019488Y-017399D01*
G01X0019488Y-017399D02*
G01X0019468Y-017403D01*
G01X0019468Y-017403D02*
G01X0019450Y-017410D01*
G01X0019450Y-017410D02*
G01X0019434Y-017421D01*
G01X0019434Y-017421D02*
G01X0019420Y-017435D01*
G01X0019420Y-017435D02*
G01X0019409Y-017452D01*
G01X0019409Y-017452D02*
G01X0019401Y-017470D01*
G01X0019401Y-017470D02*
G01X0019397Y-017489D01*
G01X0019397Y-017489D02*
G01X0019397Y-017509D01*
G01X0019397Y-017509D02*
G01X0019397Y-017724D01*
G01X0019397Y-017724D02*
G01X0019422Y-017750D01*
G01X0019422Y-017750D02*
G01X0019748Y-017750D01*
G01X0019748Y-017750D02*
G01X0019748Y-018250D01*
G01X0019748Y-018250D02*
G01X0019422Y-018250D01*
G01X0019422Y-018250D02*
G01X0019397Y-018275D01*
G01X0019397Y-018275D02*
G01X0019397Y-018490D01*
G01X0019397Y-018490D02*
G01X0019397Y-018510D01*
G01X0019397Y-018510D02*
G01X0019401Y-018529D01*
G01X0019401Y-018529D02*
G01X0019409Y-018547D01*
G01X0019409Y-018547D02*
G01X0019420Y-018564D01*
G01X0019420Y-018564D02*
G01X0019434Y-018578D01*
G01X0019434Y-018578D02*
G01X0019450Y-018589D01*
G01X0019450Y-018589D02*
G01X0019468Y-018596D01*
G01X0019468Y-018596D02*
G01X0019488Y-018600D01*
G01X0019488Y-018600D02*
G01X0019722Y-018600D01*
G01X0019722Y-018600D02*
G01X0019748Y-018575D01*
G01X0019748Y-018575D02*
G01X0019748Y-019379D01*
G01X0019748Y-019379D02*
G01X0018181Y-019379D01*
G01X0018181Y-019379D02*
G01X0018181Y-017908D01*
G01X0018181Y-017908D02*
G01X0018181Y-001408D01*
G01X0018181Y-001408D02*
G01X0018145Y-001228D01*
G01X0018145Y-001228D02*
G01X0018076Y-001059D01*
G01X0018076Y-001059D02*
G01X0017974Y-000907D01*
G01X0017974Y-000907D02*
G01X0017845Y-000777D01*
G01X0017845Y-000777D02*
G01X0017694Y-000674D01*
G01X0017694Y-000674D02*
G01X0017525Y-000603D01*
G01X0017525Y-000603D02*
G01X0017346Y-000567D01*
G01X0017346Y-000567D02*
G01X0017162Y-000565D01*
G01X0017162Y-000565D02*
G01X0016983Y-000600D01*
G01X0016983Y-000600D02*
G01X0016813Y-000668D01*
G01X0016813Y-000668D02*
G01X0016660Y-000768D01*
G01X0016660Y-000768D02*
G01X0016529Y-000897D01*
G01X0016529Y-000897D02*
G01X0016426Y-001048D01*
G01X0016426Y-001048D02*
G01X0016353Y-001216D01*
G01X0016353Y-001216D02*
G01X0016315Y-001395D01*
G01X0016315Y-001395D02*
G01X0016313Y-001578D01*
G01X0016313Y-001578D02*
G01X0016346Y-001758D01*
G01X0016346Y-001758D02*
G01X0016413Y-001928D01*
G01X0016413Y-001928D02*
G01X0016512Y-002082D01*
G01X0016512Y-002082D02*
G01X0016640Y-002214D01*
G01X0016640Y-002214D02*
G01X0016790Y-002318D01*
G01X0016790Y-002318D02*
G01X0016958Y-002392D01*
G01X0016958Y-002392D02*
G01X0017136Y-002431D01*
G01X0017136Y-002431D02*
G01X0017319Y-002435D01*
G01X0017319Y-002435D02*
G01X0017500Y-002403D01*
G01X0017500Y-002403D02*
G01X0017670Y-002337D01*
G01X0017670Y-002337D02*
G01X0017825Y-002239D01*
G01X0017825Y-002239D02*
G01X0017958Y-002112D01*
G01X0017958Y-002112D02*
G01X0018063Y-001963D01*
G01X0018063Y-001963D02*
G01X0018138Y-001796D01*
G01X0018138Y-001796D02*
G01X0018178Y-001617D01*
G01X0018178Y-001617D02*
G01X0018181Y-001408D01*
G01X0018181Y-001408D02*
G01X0018181Y-017908D01*
G01X0018181Y-017908D02*
G01X0018145Y-017728D01*
G01X0018145Y-017728D02*
G01X0018076Y-017559D01*
G01X0018076Y-017559D02*
G01X0017974Y-017407D01*
G01X0017974Y-017407D02*
G01X0017845Y-017277D01*
G01X0017845Y-017277D02*
G01X0017694Y-017174D01*
G01X0017694Y-017174D02*
G01X0017525Y-017103D01*
G01X0017525Y-017103D02*
G01X0017346Y-017067D01*
G01X0017346Y-017067D02*
G01X0017162Y-017065D01*
G01X0017162Y-017065D02*
G01X0016983Y-017100D01*
G01X0016983Y-017100D02*
G01X0016813Y-017168D01*
G01X0016813Y-017168D02*
G01X0016660Y-017268D01*
G01X0016660Y-017268D02*
G01X0016529Y-017397D01*
G01X0016529Y-017397D02*
G01X0016426Y-017548D01*
G01X0016426Y-017548D02*
G01X0016353Y-017716D01*
G01X0016353Y-017716D02*
G01X0016315Y-017895D01*
G01X0016315Y-017895D02*
G01X0016313Y-018078D01*
G01X0016313Y-018078D02*
G01X0016346Y-018258D01*
G01X0016346Y-018258D02*
G01X0016413Y-018428D01*
G01X0016413Y-018428D02*
G01X0016512Y-018582D01*
G01X0016512Y-018582D02*
G01X0016640Y-018714D01*
G01X0016640Y-018714D02*
G01X0016790Y-018818D01*
G01X0016790Y-018818D02*
G01X0016958Y-018892D01*
G01X0016958Y-018892D02*
G01X0017136Y-018931D01*
G01X0017136Y-018931D02*
G01X0017319Y-018935D01*
G01X0017319Y-018935D02*
G01X0017500Y-018903D01*
G01X0017500Y-018903D02*
G01X0017670Y-018837D01*
G01X0017670Y-018837D02*
G01X0017825Y-018739D01*
G01X0017825Y-018739D02*
G01X0017958Y-018612D01*
G01X0017958Y-018612D02*
G01X0018063Y-018463D01*
G01X0018063Y-018463D02*
G01X0018138Y-018296D01*
G01X0018138Y-018296D02*
G01X0018178Y-018117D01*
G01X0018178Y-018117D02*
G01X0018181Y-017908D01*
G01X0018181Y-017908D02*
G01X0018181Y-019379D01*
G01X0018181Y-019379D02*
G01X0017253Y-019379D01*
G01X0017253Y-019379D02*
G01X0016980Y-019353D01*
G01X0016980Y-019353D02*
G01X0016722Y-019275D01*
G01X0016722Y-019275D02*
G01X0016484Y-019148D01*
G01X0016484Y-019148D02*
G01X0016276Y-018978D01*
G01X0016276Y-018978D02*
G01X0016104Y-018771D01*
G01X0016104Y-018771D02*
G01X0015976Y-018534D01*
G01X0015976Y-018534D02*
G01X0015896Y-018277D01*
G01X0015896Y-018277D02*
G01X0015868Y-018003D01*
G01X0015868Y-018003D02*
G01X0015868Y-017999D01*
G01X0015868Y-017999D02*
G01X0015868Y-001505D01*
G01X0015868Y-001505D02*
G01X0015894Y-001232D01*
G01X0015894Y-001232D02*
G01X0015972Y-000974D01*
G01X0015972Y-000974D02*
G01X0016099Y-000736D01*
G01X0016099Y-000736D02*
G01X0016269Y-000528D01*
G01X0016269Y-000528D02*
G01X0016476Y-000356D01*
G01X0016476Y-000356D02*
G01X0016713Y-000228D01*
G01X0016713Y-000228D02*
G01X0016970Y-000148D01*
G01X0016970Y-000148D02*
G01X0017244Y-000120D01*
G01X0017244Y-000120D02*
G01X0017248Y-000120D01*
G01X0017248Y-000120D02*
G01X0020714Y-000120D01*
G01X0020714Y-000120D02*
G01X0020714Y-015768D01*
G01X0020714Y-015768D02*
G01X0020601Y-015768D01*
G01X0020601Y-015768D02*
G01X0020601Y-001503D01*
G01X0020601Y-001503D02*
G01X0020590Y-001386D01*
G01X0020590Y-001386D02*
G01X0020589Y-001379D01*
G01X0020589Y-001379D02*
G01X0020543Y-001308D01*
G01X0020543Y-001308D02*
G01X0020351Y-001500D01*
G01X0020351Y-001500D02*
G01X0020543Y-001691D01*
G01X0020543Y-001691D02*
G01X0020589Y-001620D01*
G01X0020589Y-001620D02*
G01X0020601Y-001503D01*
G01X0020601Y-001503D02*
G01X0020601Y-015768D01*
G01X0020601Y-015768D02*
G01X0020189Y-015768D01*
G01X0020189Y-015768D02*
G01X0020189Y-002045D01*
G01X0020189Y-002045D02*
G01X0020189Y-000954D01*
G01X0020189Y-000954D02*
G01X0020118Y-000908D01*
G01X0020118Y-000908D02*
G01X0020001Y-000896D01*
G01X0020001Y-000896D02*
G01X0019884Y-000907D01*
G01X0019884Y-000907D02*
G01X0019877Y-000908D01*
G01X0019877Y-000908D02*
G01X0019806Y-000954D01*
G01X0019806Y-000954D02*
G01X0019998Y-001146D01*
G01X0019998Y-001146D02*
G01X0020189Y-000954D01*
G01X0020189Y-000954D02*
G01X0020189Y-002045D01*
G01X0020189Y-002045D02*
G01X0019998Y-001853D01*
G01X0019998Y-001853D02*
G01X0019806Y-002045D01*
G01X0019806Y-002045D02*
G01X0019877Y-002091D01*
G01X0019877Y-002091D02*
G01X0019994Y-002103D01*
G01X0019994Y-002103D02*
G01X0020111Y-002092D01*
G01X0020111Y-002092D02*
G01X0020118Y-002091D01*
G01X0020118Y-002091D02*
G01X0020189Y-002045D01*
G01X0020189Y-002045D02*
G01X0020189Y-015768D01*
G01X0020189Y-015768D02*
G01X0019702Y-015768D01*
G01X0019702Y-015768D02*
G01X0019695Y-015761D01*
G01X0019695Y-015761D02*
G01X0019645Y-015727D01*
G01X0019645Y-015727D02*
G01X0019644Y-015726D01*
G01X0019644Y-015726D02*
G01X0019644Y-001500D01*
G01X0019644Y-001500D02*
G01X0019452Y-001308D01*
G01X0019452Y-001308D02*
G01X0019406Y-001379D01*
G01X0019406Y-001379D02*
G01X0019394Y-001496D01*
G01X0019394Y-001496D02*
G01X0019405Y-001613D01*
G01X0019405Y-001613D02*
G01X0019406Y-001620D01*
G01X0019406Y-001620D02*
G01X0019452Y-001691D01*
G01X0019452Y-001691D02*
G01X0019644Y-001500D01*
G01X0019644Y-001500D02*
G01X0019644Y-015726D01*
G01X0019644Y-015726D02*
G01X0019589Y-015703D01*
G01X0019589Y-015703D02*
G01X0019530Y-015691D01*
G01X0019530Y-015691D02*
G01X0019469Y-015691D01*
G01X0019469Y-015691D02*
G01X0019410Y-015702D01*
G01X0019410Y-015702D02*
G01X0019354Y-015725D01*
G01X0019354Y-015725D02*
G01X0019303Y-015758D01*
G01X0019303Y-015758D02*
G01X0019260Y-015800D01*
G01X0019260Y-015800D02*
G01X0019226Y-015850D01*
G01X0019226Y-015850D02*
G01X0019202Y-015906D01*
G01X0019202Y-015906D02*
G01X0019189Y-015965D01*
G01X0019189Y-015965D02*
G01X0019189Y-016025D01*
G01X0019189Y-016025D02*
G01X0019200Y-016085D01*
G01X0019200Y-016085D02*
G01X0019222Y-016141D01*
G01X0019222Y-016141D02*
G01X0019255Y-016192D01*
G01X0019255Y-016192D02*
G01X0019297Y-016236D01*
G01X0019297Y-016236D02*
G01X0019346Y-016270D01*
G01X0019346Y-016270D02*
G01X0019402Y-016294D01*
G01X0019402Y-016294D02*
G01X0019461Y-016307D01*
G01X0019461Y-016307D02*
G01X0019521Y-016309D01*
G01X0019521Y-016309D02*
G01X0019581Y-016298D01*
G01X0019581Y-016298D02*
G01X0019637Y-016276D01*
G01X0019637Y-016276D02*
G01X0019688Y-016244D01*
G01X0019688Y-016244D02*
G01X0019701Y-016231D01*
G01X0019701Y-016231D02*
G01X0020714Y-016231D01*
G01X0020714Y-016231D02*
G01X0020714Y-019379D01*
M02*
