G04 This is an RS-274x file exported by *
G04 gerbv version 2.6.1 *
G04 More information is available about gerbv at *
G04 http://gerbv.geda-project.org/ *
G04 --End of header info--*
%MOIN*%
%FSLAX34Y34*%
%IPPOS*%
G04 --Define apertures--*
%ADD10C,0.0059*%
%ADD11R,0.0236X0.0551*%
%ADD12R,0.0250X0.0450*%
%ADD13R,0.0450X0.0250*%
%ADD14R,0.0600X0.0600*%
%ADD15C,0.0600*%
%ADD16R,0.1417X0.0630*%
%ADD17C,0.1500*%
%ADD18R,0.1500X0.1500*%
%ADD19R,0.1000X0.1000*%
%ADD20C,0.1000*%
%ADD21C,0.1772*%
%ADD22R,0.0787X0.0787*%
%ADD23C,0.0787*%
%ADD24R,0.0630X0.1417*%
%ADD25R,0.0200X0.0450*%
%ADD26R,0.0394X0.0236*%
%ADD27R,0.0240X0.0598*%
%ADD28R,0.0360X0.0360*%
%ADD29R,0.0709X0.0512*%
%ADD30R,0.0709X0.1496*%
%ADD31R,0.1181X0.0787*%
%ADD32R,0.0550X0.0550*%
%ADD33C,0.0550*%
%ADD34R,0.0630X0.1024*%
%ADD35C,0.1600*%
%ADD36C,0.0634*%
%ADD37C,0.1360*%
%ADD38C,0.0680*%
%ADD39R,0.0470X0.0200*%
%ADD40R,0.0631X0.0474*%
%ADD41R,0.0474X0.0513*%
%ADD42R,0.0513X0.0474*%
%ADD43R,0.0870X0.0670*%
%ADD44R,0.0870X0.1580*%
%ADD45R,0.0316X0.0946*%
%ADD46R,0.0395X0.0395*%
%ADD47R,0.1143X0.0710*%
%ADD48R,0.1419X0.0828*%
%ADD49C,0.1340*%
G04 --Start main section--*
G54D11*
G01X0005750Y-004950D03*
G01X0005750Y-007050D03*
G01X0006250Y-004950D03*
G01X0006750Y-004950D03*
G01X0007250Y-004950D03*
G01X0006250Y-007050D03*
G01X0006750Y-007050D03*
G01X0007250Y-007050D03*
G54D12*
G01X0005050Y-005750D03*
G01X0004450Y-005750D03*
G01X0001450Y-010750D03*
G01X0002050Y-010750D03*
G01X0002700Y-011500D03*
G01X0003300Y-011500D03*
G01X0002700Y-010750D03*
G01X0003300Y-010750D03*
G54D13*
G01X0001750Y-005050D03*
G01X0001750Y-004450D03*
G54D12*
G01X0009700Y-011250D03*
G01X0010300Y-011250D03*
G01X0001450Y-010000D03*
G01X0002050Y-010000D03*
G01X0002700Y-010000D03*
G01X0003300Y-010000D03*
G54D14*
G01X0002750Y-006000D03*
G54D15*
G01X0001750Y-006000D03*
G54D16*
G01X0012083Y-013000D03*
G01X0009917Y-013000D03*
G54D17*
G01X0005750Y-016000D03*
G01X0007750Y-016000D03*
G54D18*
G01X0003750Y-016000D03*
G54D17*
G01X0009750Y-016000D03*
G54D19*
G01X0008750Y-001500D03*
G54D20*
G01X0006750Y-001500D03*
G01X0004750Y-001500D03*
G54D12*
G01X0001450Y-011500D03*
G01X0002050Y-011500D03*
G54D21*
G01X0012000Y-016000D03*
G01X0001500Y-016000D03*
G01X0012000Y-001500D03*
G01X0001500Y-001500D03*
G54D13*
G01X0009250Y-006450D03*
G01X0009250Y-007050D03*
G54D12*
G01X0004450Y-008000D03*
G01X0005050Y-008000D03*
G54D13*
G01X0010000Y-009950D03*
G01X0010000Y-010550D03*
G54D12*
G01X0004450Y-010500D03*
G01X0005050Y-010500D03*
G01X0012200Y-006750D03*
G01X0012800Y-006750D03*
G01X0003300Y-008000D03*
G01X0002700Y-008000D03*
G01X0002050Y-008000D03*
G01X0001450Y-008000D03*
G54D22*
G01X0011250Y-010750D03*
G54D23*
G01X0011250Y-009750D03*
G01X0011250Y-008750D03*
G01X0011250Y-007750D03*
G54D24*
G01X0011250Y-005833D03*
G01X0011250Y-003667D03*
G54D25*
G01X0005250Y-013850D03*
G01X0005750Y-013850D03*
G01X0006250Y-013850D03*
G01X0006750Y-013850D03*
G01X0007250Y-013850D03*
G01X0007750Y-013850D03*
G01X0008250Y-013850D03*
G01X0008250Y-011750D03*
G01X0007750Y-011750D03*
G01X0007250Y-011750D03*
G01X0006750Y-011750D03*
G01X0006250Y-011750D03*
G01X0005750Y-011750D03*
G01X0005250Y-011750D03*
G54D26*
G01X0008933Y-004250D03*
G01X0008067Y-004250D03*
G01X0008933Y-003500D03*
G01X0008067Y-003500D03*
G01X0004683Y-004250D03*
G01X0003817Y-004250D03*
G01X0004683Y-003500D03*
G01X0003817Y-003500D03*
G54D27*
G01X0005750Y-010500D03*
G01X0006750Y-010500D03*
G01X0006750Y-008000D03*
G01X0005750Y-008000D03*
G01X0009250Y-008000D03*
G01X0008250Y-008000D03*
G01X0008250Y-010500D03*
G01X0009250Y-010500D03*
G54D11*
G01X0005750Y-024635D03*
G01X0005750Y-026735D03*
G01X0006250Y-024635D03*
G01X0006750Y-024635D03*
G01X0007250Y-024635D03*
G01X0006250Y-026735D03*
G01X0006750Y-026735D03*
G01X0007250Y-026735D03*
G54D12*
G01X0005050Y-025435D03*
G01X0004450Y-025435D03*
G01X0001450Y-030435D03*
G01X0002050Y-030435D03*
G01X0002700Y-031185D03*
G01X0003300Y-031185D03*
G01X0002700Y-030435D03*
G01X0003300Y-030435D03*
G54D13*
G01X0001750Y-024735D03*
G01X0001750Y-024135D03*
G54D12*
G01X0009700Y-030935D03*
G01X0010300Y-030935D03*
G01X0001450Y-029685D03*
G01X0002050Y-029685D03*
G01X0002700Y-029685D03*
G01X0003300Y-029685D03*
G54D14*
G01X0002750Y-025685D03*
G54D15*
G01X0001750Y-025685D03*
G54D16*
G01X0012083Y-032685D03*
G01X0009917Y-032685D03*
G54D17*
G01X0005750Y-035685D03*
G01X0007750Y-035685D03*
G54D18*
G01X0003750Y-035685D03*
G54D17*
G01X0009750Y-035685D03*
G54D19*
G01X0008750Y-021185D03*
G54D20*
G01X0006750Y-021185D03*
G01X0004750Y-021185D03*
G54D12*
G01X0001450Y-031185D03*
G01X0002050Y-031185D03*
G54D21*
G01X0012000Y-035685D03*
G01X0001500Y-035685D03*
G01X0012000Y-021185D03*
G01X0001500Y-021185D03*
G54D13*
G01X0009250Y-026135D03*
G01X0009250Y-026735D03*
G54D12*
G01X0004450Y-027685D03*
G01X0005050Y-027685D03*
G54D13*
G01X0010000Y-029635D03*
G01X0010000Y-030235D03*
G54D12*
G01X0004450Y-030185D03*
G01X0005050Y-030185D03*
G01X0012200Y-026435D03*
G01X0012800Y-026435D03*
G01X0003300Y-027685D03*
G01X0002700Y-027685D03*
G01X0002050Y-027685D03*
G01X0001450Y-027685D03*
G54D22*
G01X0011250Y-030435D03*
G54D23*
G01X0011250Y-029435D03*
G01X0011250Y-028435D03*
G01X0011250Y-027435D03*
G54D24*
G01X0011250Y-025518D03*
G01X0011250Y-023352D03*
G54D25*
G01X0005250Y-033535D03*
G01X0005750Y-033535D03*
G01X0006250Y-033535D03*
G01X0006750Y-033535D03*
G01X0007250Y-033535D03*
G01X0007750Y-033535D03*
G01X0008250Y-033535D03*
G01X0008250Y-031435D03*
G01X0007750Y-031435D03*
G01X0007250Y-031435D03*
G01X0006750Y-031435D03*
G01X0006250Y-031435D03*
G01X0005750Y-031435D03*
G01X0005250Y-031435D03*
G54D26*
G01X0008933Y-023935D03*
G01X0008067Y-023935D03*
G01X0008933Y-023185D03*
G01X0008067Y-023185D03*
G01X0004683Y-023935D03*
G01X0003817Y-023935D03*
G01X0004683Y-023185D03*
G01X0003817Y-023185D03*
G54D27*
G01X0005750Y-030185D03*
G01X0006750Y-030185D03*
G01X0006750Y-027685D03*
G01X0005750Y-027685D03*
G01X0009250Y-027685D03*
G01X0008250Y-027685D03*
G01X0008250Y-030185D03*
G01X0009250Y-030185D03*
G54D28*
G01X0025848Y-015100D03*
G01X0025848Y-014400D03*
G01X0026648Y-014750D03*
G01X0025848Y-013600D03*
G01X0025848Y-012900D03*
G01X0026648Y-013250D03*
G01X0025848Y-012100D03*
G01X0025848Y-011400D03*
G01X0026648Y-011750D03*
G54D29*
G01X0026067Y-005094D03*
G01X0026067Y-006000D03*
G01X0026067Y-006906D03*
G54D30*
G01X0028429Y-006000D03*
G54D25*
G01X0020748Y-015600D03*
G01X0021248Y-015600D03*
G01X0021748Y-015600D03*
G01X0022248Y-015600D03*
G01X0022748Y-015600D03*
G01X0023248Y-015600D03*
G01X0023748Y-015600D03*
G01X0023748Y-013500D03*
G01X0023248Y-013500D03*
G01X0022748Y-013500D03*
G01X0022248Y-013500D03*
G01X0021748Y-013500D03*
G01X0021248Y-013500D03*
G01X0020748Y-013500D03*
G54D31*
G01X0019998Y-003819D03*
G01X0019998Y-006181D03*
G54D12*
G01X0019198Y-014500D03*
G01X0019798Y-014500D03*
G01X0019198Y-015250D03*
G01X0019798Y-015250D03*
G01X0019198Y-013750D03*
G01X0019798Y-013750D03*
G01X0025948Y-004000D03*
G01X0026548Y-004000D03*
G01X0027198Y-004000D03*
G01X0027798Y-004000D03*
G54D13*
G01X0023748Y-004550D03*
G01X0023748Y-003950D03*
G01X0023748Y-007200D03*
G01X0023748Y-007800D03*
G54D32*
G01X0024998Y-001500D03*
G54D33*
G01X0025998Y-001500D03*
G01X0026998Y-001500D03*
G54D34*
G01X0022248Y-007291D03*
G01X0022248Y-008709D03*
G01X0022248Y-005209D03*
G01X0022248Y-003791D03*
G54D17*
G01X0028998Y-012750D03*
G01X0028998Y-010750D03*
G54D18*
G01X0028998Y-014750D03*
G54D17*
G01X0028998Y-008750D03*
G54D19*
G01X0019998Y-018000D03*
G54D20*
G01X0021998Y-018000D03*
G54D19*
G01X0021998Y-001500D03*
G54D20*
G01X0019998Y-001500D03*
G54D32*
G01X0024998Y-018000D03*
G54D33*
G01X0025998Y-018000D03*
G01X0026998Y-018000D03*
G54D21*
G01X0028998Y-001500D03*
G54D35*
G01X0028998Y-018000D03*
G01X0017248Y-018000D03*
G01X0017248Y-001500D03*
G01X0015748Y-039370D02*
G54D36*
G01X0020678Y-033666D03*
G01X0021678Y-033666D03*
G01X0022678Y-033666D03*
G01X0023678Y-033666D03*
G01X0023178Y-032666D03*
G01X0022178Y-032666D03*
G01X0021178Y-032666D03*
G01X0024178Y-032666D03*
G01X0027428Y-032666D03*
G01X0027428Y-031666D03*
G01X0027428Y-030666D03*
G01X0027428Y-029666D03*
G01X0027428Y-028666D03*
G01X0027428Y-027666D03*
G01X0027428Y-026666D03*
G01X0027428Y-025666D03*
G01X0024178Y-024666D03*
G01X0023178Y-024666D03*
G01X0022178Y-024666D03*
G01X0021178Y-024666D03*
G01X0020678Y-025666D03*
G01X0021678Y-025666D03*
G01X0022678Y-025666D03*
G01X0023678Y-025666D03*
G01X0032428Y-025666D03*
G01X0032428Y-026666D03*
G01X0032428Y-027666D03*
G01X0032428Y-028666D03*
G01X0032428Y-029666D03*
G01X0032428Y-030666D03*
G01X0032428Y-031666D03*
G01X0032428Y-032666D03*
G54D37*
G01X0024678Y-036166D03*
G01X0020178Y-036166D03*
G01X0020178Y-022166D03*
G01X0024678Y-022166D03*
G54D38*
G01X0026038Y-022186D02*
G01X0026038Y-021586D01*
G01X0027818Y-021586D02*
G01X0027818Y-022186D01*
G01X0027818Y-024146D02*
G01X0027818Y-024746D01*
G01X0029378Y-025666D02*
G01X0029978Y-025666D01*
G01X0029978Y-026666D02*
G01X0029378Y-026666D01*
G01X0029378Y-027666D02*
G01X0029978Y-027666D01*
G01X0029978Y-028666D02*
G01X0029378Y-028666D01*
G01X0029378Y-029666D02*
G01X0029978Y-029666D01*
G01X0029978Y-030666D02*
G01X0029378Y-030666D01*
G01X0029378Y-031666D02*
G01X0029978Y-031666D01*
G01X0029978Y-032666D02*
G01X0029378Y-032666D01*
G01X0027818Y-033586D02*
G01X0027818Y-034186D01*
G01X0026038Y-034186D02*
G01X0026038Y-033586D01*
G01X0026038Y-036146D02*
G01X0026038Y-036746D01*
G01X0027818Y-036746D02*
G01X0027818Y-036146D01*
G01X0033128Y-035666D02*
G01X0033728Y-035666D01*
G01X0033728Y-034666D02*
G01X0033128Y-034666D01*
G01X0033128Y-033666D02*
G01X0033728Y-033666D01*
G01X0033728Y-032666D02*
G01X0033128Y-032666D01*
G01X0033128Y-030666D02*
G01X0033728Y-030666D01*
G01X0033728Y-029666D02*
G01X0033128Y-029666D01*
G01X0033128Y-028666D02*
G01X0033728Y-028666D01*
G01X0033728Y-027666D02*
G01X0033128Y-027666D01*
G01X0033128Y-025666D02*
G01X0033728Y-025666D01*
G01X0033728Y-024666D02*
G01X0033128Y-024666D01*
G01X0033128Y-023666D02*
G01X0033728Y-023666D01*
G01X0033728Y-022666D02*
G01X0033128Y-022666D01*
G01X0026038Y-024146D02*
G01X0026038Y-024746D01*
G54D39*
G01X0026077Y-027515D03*
G01X0026077Y-027771D03*
G01X0026077Y-028026D03*
G01X0026077Y-028282D03*
G01X0026077Y-028538D03*
G01X0026077Y-028794D03*
G01X0026077Y-029050D03*
G01X0026077Y-029306D03*
G01X0026077Y-029562D03*
G01X0026077Y-029818D03*
G01X0023779Y-029818D03*
G01X0023779Y-029562D03*
G01X0023779Y-029306D03*
G01X0023779Y-029050D03*
G01X0023779Y-028794D03*
G01X0023779Y-028538D03*
G01X0023779Y-028282D03*
G01X0023779Y-028026D03*
G01X0023779Y-027771D03*
G01X0023779Y-027515D03*
G54D40*
G01X0018361Y-027040D03*
G01X0018361Y-026292D03*
G01X0017495Y-026666D03*
G54D41*
G01X0019843Y-027166D03*
G01X0020513Y-027166D03*
G01X0025843Y-032666D03*
G01X0026513Y-032666D03*
G54D42*
G01X0025678Y-031501D03*
G01X0025678Y-030832D03*
G01X0023928Y-030832D03*
G01X0023928Y-031501D03*
G01X0021928Y-031501D03*
G01X0021928Y-030832D03*
G01X0018763Y-032166D03*
G01X0018093Y-032166D03*
G01X0018093Y-028166D03*
G01X0018763Y-028166D03*
G01X0018263Y-025166D03*
G01X0017593Y-025166D03*
G01X0028678Y-024832D03*
G01X0028678Y-025501D03*
G01X0031428Y-031682D03*
G01X0031428Y-032351D03*
G01X0032428Y-033582D03*
G01X0032428Y-034251D03*
G01X0032428Y-035582D03*
G01X0032428Y-036251D03*
G54D43*
G01X0019668Y-031056D03*
G01X0019668Y-030156D03*
G01X0019668Y-029256D03*
G54D44*
G01X0017188Y-030166D03*
G54D45*
G01X0021178Y-029190D03*
G01X0021678Y-029190D03*
G01X0022178Y-029190D03*
G01X0022678Y-029190D03*
G01X0022678Y-027143D03*
G01X0022178Y-027143D03*
G01X0021678Y-027143D03*
G01X0021178Y-027143D03*
G54D46*
G01X0020928Y-030871D03*
G01X0020928Y-031461D03*
G01X0022928Y-031461D03*
G01X0022928Y-030871D03*
G01X0024928Y-030871D03*
G01X0024928Y-031461D03*
G54D47*
G01X0031178Y-026717D03*
G01X0031178Y-025615D03*
G54D48*
G01X0031178Y-028399D03*
G01X0031178Y-029934D03*
G54D49*
G01X0017826Y-035269D03*
G01X0017826Y-023064D03*
G01X0030030Y-023064D03*
G01X0030030Y-035269D03*
M02*
