G04 This is an RS-274x file exported by *
G04 gerbv version 2.6.1 *
G04 More information is available about gerbv at *
G04 http://gerbv.geda-project.org/ *
G04 --End of header info--*
%MOIN*%
%FSLAX34Y34*%
%IPPOS*%
G04 --Define apertures--*
%ADD10C,0.0059*%
%ADD11R,0.0600X0.0600*%
%ADD12C,0.0600*%
%ADD13C,0.1500*%
%ADD14R,0.1500X0.1500*%
%ADD15R,0.1000X0.1000*%
%ADD16C,0.1000*%
%ADD17C,0.1772*%
%ADD18R,0.0787X0.0787*%
%ADD19C,0.0787*%
%ADD20R,0.0550X0.0550*%
%ADD21C,0.0550*%
%ADD22C,0.1600*%
%ADD23C,0.0634*%
%ADD24C,0.1360*%
%ADD25C,0.0680*%
%ADD26R,0.0474X0.0513*%
%ADD27C,0.1340*%
G04 --Start main section--*
G54D11*
G01X0002750Y-006000D03*
G54D12*
G01X0001750Y-006000D03*
G54D13*
G01X0005750Y-016000D03*
G01X0007750Y-016000D03*
G54D14*
G01X0003750Y-016000D03*
G54D13*
G01X0009750Y-016000D03*
G54D15*
G01X0008750Y-001500D03*
G54D16*
G01X0006750Y-001500D03*
G01X0004750Y-001500D03*
G54D17*
G01X0012000Y-016000D03*
G01X0001500Y-016000D03*
G01X0012000Y-001500D03*
G01X0001500Y-001500D03*
G54D18*
G01X0011250Y-010750D03*
G54D19*
G01X0011250Y-009750D03*
G01X0011250Y-008750D03*
G01X0011250Y-007750D03*
G54D11*
G01X0002750Y-025685D03*
G54D12*
G01X0001750Y-025685D03*
G54D13*
G01X0005750Y-035685D03*
G01X0007750Y-035685D03*
G54D14*
G01X0003750Y-035685D03*
G54D13*
G01X0009750Y-035685D03*
G54D15*
G01X0008750Y-021185D03*
G54D16*
G01X0006750Y-021185D03*
G01X0004750Y-021185D03*
G54D17*
G01X0012000Y-035685D03*
G01X0001500Y-035685D03*
G01X0012000Y-021185D03*
G01X0001500Y-021185D03*
G54D18*
G01X0011250Y-030435D03*
G54D19*
G01X0011250Y-029435D03*
G01X0011250Y-028435D03*
G01X0011250Y-027435D03*
G54D20*
G01X0024998Y-001500D03*
G54D21*
G01X0025998Y-001500D03*
G01X0026998Y-001500D03*
G54D13*
G01X0028998Y-012750D03*
G01X0028998Y-010750D03*
G54D14*
G01X0028998Y-014750D03*
G54D13*
G01X0028998Y-008750D03*
G54D15*
G01X0019998Y-018000D03*
G54D16*
G01X0021998Y-018000D03*
G54D15*
G01X0021998Y-001500D03*
G54D16*
G01X0019998Y-001500D03*
G54D20*
G01X0024998Y-018000D03*
G54D21*
G01X0025998Y-018000D03*
G01X0026998Y-018000D03*
G54D17*
G01X0028998Y-001500D03*
G54D22*
G01X0028998Y-018000D03*
G01X0017248Y-018000D03*
G01X0017248Y-001500D03*
G01X0015748Y-039370D02*
G54D23*
G01X0020678Y-033666D03*
G01X0021678Y-033666D03*
G01X0022678Y-033666D03*
G01X0023678Y-033666D03*
G01X0023178Y-032666D03*
G01X0022178Y-032666D03*
G01X0021178Y-032666D03*
G01X0024178Y-032666D03*
G01X0027428Y-032666D03*
G01X0027428Y-031666D03*
G01X0027428Y-030666D03*
G01X0027428Y-029666D03*
G01X0027428Y-028666D03*
G01X0027428Y-027666D03*
G01X0027428Y-026666D03*
G01X0027428Y-025666D03*
G01X0024178Y-024666D03*
G01X0023178Y-024666D03*
G01X0022178Y-024666D03*
G01X0021178Y-024666D03*
G01X0020678Y-025666D03*
G01X0021678Y-025666D03*
G01X0022678Y-025666D03*
G01X0023678Y-025666D03*
G01X0032428Y-025666D03*
G01X0032428Y-026666D03*
G01X0032428Y-027666D03*
G01X0032428Y-028666D03*
G01X0032428Y-029666D03*
G01X0032428Y-030666D03*
G01X0032428Y-031666D03*
G01X0032428Y-032666D03*
G54D24*
G01X0024678Y-036166D03*
G01X0020178Y-036166D03*
G01X0020178Y-022166D03*
G01X0024678Y-022166D03*
G54D25*
G01X0026038Y-022186D02*
G01X0026038Y-021586D01*
G01X0027818Y-021586D02*
G01X0027818Y-022186D01*
G01X0027818Y-024146D02*
G01X0027818Y-024746D01*
G01X0029378Y-025666D02*
G01X0029978Y-025666D01*
G01X0029978Y-026666D02*
G01X0029378Y-026666D01*
G01X0029378Y-027666D02*
G01X0029978Y-027666D01*
G01X0029978Y-028666D02*
G01X0029378Y-028666D01*
G01X0029378Y-029666D02*
G01X0029978Y-029666D01*
G01X0029978Y-030666D02*
G01X0029378Y-030666D01*
G01X0029378Y-031666D02*
G01X0029978Y-031666D01*
G01X0029978Y-032666D02*
G01X0029378Y-032666D01*
G01X0027818Y-033586D02*
G01X0027818Y-034186D01*
G01X0026038Y-034186D02*
G01X0026038Y-033586D01*
G01X0026038Y-036146D02*
G01X0026038Y-036746D01*
G01X0027818Y-036746D02*
G01X0027818Y-036146D01*
G01X0033128Y-035666D02*
G01X0033728Y-035666D01*
G01X0033728Y-034666D02*
G01X0033128Y-034666D01*
G01X0033128Y-033666D02*
G01X0033728Y-033666D01*
G01X0033728Y-032666D02*
G01X0033128Y-032666D01*
G01X0033128Y-030666D02*
G01X0033728Y-030666D01*
G01X0033728Y-029666D02*
G01X0033128Y-029666D01*
G01X0033128Y-028666D02*
G01X0033728Y-028666D01*
G01X0033728Y-027666D02*
G01X0033128Y-027666D01*
G01X0033128Y-025666D02*
G01X0033728Y-025666D01*
G01X0033728Y-024666D02*
G01X0033128Y-024666D01*
G01X0033128Y-023666D02*
G01X0033728Y-023666D01*
G01X0033728Y-022666D02*
G01X0033128Y-022666D01*
G01X0026038Y-024146D02*
G01X0026038Y-024746D01*
G54D26*
G01X0028093Y-026666D03*
G01X0028763Y-026666D03*
G01X0028763Y-027666D03*
G01X0028093Y-027666D03*
G01X0028093Y-028666D03*
G01X0028763Y-028666D03*
G01X0026428Y-028332D03*
G01X0026428Y-029001D03*
G54D27*
G01X0017826Y-035269D03*
G01X0017826Y-023064D03*
G01X0030030Y-023064D03*
G01X0030030Y-035269D03*
M02*
