G04 This is an RS-274x file exported by *
G04 gerbv version 2.6.1 *
G04 More information is available about gerbv at *
G04 http://gerbv.geda-project.org/ *
G04 --End of header info--*
%MOIN*%
%FSLAX34Y34*%
%IPPOS*%
G04 --Define apertures--*
%ADD10C,0.0059*%
%ADD11C,0.0039*%
G04 --Start main section--*
G54D11*
G01X0000000Y-016000D02*
G01X0000000Y-001500D01*
G01X0012000Y-017500D02*
G01X0001500Y-017500D01*
G01X0013500Y-001500D02*
G01X0013500Y-016000D01*
G01X0001500Y0000000D02*
G01X0012000Y0000000D01*
G01X0013500Y-001500D02*
G75*
G03X0012000Y0000000I-001500J0000000D01*
G01X0001500Y0000000D02*
G75*
G03X0000000Y-001500I0000000J-001500D01*
G01X0000000Y-016000D02*
G75*
G03X0001500Y-017500I0001500J0000000D01*
G01X0012000Y-017500D02*
G75*
G03X0013500Y-016000I0000000J0001500D01*
G01X0000000Y-019685D02*
G01X0000000Y-035685D02*
G01X0000000Y-021185D01*
G01X0012000Y-037185D02*
G01X0001500Y-037185D01*
G01X0013500Y-021185D02*
G01X0013500Y-035685D01*
G01X0001500Y-019685D02*
G01X0012000Y-019685D01*
G01X0013500Y-021185D02*
G75*
G03X0012000Y-019685I-001500J0000000D01*
G01X0001500Y-019685D02*
G75*
G03X0000000Y-021185I0000000J-001500D01*
G01X0000000Y-035685D02*
G75*
G03X0001500Y-037185I0001500J0000000D01*
G01X0012000Y-037185D02*
G75*
G03X0013500Y-035685I0000000J0001500D01*
G01X0015748Y0000000D02*
G01X0015748Y-001500D02*
G01X0015748Y-018000D01*
G01X0028998Y0000000D02*
G01X0017248Y0000000D01*
G01X0030498Y-018000D02*
G01X0030498Y-001500D01*
G01X0017248Y-019500D02*
G01X0028998Y-019500D01*
G01X0015748Y-018000D02*
G75*
G03X0017248Y-019500I0001500J0000000D01*
G01X0028998Y-019500D02*
G75*
G03X0030498Y-018000I0000000J0001500D01*
G01X0030498Y-001500D02*
G75*
G03X0028998Y0000000I-001500J0000000D01*
G01X0017248Y0000000D02*
G75*
G03X0015748Y-001500I0000000J-001500D01*
M02*
