M48
;DRILL file {Pcbnew (2013-may-18)-stable} date Wed 03 Jun 2015 10:45:22 PM CEST
;FORMAT={3:3/ absolute / metric / suppress leading zeros}
FMAT,2
METRIC,TZ
T1C0.635
T2C0.813
T3C1.524
T4C3.048
T5C3.500
%
G90
G05
M71
T1
X9525Y-40640
X13970Y-31750
X15240Y-32385
X17780Y-29210
X19050Y-32385
X20320Y-13335
X20320Y-36830
X21590Y-8255
X22225Y-9525
X24130Y-29210
X24130Y-32385
X24130Y-36830
T2
X23495Y-3810
X23495Y-45720
X26035Y-3810
X26035Y-45720
X28575Y-3810
X28575Y-45720
T3
X10795Y-3810
X10795Y-45720
X15875Y-3810
X15875Y-45720
X33655Y-22225
X33655Y-27305
X33655Y-32385
X33655Y-37465
T4
X3810Y-3810
X3810Y-45720
X33655Y-45720
T5
X33655Y-3810
T0
M30
