G04 (created by PCBNEW (2013-may-18)-stable) date Tue 26 May 2015 10:23:06 PM CEST*
%MOIN*%
G04 Gerber Fmt 3.4, Leading zero omitted, Abs format*
%FSLAX34Y34*%
G01*
G70*
G90*
G04 APERTURE LIST*
%ADD10C,0.00590551*%
%ADD11C,0.00738189*%
%ADD12C,0.0001*%
%ADD13R,0.055X0.055*%
%ADD14C,0.055*%
%ADD15C,0.15*%
%ADD16R,0.15X0.15*%
%ADD17R,0.1X0.1*%
%ADD18C,0.1*%
%ADD19C,0.177165*%
%ADD20C,0.16*%
G04 APERTURE END LIST*
G54D10*
G54D11*
X70331Y-57714D02*
X70289Y-57728D01*
X70275Y-57742D01*
X70260Y-57771D01*
X70260Y-57813D01*
X70275Y-57841D01*
X70289Y-57855D01*
X70317Y-57869D01*
X70429Y-57869D01*
X70429Y-57574D01*
X70331Y-57574D01*
X70303Y-57588D01*
X70289Y-57602D01*
X70275Y-57630D01*
X70275Y-57658D01*
X70289Y-57686D01*
X70303Y-57700D01*
X70331Y-57714D01*
X70429Y-57714D01*
X70275Y-55588D02*
X70303Y-55574D01*
X70345Y-55574D01*
X70387Y-55588D01*
X70415Y-55616D01*
X70429Y-55644D01*
X70443Y-55700D01*
X70443Y-55742D01*
X70429Y-55799D01*
X70415Y-55827D01*
X70387Y-55855D01*
X70345Y-55869D01*
X70317Y-55869D01*
X70275Y-55855D01*
X70260Y-55841D01*
X70260Y-55742D01*
X70317Y-55742D01*
X70260Y-53869D02*
X70359Y-53728D01*
X70429Y-53869D02*
X70429Y-53574D01*
X70317Y-53574D01*
X70289Y-53588D01*
X70275Y-53602D01*
X70260Y-53630D01*
X70260Y-53672D01*
X70275Y-53700D01*
X70289Y-53714D01*
X70317Y-53728D01*
X70429Y-53728D01*
X70429Y-51757D02*
X70204Y-51757D01*
X70317Y-51869D02*
X70317Y-51644D01*
X69909Y-51869D02*
X70078Y-51869D01*
X69993Y-51869D02*
X69993Y-51574D01*
X70021Y-51616D01*
X70050Y-51644D01*
X70078Y-51658D01*
X69796Y-51602D02*
X69782Y-51588D01*
X69754Y-51574D01*
X69684Y-51574D01*
X69656Y-51588D01*
X69642Y-51602D01*
X69628Y-51630D01*
X69628Y-51658D01*
X69642Y-51700D01*
X69811Y-51869D01*
X69628Y-51869D01*
X69543Y-51574D02*
X69445Y-51869D01*
X69347Y-51574D01*
X64862Y-60007D02*
X64637Y-60007D01*
X62862Y-60007D02*
X62637Y-60007D01*
X62749Y-60119D02*
X62749Y-59894D01*
X64862Y-45507D02*
X64637Y-45507D01*
X62862Y-45507D02*
X62637Y-45507D01*
X62749Y-45619D02*
X62749Y-45394D01*
G54D12*
G36*
X67704Y-56509D02*
X67705Y-56529D01*
X67708Y-56546D01*
X67713Y-56561D01*
X67722Y-56576D01*
X67735Y-56591D01*
X67738Y-56594D01*
X67755Y-56609D01*
X67773Y-56621D01*
X67795Y-56632D01*
X67815Y-56639D01*
X67815Y-56532D01*
X67818Y-56523D01*
X67824Y-56516D01*
X67834Y-56511D01*
X67839Y-56509D01*
X67845Y-56508D01*
X67855Y-56507D01*
X67869Y-56506D01*
X67887Y-56506D01*
X67908Y-56505D01*
X67918Y-56505D01*
X67934Y-56504D01*
X67949Y-56504D01*
X67962Y-56503D01*
X67973Y-56503D01*
X67982Y-56502D01*
X67988Y-56502D01*
X67990Y-56501D01*
X67993Y-56501D01*
X67997Y-56503D01*
X68001Y-56506D01*
X68005Y-56510D01*
X68014Y-56520D01*
X68020Y-56530D01*
X68021Y-56540D01*
X68019Y-56551D01*
X68014Y-56560D01*
X68005Y-56567D01*
X67992Y-56574D01*
X67977Y-56579D01*
X67959Y-56583D01*
X67955Y-56583D01*
X67944Y-56584D01*
X67931Y-56584D01*
X67917Y-56584D01*
X67902Y-56584D01*
X67889Y-56583D01*
X67877Y-56581D01*
X67873Y-56580D01*
X67857Y-56576D01*
X67843Y-56570D01*
X67832Y-56563D01*
X67823Y-56555D01*
X67817Y-56547D01*
X67815Y-56542D01*
X67815Y-56532D01*
X67815Y-56639D01*
X67819Y-56641D01*
X67846Y-56648D01*
X67867Y-56652D01*
X67880Y-56654D01*
X67895Y-56656D01*
X67912Y-56657D01*
X67930Y-56657D01*
X67948Y-56657D01*
X67964Y-56657D01*
X67978Y-56656D01*
X67981Y-56656D01*
X68010Y-56652D01*
X68035Y-56646D01*
X68057Y-56638D01*
X68075Y-56628D01*
X68091Y-56616D01*
X68103Y-56603D01*
X68111Y-56588D01*
X68112Y-56586D01*
X68115Y-56572D01*
X68116Y-56557D01*
X68115Y-56542D01*
X68112Y-56531D01*
X68106Y-56521D01*
X68098Y-56510D01*
X68087Y-56499D01*
X68076Y-56490D01*
X68070Y-56486D01*
X68064Y-56482D01*
X68059Y-56479D01*
X68057Y-56477D01*
X68057Y-56476D01*
X68058Y-56474D01*
X68062Y-56470D01*
X68066Y-56467D01*
X68078Y-56455D01*
X68087Y-56441D01*
X68093Y-56426D01*
X68095Y-56411D01*
X68094Y-56395D01*
X68090Y-56383D01*
X68086Y-56374D01*
X68079Y-56363D01*
X68070Y-56353D01*
X68062Y-56344D01*
X68059Y-56342D01*
X68054Y-56338D01*
X68050Y-56335D01*
X68049Y-56333D01*
X68050Y-56331D01*
X68054Y-56327D01*
X68059Y-56322D01*
X68062Y-56318D01*
X68076Y-56303D01*
X68087Y-56286D01*
X68094Y-56267D01*
X68098Y-56247D01*
X68099Y-56236D01*
X68099Y-56212D01*
X68095Y-56190D01*
X68087Y-56169D01*
X68077Y-56151D01*
X68063Y-56134D01*
X68045Y-56120D01*
X68025Y-56108D01*
X68002Y-56098D01*
X67976Y-56091D01*
X67973Y-56090D01*
X67961Y-56088D01*
X67948Y-56087D01*
X67933Y-56087D01*
X67918Y-56087D01*
X67905Y-56088D01*
X67893Y-56089D01*
X67889Y-56090D01*
X67885Y-56091D01*
X67881Y-56092D01*
X67875Y-56092D01*
X67868Y-56093D01*
X67859Y-56093D01*
X67847Y-56093D01*
X67833Y-56094D01*
X67815Y-56094D01*
X67795Y-56094D01*
X67791Y-56094D01*
X67706Y-56095D01*
X67706Y-56138D01*
X67707Y-56180D01*
X67746Y-56181D01*
X67758Y-56181D01*
X67768Y-56182D01*
X67776Y-56182D01*
X67782Y-56182D01*
X67784Y-56183D01*
X67784Y-56183D01*
X67779Y-56194D01*
X67775Y-56202D01*
X67772Y-56208D01*
X67771Y-56214D01*
X67770Y-56220D01*
X67769Y-56228D01*
X67769Y-56231D01*
X67770Y-56254D01*
X67774Y-56275D01*
X67782Y-56294D01*
X67793Y-56311D01*
X67807Y-56326D01*
X67825Y-56339D01*
X67845Y-56349D01*
X67869Y-56357D01*
X67871Y-56358D01*
X67872Y-56358D01*
X67872Y-56230D01*
X67872Y-56230D01*
X67873Y-56216D01*
X67874Y-56206D01*
X67877Y-56197D01*
X67882Y-56190D01*
X67888Y-56183D01*
X67900Y-56173D01*
X67913Y-56168D01*
X67928Y-56165D01*
X67931Y-56165D01*
X67946Y-56167D01*
X67958Y-56171D01*
X67969Y-56178D01*
X67975Y-56183D01*
X67982Y-56193D01*
X67986Y-56203D01*
X67989Y-56215D01*
X67990Y-56230D01*
X67988Y-56247D01*
X67984Y-56262D01*
X67977Y-56274D01*
X67968Y-56283D01*
X67955Y-56290D01*
X67953Y-56291D01*
X67945Y-56293D01*
X67936Y-56293D01*
X67925Y-56293D01*
X67915Y-56292D01*
X67907Y-56290D01*
X67905Y-56289D01*
X67892Y-56281D01*
X67883Y-56271D01*
X67878Y-56263D01*
X67875Y-56257D01*
X67874Y-56252D01*
X67873Y-56247D01*
X67872Y-56240D01*
X67872Y-56230D01*
X67872Y-56358D01*
X67886Y-56361D01*
X67904Y-56363D01*
X67922Y-56364D01*
X67941Y-56364D01*
X67957Y-56363D01*
X67968Y-56361D01*
X67986Y-56358D01*
X67992Y-56363D01*
X67999Y-56371D01*
X68002Y-56379D01*
X68003Y-56388D01*
X68000Y-56397D01*
X67996Y-56403D01*
X67993Y-56406D01*
X67989Y-56408D01*
X67985Y-56410D01*
X67981Y-56411D01*
X67975Y-56412D01*
X67967Y-56413D01*
X67957Y-56414D01*
X67944Y-56415D01*
X67929Y-56415D01*
X67910Y-56416D01*
X67896Y-56416D01*
X67879Y-56416D01*
X67862Y-56417D01*
X67846Y-56417D01*
X67833Y-56418D01*
X67821Y-56419D01*
X67813Y-56419D01*
X67807Y-56420D01*
X67807Y-56420D01*
X67783Y-56425D01*
X67762Y-56431D01*
X67744Y-56440D01*
X67730Y-56451D01*
X67718Y-56463D01*
X67711Y-56474D01*
X67709Y-56481D01*
X67707Y-56486D01*
X67705Y-56492D01*
X67705Y-56499D01*
X67704Y-56509D01*
X67704Y-56509D01*
X67704Y-56509D01*
X67704Y-56509D01*
G37*
G36*
X68674Y-56294D02*
X68674Y-56307D01*
X68675Y-56318D01*
X68675Y-56326D01*
X68676Y-56333D01*
X68677Y-56339D01*
X68678Y-56346D01*
X68680Y-56352D01*
X68688Y-56377D01*
X68699Y-56400D01*
X68713Y-56420D01*
X68728Y-56438D01*
X68742Y-56452D01*
X68757Y-56463D01*
X68772Y-56473D01*
X68786Y-56480D01*
X68794Y-56483D01*
X68794Y-56287D01*
X68794Y-56273D01*
X68795Y-56261D01*
X68796Y-56256D01*
X68801Y-56238D01*
X68808Y-56222D01*
X68817Y-56207D01*
X68827Y-56196D01*
X68839Y-56188D01*
X68841Y-56187D01*
X68846Y-56185D01*
X68851Y-56184D01*
X68857Y-56183D01*
X68865Y-56182D01*
X68874Y-56182D01*
X68884Y-56182D01*
X68892Y-56183D01*
X68897Y-56184D01*
X68902Y-56185D01*
X68907Y-56187D01*
X68908Y-56187D01*
X68921Y-56196D01*
X68932Y-56207D01*
X68941Y-56222D01*
X68948Y-56239D01*
X68950Y-56245D01*
X68952Y-56255D01*
X68953Y-56266D01*
X68954Y-56280D01*
X68954Y-56294D01*
X68954Y-56307D01*
X68954Y-56319D01*
X68953Y-56323D01*
X68949Y-56344D01*
X68942Y-56362D01*
X68933Y-56377D01*
X68922Y-56388D01*
X68909Y-56397D01*
X68902Y-56400D01*
X68892Y-56403D01*
X68880Y-56404D01*
X68866Y-56404D01*
X68854Y-56402D01*
X68845Y-56400D01*
X68832Y-56393D01*
X68821Y-56383D01*
X68811Y-56370D01*
X68803Y-56354D01*
X68798Y-56340D01*
X68796Y-56330D01*
X68795Y-56317D01*
X68794Y-56302D01*
X68794Y-56287D01*
X68794Y-56483D01*
X68804Y-56488D01*
X68823Y-56493D01*
X68844Y-56497D01*
X68853Y-56498D01*
X68863Y-56499D01*
X68871Y-56500D01*
X68877Y-56500D01*
X68884Y-56500D01*
X68891Y-56499D01*
X68919Y-56495D01*
X68946Y-56487D01*
X68971Y-56476D01*
X68994Y-56462D01*
X69014Y-56445D01*
X69032Y-56425D01*
X69047Y-56403D01*
X69054Y-56391D01*
X69058Y-56380D01*
X69063Y-56368D01*
X69067Y-56357D01*
X69068Y-56352D01*
X69070Y-56345D01*
X69072Y-56338D01*
X69073Y-56332D01*
X69073Y-56325D01*
X69074Y-56316D01*
X69074Y-56305D01*
X69074Y-56294D01*
X69074Y-56280D01*
X69074Y-56269D01*
X69073Y-56260D01*
X69073Y-56253D01*
X69072Y-56246D01*
X69070Y-56240D01*
X69070Y-56239D01*
X69061Y-56211D01*
X69049Y-56185D01*
X69034Y-56163D01*
X69016Y-56143D01*
X68996Y-56125D01*
X68973Y-56111D01*
X68947Y-56099D01*
X68919Y-56091D01*
X68917Y-56090D01*
X68901Y-56088D01*
X68883Y-56087D01*
X68864Y-56087D01*
X68847Y-56088D01*
X68834Y-56090D01*
X68807Y-56097D01*
X68781Y-56108D01*
X68758Y-56122D01*
X68737Y-56139D01*
X68718Y-56159D01*
X68703Y-56181D01*
X68690Y-56205D01*
X68680Y-56232D01*
X68679Y-56238D01*
X68677Y-56245D01*
X68676Y-56251D01*
X68675Y-56258D01*
X68675Y-56266D01*
X68674Y-56276D01*
X68674Y-56289D01*
X68674Y-56294D01*
X68674Y-56294D01*
X68674Y-56294D01*
G37*
G36*
X66778Y-56491D02*
X66826Y-56490D01*
X66873Y-56490D01*
X66878Y-56469D01*
X66879Y-56460D01*
X66881Y-56453D01*
X66882Y-56448D01*
X66883Y-56446D01*
X66885Y-56447D01*
X66889Y-56449D01*
X66894Y-56452D01*
X66894Y-56372D01*
X66895Y-56339D01*
X66895Y-56307D01*
X66905Y-56307D01*
X66929Y-56309D01*
X66952Y-56312D01*
X66973Y-56316D01*
X66992Y-56321D01*
X67000Y-56324D01*
X67015Y-56330D01*
X67026Y-56338D01*
X67035Y-56346D01*
X67040Y-56356D01*
X67042Y-56368D01*
X67042Y-56372D01*
X67041Y-56380D01*
X67040Y-56387D01*
X67037Y-56390D01*
X67031Y-56398D01*
X67020Y-56403D01*
X67008Y-56407D01*
X66994Y-56408D01*
X66978Y-56408D01*
X66962Y-56406D01*
X66956Y-56405D01*
X66946Y-56401D01*
X66935Y-56397D01*
X66923Y-56390D01*
X66910Y-56382D01*
X66909Y-56382D01*
X66894Y-56372D01*
X66894Y-56452D01*
X66895Y-56453D01*
X66900Y-56456D01*
X66920Y-56469D01*
X66942Y-56480D01*
X66963Y-56488D01*
X66983Y-56495D01*
X66991Y-56496D01*
X67004Y-56498D01*
X67019Y-56499D01*
X67033Y-56499D01*
X67045Y-56499D01*
X67045Y-56499D01*
X67068Y-56494D01*
X67088Y-56486D01*
X67107Y-56475D01*
X67122Y-56462D01*
X67135Y-56447D01*
X67145Y-56429D01*
X67151Y-56411D01*
X67153Y-56401D01*
X67154Y-56389D01*
X67154Y-56376D01*
X67153Y-56363D01*
X67152Y-56352D01*
X67152Y-56352D01*
X67146Y-56334D01*
X67137Y-56317D01*
X67125Y-56302D01*
X67109Y-56289D01*
X67096Y-56280D01*
X67078Y-56271D01*
X67056Y-56263D01*
X67031Y-56255D01*
X67003Y-56249D01*
X66972Y-56244D01*
X66939Y-56240D01*
X66922Y-56238D01*
X66894Y-56236D01*
X66895Y-56231D01*
X66901Y-56216D01*
X66909Y-56203D01*
X66921Y-56193D01*
X66935Y-56186D01*
X66951Y-56182D01*
X66971Y-56179D01*
X66993Y-56180D01*
X67016Y-56184D01*
X67041Y-56191D01*
X67067Y-56201D01*
X67080Y-56207D01*
X67088Y-56210D01*
X67094Y-56213D01*
X67098Y-56214D01*
X67100Y-56215D01*
X67101Y-56212D01*
X67104Y-56207D01*
X67108Y-56200D01*
X67112Y-56192D01*
X67118Y-56182D01*
X67123Y-56172D01*
X67128Y-56162D01*
X67133Y-56154D01*
X67136Y-56147D01*
X67139Y-56141D01*
X67140Y-56139D01*
X67140Y-56139D01*
X67135Y-56136D01*
X67128Y-56132D01*
X67118Y-56127D01*
X67106Y-56122D01*
X67094Y-56116D01*
X67081Y-56111D01*
X67068Y-56106D01*
X67057Y-56102D01*
X67053Y-56101D01*
X67032Y-56095D01*
X67009Y-56091D01*
X66985Y-56088D01*
X66962Y-56086D01*
X66939Y-56087D01*
X66919Y-56088D01*
X66911Y-56090D01*
X66885Y-56096D01*
X66861Y-56106D01*
X66841Y-56118D01*
X66823Y-56132D01*
X66808Y-56150D01*
X66796Y-56170D01*
X66792Y-56180D01*
X66789Y-56186D01*
X66787Y-56191D01*
X66786Y-56196D01*
X66784Y-56202D01*
X66783Y-56207D01*
X66782Y-56214D01*
X66781Y-56221D01*
X66780Y-56230D01*
X66780Y-56241D01*
X66779Y-56253D01*
X66779Y-56268D01*
X66779Y-56286D01*
X66779Y-56306D01*
X66779Y-56330D01*
X66778Y-56357D01*
X66778Y-56491D01*
X66778Y-56491D01*
X66778Y-56491D01*
G37*
G36*
X65339Y-56261D02*
X65339Y-56271D01*
X65339Y-56284D01*
X65340Y-56295D01*
X65340Y-56306D01*
X65341Y-56314D01*
X65341Y-56320D01*
X65342Y-56323D01*
X65343Y-56327D01*
X65444Y-56327D01*
X65444Y-56249D01*
X65445Y-56240D01*
X65447Y-56223D01*
X65453Y-56209D01*
X65462Y-56197D01*
X65473Y-56187D01*
X65487Y-56180D01*
X65504Y-56176D01*
X65519Y-56176D01*
X65538Y-56177D01*
X65555Y-56181D01*
X65570Y-56189D01*
X65584Y-56200D01*
X65591Y-56207D01*
X65597Y-56216D01*
X65602Y-56227D01*
X65606Y-56237D01*
X65608Y-56243D01*
X65609Y-56250D01*
X65527Y-56250D01*
X65444Y-56249D01*
X65444Y-56327D01*
X65476Y-56327D01*
X65609Y-56327D01*
X65608Y-56333D01*
X65602Y-56351D01*
X65595Y-56367D01*
X65584Y-56380D01*
X65571Y-56390D01*
X65558Y-56397D01*
X65544Y-56403D01*
X65528Y-56407D01*
X65511Y-56409D01*
X65491Y-56410D01*
X65485Y-56409D01*
X65466Y-56408D01*
X65449Y-56405D01*
X65432Y-56401D01*
X65415Y-56394D01*
X65409Y-56391D01*
X65402Y-56388D01*
X65396Y-56386D01*
X65392Y-56385D01*
X65392Y-56385D01*
X65391Y-56387D01*
X65388Y-56392D01*
X65383Y-56399D01*
X65378Y-56409D01*
X65373Y-56419D01*
X65372Y-56420D01*
X65366Y-56432D01*
X65361Y-56441D01*
X65358Y-56447D01*
X65356Y-56452D01*
X65356Y-56454D01*
X65357Y-56456D01*
X65359Y-56457D01*
X65365Y-56460D01*
X65373Y-56464D01*
X65381Y-56468D01*
X65383Y-56469D01*
X65406Y-56479D01*
X65427Y-56487D01*
X65449Y-56493D01*
X65472Y-56497D01*
X65487Y-56499D01*
X65498Y-56499D01*
X65506Y-56500D01*
X65514Y-56500D01*
X65522Y-56500D01*
X65532Y-56499D01*
X65538Y-56498D01*
X65568Y-56494D01*
X65595Y-56486D01*
X65621Y-56475D01*
X65644Y-56461D01*
X65665Y-56445D01*
X65684Y-56426D01*
X65699Y-56404D01*
X65712Y-56380D01*
X65718Y-56364D01*
X65724Y-56340D01*
X65728Y-56316D01*
X65729Y-56290D01*
X65727Y-56264D01*
X65723Y-56240D01*
X65716Y-56217D01*
X65713Y-56210D01*
X65700Y-56185D01*
X65685Y-56162D01*
X65666Y-56142D01*
X65645Y-56125D01*
X65621Y-56110D01*
X65596Y-56099D01*
X65568Y-56091D01*
X65559Y-56089D01*
X65548Y-56087D01*
X65534Y-56087D01*
X65519Y-56087D01*
X65503Y-56087D01*
X65489Y-56089D01*
X65476Y-56090D01*
X65476Y-56090D01*
X65451Y-56097D01*
X65428Y-56108D01*
X65407Y-56121D01*
X65389Y-56136D01*
X65386Y-56140D01*
X65371Y-56158D01*
X65360Y-56177D01*
X65351Y-56199D01*
X65344Y-56223D01*
X65343Y-56229D01*
X65341Y-56237D01*
X65340Y-56245D01*
X65339Y-56252D01*
X65339Y-56261D01*
X65339Y-56261D01*
X65339Y-56261D01*
G37*
G36*
X64876Y-56491D02*
X64923Y-56491D01*
X64938Y-56491D01*
X64949Y-56491D01*
X64958Y-56490D01*
X64964Y-56490D01*
X64967Y-56490D01*
X64970Y-56489D01*
X64971Y-56488D01*
X64971Y-56487D01*
X64972Y-56484D01*
X64973Y-56478D01*
X64975Y-56470D01*
X64975Y-56467D01*
X64977Y-56459D01*
X64978Y-56453D01*
X64979Y-56450D01*
X64979Y-56450D01*
X64981Y-56451D01*
X64985Y-56453D01*
X64991Y-56458D01*
X64992Y-56459D01*
X64992Y-56368D01*
X64993Y-56287D01*
X64993Y-56206D01*
X65004Y-56199D01*
X65019Y-56190D01*
X65036Y-56185D01*
X65055Y-56182D01*
X65058Y-56182D01*
X65067Y-56183D01*
X65074Y-56183D01*
X65080Y-56185D01*
X65087Y-56187D01*
X65087Y-56188D01*
X65102Y-56197D01*
X65114Y-56209D01*
X65124Y-56224D01*
X65132Y-56242D01*
X65133Y-56248D01*
X65135Y-56257D01*
X65136Y-56269D01*
X65137Y-56283D01*
X65137Y-56297D01*
X65136Y-56312D01*
X65135Y-56325D01*
X65134Y-56336D01*
X65133Y-56340D01*
X65127Y-56358D01*
X65120Y-56373D01*
X65113Y-56382D01*
X65103Y-56392D01*
X65092Y-56398D01*
X65079Y-56402D01*
X65064Y-56403D01*
X65057Y-56403D01*
X65047Y-56403D01*
X65039Y-56401D01*
X65032Y-56399D01*
X65027Y-56396D01*
X65013Y-56388D01*
X65003Y-56379D01*
X64992Y-56368D01*
X64992Y-56459D01*
X64996Y-56462D01*
X65009Y-56471D01*
X65022Y-56479D01*
X65036Y-56487D01*
X65049Y-56492D01*
X65059Y-56495D01*
X65074Y-56498D01*
X65092Y-56499D01*
X65108Y-56499D01*
X65114Y-56498D01*
X65128Y-56496D01*
X65143Y-56491D01*
X65158Y-56486D01*
X65171Y-56479D01*
X65173Y-56479D01*
X65183Y-56471D01*
X65195Y-56462D01*
X65206Y-56451D01*
X65216Y-56440D01*
X65223Y-56429D01*
X65224Y-56429D01*
X65235Y-56407D01*
X65245Y-56382D01*
X65252Y-56355D01*
X65256Y-56327D01*
X65258Y-56299D01*
X65257Y-56270D01*
X65253Y-56242D01*
X65253Y-56241D01*
X65246Y-56214D01*
X65236Y-56189D01*
X65224Y-56166D01*
X65209Y-56146D01*
X65192Y-56128D01*
X65173Y-56113D01*
X65152Y-56101D01*
X65129Y-56092D01*
X65121Y-56090D01*
X65110Y-56088D01*
X65096Y-56087D01*
X65082Y-56087D01*
X65069Y-56087D01*
X65057Y-56089D01*
X65054Y-56090D01*
X65040Y-56095D01*
X65025Y-56102D01*
X65010Y-56111D01*
X65002Y-56117D01*
X64996Y-56121D01*
X64992Y-56124D01*
X64989Y-56126D01*
X64989Y-56126D01*
X64989Y-56123D01*
X64989Y-56118D01*
X64989Y-56110D01*
X64990Y-56101D01*
X64990Y-56097D01*
X64990Y-56089D01*
X64991Y-56077D01*
X64991Y-56062D01*
X64992Y-56046D01*
X64992Y-56029D01*
X64992Y-56011D01*
X64992Y-56001D01*
X64992Y-55931D01*
X64934Y-55931D01*
X64876Y-55931D01*
X64876Y-56211D01*
X64876Y-56491D01*
X64876Y-56491D01*
X64876Y-56491D01*
G37*
G36*
X63914Y-56491D02*
X63962Y-56491D01*
X64010Y-56491D01*
X64014Y-56469D01*
X64016Y-56460D01*
X64018Y-56453D01*
X64019Y-56448D01*
X64020Y-56446D01*
X64021Y-56447D01*
X64026Y-56449D01*
X64032Y-56453D01*
X64033Y-56453D01*
X64033Y-56372D01*
X64033Y-56339D01*
X64033Y-56306D01*
X64052Y-56308D01*
X64081Y-56311D01*
X64105Y-56315D01*
X64127Y-56320D01*
X64144Y-56326D01*
X64158Y-56334D01*
X64169Y-56342D01*
X64175Y-56352D01*
X64178Y-56358D01*
X64180Y-56370D01*
X64178Y-56382D01*
X64173Y-56392D01*
X64166Y-56399D01*
X64159Y-56403D01*
X64148Y-56407D01*
X64134Y-56408D01*
X64119Y-56408D01*
X64103Y-56407D01*
X64091Y-56404D01*
X64078Y-56399D01*
X64065Y-56393D01*
X64051Y-56385D01*
X64044Y-56380D01*
X64033Y-56372D01*
X64033Y-56453D01*
X64039Y-56457D01*
X64065Y-56473D01*
X64092Y-56485D01*
X64119Y-56494D01*
X64145Y-56499D01*
X64171Y-56499D01*
X64183Y-56498D01*
X64202Y-56495D01*
X64220Y-56488D01*
X64237Y-56480D01*
X64251Y-56470D01*
X64260Y-56462D01*
X64273Y-56446D01*
X64282Y-56429D01*
X64288Y-56410D01*
X64291Y-56389D01*
X64291Y-56381D01*
X64290Y-56359D01*
X64285Y-56339D01*
X64277Y-56322D01*
X64266Y-56306D01*
X64251Y-56292D01*
X64232Y-56279D01*
X64226Y-56276D01*
X64207Y-56268D01*
X64186Y-56261D01*
X64161Y-56254D01*
X64134Y-56248D01*
X64105Y-56244D01*
X64074Y-56240D01*
X64050Y-56237D01*
X64041Y-56237D01*
X64036Y-56236D01*
X64033Y-56233D01*
X64033Y-56230D01*
X64034Y-56224D01*
X64036Y-56220D01*
X64042Y-56208D01*
X64051Y-56198D01*
X64063Y-56190D01*
X64077Y-56184D01*
X64094Y-56181D01*
X64112Y-56179D01*
X64132Y-56180D01*
X64152Y-56184D01*
X64174Y-56189D01*
X64179Y-56191D01*
X64189Y-56195D01*
X64201Y-56200D01*
X64212Y-56204D01*
X64217Y-56206D01*
X64225Y-56210D01*
X64231Y-56212D01*
X64235Y-56214D01*
X64237Y-56214D01*
X64238Y-56212D01*
X64240Y-56208D01*
X64244Y-56201D01*
X64249Y-56192D01*
X64254Y-56183D01*
X64259Y-56173D01*
X64265Y-56163D01*
X64269Y-56155D01*
X64273Y-56148D01*
X64275Y-56143D01*
X64276Y-56141D01*
X64276Y-56140D01*
X64274Y-56138D01*
X64270Y-56135D01*
X64263Y-56131D01*
X64254Y-56127D01*
X64251Y-56125D01*
X64217Y-56111D01*
X64184Y-56099D01*
X64153Y-56091D01*
X64137Y-56089D01*
X64125Y-56088D01*
X64111Y-56087D01*
X64095Y-56087D01*
X64080Y-56087D01*
X64065Y-56088D01*
X64052Y-56089D01*
X64048Y-56090D01*
X64023Y-56096D01*
X64000Y-56105D01*
X63979Y-56117D01*
X63961Y-56132D01*
X63946Y-56149D01*
X63934Y-56168D01*
X63925Y-56190D01*
X63922Y-56199D01*
X63921Y-56206D01*
X63920Y-56212D01*
X63918Y-56219D01*
X63917Y-56227D01*
X63917Y-56235D01*
X63916Y-56245D01*
X63915Y-56257D01*
X63915Y-56270D01*
X63915Y-56286D01*
X63915Y-56305D01*
X63914Y-56326D01*
X63914Y-56351D01*
X63914Y-56370D01*
X63914Y-56491D01*
X63914Y-56491D01*
X63914Y-56491D01*
G37*
G36*
X63429Y-56440D02*
X63430Y-56443D01*
X63434Y-56446D01*
X63440Y-56451D01*
X63448Y-56457D01*
X63457Y-56463D01*
X63467Y-56469D01*
X63470Y-56470D01*
X63497Y-56482D01*
X63525Y-56491D01*
X63556Y-56497D01*
X63567Y-56498D01*
X63578Y-56499D01*
X63586Y-56500D01*
X63593Y-56500D01*
X63600Y-56500D01*
X63608Y-56499D01*
X63637Y-56496D01*
X63663Y-56490D01*
X63688Y-56482D01*
X63694Y-56479D01*
X63706Y-56473D01*
X63719Y-56466D01*
X63732Y-56457D01*
X63743Y-56449D01*
X63749Y-56444D01*
X63759Y-56434D01*
X63769Y-56421D01*
X63779Y-56408D01*
X63787Y-56394D01*
X63788Y-56391D01*
X63798Y-56367D01*
X63805Y-56341D01*
X63809Y-56315D01*
X63810Y-56288D01*
X63808Y-56261D01*
X63803Y-56236D01*
X63794Y-56212D01*
X63790Y-56202D01*
X63776Y-56178D01*
X63759Y-56157D01*
X63739Y-56138D01*
X63716Y-56122D01*
X63690Y-56109D01*
X63664Y-56099D01*
X63644Y-56093D01*
X63626Y-56090D01*
X63607Y-56088D01*
X63586Y-56087D01*
X63581Y-56087D01*
X63557Y-56088D01*
X63534Y-56090D01*
X63514Y-56095D01*
X63493Y-56103D01*
X63476Y-56111D01*
X63467Y-56116D01*
X63457Y-56121D01*
X63449Y-56127D01*
X63442Y-56132D01*
X63437Y-56136D01*
X63435Y-56140D01*
X63435Y-56141D01*
X63437Y-56143D01*
X63441Y-56149D01*
X63446Y-56156D01*
X63452Y-56164D01*
X63459Y-56173D01*
X63466Y-56182D01*
X63472Y-56191D01*
X63478Y-56199D01*
X63483Y-56205D01*
X63486Y-56209D01*
X63488Y-56211D01*
X63488Y-56211D01*
X63490Y-56210D01*
X63494Y-56207D01*
X63500Y-56204D01*
X63501Y-56203D01*
X63509Y-56198D01*
X63519Y-56194D01*
X63529Y-56189D01*
X63530Y-56189D01*
X63539Y-56186D01*
X63546Y-56184D01*
X63553Y-56183D01*
X63562Y-56182D01*
X63571Y-56182D01*
X63592Y-56182D01*
X63611Y-56185D01*
X63628Y-56191D01*
X63643Y-56200D01*
X63657Y-56211D01*
X63669Y-56224D01*
X63678Y-56239D01*
X63685Y-56256D01*
X63688Y-56276D01*
X63689Y-56285D01*
X63689Y-56307D01*
X63685Y-56327D01*
X63679Y-56346D01*
X63669Y-56362D01*
X63656Y-56377D01*
X63641Y-56388D01*
X63624Y-56397D01*
X63612Y-56401D01*
X63601Y-56403D01*
X63587Y-56404D01*
X63573Y-56404D01*
X63558Y-56403D01*
X63546Y-56401D01*
X63542Y-56400D01*
X63530Y-56396D01*
X63516Y-56391D01*
X63502Y-56384D01*
X63488Y-56376D01*
X63484Y-56374D01*
X63479Y-56371D01*
X63475Y-56369D01*
X63474Y-56369D01*
X63473Y-56371D01*
X63470Y-56376D01*
X63465Y-56382D01*
X63460Y-56391D01*
X63454Y-56400D01*
X63448Y-56410D01*
X63442Y-56419D01*
X63437Y-56427D01*
X63432Y-56434D01*
X63430Y-56438D01*
X63429Y-56440D01*
X63429Y-56440D01*
X63429Y-56440D01*
G37*
G36*
X62475Y-56273D02*
X62475Y-56285D01*
X62476Y-56297D01*
X62476Y-56307D01*
X62476Y-56314D01*
X62477Y-56318D01*
X62478Y-56327D01*
X62581Y-56327D01*
X62581Y-56250D01*
X62581Y-56242D01*
X62582Y-56233D01*
X62584Y-56223D01*
X62587Y-56214D01*
X62590Y-56207D01*
X62593Y-56203D01*
X62598Y-56197D01*
X62601Y-56194D01*
X62609Y-56187D01*
X62619Y-56181D01*
X62631Y-56178D01*
X62646Y-56176D01*
X62651Y-56176D01*
X62667Y-56176D01*
X62681Y-56178D01*
X62694Y-56182D01*
X62702Y-56186D01*
X62710Y-56191D01*
X62719Y-56198D01*
X62727Y-56207D01*
X62733Y-56215D01*
X62733Y-56216D01*
X62736Y-56221D01*
X62739Y-56228D01*
X62742Y-56236D01*
X62745Y-56243D01*
X62746Y-56247D01*
X62746Y-56249D01*
X62744Y-56249D01*
X62739Y-56249D01*
X62730Y-56250D01*
X62719Y-56250D01*
X62705Y-56250D01*
X62690Y-56250D01*
X62673Y-56250D01*
X62663Y-56250D01*
X62581Y-56250D01*
X62581Y-56327D01*
X62611Y-56327D01*
X62638Y-56327D01*
X62661Y-56327D01*
X62680Y-56327D01*
X62696Y-56327D01*
X62710Y-56327D01*
X62721Y-56328D01*
X62729Y-56328D01*
X62735Y-56328D01*
X62739Y-56329D01*
X62742Y-56329D01*
X62744Y-56329D01*
X62744Y-56330D01*
X62743Y-56335D01*
X62741Y-56342D01*
X62738Y-56350D01*
X62735Y-56358D01*
X62732Y-56364D01*
X62732Y-56365D01*
X62722Y-56377D01*
X62710Y-56388D01*
X62695Y-56397D01*
X62677Y-56404D01*
X62663Y-56407D01*
X62654Y-56409D01*
X62645Y-56410D01*
X62634Y-56410D01*
X62621Y-56409D01*
X62620Y-56409D01*
X62604Y-56408D01*
X62591Y-56407D01*
X62578Y-56404D01*
X62565Y-56399D01*
X62550Y-56393D01*
X62547Y-56392D01*
X62539Y-56389D01*
X62533Y-56387D01*
X62528Y-56386D01*
X62527Y-56386D01*
X62526Y-56388D01*
X62523Y-56393D01*
X62519Y-56400D01*
X62514Y-56409D01*
X62508Y-56420D01*
X62508Y-56421D01*
X62501Y-56433D01*
X62497Y-56442D01*
X62494Y-56448D01*
X62492Y-56452D01*
X62492Y-56455D01*
X62492Y-56456D01*
X62495Y-56457D01*
X62500Y-56460D01*
X62508Y-56464D01*
X62514Y-56467D01*
X62541Y-56479D01*
X62571Y-56489D01*
X62601Y-56495D01*
X62631Y-56499D01*
X62660Y-56499D01*
X62674Y-56498D01*
X62704Y-56494D01*
X62732Y-56486D01*
X62757Y-56475D01*
X62781Y-56461D01*
X62802Y-56445D01*
X62820Y-56426D01*
X62835Y-56404D01*
X62847Y-56381D01*
X62857Y-56355D01*
X62861Y-56334D01*
X62863Y-56320D01*
X62864Y-56303D01*
X62864Y-56286D01*
X62863Y-56269D01*
X62862Y-56257D01*
X62857Y-56231D01*
X62847Y-56206D01*
X62835Y-56182D01*
X62820Y-56161D01*
X62802Y-56142D01*
X62781Y-56125D01*
X62758Y-56110D01*
X62733Y-56099D01*
X62707Y-56091D01*
X62695Y-56089D01*
X62687Y-56088D01*
X62676Y-56087D01*
X62664Y-56087D01*
X62651Y-56087D01*
X62639Y-56087D01*
X62629Y-56088D01*
X62626Y-56088D01*
X62602Y-56093D01*
X62578Y-56101D01*
X62556Y-56112D01*
X62537Y-56125D01*
X62520Y-56141D01*
X62515Y-56147D01*
X62507Y-56159D01*
X62499Y-56173D01*
X62491Y-56189D01*
X62485Y-56205D01*
X62481Y-56218D01*
X62479Y-56226D01*
X62477Y-56232D01*
X62477Y-56239D01*
X62476Y-56247D01*
X62476Y-56257D01*
X62475Y-56269D01*
X62475Y-56273D01*
X62475Y-56273D01*
X62475Y-56273D01*
G37*
G36*
X69158Y-56491D02*
X69331Y-56491D01*
X69505Y-56491D01*
X69505Y-56231D01*
X69505Y-55971D01*
X69446Y-55971D01*
X69388Y-55971D01*
X69388Y-56181D01*
X69388Y-56392D01*
X69273Y-56392D01*
X69158Y-56392D01*
X69158Y-56441D01*
X69158Y-56491D01*
X69158Y-56491D01*
X69158Y-56491D01*
G37*
G36*
X68206Y-56491D02*
X68264Y-56491D01*
X68322Y-56491D01*
X68322Y-56369D01*
X68323Y-56343D01*
X68323Y-56318D01*
X68323Y-56297D01*
X68323Y-56278D01*
X68323Y-56262D01*
X68324Y-56250D01*
X68324Y-56240D01*
X68325Y-56235D01*
X68325Y-56235D01*
X68328Y-56219D01*
X68334Y-56206D01*
X68343Y-56197D01*
X68354Y-56190D01*
X68367Y-56186D01*
X68383Y-56186D01*
X68388Y-56186D01*
X68404Y-56189D01*
X68420Y-56195D01*
X68435Y-56204D01*
X68446Y-56213D01*
X68460Y-56225D01*
X68461Y-56357D01*
X68461Y-56490D01*
X68520Y-56490D01*
X68579Y-56491D01*
X68579Y-56293D01*
X68579Y-56095D01*
X68531Y-56095D01*
X68483Y-56095D01*
X68478Y-56121D01*
X68477Y-56130D01*
X68475Y-56139D01*
X68474Y-56144D01*
X68473Y-56147D01*
X68473Y-56148D01*
X68471Y-56147D01*
X68467Y-56144D01*
X68462Y-56140D01*
X68461Y-56139D01*
X68441Y-56123D01*
X68423Y-56110D01*
X68406Y-56101D01*
X68388Y-56094D01*
X68370Y-56089D01*
X68350Y-56087D01*
X68333Y-56087D01*
X68310Y-56088D01*
X68289Y-56092D01*
X68271Y-56100D01*
X68255Y-56110D01*
X68241Y-56123D01*
X68230Y-56140D01*
X68220Y-56160D01*
X68213Y-56183D01*
X68207Y-56202D01*
X68207Y-56346D01*
X68206Y-56491D01*
X68206Y-56491D01*
X68206Y-56491D01*
G37*
G36*
X67255Y-56491D02*
X67313Y-56491D01*
X67371Y-56491D01*
X67371Y-56382D01*
X67371Y-56274D01*
X67442Y-56274D01*
X67513Y-56274D01*
X67513Y-56382D01*
X67513Y-56491D01*
X67571Y-56491D01*
X67629Y-56491D01*
X67629Y-56231D01*
X67629Y-55971D01*
X67571Y-55971D01*
X67513Y-55971D01*
X67513Y-56071D01*
X67513Y-56172D01*
X67442Y-56172D01*
X67371Y-56172D01*
X67371Y-56071D01*
X67371Y-55971D01*
X67313Y-55971D01*
X67255Y-55971D01*
X67255Y-56231D01*
X67255Y-56491D01*
X67255Y-56491D01*
X67255Y-56491D01*
G37*
G36*
X66388Y-56491D02*
X66446Y-56491D01*
X66504Y-56491D01*
X66504Y-56339D01*
X66504Y-56187D01*
X66584Y-56187D01*
X66664Y-56187D01*
X66664Y-56141D01*
X66664Y-56095D01*
X66526Y-56095D01*
X66388Y-56095D01*
X66388Y-56293D01*
X66388Y-56491D01*
X66388Y-56491D01*
X66388Y-56491D01*
G37*
G36*
X65813Y-56102D02*
X65813Y-56104D01*
X65815Y-56109D01*
X65816Y-56117D01*
X65819Y-56127D01*
X65822Y-56139D01*
X65823Y-56146D01*
X65827Y-56159D01*
X65829Y-56171D01*
X65832Y-56181D01*
X65834Y-56189D01*
X65835Y-56194D01*
X65835Y-56195D01*
X65837Y-56198D01*
X65840Y-56198D01*
X65841Y-56198D01*
X65859Y-56194D01*
X65878Y-56191D01*
X65898Y-56189D01*
X65916Y-56190D01*
X65931Y-56191D01*
X65936Y-56192D01*
X65958Y-56199D01*
X65977Y-56209D01*
X65995Y-56223D01*
X66011Y-56240D01*
X66026Y-56261D01*
X66030Y-56267D01*
X66039Y-56283D01*
X66039Y-56387D01*
X66039Y-56491D01*
X66097Y-56491D01*
X66115Y-56491D01*
X66129Y-56491D01*
X66140Y-56490D01*
X66147Y-56490D01*
X66153Y-56489D01*
X66155Y-56489D01*
X66156Y-56488D01*
X66157Y-56486D01*
X66157Y-56480D01*
X66157Y-56471D01*
X66157Y-56458D01*
X66157Y-56443D01*
X66157Y-56425D01*
X66157Y-56405D01*
X66157Y-56382D01*
X66157Y-56358D01*
X66157Y-56333D01*
X66157Y-56306D01*
X66157Y-56291D01*
X66156Y-56096D01*
X66109Y-56095D01*
X66095Y-56095D01*
X66083Y-56095D01*
X66074Y-56095D01*
X66066Y-56096D01*
X66062Y-56096D01*
X66061Y-56096D01*
X66061Y-56100D01*
X66060Y-56106D01*
X66059Y-56115D01*
X66058Y-56126D01*
X66057Y-56137D01*
X66055Y-56148D01*
X66054Y-56158D01*
X66053Y-56167D01*
X66052Y-56174D01*
X66051Y-56178D01*
X66051Y-56178D01*
X66050Y-56180D01*
X66049Y-56179D01*
X66046Y-56176D01*
X66042Y-56171D01*
X66030Y-56155D01*
X66016Y-56139D01*
X66000Y-56125D01*
X65989Y-56116D01*
X65979Y-56110D01*
X65967Y-56104D01*
X65954Y-56098D01*
X65942Y-56094D01*
X65935Y-56092D01*
X65922Y-56089D01*
X65907Y-56088D01*
X65891Y-56087D01*
X65875Y-56087D01*
X65861Y-56088D01*
X65848Y-56089D01*
X65843Y-56091D01*
X65838Y-56092D01*
X65832Y-56095D01*
X65825Y-56097D01*
X65819Y-56099D01*
X65814Y-56101D01*
X65813Y-56102D01*
X65813Y-56102D01*
X65813Y-56102D01*
G37*
G36*
X64391Y-56491D02*
X64449Y-56491D01*
X64507Y-56491D01*
X64507Y-56382D01*
X64507Y-56274D01*
X64578Y-56274D01*
X64649Y-56274D01*
X64650Y-56382D01*
X64650Y-56490D01*
X64709Y-56490D01*
X64767Y-56491D01*
X64767Y-56231D01*
X64767Y-55971D01*
X64709Y-55971D01*
X64650Y-55972D01*
X64650Y-56072D01*
X64649Y-56172D01*
X64579Y-56171D01*
X64508Y-56171D01*
X64508Y-56071D01*
X64507Y-55971D01*
X64449Y-55971D01*
X64391Y-55971D01*
X64391Y-56231D01*
X64391Y-56491D01*
X64391Y-56491D01*
X64391Y-56491D01*
G37*
G36*
X62921Y-56490D02*
X62923Y-56490D01*
X62929Y-56490D01*
X62937Y-56490D01*
X62948Y-56490D01*
X62961Y-56491D01*
X62976Y-56491D01*
X62984Y-56491D01*
X63047Y-56491D01*
X63097Y-56413D01*
X63107Y-56397D01*
X63117Y-56382D01*
X63125Y-56368D01*
X63133Y-56357D01*
X63139Y-56347D01*
X63144Y-56339D01*
X63147Y-56334D01*
X63149Y-56332D01*
X63150Y-56333D01*
X63155Y-56336D01*
X63161Y-56342D01*
X63170Y-56351D01*
X63180Y-56361D01*
X63209Y-56391D01*
X63209Y-56441D01*
X63209Y-56491D01*
X63267Y-56491D01*
X63325Y-56491D01*
X63325Y-56211D01*
X63325Y-55931D01*
X63267Y-55931D01*
X63209Y-55931D01*
X63209Y-56093D01*
X63209Y-56123D01*
X63209Y-56149D01*
X63209Y-56172D01*
X63209Y-56192D01*
X63209Y-56208D01*
X63209Y-56222D01*
X63208Y-56232D01*
X63208Y-56241D01*
X63208Y-56247D01*
X63207Y-56251D01*
X63207Y-56253D01*
X63207Y-56254D01*
X63205Y-56253D01*
X63201Y-56249D01*
X63194Y-56242D01*
X63186Y-56233D01*
X63177Y-56223D01*
X63165Y-56211D01*
X63153Y-56197D01*
X63140Y-56183D01*
X63132Y-56174D01*
X63060Y-56095D01*
X62997Y-56095D01*
X62981Y-56095D01*
X62967Y-56095D01*
X62955Y-56095D01*
X62945Y-56095D01*
X62938Y-56095D01*
X62934Y-56095D01*
X62933Y-56096D01*
X62935Y-56097D01*
X62938Y-56101D01*
X62944Y-56108D01*
X62952Y-56117D01*
X62962Y-56127D01*
X62973Y-56139D01*
X62985Y-56153D01*
X62998Y-56167D01*
X63007Y-56177D01*
X63021Y-56192D01*
X63034Y-56206D01*
X63046Y-56219D01*
X63056Y-56231D01*
X63065Y-56241D01*
X63072Y-56249D01*
X63077Y-56255D01*
X63080Y-56258D01*
X63080Y-56259D01*
X63079Y-56261D01*
X63076Y-56266D01*
X63071Y-56274D01*
X63064Y-56284D01*
X63055Y-56296D01*
X63046Y-56310D01*
X63035Y-56326D01*
X63023Y-56343D01*
X63010Y-56361D01*
X63000Y-56375D01*
X62987Y-56394D01*
X62975Y-56412D01*
X62963Y-56428D01*
X62953Y-56444D01*
X62944Y-56457D01*
X62936Y-56469D01*
X62929Y-56478D01*
X62925Y-56485D01*
X62922Y-56489D01*
X62921Y-56490D01*
X62921Y-56490D01*
X62921Y-56490D01*
G37*
G36*
X61997Y-56103D02*
X61998Y-56108D01*
X61999Y-56116D01*
X62001Y-56126D01*
X62004Y-56137D01*
X62006Y-56149D01*
X62009Y-56161D01*
X62012Y-56172D01*
X62015Y-56182D01*
X62018Y-56190D01*
X62020Y-56195D01*
X62021Y-56198D01*
X62021Y-56198D01*
X62024Y-56197D01*
X62030Y-56196D01*
X62038Y-56195D01*
X62045Y-56193D01*
X62055Y-56191D01*
X62064Y-56190D01*
X62074Y-56190D01*
X62085Y-56190D01*
X62091Y-56190D01*
X62102Y-56190D01*
X62111Y-56191D01*
X62118Y-56192D01*
X62124Y-56194D01*
X62131Y-56196D01*
X62133Y-56197D01*
X62150Y-56204D01*
X62165Y-56213D01*
X62178Y-56223D01*
X62185Y-56230D01*
X62199Y-56246D01*
X62210Y-56263D01*
X62217Y-56275D01*
X62222Y-56286D01*
X62222Y-56388D01*
X62222Y-56491D01*
X62280Y-56491D01*
X62338Y-56491D01*
X62338Y-56293D01*
X62338Y-56095D01*
X62291Y-56095D01*
X62244Y-56095D01*
X62243Y-56101D01*
X62242Y-56105D01*
X62241Y-56112D01*
X62240Y-56122D01*
X62239Y-56133D01*
X62238Y-56144D01*
X62236Y-56158D01*
X62235Y-56168D01*
X62234Y-56176D01*
X62233Y-56180D01*
X62232Y-56182D01*
X62231Y-56181D01*
X62230Y-56180D01*
X62228Y-56176D01*
X62224Y-56170D01*
X62218Y-56162D01*
X62211Y-56154D01*
X62205Y-56146D01*
X62198Y-56139D01*
X62194Y-56135D01*
X62174Y-56118D01*
X62152Y-56105D01*
X62128Y-56095D01*
X62103Y-56089D01*
X62076Y-56086D01*
X62052Y-56087D01*
X62041Y-56088D01*
X62029Y-56090D01*
X62018Y-56093D01*
X62007Y-56096D01*
X62000Y-56099D01*
X61998Y-56101D01*
X61997Y-56103D01*
X61997Y-56103D01*
X61997Y-56103D01*
G37*
G36*
X66374Y-55974D02*
X66376Y-55987D01*
X66377Y-55989D01*
X66384Y-56003D01*
X66393Y-56015D01*
X66406Y-56025D01*
X66420Y-56032D01*
X66421Y-56033D01*
X66431Y-56035D01*
X66444Y-56036D01*
X66457Y-56037D01*
X66469Y-56036D01*
X66474Y-56035D01*
X66491Y-56029D01*
X66504Y-56021D01*
X66516Y-56009D01*
X66524Y-55995D01*
X66524Y-55995D01*
X66527Y-55986D01*
X66529Y-55974D01*
X66529Y-55961D01*
X66527Y-55949D01*
X66525Y-55940D01*
X66519Y-55928D01*
X66511Y-55917D01*
X66499Y-55908D01*
X66489Y-55901D01*
X66483Y-55898D01*
X66478Y-55897D01*
X66473Y-55896D01*
X66467Y-55895D01*
X66459Y-55895D01*
X66452Y-55895D01*
X66441Y-55895D01*
X66434Y-55895D01*
X66428Y-55896D01*
X66424Y-55897D01*
X66419Y-55899D01*
X66417Y-55900D01*
X66405Y-55907D01*
X66393Y-55917D01*
X66384Y-55928D01*
X66381Y-55935D01*
X66376Y-55947D01*
X66374Y-55960D01*
X66374Y-55974D01*
X66374Y-55974D01*
X66374Y-55974D01*
G37*
G36*
X61814Y-55508D02*
X61814Y-55530D01*
X61817Y-55549D01*
X61821Y-55567D01*
X61828Y-55586D01*
X61835Y-55599D01*
X61844Y-55617D01*
X61854Y-55632D01*
X61866Y-55646D01*
X61874Y-55654D01*
X61893Y-55671D01*
X61913Y-55686D01*
X61934Y-55697D01*
X61957Y-55706D01*
X61983Y-55714D01*
X61983Y-55714D01*
X61984Y-55714D01*
X61986Y-55714D01*
X61987Y-55714D01*
X61989Y-55715D01*
X61992Y-55715D01*
X61995Y-55715D01*
X61998Y-55715D01*
X62003Y-55715D01*
X62008Y-55715D01*
X62013Y-55715D01*
X62020Y-55715D01*
X62027Y-55715D01*
X62035Y-55715D01*
X62044Y-55716D01*
X62055Y-55716D01*
X62066Y-55716D01*
X62078Y-55716D01*
X62092Y-55716D01*
X62106Y-55716D01*
X62122Y-55716D01*
X62139Y-55716D01*
X62158Y-55716D01*
X62178Y-55716D01*
X62200Y-55716D01*
X62223Y-55716D01*
X62247Y-55716D01*
X62273Y-55716D01*
X62301Y-55717D01*
X62331Y-55717D01*
X62362Y-55717D01*
X62395Y-55717D01*
X62430Y-55717D01*
X62467Y-55717D01*
X62506Y-55717D01*
X62547Y-55717D01*
X62571Y-55717D01*
X62571Y-54981D01*
X62572Y-54979D01*
X62575Y-54974D01*
X62579Y-54966D01*
X62586Y-54955D01*
X62594Y-54941D01*
X62603Y-54925D01*
X62613Y-54907D01*
X62625Y-54886D01*
X62638Y-54863D01*
X62653Y-54839D01*
X62668Y-54812D01*
X62684Y-54785D01*
X62700Y-54756D01*
X62718Y-54726D01*
X62736Y-54694D01*
X62740Y-54687D01*
X62909Y-54395D01*
X63191Y-54251D01*
X63286Y-54203D01*
X63379Y-54156D01*
X63471Y-54110D01*
X63560Y-54065D01*
X63648Y-54021D01*
X63734Y-53978D01*
X63817Y-53936D01*
X63898Y-53896D01*
X63977Y-53856D01*
X64054Y-53818D01*
X64128Y-53781D01*
X64200Y-53746D01*
X64269Y-53712D01*
X64335Y-53679D01*
X64399Y-53648D01*
X64460Y-53618D01*
X64518Y-53590D01*
X64573Y-53563D01*
X64624Y-53538D01*
X64673Y-53515D01*
X64718Y-53493D01*
X64761Y-53474D01*
X64799Y-53456D01*
X64804Y-53453D01*
X64820Y-53446D01*
X64836Y-53439D01*
X64849Y-53432D01*
X64861Y-53427D01*
X64871Y-53422D01*
X64878Y-53419D01*
X64882Y-53417D01*
X64883Y-53416D01*
X64883Y-53415D01*
X64879Y-53411D01*
X64875Y-53405D01*
X64869Y-53398D01*
X64869Y-53397D01*
X64861Y-53388D01*
X64853Y-53379D01*
X64846Y-53370D01*
X64842Y-53366D01*
X64837Y-53358D01*
X64832Y-53354D01*
X64830Y-53353D01*
X64829Y-53353D01*
X64816Y-53358D01*
X64804Y-53363D01*
X64791Y-53368D01*
X64779Y-53372D01*
X64769Y-53376D01*
X64760Y-53378D01*
X64754Y-53380D01*
X64751Y-53381D01*
X64751Y-53381D01*
X64749Y-53379D01*
X64746Y-53374D01*
X64743Y-53367D01*
X64741Y-53362D01*
X64737Y-53354D01*
X64733Y-53346D01*
X64729Y-53340D01*
X64728Y-53338D01*
X64725Y-53335D01*
X64721Y-53333D01*
X64717Y-53333D01*
X64709Y-53333D01*
X64701Y-53333D01*
X64690Y-53335D01*
X64678Y-53337D01*
X64665Y-53340D01*
X64654Y-53343D01*
X64645Y-53346D01*
X64642Y-53347D01*
X64634Y-53352D01*
X64627Y-53360D01*
X64623Y-53368D01*
X64622Y-53376D01*
X64622Y-53376D01*
X64622Y-53383D01*
X64620Y-53389D01*
X64619Y-53393D01*
X64619Y-53395D01*
X64619Y-53395D01*
X64621Y-53396D01*
X64627Y-53396D01*
X64634Y-53397D01*
X64639Y-53397D01*
X64649Y-53397D01*
X64656Y-53397D01*
X64660Y-53399D01*
X64664Y-53401D01*
X64666Y-53405D01*
X64667Y-53407D01*
X64671Y-53413D01*
X64655Y-53419D01*
X64631Y-53429D01*
X64604Y-53441D01*
X64573Y-53454D01*
X64539Y-53469D01*
X64501Y-53485D01*
X64460Y-53504D01*
X64416Y-53524D01*
X64368Y-53545D01*
X64316Y-53569D01*
X64261Y-53594D01*
X64203Y-53621D01*
X64141Y-53649D01*
X64076Y-53679D01*
X64007Y-53711D01*
X63935Y-53744D01*
X63860Y-53779D01*
X63781Y-53816D01*
X63699Y-53854D01*
X63614Y-53894D01*
X63525Y-53936D01*
X63433Y-53979D01*
X63338Y-54024D01*
X63277Y-54053D01*
X63249Y-54066D01*
X63221Y-54079D01*
X63195Y-54091D01*
X63170Y-54103D01*
X63147Y-54114D01*
X63125Y-54124D01*
X63106Y-54133D01*
X63089Y-54141D01*
X63074Y-54148D01*
X63062Y-54153D01*
X63053Y-54158D01*
X63047Y-54160D01*
X63045Y-54161D01*
X63044Y-54162D01*
X63045Y-54160D01*
X63048Y-54155D01*
X63052Y-54147D01*
X63058Y-54136D01*
X63066Y-54123D01*
X63075Y-54108D01*
X63085Y-54090D01*
X63096Y-54071D01*
X63108Y-54050D01*
X63121Y-54027D01*
X63135Y-54004D01*
X63149Y-53979D01*
X63163Y-53954D01*
X63178Y-53928D01*
X63193Y-53902D01*
X63209Y-53876D01*
X63224Y-53850D01*
X63238Y-53824D01*
X63253Y-53799D01*
X63267Y-53775D01*
X63281Y-53752D01*
X63293Y-53730D01*
X63305Y-53710D01*
X63316Y-53691D01*
X63326Y-53674D01*
X63335Y-53660D01*
X63342Y-53648D01*
X63347Y-53638D01*
X63352Y-53631D01*
X63354Y-53627D01*
X63354Y-53627D01*
X63357Y-53626D01*
X63363Y-53624D01*
X63372Y-53622D01*
X63384Y-53618D01*
X63399Y-53614D01*
X63417Y-53609D01*
X63437Y-53604D01*
X63460Y-53598D01*
X63484Y-53591D01*
X63510Y-53585D01*
X63537Y-53577D01*
X63565Y-53570D01*
X63583Y-53565D01*
X63623Y-53555D01*
X63666Y-53543D01*
X63710Y-53531D01*
X63757Y-53519D01*
X63805Y-53506D01*
X63854Y-53493D01*
X63904Y-53480D01*
X63954Y-53467D01*
X64004Y-53453D01*
X64054Y-53440D01*
X64104Y-53427D01*
X64152Y-53414D01*
X64199Y-53401D01*
X64244Y-53389D01*
X64287Y-53377D01*
X64328Y-53366D01*
X64366Y-53356D01*
X64401Y-53346D01*
X64430Y-53339D01*
X64448Y-53334D01*
X64468Y-53328D01*
X64484Y-53324D01*
X64484Y-53204D01*
X64485Y-53203D01*
X64486Y-53204D01*
X64485Y-53205D01*
X64484Y-53204D01*
X64484Y-53324D01*
X64489Y-53322D01*
X64511Y-53316D01*
X64534Y-53310D01*
X64558Y-53303D01*
X64581Y-53297D01*
X64605Y-53290D01*
X64628Y-53284D01*
X64650Y-53278D01*
X64671Y-53272D01*
X64691Y-53267D01*
X64709Y-53262D01*
X64724Y-53257D01*
X64738Y-53254D01*
X64748Y-53251D01*
X64756Y-53248D01*
X64760Y-53247D01*
X64761Y-53247D01*
X64760Y-53245D01*
X64759Y-53240D01*
X64756Y-53233D01*
X64752Y-53225D01*
X64747Y-53215D01*
X64742Y-53205D01*
X64737Y-53195D01*
X64733Y-53185D01*
X64729Y-53177D01*
X64725Y-53171D01*
X64723Y-53168D01*
X64723Y-53168D01*
X64720Y-53168D01*
X64715Y-53169D01*
X64706Y-53170D01*
X64694Y-53172D01*
X64680Y-53174D01*
X64663Y-53176D01*
X64645Y-53179D01*
X64625Y-53182D01*
X64606Y-53185D01*
X64586Y-53188D01*
X64566Y-53191D01*
X64548Y-53194D01*
X64531Y-53196D01*
X64517Y-53198D01*
X64505Y-53200D01*
X64497Y-53201D01*
X64491Y-53202D01*
X64489Y-53202D01*
X64489Y-53202D01*
X64492Y-53200D01*
X64494Y-53200D01*
X64505Y-53195D01*
X64513Y-53189D01*
X64518Y-53184D01*
X64520Y-53180D01*
X64521Y-53175D01*
X64522Y-53167D01*
X64522Y-53155D01*
X64522Y-53153D01*
X64523Y-53143D01*
X64523Y-53134D01*
X64522Y-53128D01*
X64522Y-53125D01*
X64522Y-53125D01*
X64519Y-53125D01*
X64514Y-53125D01*
X64506Y-53126D01*
X64500Y-53127D01*
X64487Y-53129D01*
X64474Y-53129D01*
X64467Y-53129D01*
X64461Y-53128D01*
X64455Y-53129D01*
X64449Y-53130D01*
X64442Y-53132D01*
X64437Y-53135D01*
X64429Y-53138D01*
X64418Y-53142D01*
X64406Y-53148D01*
X64395Y-53153D01*
X64391Y-53155D01*
X64379Y-53161D01*
X64371Y-53165D01*
X64365Y-53168D01*
X64361Y-53171D01*
X64358Y-53174D01*
X64357Y-53176D01*
X64352Y-53185D01*
X64350Y-53192D01*
X64351Y-53197D01*
X64352Y-53198D01*
X64358Y-53202D01*
X64367Y-53205D01*
X64380Y-53208D01*
X64397Y-53210D01*
X64405Y-53210D01*
X64434Y-53211D01*
X64145Y-53257D01*
X64108Y-53263D01*
X64070Y-53270D01*
X64031Y-53276D01*
X63991Y-53282D01*
X63952Y-53288D01*
X63912Y-53295D01*
X63874Y-53301D01*
X63837Y-53307D01*
X63802Y-53313D01*
X63768Y-53318D01*
X63738Y-53323D01*
X63710Y-53327D01*
X63686Y-53331D01*
X63682Y-53332D01*
X63656Y-53336D01*
X63632Y-53340D01*
X63609Y-53344D01*
X63587Y-53347D01*
X63568Y-53350D01*
X63550Y-53353D01*
X63536Y-53355D01*
X63524Y-53357D01*
X63515Y-53358D01*
X63509Y-53359D01*
X63507Y-53360D01*
X63508Y-53358D01*
X63511Y-53353D01*
X63515Y-53345D01*
X63521Y-53335D01*
X63528Y-53322D01*
X63537Y-53308D01*
X63546Y-53291D01*
X63556Y-53274D01*
X63567Y-53255D01*
X63573Y-53244D01*
X63640Y-53129D01*
X63650Y-53127D01*
X63653Y-53127D01*
X63660Y-53126D01*
X63670Y-53124D01*
X63684Y-53122D01*
X63699Y-53120D01*
X63718Y-53117D01*
X63738Y-53114D01*
X63760Y-53111D01*
X63784Y-53107D01*
X63808Y-53103D01*
X63824Y-53101D01*
X63875Y-53093D01*
X63928Y-53086D01*
X63981Y-53077D01*
X64035Y-53069D01*
X64088Y-53061D01*
X64141Y-53053D01*
X64194Y-53044D01*
X64244Y-53036D01*
X64293Y-53028D01*
X64340Y-53021D01*
X64385Y-53014D01*
X64426Y-53007D01*
X64464Y-53001D01*
X64469Y-53000D01*
X64500Y-52994D01*
X64528Y-52990D01*
X64552Y-52986D01*
X64573Y-52982D01*
X64591Y-52979D01*
X64607Y-52976D01*
X64620Y-52974D01*
X64630Y-52972D01*
X64639Y-52971D01*
X64645Y-52970D01*
X64650Y-52969D01*
X64654Y-52968D01*
X64657Y-52967D01*
X64658Y-52967D01*
X64659Y-52967D01*
X64660Y-52966D01*
X64660Y-52966D01*
X64660Y-52964D01*
X64660Y-52958D01*
X64659Y-52951D01*
X64658Y-52947D01*
X64657Y-52937D01*
X64655Y-52925D01*
X64653Y-52913D01*
X64652Y-52908D01*
X64651Y-52899D01*
X64650Y-52892D01*
X64649Y-52887D01*
X64648Y-52886D01*
X64646Y-52886D01*
X64641Y-52886D01*
X64631Y-52886D01*
X64619Y-52887D01*
X64603Y-52888D01*
X64584Y-52889D01*
X64563Y-52890D01*
X64539Y-52891D01*
X64513Y-52892D01*
X64485Y-52893D01*
X64455Y-52895D01*
X64424Y-52896D01*
X64391Y-52898D01*
X64357Y-52900D01*
X64333Y-52901D01*
X64274Y-52904D01*
X64218Y-52907D01*
X64167Y-52909D01*
X64119Y-52912D01*
X64075Y-52914D01*
X64034Y-52916D01*
X63997Y-52918D01*
X63962Y-52920D01*
X63931Y-52921D01*
X63903Y-52922D01*
X63877Y-52924D01*
X63855Y-52925D01*
X63835Y-52926D01*
X63817Y-52926D01*
X63802Y-52927D01*
X63790Y-52928D01*
X63779Y-52928D01*
X63771Y-52928D01*
X63765Y-52928D01*
X63761Y-52928D01*
X63758Y-52928D01*
X63758Y-52928D01*
X63758Y-52926D01*
X63761Y-52922D01*
X63764Y-52915D01*
X63769Y-52906D01*
X63774Y-52896D01*
X63780Y-52886D01*
X63786Y-52875D01*
X63792Y-52866D01*
X63797Y-52857D01*
X63801Y-52850D01*
X63804Y-52845D01*
X63806Y-52843D01*
X63808Y-52843D01*
X63814Y-52842D01*
X63823Y-52842D01*
X63835Y-52841D01*
X63851Y-52839D01*
X63869Y-52838D01*
X63890Y-52836D01*
X63914Y-52834D01*
X63939Y-52832D01*
X63967Y-52829D01*
X63996Y-52827D01*
X64026Y-52824D01*
X64058Y-52821D01*
X64086Y-52819D01*
X64119Y-52816D01*
X64151Y-52814D01*
X64181Y-52811D01*
X64210Y-52809D01*
X64237Y-52806D01*
X64262Y-52804D01*
X64285Y-52802D01*
X64306Y-52800D01*
X64323Y-52799D01*
X64338Y-52797D01*
X64350Y-52796D01*
X64359Y-52796D01*
X64364Y-52795D01*
X64366Y-52795D01*
X64364Y-52794D01*
X64358Y-52794D01*
X64349Y-52793D01*
X64337Y-52791D01*
X64321Y-52790D01*
X64303Y-52788D01*
X64283Y-52786D01*
X64260Y-52783D01*
X64235Y-52781D01*
X64208Y-52778D01*
X64180Y-52775D01*
X64150Y-52772D01*
X64119Y-52769D01*
X64115Y-52769D01*
X64084Y-52766D01*
X64054Y-52763D01*
X64026Y-52760D01*
X63999Y-52757D01*
X63973Y-52754D01*
X63950Y-52752D01*
X63929Y-52750D01*
X63911Y-52749D01*
X63895Y-52747D01*
X63882Y-52746D01*
X63873Y-52745D01*
X63866Y-52744D01*
X63864Y-52744D01*
X63864Y-52744D01*
X63865Y-52742D01*
X63867Y-52737D01*
X63871Y-52730D01*
X63875Y-52722D01*
X63879Y-52716D01*
X63895Y-52688D01*
X64272Y-52689D01*
X64649Y-52690D01*
X64650Y-52685D01*
X64651Y-52682D01*
X64652Y-52675D01*
X64653Y-52666D01*
X64654Y-52656D01*
X64655Y-52650D01*
X64657Y-52639D01*
X64658Y-52629D01*
X64659Y-52620D01*
X64660Y-52614D01*
X64660Y-52613D01*
X64661Y-52606D01*
X64576Y-52584D01*
X64555Y-52579D01*
X64531Y-52573D01*
X64504Y-52566D01*
X64475Y-52559D01*
X64444Y-52551D01*
X64411Y-52542D01*
X64378Y-52534D01*
X64344Y-52525D01*
X64310Y-52516D01*
X64276Y-52508D01*
X64243Y-52499D01*
X64212Y-52491D01*
X64183Y-52484D01*
X64156Y-52477D01*
X64131Y-52471D01*
X64110Y-52465D01*
X64108Y-52465D01*
X64092Y-52460D01*
X64077Y-52456D01*
X64064Y-52453D01*
X64053Y-52450D01*
X64044Y-52447D01*
X64039Y-52446D01*
X64037Y-52445D01*
X64037Y-52445D01*
X64037Y-52443D01*
X64040Y-52438D01*
X64044Y-52430D01*
X64049Y-52421D01*
X64055Y-52410D01*
X64062Y-52399D01*
X64069Y-52386D01*
X64076Y-52374D01*
X64083Y-52362D01*
X64090Y-52351D01*
X64095Y-52341D01*
X64100Y-52333D01*
X64103Y-52328D01*
X64105Y-52325D01*
X64105Y-52325D01*
X64107Y-52325D01*
X64112Y-52326D01*
X64117Y-52327D01*
X64123Y-52328D01*
X64132Y-52330D01*
X64144Y-52333D01*
X64159Y-52337D01*
X64177Y-52341D01*
X64198Y-52346D01*
X64220Y-52352D01*
X64244Y-52358D01*
X64269Y-52364D01*
X64295Y-52371D01*
X64323Y-52378D01*
X64350Y-52384D01*
X64378Y-52391D01*
X64406Y-52398D01*
X64433Y-52405D01*
X64460Y-52412D01*
X64485Y-52418D01*
X64510Y-52424D01*
X64532Y-52430D01*
X64553Y-52435D01*
X64571Y-52440D01*
X64587Y-52444D01*
X64600Y-52448D01*
X64602Y-52448D01*
X64620Y-52453D01*
X64638Y-52457D01*
X64654Y-52461D01*
X64668Y-52465D01*
X64680Y-52468D01*
X64689Y-52470D01*
X64695Y-52471D01*
X64698Y-52471D01*
X64698Y-52471D01*
X64700Y-52468D01*
X64702Y-52464D01*
X64704Y-52459D01*
X64707Y-52452D01*
X64708Y-52448D01*
X64712Y-52437D01*
X64701Y-52430D01*
X64689Y-52423D01*
X64675Y-52414D01*
X64657Y-52403D01*
X64637Y-52391D01*
X64614Y-52377D01*
X64590Y-52363D01*
X64564Y-52347D01*
X64536Y-52331D01*
X64507Y-52314D01*
X64477Y-52296D01*
X64446Y-52278D01*
X64415Y-52260D01*
X64384Y-52242D01*
X64353Y-52224D01*
X64323Y-52207D01*
X64306Y-52197D01*
X64288Y-52187D01*
X64272Y-52177D01*
X64257Y-52168D01*
X64243Y-52160D01*
X64232Y-52154D01*
X64223Y-52148D01*
X64216Y-52144D01*
X64213Y-52142D01*
X64212Y-52141D01*
X64213Y-52139D01*
X64215Y-52134D01*
X64219Y-52126D01*
X64224Y-52118D01*
X64230Y-52108D01*
X64236Y-52098D01*
X64241Y-52088D01*
X64247Y-52079D01*
X64252Y-52072D01*
X64255Y-52066D01*
X64257Y-52063D01*
X64258Y-52063D01*
X64260Y-52064D01*
X64265Y-52067D01*
X64272Y-52072D01*
X64282Y-52078D01*
X64294Y-52086D01*
X64308Y-52095D01*
X64324Y-52105D01*
X64340Y-52116D01*
X64355Y-52126D01*
X64373Y-52137D01*
X64393Y-52150D01*
X64415Y-52165D01*
X64440Y-52181D01*
X64465Y-52198D01*
X64492Y-52215D01*
X64518Y-52232D01*
X64545Y-52249D01*
X64570Y-52266D01*
X64595Y-52282D01*
X64595Y-52282D01*
X64739Y-52376D01*
X64751Y-52352D01*
X64765Y-52327D01*
X64779Y-52302D01*
X64793Y-52280D01*
X64795Y-52276D01*
X64800Y-52269D01*
X64803Y-52264D01*
X64805Y-52260D01*
X64805Y-52260D01*
X64803Y-52258D01*
X64799Y-52254D01*
X64793Y-52248D01*
X64783Y-52240D01*
X64772Y-52229D01*
X64759Y-52217D01*
X64743Y-52203D01*
X64726Y-52187D01*
X64708Y-52171D01*
X64688Y-52153D01*
X64667Y-52134D01*
X64645Y-52114D01*
X64623Y-52093D01*
X64599Y-52072D01*
X64576Y-52050D01*
X64552Y-52028D01*
X64528Y-52007D01*
X64504Y-51985D01*
X64480Y-51963D01*
X64456Y-51942D01*
X64434Y-51922D01*
X64430Y-51918D01*
X64414Y-51904D01*
X64401Y-51891D01*
X64390Y-51882D01*
X64382Y-51874D01*
X64377Y-51868D01*
X64373Y-51864D01*
X64372Y-51862D01*
X64372Y-51862D01*
X64374Y-51860D01*
X64376Y-51855D01*
X64381Y-51848D01*
X64386Y-51838D01*
X64392Y-51828D01*
X64398Y-51817D01*
X64404Y-51806D01*
X64411Y-51795D01*
X64416Y-51785D01*
X64421Y-51777D01*
X64425Y-51770D01*
X64427Y-51767D01*
X64428Y-51766D01*
X64429Y-51767D01*
X64434Y-51769D01*
X64443Y-51773D01*
X64454Y-51778D01*
X64467Y-51785D01*
X64483Y-51793D01*
X64501Y-51802D01*
X64521Y-51812D01*
X64543Y-51822D01*
X64566Y-51834D01*
X64590Y-51846D01*
X64609Y-51855D01*
X64634Y-51867D01*
X64658Y-51879D01*
X64680Y-51890D01*
X64702Y-51901D01*
X64721Y-51911D01*
X64739Y-51919D01*
X64754Y-51927D01*
X64767Y-51933D01*
X64777Y-51938D01*
X64785Y-51942D01*
X64789Y-51944D01*
X64790Y-51944D01*
X64789Y-51943D01*
X64786Y-51938D01*
X64780Y-51931D01*
X64773Y-51921D01*
X64763Y-51909D01*
X64752Y-51895D01*
X64740Y-51879D01*
X64726Y-51862D01*
X64711Y-51843D01*
X64694Y-51822D01*
X64677Y-51801D01*
X64660Y-51778D01*
X64656Y-51774D01*
X64521Y-51603D01*
X64525Y-51597D01*
X64527Y-51594D01*
X64531Y-51587D01*
X64536Y-51579D01*
X64541Y-51569D01*
X64548Y-51558D01*
X64548Y-51558D01*
X64554Y-51546D01*
X64561Y-51535D01*
X64566Y-51526D01*
X64571Y-51518D01*
X64574Y-51513D01*
X64581Y-51501D01*
X64613Y-51532D01*
X64625Y-51543D01*
X64638Y-51555D01*
X64652Y-51568D01*
X64664Y-51580D01*
X64674Y-51589D01*
X64703Y-51617D01*
X64692Y-51626D01*
X64682Y-51636D01*
X64674Y-51648D01*
X64668Y-51661D01*
X64666Y-51673D01*
X64665Y-51682D01*
X64667Y-51688D01*
X64671Y-51693D01*
X64678Y-51697D01*
X64680Y-51698D01*
X64689Y-51704D01*
X64698Y-51712D01*
X64700Y-51715D01*
X64705Y-51721D01*
X64711Y-51726D01*
X64715Y-51729D01*
X64715Y-51729D01*
X64719Y-51731D01*
X64723Y-51734D01*
X64728Y-51739D01*
X64735Y-51746D01*
X64744Y-51755D01*
X64746Y-51757D01*
X64754Y-51765D01*
X64762Y-51770D01*
X64770Y-51774D01*
X64777Y-51775D01*
X64778Y-51774D01*
X64784Y-51771D01*
X64792Y-51765D01*
X64800Y-51757D01*
X64806Y-51749D01*
X64811Y-51744D01*
X64815Y-51740D01*
X64817Y-51738D01*
X64817Y-51738D01*
X64819Y-51739D01*
X64823Y-51743D01*
X64829Y-51750D01*
X64836Y-51757D01*
X64844Y-51766D01*
X64848Y-51770D01*
X64900Y-51831D01*
X64949Y-51891D01*
X64996Y-51950D01*
X65018Y-51980D01*
X65045Y-52016D01*
X65065Y-52002D01*
X65078Y-51994D01*
X65091Y-51986D01*
X65104Y-51978D01*
X65117Y-51970D01*
X65128Y-51964D01*
X65135Y-51960D01*
X65142Y-51956D01*
X65147Y-51953D01*
X65148Y-51952D01*
X65149Y-51952D01*
X65149Y-51951D01*
X65149Y-51949D01*
X65149Y-51947D01*
X65148Y-51944D01*
X65146Y-51939D01*
X65144Y-51934D01*
X65141Y-51927D01*
X65137Y-51918D01*
X65132Y-51907D01*
X65127Y-51894D01*
X65120Y-51879D01*
X65112Y-51861D01*
X65103Y-51840D01*
X65092Y-51817D01*
X65080Y-51790D01*
X65067Y-51761D01*
X65059Y-51744D01*
X65044Y-51711D01*
X65029Y-51676D01*
X65012Y-51639D01*
X64994Y-51601D01*
X64976Y-51562D01*
X64958Y-51522D01*
X64941Y-51483D01*
X64923Y-51445D01*
X64907Y-51409D01*
X64891Y-51375D01*
X64877Y-51344D01*
X64877Y-51343D01*
X64865Y-51316D01*
X64853Y-51291D01*
X64842Y-51267D01*
X64832Y-51245D01*
X64822Y-51224D01*
X64814Y-51205D01*
X64806Y-51188D01*
X64800Y-51174D01*
X64795Y-51162D01*
X64791Y-51153D01*
X64788Y-51148D01*
X64787Y-51145D01*
X64787Y-51145D01*
X64788Y-51143D01*
X64791Y-51138D01*
X64795Y-51131D01*
X64800Y-51121D01*
X64807Y-51109D01*
X64814Y-51097D01*
X64822Y-51083D01*
X64830Y-51069D01*
X64838Y-51054D01*
X64846Y-51040D01*
X64854Y-51027D01*
X64861Y-51015D01*
X64867Y-51005D01*
X64872Y-50996D01*
X64876Y-50990D01*
X64877Y-50987D01*
X64880Y-50983D01*
X64887Y-50995D01*
X64892Y-51005D01*
X64899Y-51011D01*
X64907Y-51015D01*
X64915Y-51015D01*
X64929Y-51014D01*
X64943Y-51009D01*
X64956Y-51001D01*
X64970Y-50989D01*
X64983Y-50974D01*
X64992Y-50961D01*
X65004Y-50944D01*
X65013Y-50929D01*
X65019Y-50917D01*
X65024Y-50907D01*
X65026Y-50898D01*
X65027Y-50897D01*
X65029Y-50887D01*
X65030Y-50880D01*
X65029Y-50874D01*
X65027Y-50868D01*
X65023Y-50862D01*
X65017Y-50855D01*
X65012Y-50850D01*
X65005Y-50842D01*
X64997Y-50834D01*
X64991Y-50827D01*
X64986Y-50822D01*
X64977Y-50814D01*
X65011Y-50756D01*
X65019Y-50742D01*
X65026Y-50730D01*
X65032Y-50719D01*
X65038Y-50709D01*
X65042Y-50702D01*
X65045Y-50698D01*
X65045Y-50697D01*
X65046Y-50699D01*
X65048Y-50704D01*
X65050Y-50713D01*
X65054Y-50725D01*
X65059Y-50740D01*
X65064Y-50758D01*
X65070Y-50779D01*
X65077Y-50803D01*
X65085Y-50829D01*
X65093Y-50857D01*
X65102Y-50888D01*
X65112Y-50920D01*
X65121Y-50954D01*
X65132Y-50990D01*
X65143Y-51027D01*
X65154Y-51066D01*
X65165Y-51106D01*
X65177Y-51146D01*
X65189Y-51188D01*
X65201Y-51230D01*
X65214Y-51273D01*
X65226Y-51316D01*
X65239Y-51359D01*
X65251Y-51402D01*
X65263Y-51445D01*
X65275Y-51487D01*
X65287Y-51529D01*
X65299Y-51570D01*
X65311Y-51611D01*
X65322Y-51650D01*
X65328Y-51671D01*
X65336Y-51698D01*
X65343Y-51723D01*
X65350Y-51747D01*
X65356Y-51770D01*
X65362Y-51791D01*
X65368Y-51810D01*
X65373Y-51826D01*
X65377Y-51840D01*
X65380Y-51851D01*
X65382Y-51859D01*
X65384Y-51863D01*
X65384Y-51864D01*
X65386Y-51865D01*
X65392Y-51864D01*
X65400Y-51863D01*
X65409Y-51862D01*
X65411Y-51861D01*
X65453Y-51854D01*
X65497Y-51849D01*
X65540Y-51846D01*
X65583Y-51844D01*
X65624Y-51845D01*
X65656Y-51846D01*
X65667Y-51847D01*
X65675Y-51848D01*
X65680Y-51847D01*
X65683Y-51846D01*
X65685Y-51844D01*
X65685Y-51840D01*
X65685Y-51837D01*
X65686Y-51833D01*
X65687Y-51826D01*
X65688Y-51817D01*
X65690Y-51808D01*
X65692Y-51788D01*
X65692Y-51772D01*
X65691Y-51759D01*
X65689Y-51753D01*
X65686Y-51749D01*
X65681Y-51744D01*
X65675Y-51737D01*
X65667Y-51730D01*
X65664Y-51728D01*
X65652Y-51717D01*
X65643Y-51708D01*
X65635Y-51700D01*
X65630Y-51692D01*
X65625Y-51684D01*
X65622Y-51679D01*
X65616Y-51667D01*
X65621Y-51638D01*
X65624Y-51626D01*
X65627Y-51612D01*
X65630Y-51600D01*
X65632Y-51589D01*
X65633Y-51588D01*
X65635Y-51579D01*
X65637Y-51571D01*
X65637Y-51565D01*
X65637Y-51563D01*
X65634Y-51557D01*
X65628Y-51550D01*
X65621Y-51544D01*
X65616Y-51541D01*
X65611Y-51539D01*
X65607Y-51538D01*
X65602Y-51537D01*
X65596Y-51538D01*
X65590Y-51539D01*
X65579Y-51540D01*
X65572Y-51540D01*
X65567Y-51539D01*
X65564Y-51536D01*
X65562Y-51532D01*
X65561Y-51527D01*
X65556Y-51523D01*
X65554Y-51522D01*
X65549Y-51520D01*
X65545Y-51519D01*
X65539Y-51520D01*
X65535Y-51521D01*
X65528Y-51523D01*
X65520Y-51526D01*
X65510Y-51530D01*
X65503Y-51534D01*
X65493Y-51538D01*
X65486Y-51541D01*
X65482Y-51542D01*
X65478Y-51541D01*
X65475Y-51538D01*
X65472Y-51533D01*
X65472Y-51532D01*
X65470Y-51529D01*
X65469Y-51523D01*
X65467Y-51516D01*
X65466Y-51506D01*
X65465Y-51493D01*
X65463Y-51478D01*
X65462Y-51459D01*
X65460Y-51436D01*
X65459Y-51415D01*
X65458Y-51407D01*
X65458Y-51396D01*
X65458Y-51382D01*
X65457Y-51367D01*
X65457Y-51349D01*
X65457Y-51330D01*
X65456Y-51310D01*
X65456Y-51289D01*
X65456Y-51268D01*
X65456Y-51247D01*
X65455Y-51226D01*
X65455Y-51206D01*
X65455Y-51187D01*
X65455Y-51169D01*
X65455Y-51153D01*
X65456Y-51139D01*
X65456Y-51128D01*
X65456Y-51120D01*
X65456Y-51115D01*
X65456Y-51113D01*
X65457Y-51115D01*
X65457Y-51095D01*
X65457Y-51089D01*
X65458Y-51088D01*
X65458Y-51086D01*
X65458Y-51088D01*
X65458Y-51093D01*
X65458Y-51095D01*
X65458Y-51100D01*
X65458Y-51103D01*
X65458Y-51103D01*
X65458Y-51102D01*
X65457Y-51095D01*
X65457Y-51115D01*
X65458Y-51115D01*
X65459Y-51120D01*
X65460Y-51126D01*
X65460Y-51128D01*
X65460Y-50995D01*
X65460Y-50989D01*
X65460Y-50980D01*
X65461Y-50969D01*
X65461Y-50956D01*
X65462Y-50940D01*
X65463Y-50924D01*
X65463Y-50920D01*
X65469Y-50816D01*
X65476Y-50708D01*
X65484Y-50597D01*
X65494Y-50483D01*
X65505Y-50366D01*
X65518Y-50245D01*
X65531Y-50121D01*
X65538Y-50062D01*
X65548Y-49973D01*
X65560Y-49995D01*
X65568Y-50013D01*
X65574Y-50029D01*
X65575Y-50033D01*
X65580Y-50049D01*
X65585Y-50062D01*
X65592Y-50073D01*
X65599Y-50082D01*
X65603Y-50085D01*
X65608Y-50090D01*
X65616Y-50098D01*
X65624Y-50107D01*
X65632Y-50116D01*
X65636Y-50121D01*
X65645Y-50130D01*
X65653Y-50140D01*
X65662Y-50148D01*
X65669Y-50155D01*
X65671Y-50157D01*
X65681Y-50166D01*
X65691Y-50176D01*
X65701Y-50186D01*
X65709Y-50196D01*
X65712Y-50201D01*
X65715Y-50207D01*
X65718Y-50215D01*
X65719Y-50220D01*
X65721Y-50229D01*
X65725Y-50237D01*
X65727Y-50242D01*
X65730Y-50247D01*
X65736Y-50254D01*
X65744Y-50263D01*
X65753Y-50273D01*
X65764Y-50285D01*
X65776Y-50297D01*
X65789Y-50309D01*
X65801Y-50320D01*
X65803Y-50322D01*
X65816Y-50334D01*
X65825Y-50345D01*
X65833Y-50356D01*
X65839Y-50368D01*
X65840Y-50371D01*
X65846Y-50382D01*
X65854Y-50390D01*
X65864Y-50394D01*
X65877Y-50396D01*
X65891Y-50394D01*
X65902Y-50392D01*
X65916Y-50386D01*
X65929Y-50379D01*
X65943Y-50369D01*
X65956Y-50356D01*
X65970Y-50339D01*
X65982Y-50323D01*
X65991Y-50310D01*
X66000Y-50297D01*
X66008Y-50284D01*
X66015Y-50272D01*
X66021Y-50261D01*
X66026Y-50252D01*
X66029Y-50245D01*
X66029Y-50245D01*
X66030Y-50238D01*
X66032Y-50230D01*
X66033Y-50220D01*
X66034Y-50211D01*
X66035Y-50203D01*
X66035Y-50201D01*
X66035Y-50198D01*
X66033Y-50194D01*
X66029Y-50189D01*
X66024Y-50182D01*
X66017Y-50174D01*
X66008Y-50164D01*
X65996Y-50153D01*
X65982Y-50138D01*
X65974Y-50130D01*
X65960Y-50116D01*
X65948Y-50104D01*
X65939Y-50093D01*
X65931Y-50084D01*
X65924Y-50075D01*
X65919Y-50066D01*
X65914Y-50057D01*
X65909Y-50047D01*
X65905Y-50040D01*
X65901Y-50030D01*
X65895Y-50019D01*
X65891Y-50010D01*
X65888Y-50005D01*
X65882Y-49996D01*
X65875Y-49985D01*
X65869Y-49973D01*
X65863Y-49962D01*
X65857Y-49951D01*
X65853Y-49943D01*
X65850Y-49936D01*
X65849Y-49934D01*
X65847Y-49928D01*
X65846Y-49922D01*
X65846Y-49921D01*
X65844Y-49915D01*
X65840Y-49909D01*
X65834Y-49901D01*
X65826Y-49893D01*
X65817Y-49886D01*
X65809Y-49880D01*
X65801Y-49875D01*
X65794Y-49872D01*
X65792Y-49872D01*
X65788Y-49873D01*
X65781Y-49874D01*
X65772Y-49877D01*
X65761Y-49881D01*
X65750Y-49884D01*
X65748Y-49885D01*
X65735Y-49889D01*
X65726Y-49893D01*
X65718Y-49895D01*
X65712Y-49896D01*
X65708Y-49897D01*
X65703Y-49897D01*
X65699Y-49897D01*
X65694Y-49897D01*
X65681Y-49895D01*
X65667Y-49893D01*
X65654Y-49889D01*
X65641Y-49885D01*
X65632Y-49881D01*
X65629Y-49880D01*
X65621Y-49875D01*
X65614Y-49874D01*
X65611Y-49873D01*
X65601Y-49874D01*
X65590Y-49877D01*
X65579Y-49882D01*
X65570Y-49886D01*
X65567Y-49888D01*
X65563Y-49891D01*
X65559Y-49893D01*
X65558Y-49894D01*
X65558Y-49892D01*
X65558Y-49888D01*
X65557Y-49885D01*
X65557Y-49879D01*
X65555Y-49870D01*
X65552Y-49861D01*
X65550Y-49855D01*
X65543Y-49833D01*
X65646Y-49655D01*
X65661Y-49630D01*
X65674Y-49607D01*
X65687Y-49585D01*
X65699Y-49564D01*
X65710Y-49545D01*
X65720Y-49528D01*
X65729Y-49513D01*
X65736Y-49500D01*
X65742Y-49489D01*
X65747Y-49482D01*
X65750Y-49477D01*
X65750Y-49476D01*
X65751Y-49478D01*
X65754Y-49483D01*
X65758Y-49491D01*
X65765Y-49501D01*
X65772Y-49514D01*
X65781Y-49530D01*
X65792Y-49548D01*
X65803Y-49567D01*
X65816Y-49589D01*
X65829Y-49612D01*
X65843Y-49636D01*
X65857Y-49661D01*
X65872Y-49687D01*
X65888Y-49714D01*
X65903Y-49741D01*
X65919Y-49769D01*
X65935Y-49796D01*
X65951Y-49823D01*
X65966Y-49850D01*
X65981Y-49876D01*
X65996Y-49901D01*
X66010Y-49926D01*
X66023Y-49949D01*
X66035Y-49970D01*
X66046Y-49990D01*
X66057Y-50008D01*
X66066Y-50024D01*
X66073Y-50037D01*
X66080Y-50048D01*
X66084Y-50057D01*
X66087Y-50062D01*
X66088Y-50064D01*
X66088Y-50066D01*
X66087Y-50073D01*
X66085Y-50082D01*
X66083Y-50095D01*
X66081Y-50111D01*
X66078Y-50129D01*
X66074Y-50150D01*
X66070Y-50173D01*
X66066Y-50198D01*
X66061Y-50225D01*
X66056Y-50253D01*
X66051Y-50283D01*
X66046Y-50313D01*
X66040Y-50345D01*
X66035Y-50377D01*
X66029Y-50410D01*
X66023Y-50442D01*
X66018Y-50475D01*
X66012Y-50507D01*
X66006Y-50538D01*
X66001Y-50569D01*
X65996Y-50599D01*
X65991Y-50627D01*
X65986Y-50654D01*
X65981Y-50679D01*
X65977Y-50702D01*
X65974Y-50723D01*
X65970Y-50741D01*
X65967Y-50757D01*
X65965Y-50769D01*
X65963Y-50779D01*
X65962Y-50785D01*
X65961Y-50788D01*
X65960Y-50791D01*
X65958Y-50796D01*
X65956Y-50803D01*
X65954Y-50812D01*
X65951Y-50822D01*
X65948Y-50835D01*
X65945Y-50850D01*
X65941Y-50867D01*
X65937Y-50887D01*
X65932Y-50910D01*
X65926Y-50935D01*
X65920Y-50964D01*
X65914Y-50995D01*
X65907Y-51030D01*
X65899Y-51068D01*
X65890Y-51110D01*
X65882Y-51154D01*
X65874Y-51189D01*
X65868Y-51222D01*
X65862Y-51250D01*
X65857Y-51276D01*
X65852Y-51298D01*
X65848Y-51317D01*
X65845Y-51334D01*
X65842Y-51348D01*
X65839Y-51360D01*
X65837Y-51370D01*
X65836Y-51378D01*
X65834Y-51384D01*
X65833Y-51389D01*
X65832Y-51392D01*
X65832Y-51395D01*
X65831Y-51396D01*
X65831Y-51397D01*
X65830Y-51397D01*
X65829Y-51395D01*
X65827Y-51391D01*
X65827Y-51389D01*
X65824Y-51383D01*
X65820Y-51374D01*
X65815Y-51364D01*
X65809Y-51351D01*
X65801Y-51338D01*
X65793Y-51323D01*
X65787Y-51313D01*
X65781Y-51302D01*
X65775Y-51289D01*
X65769Y-51277D01*
X65765Y-51269D01*
X65756Y-51250D01*
X65747Y-51228D01*
X65736Y-51204D01*
X65724Y-51178D01*
X65711Y-51152D01*
X65699Y-51127D01*
X65687Y-51102D01*
X65679Y-51087D01*
X65650Y-51028D01*
X65633Y-51011D01*
X65613Y-50993D01*
X65593Y-50978D01*
X65574Y-50967D01*
X65555Y-50958D01*
X65538Y-50954D01*
X65522Y-50951D01*
X65507Y-50950D01*
X65494Y-50951D01*
X65485Y-50954D01*
X65478Y-50958D01*
X65477Y-50959D01*
X65475Y-50963D01*
X65472Y-50970D01*
X65468Y-50978D01*
X65467Y-50981D01*
X65464Y-50988D01*
X65462Y-50993D01*
X65460Y-50996D01*
X65460Y-50997D01*
X65460Y-50995D01*
X65460Y-51128D01*
X65461Y-51137D01*
X65465Y-51147D01*
X65470Y-51156D01*
X65477Y-51165D01*
X65488Y-51174D01*
X65500Y-51184D01*
X65508Y-51190D01*
X65512Y-51195D01*
X65514Y-51199D01*
X65513Y-51202D01*
X65511Y-51204D01*
X65509Y-51207D01*
X65509Y-51213D01*
X65510Y-51222D01*
X65513Y-51233D01*
X65518Y-51247D01*
X65519Y-51250D01*
X65529Y-51275D01*
X65539Y-51278D01*
X65552Y-51281D01*
X65562Y-51282D01*
X65571Y-51282D01*
X65580Y-51279D01*
X65589Y-51274D01*
X65591Y-51273D01*
X65602Y-51266D01*
X65613Y-51263D01*
X65623Y-51263D01*
X65627Y-51264D01*
X65634Y-51267D01*
X65637Y-51271D01*
X65638Y-51278D01*
X65637Y-51283D01*
X65637Y-51289D01*
X65637Y-51294D01*
X65639Y-51299D01*
X65642Y-51307D01*
X65643Y-51310D01*
X65647Y-51320D01*
X65652Y-51329D01*
X65656Y-51337D01*
X65657Y-51338D01*
X65661Y-51345D01*
X65666Y-51354D01*
X65670Y-51363D01*
X65671Y-51364D01*
X65676Y-51372D01*
X65682Y-51382D01*
X65688Y-51391D01*
X65690Y-51394D01*
X65699Y-51406D01*
X65708Y-51420D01*
X65716Y-51434D01*
X65723Y-51447D01*
X65728Y-51458D01*
X65728Y-51458D01*
X65731Y-51465D01*
X65732Y-51469D01*
X65732Y-51471D01*
X65730Y-51473D01*
X65729Y-51475D01*
X65726Y-51479D01*
X65723Y-51485D01*
X65723Y-51486D01*
X65720Y-51490D01*
X65716Y-51497D01*
X65710Y-51504D01*
X65707Y-51507D01*
X65702Y-51514D01*
X65698Y-51520D01*
X65696Y-51525D01*
X65696Y-51531D01*
X65697Y-51539D01*
X65698Y-51546D01*
X65700Y-51554D01*
X65703Y-51560D01*
X65707Y-51565D01*
X65709Y-51567D01*
X65711Y-51570D01*
X65713Y-51571D01*
X65715Y-51573D01*
X65718Y-51574D01*
X65721Y-51575D01*
X65726Y-51575D01*
X65732Y-51575D01*
X65741Y-51575D01*
X65751Y-51575D01*
X65766Y-51574D01*
X65784Y-51573D01*
X65786Y-51573D01*
X65801Y-51573D01*
X65812Y-51573D01*
X65820Y-51573D01*
X65825Y-51573D01*
X65828Y-51573D01*
X65830Y-51574D01*
X65830Y-51575D01*
X65830Y-51577D01*
X65829Y-51583D01*
X65828Y-51592D01*
X65826Y-51604D01*
X65823Y-51619D01*
X65820Y-51636D01*
X65817Y-51655D01*
X65814Y-51676D01*
X65810Y-51698D01*
X65806Y-51720D01*
X65802Y-51743D01*
X65799Y-51765D01*
X65795Y-51785D01*
X65792Y-51804D01*
X65790Y-51821D01*
X65787Y-51835D01*
X65785Y-51847D01*
X65784Y-51856D01*
X65783Y-51861D01*
X65783Y-51863D01*
X65785Y-51864D01*
X65791Y-51865D01*
X65799Y-51867D01*
X65808Y-51870D01*
X65816Y-51872D01*
X65829Y-51875D01*
X65845Y-51879D01*
X65860Y-51884D01*
X65873Y-51888D01*
X65875Y-51889D01*
X65885Y-51892D01*
X65894Y-51894D01*
X65901Y-51896D01*
X65904Y-51896D01*
X65905Y-51896D01*
X65906Y-51894D01*
X65908Y-51888D01*
X65911Y-51879D01*
X65916Y-51867D01*
X65921Y-51852D01*
X65927Y-51833D01*
X65935Y-51812D01*
X65943Y-51788D01*
X65952Y-51762D01*
X65962Y-51733D01*
X65973Y-51702D01*
X65984Y-51669D01*
X65996Y-51634D01*
X66009Y-51598D01*
X66022Y-51559D01*
X66036Y-51520D01*
X66050Y-51479D01*
X66064Y-51437D01*
X66079Y-51394D01*
X66094Y-51350D01*
X66109Y-51305D01*
X66125Y-51260D01*
X66140Y-51215D01*
X66156Y-51169D01*
X66171Y-51124D01*
X66187Y-51078D01*
X66202Y-51033D01*
X66218Y-50988D01*
X66233Y-50943D01*
X66248Y-50900D01*
X66263Y-50857D01*
X66277Y-50815D01*
X66291Y-50775D01*
X66304Y-50735D01*
X66309Y-50720D01*
X66318Y-50695D01*
X66326Y-50672D01*
X66333Y-50649D01*
X66341Y-50628D01*
X66347Y-50609D01*
X66353Y-50593D01*
X66358Y-50578D01*
X66362Y-50566D01*
X66365Y-50557D01*
X66367Y-50552D01*
X66368Y-50549D01*
X66368Y-50549D01*
X66369Y-50551D01*
X66372Y-50555D01*
X66377Y-50563D01*
X66383Y-50573D01*
X66390Y-50585D01*
X66398Y-50599D01*
X66408Y-50615D01*
X66418Y-50633D01*
X66429Y-50651D01*
X66440Y-50671D01*
X66452Y-50691D01*
X66463Y-50711D01*
X66475Y-50731D01*
X66486Y-50751D01*
X66498Y-50770D01*
X66508Y-50789D01*
X66518Y-50806D01*
X66527Y-50822D01*
X66535Y-50836D01*
X66542Y-50848D01*
X66548Y-50858D01*
X66551Y-50865D01*
X66554Y-50870D01*
X66554Y-50871D01*
X66553Y-50873D01*
X66551Y-50879D01*
X66547Y-50887D01*
X66541Y-50898D01*
X66534Y-50912D01*
X66526Y-50928D01*
X66517Y-50947D01*
X66506Y-50967D01*
X66495Y-50989D01*
X66483Y-51013D01*
X66470Y-51038D01*
X66457Y-51064D01*
X66451Y-51075D01*
X66439Y-51099D01*
X66425Y-51126D01*
X66410Y-51156D01*
X66393Y-51188D01*
X66376Y-51223D01*
X66357Y-51259D01*
X66338Y-51297D01*
X66318Y-51336D01*
X66297Y-51376D01*
X66277Y-51416D01*
X66256Y-51457D01*
X66236Y-51497D01*
X66215Y-51537D01*
X66195Y-51575D01*
X66178Y-51609D01*
X66008Y-51942D01*
X66023Y-51950D01*
X66060Y-51971D01*
X66094Y-51992D01*
X66128Y-52014D01*
X66161Y-52038D01*
X66168Y-52044D01*
X66170Y-52043D01*
X66176Y-52040D01*
X66183Y-52034D01*
X66193Y-52027D01*
X66206Y-52017D01*
X66221Y-52006D01*
X66222Y-52005D01*
X66254Y-51980D01*
X66290Y-51953D01*
X66328Y-51924D01*
X66369Y-51893D01*
X66412Y-51862D01*
X66457Y-51829D01*
X66492Y-51803D01*
X66492Y-51440D01*
X66495Y-51428D01*
X66501Y-51415D01*
X66510Y-51401D01*
X66518Y-51391D01*
X66526Y-51381D01*
X66532Y-51373D01*
X66536Y-51364D01*
X66539Y-51355D01*
X66539Y-51353D01*
X66542Y-51346D01*
X66547Y-51338D01*
X66553Y-51331D01*
X66564Y-51317D01*
X66571Y-51302D01*
X66574Y-51290D01*
X66576Y-51284D01*
X66579Y-51280D01*
X66585Y-51278D01*
X66594Y-51275D01*
X66596Y-51275D01*
X66612Y-51274D01*
X66628Y-51276D01*
X66645Y-51281D01*
X66662Y-51289D01*
X66677Y-51301D01*
X66682Y-51306D01*
X66688Y-51313D01*
X66689Y-51322D01*
X66688Y-51332D01*
X66688Y-51333D01*
X66685Y-51343D01*
X66679Y-51355D01*
X66672Y-51368D01*
X66664Y-51383D01*
X66656Y-51398D01*
X66647Y-51413D01*
X66639Y-51424D01*
X66634Y-51433D01*
X66630Y-51440D01*
X66628Y-51447D01*
X66626Y-51453D01*
X66626Y-51454D01*
X66622Y-51466D01*
X66619Y-51475D01*
X66615Y-51482D01*
X66610Y-51487D01*
X66602Y-51491D01*
X66592Y-51495D01*
X66585Y-51498D01*
X66576Y-51501D01*
X66571Y-51502D01*
X66567Y-51503D01*
X66565Y-51503D01*
X66562Y-51502D01*
X66561Y-51501D01*
X66556Y-51498D01*
X66551Y-51494D01*
X66550Y-51493D01*
X66544Y-51489D01*
X66537Y-51485D01*
X66533Y-51483D01*
X66520Y-51476D01*
X66509Y-51469D01*
X66501Y-51462D01*
X66497Y-51458D01*
X66493Y-51449D01*
X66492Y-51440D01*
X66492Y-51803D01*
X66503Y-51795D01*
X66551Y-51761D01*
X66600Y-51726D01*
X66649Y-51690D01*
X66698Y-51655D01*
X66748Y-51620D01*
X66797Y-51586D01*
X66846Y-51552D01*
X66894Y-51519D01*
X66895Y-51519D01*
X66919Y-51501D01*
X66926Y-51513D01*
X66928Y-51515D01*
X66931Y-51521D01*
X66936Y-51530D01*
X66944Y-51542D01*
X66952Y-51558D01*
X66963Y-51576D01*
X66975Y-51597D01*
X66989Y-51621D01*
X67004Y-51648D01*
X67021Y-51677D01*
X67040Y-51709D01*
X67060Y-51743D01*
X67081Y-51780D01*
X67103Y-51819D01*
X67127Y-51860D01*
X67152Y-51904D01*
X67178Y-51949D01*
X67206Y-51996D01*
X67234Y-52046D01*
X67264Y-52097D01*
X67294Y-52150D01*
X67326Y-52204D01*
X67358Y-52260D01*
X67391Y-52318D01*
X67425Y-52376D01*
X67460Y-52437D01*
X67495Y-52498D01*
X67532Y-52560D01*
X67568Y-52624D01*
X67605Y-52689D01*
X67643Y-52753D01*
X67681Y-52819D01*
X67720Y-52886D01*
X67759Y-52954D01*
X67798Y-53022D01*
X67838Y-53090D01*
X67878Y-53159D01*
X67918Y-53228D01*
X67958Y-53298D01*
X67998Y-53367D01*
X68038Y-53437D01*
X68078Y-53506D01*
X68118Y-53576D01*
X68158Y-53645D01*
X68198Y-53714D01*
X68238Y-53782D01*
X68277Y-53851D01*
X68316Y-53918D01*
X68355Y-53985D01*
X68393Y-54051D01*
X68431Y-54117D01*
X68468Y-54181D01*
X68504Y-54245D01*
X68541Y-54307D01*
X68576Y-54369D01*
X68611Y-54429D01*
X68645Y-54488D01*
X68678Y-54545D01*
X68710Y-54601D01*
X68742Y-54656D01*
X68772Y-54709D01*
X68802Y-54760D01*
X68830Y-54809D01*
X68858Y-54857D01*
X68884Y-54902D01*
X68909Y-54945D01*
X68933Y-54987D01*
X68955Y-55026D01*
X68976Y-55063D01*
X68996Y-55097D01*
X69015Y-55129D01*
X69032Y-55158D01*
X69047Y-55185D01*
X69061Y-55209D01*
X69073Y-55230D01*
X69084Y-55249D01*
X69093Y-55264D01*
X69100Y-55276D01*
X69105Y-55285D01*
X69108Y-55291D01*
X69110Y-55294D01*
X69110Y-55294D01*
X69110Y-55294D01*
X69109Y-55294D01*
X69107Y-55294D01*
X69104Y-55294D01*
X69101Y-55295D01*
X69096Y-55295D01*
X69091Y-55295D01*
X69084Y-55295D01*
X69077Y-55295D01*
X69068Y-55295D01*
X69058Y-55295D01*
X69047Y-55295D01*
X69035Y-55295D01*
X69021Y-55295D01*
X69006Y-55295D01*
X68989Y-55296D01*
X68971Y-55296D01*
X68951Y-55296D01*
X68929Y-55296D01*
X68906Y-55296D01*
X68881Y-55296D01*
X68854Y-55296D01*
X68825Y-55296D01*
X68795Y-55296D01*
X68762Y-55296D01*
X68728Y-55296D01*
X68691Y-55296D01*
X68652Y-55296D01*
X68611Y-55296D01*
X68568Y-55296D01*
X68523Y-55296D01*
X68475Y-55296D01*
X68425Y-55296D01*
X68372Y-55296D01*
X68317Y-55296D01*
X68259Y-55297D01*
X68198Y-55297D01*
X68135Y-55297D01*
X68069Y-55297D01*
X68001Y-55297D01*
X67929Y-55297D01*
X67855Y-55297D01*
X67777Y-55297D01*
X67697Y-55297D01*
X67613Y-55297D01*
X67527Y-55297D01*
X67437Y-55297D01*
X67344Y-55297D01*
X67248Y-55297D01*
X67148Y-55297D01*
X67045Y-55297D01*
X66939Y-55297D01*
X66829Y-55297D01*
X66716Y-55297D01*
X66598Y-55297D01*
X66478Y-55297D01*
X66353Y-55297D01*
X66225Y-55297D01*
X66093Y-55297D01*
X65957Y-55297D01*
X65954Y-55297D01*
X65817Y-55297D01*
X65685Y-55297D01*
X65556Y-55297D01*
X65431Y-55297D01*
X65309Y-55297D01*
X65191Y-55297D01*
X65076Y-55297D01*
X64965Y-55297D01*
X64858Y-55297D01*
X64754Y-55297D01*
X64654Y-55297D01*
X64557Y-55297D01*
X64463Y-55297D01*
X64372Y-55297D01*
X64285Y-55297D01*
X64201Y-55297D01*
X64120Y-55297D01*
X64042Y-55297D01*
X63967Y-55297D01*
X63894Y-55297D01*
X63825Y-55297D01*
X63759Y-55297D01*
X63695Y-55297D01*
X63634Y-55296D01*
X63576Y-55296D01*
X63520Y-55296D01*
X63467Y-55296D01*
X63416Y-55296D01*
X63368Y-55296D01*
X63322Y-55296D01*
X63279Y-55296D01*
X63238Y-55296D01*
X63199Y-55296D01*
X63162Y-55296D01*
X63128Y-55296D01*
X63095Y-55296D01*
X63065Y-55296D01*
X63037Y-55296D01*
X63010Y-55296D01*
X62985Y-55296D01*
X62963Y-55296D01*
X62942Y-55296D01*
X62922Y-55296D01*
X62905Y-55295D01*
X62888Y-55295D01*
X62874Y-55295D01*
X62861Y-55295D01*
X62849Y-55295D01*
X62839Y-55295D01*
X62830Y-55295D01*
X62823Y-55295D01*
X62816Y-55295D01*
X62811Y-55295D01*
X62807Y-55295D01*
X62804Y-55294D01*
X62802Y-55294D01*
X62801Y-55294D01*
X62801Y-55294D01*
X62803Y-55292D01*
X62808Y-55289D01*
X62815Y-55283D01*
X62825Y-55275D01*
X62837Y-55265D01*
X62850Y-55255D01*
X62864Y-55243D01*
X62880Y-55230D01*
X62897Y-55217D01*
X62936Y-55185D01*
X62979Y-55151D01*
X63024Y-55114D01*
X63072Y-55075D01*
X63122Y-55034D01*
X63175Y-54992D01*
X63229Y-54947D01*
X63286Y-54901D01*
X63344Y-54853D01*
X63404Y-54804D01*
X63466Y-54754D01*
X63529Y-54702D01*
X63594Y-54649D01*
X63659Y-54595D01*
X63726Y-54541D01*
X63793Y-54485D01*
X63861Y-54430D01*
X63929Y-54373D01*
X63998Y-54317D01*
X64067Y-54260D01*
X64137Y-54203D01*
X64206Y-54146D01*
X64274Y-54089D01*
X64343Y-54032D01*
X64411Y-53976D01*
X64478Y-53920D01*
X64545Y-53865D01*
X64610Y-53811D01*
X64675Y-53757D01*
X64708Y-53730D01*
X64976Y-53507D01*
X64952Y-53484D01*
X64944Y-53476D01*
X64937Y-53470D01*
X64931Y-53465D01*
X64928Y-53462D01*
X64926Y-53461D01*
X64925Y-53462D01*
X64920Y-53465D01*
X64912Y-53470D01*
X64903Y-53476D01*
X64891Y-53484D01*
X64878Y-53493D01*
X64864Y-53502D01*
X64857Y-53508D01*
X64837Y-53521D01*
X64815Y-53536D01*
X64790Y-53553D01*
X64763Y-53571D01*
X64734Y-53591D01*
X64703Y-53611D01*
X64672Y-53632D01*
X64639Y-53654D01*
X64607Y-53676D01*
X64574Y-53697D01*
X64541Y-53719D01*
X64509Y-53740D01*
X64478Y-53761D01*
X64461Y-53772D01*
X64448Y-53780D01*
X64433Y-53790D01*
X64416Y-53801D01*
X64398Y-53813D01*
X64378Y-53826D01*
X64357Y-53840D01*
X64336Y-53854D01*
X64314Y-53868D01*
X64291Y-53882D01*
X64269Y-53897D01*
X64248Y-53911D01*
X64227Y-53924D01*
X64207Y-53937D01*
X64188Y-53949D01*
X64171Y-53960D01*
X64156Y-53970D01*
X64143Y-53979D01*
X64133Y-53986D01*
X64125Y-53991D01*
X64120Y-53994D01*
X64114Y-53997D01*
X64119Y-53992D01*
X64122Y-53988D01*
X64123Y-53986D01*
X64123Y-53985D01*
X64121Y-53983D01*
X64117Y-53978D01*
X64110Y-53972D01*
X64103Y-53965D01*
X64094Y-53956D01*
X64085Y-53948D01*
X64076Y-53940D01*
X64067Y-53932D01*
X64059Y-53925D01*
X64053Y-53920D01*
X64053Y-53920D01*
X64046Y-53914D01*
X64040Y-53909D01*
X64035Y-53904D01*
X64034Y-53902D01*
X64031Y-53898D01*
X64027Y-53893D01*
X64021Y-53889D01*
X64016Y-53885D01*
X64013Y-53884D01*
X64009Y-53885D01*
X64004Y-53889D01*
X64003Y-53890D01*
X63999Y-53892D01*
X63994Y-53895D01*
X63988Y-53897D01*
X63978Y-53900D01*
X63966Y-53904D01*
X63960Y-53906D01*
X63947Y-53909D01*
X63934Y-53913D01*
X63921Y-53916D01*
X63911Y-53918D01*
X63905Y-53920D01*
X63885Y-53926D01*
X63868Y-53934D01*
X63857Y-53939D01*
X63844Y-53945D01*
X63833Y-53950D01*
X63829Y-53951D01*
X63820Y-53955D01*
X63809Y-53960D01*
X63797Y-53965D01*
X63784Y-53971D01*
X63773Y-53977D01*
X63761Y-53983D01*
X63752Y-53988D01*
X63744Y-53992D01*
X63739Y-53995D01*
X63734Y-53999D01*
X63729Y-54003D01*
X63724Y-54009D01*
X63723Y-54010D01*
X63716Y-54017D01*
X63711Y-54022D01*
X63708Y-54027D01*
X63706Y-54032D01*
X63704Y-54038D01*
X63703Y-54046D01*
X63702Y-54056D01*
X63701Y-54066D01*
X63701Y-54075D01*
X63702Y-54083D01*
X63702Y-54085D01*
X63706Y-54089D01*
X63709Y-54090D01*
X63720Y-54093D01*
X63733Y-54098D01*
X63748Y-54104D01*
X63755Y-54107D01*
X63764Y-54111D01*
X63772Y-54113D01*
X63779Y-54115D01*
X63780Y-54115D01*
X63785Y-54115D01*
X63793Y-54116D01*
X63802Y-54117D01*
X63807Y-54118D01*
X63820Y-54120D01*
X63831Y-54120D01*
X63841Y-54120D01*
X63850Y-54119D01*
X63860Y-54116D01*
X63861Y-54116D01*
X63870Y-54114D01*
X63881Y-54111D01*
X63893Y-54108D01*
X63903Y-54105D01*
X63921Y-54100D01*
X63942Y-54094D01*
X63963Y-54086D01*
X63982Y-54078D01*
X63986Y-54076D01*
X63992Y-54074D01*
X63995Y-54073D01*
X63996Y-54073D01*
X63996Y-54073D01*
X63994Y-54074D01*
X63989Y-54078D01*
X63980Y-54084D01*
X63969Y-54091D01*
X63955Y-54100D01*
X63938Y-54111D01*
X63919Y-54123D01*
X63897Y-54137D01*
X63873Y-54152D01*
X63847Y-54169D01*
X63819Y-54187D01*
X63789Y-54206D01*
X63758Y-54226D01*
X63725Y-54248D01*
X63690Y-54270D01*
X63654Y-54293D01*
X63617Y-54317D01*
X63578Y-54341D01*
X63539Y-54366D01*
X63499Y-54392D01*
X63458Y-54418D01*
X63417Y-54444D01*
X63375Y-54470D01*
X63334Y-54497D01*
X63291Y-54524D01*
X63249Y-54551D01*
X63207Y-54578D01*
X63165Y-54604D01*
X63124Y-54631D01*
X63083Y-54657D01*
X63043Y-54682D01*
X63003Y-54707D01*
X62965Y-54732D01*
X62927Y-54756D01*
X62891Y-54779D01*
X62855Y-54801D01*
X62822Y-54823D01*
X62789Y-54843D01*
X62759Y-54863D01*
X62730Y-54881D01*
X62703Y-54898D01*
X62679Y-54913D01*
X62656Y-54928D01*
X62636Y-54940D01*
X62619Y-54951D01*
X62603Y-54961D01*
X62591Y-54969D01*
X62582Y-54974D01*
X62575Y-54978D01*
X62572Y-54980D01*
X62571Y-54981D01*
X62571Y-55717D01*
X62591Y-55717D01*
X62636Y-55717D01*
X62683Y-55717D01*
X62733Y-55717D01*
X62785Y-55717D01*
X62840Y-55717D01*
X62896Y-55717D01*
X62956Y-55717D01*
X63017Y-55717D01*
X63082Y-55717D01*
X63149Y-55717D01*
X63218Y-55717D01*
X63291Y-55717D01*
X63366Y-55717D01*
X63444Y-55717D01*
X63524Y-55717D01*
X63608Y-55717D01*
X63695Y-55717D01*
X63785Y-55717D01*
X63877Y-55717D01*
X63973Y-55717D01*
X64073Y-55717D01*
X64175Y-55717D01*
X64281Y-55717D01*
X64390Y-55717D01*
X64502Y-55717D01*
X64618Y-55717D01*
X64737Y-55717D01*
X64860Y-55717D01*
X64987Y-55718D01*
X65117Y-55718D01*
X65251Y-55718D01*
X65388Y-55718D01*
X65530Y-55718D01*
X65675Y-55718D01*
X65739Y-55718D01*
X65859Y-55718D01*
X65980Y-55718D01*
X66100Y-55718D01*
X66218Y-55718D01*
X66336Y-55718D01*
X66452Y-55718D01*
X66567Y-55718D01*
X66681Y-55718D01*
X66793Y-55718D01*
X66904Y-55718D01*
X67014Y-55718D01*
X67122Y-55718D01*
X67229Y-55718D01*
X67334Y-55718D01*
X67437Y-55718D01*
X67538Y-55718D01*
X67637Y-55718D01*
X67735Y-55717D01*
X67831Y-55717D01*
X67924Y-55717D01*
X68016Y-55717D01*
X68105Y-55717D01*
X68193Y-55717D01*
X68278Y-55717D01*
X68360Y-55717D01*
X68441Y-55717D01*
X68518Y-55717D01*
X68594Y-55717D01*
X68667Y-55717D01*
X68737Y-55717D01*
X68804Y-55717D01*
X68869Y-55717D01*
X68931Y-55717D01*
X68990Y-55717D01*
X69046Y-55717D01*
X69099Y-55717D01*
X69149Y-55717D01*
X69196Y-55717D01*
X69240Y-55717D01*
X69280Y-55717D01*
X69318Y-55717D01*
X69351Y-55717D01*
X69382Y-55717D01*
X69409Y-55717D01*
X69432Y-55717D01*
X69452Y-55717D01*
X69469Y-55717D01*
X69481Y-55716D01*
X69490Y-55716D01*
X69495Y-55716D01*
X69496Y-55716D01*
X69524Y-55712D01*
X69551Y-55704D01*
X69577Y-55692D01*
X69600Y-55677D01*
X69622Y-55659D01*
X69641Y-55638D01*
X69657Y-55615D01*
X69666Y-55599D01*
X69674Y-55580D01*
X69681Y-55561D01*
X69684Y-55542D01*
X69686Y-55521D01*
X69687Y-55508D01*
X69686Y-55486D01*
X69683Y-55467D01*
X69679Y-55449D01*
X69673Y-55431D01*
X69665Y-55414D01*
X69663Y-55412D01*
X69660Y-55406D01*
X69655Y-55397D01*
X69648Y-55385D01*
X69639Y-55370D01*
X69629Y-55352D01*
X69616Y-55330D01*
X69602Y-55306D01*
X69587Y-55278D01*
X69569Y-55248D01*
X69550Y-55215D01*
X69530Y-55180D01*
X69508Y-55141D01*
X69484Y-55101D01*
X69459Y-55057D01*
X69433Y-55011D01*
X69405Y-54963D01*
X69376Y-54913D01*
X69345Y-54860D01*
X69314Y-54805D01*
X69281Y-54748D01*
X69247Y-54689D01*
X69211Y-54628D01*
X69175Y-54564D01*
X69138Y-54500D01*
X69099Y-54433D01*
X69060Y-54364D01*
X69019Y-54294D01*
X68978Y-54222D01*
X68935Y-54149D01*
X68892Y-54074D01*
X68848Y-53998D01*
X68804Y-53920D01*
X68758Y-53842D01*
X68712Y-53761D01*
X68665Y-53680D01*
X68617Y-53598D01*
X68569Y-53514D01*
X68521Y-53430D01*
X68471Y-53345D01*
X68422Y-53259D01*
X68372Y-53172D01*
X68321Y-53084D01*
X68270Y-52996D01*
X68219Y-52907D01*
X68167Y-52818D01*
X68115Y-52729D01*
X68063Y-52639D01*
X68011Y-52548D01*
X67959Y-52458D01*
X67906Y-52367D01*
X67854Y-52275D01*
X67801Y-52184D01*
X67748Y-52093D01*
X67696Y-52002D01*
X67643Y-51911D01*
X67591Y-51820D01*
X67539Y-51730D01*
X67486Y-51639D01*
X67435Y-51549D01*
X67383Y-51460D01*
X67332Y-51371D01*
X67281Y-51283D01*
X67230Y-51195D01*
X67180Y-51108D01*
X67130Y-51022D01*
X67081Y-50936D01*
X67032Y-50852D01*
X66984Y-50768D01*
X66936Y-50686D01*
X66889Y-50604D01*
X66843Y-50524D01*
X66797Y-50445D01*
X66752Y-50367D01*
X66708Y-50291D01*
X66665Y-50216D01*
X66622Y-50142D01*
X66581Y-50070D01*
X66540Y-50000D01*
X66500Y-49931D01*
X66461Y-49864D01*
X66424Y-49799D01*
X66387Y-49735D01*
X66352Y-49674D01*
X66317Y-49615D01*
X66284Y-49557D01*
X66252Y-49502D01*
X66222Y-49449D01*
X66192Y-49398D01*
X66164Y-49349D01*
X66137Y-49303D01*
X66112Y-49260D01*
X66088Y-49218D01*
X66066Y-49180D01*
X66045Y-49144D01*
X66026Y-49110D01*
X66008Y-49080D01*
X65992Y-49052D01*
X65978Y-49027D01*
X65965Y-49005D01*
X65954Y-48986D01*
X65945Y-48970D01*
X65937Y-48958D01*
X65932Y-48948D01*
X65928Y-48942D01*
X65927Y-48939D01*
X65927Y-48939D01*
X65909Y-48916D01*
X65889Y-48896D01*
X65867Y-48879D01*
X65842Y-48864D01*
X65815Y-48853D01*
X65788Y-48845D01*
X65780Y-48844D01*
X65768Y-48843D01*
X65756Y-48843D01*
X65743Y-48843D01*
X65730Y-48844D01*
X65720Y-48844D01*
X65712Y-48845D01*
X65683Y-48853D01*
X65656Y-48865D01*
X65632Y-48879D01*
X65609Y-48897D01*
X65590Y-48917D01*
X65574Y-48938D01*
X65572Y-48941D01*
X65569Y-48947D01*
X65564Y-48956D01*
X65557Y-48968D01*
X65548Y-48983D01*
X65537Y-49002D01*
X65525Y-49023D01*
X65511Y-49048D01*
X65495Y-49075D01*
X65477Y-49105D01*
X65458Y-49138D01*
X65438Y-49174D01*
X65415Y-49212D01*
X65392Y-49253D01*
X65367Y-49296D01*
X65340Y-49342D01*
X65312Y-49390D01*
X65283Y-49441D01*
X65253Y-49494D01*
X65221Y-49549D01*
X65188Y-49606D01*
X65154Y-49665D01*
X65118Y-49726D01*
X65082Y-49789D01*
X65044Y-49854D01*
X65006Y-49921D01*
X64966Y-49989D01*
X64926Y-50059D01*
X64884Y-50131D01*
X64842Y-50205D01*
X64799Y-50279D01*
X64755Y-50356D01*
X64710Y-50433D01*
X64664Y-50512D01*
X64618Y-50592D01*
X64571Y-50674D01*
X64524Y-50756D01*
X64475Y-50839D01*
X64427Y-50924D01*
X64377Y-51009D01*
X64328Y-51095D01*
X64278Y-51182D01*
X64227Y-51270D01*
X64176Y-51358D01*
X64125Y-51447D01*
X64073Y-51536D01*
X64021Y-51626D01*
X63969Y-51716D01*
X63917Y-51807D01*
X63865Y-51897D01*
X63812Y-51988D01*
X63759Y-52080D01*
X63707Y-52171D01*
X63654Y-52262D01*
X63602Y-52353D01*
X63549Y-52444D01*
X63497Y-52535D01*
X63444Y-52625D01*
X63392Y-52716D01*
X63340Y-52805D01*
X63289Y-52894D01*
X63237Y-52983D01*
X63187Y-53071D01*
X63136Y-53159D01*
X63086Y-53246D01*
X63036Y-53332D01*
X62987Y-53418D01*
X62938Y-53502D01*
X62890Y-53586D01*
X62842Y-53668D01*
X62795Y-53750D01*
X62749Y-53830D01*
X62703Y-53909D01*
X62658Y-53987D01*
X62614Y-54063D01*
X62571Y-54138D01*
X62528Y-54212D01*
X62487Y-54284D01*
X62446Y-54354D01*
X62407Y-54423D01*
X62368Y-54490D01*
X62330Y-54555D01*
X62294Y-54618D01*
X62258Y-54680D01*
X62224Y-54739D01*
X62191Y-54797D01*
X62159Y-54852D01*
X62129Y-54905D01*
X62099Y-54956D01*
X62071Y-55004D01*
X62045Y-55051D01*
X62019Y-55094D01*
X61996Y-55135D01*
X61973Y-55174D01*
X61953Y-55210D01*
X61934Y-55243D01*
X61916Y-55274D01*
X61900Y-55302D01*
X61886Y-55327D01*
X61873Y-55349D01*
X61862Y-55367D01*
X61853Y-55383D01*
X61846Y-55396D01*
X61840Y-55405D01*
X61837Y-55412D01*
X61835Y-55414D01*
X61835Y-55414D01*
X61826Y-55434D01*
X61820Y-55452D01*
X61816Y-55471D01*
X61814Y-55490D01*
X61814Y-55508D01*
X61814Y-55508D01*
X61814Y-55508D01*
G37*
G36*
X65290Y-54017D02*
X65292Y-54018D01*
X65298Y-54019D01*
X65307Y-54021D01*
X65319Y-54023D01*
X65335Y-54026D01*
X65353Y-54029D01*
X65374Y-54033D01*
X65398Y-54037D01*
X65424Y-54041D01*
X65452Y-54046D01*
X65482Y-54052D01*
X65514Y-54057D01*
X65547Y-54063D01*
X65581Y-54069D01*
X65617Y-54076D01*
X65633Y-54079D01*
X65975Y-54139D01*
X66204Y-54299D01*
X66231Y-54318D01*
X66257Y-54336D01*
X66282Y-54353D01*
X66306Y-54370D01*
X66328Y-54385D01*
X66349Y-54399D01*
X66367Y-54413D01*
X66384Y-54424D01*
X66399Y-54435D01*
X66411Y-54443D01*
X66421Y-54450D01*
X66428Y-54455D01*
X66432Y-54458D01*
X66433Y-54459D01*
X66431Y-54459D01*
X66425Y-54460D01*
X66416Y-54462D01*
X66404Y-54465D01*
X66388Y-54468D01*
X66370Y-54472D01*
X66350Y-54476D01*
X66327Y-54481D01*
X66301Y-54486D01*
X66274Y-54491D01*
X66245Y-54497D01*
X66214Y-54504D01*
X66182Y-54510D01*
X66149Y-54517D01*
X66136Y-54520D01*
X65839Y-54580D01*
X65568Y-54773D01*
X65528Y-54802D01*
X65491Y-54828D01*
X65457Y-54852D01*
X65427Y-54873D01*
X65400Y-54893D01*
X65376Y-54910D01*
X65355Y-54925D01*
X65338Y-54937D01*
X65323Y-54948D01*
X65312Y-54957D01*
X65303Y-54963D01*
X65298Y-54967D01*
X65296Y-54969D01*
X65296Y-54969D01*
X65298Y-54971D01*
X65301Y-54976D01*
X65306Y-54983D01*
X65313Y-54993D01*
X65321Y-55005D01*
X65330Y-55018D01*
X65340Y-55032D01*
X65350Y-55047D01*
X65362Y-55063D01*
X65373Y-55078D01*
X65384Y-55094D01*
X65395Y-55109D01*
X65405Y-55124D01*
X65415Y-55137D01*
X65423Y-55149D01*
X65431Y-55159D01*
X65436Y-55167D01*
X65441Y-55173D01*
X65443Y-55176D01*
X65443Y-55176D01*
X65445Y-55175D01*
X65450Y-55172D01*
X65457Y-55167D01*
X65467Y-55161D01*
X65479Y-55153D01*
X65493Y-55143D01*
X65509Y-55133D01*
X65526Y-55122D01*
X65544Y-55110D01*
X65551Y-55105D01*
X65569Y-55093D01*
X65590Y-55079D01*
X65613Y-55063D01*
X65638Y-55046D01*
X65665Y-55029D01*
X65692Y-55010D01*
X65720Y-54992D01*
X65748Y-54973D01*
X65774Y-54955D01*
X65801Y-54937D01*
X65816Y-54927D01*
X65975Y-54820D01*
X66408Y-54769D01*
X66449Y-54764D01*
X66489Y-54759D01*
X66528Y-54755D01*
X66565Y-54750D01*
X66602Y-54746D01*
X66636Y-54742D01*
X66669Y-54738D01*
X66700Y-54734D01*
X66728Y-54730D01*
X66754Y-54727D01*
X66778Y-54724D01*
X66799Y-54722D01*
X66816Y-54720D01*
X66831Y-54718D01*
X66842Y-54716D01*
X66850Y-54715D01*
X66854Y-54715D01*
X66855Y-54715D01*
X66879Y-54709D01*
X66905Y-54701D01*
X66933Y-54690D01*
X66963Y-54678D01*
X66993Y-54665D01*
X67023Y-54650D01*
X67053Y-54635D01*
X67082Y-54618D01*
X67110Y-54602D01*
X67136Y-54585D01*
X67157Y-54569D01*
X67159Y-54567D01*
X67161Y-54566D01*
X67163Y-54564D01*
X67166Y-54561D01*
X67169Y-54558D01*
X67172Y-54555D01*
X67176Y-54551D01*
X67181Y-54546D01*
X67186Y-54540D01*
X67192Y-54534D01*
X67199Y-54526D01*
X67207Y-54517D01*
X67216Y-54506D01*
X67226Y-54495D01*
X67237Y-54482D01*
X67250Y-54467D01*
X67264Y-54450D01*
X67279Y-54432D01*
X67297Y-54412D01*
X67315Y-54389D01*
X67336Y-54365D01*
X67359Y-54338D01*
X67383Y-54309D01*
X67410Y-54278D01*
X67438Y-54244D01*
X67469Y-54208D01*
X67502Y-54168D01*
X67538Y-54126D01*
X67560Y-54100D01*
X67573Y-54084D01*
X67586Y-54070D01*
X67597Y-54056D01*
X67607Y-54044D01*
X67616Y-54034D01*
X67624Y-54025D01*
X67629Y-54019D01*
X67632Y-54016D01*
X67633Y-54015D01*
X67635Y-54017D01*
X67639Y-54020D01*
X67646Y-54026D01*
X67655Y-54034D01*
X67667Y-54044D01*
X67680Y-54055D01*
X67694Y-54068D01*
X67710Y-54081D01*
X67727Y-54096D01*
X67743Y-54111D01*
X67852Y-54206D01*
X67852Y-54452D01*
X67852Y-54698D01*
X67924Y-54697D01*
X67944Y-54697D01*
X67964Y-54696D01*
X67986Y-54696D01*
X68006Y-54696D01*
X68025Y-54695D01*
X68042Y-54695D01*
X68048Y-54695D01*
X68100Y-54693D01*
X68100Y-54387D01*
X68100Y-54080D01*
X67909Y-53887D01*
X67719Y-53693D01*
X67609Y-53693D01*
X67499Y-53693D01*
X67472Y-53708D01*
X67446Y-53721D01*
X67422Y-53731D01*
X67399Y-53739D01*
X67377Y-53744D01*
X67355Y-53746D01*
X67332Y-53745D01*
X67309Y-53741D01*
X67285Y-53734D01*
X67259Y-53725D01*
X67231Y-53713D01*
X67215Y-53705D01*
X67192Y-53693D01*
X66973Y-53693D01*
X66755Y-53693D01*
X66559Y-53538D01*
X66531Y-53515D01*
X66505Y-53495D01*
X66482Y-53477D01*
X66462Y-53461D01*
X66444Y-53447D01*
X66428Y-53435D01*
X66415Y-53424D01*
X66403Y-53415D01*
X66394Y-53408D01*
X66386Y-53402D01*
X66379Y-53397D01*
X66374Y-53393D01*
X66370Y-53390D01*
X66367Y-53388D01*
X66364Y-53387D01*
X66363Y-53386D01*
X66362Y-53386D01*
X66361Y-53387D01*
X66360Y-53387D01*
X66359Y-53389D01*
X66355Y-53394D01*
X66349Y-53402D01*
X66341Y-53412D01*
X66331Y-53423D01*
X66321Y-53436D01*
X66309Y-53451D01*
X66296Y-53467D01*
X66287Y-53479D01*
X66274Y-53495D01*
X66262Y-53510D01*
X66250Y-53524D01*
X66240Y-53536D01*
X66232Y-53547D01*
X66225Y-53556D01*
X66220Y-53562D01*
X66217Y-53566D01*
X66216Y-53567D01*
X66217Y-53569D01*
X66222Y-53572D01*
X66229Y-53578D01*
X66238Y-53587D01*
X66250Y-53597D01*
X66264Y-53609D01*
X66280Y-53622D01*
X66298Y-53637D01*
X66318Y-53654D01*
X66339Y-53671D01*
X66362Y-53690D01*
X66386Y-53710D01*
X66411Y-53731D01*
X66437Y-53752D01*
X66442Y-53757D01*
X66668Y-53945D01*
X66748Y-53946D01*
X66770Y-53946D01*
X66794Y-53947D01*
X66820Y-53947D01*
X66846Y-53948D01*
X66871Y-53948D01*
X66894Y-53949D01*
X66905Y-53949D01*
X66982Y-53950D01*
X66835Y-54103D01*
X66808Y-54131D01*
X66783Y-54157D01*
X66762Y-54179D01*
X66742Y-54198D01*
X66726Y-54215D01*
X66713Y-54229D01*
X66702Y-54240D01*
X66693Y-54248D01*
X66688Y-54253D01*
X66685Y-54255D01*
X66684Y-54255D01*
X66683Y-54254D01*
X66677Y-54251D01*
X66669Y-54246D01*
X66659Y-54239D01*
X66645Y-54231D01*
X66629Y-54220D01*
X66611Y-54209D01*
X66590Y-54196D01*
X66568Y-54182D01*
X66544Y-54167D01*
X66518Y-54151D01*
X66491Y-54134D01*
X66462Y-54116D01*
X66432Y-54098D01*
X66402Y-54079D01*
X66398Y-54076D01*
X66113Y-53898D01*
X65720Y-53821D01*
X65681Y-53813D01*
X65644Y-53806D01*
X65607Y-53799D01*
X65572Y-53792D01*
X65538Y-53785D01*
X65507Y-53779D01*
X65477Y-53773D01*
X65449Y-53768D01*
X65424Y-53763D01*
X65401Y-53758D01*
X65380Y-53754D01*
X65363Y-53751D01*
X65349Y-53748D01*
X65337Y-53746D01*
X65330Y-53745D01*
X65325Y-53744D01*
X65325Y-53744D01*
X65324Y-53746D01*
X65323Y-53752D01*
X65322Y-53761D01*
X65321Y-53772D01*
X65319Y-53786D01*
X65317Y-53802D01*
X65315Y-53819D01*
X65312Y-53838D01*
X65310Y-53857D01*
X65307Y-53877D01*
X65305Y-53897D01*
X65302Y-53917D01*
X65300Y-53936D01*
X65298Y-53954D01*
X65296Y-53970D01*
X65294Y-53985D01*
X65292Y-53997D01*
X65291Y-54007D01*
X65291Y-54014D01*
X65290Y-54017D01*
X65290Y-54017D01*
X65290Y-54017D01*
X65290Y-54017D01*
G37*
G36*
X63079Y-54427D02*
X63080Y-54433D01*
X63085Y-54437D01*
X63091Y-54441D01*
X63098Y-54444D01*
X63107Y-54447D01*
X63116Y-54449D01*
X63129Y-54450D01*
X63140Y-54452D01*
X63175Y-54453D01*
X63201Y-54452D01*
X63218Y-54451D01*
X63235Y-54448D01*
X63252Y-54444D01*
X63267Y-54440D01*
X63281Y-54435D01*
X63289Y-54431D01*
X63300Y-54425D01*
X63308Y-54418D01*
X63313Y-54409D01*
X63315Y-54399D01*
X63315Y-54389D01*
X63315Y-54380D01*
X63315Y-54368D01*
X63315Y-54357D01*
X63315Y-54355D01*
X63315Y-54347D01*
X63315Y-54340D01*
X63314Y-54336D01*
X63314Y-54335D01*
X63311Y-54335D01*
X63305Y-54335D01*
X63296Y-54336D01*
X63284Y-54337D01*
X63284Y-54337D01*
X63269Y-54339D01*
X63257Y-54341D01*
X63247Y-54341D01*
X63244Y-54340D01*
X63234Y-54339D01*
X63227Y-54339D01*
X63220Y-54340D01*
X63213Y-54342D01*
X63204Y-54345D01*
X63193Y-54349D01*
X63182Y-54354D01*
X63170Y-54359D01*
X63157Y-54365D01*
X63144Y-54371D01*
X63131Y-54377D01*
X63120Y-54383D01*
X63110Y-54388D01*
X63101Y-54392D01*
X63096Y-54395D01*
X63094Y-54396D01*
X63091Y-54400D01*
X63088Y-54405D01*
X63085Y-54411D01*
X63081Y-54420D01*
X63079Y-54427D01*
X63079Y-54427D01*
X63079Y-54427D01*
G37*
G36*
X67093Y-53442D02*
X67095Y-53472D01*
X67100Y-53502D01*
X67109Y-53531D01*
X67121Y-53558D01*
X67136Y-53584D01*
X67154Y-53609D01*
X67168Y-53623D01*
X67192Y-53644D01*
X67217Y-53662D01*
X67244Y-53676D01*
X67273Y-53687D01*
X67292Y-53692D01*
X67300Y-53694D01*
X67311Y-53695D01*
X67324Y-53696D01*
X67338Y-53696D01*
X67351Y-53696D01*
X67364Y-53696D01*
X67374Y-53696D01*
X67382Y-53695D01*
X67382Y-53695D01*
X67408Y-53689D01*
X67431Y-53682D01*
X67453Y-53673D01*
X67468Y-53664D01*
X67495Y-53647D01*
X67518Y-53627D01*
X67539Y-53604D01*
X67557Y-53578D01*
X67572Y-53551D01*
X67584Y-53521D01*
X67591Y-53494D01*
X67593Y-53483D01*
X67594Y-53468D01*
X67595Y-53452D01*
X67595Y-53435D01*
X67594Y-53419D01*
X67593Y-53404D01*
X67591Y-53392D01*
X67591Y-53390D01*
X67583Y-53360D01*
X67571Y-53331D01*
X67556Y-53304D01*
X67538Y-53279D01*
X67518Y-53256D01*
X67495Y-53237D01*
X67492Y-53235D01*
X67470Y-53220D01*
X67445Y-53208D01*
X67419Y-53198D01*
X67392Y-53191D01*
X67388Y-53190D01*
X67373Y-53188D01*
X67357Y-53187D01*
X67339Y-53187D01*
X67322Y-53187D01*
X67307Y-53189D01*
X67302Y-53190D01*
X67272Y-53197D01*
X67243Y-53208D01*
X67216Y-53222D01*
X67191Y-53239D01*
X67168Y-53260D01*
X67147Y-53283D01*
X67130Y-53309D01*
X67121Y-53324D01*
X67109Y-53353D01*
X67100Y-53382D01*
X67095Y-53412D01*
X67093Y-53442D01*
X67093Y-53442D01*
X67093Y-53442D01*
G37*
G36*
X63643Y-53599D02*
X63645Y-53600D01*
X63650Y-53602D01*
X63658Y-53605D01*
X63668Y-53609D01*
X63681Y-53613D01*
X63696Y-53619D01*
X63712Y-53624D01*
X63729Y-53630D01*
X63747Y-53637D01*
X63765Y-53643D01*
X63783Y-53649D01*
X63801Y-53655D01*
X63818Y-53661D01*
X63834Y-53667D01*
X63848Y-53672D01*
X63860Y-53676D01*
X63870Y-53679D01*
X63878Y-53681D01*
X63882Y-53683D01*
X63883Y-53683D01*
X63885Y-53682D01*
X63891Y-53680D01*
X63900Y-53677D01*
X63911Y-53673D01*
X63925Y-53668D01*
X63940Y-53662D01*
X63958Y-53655D01*
X63976Y-53648D01*
X63994Y-53641D01*
X64013Y-53634D01*
X64032Y-53626D01*
X64049Y-53620D01*
X64064Y-53614D01*
X64077Y-53608D01*
X64087Y-53604D01*
X64095Y-53600D01*
X64100Y-53598D01*
X64102Y-53597D01*
X64103Y-53594D01*
X64108Y-53589D01*
X64115Y-53582D01*
X64125Y-53574D01*
X64136Y-53566D01*
X64148Y-53557D01*
X64161Y-53548D01*
X64175Y-53540D01*
X64189Y-53531D01*
X64202Y-53524D01*
X64215Y-53517D01*
X64219Y-53515D01*
X64230Y-53510D01*
X64237Y-53506D01*
X64242Y-53503D01*
X64245Y-53501D01*
X64246Y-53500D01*
X64245Y-53498D01*
X64245Y-53498D01*
X64243Y-53495D01*
X64239Y-53490D01*
X64233Y-53483D01*
X64226Y-53476D01*
X64226Y-53476D01*
X64216Y-53465D01*
X64210Y-53456D01*
X64206Y-53450D01*
X64206Y-53445D01*
X64207Y-53443D01*
X64207Y-53441D01*
X64205Y-53438D01*
X64200Y-53435D01*
X64192Y-53433D01*
X64181Y-53434D01*
X64166Y-53437D01*
X64154Y-53440D01*
X64146Y-53442D01*
X64137Y-53444D01*
X64128Y-53447D01*
X64117Y-53449D01*
X64104Y-53452D01*
X64090Y-53455D01*
X64073Y-53458D01*
X64053Y-53462D01*
X64029Y-53467D01*
X64025Y-53468D01*
X63970Y-53480D01*
X63915Y-53494D01*
X63863Y-53511D01*
X63820Y-53528D01*
X63810Y-53531D01*
X63798Y-53537D01*
X63783Y-53543D01*
X63767Y-53549D01*
X63749Y-53556D01*
X63731Y-53564D01*
X63715Y-53570D01*
X63700Y-53576D01*
X63685Y-53582D01*
X63672Y-53588D01*
X63661Y-53592D01*
X63652Y-53596D01*
X63646Y-53598D01*
X63643Y-53599D01*
X63643Y-53599D01*
X63643Y-53599D01*
X63643Y-53599D01*
G37*
G36*
X64710Y-52877D02*
X64715Y-52882D01*
X64716Y-52883D01*
X64718Y-52884D01*
X64720Y-52885D01*
X64724Y-52887D01*
X64729Y-52888D01*
X64736Y-52890D01*
X64745Y-52891D01*
X64757Y-52894D01*
X64771Y-52896D01*
X64789Y-52900D01*
X64809Y-52904D01*
X64823Y-52906D01*
X64842Y-52910D01*
X64861Y-52913D01*
X64879Y-52916D01*
X64894Y-52919D01*
X64908Y-52922D01*
X64919Y-52924D01*
X64927Y-52926D01*
X64932Y-52927D01*
X64932Y-52927D01*
X64938Y-52930D01*
X64942Y-52934D01*
X64944Y-52939D01*
X64947Y-52947D01*
X64951Y-52957D01*
X64956Y-52969D01*
X64962Y-52983D01*
X64968Y-52998D01*
X64974Y-53013D01*
X64980Y-53029D01*
X64986Y-53044D01*
X64992Y-53059D01*
X64997Y-53073D01*
X65002Y-53085D01*
X65005Y-53095D01*
X65008Y-53103D01*
X65010Y-53108D01*
X65010Y-53109D01*
X65010Y-53111D01*
X65009Y-53113D01*
X65009Y-53115D01*
X65007Y-53118D01*
X65005Y-53123D01*
X65001Y-53128D01*
X64996Y-53136D01*
X64989Y-53146D01*
X64981Y-53158D01*
X64972Y-53171D01*
X64961Y-53187D01*
X64950Y-53203D01*
X64939Y-53219D01*
X64929Y-53234D01*
X64919Y-53249D01*
X64910Y-53262D01*
X64902Y-53274D01*
X64896Y-53284D01*
X64891Y-53292D01*
X64888Y-53297D01*
X64887Y-53299D01*
X64887Y-53300D01*
X64887Y-53302D01*
X64889Y-53305D01*
X64892Y-53308D01*
X64896Y-53313D01*
X64902Y-53319D01*
X64909Y-53327D01*
X64918Y-53336D01*
X64930Y-53348D01*
X64944Y-53362D01*
X64960Y-53379D01*
X64965Y-53383D01*
X64979Y-53398D01*
X64994Y-53412D01*
X65007Y-53425D01*
X65018Y-53436D01*
X65029Y-53447D01*
X65037Y-53455D01*
X65044Y-53461D01*
X65048Y-53465D01*
X65050Y-53466D01*
X65055Y-53467D01*
X65058Y-53467D01*
X65061Y-53466D01*
X65066Y-53462D01*
X65074Y-53457D01*
X65084Y-53451D01*
X65095Y-53443D01*
X65108Y-53434D01*
X65122Y-53425D01*
X65125Y-53423D01*
X65139Y-53413D01*
X65151Y-53405D01*
X65163Y-53397D01*
X65173Y-53390D01*
X65180Y-53385D01*
X65186Y-53381D01*
X65188Y-53380D01*
X65188Y-53380D01*
X65190Y-53379D01*
X65195Y-53376D01*
X65201Y-53372D01*
X65209Y-53366D01*
X65213Y-53364D01*
X65224Y-53356D01*
X65233Y-53351D01*
X65239Y-53348D01*
X65242Y-53348D01*
X65246Y-53349D01*
X65252Y-53351D01*
X65261Y-53355D01*
X65271Y-53360D01*
X65273Y-53362D01*
X65289Y-53370D01*
X65303Y-53377D01*
X65315Y-53383D01*
X65324Y-53387D01*
X65329Y-53388D01*
X65332Y-53389D01*
X65335Y-53386D01*
X65337Y-53383D01*
X65339Y-53381D01*
X65341Y-53375D01*
X65345Y-53367D01*
X65349Y-53357D01*
X65354Y-53345D01*
X65359Y-53332D01*
X65365Y-53319D01*
X65371Y-53305D01*
X65376Y-53293D01*
X65381Y-53281D01*
X65385Y-53270D01*
X65389Y-53262D01*
X65391Y-53256D01*
X65392Y-53253D01*
X65392Y-53253D01*
X65393Y-53251D01*
X65395Y-53246D01*
X65398Y-53237D01*
X65403Y-53226D01*
X65408Y-53213D01*
X65415Y-53197D01*
X65422Y-53180D01*
X65430Y-53160D01*
X65438Y-53140D01*
X65443Y-53127D01*
X65454Y-53103D01*
X65462Y-53081D01*
X65470Y-53063D01*
X65476Y-53047D01*
X65481Y-53034D01*
X65485Y-53024D01*
X65488Y-53016D01*
X65491Y-53010D01*
X65492Y-53005D01*
X65493Y-53002D01*
X65493Y-53000D01*
X65493Y-52999D01*
X65490Y-52995D01*
X65485Y-52991D01*
X65481Y-52989D01*
X65469Y-52981D01*
X65456Y-52971D01*
X65442Y-52961D01*
X65429Y-52949D01*
X65417Y-52939D01*
X65412Y-52933D01*
X65392Y-52910D01*
X65376Y-52885D01*
X65363Y-52858D01*
X65353Y-52830D01*
X65347Y-52801D01*
X65345Y-52772D01*
X65346Y-52743D01*
X65350Y-52714D01*
X65359Y-52685D01*
X65366Y-52667D01*
X65380Y-52639D01*
X65398Y-52614D01*
X65418Y-52592D01*
X65441Y-52572D01*
X65466Y-52555D01*
X65493Y-52541D01*
X65521Y-52531D01*
X65547Y-52525D01*
X65561Y-52523D01*
X65577Y-52522D01*
X65594Y-52522D01*
X65611Y-52522D01*
X65626Y-52524D01*
X65633Y-52525D01*
X65662Y-52532D01*
X65691Y-52543D01*
X65717Y-52557D01*
X65741Y-52573D01*
X65762Y-52593D01*
X65782Y-52615D01*
X65799Y-52640D01*
X65813Y-52666D01*
X65824Y-52695D01*
X65831Y-52725D01*
X65832Y-52729D01*
X65833Y-52747D01*
X65834Y-52766D01*
X65833Y-52787D01*
X65831Y-52807D01*
X65828Y-52824D01*
X65818Y-52853D01*
X65805Y-52881D01*
X65789Y-52907D01*
X65769Y-52931D01*
X65767Y-52933D01*
X65757Y-52943D01*
X65746Y-52954D01*
X65732Y-52965D01*
X65718Y-52976D01*
X65705Y-52985D01*
X65699Y-52989D01*
X65693Y-52993D01*
X65689Y-52997D01*
X65687Y-52999D01*
X65687Y-53000D01*
X65688Y-53003D01*
X65689Y-53006D01*
X65690Y-53011D01*
X65692Y-53017D01*
X65695Y-53025D01*
X65699Y-53035D01*
X65704Y-53047D01*
X65710Y-53062D01*
X65717Y-53079D01*
X65725Y-53098D01*
X65734Y-53121D01*
X65745Y-53147D01*
X65756Y-53176D01*
X65763Y-53194D01*
X65774Y-53220D01*
X65785Y-53245D01*
X65795Y-53269D01*
X65804Y-53292D01*
X65813Y-53312D01*
X65820Y-53331D01*
X65828Y-53347D01*
X65833Y-53361D01*
X65838Y-53372D01*
X65842Y-53381D01*
X65845Y-53386D01*
X65845Y-53387D01*
X65847Y-53388D01*
X65848Y-53389D01*
X65850Y-53389D01*
X65852Y-53388D01*
X65856Y-53387D01*
X65862Y-53384D01*
X65869Y-53380D01*
X65880Y-53374D01*
X65893Y-53367D01*
X65894Y-53367D01*
X65906Y-53361D01*
X65917Y-53355D01*
X65926Y-53351D01*
X65933Y-53348D01*
X65937Y-53347D01*
X65938Y-53346D01*
X65940Y-53347D01*
X65945Y-53350D01*
X65952Y-53354D01*
X65961Y-53360D01*
X65973Y-53368D01*
X65988Y-53377D01*
X66006Y-53389D01*
X66026Y-53404D01*
X66030Y-53406D01*
X66047Y-53418D01*
X66062Y-53428D01*
X66077Y-53438D01*
X66090Y-53447D01*
X66101Y-53454D01*
X66110Y-53460D01*
X66117Y-53465D01*
X66120Y-53467D01*
X66121Y-53467D01*
X66126Y-53467D01*
X66129Y-53466D01*
X66131Y-53464D01*
X66136Y-53460D01*
X66143Y-53453D01*
X66152Y-53445D01*
X66162Y-53435D01*
X66173Y-53424D01*
X66186Y-53411D01*
X66199Y-53399D01*
X66212Y-53385D01*
X66225Y-53372D01*
X66238Y-53359D01*
X66250Y-53347D01*
X66261Y-53336D01*
X66271Y-53326D01*
X66279Y-53317D01*
X66285Y-53311D01*
X66289Y-53306D01*
X66290Y-53305D01*
X66292Y-53300D01*
X66292Y-53296D01*
X66291Y-53294D01*
X66287Y-53289D01*
X66282Y-53281D01*
X66275Y-53271D01*
X66267Y-53259D01*
X66258Y-53245D01*
X66247Y-53230D01*
X66236Y-53213D01*
X66230Y-53204D01*
X66216Y-53184D01*
X66204Y-53167D01*
X66195Y-53152D01*
X66187Y-53140D01*
X66180Y-53131D01*
X66176Y-53123D01*
X66172Y-53117D01*
X66170Y-53113D01*
X66169Y-53110D01*
X66169Y-53109D01*
X66170Y-53106D01*
X66172Y-53101D01*
X66175Y-53092D01*
X66179Y-53081D01*
X66184Y-53068D01*
X66189Y-53054D01*
X66195Y-53038D01*
X66201Y-53023D01*
X66207Y-53007D01*
X66214Y-52992D01*
X66219Y-52977D01*
X66225Y-52964D01*
X66229Y-52953D01*
X66233Y-52943D01*
X66236Y-52937D01*
X66237Y-52934D01*
X66241Y-52930D01*
X66246Y-52927D01*
X66250Y-52926D01*
X66256Y-52925D01*
X66266Y-52923D01*
X66278Y-52921D01*
X66293Y-52918D01*
X66310Y-52915D01*
X66328Y-52911D01*
X66348Y-52908D01*
X66356Y-52906D01*
X66379Y-52902D01*
X66398Y-52898D01*
X66414Y-52895D01*
X66427Y-52893D01*
X66438Y-52891D01*
X66446Y-52889D01*
X66452Y-52887D01*
X66457Y-52886D01*
X66460Y-52885D01*
X66462Y-52884D01*
X66464Y-52883D01*
X66464Y-52882D01*
X66469Y-52877D01*
X66469Y-52765D01*
X66469Y-52739D01*
X66468Y-52716D01*
X66468Y-52695D01*
X66468Y-52679D01*
X66468Y-52666D01*
X66467Y-52657D01*
X66467Y-52651D01*
X66467Y-52650D01*
X66463Y-52646D01*
X66461Y-52644D01*
X66459Y-52644D01*
X66453Y-52642D01*
X66443Y-52640D01*
X66431Y-52638D01*
X66417Y-52635D01*
X66401Y-52632D01*
X66382Y-52629D01*
X66363Y-52625D01*
X66349Y-52622D01*
X66322Y-52617D01*
X66299Y-52613D01*
X66279Y-52609D01*
X66263Y-52606D01*
X66251Y-52603D01*
X66242Y-52601D01*
X66237Y-52600D01*
X66236Y-52599D01*
X66235Y-52597D01*
X66232Y-52592D01*
X66228Y-52584D01*
X66222Y-52573D01*
X66216Y-52558D01*
X66208Y-52541D01*
X66199Y-52519D01*
X66198Y-52516D01*
X66189Y-52496D01*
X66182Y-52480D01*
X66176Y-52466D01*
X66172Y-52456D01*
X66169Y-52447D01*
X66166Y-52440D01*
X66165Y-52435D01*
X66164Y-52432D01*
X66164Y-52429D01*
X66164Y-52428D01*
X66164Y-52426D01*
X66165Y-52423D01*
X66167Y-52420D01*
X66170Y-52415D01*
X66174Y-52408D01*
X66179Y-52400D01*
X66186Y-52390D01*
X66194Y-52377D01*
X66205Y-52362D01*
X66217Y-52345D01*
X66227Y-52329D01*
X66239Y-52312D01*
X66250Y-52296D01*
X66260Y-52281D01*
X66269Y-52267D01*
X66277Y-52256D01*
X66284Y-52246D01*
X66288Y-52239D01*
X66291Y-52235D01*
X66292Y-52234D01*
X66292Y-52229D01*
X66290Y-52225D01*
X66289Y-52222D01*
X66284Y-52218D01*
X66278Y-52211D01*
X66269Y-52202D01*
X66259Y-52192D01*
X66248Y-52180D01*
X66236Y-52168D01*
X66223Y-52155D01*
X66210Y-52142D01*
X66197Y-52129D01*
X66184Y-52117D01*
X66172Y-52104D01*
X66161Y-52093D01*
X66150Y-52084D01*
X66142Y-52075D01*
X66135Y-52069D01*
X66130Y-52065D01*
X66128Y-52063D01*
X66128Y-52063D01*
X66123Y-52063D01*
X66121Y-52063D01*
X66119Y-52064D01*
X66114Y-52067D01*
X66106Y-52072D01*
X66096Y-52079D01*
X66084Y-52087D01*
X66070Y-52096D01*
X66055Y-52107D01*
X66038Y-52118D01*
X66024Y-52128D01*
X66006Y-52140D01*
X65990Y-52151D01*
X65974Y-52161D01*
X65961Y-52171D01*
X65949Y-52179D01*
X65939Y-52185D01*
X65931Y-52190D01*
X65926Y-52193D01*
X65924Y-52194D01*
X65922Y-52194D01*
X65917Y-52193D01*
X65910Y-52190D01*
X65901Y-52187D01*
X65888Y-52182D01*
X65873Y-52176D01*
X65854Y-52168D01*
X65842Y-52163D01*
X65825Y-52157D01*
X65810Y-52150D01*
X65796Y-52144D01*
X65783Y-52139D01*
X65773Y-52135D01*
X65766Y-52132D01*
X65761Y-52129D01*
X65760Y-52129D01*
X65757Y-52125D01*
X65754Y-52120D01*
X65754Y-52120D01*
X65753Y-52117D01*
X65752Y-52110D01*
X65750Y-52100D01*
X65748Y-52088D01*
X65746Y-52073D01*
X65742Y-52056D01*
X65739Y-52037D01*
X65735Y-52018D01*
X65733Y-52004D01*
X65728Y-51980D01*
X65725Y-51960D01*
X65722Y-51944D01*
X65719Y-51930D01*
X65717Y-51919D01*
X65715Y-51910D01*
X65713Y-51904D01*
X65712Y-51899D01*
X65711Y-51895D01*
X65710Y-51893D01*
X65709Y-51891D01*
X65708Y-51890D01*
X65703Y-51886D01*
X65590Y-51886D01*
X65476Y-51886D01*
X65472Y-51890D01*
X65468Y-51894D01*
X65467Y-51897D01*
X65467Y-51897D01*
X65466Y-51900D01*
X65465Y-51906D01*
X65464Y-51915D01*
X65462Y-51927D01*
X65459Y-51941D01*
X65456Y-51956D01*
X65453Y-51973D01*
X65450Y-51991D01*
X65446Y-52009D01*
X65443Y-52027D01*
X65439Y-52045D01*
X65436Y-52062D01*
X65433Y-52078D01*
X65430Y-52092D01*
X65428Y-52104D01*
X65426Y-52114D01*
X65424Y-52120D01*
X65424Y-52124D01*
X65424Y-52124D01*
X65423Y-52125D01*
X65422Y-52126D01*
X65420Y-52128D01*
X65418Y-52129D01*
X65415Y-52131D01*
X65410Y-52133D01*
X65403Y-52136D01*
X65395Y-52140D01*
X65383Y-52145D01*
X65369Y-52150D01*
X65352Y-52157D01*
X65335Y-52164D01*
X65315Y-52173D01*
X65298Y-52179D01*
X65284Y-52185D01*
X65273Y-52189D01*
X65265Y-52192D01*
X65259Y-52193D01*
X65256Y-52194D01*
X65255Y-52194D01*
X65252Y-52193D01*
X65247Y-52189D01*
X65239Y-52184D01*
X65228Y-52177D01*
X65216Y-52169D01*
X65202Y-52160D01*
X65186Y-52149D01*
X65170Y-52138D01*
X65156Y-52128D01*
X65139Y-52116D01*
X65122Y-52105D01*
X65107Y-52095D01*
X65094Y-52086D01*
X65082Y-52078D01*
X65072Y-52071D01*
X65065Y-52066D01*
X65060Y-52063D01*
X65058Y-52062D01*
X65054Y-52062D01*
X65050Y-52064D01*
X65047Y-52066D01*
X65042Y-52070D01*
X65035Y-52077D01*
X65027Y-52085D01*
X65016Y-52095D01*
X65005Y-52107D01*
X64993Y-52119D01*
X64980Y-52132D01*
X64966Y-52145D01*
X64953Y-52158D01*
X64941Y-52171D01*
X64928Y-52183D01*
X64917Y-52194D01*
X64908Y-52204D01*
X64899Y-52213D01*
X64893Y-52220D01*
X64889Y-52224D01*
X64888Y-52226D01*
X64887Y-52231D01*
X64887Y-52234D01*
X64888Y-52236D01*
X64892Y-52241D01*
X64897Y-52249D01*
X64904Y-52259D01*
X64912Y-52271D01*
X64921Y-52285D01*
X64932Y-52300D01*
X64943Y-52317D01*
X64951Y-52329D01*
X64963Y-52346D01*
X64974Y-52362D01*
X64984Y-52377D01*
X64993Y-52391D01*
X65001Y-52402D01*
X65008Y-52412D01*
X65012Y-52419D01*
X65015Y-52424D01*
X65016Y-52425D01*
X65016Y-52426D01*
X65017Y-52428D01*
X65017Y-52430D01*
X65016Y-52432D01*
X65015Y-52436D01*
X65013Y-52441D01*
X65011Y-52447D01*
X65007Y-52456D01*
X65003Y-52467D01*
X64997Y-52480D01*
X64990Y-52496D01*
X64982Y-52516D01*
X64980Y-52519D01*
X64973Y-52537D01*
X64966Y-52553D01*
X64959Y-52567D01*
X64954Y-52579D01*
X64949Y-52588D01*
X64946Y-52595D01*
X64944Y-52598D01*
X64944Y-52598D01*
X64942Y-52599D01*
X64939Y-52600D01*
X64934Y-52602D01*
X64928Y-52603D01*
X64919Y-52605D01*
X64907Y-52608D01*
X64892Y-52610D01*
X64875Y-52614D01*
X64853Y-52618D01*
X64851Y-52618D01*
X64825Y-52623D01*
X64803Y-52627D01*
X64784Y-52631D01*
X64768Y-52634D01*
X64755Y-52636D01*
X64744Y-52638D01*
X64735Y-52640D01*
X64729Y-52642D01*
X64724Y-52643D01*
X64720Y-52644D01*
X64718Y-52645D01*
X64716Y-52646D01*
X64715Y-52646D01*
X64714Y-52647D01*
X64714Y-52648D01*
X64713Y-52649D01*
X64713Y-52651D01*
X64712Y-52653D01*
X64712Y-52656D01*
X64711Y-52661D01*
X64711Y-52667D01*
X64711Y-52675D01*
X64711Y-52686D01*
X64710Y-52699D01*
X64710Y-52715D01*
X64710Y-52734D01*
X64710Y-52756D01*
X64710Y-52764D01*
X64710Y-52877D01*
X64710Y-52877D01*
X64710Y-52877D01*
G37*
G36*
X63858Y-53169D02*
X63858Y-53173D01*
X63860Y-53187D01*
X63862Y-53196D01*
X63863Y-53203D01*
X63865Y-53209D01*
X63868Y-53212D01*
X63871Y-53215D01*
X63876Y-53218D01*
X63880Y-53220D01*
X63886Y-53222D01*
X63892Y-53224D01*
X63899Y-53225D01*
X63908Y-53225D01*
X63919Y-53225D01*
X63933Y-53224D01*
X63949Y-53222D01*
X63968Y-53219D01*
X63971Y-53218D01*
X63987Y-53216D01*
X64001Y-53214D01*
X64014Y-53213D01*
X64027Y-53212D01*
X64040Y-53211D01*
X64055Y-53210D01*
X64073Y-53209D01*
X64080Y-53209D01*
X64105Y-53208D01*
X64127Y-53207D01*
X64145Y-53206D01*
X64160Y-53205D01*
X64172Y-53205D01*
X64182Y-53204D01*
X64190Y-53203D01*
X64196Y-53203D01*
X64201Y-53202D01*
X64204Y-53201D01*
X64207Y-53200D01*
X64209Y-53199D01*
X64219Y-53193D01*
X64226Y-53186D01*
X64228Y-53182D01*
X64229Y-53173D01*
X64229Y-53163D01*
X64227Y-53153D01*
X64225Y-53149D01*
X64223Y-53141D01*
X64223Y-53132D01*
X64225Y-53121D01*
X64227Y-53114D01*
X64229Y-53106D01*
X64228Y-53100D01*
X64225Y-53094D01*
X64220Y-53087D01*
X64214Y-53080D01*
X64138Y-53078D01*
X64105Y-53078D01*
X64076Y-53077D01*
X64051Y-53078D01*
X64028Y-53078D01*
X64017Y-53079D01*
X63973Y-53081D01*
X63962Y-53092D01*
X63954Y-53099D01*
X63947Y-53105D01*
X63940Y-53110D01*
X63931Y-53115D01*
X63921Y-53121D01*
X63903Y-53130D01*
X63889Y-53139D01*
X63877Y-53146D01*
X63869Y-53153D01*
X63863Y-53158D01*
X63859Y-53164D01*
X63858Y-53169D01*
X63858Y-53169D01*
X63858Y-53169D01*
G37*
G36*
X65227Y-51913D02*
X65227Y-51915D01*
X65229Y-51914D01*
X65233Y-51913D01*
X65240Y-51911D01*
X65247Y-51908D01*
X65265Y-51900D01*
X65256Y-51900D01*
X65249Y-51900D01*
X65241Y-51903D01*
X65234Y-51906D01*
X65229Y-51910D01*
X65228Y-51911D01*
X65227Y-51913D01*
X65227Y-51913D01*
X65227Y-51913D01*
G37*
G36*
X65111Y-51656D02*
X65113Y-51664D01*
X65118Y-51670D01*
X65119Y-51671D01*
X65125Y-51676D01*
X65131Y-51685D01*
X65135Y-51695D01*
X65138Y-51706D01*
X65139Y-51717D01*
X65138Y-51722D01*
X65137Y-51728D01*
X65135Y-51736D01*
X65133Y-51746D01*
X65132Y-51750D01*
X65130Y-51758D01*
X65129Y-51766D01*
X65128Y-51771D01*
X65128Y-51773D01*
X65130Y-51781D01*
X65135Y-51787D01*
X65141Y-51792D01*
X65148Y-51794D01*
X65158Y-51797D01*
X65170Y-51799D01*
X65181Y-51802D01*
X65192Y-51803D01*
X65197Y-51804D01*
X65210Y-51805D01*
X65223Y-51795D01*
X65230Y-51789D01*
X65234Y-51785D01*
X65238Y-51780D01*
X65241Y-51774D01*
X65245Y-51766D01*
X65252Y-51749D01*
X65257Y-51734D01*
X65260Y-51721D01*
X65262Y-51710D01*
X65261Y-51704D01*
X65260Y-51696D01*
X65259Y-51688D01*
X65257Y-51685D01*
X65253Y-51679D01*
X65247Y-51671D01*
X65239Y-51662D01*
X65231Y-51652D01*
X65222Y-51643D01*
X65213Y-51635D01*
X65210Y-51632D01*
X65202Y-51626D01*
X65195Y-51618D01*
X65188Y-51612D01*
X65187Y-51610D01*
X65177Y-51601D01*
X65167Y-51595D01*
X65156Y-51593D01*
X65145Y-51595D01*
X65137Y-51599D01*
X65131Y-51603D01*
X65126Y-51608D01*
X65122Y-51614D01*
X65120Y-51618D01*
X65114Y-51633D01*
X65111Y-51645D01*
X65111Y-51656D01*
X65111Y-51656D01*
X65111Y-51656D01*
G37*
G36*
X66124Y-51335D02*
X66124Y-51341D01*
X66126Y-51345D01*
X66126Y-51345D01*
X66128Y-51347D01*
X66131Y-51352D01*
X66134Y-51358D01*
X66134Y-51359D01*
X66138Y-51366D01*
X66141Y-51371D01*
X66144Y-51374D01*
X66148Y-51376D01*
X66155Y-51378D01*
X66164Y-51380D01*
X66175Y-51381D01*
X66187Y-51383D01*
X66199Y-51384D01*
X66211Y-51384D01*
X66221Y-51384D01*
X66229Y-51384D01*
X66233Y-51383D01*
X66243Y-51380D01*
X66251Y-51373D01*
X66253Y-51370D01*
X66255Y-51365D01*
X66256Y-51356D01*
X66255Y-51344D01*
X66253Y-51329D01*
X66251Y-51312D01*
X66249Y-51301D01*
X66246Y-51293D01*
X66243Y-51287D01*
X66238Y-51283D01*
X66233Y-51279D01*
X66226Y-51277D01*
X66217Y-51274D01*
X66206Y-51272D01*
X66195Y-51270D01*
X66184Y-51270D01*
X66175Y-51269D01*
X66171Y-51270D01*
X66158Y-51274D01*
X66148Y-51281D01*
X66138Y-51291D01*
X66131Y-51304D01*
X66128Y-51311D01*
X66126Y-51319D01*
X66124Y-51327D01*
X66124Y-51335D01*
X66124Y-51335D01*
X66124Y-51335D01*
G37*
G36*
X65637Y-50592D02*
X65638Y-50599D01*
X65641Y-50605D01*
X65646Y-50609D01*
X65650Y-50611D01*
X65656Y-50616D01*
X65662Y-50624D01*
X65667Y-50635D01*
X65671Y-50649D01*
X65673Y-50657D01*
X65677Y-50674D01*
X65670Y-50699D01*
X65666Y-50718D01*
X65663Y-50734D01*
X65661Y-50746D01*
X65660Y-50754D01*
X65661Y-50757D01*
X65664Y-50764D01*
X65669Y-50770D01*
X65674Y-50775D01*
X65677Y-50777D01*
X65683Y-50779D01*
X65691Y-50781D01*
X65702Y-50784D01*
X65713Y-50786D01*
X65724Y-50789D01*
X65734Y-50791D01*
X65741Y-50792D01*
X65742Y-50792D01*
X65753Y-50794D01*
X65762Y-50794D01*
X65769Y-50793D01*
X65775Y-50791D01*
X65781Y-50788D01*
X65782Y-50787D01*
X65792Y-50780D01*
X65800Y-50774D01*
X65806Y-50767D01*
X65811Y-50760D01*
X65816Y-50750D01*
X65819Y-50742D01*
X65828Y-50721D01*
X65835Y-50703D01*
X65839Y-50687D01*
X65842Y-50672D01*
X65843Y-50659D01*
X65842Y-50647D01*
X65839Y-50637D01*
X65838Y-50632D01*
X65835Y-50627D01*
X65832Y-50622D01*
X65828Y-50616D01*
X65822Y-50609D01*
X65814Y-50600D01*
X65806Y-50591D01*
X65797Y-50582D01*
X65790Y-50574D01*
X65783Y-50567D01*
X65781Y-50565D01*
X65769Y-50556D01*
X65760Y-50548D01*
X65753Y-50542D01*
X65749Y-50536D01*
X65744Y-50531D01*
X65740Y-50526D01*
X65739Y-50526D01*
X65728Y-50515D01*
X65717Y-50507D01*
X65704Y-50504D01*
X65692Y-50504D01*
X65679Y-50508D01*
X65675Y-50510D01*
X65667Y-50515D01*
X65661Y-50519D01*
X65656Y-50524D01*
X65653Y-50530D01*
X65649Y-50539D01*
X65646Y-50546D01*
X65642Y-50557D01*
X65639Y-50567D01*
X65637Y-50576D01*
X65637Y-50582D01*
X65637Y-50592D01*
X65637Y-50592D01*
X65637Y-50592D01*
G37*
%LPC*%
G54D13*
X67750Y-44500D03*
G54D14*
X68750Y-44500D03*
X69750Y-44500D03*
G54D15*
X71750Y-55750D03*
X71750Y-53750D03*
G54D16*
X71750Y-57750D03*
G54D15*
X71750Y-51750D03*
G54D17*
X62750Y-61000D03*
G54D18*
X64750Y-61000D03*
G54D17*
X64750Y-44500D03*
G54D18*
X62750Y-44500D03*
G54D13*
X67750Y-61000D03*
G54D14*
X68750Y-61000D03*
X69750Y-61000D03*
G54D19*
X71750Y-44500D03*
G54D20*
X71750Y-61000D03*
X60000Y-61000D03*
X60000Y-44500D03*
M02*
