G04 (created by PCBNEW (2013-may-18)-stable) date Tue 26 May 2015 10:23:06 PM CEST*
%MOIN*%
G04 Gerber Fmt 3.4, Leading zero omitted, Abs format*
%FSLAX34Y34*%
G01*
G70*
G90*
G04 APERTURE LIST*
%ADD10C,0.00590551*%
%ADD11R,0.036X0.036*%
%ADD12R,0.0709X0.0512*%
%ADD13R,0.0709X0.1496*%
%ADD14R,0.02X0.045*%
%ADD15R,0.1181X0.0787*%
%ADD16R,0.025X0.045*%
%ADD17R,0.045X0.025*%
%ADD18R,0.055X0.055*%
%ADD19C,0.055*%
%ADD20R,0.063X0.1024*%
%ADD21C,0.15*%
%ADD22R,0.15X0.15*%
%ADD23R,0.1X0.1*%
%ADD24C,0.1*%
%ADD25C,0.177165*%
%ADD26C,0.16*%
%ADD27C,0.035*%
%ADD28C,0.0590551*%
%ADD29C,0.0393701*%
%ADD30C,0.019685*%
%ADD31C,0.0984252*%
%ADD32C,0.00669291*%
G04 APERTURE END LIST*
G54D10*
G54D11*
X68600Y-58100D03*
X68600Y-57400D03*
X69400Y-57750D03*
X68600Y-56600D03*
X68600Y-55900D03*
X69400Y-56250D03*
X68600Y-55100D03*
X68600Y-54400D03*
X69400Y-54750D03*
G54D12*
X68819Y-48094D03*
X68819Y-49000D03*
X68819Y-49906D03*
G54D13*
X71181Y-49000D03*
G54D14*
X63500Y-58600D03*
X64000Y-58600D03*
X64500Y-58600D03*
X65000Y-58600D03*
X65500Y-58600D03*
X66000Y-58600D03*
X66500Y-58600D03*
X66500Y-56500D03*
X66000Y-56500D03*
X65500Y-56500D03*
X65000Y-56500D03*
X64500Y-56500D03*
X64000Y-56500D03*
X63500Y-56500D03*
G54D15*
X62750Y-46819D03*
X62750Y-49181D03*
G54D16*
X61950Y-57500D03*
X62550Y-57500D03*
X61950Y-58250D03*
X62550Y-58250D03*
X61950Y-56750D03*
X62550Y-56750D03*
X68700Y-47000D03*
X69300Y-47000D03*
X69950Y-47000D03*
X70550Y-47000D03*
G54D17*
X66500Y-47550D03*
X66500Y-46950D03*
X66500Y-50200D03*
X66500Y-50800D03*
G54D18*
X67750Y-44500D03*
G54D19*
X68750Y-44500D03*
X69750Y-44500D03*
G54D20*
X65000Y-50291D03*
X65000Y-51709D03*
X65000Y-48209D03*
X65000Y-46791D03*
G54D21*
X71750Y-55750D03*
X71750Y-53750D03*
G54D22*
X71750Y-57750D03*
G54D21*
X71750Y-51750D03*
G54D23*
X62750Y-61000D03*
G54D24*
X64750Y-61000D03*
G54D23*
X64750Y-44500D03*
G54D24*
X62750Y-44500D03*
G54D18*
X67750Y-61000D03*
G54D19*
X68750Y-61000D03*
X69750Y-61000D03*
G54D25*
X71750Y-44500D03*
G54D26*
X71750Y-61000D03*
X60000Y-61000D03*
X60000Y-44500D03*
G54D27*
X62250Y-59000D03*
X66500Y-48250D03*
X64000Y-55500D03*
X67000Y-46250D03*
X64500Y-55750D03*
X67250Y-46750D03*
X66000Y-55750D03*
X68000Y-55750D03*
X66500Y-57500D03*
X68000Y-57500D03*
X65500Y-54500D03*
X68000Y-54500D03*
G54D28*
X62750Y-49181D02*
X64181Y-49181D01*
X64319Y-49319D02*
X65000Y-49319D01*
X64181Y-49181D02*
X64319Y-49319D01*
G54D29*
X65000Y-50291D02*
X65000Y-49319D01*
X65000Y-49319D02*
X65000Y-49500D01*
X65000Y-49500D02*
X65000Y-49319D01*
X66500Y-50200D02*
X66500Y-49319D01*
X66500Y-49319D02*
X66500Y-49500D01*
X66500Y-49500D02*
X66500Y-49319D01*
X68819Y-49906D02*
X67906Y-49906D01*
X67906Y-49906D02*
X67750Y-49750D01*
G54D28*
X71750Y-51750D02*
X68250Y-51750D01*
X67750Y-51250D02*
X68250Y-51750D01*
X67319Y-49319D02*
X66500Y-49319D01*
X66500Y-49319D02*
X65000Y-49319D01*
X67319Y-49319D02*
X67750Y-49750D01*
X67750Y-49750D02*
X67750Y-51250D01*
G54D30*
X61950Y-58250D02*
X61950Y-58700D01*
X61950Y-58700D02*
X62250Y-59000D01*
X61950Y-56750D02*
X61950Y-56050D01*
X63500Y-56000D02*
X63250Y-55750D01*
X63500Y-56000D02*
X63500Y-56500D01*
X62250Y-55750D02*
X63250Y-55750D01*
X61950Y-56050D02*
X62250Y-55750D01*
X61950Y-57500D02*
X61950Y-56750D01*
X61950Y-58250D02*
X61950Y-57500D01*
X68700Y-47000D02*
X68500Y-47000D01*
X67500Y-47500D02*
X68000Y-47000D01*
X68000Y-47000D02*
X68500Y-47000D01*
X67500Y-47500D02*
X67500Y-48250D01*
G54D29*
X66500Y-48250D02*
X66500Y-47550D01*
X67500Y-48250D02*
X66500Y-48250D01*
X66500Y-48250D02*
X65041Y-48250D01*
X65041Y-48250D02*
X65000Y-48209D01*
X68250Y-49000D02*
X67500Y-48250D01*
X68819Y-49000D02*
X68250Y-49000D01*
G54D30*
X67750Y-61000D02*
X67750Y-60000D01*
X63500Y-59500D02*
X63750Y-59750D01*
X63750Y-59750D02*
X67500Y-59750D01*
X67500Y-59750D02*
X67750Y-60000D01*
X63500Y-59500D02*
X63500Y-58600D01*
X67750Y-45500D02*
X67000Y-46250D01*
X67750Y-44500D02*
X67750Y-45500D01*
X64000Y-55500D02*
X64000Y-56500D01*
X64250Y-59250D02*
X68500Y-59250D01*
X64000Y-59000D02*
X64250Y-59250D01*
X64000Y-58600D02*
X64000Y-59000D01*
X68750Y-59500D02*
X68750Y-61000D01*
X68500Y-59250D02*
X68750Y-59500D01*
X68750Y-45250D02*
X67250Y-46750D01*
X64500Y-56500D02*
X64500Y-55750D01*
X68750Y-45250D02*
X68750Y-44500D01*
G54D28*
X69400Y-57750D02*
X71750Y-57750D01*
X69400Y-54750D02*
X70000Y-54750D01*
X71000Y-53750D02*
X71750Y-53750D01*
X70000Y-54750D02*
X71000Y-53750D01*
X69400Y-56250D02*
X70000Y-56250D01*
X70500Y-55750D02*
X71750Y-55750D01*
X70000Y-56250D02*
X70500Y-55750D01*
G54D31*
X62750Y-44500D02*
X62750Y-46819D01*
G54D30*
X69300Y-47000D02*
X69950Y-47000D01*
X68600Y-55900D02*
X68150Y-55900D01*
X66000Y-55750D02*
X66000Y-56500D01*
X68150Y-55900D02*
X68000Y-55750D01*
X66000Y-56500D02*
X66000Y-57000D01*
X65500Y-57500D02*
X65750Y-57250D01*
X65500Y-57500D02*
X62550Y-57500D01*
X66000Y-57000D02*
X65750Y-57250D01*
X68600Y-57400D02*
X68100Y-57400D01*
X68100Y-57400D02*
X68000Y-57500D01*
X62550Y-58250D02*
X63000Y-58250D01*
X66500Y-57500D02*
X66500Y-56500D01*
X66000Y-58000D02*
X66500Y-57500D01*
X63250Y-58000D02*
X66000Y-58000D01*
X63000Y-58250D02*
X63250Y-58000D01*
X68600Y-54400D02*
X68100Y-54400D01*
X65500Y-54500D02*
X65500Y-56500D01*
X68100Y-54400D02*
X68000Y-54500D01*
X62550Y-56750D02*
X63000Y-56750D01*
X63250Y-57000D02*
X63000Y-56750D01*
X65500Y-56750D02*
X65500Y-56500D01*
X65500Y-56750D02*
X65250Y-57000D01*
X65250Y-57000D02*
X63250Y-57000D01*
G54D10*
G36*
X73129Y-60994D02*
X73103Y-61267D01*
X73025Y-61525D01*
X72898Y-61763D01*
X72739Y-61959D01*
X72739Y-44560D01*
X72732Y-44366D01*
X72708Y-44248D01*
X72638Y-44121D01*
X72259Y-44500D01*
X72638Y-44878D01*
X72708Y-44751D01*
X72739Y-44560D01*
X72739Y-61959D01*
X72728Y-61971D01*
X72654Y-62033D01*
X72654Y-61021D01*
X72641Y-60845D01*
X72633Y-60805D01*
X72633Y-58487D01*
X72633Y-57529D01*
X72633Y-55663D01*
X72633Y-53663D01*
X72633Y-51663D01*
X72599Y-51493D01*
X72533Y-51333D01*
X72437Y-51188D01*
X72315Y-51065D01*
X72172Y-50969D01*
X72128Y-50950D01*
X72128Y-45388D01*
X72128Y-43611D01*
X72001Y-43541D01*
X71810Y-43510D01*
X71616Y-43517D01*
X71498Y-43541D01*
X71371Y-43611D01*
X71750Y-43990D01*
X72128Y-43611D01*
X72128Y-45388D01*
X71750Y-45009D01*
X71371Y-45388D01*
X71498Y-45458D01*
X71689Y-45489D01*
X71883Y-45482D01*
X72001Y-45458D01*
X72128Y-45388D01*
X72128Y-50950D01*
X72012Y-50901D01*
X71842Y-50867D01*
X71669Y-50865D01*
X71669Y-50866D01*
X71669Y-49735D01*
X71668Y-48238D01*
X71663Y-48213D01*
X71653Y-48189D01*
X71639Y-48167D01*
X71620Y-48148D01*
X71599Y-48134D01*
X71575Y-48123D01*
X71549Y-48118D01*
X71523Y-48118D01*
X71240Y-48118D01*
X71240Y-44500D01*
X70861Y-44121D01*
X70791Y-44248D01*
X70760Y-44439D01*
X70767Y-44633D01*
X70791Y-44751D01*
X70861Y-44878D01*
X71240Y-44500D01*
X71240Y-48118D01*
X70813Y-48118D01*
X70787Y-48123D01*
X70775Y-48128D01*
X70775Y-47215D01*
X70775Y-46784D01*
X70775Y-46764D01*
X70771Y-46745D01*
X70763Y-46727D01*
X70752Y-46710D01*
X70738Y-46696D01*
X70722Y-46685D01*
X70704Y-46678D01*
X70684Y-46674D01*
X70637Y-46674D01*
X70612Y-46699D01*
X70612Y-46887D01*
X70750Y-46887D01*
X70775Y-46862D01*
X70775Y-46784D01*
X70775Y-47215D01*
X70775Y-47137D01*
X70750Y-47112D01*
X70612Y-47112D01*
X70612Y-47300D01*
X70637Y-47325D01*
X70684Y-47325D01*
X70704Y-47321D01*
X70722Y-47314D01*
X70738Y-47303D01*
X70752Y-47289D01*
X70763Y-47272D01*
X70771Y-47254D01*
X70775Y-47235D01*
X70775Y-47215D01*
X70775Y-48128D01*
X70763Y-48133D01*
X70741Y-48148D01*
X70723Y-48166D01*
X70708Y-48188D01*
X70698Y-48212D01*
X70693Y-48237D01*
X70692Y-48264D01*
X70693Y-49761D01*
X70698Y-49786D01*
X70708Y-49810D01*
X70722Y-49832D01*
X70741Y-49851D01*
X70762Y-49865D01*
X70786Y-49876D01*
X70812Y-49881D01*
X70838Y-49881D01*
X71548Y-49881D01*
X71574Y-49876D01*
X71598Y-49866D01*
X71620Y-49851D01*
X71638Y-49833D01*
X71653Y-49811D01*
X71663Y-49787D01*
X71668Y-49762D01*
X71669Y-49735D01*
X71669Y-50866D01*
X71499Y-50898D01*
X71338Y-50963D01*
X71193Y-51058D01*
X71069Y-51179D01*
X70972Y-51321D01*
X70487Y-51321D01*
X70487Y-47300D01*
X70487Y-47112D01*
X70487Y-46887D01*
X70487Y-46699D01*
X70462Y-46674D01*
X70415Y-46674D01*
X70395Y-46678D01*
X70377Y-46685D01*
X70361Y-46696D01*
X70347Y-46710D01*
X70336Y-46727D01*
X70328Y-46745D01*
X70324Y-46764D01*
X70324Y-46784D01*
X70324Y-46862D01*
X70349Y-46887D01*
X70487Y-46887D01*
X70487Y-47112D01*
X70349Y-47112D01*
X70324Y-47137D01*
X70324Y-47215D01*
X70324Y-47235D01*
X70328Y-47254D01*
X70336Y-47272D01*
X70347Y-47289D01*
X70361Y-47303D01*
X70377Y-47314D01*
X70395Y-47321D01*
X70415Y-47325D01*
X70462Y-47325D01*
X70487Y-47300D01*
X70487Y-51321D01*
X70208Y-51321D01*
X70208Y-47212D01*
X70208Y-46761D01*
X70203Y-46736D01*
X70193Y-46712D01*
X70178Y-46690D01*
X70160Y-46671D01*
X70138Y-46657D01*
X70126Y-46651D01*
X70126Y-44522D01*
X70123Y-44448D01*
X70114Y-44404D01*
X70076Y-44368D01*
X69944Y-44500D01*
X70076Y-44631D01*
X70114Y-44595D01*
X70126Y-44522D01*
X70126Y-46651D01*
X70114Y-46646D01*
X70089Y-46641D01*
X70062Y-46641D01*
X69881Y-46641D01*
X69881Y-44826D01*
X69881Y-44173D01*
X69845Y-44135D01*
X69772Y-44123D01*
X69698Y-44126D01*
X69654Y-44135D01*
X69618Y-44173D01*
X69750Y-44305D01*
X69881Y-44173D01*
X69881Y-44826D01*
X69750Y-44694D01*
X69618Y-44826D01*
X69654Y-44864D01*
X69727Y-44876D01*
X69801Y-44873D01*
X69845Y-44864D01*
X69881Y-44826D01*
X69881Y-46641D01*
X69811Y-46641D01*
X69786Y-46646D01*
X69762Y-46656D01*
X69740Y-46671D01*
X69721Y-46689D01*
X69707Y-46711D01*
X69696Y-46735D01*
X69691Y-46760D01*
X69691Y-46768D01*
X69558Y-46768D01*
X69558Y-46761D01*
X69555Y-46747D01*
X69555Y-44500D01*
X69423Y-44368D01*
X69385Y-44404D01*
X69373Y-44477D01*
X69376Y-44551D01*
X69385Y-44595D01*
X69423Y-44631D01*
X69555Y-44500D01*
X69555Y-46747D01*
X69553Y-46736D01*
X69543Y-46712D01*
X69528Y-46690D01*
X69510Y-46671D01*
X69488Y-46657D01*
X69464Y-46646D01*
X69439Y-46641D01*
X69412Y-46641D01*
X69161Y-46641D01*
X69158Y-46642D01*
X69158Y-44459D01*
X69142Y-44381D01*
X69112Y-44307D01*
X69068Y-44240D01*
X69011Y-44183D01*
X68945Y-44138D01*
X68871Y-44107D01*
X68792Y-44091D01*
X68712Y-44091D01*
X68634Y-44106D01*
X68559Y-44136D01*
X68492Y-44180D01*
X68435Y-44236D01*
X68390Y-44302D01*
X68358Y-44375D01*
X68342Y-44454D01*
X68340Y-44534D01*
X68355Y-44613D01*
X68384Y-44687D01*
X68428Y-44754D01*
X68483Y-44812D01*
X68518Y-44836D01*
X68518Y-45153D01*
X67269Y-46402D01*
X67294Y-46347D01*
X67307Y-46288D01*
X67307Y-46270D01*
X67913Y-45663D01*
X67927Y-45647D01*
X67941Y-45631D01*
X67941Y-45629D01*
X67942Y-45628D01*
X67952Y-45610D01*
X67963Y-45591D01*
X67963Y-45590D01*
X67964Y-45589D01*
X67970Y-45568D01*
X67976Y-45548D01*
X67976Y-45547D01*
X67977Y-45545D01*
X67979Y-45524D01*
X67981Y-45503D01*
X67981Y-45500D01*
X67981Y-45500D01*
X67981Y-45500D01*
X67981Y-45500D01*
X67981Y-44908D01*
X68038Y-44908D01*
X68063Y-44903D01*
X68087Y-44893D01*
X68109Y-44878D01*
X68128Y-44860D01*
X68142Y-44838D01*
X68153Y-44814D01*
X68158Y-44789D01*
X68158Y-44762D01*
X68158Y-44211D01*
X68153Y-44186D01*
X68143Y-44162D01*
X68128Y-44140D01*
X68110Y-44121D01*
X68088Y-44107D01*
X68064Y-44096D01*
X68039Y-44091D01*
X68012Y-44091D01*
X67461Y-44091D01*
X67436Y-44096D01*
X67412Y-44106D01*
X67390Y-44121D01*
X67371Y-44139D01*
X67357Y-44161D01*
X67346Y-44185D01*
X67341Y-44210D01*
X67341Y-44237D01*
X67341Y-44788D01*
X67346Y-44813D01*
X67356Y-44837D01*
X67371Y-44859D01*
X67389Y-44878D01*
X67411Y-44892D01*
X67435Y-44903D01*
X67460Y-44908D01*
X67487Y-44908D01*
X67518Y-44908D01*
X67518Y-45403D01*
X66980Y-45941D01*
X66971Y-45941D01*
X66912Y-45952D01*
X66856Y-45975D01*
X66805Y-46008D01*
X66762Y-46050D01*
X66728Y-46100D01*
X66704Y-46156D01*
X66691Y-46215D01*
X66691Y-46275D01*
X66702Y-46335D01*
X66724Y-46391D01*
X66757Y-46442D01*
X66799Y-46486D01*
X66848Y-46520D01*
X66904Y-46544D01*
X66963Y-46557D01*
X67007Y-46558D01*
X66978Y-46600D01*
X66954Y-46656D01*
X66941Y-46715D01*
X66941Y-46775D01*
X66952Y-46835D01*
X66974Y-46891D01*
X67007Y-46942D01*
X67049Y-46986D01*
X67098Y-47020D01*
X67154Y-47044D01*
X67213Y-47057D01*
X67273Y-47059D01*
X67333Y-47048D01*
X67389Y-47026D01*
X67440Y-46994D01*
X67484Y-46952D01*
X67519Y-46903D01*
X67544Y-46847D01*
X67557Y-46788D01*
X67557Y-46770D01*
X68913Y-45413D01*
X68927Y-45397D01*
X68941Y-45381D01*
X68941Y-45379D01*
X68942Y-45378D01*
X68952Y-45360D01*
X68963Y-45341D01*
X68963Y-45340D01*
X68964Y-45339D01*
X68970Y-45318D01*
X68976Y-45298D01*
X68976Y-45297D01*
X68977Y-45295D01*
X68979Y-45274D01*
X68981Y-45253D01*
X68981Y-45250D01*
X68981Y-45250D01*
X68981Y-45250D01*
X68981Y-45250D01*
X68981Y-44836D01*
X69002Y-44823D01*
X69060Y-44768D01*
X69106Y-44702D01*
X69139Y-44629D01*
X69157Y-44551D01*
X69158Y-44459D01*
X69158Y-46642D01*
X69136Y-46646D01*
X69112Y-46656D01*
X69090Y-46671D01*
X69071Y-46689D01*
X69057Y-46711D01*
X69046Y-46735D01*
X69041Y-46760D01*
X69041Y-46787D01*
X69041Y-47238D01*
X69046Y-47263D01*
X69056Y-47287D01*
X69071Y-47309D01*
X69089Y-47328D01*
X69111Y-47342D01*
X69135Y-47353D01*
X69160Y-47358D01*
X69187Y-47358D01*
X69438Y-47358D01*
X69463Y-47353D01*
X69487Y-47343D01*
X69509Y-47328D01*
X69528Y-47310D01*
X69542Y-47288D01*
X69553Y-47264D01*
X69558Y-47239D01*
X69558Y-47231D01*
X69691Y-47231D01*
X69691Y-47238D01*
X69696Y-47263D01*
X69706Y-47287D01*
X69721Y-47309D01*
X69739Y-47328D01*
X69761Y-47342D01*
X69785Y-47353D01*
X69810Y-47358D01*
X69837Y-47358D01*
X70088Y-47358D01*
X70113Y-47353D01*
X70137Y-47343D01*
X70159Y-47328D01*
X70178Y-47310D01*
X70192Y-47288D01*
X70203Y-47264D01*
X70208Y-47239D01*
X70208Y-47212D01*
X70208Y-51321D01*
X68427Y-51321D01*
X68178Y-51072D01*
X68178Y-50236D01*
X68353Y-50236D01*
X68360Y-50246D01*
X68379Y-50265D01*
X68400Y-50279D01*
X68424Y-50290D01*
X68450Y-50295D01*
X68476Y-50295D01*
X69186Y-50295D01*
X69212Y-50290D01*
X69236Y-50280D01*
X69258Y-50265D01*
X69276Y-50247D01*
X69291Y-50225D01*
X69301Y-50201D01*
X69306Y-50176D01*
X69307Y-50149D01*
X69307Y-49243D01*
X69306Y-48730D01*
X69301Y-48705D01*
X69291Y-48681D01*
X69277Y-48659D01*
X69273Y-48655D01*
X69273Y-48359D01*
X69273Y-47828D01*
X69270Y-47808D01*
X69262Y-47790D01*
X69251Y-47774D01*
X69237Y-47760D01*
X69221Y-47749D01*
X69203Y-47741D01*
X69184Y-47737D01*
X69164Y-47737D01*
X69021Y-47737D01*
X68996Y-47762D01*
X68996Y-47966D01*
X69248Y-47966D01*
X69273Y-47940D01*
X69273Y-47828D01*
X69273Y-48359D01*
X69273Y-48247D01*
X69248Y-48222D01*
X68996Y-48222D01*
X68996Y-48425D01*
X69021Y-48450D01*
X69164Y-48450D01*
X69184Y-48450D01*
X69203Y-48446D01*
X69221Y-48438D01*
X69237Y-48427D01*
X69251Y-48413D01*
X69262Y-48397D01*
X69270Y-48379D01*
X69273Y-48359D01*
X69273Y-48655D01*
X69258Y-48640D01*
X69237Y-48626D01*
X69213Y-48615D01*
X69187Y-48610D01*
X69161Y-48610D01*
X68641Y-48610D01*
X68641Y-48425D01*
X68641Y-48222D01*
X68641Y-47966D01*
X68641Y-47762D01*
X68616Y-47737D01*
X68473Y-47737D01*
X68453Y-47737D01*
X68434Y-47741D01*
X68416Y-47749D01*
X68400Y-47760D01*
X68386Y-47774D01*
X68375Y-47790D01*
X68367Y-47808D01*
X68364Y-47828D01*
X68364Y-47940D01*
X68389Y-47966D01*
X68641Y-47966D01*
X68641Y-48222D01*
X68389Y-48222D01*
X68364Y-48247D01*
X68364Y-48359D01*
X68367Y-48379D01*
X68375Y-48397D01*
X68386Y-48413D01*
X68400Y-48427D01*
X68416Y-48438D01*
X68434Y-48446D01*
X68453Y-48450D01*
X68473Y-48450D01*
X68616Y-48450D01*
X68641Y-48425D01*
X68641Y-48610D01*
X68451Y-48610D01*
X68425Y-48615D01*
X68401Y-48625D01*
X68379Y-48640D01*
X68368Y-48651D01*
X67733Y-48016D01*
X67731Y-48015D01*
X67731Y-47596D01*
X68096Y-47231D01*
X68441Y-47231D01*
X68441Y-47238D01*
X68446Y-47263D01*
X68456Y-47287D01*
X68471Y-47309D01*
X68489Y-47328D01*
X68511Y-47342D01*
X68535Y-47353D01*
X68560Y-47358D01*
X68587Y-47358D01*
X68838Y-47358D01*
X68863Y-47353D01*
X68887Y-47343D01*
X68909Y-47328D01*
X68928Y-47310D01*
X68942Y-47288D01*
X68953Y-47264D01*
X68958Y-47239D01*
X68958Y-47212D01*
X68958Y-46761D01*
X68953Y-46736D01*
X68943Y-46712D01*
X68928Y-46690D01*
X68910Y-46671D01*
X68888Y-46657D01*
X68864Y-46646D01*
X68839Y-46641D01*
X68812Y-46641D01*
X68561Y-46641D01*
X68536Y-46646D01*
X68512Y-46656D01*
X68490Y-46671D01*
X68471Y-46689D01*
X68457Y-46711D01*
X68446Y-46735D01*
X68441Y-46760D01*
X68441Y-46768D01*
X68000Y-46768D01*
X67978Y-46770D01*
X67957Y-46772D01*
X67956Y-46772D01*
X67954Y-46772D01*
X67934Y-46778D01*
X67913Y-46784D01*
X67912Y-46785D01*
X67911Y-46785D01*
X67892Y-46795D01*
X67873Y-46805D01*
X67872Y-46806D01*
X67871Y-46806D01*
X67855Y-46820D01*
X67838Y-46833D01*
X67836Y-46835D01*
X67836Y-46835D01*
X67836Y-46835D01*
X67836Y-46836D01*
X67336Y-47336D01*
X67322Y-47352D01*
X67308Y-47368D01*
X67308Y-47370D01*
X67307Y-47371D01*
X67297Y-47389D01*
X67286Y-47408D01*
X67286Y-47409D01*
X67285Y-47410D01*
X67279Y-47431D01*
X67273Y-47451D01*
X67273Y-47452D01*
X67272Y-47454D01*
X67270Y-47475D01*
X67268Y-47496D01*
X67268Y-47499D01*
X67268Y-47499D01*
X67268Y-47499D01*
X67268Y-47500D01*
X67268Y-47919D01*
X66830Y-47919D01*
X66830Y-47757D01*
X66842Y-47738D01*
X66853Y-47714D01*
X66858Y-47689D01*
X66858Y-47662D01*
X66858Y-47411D01*
X66853Y-47386D01*
X66843Y-47362D01*
X66828Y-47340D01*
X66825Y-47336D01*
X66825Y-47084D01*
X66825Y-46815D01*
X66821Y-46795D01*
X66814Y-46777D01*
X66803Y-46761D01*
X66789Y-46747D01*
X66772Y-46736D01*
X66754Y-46728D01*
X66735Y-46724D01*
X66715Y-46724D01*
X66637Y-46724D01*
X66612Y-46749D01*
X66612Y-46887D01*
X66800Y-46887D01*
X66825Y-46862D01*
X66825Y-46815D01*
X66825Y-47084D01*
X66825Y-47037D01*
X66800Y-47012D01*
X66612Y-47012D01*
X66612Y-47150D01*
X66637Y-47175D01*
X66715Y-47175D01*
X66735Y-47175D01*
X66754Y-47171D01*
X66772Y-47163D01*
X66789Y-47152D01*
X66803Y-47138D01*
X66814Y-47122D01*
X66821Y-47104D01*
X66825Y-47084D01*
X66825Y-47336D01*
X66810Y-47321D01*
X66788Y-47307D01*
X66764Y-47296D01*
X66739Y-47291D01*
X66712Y-47291D01*
X66703Y-47291D01*
X66684Y-47276D01*
X66628Y-47245D01*
X66566Y-47226D01*
X66502Y-47219D01*
X66438Y-47225D01*
X66387Y-47240D01*
X66387Y-47150D01*
X66387Y-47012D01*
X66387Y-46887D01*
X66387Y-46749D01*
X66362Y-46724D01*
X66284Y-46724D01*
X66264Y-46724D01*
X66245Y-46728D01*
X66227Y-46736D01*
X66210Y-46747D01*
X66196Y-46761D01*
X66185Y-46777D01*
X66178Y-46795D01*
X66174Y-46815D01*
X66174Y-46862D01*
X66199Y-46887D01*
X66387Y-46887D01*
X66387Y-47012D01*
X66199Y-47012D01*
X66174Y-47037D01*
X66174Y-47084D01*
X66178Y-47104D01*
X66185Y-47122D01*
X66196Y-47138D01*
X66210Y-47152D01*
X66227Y-47163D01*
X66245Y-47171D01*
X66264Y-47175D01*
X66284Y-47175D01*
X66362Y-47175D01*
X66387Y-47150D01*
X66387Y-47240D01*
X66376Y-47243D01*
X66319Y-47273D01*
X66296Y-47291D01*
X66261Y-47291D01*
X66236Y-47296D01*
X66212Y-47306D01*
X66190Y-47321D01*
X66171Y-47339D01*
X66157Y-47361D01*
X66146Y-47385D01*
X66141Y-47410D01*
X66141Y-47437D01*
X66141Y-47688D01*
X66146Y-47713D01*
X66156Y-47737D01*
X66169Y-47757D01*
X66169Y-47919D01*
X65448Y-47919D01*
X65448Y-47683D01*
X65443Y-47658D01*
X65433Y-47634D01*
X65418Y-47612D01*
X65415Y-47608D01*
X65415Y-47312D01*
X65415Y-46269D01*
X65411Y-46249D01*
X65404Y-46231D01*
X65393Y-46215D01*
X65379Y-46201D01*
X65362Y-46190D01*
X65350Y-46185D01*
X65350Y-44990D01*
X65350Y-44009D01*
X65350Y-43989D01*
X65346Y-43970D01*
X65338Y-43952D01*
X65327Y-43935D01*
X65313Y-43921D01*
X65297Y-43910D01*
X65279Y-43903D01*
X65259Y-43899D01*
X65025Y-43899D01*
X65000Y-43924D01*
X65000Y-44250D01*
X65325Y-44250D01*
X65350Y-44224D01*
X65350Y-44009D01*
X65350Y-44990D01*
X65350Y-44775D01*
X65325Y-44750D01*
X65000Y-44750D01*
X65000Y-45075D01*
X65025Y-45100D01*
X65259Y-45100D01*
X65279Y-45096D01*
X65297Y-45089D01*
X65313Y-45078D01*
X65327Y-45064D01*
X65338Y-45047D01*
X65346Y-45029D01*
X65350Y-45010D01*
X65350Y-44990D01*
X65350Y-46185D01*
X65344Y-46182D01*
X65325Y-46178D01*
X65305Y-46178D01*
X65182Y-46178D01*
X65157Y-46203D01*
X65157Y-46535D01*
X65390Y-46535D01*
X65415Y-46509D01*
X65415Y-46269D01*
X65415Y-47312D01*
X65415Y-47072D01*
X65390Y-47047D01*
X65157Y-47047D01*
X65157Y-47378D01*
X65182Y-47403D01*
X65305Y-47403D01*
X65325Y-47403D01*
X65344Y-47399D01*
X65362Y-47391D01*
X65379Y-47380D01*
X65393Y-47366D01*
X65404Y-47350D01*
X65411Y-47332D01*
X65415Y-47312D01*
X65415Y-47608D01*
X65400Y-47593D01*
X65378Y-47579D01*
X65354Y-47568D01*
X65329Y-47563D01*
X65302Y-47563D01*
X64842Y-47563D01*
X64842Y-47378D01*
X64842Y-47047D01*
X64842Y-46535D01*
X64842Y-46203D01*
X64817Y-46178D01*
X64694Y-46178D01*
X64674Y-46178D01*
X64655Y-46182D01*
X64637Y-46190D01*
X64620Y-46201D01*
X64606Y-46215D01*
X64595Y-46231D01*
X64588Y-46249D01*
X64584Y-46269D01*
X64584Y-46509D01*
X64609Y-46535D01*
X64842Y-46535D01*
X64842Y-47047D01*
X64609Y-47047D01*
X64584Y-47072D01*
X64584Y-47312D01*
X64588Y-47332D01*
X64595Y-47350D01*
X64606Y-47366D01*
X64620Y-47380D01*
X64637Y-47391D01*
X64655Y-47399D01*
X64674Y-47403D01*
X64694Y-47403D01*
X64817Y-47403D01*
X64842Y-47378D01*
X64842Y-47563D01*
X64671Y-47563D01*
X64646Y-47568D01*
X64622Y-47578D01*
X64600Y-47593D01*
X64581Y-47611D01*
X64567Y-47633D01*
X64556Y-47657D01*
X64551Y-47682D01*
X64551Y-47709D01*
X64551Y-48734D01*
X64556Y-48759D01*
X64566Y-48783D01*
X64581Y-48805D01*
X64599Y-48824D01*
X64621Y-48838D01*
X64645Y-48849D01*
X64670Y-48854D01*
X64697Y-48854D01*
X65328Y-48854D01*
X65353Y-48849D01*
X65377Y-48839D01*
X65399Y-48824D01*
X65418Y-48806D01*
X65432Y-48784D01*
X65443Y-48760D01*
X65448Y-48735D01*
X65448Y-48708D01*
X65448Y-48580D01*
X66500Y-48580D01*
X67363Y-48580D01*
X68016Y-49233D01*
X68039Y-49252D01*
X68063Y-49272D01*
X68064Y-49273D01*
X68066Y-49274D01*
X68093Y-49288D01*
X68119Y-49303D01*
X68121Y-49304D01*
X68123Y-49304D01*
X68152Y-49313D01*
X68181Y-49323D01*
X68183Y-49323D01*
X68184Y-49323D01*
X68215Y-49326D01*
X68245Y-49330D01*
X68248Y-49330D01*
X68248Y-49330D01*
X68248Y-49330D01*
X68250Y-49330D01*
X68353Y-49330D01*
X68360Y-49340D01*
X68379Y-49359D01*
X68400Y-49373D01*
X68424Y-49384D01*
X68450Y-49389D01*
X68476Y-49389D01*
X69186Y-49389D01*
X69212Y-49384D01*
X69236Y-49374D01*
X69258Y-49359D01*
X69276Y-49341D01*
X69291Y-49319D01*
X69301Y-49295D01*
X69306Y-49270D01*
X69307Y-49243D01*
X69307Y-50149D01*
X69306Y-49636D01*
X69301Y-49611D01*
X69291Y-49587D01*
X69277Y-49565D01*
X69258Y-49546D01*
X69237Y-49532D01*
X69213Y-49521D01*
X69187Y-49516D01*
X69161Y-49516D01*
X68451Y-49516D01*
X68425Y-49521D01*
X68401Y-49531D01*
X68379Y-49546D01*
X68361Y-49564D01*
X68353Y-49575D01*
X68140Y-49575D01*
X68127Y-49551D01*
X68109Y-49516D01*
X68108Y-49514D01*
X68107Y-49512D01*
X68082Y-49482D01*
X68057Y-49451D01*
X68054Y-49447D01*
X68054Y-49447D01*
X68054Y-49447D01*
X68053Y-49446D01*
X67622Y-49015D01*
X67591Y-48990D01*
X67561Y-48965D01*
X67559Y-48964D01*
X67557Y-48962D01*
X67522Y-48944D01*
X67487Y-48924D01*
X67485Y-48924D01*
X67483Y-48923D01*
X67445Y-48911D01*
X67408Y-48899D01*
X67405Y-48899D01*
X67403Y-48898D01*
X67364Y-48894D01*
X67324Y-48890D01*
X67320Y-48890D01*
X67320Y-48890D01*
X67320Y-48890D01*
X67319Y-48890D01*
X66500Y-48890D01*
X65000Y-48890D01*
X64500Y-48890D01*
X64500Y-45075D01*
X64500Y-44750D01*
X64500Y-44250D01*
X64500Y-43924D01*
X64474Y-43899D01*
X64240Y-43899D01*
X64220Y-43903D01*
X64202Y-43910D01*
X64186Y-43921D01*
X64172Y-43935D01*
X64161Y-43952D01*
X64153Y-43970D01*
X64149Y-43989D01*
X64149Y-44009D01*
X64149Y-44224D01*
X64174Y-44250D01*
X64500Y-44250D01*
X64500Y-44750D01*
X64174Y-44750D01*
X64149Y-44775D01*
X64149Y-44990D01*
X64149Y-45010D01*
X64153Y-45029D01*
X64161Y-45047D01*
X64172Y-45064D01*
X64186Y-45078D01*
X64202Y-45089D01*
X64220Y-45096D01*
X64240Y-45100D01*
X64474Y-45100D01*
X64500Y-45075D01*
X64500Y-48890D01*
X64496Y-48890D01*
X64484Y-48877D01*
X64453Y-48852D01*
X64423Y-48827D01*
X64421Y-48826D01*
X64419Y-48824D01*
X64384Y-48806D01*
X64349Y-48786D01*
X64347Y-48786D01*
X64345Y-48785D01*
X64307Y-48773D01*
X64270Y-48761D01*
X64267Y-48761D01*
X64265Y-48760D01*
X64226Y-48756D01*
X64186Y-48752D01*
X64182Y-48752D01*
X64182Y-48752D01*
X64182Y-48752D01*
X64181Y-48752D01*
X63474Y-48752D01*
X63474Y-47200D01*
X63473Y-46412D01*
X63468Y-46386D01*
X63458Y-46362D01*
X63444Y-46340D01*
X63425Y-46322D01*
X63404Y-46307D01*
X63380Y-46297D01*
X63375Y-46296D01*
X63375Y-44605D01*
X63381Y-44579D01*
X63383Y-44437D01*
X63359Y-44316D01*
X63312Y-44201D01*
X63243Y-44097D01*
X63155Y-44009D01*
X63052Y-43940D01*
X62938Y-43891D01*
X62816Y-43866D01*
X62692Y-43866D01*
X62570Y-43889D01*
X62455Y-43935D01*
X62351Y-44003D01*
X62262Y-44090D01*
X62192Y-44193D01*
X62143Y-44307D01*
X62117Y-44429D01*
X62115Y-44553D01*
X62124Y-44600D01*
X62124Y-46296D01*
X62120Y-46297D01*
X62096Y-46307D01*
X62074Y-46321D01*
X62056Y-46340D01*
X62041Y-46361D01*
X62031Y-46385D01*
X62026Y-46411D01*
X62025Y-46437D01*
X62026Y-47225D01*
X62031Y-47251D01*
X62041Y-47275D01*
X62055Y-47297D01*
X62074Y-47315D01*
X62095Y-47330D01*
X62119Y-47340D01*
X62145Y-47345D01*
X62171Y-47346D01*
X62415Y-47346D01*
X62507Y-47395D01*
X62624Y-47431D01*
X62745Y-47444D01*
X62867Y-47433D01*
X62984Y-47399D01*
X63085Y-47345D01*
X63353Y-47345D01*
X63379Y-47340D01*
X63403Y-47330D01*
X63425Y-47316D01*
X63443Y-47297D01*
X63458Y-47276D01*
X63468Y-47252D01*
X63473Y-47226D01*
X63474Y-47200D01*
X63474Y-48752D01*
X63469Y-48752D01*
X63468Y-48748D01*
X63458Y-48724D01*
X63444Y-48702D01*
X63425Y-48684D01*
X63404Y-48669D01*
X63380Y-48659D01*
X63354Y-48654D01*
X63328Y-48653D01*
X62146Y-48654D01*
X62120Y-48659D01*
X62096Y-48669D01*
X62074Y-48683D01*
X62056Y-48702D01*
X62041Y-48723D01*
X62031Y-48747D01*
X62026Y-48773D01*
X62025Y-48799D01*
X62026Y-49587D01*
X62031Y-49613D01*
X62041Y-49637D01*
X62055Y-49659D01*
X62074Y-49677D01*
X62095Y-49692D01*
X62119Y-49702D01*
X62145Y-49707D01*
X62171Y-49708D01*
X63353Y-49707D01*
X63379Y-49702D01*
X63403Y-49692D01*
X63425Y-49678D01*
X63443Y-49659D01*
X63458Y-49638D01*
X63468Y-49614D01*
X63469Y-49609D01*
X64003Y-49609D01*
X64015Y-49622D01*
X64046Y-49647D01*
X64076Y-49672D01*
X64078Y-49673D01*
X64080Y-49675D01*
X64115Y-49693D01*
X64150Y-49713D01*
X64152Y-49713D01*
X64154Y-49714D01*
X64192Y-49726D01*
X64229Y-49738D01*
X64232Y-49738D01*
X64234Y-49739D01*
X64273Y-49743D01*
X64313Y-49747D01*
X64317Y-49747D01*
X64317Y-49747D01*
X64317Y-49747D01*
X64319Y-49747D01*
X64555Y-49747D01*
X64551Y-49764D01*
X64551Y-49791D01*
X64551Y-50816D01*
X64556Y-50841D01*
X64566Y-50865D01*
X64581Y-50887D01*
X64599Y-50906D01*
X64621Y-50920D01*
X64645Y-50931D01*
X64670Y-50936D01*
X64697Y-50936D01*
X65328Y-50936D01*
X65353Y-50931D01*
X65377Y-50921D01*
X65399Y-50906D01*
X65418Y-50888D01*
X65432Y-50866D01*
X65443Y-50842D01*
X65448Y-50817D01*
X65448Y-50790D01*
X65448Y-49765D01*
X65444Y-49747D01*
X66169Y-49747D01*
X66169Y-49992D01*
X66157Y-50011D01*
X66146Y-50035D01*
X66141Y-50060D01*
X66141Y-50087D01*
X66141Y-50338D01*
X66146Y-50363D01*
X66156Y-50387D01*
X66171Y-50409D01*
X66189Y-50428D01*
X66211Y-50442D01*
X66235Y-50453D01*
X66260Y-50458D01*
X66287Y-50458D01*
X66296Y-50458D01*
X66315Y-50473D01*
X66371Y-50504D01*
X66433Y-50523D01*
X66497Y-50530D01*
X66561Y-50524D01*
X66623Y-50506D01*
X66680Y-50476D01*
X66703Y-50458D01*
X66738Y-50458D01*
X66763Y-50453D01*
X66787Y-50443D01*
X66809Y-50428D01*
X66828Y-50410D01*
X66842Y-50388D01*
X66853Y-50364D01*
X66858Y-50339D01*
X66858Y-50312D01*
X66858Y-50061D01*
X66853Y-50036D01*
X66843Y-50012D01*
X66830Y-49992D01*
X66830Y-49747D01*
X67141Y-49747D01*
X67321Y-49927D01*
X67321Y-51250D01*
X67325Y-51289D01*
X67328Y-51328D01*
X67329Y-51331D01*
X67329Y-51333D01*
X67340Y-51371D01*
X67351Y-51409D01*
X67352Y-51411D01*
X67353Y-51413D01*
X67372Y-51448D01*
X67390Y-51483D01*
X67391Y-51485D01*
X67392Y-51487D01*
X67417Y-51517D01*
X67442Y-51548D01*
X67445Y-51552D01*
X67445Y-51552D01*
X67445Y-51552D01*
X67446Y-51553D01*
X67946Y-52053D01*
X67977Y-52078D01*
X68007Y-52103D01*
X68009Y-52104D01*
X68011Y-52106D01*
X68046Y-52124D01*
X68081Y-52144D01*
X68083Y-52144D01*
X68085Y-52145D01*
X68123Y-52157D01*
X68160Y-52169D01*
X68163Y-52169D01*
X68165Y-52170D01*
X68204Y-52174D01*
X68244Y-52178D01*
X68248Y-52178D01*
X68248Y-52178D01*
X68248Y-52178D01*
X68250Y-52178D01*
X70975Y-52178D01*
X71054Y-52301D01*
X71174Y-52426D01*
X71316Y-52524D01*
X71475Y-52594D01*
X71644Y-52631D01*
X71818Y-52635D01*
X71988Y-52605D01*
X72150Y-52542D01*
X72296Y-52449D01*
X72422Y-52330D01*
X72521Y-52188D01*
X72592Y-52030D01*
X72630Y-51861D01*
X72633Y-51663D01*
X72633Y-53663D01*
X72599Y-53493D01*
X72533Y-53333D01*
X72437Y-53188D01*
X72315Y-53065D01*
X72172Y-52969D01*
X72012Y-52901D01*
X71842Y-52867D01*
X71669Y-52865D01*
X71499Y-52898D01*
X71338Y-52963D01*
X71193Y-53058D01*
X71069Y-53179D01*
X70972Y-53322D01*
X70971Y-53324D01*
X70960Y-53325D01*
X70921Y-53328D01*
X70918Y-53329D01*
X70916Y-53329D01*
X70878Y-53340D01*
X70840Y-53351D01*
X70838Y-53352D01*
X70836Y-53353D01*
X70801Y-53372D01*
X70766Y-53390D01*
X70764Y-53391D01*
X70762Y-53392D01*
X70732Y-53417D01*
X70701Y-53442D01*
X70697Y-53445D01*
X70697Y-53445D01*
X70697Y-53445D01*
X70696Y-53446D01*
X69822Y-54321D01*
X69400Y-54321D01*
X69316Y-54329D01*
X69236Y-54353D01*
X69162Y-54392D01*
X69097Y-54445D01*
X69044Y-54510D01*
X69004Y-54583D01*
X68980Y-54663D01*
X68971Y-54747D01*
X68978Y-54830D01*
X69002Y-54910D01*
X69041Y-54984D01*
X69093Y-55049D01*
X69157Y-55103D01*
X69231Y-55144D01*
X69310Y-55169D01*
X69394Y-55178D01*
X69400Y-55178D01*
X70000Y-55178D01*
X70039Y-55174D01*
X70078Y-55171D01*
X70081Y-55170D01*
X70083Y-55170D01*
X70121Y-55159D01*
X70159Y-55148D01*
X70161Y-55147D01*
X70163Y-55146D01*
X70198Y-55127D01*
X70233Y-55109D01*
X70235Y-55108D01*
X70237Y-55107D01*
X70267Y-55082D01*
X70298Y-55057D01*
X70302Y-55054D01*
X70302Y-55054D01*
X70302Y-55054D01*
X70303Y-55053D01*
X71054Y-54301D01*
X71174Y-54426D01*
X71316Y-54524D01*
X71475Y-54594D01*
X71644Y-54631D01*
X71818Y-54635D01*
X71988Y-54605D01*
X72150Y-54542D01*
X72296Y-54449D01*
X72422Y-54330D01*
X72521Y-54188D01*
X72592Y-54030D01*
X72630Y-53861D01*
X72633Y-53663D01*
X72633Y-55663D01*
X72599Y-55493D01*
X72533Y-55333D01*
X72437Y-55188D01*
X72315Y-55065D01*
X72172Y-54969D01*
X72012Y-54901D01*
X71842Y-54867D01*
X71669Y-54865D01*
X71499Y-54898D01*
X71338Y-54963D01*
X71193Y-55058D01*
X71069Y-55179D01*
X70972Y-55321D01*
X70500Y-55321D01*
X70460Y-55325D01*
X70421Y-55328D01*
X70418Y-55329D01*
X70416Y-55329D01*
X70378Y-55340D01*
X70340Y-55351D01*
X70338Y-55352D01*
X70336Y-55353D01*
X70301Y-55372D01*
X70266Y-55390D01*
X70264Y-55391D01*
X70262Y-55392D01*
X70232Y-55417D01*
X70201Y-55442D01*
X70197Y-55445D01*
X70197Y-55445D01*
X70197Y-55445D01*
X70196Y-55446D01*
X69822Y-55821D01*
X69400Y-55821D01*
X69316Y-55829D01*
X69236Y-55853D01*
X69162Y-55892D01*
X69097Y-55945D01*
X69044Y-56010D01*
X69004Y-56083D01*
X68980Y-56163D01*
X68971Y-56247D01*
X68978Y-56330D01*
X69002Y-56410D01*
X69041Y-56484D01*
X69093Y-56549D01*
X69157Y-56603D01*
X69231Y-56644D01*
X69310Y-56669D01*
X69394Y-56678D01*
X69400Y-56678D01*
X70000Y-56678D01*
X70039Y-56674D01*
X70078Y-56671D01*
X70081Y-56670D01*
X70083Y-56670D01*
X70121Y-56659D01*
X70159Y-56648D01*
X70161Y-56647D01*
X70163Y-56646D01*
X70198Y-56627D01*
X70233Y-56609D01*
X70235Y-56608D01*
X70237Y-56607D01*
X70267Y-56582D01*
X70298Y-56557D01*
X70302Y-56554D01*
X70302Y-56554D01*
X70302Y-56554D01*
X70303Y-56553D01*
X70677Y-56178D01*
X70975Y-56178D01*
X71054Y-56301D01*
X71174Y-56426D01*
X71316Y-56524D01*
X71475Y-56594D01*
X71644Y-56631D01*
X71818Y-56635D01*
X71988Y-56605D01*
X72150Y-56542D01*
X72296Y-56449D01*
X72422Y-56330D01*
X72521Y-56188D01*
X72592Y-56030D01*
X72630Y-55861D01*
X72633Y-55663D01*
X72633Y-57529D01*
X72633Y-56986D01*
X72628Y-56961D01*
X72618Y-56937D01*
X72603Y-56915D01*
X72585Y-56896D01*
X72563Y-56882D01*
X72539Y-56871D01*
X72514Y-56866D01*
X72487Y-56866D01*
X70986Y-56866D01*
X70961Y-56871D01*
X70937Y-56881D01*
X70915Y-56896D01*
X70896Y-56914D01*
X70882Y-56936D01*
X70871Y-56960D01*
X70866Y-56985D01*
X70866Y-57012D01*
X70866Y-57321D01*
X69400Y-57321D01*
X69316Y-57329D01*
X69236Y-57353D01*
X69162Y-57392D01*
X69097Y-57445D01*
X69044Y-57510D01*
X69004Y-57583D01*
X68980Y-57663D01*
X68971Y-57747D01*
X68978Y-57830D01*
X69002Y-57910D01*
X69041Y-57984D01*
X69093Y-58049D01*
X69157Y-58103D01*
X69231Y-58144D01*
X69310Y-58169D01*
X69394Y-58178D01*
X69400Y-58178D01*
X70866Y-58178D01*
X70866Y-58513D01*
X70871Y-58538D01*
X70881Y-58562D01*
X70896Y-58584D01*
X70914Y-58603D01*
X70936Y-58617D01*
X70960Y-58628D01*
X70985Y-58633D01*
X71012Y-58633D01*
X72513Y-58633D01*
X72538Y-58628D01*
X72562Y-58618D01*
X72584Y-58603D01*
X72603Y-58585D01*
X72617Y-58563D01*
X72628Y-58539D01*
X72633Y-58514D01*
X72633Y-58487D01*
X72633Y-60805D01*
X72633Y-60803D01*
X72572Y-60687D01*
X72259Y-61000D01*
X72572Y-61312D01*
X72633Y-61196D01*
X72654Y-61021D01*
X72654Y-62033D01*
X72521Y-62143D01*
X72284Y-62271D01*
X72062Y-62340D01*
X72062Y-61822D01*
X72062Y-60177D01*
X71946Y-60116D01*
X71771Y-60095D01*
X71595Y-60108D01*
X71553Y-60116D01*
X71437Y-60177D01*
X71750Y-60490D01*
X72062Y-60177D01*
X72062Y-61822D01*
X71750Y-61509D01*
X71437Y-61822D01*
X71553Y-61883D01*
X71728Y-61904D01*
X71904Y-61891D01*
X71946Y-61883D01*
X72062Y-61822D01*
X72062Y-62340D01*
X72027Y-62351D01*
X71753Y-62379D01*
X71749Y-62379D01*
X71240Y-62379D01*
X71240Y-61000D01*
X70927Y-60687D01*
X70866Y-60803D01*
X70845Y-60978D01*
X70858Y-61154D01*
X70866Y-61196D01*
X70927Y-61312D01*
X71240Y-61000D01*
X71240Y-62379D01*
X70126Y-62379D01*
X70126Y-61022D01*
X70123Y-60948D01*
X70114Y-60904D01*
X70076Y-60868D01*
X69944Y-61000D01*
X70076Y-61131D01*
X70114Y-61095D01*
X70126Y-61022D01*
X70126Y-62379D01*
X69881Y-62379D01*
X69881Y-61326D01*
X69881Y-60673D01*
X69845Y-60635D01*
X69772Y-60623D01*
X69698Y-60626D01*
X69654Y-60635D01*
X69618Y-60673D01*
X69750Y-60805D01*
X69881Y-60673D01*
X69881Y-61326D01*
X69750Y-61194D01*
X69618Y-61326D01*
X69654Y-61364D01*
X69727Y-61376D01*
X69801Y-61373D01*
X69845Y-61364D01*
X69881Y-61326D01*
X69881Y-62379D01*
X69555Y-62379D01*
X69555Y-61000D01*
X69423Y-60868D01*
X69385Y-60904D01*
X69373Y-60977D01*
X69376Y-61051D01*
X69385Y-61095D01*
X69423Y-61131D01*
X69555Y-61000D01*
X69555Y-62379D01*
X69158Y-62379D01*
X69158Y-60959D01*
X69142Y-60881D01*
X69112Y-60807D01*
X69068Y-60740D01*
X69011Y-60683D01*
X68981Y-60663D01*
X68981Y-59500D01*
X68979Y-59478D01*
X68977Y-59457D01*
X68977Y-59456D01*
X68977Y-59454D01*
X68971Y-59434D01*
X68965Y-59413D01*
X68964Y-59412D01*
X68964Y-59411D01*
X68954Y-59392D01*
X68944Y-59373D01*
X68943Y-59372D01*
X68943Y-59371D01*
X68929Y-59355D01*
X68916Y-59338D01*
X68914Y-59336D01*
X68914Y-59336D01*
X68914Y-59336D01*
X68913Y-59336D01*
X68913Y-59335D01*
X68913Y-57567D01*
X68913Y-56067D01*
X68913Y-54567D01*
X68913Y-54206D01*
X68908Y-54181D01*
X68898Y-54157D01*
X68883Y-54135D01*
X68865Y-54116D01*
X68843Y-54102D01*
X68819Y-54091D01*
X68794Y-54086D01*
X68767Y-54086D01*
X68406Y-54086D01*
X68381Y-54091D01*
X68357Y-54101D01*
X68335Y-54116D01*
X68316Y-54134D01*
X68302Y-54156D01*
X68297Y-54168D01*
X68100Y-54168D01*
X68078Y-54170D01*
X68057Y-54172D01*
X68056Y-54172D01*
X68054Y-54172D01*
X68034Y-54178D01*
X68013Y-54184D01*
X68012Y-54185D01*
X68011Y-54185D01*
X68000Y-54191D01*
X67971Y-54191D01*
X67912Y-54202D01*
X67856Y-54225D01*
X67805Y-54258D01*
X67762Y-54300D01*
X67728Y-54350D01*
X67704Y-54406D01*
X67691Y-54465D01*
X67691Y-54525D01*
X67702Y-54585D01*
X67724Y-54641D01*
X67757Y-54692D01*
X67799Y-54736D01*
X67848Y-54770D01*
X67904Y-54794D01*
X67963Y-54807D01*
X68023Y-54809D01*
X68083Y-54798D01*
X68139Y-54776D01*
X68190Y-54744D01*
X68234Y-54702D01*
X68269Y-54653D01*
X68278Y-54631D01*
X68297Y-54631D01*
X68301Y-54642D01*
X68316Y-54664D01*
X68334Y-54683D01*
X68356Y-54697D01*
X68380Y-54708D01*
X68405Y-54713D01*
X68432Y-54713D01*
X68793Y-54713D01*
X68818Y-54708D01*
X68842Y-54698D01*
X68864Y-54683D01*
X68883Y-54665D01*
X68897Y-54643D01*
X68908Y-54619D01*
X68913Y-54594D01*
X68913Y-54567D01*
X68913Y-56067D01*
X68913Y-55706D01*
X68908Y-55681D01*
X68898Y-55657D01*
X68883Y-55635D01*
X68880Y-55631D01*
X68880Y-55289D01*
X68880Y-54910D01*
X68876Y-54890D01*
X68869Y-54872D01*
X68858Y-54856D01*
X68844Y-54842D01*
X68827Y-54831D01*
X68809Y-54823D01*
X68790Y-54819D01*
X68770Y-54819D01*
X68715Y-54819D01*
X68690Y-54844D01*
X68690Y-55010D01*
X68855Y-55010D01*
X68880Y-54984D01*
X68880Y-54910D01*
X68880Y-55289D01*
X68880Y-55215D01*
X68855Y-55190D01*
X68690Y-55190D01*
X68690Y-55355D01*
X68715Y-55380D01*
X68770Y-55380D01*
X68790Y-55380D01*
X68809Y-55376D01*
X68827Y-55368D01*
X68844Y-55357D01*
X68858Y-55343D01*
X68869Y-55327D01*
X68876Y-55309D01*
X68880Y-55289D01*
X68880Y-55631D01*
X68865Y-55616D01*
X68843Y-55602D01*
X68819Y-55591D01*
X68794Y-55586D01*
X68767Y-55586D01*
X68510Y-55586D01*
X68510Y-55355D01*
X68510Y-55190D01*
X68510Y-55010D01*
X68510Y-54844D01*
X68484Y-54819D01*
X68429Y-54819D01*
X68409Y-54819D01*
X68390Y-54823D01*
X68372Y-54831D01*
X68355Y-54842D01*
X68341Y-54856D01*
X68330Y-54872D01*
X68323Y-54890D01*
X68319Y-54910D01*
X68319Y-54984D01*
X68344Y-55010D01*
X68510Y-55010D01*
X68510Y-55190D01*
X68344Y-55190D01*
X68319Y-55215D01*
X68319Y-55289D01*
X68323Y-55309D01*
X68330Y-55327D01*
X68341Y-55343D01*
X68355Y-55357D01*
X68372Y-55368D01*
X68390Y-55376D01*
X68409Y-55380D01*
X68429Y-55380D01*
X68484Y-55380D01*
X68510Y-55355D01*
X68510Y-55586D01*
X68406Y-55586D01*
X68381Y-55591D01*
X68357Y-55601D01*
X68335Y-55616D01*
X68316Y-55634D01*
X68302Y-55656D01*
X68297Y-55666D01*
X68296Y-55660D01*
X68273Y-55604D01*
X68240Y-55554D01*
X68197Y-55511D01*
X68147Y-55477D01*
X68091Y-55453D01*
X68032Y-55441D01*
X67971Y-55441D01*
X67912Y-55452D01*
X67856Y-55475D01*
X67805Y-55508D01*
X67762Y-55550D01*
X67728Y-55600D01*
X67704Y-55656D01*
X67691Y-55715D01*
X67691Y-55775D01*
X67702Y-55835D01*
X67724Y-55891D01*
X67757Y-55942D01*
X67799Y-55986D01*
X67848Y-56020D01*
X67904Y-56044D01*
X67963Y-56057D01*
X67980Y-56058D01*
X67986Y-56063D01*
X68002Y-56077D01*
X68018Y-56091D01*
X68020Y-56091D01*
X68021Y-56092D01*
X68039Y-56102D01*
X68058Y-56113D01*
X68059Y-56113D01*
X68060Y-56114D01*
X68081Y-56120D01*
X68101Y-56126D01*
X68102Y-56126D01*
X68104Y-56127D01*
X68125Y-56129D01*
X68146Y-56131D01*
X68149Y-56131D01*
X68149Y-56131D01*
X68149Y-56131D01*
X68150Y-56131D01*
X68297Y-56131D01*
X68301Y-56142D01*
X68316Y-56164D01*
X68334Y-56183D01*
X68356Y-56197D01*
X68380Y-56208D01*
X68405Y-56213D01*
X68432Y-56213D01*
X68793Y-56213D01*
X68818Y-56208D01*
X68842Y-56198D01*
X68864Y-56183D01*
X68883Y-56165D01*
X68897Y-56143D01*
X68908Y-56119D01*
X68913Y-56094D01*
X68913Y-56067D01*
X68913Y-57567D01*
X68913Y-57206D01*
X68908Y-57181D01*
X68898Y-57157D01*
X68883Y-57135D01*
X68880Y-57131D01*
X68880Y-56789D01*
X68880Y-56410D01*
X68876Y-56390D01*
X68869Y-56372D01*
X68858Y-56356D01*
X68844Y-56342D01*
X68827Y-56331D01*
X68809Y-56323D01*
X68790Y-56319D01*
X68770Y-56319D01*
X68715Y-56319D01*
X68690Y-56344D01*
X68690Y-56510D01*
X68855Y-56510D01*
X68880Y-56484D01*
X68880Y-56410D01*
X68880Y-56789D01*
X68880Y-56715D01*
X68855Y-56690D01*
X68690Y-56690D01*
X68690Y-56855D01*
X68715Y-56880D01*
X68770Y-56880D01*
X68790Y-56880D01*
X68809Y-56876D01*
X68827Y-56868D01*
X68844Y-56857D01*
X68858Y-56843D01*
X68869Y-56827D01*
X68876Y-56809D01*
X68880Y-56789D01*
X68880Y-57131D01*
X68865Y-57116D01*
X68843Y-57102D01*
X68819Y-57091D01*
X68794Y-57086D01*
X68767Y-57086D01*
X68510Y-57086D01*
X68510Y-56855D01*
X68510Y-56690D01*
X68510Y-56510D01*
X68510Y-56344D01*
X68484Y-56319D01*
X68429Y-56319D01*
X68409Y-56319D01*
X68390Y-56323D01*
X68372Y-56331D01*
X68355Y-56342D01*
X68341Y-56356D01*
X68330Y-56372D01*
X68323Y-56390D01*
X68319Y-56410D01*
X68319Y-56484D01*
X68344Y-56510D01*
X68510Y-56510D01*
X68510Y-56690D01*
X68344Y-56690D01*
X68319Y-56715D01*
X68319Y-56789D01*
X68323Y-56809D01*
X68330Y-56827D01*
X68341Y-56843D01*
X68355Y-56857D01*
X68372Y-56868D01*
X68390Y-56876D01*
X68409Y-56880D01*
X68429Y-56880D01*
X68484Y-56880D01*
X68510Y-56855D01*
X68510Y-57086D01*
X68406Y-57086D01*
X68381Y-57091D01*
X68357Y-57101D01*
X68335Y-57116D01*
X68316Y-57134D01*
X68302Y-57156D01*
X68297Y-57168D01*
X68100Y-57168D01*
X68078Y-57170D01*
X68057Y-57172D01*
X68056Y-57172D01*
X68054Y-57172D01*
X68034Y-57178D01*
X68013Y-57184D01*
X68012Y-57185D01*
X68011Y-57185D01*
X68000Y-57191D01*
X67971Y-57191D01*
X67912Y-57202D01*
X67856Y-57225D01*
X67805Y-57258D01*
X67762Y-57300D01*
X67728Y-57350D01*
X67704Y-57406D01*
X67691Y-57465D01*
X67691Y-57525D01*
X67702Y-57585D01*
X67724Y-57641D01*
X67757Y-57692D01*
X67799Y-57736D01*
X67848Y-57770D01*
X67904Y-57794D01*
X67963Y-57807D01*
X68023Y-57809D01*
X68083Y-57798D01*
X68139Y-57776D01*
X68190Y-57744D01*
X68234Y-57702D01*
X68269Y-57653D01*
X68278Y-57631D01*
X68297Y-57631D01*
X68301Y-57642D01*
X68316Y-57664D01*
X68334Y-57683D01*
X68356Y-57697D01*
X68380Y-57708D01*
X68405Y-57713D01*
X68432Y-57713D01*
X68793Y-57713D01*
X68818Y-57708D01*
X68842Y-57698D01*
X68864Y-57683D01*
X68883Y-57665D01*
X68897Y-57643D01*
X68908Y-57619D01*
X68913Y-57594D01*
X68913Y-57567D01*
X68913Y-59335D01*
X68880Y-59302D01*
X68880Y-58289D01*
X68880Y-57910D01*
X68876Y-57890D01*
X68869Y-57872D01*
X68858Y-57856D01*
X68844Y-57842D01*
X68827Y-57831D01*
X68809Y-57823D01*
X68790Y-57819D01*
X68770Y-57819D01*
X68715Y-57819D01*
X68690Y-57844D01*
X68690Y-58010D01*
X68855Y-58010D01*
X68880Y-57984D01*
X68880Y-57910D01*
X68880Y-58289D01*
X68880Y-58215D01*
X68855Y-58190D01*
X68690Y-58190D01*
X68690Y-58355D01*
X68715Y-58380D01*
X68770Y-58380D01*
X68790Y-58380D01*
X68809Y-58376D01*
X68827Y-58368D01*
X68844Y-58357D01*
X68858Y-58343D01*
X68869Y-58327D01*
X68876Y-58309D01*
X68880Y-58289D01*
X68880Y-59302D01*
X68663Y-59086D01*
X68647Y-59072D01*
X68631Y-59058D01*
X68629Y-59058D01*
X68628Y-59057D01*
X68610Y-59047D01*
X68591Y-59036D01*
X68590Y-59036D01*
X68589Y-59035D01*
X68568Y-59029D01*
X68548Y-59023D01*
X68547Y-59023D01*
X68545Y-59022D01*
X68524Y-59020D01*
X68510Y-59018D01*
X68510Y-58355D01*
X68510Y-58190D01*
X68510Y-58010D01*
X68510Y-57844D01*
X68484Y-57819D01*
X68429Y-57819D01*
X68409Y-57819D01*
X68390Y-57823D01*
X68372Y-57831D01*
X68355Y-57842D01*
X68341Y-57856D01*
X68330Y-57872D01*
X68323Y-57890D01*
X68319Y-57910D01*
X68319Y-57984D01*
X68344Y-58010D01*
X68510Y-58010D01*
X68510Y-58190D01*
X68344Y-58190D01*
X68319Y-58215D01*
X68319Y-58289D01*
X68323Y-58309D01*
X68330Y-58327D01*
X68341Y-58343D01*
X68355Y-58357D01*
X68372Y-58368D01*
X68390Y-58376D01*
X68409Y-58380D01*
X68429Y-58380D01*
X68484Y-58380D01*
X68510Y-58355D01*
X68510Y-59018D01*
X68503Y-59018D01*
X68500Y-59018D01*
X68500Y-59018D01*
X68500Y-59018D01*
X68500Y-59018D01*
X66825Y-59018D01*
X66825Y-50934D01*
X66825Y-50665D01*
X66821Y-50645D01*
X66814Y-50627D01*
X66803Y-50611D01*
X66789Y-50597D01*
X66772Y-50586D01*
X66754Y-50578D01*
X66735Y-50574D01*
X66715Y-50574D01*
X66637Y-50574D01*
X66612Y-50599D01*
X66612Y-50737D01*
X66800Y-50737D01*
X66825Y-50712D01*
X66825Y-50665D01*
X66825Y-50934D01*
X66825Y-50887D01*
X66800Y-50862D01*
X66612Y-50862D01*
X66612Y-51000D01*
X66637Y-51025D01*
X66715Y-51025D01*
X66735Y-51025D01*
X66754Y-51021D01*
X66772Y-51013D01*
X66789Y-51002D01*
X66803Y-50988D01*
X66814Y-50972D01*
X66821Y-50954D01*
X66825Y-50934D01*
X66825Y-59018D01*
X66808Y-59018D01*
X66808Y-57469D01*
X66796Y-57410D01*
X66773Y-57354D01*
X66740Y-57304D01*
X66731Y-57295D01*
X66731Y-56746D01*
X66733Y-56739D01*
X66733Y-56712D01*
X66733Y-56261D01*
X66728Y-56236D01*
X66718Y-56212D01*
X66703Y-56190D01*
X66685Y-56171D01*
X66663Y-56157D01*
X66639Y-56146D01*
X66614Y-56141D01*
X66587Y-56141D01*
X66387Y-56141D01*
X66387Y-51000D01*
X66387Y-50862D01*
X66387Y-50737D01*
X66387Y-50599D01*
X66362Y-50574D01*
X66284Y-50574D01*
X66264Y-50574D01*
X66245Y-50578D01*
X66227Y-50586D01*
X66210Y-50597D01*
X66196Y-50611D01*
X66185Y-50627D01*
X66178Y-50645D01*
X66174Y-50665D01*
X66174Y-50712D01*
X66199Y-50737D01*
X66387Y-50737D01*
X66387Y-50862D01*
X66199Y-50862D01*
X66174Y-50887D01*
X66174Y-50934D01*
X66178Y-50954D01*
X66185Y-50972D01*
X66196Y-50988D01*
X66210Y-51002D01*
X66227Y-51013D01*
X66245Y-51021D01*
X66264Y-51025D01*
X66284Y-51025D01*
X66362Y-51025D01*
X66387Y-51000D01*
X66387Y-56141D01*
X66386Y-56141D01*
X66361Y-56146D01*
X66337Y-56156D01*
X66315Y-56171D01*
X66308Y-56177D01*
X66308Y-55719D01*
X66296Y-55660D01*
X66273Y-55604D01*
X66240Y-55554D01*
X66197Y-55511D01*
X66147Y-55477D01*
X66091Y-55453D01*
X66032Y-55441D01*
X65971Y-55441D01*
X65912Y-55452D01*
X65856Y-55475D01*
X65805Y-55508D01*
X65762Y-55550D01*
X65731Y-55595D01*
X65731Y-54705D01*
X65734Y-54702D01*
X65769Y-54653D01*
X65794Y-54597D01*
X65807Y-54538D01*
X65808Y-54469D01*
X65796Y-54410D01*
X65773Y-54354D01*
X65740Y-54304D01*
X65697Y-54261D01*
X65647Y-54227D01*
X65591Y-54203D01*
X65532Y-54191D01*
X65471Y-54191D01*
X65415Y-54202D01*
X65415Y-52230D01*
X65415Y-51187D01*
X65411Y-51167D01*
X65404Y-51149D01*
X65393Y-51133D01*
X65379Y-51119D01*
X65362Y-51108D01*
X65344Y-51100D01*
X65325Y-51096D01*
X65305Y-51096D01*
X65182Y-51096D01*
X65157Y-51121D01*
X65157Y-51453D01*
X65390Y-51453D01*
X65415Y-51427D01*
X65415Y-51187D01*
X65415Y-52230D01*
X65415Y-51990D01*
X65390Y-51965D01*
X65157Y-51965D01*
X65157Y-52296D01*
X65182Y-52321D01*
X65305Y-52321D01*
X65325Y-52321D01*
X65344Y-52317D01*
X65362Y-52309D01*
X65379Y-52298D01*
X65393Y-52284D01*
X65404Y-52268D01*
X65411Y-52250D01*
X65415Y-52230D01*
X65415Y-54202D01*
X65412Y-54202D01*
X65356Y-54225D01*
X65305Y-54258D01*
X65262Y-54300D01*
X65228Y-54350D01*
X65204Y-54406D01*
X65191Y-54465D01*
X65191Y-54525D01*
X65202Y-54585D01*
X65224Y-54641D01*
X65257Y-54692D01*
X65268Y-54703D01*
X65268Y-56253D01*
X65266Y-56260D01*
X65266Y-56287D01*
X65266Y-56655D01*
X65233Y-56688D01*
X65233Y-56261D01*
X65228Y-56236D01*
X65218Y-56212D01*
X65203Y-56190D01*
X65185Y-56171D01*
X65163Y-56157D01*
X65139Y-56146D01*
X65114Y-56141D01*
X65087Y-56141D01*
X64886Y-56141D01*
X64861Y-56146D01*
X64842Y-56154D01*
X64842Y-52296D01*
X64842Y-51965D01*
X64842Y-51453D01*
X64842Y-51121D01*
X64817Y-51096D01*
X64694Y-51096D01*
X64674Y-51096D01*
X64655Y-51100D01*
X64637Y-51108D01*
X64620Y-51119D01*
X64606Y-51133D01*
X64595Y-51149D01*
X64588Y-51167D01*
X64584Y-51187D01*
X64584Y-51427D01*
X64609Y-51453D01*
X64842Y-51453D01*
X64842Y-51965D01*
X64609Y-51965D01*
X64584Y-51990D01*
X64584Y-52230D01*
X64588Y-52250D01*
X64595Y-52268D01*
X64606Y-52284D01*
X64620Y-52298D01*
X64637Y-52309D01*
X64655Y-52317D01*
X64674Y-52321D01*
X64694Y-52321D01*
X64817Y-52321D01*
X64842Y-52296D01*
X64842Y-56154D01*
X64837Y-56156D01*
X64815Y-56171D01*
X64796Y-56189D01*
X64782Y-56211D01*
X64771Y-56235D01*
X64766Y-56260D01*
X64766Y-56287D01*
X64766Y-56738D01*
X64771Y-56763D01*
X64773Y-56768D01*
X64726Y-56768D01*
X64728Y-56764D01*
X64733Y-56739D01*
X64733Y-56712D01*
X64733Y-56261D01*
X64731Y-56253D01*
X64731Y-55955D01*
X64734Y-55952D01*
X64769Y-55903D01*
X64794Y-55847D01*
X64807Y-55788D01*
X64808Y-55719D01*
X64796Y-55660D01*
X64773Y-55604D01*
X64740Y-55554D01*
X64697Y-55511D01*
X64647Y-55477D01*
X64591Y-55453D01*
X64532Y-55441D01*
X64471Y-55441D01*
X64412Y-55452D01*
X64356Y-55475D01*
X64307Y-55507D01*
X64308Y-55469D01*
X64296Y-55410D01*
X64273Y-55354D01*
X64240Y-55304D01*
X64197Y-55261D01*
X64147Y-55227D01*
X64091Y-55203D01*
X64032Y-55191D01*
X63971Y-55191D01*
X63912Y-55202D01*
X63856Y-55225D01*
X63805Y-55258D01*
X63762Y-55300D01*
X63728Y-55350D01*
X63704Y-55406D01*
X63691Y-55465D01*
X63691Y-55525D01*
X63702Y-55585D01*
X63724Y-55641D01*
X63757Y-55692D01*
X63768Y-55703D01*
X63768Y-56253D01*
X63766Y-56260D01*
X63766Y-56287D01*
X63766Y-56738D01*
X63771Y-56763D01*
X63773Y-56768D01*
X63726Y-56768D01*
X63728Y-56764D01*
X63733Y-56739D01*
X63733Y-56712D01*
X63733Y-56261D01*
X63731Y-56253D01*
X63731Y-56000D01*
X63729Y-55978D01*
X63727Y-55957D01*
X63727Y-55956D01*
X63727Y-55954D01*
X63721Y-55934D01*
X63715Y-55913D01*
X63714Y-55912D01*
X63714Y-55911D01*
X63704Y-55892D01*
X63694Y-55873D01*
X63693Y-55872D01*
X63693Y-55871D01*
X63679Y-55855D01*
X63666Y-55838D01*
X63664Y-55836D01*
X63664Y-55836D01*
X63664Y-55836D01*
X63663Y-55836D01*
X63413Y-55586D01*
X63397Y-55572D01*
X63381Y-55558D01*
X63379Y-55558D01*
X63378Y-55557D01*
X63360Y-55547D01*
X63341Y-55536D01*
X63340Y-55536D01*
X63339Y-55535D01*
X63318Y-55529D01*
X63298Y-55523D01*
X63297Y-55523D01*
X63295Y-55522D01*
X63274Y-55520D01*
X63253Y-55518D01*
X63250Y-55518D01*
X63250Y-55518D01*
X63250Y-55518D01*
X63250Y-55518D01*
X62250Y-55518D01*
X62228Y-55520D01*
X62207Y-55522D01*
X62206Y-55522D01*
X62204Y-55522D01*
X62184Y-55528D01*
X62163Y-55534D01*
X62162Y-55535D01*
X62161Y-55535D01*
X62142Y-55545D01*
X62123Y-55555D01*
X62122Y-55556D01*
X62121Y-55556D01*
X62105Y-55570D01*
X62088Y-55583D01*
X62086Y-55585D01*
X62086Y-55585D01*
X62086Y-55585D01*
X62086Y-55586D01*
X61786Y-55886D01*
X61772Y-55902D01*
X61758Y-55918D01*
X61758Y-55920D01*
X61757Y-55921D01*
X61747Y-55939D01*
X61736Y-55958D01*
X61736Y-55959D01*
X61735Y-55960D01*
X61729Y-55981D01*
X61723Y-56001D01*
X61723Y-56002D01*
X61722Y-56004D01*
X61720Y-56025D01*
X61718Y-56046D01*
X61718Y-56049D01*
X61718Y-56049D01*
X61718Y-56049D01*
X61718Y-56050D01*
X61718Y-56444D01*
X61707Y-56461D01*
X61696Y-56485D01*
X61691Y-56510D01*
X61691Y-56537D01*
X61691Y-56988D01*
X61696Y-57013D01*
X61706Y-57037D01*
X61718Y-57055D01*
X61718Y-57194D01*
X61707Y-57211D01*
X61696Y-57235D01*
X61691Y-57260D01*
X61691Y-57287D01*
X61691Y-57738D01*
X61696Y-57763D01*
X61706Y-57787D01*
X61718Y-57805D01*
X61718Y-57944D01*
X61707Y-57961D01*
X61696Y-57985D01*
X61691Y-58010D01*
X61691Y-58037D01*
X61691Y-58488D01*
X61696Y-58513D01*
X61706Y-58537D01*
X61718Y-58555D01*
X61718Y-58700D01*
X61720Y-58721D01*
X61722Y-58742D01*
X61722Y-58743D01*
X61722Y-58745D01*
X61728Y-58765D01*
X61734Y-58786D01*
X61735Y-58787D01*
X61735Y-58788D01*
X61745Y-58807D01*
X61755Y-58826D01*
X61756Y-58827D01*
X61756Y-58828D01*
X61770Y-58844D01*
X61783Y-58861D01*
X61785Y-58863D01*
X61785Y-58863D01*
X61785Y-58863D01*
X61786Y-58863D01*
X61941Y-59019D01*
X61941Y-59025D01*
X61952Y-59085D01*
X61974Y-59141D01*
X62007Y-59192D01*
X62049Y-59236D01*
X62098Y-59270D01*
X62154Y-59294D01*
X62213Y-59307D01*
X62273Y-59309D01*
X62333Y-59298D01*
X62389Y-59276D01*
X62440Y-59244D01*
X62484Y-59202D01*
X62519Y-59153D01*
X62544Y-59097D01*
X62557Y-59038D01*
X62558Y-58969D01*
X62546Y-58910D01*
X62523Y-58854D01*
X62490Y-58804D01*
X62447Y-58761D01*
X62397Y-58727D01*
X62341Y-58703D01*
X62282Y-58691D01*
X62269Y-58691D01*
X62181Y-58603D01*
X62181Y-58555D01*
X62192Y-58538D01*
X62203Y-58514D01*
X62208Y-58489D01*
X62208Y-58462D01*
X62208Y-58011D01*
X62203Y-57986D01*
X62193Y-57962D01*
X62181Y-57944D01*
X62181Y-57805D01*
X62192Y-57788D01*
X62203Y-57764D01*
X62208Y-57739D01*
X62208Y-57712D01*
X62208Y-57261D01*
X62203Y-57236D01*
X62193Y-57212D01*
X62181Y-57194D01*
X62181Y-57055D01*
X62192Y-57038D01*
X62203Y-57014D01*
X62208Y-56989D01*
X62208Y-56962D01*
X62208Y-56511D01*
X62203Y-56486D01*
X62193Y-56462D01*
X62181Y-56444D01*
X62181Y-56146D01*
X62346Y-55981D01*
X63153Y-55981D01*
X63268Y-56096D01*
X63268Y-56253D01*
X63266Y-56260D01*
X63266Y-56287D01*
X63266Y-56688D01*
X63163Y-56586D01*
X63147Y-56572D01*
X63131Y-56558D01*
X63129Y-56558D01*
X63128Y-56557D01*
X63110Y-56547D01*
X63091Y-56536D01*
X63090Y-56536D01*
X63089Y-56535D01*
X63068Y-56529D01*
X63048Y-56523D01*
X63047Y-56523D01*
X63045Y-56522D01*
X63024Y-56520D01*
X63003Y-56518D01*
X63000Y-56518D01*
X63000Y-56518D01*
X63000Y-56518D01*
X63000Y-56518D01*
X62808Y-56518D01*
X62808Y-56511D01*
X62803Y-56486D01*
X62793Y-56462D01*
X62778Y-56440D01*
X62760Y-56421D01*
X62738Y-56407D01*
X62714Y-56396D01*
X62689Y-56391D01*
X62662Y-56391D01*
X62411Y-56391D01*
X62386Y-56396D01*
X62362Y-56406D01*
X62340Y-56421D01*
X62321Y-56439D01*
X62307Y-56461D01*
X62296Y-56485D01*
X62291Y-56510D01*
X62291Y-56537D01*
X62291Y-56988D01*
X62296Y-57013D01*
X62306Y-57037D01*
X62321Y-57059D01*
X62339Y-57078D01*
X62361Y-57092D01*
X62385Y-57103D01*
X62410Y-57108D01*
X62437Y-57108D01*
X62688Y-57108D01*
X62713Y-57103D01*
X62737Y-57093D01*
X62759Y-57078D01*
X62778Y-57060D01*
X62792Y-57038D01*
X62803Y-57014D01*
X62808Y-56989D01*
X62808Y-56981D01*
X62903Y-56981D01*
X63086Y-57163D01*
X63102Y-57177D01*
X63118Y-57191D01*
X63120Y-57191D01*
X63121Y-57192D01*
X63139Y-57202D01*
X63158Y-57213D01*
X63159Y-57213D01*
X63160Y-57214D01*
X63181Y-57220D01*
X63201Y-57226D01*
X63202Y-57226D01*
X63204Y-57227D01*
X63225Y-57229D01*
X63246Y-57231D01*
X63249Y-57231D01*
X63249Y-57231D01*
X63249Y-57231D01*
X63250Y-57231D01*
X65250Y-57231D01*
X65271Y-57229D01*
X65292Y-57227D01*
X65293Y-57227D01*
X65295Y-57227D01*
X65315Y-57221D01*
X65336Y-57215D01*
X65337Y-57214D01*
X65338Y-57214D01*
X65357Y-57204D01*
X65376Y-57194D01*
X65377Y-57193D01*
X65378Y-57193D01*
X65394Y-57179D01*
X65411Y-57166D01*
X65413Y-57164D01*
X65413Y-57164D01*
X65413Y-57164D01*
X65413Y-57163D01*
X65663Y-56913D01*
X65677Y-56897D01*
X65691Y-56881D01*
X65691Y-56879D01*
X65692Y-56878D01*
X65702Y-56860D01*
X65713Y-56841D01*
X65713Y-56840D01*
X65714Y-56839D01*
X65720Y-56818D01*
X65726Y-56798D01*
X65726Y-56797D01*
X65727Y-56795D01*
X65729Y-56774D01*
X65731Y-56753D01*
X65731Y-56750D01*
X65731Y-56750D01*
X65731Y-56750D01*
X65731Y-56750D01*
X65731Y-56746D01*
X65733Y-56739D01*
X65733Y-56712D01*
X65733Y-56261D01*
X65731Y-56253D01*
X65731Y-55903D01*
X65757Y-55942D01*
X65768Y-55953D01*
X65768Y-56253D01*
X65766Y-56260D01*
X65766Y-56287D01*
X65766Y-56738D01*
X65768Y-56746D01*
X65768Y-56903D01*
X65586Y-57086D01*
X65586Y-57086D01*
X65403Y-57268D01*
X62808Y-57268D01*
X62808Y-57261D01*
X62803Y-57236D01*
X62793Y-57212D01*
X62778Y-57190D01*
X62760Y-57171D01*
X62738Y-57157D01*
X62714Y-57146D01*
X62689Y-57141D01*
X62662Y-57141D01*
X62411Y-57141D01*
X62386Y-57146D01*
X62362Y-57156D01*
X62340Y-57171D01*
X62321Y-57189D01*
X62307Y-57211D01*
X62296Y-57235D01*
X62291Y-57260D01*
X62291Y-57287D01*
X62291Y-57738D01*
X62296Y-57763D01*
X62306Y-57787D01*
X62321Y-57809D01*
X62339Y-57828D01*
X62361Y-57842D01*
X62385Y-57853D01*
X62410Y-57858D01*
X62437Y-57858D01*
X62688Y-57858D01*
X62713Y-57853D01*
X62737Y-57843D01*
X62759Y-57828D01*
X62778Y-57810D01*
X62792Y-57788D01*
X62803Y-57764D01*
X62808Y-57739D01*
X62808Y-57731D01*
X65500Y-57731D01*
X65521Y-57729D01*
X65542Y-57727D01*
X65543Y-57727D01*
X65545Y-57727D01*
X65565Y-57721D01*
X65586Y-57715D01*
X65587Y-57714D01*
X65588Y-57714D01*
X65607Y-57704D01*
X65626Y-57694D01*
X65627Y-57693D01*
X65628Y-57693D01*
X65644Y-57679D01*
X65661Y-57666D01*
X65663Y-57664D01*
X65663Y-57664D01*
X65663Y-57664D01*
X65663Y-57663D01*
X65913Y-57413D01*
X65913Y-57413D01*
X65913Y-57413D01*
X66163Y-57163D01*
X66177Y-57147D01*
X66191Y-57131D01*
X66191Y-57129D01*
X66192Y-57128D01*
X66202Y-57110D01*
X66213Y-57091D01*
X66213Y-57090D01*
X66214Y-57089D01*
X66220Y-57068D01*
X66226Y-57048D01*
X66226Y-57047D01*
X66227Y-57045D01*
X66229Y-57024D01*
X66231Y-57003D01*
X66231Y-57000D01*
X66231Y-57000D01*
X66231Y-57000D01*
X66231Y-57000D01*
X66231Y-56746D01*
X66233Y-56739D01*
X66233Y-56712D01*
X66233Y-56261D01*
X66231Y-56253D01*
X66231Y-55955D01*
X66234Y-55952D01*
X66269Y-55903D01*
X66294Y-55847D01*
X66307Y-55788D01*
X66308Y-55719D01*
X66308Y-56177D01*
X66296Y-56189D01*
X66282Y-56211D01*
X66271Y-56235D01*
X66266Y-56260D01*
X66266Y-56287D01*
X66266Y-56738D01*
X66268Y-56746D01*
X66268Y-57295D01*
X66262Y-57300D01*
X66228Y-57350D01*
X66204Y-57406D01*
X66191Y-57465D01*
X66191Y-57480D01*
X65903Y-57768D01*
X63250Y-57768D01*
X63228Y-57770D01*
X63207Y-57772D01*
X63206Y-57772D01*
X63204Y-57772D01*
X63184Y-57778D01*
X63163Y-57784D01*
X63162Y-57785D01*
X63161Y-57785D01*
X63142Y-57795D01*
X63123Y-57805D01*
X63122Y-57806D01*
X63121Y-57806D01*
X63105Y-57820D01*
X63088Y-57833D01*
X63086Y-57835D01*
X63086Y-57835D01*
X63086Y-57835D01*
X63086Y-57836D01*
X62903Y-58018D01*
X62808Y-58018D01*
X62808Y-58011D01*
X62803Y-57986D01*
X62793Y-57962D01*
X62778Y-57940D01*
X62760Y-57921D01*
X62738Y-57907D01*
X62714Y-57896D01*
X62689Y-57891D01*
X62662Y-57891D01*
X62411Y-57891D01*
X62386Y-57896D01*
X62362Y-57906D01*
X62340Y-57921D01*
X62321Y-57939D01*
X62307Y-57961D01*
X62296Y-57985D01*
X62291Y-58010D01*
X62291Y-58037D01*
X62291Y-58488D01*
X62296Y-58513D01*
X62306Y-58537D01*
X62321Y-58559D01*
X62339Y-58578D01*
X62361Y-58592D01*
X62385Y-58603D01*
X62410Y-58608D01*
X62437Y-58608D01*
X62688Y-58608D01*
X62713Y-58603D01*
X62737Y-58593D01*
X62759Y-58578D01*
X62778Y-58560D01*
X62792Y-58538D01*
X62803Y-58514D01*
X62808Y-58489D01*
X62808Y-58481D01*
X63000Y-58481D01*
X63021Y-58479D01*
X63042Y-58477D01*
X63043Y-58477D01*
X63045Y-58477D01*
X63065Y-58471D01*
X63086Y-58465D01*
X63087Y-58464D01*
X63088Y-58464D01*
X63107Y-58454D01*
X63126Y-58444D01*
X63127Y-58443D01*
X63128Y-58443D01*
X63144Y-58429D01*
X63161Y-58416D01*
X63163Y-58414D01*
X63163Y-58414D01*
X63163Y-58414D01*
X63163Y-58413D01*
X63346Y-58231D01*
X66000Y-58231D01*
X66021Y-58229D01*
X66042Y-58227D01*
X66043Y-58227D01*
X66045Y-58227D01*
X66065Y-58221D01*
X66086Y-58215D01*
X66087Y-58214D01*
X66088Y-58214D01*
X66107Y-58204D01*
X66126Y-58194D01*
X66127Y-58193D01*
X66128Y-58193D01*
X66144Y-58179D01*
X66161Y-58166D01*
X66163Y-58164D01*
X66163Y-58164D01*
X66163Y-58164D01*
X66163Y-58163D01*
X66518Y-57808D01*
X66523Y-57809D01*
X66583Y-57798D01*
X66639Y-57776D01*
X66690Y-57744D01*
X66734Y-57702D01*
X66769Y-57653D01*
X66794Y-57597D01*
X66807Y-57538D01*
X66808Y-57469D01*
X66808Y-59018D01*
X66700Y-59018D01*
X66700Y-58815D01*
X66700Y-58384D01*
X66700Y-58364D01*
X66696Y-58345D01*
X66688Y-58327D01*
X66677Y-58310D01*
X66663Y-58296D01*
X66647Y-58285D01*
X66629Y-58278D01*
X66609Y-58274D01*
X66575Y-58274D01*
X66550Y-58299D01*
X66550Y-58487D01*
X66675Y-58487D01*
X66700Y-58462D01*
X66700Y-58384D01*
X66700Y-58815D01*
X66700Y-58737D01*
X66675Y-58712D01*
X66550Y-58712D01*
X66550Y-58900D01*
X66575Y-58925D01*
X66609Y-58925D01*
X66629Y-58921D01*
X66647Y-58914D01*
X66663Y-58903D01*
X66677Y-58889D01*
X66688Y-58872D01*
X66696Y-58854D01*
X66700Y-58835D01*
X66700Y-58815D01*
X66700Y-59018D01*
X66450Y-59018D01*
X66450Y-58900D01*
X66450Y-58712D01*
X66450Y-58487D01*
X66450Y-58299D01*
X66424Y-58274D01*
X66390Y-58274D01*
X66370Y-58278D01*
X66352Y-58285D01*
X66336Y-58296D01*
X66322Y-58310D01*
X66311Y-58327D01*
X66303Y-58345D01*
X66299Y-58364D01*
X66299Y-58384D01*
X66299Y-58462D01*
X66324Y-58487D01*
X66450Y-58487D01*
X66450Y-58712D01*
X66324Y-58712D01*
X66299Y-58737D01*
X66299Y-58815D01*
X66299Y-58835D01*
X66303Y-58854D01*
X66311Y-58872D01*
X66322Y-58889D01*
X66336Y-58903D01*
X66352Y-58914D01*
X66370Y-58921D01*
X66390Y-58925D01*
X66424Y-58925D01*
X66450Y-58900D01*
X66450Y-59018D01*
X66200Y-59018D01*
X66200Y-58815D01*
X66200Y-58384D01*
X66200Y-58364D01*
X66196Y-58345D01*
X66188Y-58327D01*
X66177Y-58310D01*
X66163Y-58296D01*
X66147Y-58285D01*
X66129Y-58278D01*
X66109Y-58274D01*
X66075Y-58274D01*
X66050Y-58299D01*
X66050Y-58487D01*
X66175Y-58487D01*
X66200Y-58462D01*
X66200Y-58384D01*
X66200Y-58815D01*
X66200Y-58737D01*
X66175Y-58712D01*
X66050Y-58712D01*
X66050Y-58900D01*
X66075Y-58925D01*
X66109Y-58925D01*
X66129Y-58921D01*
X66147Y-58914D01*
X66163Y-58903D01*
X66177Y-58889D01*
X66188Y-58872D01*
X66196Y-58854D01*
X66200Y-58835D01*
X66200Y-58815D01*
X66200Y-59018D01*
X65950Y-59018D01*
X65950Y-58900D01*
X65950Y-58712D01*
X65950Y-58487D01*
X65950Y-58299D01*
X65924Y-58274D01*
X65890Y-58274D01*
X65870Y-58278D01*
X65852Y-58285D01*
X65836Y-58296D01*
X65822Y-58310D01*
X65811Y-58327D01*
X65803Y-58345D01*
X65799Y-58364D01*
X65799Y-58384D01*
X65799Y-58462D01*
X65824Y-58487D01*
X65950Y-58487D01*
X65950Y-58712D01*
X65824Y-58712D01*
X65799Y-58737D01*
X65799Y-58815D01*
X65799Y-58835D01*
X65803Y-58854D01*
X65811Y-58872D01*
X65822Y-58889D01*
X65836Y-58903D01*
X65852Y-58914D01*
X65870Y-58921D01*
X65890Y-58925D01*
X65924Y-58925D01*
X65950Y-58900D01*
X65950Y-59018D01*
X65700Y-59018D01*
X65700Y-58815D01*
X65700Y-58384D01*
X65700Y-58364D01*
X65696Y-58345D01*
X65688Y-58327D01*
X65677Y-58310D01*
X65663Y-58296D01*
X65647Y-58285D01*
X65629Y-58278D01*
X65609Y-58274D01*
X65575Y-58274D01*
X65550Y-58299D01*
X65550Y-58487D01*
X65675Y-58487D01*
X65700Y-58462D01*
X65700Y-58384D01*
X65700Y-58815D01*
X65700Y-58737D01*
X65675Y-58712D01*
X65550Y-58712D01*
X65550Y-58900D01*
X65575Y-58925D01*
X65609Y-58925D01*
X65629Y-58921D01*
X65647Y-58914D01*
X65663Y-58903D01*
X65677Y-58889D01*
X65688Y-58872D01*
X65696Y-58854D01*
X65700Y-58835D01*
X65700Y-58815D01*
X65700Y-59018D01*
X65450Y-59018D01*
X65450Y-58900D01*
X65450Y-58712D01*
X65450Y-58487D01*
X65450Y-58299D01*
X65424Y-58274D01*
X65390Y-58274D01*
X65370Y-58278D01*
X65352Y-58285D01*
X65336Y-58296D01*
X65322Y-58310D01*
X65311Y-58327D01*
X65303Y-58345D01*
X65299Y-58364D01*
X65299Y-58384D01*
X65299Y-58462D01*
X65324Y-58487D01*
X65450Y-58487D01*
X65450Y-58712D01*
X65324Y-58712D01*
X65299Y-58737D01*
X65299Y-58815D01*
X65299Y-58835D01*
X65303Y-58854D01*
X65311Y-58872D01*
X65322Y-58889D01*
X65336Y-58903D01*
X65352Y-58914D01*
X65370Y-58921D01*
X65390Y-58925D01*
X65424Y-58925D01*
X65450Y-58900D01*
X65450Y-59018D01*
X65200Y-59018D01*
X65200Y-58815D01*
X65200Y-58384D01*
X65200Y-58364D01*
X65196Y-58345D01*
X65188Y-58327D01*
X65177Y-58310D01*
X65163Y-58296D01*
X65147Y-58285D01*
X65129Y-58278D01*
X65109Y-58274D01*
X65075Y-58274D01*
X65050Y-58299D01*
X65050Y-58487D01*
X65175Y-58487D01*
X65200Y-58462D01*
X65200Y-58384D01*
X65200Y-58815D01*
X65200Y-58737D01*
X65175Y-58712D01*
X65050Y-58712D01*
X65050Y-58900D01*
X65075Y-58925D01*
X65109Y-58925D01*
X65129Y-58921D01*
X65147Y-58914D01*
X65163Y-58903D01*
X65177Y-58889D01*
X65188Y-58872D01*
X65196Y-58854D01*
X65200Y-58835D01*
X65200Y-58815D01*
X65200Y-59018D01*
X64950Y-59018D01*
X64950Y-58900D01*
X64950Y-58712D01*
X64950Y-58487D01*
X64950Y-58299D01*
X64924Y-58274D01*
X64890Y-58274D01*
X64870Y-58278D01*
X64852Y-58285D01*
X64836Y-58296D01*
X64822Y-58310D01*
X64811Y-58327D01*
X64803Y-58345D01*
X64799Y-58364D01*
X64799Y-58384D01*
X64799Y-58462D01*
X64824Y-58487D01*
X64950Y-58487D01*
X64950Y-58712D01*
X64824Y-58712D01*
X64799Y-58737D01*
X64799Y-58815D01*
X64799Y-58835D01*
X64803Y-58854D01*
X64811Y-58872D01*
X64822Y-58889D01*
X64836Y-58903D01*
X64852Y-58914D01*
X64870Y-58921D01*
X64890Y-58925D01*
X64924Y-58925D01*
X64950Y-58900D01*
X64950Y-59018D01*
X64700Y-59018D01*
X64700Y-58815D01*
X64700Y-58384D01*
X64700Y-58364D01*
X64696Y-58345D01*
X64688Y-58327D01*
X64677Y-58310D01*
X64663Y-58296D01*
X64647Y-58285D01*
X64629Y-58278D01*
X64609Y-58274D01*
X64575Y-58274D01*
X64550Y-58299D01*
X64550Y-58487D01*
X64675Y-58487D01*
X64700Y-58462D01*
X64700Y-58384D01*
X64700Y-58815D01*
X64700Y-58737D01*
X64675Y-58712D01*
X64550Y-58712D01*
X64550Y-58900D01*
X64575Y-58925D01*
X64609Y-58925D01*
X64629Y-58921D01*
X64647Y-58914D01*
X64663Y-58903D01*
X64677Y-58889D01*
X64688Y-58872D01*
X64696Y-58854D01*
X64700Y-58835D01*
X64700Y-58815D01*
X64700Y-59018D01*
X64450Y-59018D01*
X64450Y-58900D01*
X64450Y-58712D01*
X64450Y-58487D01*
X64450Y-58299D01*
X64424Y-58274D01*
X64390Y-58274D01*
X64370Y-58278D01*
X64352Y-58285D01*
X64336Y-58296D01*
X64322Y-58310D01*
X64311Y-58327D01*
X64303Y-58345D01*
X64299Y-58364D01*
X64299Y-58384D01*
X64299Y-58462D01*
X64324Y-58487D01*
X64450Y-58487D01*
X64450Y-58712D01*
X64324Y-58712D01*
X64299Y-58737D01*
X64299Y-58815D01*
X64299Y-58835D01*
X64303Y-58854D01*
X64311Y-58872D01*
X64322Y-58889D01*
X64336Y-58903D01*
X64352Y-58914D01*
X64370Y-58921D01*
X64390Y-58925D01*
X64424Y-58925D01*
X64450Y-58900D01*
X64450Y-59018D01*
X64346Y-59018D01*
X64231Y-58903D01*
X64231Y-58846D01*
X64233Y-58839D01*
X64233Y-58812D01*
X64233Y-58361D01*
X64228Y-58336D01*
X64218Y-58312D01*
X64203Y-58290D01*
X64185Y-58271D01*
X64163Y-58257D01*
X64139Y-58246D01*
X64114Y-58241D01*
X64087Y-58241D01*
X63886Y-58241D01*
X63861Y-58246D01*
X63837Y-58256D01*
X63815Y-58271D01*
X63796Y-58289D01*
X63782Y-58311D01*
X63771Y-58335D01*
X63766Y-58360D01*
X63766Y-58387D01*
X63766Y-58838D01*
X63768Y-58846D01*
X63768Y-59000D01*
X63770Y-59021D01*
X63772Y-59042D01*
X63772Y-59043D01*
X63772Y-59045D01*
X63778Y-59065D01*
X63784Y-59086D01*
X63785Y-59087D01*
X63785Y-59088D01*
X63795Y-59107D01*
X63805Y-59126D01*
X63806Y-59127D01*
X63806Y-59128D01*
X63820Y-59144D01*
X63833Y-59161D01*
X63835Y-59163D01*
X63835Y-59163D01*
X63835Y-59163D01*
X63836Y-59163D01*
X64086Y-59413D01*
X64102Y-59427D01*
X64118Y-59441D01*
X64120Y-59441D01*
X64121Y-59442D01*
X64139Y-59452D01*
X64158Y-59463D01*
X64159Y-59463D01*
X64160Y-59464D01*
X64181Y-59470D01*
X64201Y-59476D01*
X64202Y-59476D01*
X64204Y-59477D01*
X64225Y-59479D01*
X64246Y-59481D01*
X64249Y-59481D01*
X64249Y-59481D01*
X64249Y-59481D01*
X64250Y-59481D01*
X68403Y-59481D01*
X68518Y-59596D01*
X68518Y-60663D01*
X68492Y-60680D01*
X68435Y-60736D01*
X68390Y-60802D01*
X68358Y-60875D01*
X68342Y-60954D01*
X68340Y-61034D01*
X68355Y-61113D01*
X68384Y-61187D01*
X68428Y-61254D01*
X68483Y-61312D01*
X68549Y-61358D01*
X68623Y-61390D01*
X68701Y-61407D01*
X68781Y-61409D01*
X68860Y-61395D01*
X68935Y-61366D01*
X69002Y-61323D01*
X69060Y-61268D01*
X69106Y-61202D01*
X69139Y-61129D01*
X69157Y-61051D01*
X69158Y-60959D01*
X69158Y-62379D01*
X68158Y-62379D01*
X68158Y-61262D01*
X68158Y-60711D01*
X68153Y-60686D01*
X68143Y-60662D01*
X68128Y-60640D01*
X68110Y-60621D01*
X68088Y-60607D01*
X68064Y-60596D01*
X68039Y-60591D01*
X68012Y-60591D01*
X67981Y-60591D01*
X67981Y-60000D01*
X67979Y-59978D01*
X67977Y-59957D01*
X67977Y-59956D01*
X67977Y-59954D01*
X67971Y-59934D01*
X67965Y-59913D01*
X67964Y-59912D01*
X67964Y-59911D01*
X67954Y-59892D01*
X67944Y-59873D01*
X67943Y-59872D01*
X67943Y-59871D01*
X67929Y-59855D01*
X67916Y-59838D01*
X67914Y-59836D01*
X67914Y-59836D01*
X67914Y-59836D01*
X67913Y-59836D01*
X67663Y-59586D01*
X67647Y-59572D01*
X67631Y-59558D01*
X67629Y-59558D01*
X67628Y-59557D01*
X67610Y-59547D01*
X67591Y-59536D01*
X67590Y-59536D01*
X67589Y-59535D01*
X67568Y-59529D01*
X67548Y-59523D01*
X67547Y-59523D01*
X67545Y-59522D01*
X67524Y-59520D01*
X67503Y-59518D01*
X67500Y-59518D01*
X67500Y-59518D01*
X67500Y-59518D01*
X67500Y-59518D01*
X63846Y-59518D01*
X63731Y-59403D01*
X63731Y-58846D01*
X63733Y-58839D01*
X63733Y-58812D01*
X63733Y-58361D01*
X63728Y-58336D01*
X63718Y-58312D01*
X63703Y-58290D01*
X63685Y-58271D01*
X63663Y-58257D01*
X63639Y-58246D01*
X63614Y-58241D01*
X63587Y-58241D01*
X63386Y-58241D01*
X63361Y-58246D01*
X63337Y-58256D01*
X63315Y-58271D01*
X63296Y-58289D01*
X63282Y-58311D01*
X63271Y-58335D01*
X63266Y-58360D01*
X63266Y-58387D01*
X63266Y-58838D01*
X63268Y-58846D01*
X63268Y-59500D01*
X63270Y-59521D01*
X63272Y-59542D01*
X63272Y-59543D01*
X63272Y-59545D01*
X63278Y-59565D01*
X63284Y-59586D01*
X63285Y-59587D01*
X63285Y-59588D01*
X63295Y-59607D01*
X63305Y-59626D01*
X63306Y-59627D01*
X63306Y-59628D01*
X63320Y-59644D01*
X63333Y-59661D01*
X63335Y-59663D01*
X63335Y-59663D01*
X63335Y-59663D01*
X63336Y-59663D01*
X63586Y-59913D01*
X63602Y-59927D01*
X63618Y-59941D01*
X63620Y-59941D01*
X63621Y-59942D01*
X63639Y-59952D01*
X63658Y-59963D01*
X63659Y-59963D01*
X63660Y-59964D01*
X63681Y-59970D01*
X63701Y-59976D01*
X63702Y-59976D01*
X63704Y-59977D01*
X63725Y-59979D01*
X63746Y-59981D01*
X63749Y-59981D01*
X63749Y-59981D01*
X63749Y-59981D01*
X63750Y-59981D01*
X67403Y-59981D01*
X67518Y-60096D01*
X67518Y-60591D01*
X67461Y-60591D01*
X67436Y-60596D01*
X67412Y-60606D01*
X67390Y-60621D01*
X67371Y-60639D01*
X67357Y-60661D01*
X67346Y-60685D01*
X67341Y-60710D01*
X67341Y-60737D01*
X67341Y-61288D01*
X67346Y-61313D01*
X67356Y-61337D01*
X67371Y-61359D01*
X67389Y-61378D01*
X67411Y-61392D01*
X67435Y-61403D01*
X67460Y-61408D01*
X67487Y-61408D01*
X68038Y-61408D01*
X68063Y-61403D01*
X68087Y-61393D01*
X68109Y-61378D01*
X68128Y-61360D01*
X68142Y-61338D01*
X68153Y-61314D01*
X68158Y-61289D01*
X68158Y-61262D01*
X68158Y-62379D01*
X65353Y-62379D01*
X65353Y-61003D01*
X65342Y-60886D01*
X65341Y-60879D01*
X65295Y-60808D01*
X65103Y-61000D01*
X65295Y-61191D01*
X65341Y-61120D01*
X65353Y-61003D01*
X65353Y-62379D01*
X64941Y-62379D01*
X64941Y-61545D01*
X64941Y-60454D01*
X64870Y-60408D01*
X64753Y-60396D01*
X64636Y-60407D01*
X64629Y-60408D01*
X64558Y-60454D01*
X64750Y-60646D01*
X64941Y-60454D01*
X64941Y-61545D01*
X64750Y-61353D01*
X64558Y-61545D01*
X64629Y-61591D01*
X64746Y-61603D01*
X64863Y-61592D01*
X64870Y-61591D01*
X64941Y-61545D01*
X64941Y-62379D01*
X64396Y-62379D01*
X64396Y-61000D01*
X64204Y-60808D01*
X64158Y-60879D01*
X64146Y-60996D01*
X64157Y-61113D01*
X64158Y-61120D01*
X64204Y-61191D01*
X64396Y-61000D01*
X64396Y-62379D01*
X63383Y-62379D01*
X63383Y-61487D01*
X63383Y-60486D01*
X63378Y-60461D01*
X63368Y-60437D01*
X63353Y-60415D01*
X63335Y-60396D01*
X63313Y-60382D01*
X63289Y-60371D01*
X63264Y-60366D01*
X63237Y-60366D01*
X62236Y-60366D01*
X62211Y-60371D01*
X62187Y-60381D01*
X62165Y-60396D01*
X62146Y-60414D01*
X62132Y-60436D01*
X62121Y-60460D01*
X62116Y-60485D01*
X62116Y-60512D01*
X62116Y-61513D01*
X62121Y-61538D01*
X62131Y-61562D01*
X62146Y-61584D01*
X62164Y-61603D01*
X62186Y-61617D01*
X62210Y-61628D01*
X62235Y-61633D01*
X62262Y-61633D01*
X63263Y-61633D01*
X63288Y-61628D01*
X63312Y-61618D01*
X63334Y-61603D01*
X63353Y-61585D01*
X63367Y-61563D01*
X63378Y-61539D01*
X63383Y-61514D01*
X63383Y-61487D01*
X63383Y-62379D01*
X60933Y-62379D01*
X60933Y-60908D01*
X60933Y-44408D01*
X60897Y-44228D01*
X60828Y-44059D01*
X60726Y-43907D01*
X60597Y-43777D01*
X60446Y-43674D01*
X60277Y-43603D01*
X60098Y-43567D01*
X59914Y-43565D01*
X59735Y-43600D01*
X59565Y-43668D01*
X59412Y-43768D01*
X59281Y-43897D01*
X59178Y-44048D01*
X59105Y-44216D01*
X59067Y-44395D01*
X59065Y-44578D01*
X59098Y-44758D01*
X59165Y-44928D01*
X59264Y-45082D01*
X59392Y-45214D01*
X59542Y-45318D01*
X59710Y-45392D01*
X59888Y-45431D01*
X60071Y-45435D01*
X60252Y-45403D01*
X60422Y-45337D01*
X60577Y-45239D01*
X60710Y-45112D01*
X60815Y-44963D01*
X60890Y-44796D01*
X60930Y-44617D01*
X60933Y-44408D01*
X60933Y-60908D01*
X60897Y-60728D01*
X60828Y-60559D01*
X60726Y-60407D01*
X60597Y-60277D01*
X60446Y-60174D01*
X60277Y-60103D01*
X60098Y-60067D01*
X59914Y-60065D01*
X59735Y-60100D01*
X59565Y-60168D01*
X59412Y-60268D01*
X59281Y-60397D01*
X59178Y-60548D01*
X59105Y-60716D01*
X59067Y-60895D01*
X59065Y-61078D01*
X59098Y-61258D01*
X59165Y-61428D01*
X59264Y-61582D01*
X59392Y-61714D01*
X59542Y-61818D01*
X59710Y-61892D01*
X59888Y-61931D01*
X60071Y-61935D01*
X60252Y-61903D01*
X60422Y-61837D01*
X60577Y-61739D01*
X60710Y-61612D01*
X60815Y-61463D01*
X60890Y-61296D01*
X60930Y-61117D01*
X60933Y-60908D01*
X60933Y-62379D01*
X60005Y-62379D01*
X59732Y-62353D01*
X59474Y-62275D01*
X59236Y-62148D01*
X59028Y-61978D01*
X58856Y-61771D01*
X58728Y-61534D01*
X58648Y-61277D01*
X58620Y-61003D01*
X58620Y-60999D01*
X58620Y-44505D01*
X58646Y-44232D01*
X58724Y-43974D01*
X58851Y-43736D01*
X59021Y-43528D01*
X59228Y-43356D01*
X59465Y-43228D01*
X59722Y-43148D01*
X59996Y-43120D01*
X60000Y-43120D01*
X71744Y-43120D01*
X72017Y-43146D01*
X72275Y-43224D01*
X72513Y-43351D01*
X72721Y-43521D01*
X72893Y-43728D01*
X73021Y-43965D01*
X73101Y-44222D01*
X73129Y-44496D01*
X73129Y-44500D01*
X73129Y-60994D01*
X73129Y-60994D01*
G37*
G54D32*
X73129Y-60994D02*
X73103Y-61267D01*
X73025Y-61525D01*
X72898Y-61763D01*
X72739Y-61959D01*
X72739Y-44560D01*
X72732Y-44366D01*
X72708Y-44248D01*
X72638Y-44121D01*
X72259Y-44500D01*
X72638Y-44878D01*
X72708Y-44751D01*
X72739Y-44560D01*
X72739Y-61959D01*
X72728Y-61971D01*
X72654Y-62033D01*
X72654Y-61021D01*
X72641Y-60845D01*
X72633Y-60805D01*
X72633Y-58487D01*
X72633Y-57529D01*
X72633Y-55663D01*
X72633Y-53663D01*
X72633Y-51663D01*
X72599Y-51493D01*
X72533Y-51333D01*
X72437Y-51188D01*
X72315Y-51065D01*
X72172Y-50969D01*
X72128Y-50950D01*
X72128Y-45388D01*
X72128Y-43611D01*
X72001Y-43541D01*
X71810Y-43510D01*
X71616Y-43517D01*
X71498Y-43541D01*
X71371Y-43611D01*
X71750Y-43990D01*
X72128Y-43611D01*
X72128Y-45388D01*
X71750Y-45009D01*
X71371Y-45388D01*
X71498Y-45458D01*
X71689Y-45489D01*
X71883Y-45482D01*
X72001Y-45458D01*
X72128Y-45388D01*
X72128Y-50950D01*
X72012Y-50901D01*
X71842Y-50867D01*
X71669Y-50865D01*
X71669Y-50866D01*
X71669Y-49735D01*
X71668Y-48238D01*
X71663Y-48213D01*
X71653Y-48189D01*
X71639Y-48167D01*
X71620Y-48148D01*
X71599Y-48134D01*
X71575Y-48123D01*
X71549Y-48118D01*
X71523Y-48118D01*
X71240Y-48118D01*
X71240Y-44500D01*
X70861Y-44121D01*
X70791Y-44248D01*
X70760Y-44439D01*
X70767Y-44633D01*
X70791Y-44751D01*
X70861Y-44878D01*
X71240Y-44500D01*
X71240Y-48118D01*
X70813Y-48118D01*
X70787Y-48123D01*
X70775Y-48128D01*
X70775Y-47215D01*
X70775Y-46784D01*
X70775Y-46764D01*
X70771Y-46745D01*
X70763Y-46727D01*
X70752Y-46710D01*
X70738Y-46696D01*
X70722Y-46685D01*
X70704Y-46678D01*
X70684Y-46674D01*
X70637Y-46674D01*
X70612Y-46699D01*
X70612Y-46887D01*
X70750Y-46887D01*
X70775Y-46862D01*
X70775Y-46784D01*
X70775Y-47215D01*
X70775Y-47137D01*
X70750Y-47112D01*
X70612Y-47112D01*
X70612Y-47300D01*
X70637Y-47325D01*
X70684Y-47325D01*
X70704Y-47321D01*
X70722Y-47314D01*
X70738Y-47303D01*
X70752Y-47289D01*
X70763Y-47272D01*
X70771Y-47254D01*
X70775Y-47235D01*
X70775Y-47215D01*
X70775Y-48128D01*
X70763Y-48133D01*
X70741Y-48148D01*
X70723Y-48166D01*
X70708Y-48188D01*
X70698Y-48212D01*
X70693Y-48237D01*
X70692Y-48264D01*
X70693Y-49761D01*
X70698Y-49786D01*
X70708Y-49810D01*
X70722Y-49832D01*
X70741Y-49851D01*
X70762Y-49865D01*
X70786Y-49876D01*
X70812Y-49881D01*
X70838Y-49881D01*
X71548Y-49881D01*
X71574Y-49876D01*
X71598Y-49866D01*
X71620Y-49851D01*
X71638Y-49833D01*
X71653Y-49811D01*
X71663Y-49787D01*
X71668Y-49762D01*
X71669Y-49735D01*
X71669Y-50866D01*
X71499Y-50898D01*
X71338Y-50963D01*
X71193Y-51058D01*
X71069Y-51179D01*
X70972Y-51321D01*
X70487Y-51321D01*
X70487Y-47300D01*
X70487Y-47112D01*
X70487Y-46887D01*
X70487Y-46699D01*
X70462Y-46674D01*
X70415Y-46674D01*
X70395Y-46678D01*
X70377Y-46685D01*
X70361Y-46696D01*
X70347Y-46710D01*
X70336Y-46727D01*
X70328Y-46745D01*
X70324Y-46764D01*
X70324Y-46784D01*
X70324Y-46862D01*
X70349Y-46887D01*
X70487Y-46887D01*
X70487Y-47112D01*
X70349Y-47112D01*
X70324Y-47137D01*
X70324Y-47215D01*
X70324Y-47235D01*
X70328Y-47254D01*
X70336Y-47272D01*
X70347Y-47289D01*
X70361Y-47303D01*
X70377Y-47314D01*
X70395Y-47321D01*
X70415Y-47325D01*
X70462Y-47325D01*
X70487Y-47300D01*
X70487Y-51321D01*
X70208Y-51321D01*
X70208Y-47212D01*
X70208Y-46761D01*
X70203Y-46736D01*
X70193Y-46712D01*
X70178Y-46690D01*
X70160Y-46671D01*
X70138Y-46657D01*
X70126Y-46651D01*
X70126Y-44522D01*
X70123Y-44448D01*
X70114Y-44404D01*
X70076Y-44368D01*
X69944Y-44500D01*
X70076Y-44631D01*
X70114Y-44595D01*
X70126Y-44522D01*
X70126Y-46651D01*
X70114Y-46646D01*
X70089Y-46641D01*
X70062Y-46641D01*
X69881Y-46641D01*
X69881Y-44826D01*
X69881Y-44173D01*
X69845Y-44135D01*
X69772Y-44123D01*
X69698Y-44126D01*
X69654Y-44135D01*
X69618Y-44173D01*
X69750Y-44305D01*
X69881Y-44173D01*
X69881Y-44826D01*
X69750Y-44694D01*
X69618Y-44826D01*
X69654Y-44864D01*
X69727Y-44876D01*
X69801Y-44873D01*
X69845Y-44864D01*
X69881Y-44826D01*
X69881Y-46641D01*
X69811Y-46641D01*
X69786Y-46646D01*
X69762Y-46656D01*
X69740Y-46671D01*
X69721Y-46689D01*
X69707Y-46711D01*
X69696Y-46735D01*
X69691Y-46760D01*
X69691Y-46768D01*
X69558Y-46768D01*
X69558Y-46761D01*
X69555Y-46747D01*
X69555Y-44500D01*
X69423Y-44368D01*
X69385Y-44404D01*
X69373Y-44477D01*
X69376Y-44551D01*
X69385Y-44595D01*
X69423Y-44631D01*
X69555Y-44500D01*
X69555Y-46747D01*
X69553Y-46736D01*
X69543Y-46712D01*
X69528Y-46690D01*
X69510Y-46671D01*
X69488Y-46657D01*
X69464Y-46646D01*
X69439Y-46641D01*
X69412Y-46641D01*
X69161Y-46641D01*
X69158Y-46642D01*
X69158Y-44459D01*
X69142Y-44381D01*
X69112Y-44307D01*
X69068Y-44240D01*
X69011Y-44183D01*
X68945Y-44138D01*
X68871Y-44107D01*
X68792Y-44091D01*
X68712Y-44091D01*
X68634Y-44106D01*
X68559Y-44136D01*
X68492Y-44180D01*
X68435Y-44236D01*
X68390Y-44302D01*
X68358Y-44375D01*
X68342Y-44454D01*
X68340Y-44534D01*
X68355Y-44613D01*
X68384Y-44687D01*
X68428Y-44754D01*
X68483Y-44812D01*
X68518Y-44836D01*
X68518Y-45153D01*
X67269Y-46402D01*
X67294Y-46347D01*
X67307Y-46288D01*
X67307Y-46270D01*
X67913Y-45663D01*
X67927Y-45647D01*
X67941Y-45631D01*
X67941Y-45629D01*
X67942Y-45628D01*
X67952Y-45610D01*
X67963Y-45591D01*
X67963Y-45590D01*
X67964Y-45589D01*
X67970Y-45568D01*
X67976Y-45548D01*
X67976Y-45547D01*
X67977Y-45545D01*
X67979Y-45524D01*
X67981Y-45503D01*
X67981Y-45500D01*
X67981Y-45500D01*
X67981Y-45500D01*
X67981Y-45500D01*
X67981Y-44908D01*
X68038Y-44908D01*
X68063Y-44903D01*
X68087Y-44893D01*
X68109Y-44878D01*
X68128Y-44860D01*
X68142Y-44838D01*
X68153Y-44814D01*
X68158Y-44789D01*
X68158Y-44762D01*
X68158Y-44211D01*
X68153Y-44186D01*
X68143Y-44162D01*
X68128Y-44140D01*
X68110Y-44121D01*
X68088Y-44107D01*
X68064Y-44096D01*
X68039Y-44091D01*
X68012Y-44091D01*
X67461Y-44091D01*
X67436Y-44096D01*
X67412Y-44106D01*
X67390Y-44121D01*
X67371Y-44139D01*
X67357Y-44161D01*
X67346Y-44185D01*
X67341Y-44210D01*
X67341Y-44237D01*
X67341Y-44788D01*
X67346Y-44813D01*
X67356Y-44837D01*
X67371Y-44859D01*
X67389Y-44878D01*
X67411Y-44892D01*
X67435Y-44903D01*
X67460Y-44908D01*
X67487Y-44908D01*
X67518Y-44908D01*
X67518Y-45403D01*
X66980Y-45941D01*
X66971Y-45941D01*
X66912Y-45952D01*
X66856Y-45975D01*
X66805Y-46008D01*
X66762Y-46050D01*
X66728Y-46100D01*
X66704Y-46156D01*
X66691Y-46215D01*
X66691Y-46275D01*
X66702Y-46335D01*
X66724Y-46391D01*
X66757Y-46442D01*
X66799Y-46486D01*
X66848Y-46520D01*
X66904Y-46544D01*
X66963Y-46557D01*
X67007Y-46558D01*
X66978Y-46600D01*
X66954Y-46656D01*
X66941Y-46715D01*
X66941Y-46775D01*
X66952Y-46835D01*
X66974Y-46891D01*
X67007Y-46942D01*
X67049Y-46986D01*
X67098Y-47020D01*
X67154Y-47044D01*
X67213Y-47057D01*
X67273Y-47059D01*
X67333Y-47048D01*
X67389Y-47026D01*
X67440Y-46994D01*
X67484Y-46952D01*
X67519Y-46903D01*
X67544Y-46847D01*
X67557Y-46788D01*
X67557Y-46770D01*
X68913Y-45413D01*
X68927Y-45397D01*
X68941Y-45381D01*
X68941Y-45379D01*
X68942Y-45378D01*
X68952Y-45360D01*
X68963Y-45341D01*
X68963Y-45340D01*
X68964Y-45339D01*
X68970Y-45318D01*
X68976Y-45298D01*
X68976Y-45297D01*
X68977Y-45295D01*
X68979Y-45274D01*
X68981Y-45253D01*
X68981Y-45250D01*
X68981Y-45250D01*
X68981Y-45250D01*
X68981Y-45250D01*
X68981Y-44836D01*
X69002Y-44823D01*
X69060Y-44768D01*
X69106Y-44702D01*
X69139Y-44629D01*
X69157Y-44551D01*
X69158Y-44459D01*
X69158Y-46642D01*
X69136Y-46646D01*
X69112Y-46656D01*
X69090Y-46671D01*
X69071Y-46689D01*
X69057Y-46711D01*
X69046Y-46735D01*
X69041Y-46760D01*
X69041Y-46787D01*
X69041Y-47238D01*
X69046Y-47263D01*
X69056Y-47287D01*
X69071Y-47309D01*
X69089Y-47328D01*
X69111Y-47342D01*
X69135Y-47353D01*
X69160Y-47358D01*
X69187Y-47358D01*
X69438Y-47358D01*
X69463Y-47353D01*
X69487Y-47343D01*
X69509Y-47328D01*
X69528Y-47310D01*
X69542Y-47288D01*
X69553Y-47264D01*
X69558Y-47239D01*
X69558Y-47231D01*
X69691Y-47231D01*
X69691Y-47238D01*
X69696Y-47263D01*
X69706Y-47287D01*
X69721Y-47309D01*
X69739Y-47328D01*
X69761Y-47342D01*
X69785Y-47353D01*
X69810Y-47358D01*
X69837Y-47358D01*
X70088Y-47358D01*
X70113Y-47353D01*
X70137Y-47343D01*
X70159Y-47328D01*
X70178Y-47310D01*
X70192Y-47288D01*
X70203Y-47264D01*
X70208Y-47239D01*
X70208Y-47212D01*
X70208Y-51321D01*
X68427Y-51321D01*
X68178Y-51072D01*
X68178Y-50236D01*
X68353Y-50236D01*
X68360Y-50246D01*
X68379Y-50265D01*
X68400Y-50279D01*
X68424Y-50290D01*
X68450Y-50295D01*
X68476Y-50295D01*
X69186Y-50295D01*
X69212Y-50290D01*
X69236Y-50280D01*
X69258Y-50265D01*
X69276Y-50247D01*
X69291Y-50225D01*
X69301Y-50201D01*
X69306Y-50176D01*
X69307Y-50149D01*
X69307Y-49243D01*
X69306Y-48730D01*
X69301Y-48705D01*
X69291Y-48681D01*
X69277Y-48659D01*
X69273Y-48655D01*
X69273Y-48359D01*
X69273Y-47828D01*
X69270Y-47808D01*
X69262Y-47790D01*
X69251Y-47774D01*
X69237Y-47760D01*
X69221Y-47749D01*
X69203Y-47741D01*
X69184Y-47737D01*
X69164Y-47737D01*
X69021Y-47737D01*
X68996Y-47762D01*
X68996Y-47966D01*
X69248Y-47966D01*
X69273Y-47940D01*
X69273Y-47828D01*
X69273Y-48359D01*
X69273Y-48247D01*
X69248Y-48222D01*
X68996Y-48222D01*
X68996Y-48425D01*
X69021Y-48450D01*
X69164Y-48450D01*
X69184Y-48450D01*
X69203Y-48446D01*
X69221Y-48438D01*
X69237Y-48427D01*
X69251Y-48413D01*
X69262Y-48397D01*
X69270Y-48379D01*
X69273Y-48359D01*
X69273Y-48655D01*
X69258Y-48640D01*
X69237Y-48626D01*
X69213Y-48615D01*
X69187Y-48610D01*
X69161Y-48610D01*
X68641Y-48610D01*
X68641Y-48425D01*
X68641Y-48222D01*
X68641Y-47966D01*
X68641Y-47762D01*
X68616Y-47737D01*
X68473Y-47737D01*
X68453Y-47737D01*
X68434Y-47741D01*
X68416Y-47749D01*
X68400Y-47760D01*
X68386Y-47774D01*
X68375Y-47790D01*
X68367Y-47808D01*
X68364Y-47828D01*
X68364Y-47940D01*
X68389Y-47966D01*
X68641Y-47966D01*
X68641Y-48222D01*
X68389Y-48222D01*
X68364Y-48247D01*
X68364Y-48359D01*
X68367Y-48379D01*
X68375Y-48397D01*
X68386Y-48413D01*
X68400Y-48427D01*
X68416Y-48438D01*
X68434Y-48446D01*
X68453Y-48450D01*
X68473Y-48450D01*
X68616Y-48450D01*
X68641Y-48425D01*
X68641Y-48610D01*
X68451Y-48610D01*
X68425Y-48615D01*
X68401Y-48625D01*
X68379Y-48640D01*
X68368Y-48651D01*
X67733Y-48016D01*
X67731Y-48015D01*
X67731Y-47596D01*
X68096Y-47231D01*
X68441Y-47231D01*
X68441Y-47238D01*
X68446Y-47263D01*
X68456Y-47287D01*
X68471Y-47309D01*
X68489Y-47328D01*
X68511Y-47342D01*
X68535Y-47353D01*
X68560Y-47358D01*
X68587Y-47358D01*
X68838Y-47358D01*
X68863Y-47353D01*
X68887Y-47343D01*
X68909Y-47328D01*
X68928Y-47310D01*
X68942Y-47288D01*
X68953Y-47264D01*
X68958Y-47239D01*
X68958Y-47212D01*
X68958Y-46761D01*
X68953Y-46736D01*
X68943Y-46712D01*
X68928Y-46690D01*
X68910Y-46671D01*
X68888Y-46657D01*
X68864Y-46646D01*
X68839Y-46641D01*
X68812Y-46641D01*
X68561Y-46641D01*
X68536Y-46646D01*
X68512Y-46656D01*
X68490Y-46671D01*
X68471Y-46689D01*
X68457Y-46711D01*
X68446Y-46735D01*
X68441Y-46760D01*
X68441Y-46768D01*
X68000Y-46768D01*
X67978Y-46770D01*
X67957Y-46772D01*
X67956Y-46772D01*
X67954Y-46772D01*
X67934Y-46778D01*
X67913Y-46784D01*
X67912Y-46785D01*
X67911Y-46785D01*
X67892Y-46795D01*
X67873Y-46805D01*
X67872Y-46806D01*
X67871Y-46806D01*
X67855Y-46820D01*
X67838Y-46833D01*
X67836Y-46835D01*
X67836Y-46835D01*
X67836Y-46835D01*
X67836Y-46836D01*
X67336Y-47336D01*
X67322Y-47352D01*
X67308Y-47368D01*
X67308Y-47370D01*
X67307Y-47371D01*
X67297Y-47389D01*
X67286Y-47408D01*
X67286Y-47409D01*
X67285Y-47410D01*
X67279Y-47431D01*
X67273Y-47451D01*
X67273Y-47452D01*
X67272Y-47454D01*
X67270Y-47475D01*
X67268Y-47496D01*
X67268Y-47499D01*
X67268Y-47499D01*
X67268Y-47499D01*
X67268Y-47500D01*
X67268Y-47919D01*
X66830Y-47919D01*
X66830Y-47757D01*
X66842Y-47738D01*
X66853Y-47714D01*
X66858Y-47689D01*
X66858Y-47662D01*
X66858Y-47411D01*
X66853Y-47386D01*
X66843Y-47362D01*
X66828Y-47340D01*
X66825Y-47336D01*
X66825Y-47084D01*
X66825Y-46815D01*
X66821Y-46795D01*
X66814Y-46777D01*
X66803Y-46761D01*
X66789Y-46747D01*
X66772Y-46736D01*
X66754Y-46728D01*
X66735Y-46724D01*
X66715Y-46724D01*
X66637Y-46724D01*
X66612Y-46749D01*
X66612Y-46887D01*
X66800Y-46887D01*
X66825Y-46862D01*
X66825Y-46815D01*
X66825Y-47084D01*
X66825Y-47037D01*
X66800Y-47012D01*
X66612Y-47012D01*
X66612Y-47150D01*
X66637Y-47175D01*
X66715Y-47175D01*
X66735Y-47175D01*
X66754Y-47171D01*
X66772Y-47163D01*
X66789Y-47152D01*
X66803Y-47138D01*
X66814Y-47122D01*
X66821Y-47104D01*
X66825Y-47084D01*
X66825Y-47336D01*
X66810Y-47321D01*
X66788Y-47307D01*
X66764Y-47296D01*
X66739Y-47291D01*
X66712Y-47291D01*
X66703Y-47291D01*
X66684Y-47276D01*
X66628Y-47245D01*
X66566Y-47226D01*
X66502Y-47219D01*
X66438Y-47225D01*
X66387Y-47240D01*
X66387Y-47150D01*
X66387Y-47012D01*
X66387Y-46887D01*
X66387Y-46749D01*
X66362Y-46724D01*
X66284Y-46724D01*
X66264Y-46724D01*
X66245Y-46728D01*
X66227Y-46736D01*
X66210Y-46747D01*
X66196Y-46761D01*
X66185Y-46777D01*
X66178Y-46795D01*
X66174Y-46815D01*
X66174Y-46862D01*
X66199Y-46887D01*
X66387Y-46887D01*
X66387Y-47012D01*
X66199Y-47012D01*
X66174Y-47037D01*
X66174Y-47084D01*
X66178Y-47104D01*
X66185Y-47122D01*
X66196Y-47138D01*
X66210Y-47152D01*
X66227Y-47163D01*
X66245Y-47171D01*
X66264Y-47175D01*
X66284Y-47175D01*
X66362Y-47175D01*
X66387Y-47150D01*
X66387Y-47240D01*
X66376Y-47243D01*
X66319Y-47273D01*
X66296Y-47291D01*
X66261Y-47291D01*
X66236Y-47296D01*
X66212Y-47306D01*
X66190Y-47321D01*
X66171Y-47339D01*
X66157Y-47361D01*
X66146Y-47385D01*
X66141Y-47410D01*
X66141Y-47437D01*
X66141Y-47688D01*
X66146Y-47713D01*
X66156Y-47737D01*
X66169Y-47757D01*
X66169Y-47919D01*
X65448Y-47919D01*
X65448Y-47683D01*
X65443Y-47658D01*
X65433Y-47634D01*
X65418Y-47612D01*
X65415Y-47608D01*
X65415Y-47312D01*
X65415Y-46269D01*
X65411Y-46249D01*
X65404Y-46231D01*
X65393Y-46215D01*
X65379Y-46201D01*
X65362Y-46190D01*
X65350Y-46185D01*
X65350Y-44990D01*
X65350Y-44009D01*
X65350Y-43989D01*
X65346Y-43970D01*
X65338Y-43952D01*
X65327Y-43935D01*
X65313Y-43921D01*
X65297Y-43910D01*
X65279Y-43903D01*
X65259Y-43899D01*
X65025Y-43899D01*
X65000Y-43924D01*
X65000Y-44250D01*
X65325Y-44250D01*
X65350Y-44224D01*
X65350Y-44009D01*
X65350Y-44990D01*
X65350Y-44775D01*
X65325Y-44750D01*
X65000Y-44750D01*
X65000Y-45075D01*
X65025Y-45100D01*
X65259Y-45100D01*
X65279Y-45096D01*
X65297Y-45089D01*
X65313Y-45078D01*
X65327Y-45064D01*
X65338Y-45047D01*
X65346Y-45029D01*
X65350Y-45010D01*
X65350Y-44990D01*
X65350Y-46185D01*
X65344Y-46182D01*
X65325Y-46178D01*
X65305Y-46178D01*
X65182Y-46178D01*
X65157Y-46203D01*
X65157Y-46535D01*
X65390Y-46535D01*
X65415Y-46509D01*
X65415Y-46269D01*
X65415Y-47312D01*
X65415Y-47072D01*
X65390Y-47047D01*
X65157Y-47047D01*
X65157Y-47378D01*
X65182Y-47403D01*
X65305Y-47403D01*
X65325Y-47403D01*
X65344Y-47399D01*
X65362Y-47391D01*
X65379Y-47380D01*
X65393Y-47366D01*
X65404Y-47350D01*
X65411Y-47332D01*
X65415Y-47312D01*
X65415Y-47608D01*
X65400Y-47593D01*
X65378Y-47579D01*
X65354Y-47568D01*
X65329Y-47563D01*
X65302Y-47563D01*
X64842Y-47563D01*
X64842Y-47378D01*
X64842Y-47047D01*
X64842Y-46535D01*
X64842Y-46203D01*
X64817Y-46178D01*
X64694Y-46178D01*
X64674Y-46178D01*
X64655Y-46182D01*
X64637Y-46190D01*
X64620Y-46201D01*
X64606Y-46215D01*
X64595Y-46231D01*
X64588Y-46249D01*
X64584Y-46269D01*
X64584Y-46509D01*
X64609Y-46535D01*
X64842Y-46535D01*
X64842Y-47047D01*
X64609Y-47047D01*
X64584Y-47072D01*
X64584Y-47312D01*
X64588Y-47332D01*
X64595Y-47350D01*
X64606Y-47366D01*
X64620Y-47380D01*
X64637Y-47391D01*
X64655Y-47399D01*
X64674Y-47403D01*
X64694Y-47403D01*
X64817Y-47403D01*
X64842Y-47378D01*
X64842Y-47563D01*
X64671Y-47563D01*
X64646Y-47568D01*
X64622Y-47578D01*
X64600Y-47593D01*
X64581Y-47611D01*
X64567Y-47633D01*
X64556Y-47657D01*
X64551Y-47682D01*
X64551Y-47709D01*
X64551Y-48734D01*
X64556Y-48759D01*
X64566Y-48783D01*
X64581Y-48805D01*
X64599Y-48824D01*
X64621Y-48838D01*
X64645Y-48849D01*
X64670Y-48854D01*
X64697Y-48854D01*
X65328Y-48854D01*
X65353Y-48849D01*
X65377Y-48839D01*
X65399Y-48824D01*
X65418Y-48806D01*
X65432Y-48784D01*
X65443Y-48760D01*
X65448Y-48735D01*
X65448Y-48708D01*
X65448Y-48580D01*
X66500Y-48580D01*
X67363Y-48580D01*
X68016Y-49233D01*
X68039Y-49252D01*
X68063Y-49272D01*
X68064Y-49273D01*
X68066Y-49274D01*
X68093Y-49288D01*
X68119Y-49303D01*
X68121Y-49304D01*
X68123Y-49304D01*
X68152Y-49313D01*
X68181Y-49323D01*
X68183Y-49323D01*
X68184Y-49323D01*
X68215Y-49326D01*
X68245Y-49330D01*
X68248Y-49330D01*
X68248Y-49330D01*
X68248Y-49330D01*
X68250Y-49330D01*
X68353Y-49330D01*
X68360Y-49340D01*
X68379Y-49359D01*
X68400Y-49373D01*
X68424Y-49384D01*
X68450Y-49389D01*
X68476Y-49389D01*
X69186Y-49389D01*
X69212Y-49384D01*
X69236Y-49374D01*
X69258Y-49359D01*
X69276Y-49341D01*
X69291Y-49319D01*
X69301Y-49295D01*
X69306Y-49270D01*
X69307Y-49243D01*
X69307Y-50149D01*
X69306Y-49636D01*
X69301Y-49611D01*
X69291Y-49587D01*
X69277Y-49565D01*
X69258Y-49546D01*
X69237Y-49532D01*
X69213Y-49521D01*
X69187Y-49516D01*
X69161Y-49516D01*
X68451Y-49516D01*
X68425Y-49521D01*
X68401Y-49531D01*
X68379Y-49546D01*
X68361Y-49564D01*
X68353Y-49575D01*
X68140Y-49575D01*
X68127Y-49551D01*
X68109Y-49516D01*
X68108Y-49514D01*
X68107Y-49512D01*
X68082Y-49482D01*
X68057Y-49451D01*
X68054Y-49447D01*
X68054Y-49447D01*
X68054Y-49447D01*
X68053Y-49446D01*
X67622Y-49015D01*
X67591Y-48990D01*
X67561Y-48965D01*
X67559Y-48964D01*
X67557Y-48962D01*
X67522Y-48944D01*
X67487Y-48924D01*
X67485Y-48924D01*
X67483Y-48923D01*
X67445Y-48911D01*
X67408Y-48899D01*
X67405Y-48899D01*
X67403Y-48898D01*
X67364Y-48894D01*
X67324Y-48890D01*
X67320Y-48890D01*
X67320Y-48890D01*
X67320Y-48890D01*
X67319Y-48890D01*
X66500Y-48890D01*
X65000Y-48890D01*
X64500Y-48890D01*
X64500Y-45075D01*
X64500Y-44750D01*
X64500Y-44250D01*
X64500Y-43924D01*
X64474Y-43899D01*
X64240Y-43899D01*
X64220Y-43903D01*
X64202Y-43910D01*
X64186Y-43921D01*
X64172Y-43935D01*
X64161Y-43952D01*
X64153Y-43970D01*
X64149Y-43989D01*
X64149Y-44009D01*
X64149Y-44224D01*
X64174Y-44250D01*
X64500Y-44250D01*
X64500Y-44750D01*
X64174Y-44750D01*
X64149Y-44775D01*
X64149Y-44990D01*
X64149Y-45010D01*
X64153Y-45029D01*
X64161Y-45047D01*
X64172Y-45064D01*
X64186Y-45078D01*
X64202Y-45089D01*
X64220Y-45096D01*
X64240Y-45100D01*
X64474Y-45100D01*
X64500Y-45075D01*
X64500Y-48890D01*
X64496Y-48890D01*
X64484Y-48877D01*
X64453Y-48852D01*
X64423Y-48827D01*
X64421Y-48826D01*
X64419Y-48824D01*
X64384Y-48806D01*
X64349Y-48786D01*
X64347Y-48786D01*
X64345Y-48785D01*
X64307Y-48773D01*
X64270Y-48761D01*
X64267Y-48761D01*
X64265Y-48760D01*
X64226Y-48756D01*
X64186Y-48752D01*
X64182Y-48752D01*
X64182Y-48752D01*
X64182Y-48752D01*
X64181Y-48752D01*
X63474Y-48752D01*
X63474Y-47200D01*
X63473Y-46412D01*
X63468Y-46386D01*
X63458Y-46362D01*
X63444Y-46340D01*
X63425Y-46322D01*
X63404Y-46307D01*
X63380Y-46297D01*
X63375Y-46296D01*
X63375Y-44605D01*
X63381Y-44579D01*
X63383Y-44437D01*
X63359Y-44316D01*
X63312Y-44201D01*
X63243Y-44097D01*
X63155Y-44009D01*
X63052Y-43940D01*
X62938Y-43891D01*
X62816Y-43866D01*
X62692Y-43866D01*
X62570Y-43889D01*
X62455Y-43935D01*
X62351Y-44003D01*
X62262Y-44090D01*
X62192Y-44193D01*
X62143Y-44307D01*
X62117Y-44429D01*
X62115Y-44553D01*
X62124Y-44600D01*
X62124Y-46296D01*
X62120Y-46297D01*
X62096Y-46307D01*
X62074Y-46321D01*
X62056Y-46340D01*
X62041Y-46361D01*
X62031Y-46385D01*
X62026Y-46411D01*
X62025Y-46437D01*
X62026Y-47225D01*
X62031Y-47251D01*
X62041Y-47275D01*
X62055Y-47297D01*
X62074Y-47315D01*
X62095Y-47330D01*
X62119Y-47340D01*
X62145Y-47345D01*
X62171Y-47346D01*
X62415Y-47346D01*
X62507Y-47395D01*
X62624Y-47431D01*
X62745Y-47444D01*
X62867Y-47433D01*
X62984Y-47399D01*
X63085Y-47345D01*
X63353Y-47345D01*
X63379Y-47340D01*
X63403Y-47330D01*
X63425Y-47316D01*
X63443Y-47297D01*
X63458Y-47276D01*
X63468Y-47252D01*
X63473Y-47226D01*
X63474Y-47200D01*
X63474Y-48752D01*
X63469Y-48752D01*
X63468Y-48748D01*
X63458Y-48724D01*
X63444Y-48702D01*
X63425Y-48684D01*
X63404Y-48669D01*
X63380Y-48659D01*
X63354Y-48654D01*
X63328Y-48653D01*
X62146Y-48654D01*
X62120Y-48659D01*
X62096Y-48669D01*
X62074Y-48683D01*
X62056Y-48702D01*
X62041Y-48723D01*
X62031Y-48747D01*
X62026Y-48773D01*
X62025Y-48799D01*
X62026Y-49587D01*
X62031Y-49613D01*
X62041Y-49637D01*
X62055Y-49659D01*
X62074Y-49677D01*
X62095Y-49692D01*
X62119Y-49702D01*
X62145Y-49707D01*
X62171Y-49708D01*
X63353Y-49707D01*
X63379Y-49702D01*
X63403Y-49692D01*
X63425Y-49678D01*
X63443Y-49659D01*
X63458Y-49638D01*
X63468Y-49614D01*
X63469Y-49609D01*
X64003Y-49609D01*
X64015Y-49622D01*
X64046Y-49647D01*
X64076Y-49672D01*
X64078Y-49673D01*
X64080Y-49675D01*
X64115Y-49693D01*
X64150Y-49713D01*
X64152Y-49713D01*
X64154Y-49714D01*
X64192Y-49726D01*
X64229Y-49738D01*
X64232Y-49738D01*
X64234Y-49739D01*
X64273Y-49743D01*
X64313Y-49747D01*
X64317Y-49747D01*
X64317Y-49747D01*
X64317Y-49747D01*
X64319Y-49747D01*
X64555Y-49747D01*
X64551Y-49764D01*
X64551Y-49791D01*
X64551Y-50816D01*
X64556Y-50841D01*
X64566Y-50865D01*
X64581Y-50887D01*
X64599Y-50906D01*
X64621Y-50920D01*
X64645Y-50931D01*
X64670Y-50936D01*
X64697Y-50936D01*
X65328Y-50936D01*
X65353Y-50931D01*
X65377Y-50921D01*
X65399Y-50906D01*
X65418Y-50888D01*
X65432Y-50866D01*
X65443Y-50842D01*
X65448Y-50817D01*
X65448Y-50790D01*
X65448Y-49765D01*
X65444Y-49747D01*
X66169Y-49747D01*
X66169Y-49992D01*
X66157Y-50011D01*
X66146Y-50035D01*
X66141Y-50060D01*
X66141Y-50087D01*
X66141Y-50338D01*
X66146Y-50363D01*
X66156Y-50387D01*
X66171Y-50409D01*
X66189Y-50428D01*
X66211Y-50442D01*
X66235Y-50453D01*
X66260Y-50458D01*
X66287Y-50458D01*
X66296Y-50458D01*
X66315Y-50473D01*
X66371Y-50504D01*
X66433Y-50523D01*
X66497Y-50530D01*
X66561Y-50524D01*
X66623Y-50506D01*
X66680Y-50476D01*
X66703Y-50458D01*
X66738Y-50458D01*
X66763Y-50453D01*
X66787Y-50443D01*
X66809Y-50428D01*
X66828Y-50410D01*
X66842Y-50388D01*
X66853Y-50364D01*
X66858Y-50339D01*
X66858Y-50312D01*
X66858Y-50061D01*
X66853Y-50036D01*
X66843Y-50012D01*
X66830Y-49992D01*
X66830Y-49747D01*
X67141Y-49747D01*
X67321Y-49927D01*
X67321Y-51250D01*
X67325Y-51289D01*
X67328Y-51328D01*
X67329Y-51331D01*
X67329Y-51333D01*
X67340Y-51371D01*
X67351Y-51409D01*
X67352Y-51411D01*
X67353Y-51413D01*
X67372Y-51448D01*
X67390Y-51483D01*
X67391Y-51485D01*
X67392Y-51487D01*
X67417Y-51517D01*
X67442Y-51548D01*
X67445Y-51552D01*
X67445Y-51552D01*
X67445Y-51552D01*
X67446Y-51553D01*
X67946Y-52053D01*
X67977Y-52078D01*
X68007Y-52103D01*
X68009Y-52104D01*
X68011Y-52106D01*
X68046Y-52124D01*
X68081Y-52144D01*
X68083Y-52144D01*
X68085Y-52145D01*
X68123Y-52157D01*
X68160Y-52169D01*
X68163Y-52169D01*
X68165Y-52170D01*
X68204Y-52174D01*
X68244Y-52178D01*
X68248Y-52178D01*
X68248Y-52178D01*
X68248Y-52178D01*
X68250Y-52178D01*
X70975Y-52178D01*
X71054Y-52301D01*
X71174Y-52426D01*
X71316Y-52524D01*
X71475Y-52594D01*
X71644Y-52631D01*
X71818Y-52635D01*
X71988Y-52605D01*
X72150Y-52542D01*
X72296Y-52449D01*
X72422Y-52330D01*
X72521Y-52188D01*
X72592Y-52030D01*
X72630Y-51861D01*
X72633Y-51663D01*
X72633Y-53663D01*
X72599Y-53493D01*
X72533Y-53333D01*
X72437Y-53188D01*
X72315Y-53065D01*
X72172Y-52969D01*
X72012Y-52901D01*
X71842Y-52867D01*
X71669Y-52865D01*
X71499Y-52898D01*
X71338Y-52963D01*
X71193Y-53058D01*
X71069Y-53179D01*
X70972Y-53322D01*
X70971Y-53324D01*
X70960Y-53325D01*
X70921Y-53328D01*
X70918Y-53329D01*
X70916Y-53329D01*
X70878Y-53340D01*
X70840Y-53351D01*
X70838Y-53352D01*
X70836Y-53353D01*
X70801Y-53372D01*
X70766Y-53390D01*
X70764Y-53391D01*
X70762Y-53392D01*
X70732Y-53417D01*
X70701Y-53442D01*
X70697Y-53445D01*
X70697Y-53445D01*
X70697Y-53445D01*
X70696Y-53446D01*
X69822Y-54321D01*
X69400Y-54321D01*
X69316Y-54329D01*
X69236Y-54353D01*
X69162Y-54392D01*
X69097Y-54445D01*
X69044Y-54510D01*
X69004Y-54583D01*
X68980Y-54663D01*
X68971Y-54747D01*
X68978Y-54830D01*
X69002Y-54910D01*
X69041Y-54984D01*
X69093Y-55049D01*
X69157Y-55103D01*
X69231Y-55144D01*
X69310Y-55169D01*
X69394Y-55178D01*
X69400Y-55178D01*
X70000Y-55178D01*
X70039Y-55174D01*
X70078Y-55171D01*
X70081Y-55170D01*
X70083Y-55170D01*
X70121Y-55159D01*
X70159Y-55148D01*
X70161Y-55147D01*
X70163Y-55146D01*
X70198Y-55127D01*
X70233Y-55109D01*
X70235Y-55108D01*
X70237Y-55107D01*
X70267Y-55082D01*
X70298Y-55057D01*
X70302Y-55054D01*
X70302Y-55054D01*
X70302Y-55054D01*
X70303Y-55053D01*
X71054Y-54301D01*
X71174Y-54426D01*
X71316Y-54524D01*
X71475Y-54594D01*
X71644Y-54631D01*
X71818Y-54635D01*
X71988Y-54605D01*
X72150Y-54542D01*
X72296Y-54449D01*
X72422Y-54330D01*
X72521Y-54188D01*
X72592Y-54030D01*
X72630Y-53861D01*
X72633Y-53663D01*
X72633Y-55663D01*
X72599Y-55493D01*
X72533Y-55333D01*
X72437Y-55188D01*
X72315Y-55065D01*
X72172Y-54969D01*
X72012Y-54901D01*
X71842Y-54867D01*
X71669Y-54865D01*
X71499Y-54898D01*
X71338Y-54963D01*
X71193Y-55058D01*
X71069Y-55179D01*
X70972Y-55321D01*
X70500Y-55321D01*
X70460Y-55325D01*
X70421Y-55328D01*
X70418Y-55329D01*
X70416Y-55329D01*
X70378Y-55340D01*
X70340Y-55351D01*
X70338Y-55352D01*
X70336Y-55353D01*
X70301Y-55372D01*
X70266Y-55390D01*
X70264Y-55391D01*
X70262Y-55392D01*
X70232Y-55417D01*
X70201Y-55442D01*
X70197Y-55445D01*
X70197Y-55445D01*
X70197Y-55445D01*
X70196Y-55446D01*
X69822Y-55821D01*
X69400Y-55821D01*
X69316Y-55829D01*
X69236Y-55853D01*
X69162Y-55892D01*
X69097Y-55945D01*
X69044Y-56010D01*
X69004Y-56083D01*
X68980Y-56163D01*
X68971Y-56247D01*
X68978Y-56330D01*
X69002Y-56410D01*
X69041Y-56484D01*
X69093Y-56549D01*
X69157Y-56603D01*
X69231Y-56644D01*
X69310Y-56669D01*
X69394Y-56678D01*
X69400Y-56678D01*
X70000Y-56678D01*
X70039Y-56674D01*
X70078Y-56671D01*
X70081Y-56670D01*
X70083Y-56670D01*
X70121Y-56659D01*
X70159Y-56648D01*
X70161Y-56647D01*
X70163Y-56646D01*
X70198Y-56627D01*
X70233Y-56609D01*
X70235Y-56608D01*
X70237Y-56607D01*
X70267Y-56582D01*
X70298Y-56557D01*
X70302Y-56554D01*
X70302Y-56554D01*
X70302Y-56554D01*
X70303Y-56553D01*
X70677Y-56178D01*
X70975Y-56178D01*
X71054Y-56301D01*
X71174Y-56426D01*
X71316Y-56524D01*
X71475Y-56594D01*
X71644Y-56631D01*
X71818Y-56635D01*
X71988Y-56605D01*
X72150Y-56542D01*
X72296Y-56449D01*
X72422Y-56330D01*
X72521Y-56188D01*
X72592Y-56030D01*
X72630Y-55861D01*
X72633Y-55663D01*
X72633Y-57529D01*
X72633Y-56986D01*
X72628Y-56961D01*
X72618Y-56937D01*
X72603Y-56915D01*
X72585Y-56896D01*
X72563Y-56882D01*
X72539Y-56871D01*
X72514Y-56866D01*
X72487Y-56866D01*
X70986Y-56866D01*
X70961Y-56871D01*
X70937Y-56881D01*
X70915Y-56896D01*
X70896Y-56914D01*
X70882Y-56936D01*
X70871Y-56960D01*
X70866Y-56985D01*
X70866Y-57012D01*
X70866Y-57321D01*
X69400Y-57321D01*
X69316Y-57329D01*
X69236Y-57353D01*
X69162Y-57392D01*
X69097Y-57445D01*
X69044Y-57510D01*
X69004Y-57583D01*
X68980Y-57663D01*
X68971Y-57747D01*
X68978Y-57830D01*
X69002Y-57910D01*
X69041Y-57984D01*
X69093Y-58049D01*
X69157Y-58103D01*
X69231Y-58144D01*
X69310Y-58169D01*
X69394Y-58178D01*
X69400Y-58178D01*
X70866Y-58178D01*
X70866Y-58513D01*
X70871Y-58538D01*
X70881Y-58562D01*
X70896Y-58584D01*
X70914Y-58603D01*
X70936Y-58617D01*
X70960Y-58628D01*
X70985Y-58633D01*
X71012Y-58633D01*
X72513Y-58633D01*
X72538Y-58628D01*
X72562Y-58618D01*
X72584Y-58603D01*
X72603Y-58585D01*
X72617Y-58563D01*
X72628Y-58539D01*
X72633Y-58514D01*
X72633Y-58487D01*
X72633Y-60805D01*
X72633Y-60803D01*
X72572Y-60687D01*
X72259Y-61000D01*
X72572Y-61312D01*
X72633Y-61196D01*
X72654Y-61021D01*
X72654Y-62033D01*
X72521Y-62143D01*
X72284Y-62271D01*
X72062Y-62340D01*
X72062Y-61822D01*
X72062Y-60177D01*
X71946Y-60116D01*
X71771Y-60095D01*
X71595Y-60108D01*
X71553Y-60116D01*
X71437Y-60177D01*
X71750Y-60490D01*
X72062Y-60177D01*
X72062Y-61822D01*
X71750Y-61509D01*
X71437Y-61822D01*
X71553Y-61883D01*
X71728Y-61904D01*
X71904Y-61891D01*
X71946Y-61883D01*
X72062Y-61822D01*
X72062Y-62340D01*
X72027Y-62351D01*
X71753Y-62379D01*
X71749Y-62379D01*
X71240Y-62379D01*
X71240Y-61000D01*
X70927Y-60687D01*
X70866Y-60803D01*
X70845Y-60978D01*
X70858Y-61154D01*
X70866Y-61196D01*
X70927Y-61312D01*
X71240Y-61000D01*
X71240Y-62379D01*
X70126Y-62379D01*
X70126Y-61022D01*
X70123Y-60948D01*
X70114Y-60904D01*
X70076Y-60868D01*
X69944Y-61000D01*
X70076Y-61131D01*
X70114Y-61095D01*
X70126Y-61022D01*
X70126Y-62379D01*
X69881Y-62379D01*
X69881Y-61326D01*
X69881Y-60673D01*
X69845Y-60635D01*
X69772Y-60623D01*
X69698Y-60626D01*
X69654Y-60635D01*
X69618Y-60673D01*
X69750Y-60805D01*
X69881Y-60673D01*
X69881Y-61326D01*
X69750Y-61194D01*
X69618Y-61326D01*
X69654Y-61364D01*
X69727Y-61376D01*
X69801Y-61373D01*
X69845Y-61364D01*
X69881Y-61326D01*
X69881Y-62379D01*
X69555Y-62379D01*
X69555Y-61000D01*
X69423Y-60868D01*
X69385Y-60904D01*
X69373Y-60977D01*
X69376Y-61051D01*
X69385Y-61095D01*
X69423Y-61131D01*
X69555Y-61000D01*
X69555Y-62379D01*
X69158Y-62379D01*
X69158Y-60959D01*
X69142Y-60881D01*
X69112Y-60807D01*
X69068Y-60740D01*
X69011Y-60683D01*
X68981Y-60663D01*
X68981Y-59500D01*
X68979Y-59478D01*
X68977Y-59457D01*
X68977Y-59456D01*
X68977Y-59454D01*
X68971Y-59434D01*
X68965Y-59413D01*
X68964Y-59412D01*
X68964Y-59411D01*
X68954Y-59392D01*
X68944Y-59373D01*
X68943Y-59372D01*
X68943Y-59371D01*
X68929Y-59355D01*
X68916Y-59338D01*
X68914Y-59336D01*
X68914Y-59336D01*
X68914Y-59336D01*
X68913Y-59336D01*
X68913Y-59335D01*
X68913Y-57567D01*
X68913Y-56067D01*
X68913Y-54567D01*
X68913Y-54206D01*
X68908Y-54181D01*
X68898Y-54157D01*
X68883Y-54135D01*
X68865Y-54116D01*
X68843Y-54102D01*
X68819Y-54091D01*
X68794Y-54086D01*
X68767Y-54086D01*
X68406Y-54086D01*
X68381Y-54091D01*
X68357Y-54101D01*
X68335Y-54116D01*
X68316Y-54134D01*
X68302Y-54156D01*
X68297Y-54168D01*
X68100Y-54168D01*
X68078Y-54170D01*
X68057Y-54172D01*
X68056Y-54172D01*
X68054Y-54172D01*
X68034Y-54178D01*
X68013Y-54184D01*
X68012Y-54185D01*
X68011Y-54185D01*
X68000Y-54191D01*
X67971Y-54191D01*
X67912Y-54202D01*
X67856Y-54225D01*
X67805Y-54258D01*
X67762Y-54300D01*
X67728Y-54350D01*
X67704Y-54406D01*
X67691Y-54465D01*
X67691Y-54525D01*
X67702Y-54585D01*
X67724Y-54641D01*
X67757Y-54692D01*
X67799Y-54736D01*
X67848Y-54770D01*
X67904Y-54794D01*
X67963Y-54807D01*
X68023Y-54809D01*
X68083Y-54798D01*
X68139Y-54776D01*
X68190Y-54744D01*
X68234Y-54702D01*
X68269Y-54653D01*
X68278Y-54631D01*
X68297Y-54631D01*
X68301Y-54642D01*
X68316Y-54664D01*
X68334Y-54683D01*
X68356Y-54697D01*
X68380Y-54708D01*
X68405Y-54713D01*
X68432Y-54713D01*
X68793Y-54713D01*
X68818Y-54708D01*
X68842Y-54698D01*
X68864Y-54683D01*
X68883Y-54665D01*
X68897Y-54643D01*
X68908Y-54619D01*
X68913Y-54594D01*
X68913Y-54567D01*
X68913Y-56067D01*
X68913Y-55706D01*
X68908Y-55681D01*
X68898Y-55657D01*
X68883Y-55635D01*
X68880Y-55631D01*
X68880Y-55289D01*
X68880Y-54910D01*
X68876Y-54890D01*
X68869Y-54872D01*
X68858Y-54856D01*
X68844Y-54842D01*
X68827Y-54831D01*
X68809Y-54823D01*
X68790Y-54819D01*
X68770Y-54819D01*
X68715Y-54819D01*
X68690Y-54844D01*
X68690Y-55010D01*
X68855Y-55010D01*
X68880Y-54984D01*
X68880Y-54910D01*
X68880Y-55289D01*
X68880Y-55215D01*
X68855Y-55190D01*
X68690Y-55190D01*
X68690Y-55355D01*
X68715Y-55380D01*
X68770Y-55380D01*
X68790Y-55380D01*
X68809Y-55376D01*
X68827Y-55368D01*
X68844Y-55357D01*
X68858Y-55343D01*
X68869Y-55327D01*
X68876Y-55309D01*
X68880Y-55289D01*
X68880Y-55631D01*
X68865Y-55616D01*
X68843Y-55602D01*
X68819Y-55591D01*
X68794Y-55586D01*
X68767Y-55586D01*
X68510Y-55586D01*
X68510Y-55355D01*
X68510Y-55190D01*
X68510Y-55010D01*
X68510Y-54844D01*
X68484Y-54819D01*
X68429Y-54819D01*
X68409Y-54819D01*
X68390Y-54823D01*
X68372Y-54831D01*
X68355Y-54842D01*
X68341Y-54856D01*
X68330Y-54872D01*
X68323Y-54890D01*
X68319Y-54910D01*
X68319Y-54984D01*
X68344Y-55010D01*
X68510Y-55010D01*
X68510Y-55190D01*
X68344Y-55190D01*
X68319Y-55215D01*
X68319Y-55289D01*
X68323Y-55309D01*
X68330Y-55327D01*
X68341Y-55343D01*
X68355Y-55357D01*
X68372Y-55368D01*
X68390Y-55376D01*
X68409Y-55380D01*
X68429Y-55380D01*
X68484Y-55380D01*
X68510Y-55355D01*
X68510Y-55586D01*
X68406Y-55586D01*
X68381Y-55591D01*
X68357Y-55601D01*
X68335Y-55616D01*
X68316Y-55634D01*
X68302Y-55656D01*
X68297Y-55666D01*
X68296Y-55660D01*
X68273Y-55604D01*
X68240Y-55554D01*
X68197Y-55511D01*
X68147Y-55477D01*
X68091Y-55453D01*
X68032Y-55441D01*
X67971Y-55441D01*
X67912Y-55452D01*
X67856Y-55475D01*
X67805Y-55508D01*
X67762Y-55550D01*
X67728Y-55600D01*
X67704Y-55656D01*
X67691Y-55715D01*
X67691Y-55775D01*
X67702Y-55835D01*
X67724Y-55891D01*
X67757Y-55942D01*
X67799Y-55986D01*
X67848Y-56020D01*
X67904Y-56044D01*
X67963Y-56057D01*
X67980Y-56058D01*
X67986Y-56063D01*
X68002Y-56077D01*
X68018Y-56091D01*
X68020Y-56091D01*
X68021Y-56092D01*
X68039Y-56102D01*
X68058Y-56113D01*
X68059Y-56113D01*
X68060Y-56114D01*
X68081Y-56120D01*
X68101Y-56126D01*
X68102Y-56126D01*
X68104Y-56127D01*
X68125Y-56129D01*
X68146Y-56131D01*
X68149Y-56131D01*
X68149Y-56131D01*
X68149Y-56131D01*
X68150Y-56131D01*
X68297Y-56131D01*
X68301Y-56142D01*
X68316Y-56164D01*
X68334Y-56183D01*
X68356Y-56197D01*
X68380Y-56208D01*
X68405Y-56213D01*
X68432Y-56213D01*
X68793Y-56213D01*
X68818Y-56208D01*
X68842Y-56198D01*
X68864Y-56183D01*
X68883Y-56165D01*
X68897Y-56143D01*
X68908Y-56119D01*
X68913Y-56094D01*
X68913Y-56067D01*
X68913Y-57567D01*
X68913Y-57206D01*
X68908Y-57181D01*
X68898Y-57157D01*
X68883Y-57135D01*
X68880Y-57131D01*
X68880Y-56789D01*
X68880Y-56410D01*
X68876Y-56390D01*
X68869Y-56372D01*
X68858Y-56356D01*
X68844Y-56342D01*
X68827Y-56331D01*
X68809Y-56323D01*
X68790Y-56319D01*
X68770Y-56319D01*
X68715Y-56319D01*
X68690Y-56344D01*
X68690Y-56510D01*
X68855Y-56510D01*
X68880Y-56484D01*
X68880Y-56410D01*
X68880Y-56789D01*
X68880Y-56715D01*
X68855Y-56690D01*
X68690Y-56690D01*
X68690Y-56855D01*
X68715Y-56880D01*
X68770Y-56880D01*
X68790Y-56880D01*
X68809Y-56876D01*
X68827Y-56868D01*
X68844Y-56857D01*
X68858Y-56843D01*
X68869Y-56827D01*
X68876Y-56809D01*
X68880Y-56789D01*
X68880Y-57131D01*
X68865Y-57116D01*
X68843Y-57102D01*
X68819Y-57091D01*
X68794Y-57086D01*
X68767Y-57086D01*
X68510Y-57086D01*
X68510Y-56855D01*
X68510Y-56690D01*
X68510Y-56510D01*
X68510Y-56344D01*
X68484Y-56319D01*
X68429Y-56319D01*
X68409Y-56319D01*
X68390Y-56323D01*
X68372Y-56331D01*
X68355Y-56342D01*
X68341Y-56356D01*
X68330Y-56372D01*
X68323Y-56390D01*
X68319Y-56410D01*
X68319Y-56484D01*
X68344Y-56510D01*
X68510Y-56510D01*
X68510Y-56690D01*
X68344Y-56690D01*
X68319Y-56715D01*
X68319Y-56789D01*
X68323Y-56809D01*
X68330Y-56827D01*
X68341Y-56843D01*
X68355Y-56857D01*
X68372Y-56868D01*
X68390Y-56876D01*
X68409Y-56880D01*
X68429Y-56880D01*
X68484Y-56880D01*
X68510Y-56855D01*
X68510Y-57086D01*
X68406Y-57086D01*
X68381Y-57091D01*
X68357Y-57101D01*
X68335Y-57116D01*
X68316Y-57134D01*
X68302Y-57156D01*
X68297Y-57168D01*
X68100Y-57168D01*
X68078Y-57170D01*
X68057Y-57172D01*
X68056Y-57172D01*
X68054Y-57172D01*
X68034Y-57178D01*
X68013Y-57184D01*
X68012Y-57185D01*
X68011Y-57185D01*
X68000Y-57191D01*
X67971Y-57191D01*
X67912Y-57202D01*
X67856Y-57225D01*
X67805Y-57258D01*
X67762Y-57300D01*
X67728Y-57350D01*
X67704Y-57406D01*
X67691Y-57465D01*
X67691Y-57525D01*
X67702Y-57585D01*
X67724Y-57641D01*
X67757Y-57692D01*
X67799Y-57736D01*
X67848Y-57770D01*
X67904Y-57794D01*
X67963Y-57807D01*
X68023Y-57809D01*
X68083Y-57798D01*
X68139Y-57776D01*
X68190Y-57744D01*
X68234Y-57702D01*
X68269Y-57653D01*
X68278Y-57631D01*
X68297Y-57631D01*
X68301Y-57642D01*
X68316Y-57664D01*
X68334Y-57683D01*
X68356Y-57697D01*
X68380Y-57708D01*
X68405Y-57713D01*
X68432Y-57713D01*
X68793Y-57713D01*
X68818Y-57708D01*
X68842Y-57698D01*
X68864Y-57683D01*
X68883Y-57665D01*
X68897Y-57643D01*
X68908Y-57619D01*
X68913Y-57594D01*
X68913Y-57567D01*
X68913Y-59335D01*
X68880Y-59302D01*
X68880Y-58289D01*
X68880Y-57910D01*
X68876Y-57890D01*
X68869Y-57872D01*
X68858Y-57856D01*
X68844Y-57842D01*
X68827Y-57831D01*
X68809Y-57823D01*
X68790Y-57819D01*
X68770Y-57819D01*
X68715Y-57819D01*
X68690Y-57844D01*
X68690Y-58010D01*
X68855Y-58010D01*
X68880Y-57984D01*
X68880Y-57910D01*
X68880Y-58289D01*
X68880Y-58215D01*
X68855Y-58190D01*
X68690Y-58190D01*
X68690Y-58355D01*
X68715Y-58380D01*
X68770Y-58380D01*
X68790Y-58380D01*
X68809Y-58376D01*
X68827Y-58368D01*
X68844Y-58357D01*
X68858Y-58343D01*
X68869Y-58327D01*
X68876Y-58309D01*
X68880Y-58289D01*
X68880Y-59302D01*
X68663Y-59086D01*
X68647Y-59072D01*
X68631Y-59058D01*
X68629Y-59058D01*
X68628Y-59057D01*
X68610Y-59047D01*
X68591Y-59036D01*
X68590Y-59036D01*
X68589Y-59035D01*
X68568Y-59029D01*
X68548Y-59023D01*
X68547Y-59023D01*
X68545Y-59022D01*
X68524Y-59020D01*
X68510Y-59018D01*
X68510Y-58355D01*
X68510Y-58190D01*
X68510Y-58010D01*
X68510Y-57844D01*
X68484Y-57819D01*
X68429Y-57819D01*
X68409Y-57819D01*
X68390Y-57823D01*
X68372Y-57831D01*
X68355Y-57842D01*
X68341Y-57856D01*
X68330Y-57872D01*
X68323Y-57890D01*
X68319Y-57910D01*
X68319Y-57984D01*
X68344Y-58010D01*
X68510Y-58010D01*
X68510Y-58190D01*
X68344Y-58190D01*
X68319Y-58215D01*
X68319Y-58289D01*
X68323Y-58309D01*
X68330Y-58327D01*
X68341Y-58343D01*
X68355Y-58357D01*
X68372Y-58368D01*
X68390Y-58376D01*
X68409Y-58380D01*
X68429Y-58380D01*
X68484Y-58380D01*
X68510Y-58355D01*
X68510Y-59018D01*
X68503Y-59018D01*
X68500Y-59018D01*
X68500Y-59018D01*
X68500Y-59018D01*
X68500Y-59018D01*
X66825Y-59018D01*
X66825Y-50934D01*
X66825Y-50665D01*
X66821Y-50645D01*
X66814Y-50627D01*
X66803Y-50611D01*
X66789Y-50597D01*
X66772Y-50586D01*
X66754Y-50578D01*
X66735Y-50574D01*
X66715Y-50574D01*
X66637Y-50574D01*
X66612Y-50599D01*
X66612Y-50737D01*
X66800Y-50737D01*
X66825Y-50712D01*
X66825Y-50665D01*
X66825Y-50934D01*
X66825Y-50887D01*
X66800Y-50862D01*
X66612Y-50862D01*
X66612Y-51000D01*
X66637Y-51025D01*
X66715Y-51025D01*
X66735Y-51025D01*
X66754Y-51021D01*
X66772Y-51013D01*
X66789Y-51002D01*
X66803Y-50988D01*
X66814Y-50972D01*
X66821Y-50954D01*
X66825Y-50934D01*
X66825Y-59018D01*
X66808Y-59018D01*
X66808Y-57469D01*
X66796Y-57410D01*
X66773Y-57354D01*
X66740Y-57304D01*
X66731Y-57295D01*
X66731Y-56746D01*
X66733Y-56739D01*
X66733Y-56712D01*
X66733Y-56261D01*
X66728Y-56236D01*
X66718Y-56212D01*
X66703Y-56190D01*
X66685Y-56171D01*
X66663Y-56157D01*
X66639Y-56146D01*
X66614Y-56141D01*
X66587Y-56141D01*
X66387Y-56141D01*
X66387Y-51000D01*
X66387Y-50862D01*
X66387Y-50737D01*
X66387Y-50599D01*
X66362Y-50574D01*
X66284Y-50574D01*
X66264Y-50574D01*
X66245Y-50578D01*
X66227Y-50586D01*
X66210Y-50597D01*
X66196Y-50611D01*
X66185Y-50627D01*
X66178Y-50645D01*
X66174Y-50665D01*
X66174Y-50712D01*
X66199Y-50737D01*
X66387Y-50737D01*
X66387Y-50862D01*
X66199Y-50862D01*
X66174Y-50887D01*
X66174Y-50934D01*
X66178Y-50954D01*
X66185Y-50972D01*
X66196Y-50988D01*
X66210Y-51002D01*
X66227Y-51013D01*
X66245Y-51021D01*
X66264Y-51025D01*
X66284Y-51025D01*
X66362Y-51025D01*
X66387Y-51000D01*
X66387Y-56141D01*
X66386Y-56141D01*
X66361Y-56146D01*
X66337Y-56156D01*
X66315Y-56171D01*
X66308Y-56177D01*
X66308Y-55719D01*
X66296Y-55660D01*
X66273Y-55604D01*
X66240Y-55554D01*
X66197Y-55511D01*
X66147Y-55477D01*
X66091Y-55453D01*
X66032Y-55441D01*
X65971Y-55441D01*
X65912Y-55452D01*
X65856Y-55475D01*
X65805Y-55508D01*
X65762Y-55550D01*
X65731Y-55595D01*
X65731Y-54705D01*
X65734Y-54702D01*
X65769Y-54653D01*
X65794Y-54597D01*
X65807Y-54538D01*
X65808Y-54469D01*
X65796Y-54410D01*
X65773Y-54354D01*
X65740Y-54304D01*
X65697Y-54261D01*
X65647Y-54227D01*
X65591Y-54203D01*
X65532Y-54191D01*
X65471Y-54191D01*
X65415Y-54202D01*
X65415Y-52230D01*
X65415Y-51187D01*
X65411Y-51167D01*
X65404Y-51149D01*
X65393Y-51133D01*
X65379Y-51119D01*
X65362Y-51108D01*
X65344Y-51100D01*
X65325Y-51096D01*
X65305Y-51096D01*
X65182Y-51096D01*
X65157Y-51121D01*
X65157Y-51453D01*
X65390Y-51453D01*
X65415Y-51427D01*
X65415Y-51187D01*
X65415Y-52230D01*
X65415Y-51990D01*
X65390Y-51965D01*
X65157Y-51965D01*
X65157Y-52296D01*
X65182Y-52321D01*
X65305Y-52321D01*
X65325Y-52321D01*
X65344Y-52317D01*
X65362Y-52309D01*
X65379Y-52298D01*
X65393Y-52284D01*
X65404Y-52268D01*
X65411Y-52250D01*
X65415Y-52230D01*
X65415Y-54202D01*
X65412Y-54202D01*
X65356Y-54225D01*
X65305Y-54258D01*
X65262Y-54300D01*
X65228Y-54350D01*
X65204Y-54406D01*
X65191Y-54465D01*
X65191Y-54525D01*
X65202Y-54585D01*
X65224Y-54641D01*
X65257Y-54692D01*
X65268Y-54703D01*
X65268Y-56253D01*
X65266Y-56260D01*
X65266Y-56287D01*
X65266Y-56655D01*
X65233Y-56688D01*
X65233Y-56261D01*
X65228Y-56236D01*
X65218Y-56212D01*
X65203Y-56190D01*
X65185Y-56171D01*
X65163Y-56157D01*
X65139Y-56146D01*
X65114Y-56141D01*
X65087Y-56141D01*
X64886Y-56141D01*
X64861Y-56146D01*
X64842Y-56154D01*
X64842Y-52296D01*
X64842Y-51965D01*
X64842Y-51453D01*
X64842Y-51121D01*
X64817Y-51096D01*
X64694Y-51096D01*
X64674Y-51096D01*
X64655Y-51100D01*
X64637Y-51108D01*
X64620Y-51119D01*
X64606Y-51133D01*
X64595Y-51149D01*
X64588Y-51167D01*
X64584Y-51187D01*
X64584Y-51427D01*
X64609Y-51453D01*
X64842Y-51453D01*
X64842Y-51965D01*
X64609Y-51965D01*
X64584Y-51990D01*
X64584Y-52230D01*
X64588Y-52250D01*
X64595Y-52268D01*
X64606Y-52284D01*
X64620Y-52298D01*
X64637Y-52309D01*
X64655Y-52317D01*
X64674Y-52321D01*
X64694Y-52321D01*
X64817Y-52321D01*
X64842Y-52296D01*
X64842Y-56154D01*
X64837Y-56156D01*
X64815Y-56171D01*
X64796Y-56189D01*
X64782Y-56211D01*
X64771Y-56235D01*
X64766Y-56260D01*
X64766Y-56287D01*
X64766Y-56738D01*
X64771Y-56763D01*
X64773Y-56768D01*
X64726Y-56768D01*
X64728Y-56764D01*
X64733Y-56739D01*
X64733Y-56712D01*
X64733Y-56261D01*
X64731Y-56253D01*
X64731Y-55955D01*
X64734Y-55952D01*
X64769Y-55903D01*
X64794Y-55847D01*
X64807Y-55788D01*
X64808Y-55719D01*
X64796Y-55660D01*
X64773Y-55604D01*
X64740Y-55554D01*
X64697Y-55511D01*
X64647Y-55477D01*
X64591Y-55453D01*
X64532Y-55441D01*
X64471Y-55441D01*
X64412Y-55452D01*
X64356Y-55475D01*
X64307Y-55507D01*
X64308Y-55469D01*
X64296Y-55410D01*
X64273Y-55354D01*
X64240Y-55304D01*
X64197Y-55261D01*
X64147Y-55227D01*
X64091Y-55203D01*
X64032Y-55191D01*
X63971Y-55191D01*
X63912Y-55202D01*
X63856Y-55225D01*
X63805Y-55258D01*
X63762Y-55300D01*
X63728Y-55350D01*
X63704Y-55406D01*
X63691Y-55465D01*
X63691Y-55525D01*
X63702Y-55585D01*
X63724Y-55641D01*
X63757Y-55692D01*
X63768Y-55703D01*
X63768Y-56253D01*
X63766Y-56260D01*
X63766Y-56287D01*
X63766Y-56738D01*
X63771Y-56763D01*
X63773Y-56768D01*
X63726Y-56768D01*
X63728Y-56764D01*
X63733Y-56739D01*
X63733Y-56712D01*
X63733Y-56261D01*
X63731Y-56253D01*
X63731Y-56000D01*
X63729Y-55978D01*
X63727Y-55957D01*
X63727Y-55956D01*
X63727Y-55954D01*
X63721Y-55934D01*
X63715Y-55913D01*
X63714Y-55912D01*
X63714Y-55911D01*
X63704Y-55892D01*
X63694Y-55873D01*
X63693Y-55872D01*
X63693Y-55871D01*
X63679Y-55855D01*
X63666Y-55838D01*
X63664Y-55836D01*
X63664Y-55836D01*
X63664Y-55836D01*
X63663Y-55836D01*
X63413Y-55586D01*
X63397Y-55572D01*
X63381Y-55558D01*
X63379Y-55558D01*
X63378Y-55557D01*
X63360Y-55547D01*
X63341Y-55536D01*
X63340Y-55536D01*
X63339Y-55535D01*
X63318Y-55529D01*
X63298Y-55523D01*
X63297Y-55523D01*
X63295Y-55522D01*
X63274Y-55520D01*
X63253Y-55518D01*
X63250Y-55518D01*
X63250Y-55518D01*
X63250Y-55518D01*
X63250Y-55518D01*
X62250Y-55518D01*
X62228Y-55520D01*
X62207Y-55522D01*
X62206Y-55522D01*
X62204Y-55522D01*
X62184Y-55528D01*
X62163Y-55534D01*
X62162Y-55535D01*
X62161Y-55535D01*
X62142Y-55545D01*
X62123Y-55555D01*
X62122Y-55556D01*
X62121Y-55556D01*
X62105Y-55570D01*
X62088Y-55583D01*
X62086Y-55585D01*
X62086Y-55585D01*
X62086Y-55585D01*
X62086Y-55586D01*
X61786Y-55886D01*
X61772Y-55902D01*
X61758Y-55918D01*
X61758Y-55920D01*
X61757Y-55921D01*
X61747Y-55939D01*
X61736Y-55958D01*
X61736Y-55959D01*
X61735Y-55960D01*
X61729Y-55981D01*
X61723Y-56001D01*
X61723Y-56002D01*
X61722Y-56004D01*
X61720Y-56025D01*
X61718Y-56046D01*
X61718Y-56049D01*
X61718Y-56049D01*
X61718Y-56049D01*
X61718Y-56050D01*
X61718Y-56444D01*
X61707Y-56461D01*
X61696Y-56485D01*
X61691Y-56510D01*
X61691Y-56537D01*
X61691Y-56988D01*
X61696Y-57013D01*
X61706Y-57037D01*
X61718Y-57055D01*
X61718Y-57194D01*
X61707Y-57211D01*
X61696Y-57235D01*
X61691Y-57260D01*
X61691Y-57287D01*
X61691Y-57738D01*
X61696Y-57763D01*
X61706Y-57787D01*
X61718Y-57805D01*
X61718Y-57944D01*
X61707Y-57961D01*
X61696Y-57985D01*
X61691Y-58010D01*
X61691Y-58037D01*
X61691Y-58488D01*
X61696Y-58513D01*
X61706Y-58537D01*
X61718Y-58555D01*
X61718Y-58700D01*
X61720Y-58721D01*
X61722Y-58742D01*
X61722Y-58743D01*
X61722Y-58745D01*
X61728Y-58765D01*
X61734Y-58786D01*
X61735Y-58787D01*
X61735Y-58788D01*
X61745Y-58807D01*
X61755Y-58826D01*
X61756Y-58827D01*
X61756Y-58828D01*
X61770Y-58844D01*
X61783Y-58861D01*
X61785Y-58863D01*
X61785Y-58863D01*
X61785Y-58863D01*
X61786Y-58863D01*
X61941Y-59019D01*
X61941Y-59025D01*
X61952Y-59085D01*
X61974Y-59141D01*
X62007Y-59192D01*
X62049Y-59236D01*
X62098Y-59270D01*
X62154Y-59294D01*
X62213Y-59307D01*
X62273Y-59309D01*
X62333Y-59298D01*
X62389Y-59276D01*
X62440Y-59244D01*
X62484Y-59202D01*
X62519Y-59153D01*
X62544Y-59097D01*
X62557Y-59038D01*
X62558Y-58969D01*
X62546Y-58910D01*
X62523Y-58854D01*
X62490Y-58804D01*
X62447Y-58761D01*
X62397Y-58727D01*
X62341Y-58703D01*
X62282Y-58691D01*
X62269Y-58691D01*
X62181Y-58603D01*
X62181Y-58555D01*
X62192Y-58538D01*
X62203Y-58514D01*
X62208Y-58489D01*
X62208Y-58462D01*
X62208Y-58011D01*
X62203Y-57986D01*
X62193Y-57962D01*
X62181Y-57944D01*
X62181Y-57805D01*
X62192Y-57788D01*
X62203Y-57764D01*
X62208Y-57739D01*
X62208Y-57712D01*
X62208Y-57261D01*
X62203Y-57236D01*
X62193Y-57212D01*
X62181Y-57194D01*
X62181Y-57055D01*
X62192Y-57038D01*
X62203Y-57014D01*
X62208Y-56989D01*
X62208Y-56962D01*
X62208Y-56511D01*
X62203Y-56486D01*
X62193Y-56462D01*
X62181Y-56444D01*
X62181Y-56146D01*
X62346Y-55981D01*
X63153Y-55981D01*
X63268Y-56096D01*
X63268Y-56253D01*
X63266Y-56260D01*
X63266Y-56287D01*
X63266Y-56688D01*
X63163Y-56586D01*
X63147Y-56572D01*
X63131Y-56558D01*
X63129Y-56558D01*
X63128Y-56557D01*
X63110Y-56547D01*
X63091Y-56536D01*
X63090Y-56536D01*
X63089Y-56535D01*
X63068Y-56529D01*
X63048Y-56523D01*
X63047Y-56523D01*
X63045Y-56522D01*
X63024Y-56520D01*
X63003Y-56518D01*
X63000Y-56518D01*
X63000Y-56518D01*
X63000Y-56518D01*
X63000Y-56518D01*
X62808Y-56518D01*
X62808Y-56511D01*
X62803Y-56486D01*
X62793Y-56462D01*
X62778Y-56440D01*
X62760Y-56421D01*
X62738Y-56407D01*
X62714Y-56396D01*
X62689Y-56391D01*
X62662Y-56391D01*
X62411Y-56391D01*
X62386Y-56396D01*
X62362Y-56406D01*
X62340Y-56421D01*
X62321Y-56439D01*
X62307Y-56461D01*
X62296Y-56485D01*
X62291Y-56510D01*
X62291Y-56537D01*
X62291Y-56988D01*
X62296Y-57013D01*
X62306Y-57037D01*
X62321Y-57059D01*
X62339Y-57078D01*
X62361Y-57092D01*
X62385Y-57103D01*
X62410Y-57108D01*
X62437Y-57108D01*
X62688Y-57108D01*
X62713Y-57103D01*
X62737Y-57093D01*
X62759Y-57078D01*
X62778Y-57060D01*
X62792Y-57038D01*
X62803Y-57014D01*
X62808Y-56989D01*
X62808Y-56981D01*
X62903Y-56981D01*
X63086Y-57163D01*
X63102Y-57177D01*
X63118Y-57191D01*
X63120Y-57191D01*
X63121Y-57192D01*
X63139Y-57202D01*
X63158Y-57213D01*
X63159Y-57213D01*
X63160Y-57214D01*
X63181Y-57220D01*
X63201Y-57226D01*
X63202Y-57226D01*
X63204Y-57227D01*
X63225Y-57229D01*
X63246Y-57231D01*
X63249Y-57231D01*
X63249Y-57231D01*
X63249Y-57231D01*
X63250Y-57231D01*
X65250Y-57231D01*
X65271Y-57229D01*
X65292Y-57227D01*
X65293Y-57227D01*
X65295Y-57227D01*
X65315Y-57221D01*
X65336Y-57215D01*
X65337Y-57214D01*
X65338Y-57214D01*
X65357Y-57204D01*
X65376Y-57194D01*
X65377Y-57193D01*
X65378Y-57193D01*
X65394Y-57179D01*
X65411Y-57166D01*
X65413Y-57164D01*
X65413Y-57164D01*
X65413Y-57164D01*
X65413Y-57163D01*
X65663Y-56913D01*
X65677Y-56897D01*
X65691Y-56881D01*
X65691Y-56879D01*
X65692Y-56878D01*
X65702Y-56860D01*
X65713Y-56841D01*
X65713Y-56840D01*
X65714Y-56839D01*
X65720Y-56818D01*
X65726Y-56798D01*
X65726Y-56797D01*
X65727Y-56795D01*
X65729Y-56774D01*
X65731Y-56753D01*
X65731Y-56750D01*
X65731Y-56750D01*
X65731Y-56750D01*
X65731Y-56750D01*
X65731Y-56746D01*
X65733Y-56739D01*
X65733Y-56712D01*
X65733Y-56261D01*
X65731Y-56253D01*
X65731Y-55903D01*
X65757Y-55942D01*
X65768Y-55953D01*
X65768Y-56253D01*
X65766Y-56260D01*
X65766Y-56287D01*
X65766Y-56738D01*
X65768Y-56746D01*
X65768Y-56903D01*
X65586Y-57086D01*
X65586Y-57086D01*
X65403Y-57268D01*
X62808Y-57268D01*
X62808Y-57261D01*
X62803Y-57236D01*
X62793Y-57212D01*
X62778Y-57190D01*
X62760Y-57171D01*
X62738Y-57157D01*
X62714Y-57146D01*
X62689Y-57141D01*
X62662Y-57141D01*
X62411Y-57141D01*
X62386Y-57146D01*
X62362Y-57156D01*
X62340Y-57171D01*
X62321Y-57189D01*
X62307Y-57211D01*
X62296Y-57235D01*
X62291Y-57260D01*
X62291Y-57287D01*
X62291Y-57738D01*
X62296Y-57763D01*
X62306Y-57787D01*
X62321Y-57809D01*
X62339Y-57828D01*
X62361Y-57842D01*
X62385Y-57853D01*
X62410Y-57858D01*
X62437Y-57858D01*
X62688Y-57858D01*
X62713Y-57853D01*
X62737Y-57843D01*
X62759Y-57828D01*
X62778Y-57810D01*
X62792Y-57788D01*
X62803Y-57764D01*
X62808Y-57739D01*
X62808Y-57731D01*
X65500Y-57731D01*
X65521Y-57729D01*
X65542Y-57727D01*
X65543Y-57727D01*
X65545Y-57727D01*
X65565Y-57721D01*
X65586Y-57715D01*
X65587Y-57714D01*
X65588Y-57714D01*
X65607Y-57704D01*
X65626Y-57694D01*
X65627Y-57693D01*
X65628Y-57693D01*
X65644Y-57679D01*
X65661Y-57666D01*
X65663Y-57664D01*
X65663Y-57664D01*
X65663Y-57664D01*
X65663Y-57663D01*
X65913Y-57413D01*
X65913Y-57413D01*
X65913Y-57413D01*
X66163Y-57163D01*
X66177Y-57147D01*
X66191Y-57131D01*
X66191Y-57129D01*
X66192Y-57128D01*
X66202Y-57110D01*
X66213Y-57091D01*
X66213Y-57090D01*
X66214Y-57089D01*
X66220Y-57068D01*
X66226Y-57048D01*
X66226Y-57047D01*
X66227Y-57045D01*
X66229Y-57024D01*
X66231Y-57003D01*
X66231Y-57000D01*
X66231Y-57000D01*
X66231Y-57000D01*
X66231Y-57000D01*
X66231Y-56746D01*
X66233Y-56739D01*
X66233Y-56712D01*
X66233Y-56261D01*
X66231Y-56253D01*
X66231Y-55955D01*
X66234Y-55952D01*
X66269Y-55903D01*
X66294Y-55847D01*
X66307Y-55788D01*
X66308Y-55719D01*
X66308Y-56177D01*
X66296Y-56189D01*
X66282Y-56211D01*
X66271Y-56235D01*
X66266Y-56260D01*
X66266Y-56287D01*
X66266Y-56738D01*
X66268Y-56746D01*
X66268Y-57295D01*
X66262Y-57300D01*
X66228Y-57350D01*
X66204Y-57406D01*
X66191Y-57465D01*
X66191Y-57480D01*
X65903Y-57768D01*
X63250Y-57768D01*
X63228Y-57770D01*
X63207Y-57772D01*
X63206Y-57772D01*
X63204Y-57772D01*
X63184Y-57778D01*
X63163Y-57784D01*
X63162Y-57785D01*
X63161Y-57785D01*
X63142Y-57795D01*
X63123Y-57805D01*
X63122Y-57806D01*
X63121Y-57806D01*
X63105Y-57820D01*
X63088Y-57833D01*
X63086Y-57835D01*
X63086Y-57835D01*
X63086Y-57835D01*
X63086Y-57836D01*
X62903Y-58018D01*
X62808Y-58018D01*
X62808Y-58011D01*
X62803Y-57986D01*
X62793Y-57962D01*
X62778Y-57940D01*
X62760Y-57921D01*
X62738Y-57907D01*
X62714Y-57896D01*
X62689Y-57891D01*
X62662Y-57891D01*
X62411Y-57891D01*
X62386Y-57896D01*
X62362Y-57906D01*
X62340Y-57921D01*
X62321Y-57939D01*
X62307Y-57961D01*
X62296Y-57985D01*
X62291Y-58010D01*
X62291Y-58037D01*
X62291Y-58488D01*
X62296Y-58513D01*
X62306Y-58537D01*
X62321Y-58559D01*
X62339Y-58578D01*
X62361Y-58592D01*
X62385Y-58603D01*
X62410Y-58608D01*
X62437Y-58608D01*
X62688Y-58608D01*
X62713Y-58603D01*
X62737Y-58593D01*
X62759Y-58578D01*
X62778Y-58560D01*
X62792Y-58538D01*
X62803Y-58514D01*
X62808Y-58489D01*
X62808Y-58481D01*
X63000Y-58481D01*
X63021Y-58479D01*
X63042Y-58477D01*
X63043Y-58477D01*
X63045Y-58477D01*
X63065Y-58471D01*
X63086Y-58465D01*
X63087Y-58464D01*
X63088Y-58464D01*
X63107Y-58454D01*
X63126Y-58444D01*
X63127Y-58443D01*
X63128Y-58443D01*
X63144Y-58429D01*
X63161Y-58416D01*
X63163Y-58414D01*
X63163Y-58414D01*
X63163Y-58414D01*
X63163Y-58413D01*
X63346Y-58231D01*
X66000Y-58231D01*
X66021Y-58229D01*
X66042Y-58227D01*
X66043Y-58227D01*
X66045Y-58227D01*
X66065Y-58221D01*
X66086Y-58215D01*
X66087Y-58214D01*
X66088Y-58214D01*
X66107Y-58204D01*
X66126Y-58194D01*
X66127Y-58193D01*
X66128Y-58193D01*
X66144Y-58179D01*
X66161Y-58166D01*
X66163Y-58164D01*
X66163Y-58164D01*
X66163Y-58164D01*
X66163Y-58163D01*
X66518Y-57808D01*
X66523Y-57809D01*
X66583Y-57798D01*
X66639Y-57776D01*
X66690Y-57744D01*
X66734Y-57702D01*
X66769Y-57653D01*
X66794Y-57597D01*
X66807Y-57538D01*
X66808Y-57469D01*
X66808Y-59018D01*
X66700Y-59018D01*
X66700Y-58815D01*
X66700Y-58384D01*
X66700Y-58364D01*
X66696Y-58345D01*
X66688Y-58327D01*
X66677Y-58310D01*
X66663Y-58296D01*
X66647Y-58285D01*
X66629Y-58278D01*
X66609Y-58274D01*
X66575Y-58274D01*
X66550Y-58299D01*
X66550Y-58487D01*
X66675Y-58487D01*
X66700Y-58462D01*
X66700Y-58384D01*
X66700Y-58815D01*
X66700Y-58737D01*
X66675Y-58712D01*
X66550Y-58712D01*
X66550Y-58900D01*
X66575Y-58925D01*
X66609Y-58925D01*
X66629Y-58921D01*
X66647Y-58914D01*
X66663Y-58903D01*
X66677Y-58889D01*
X66688Y-58872D01*
X66696Y-58854D01*
X66700Y-58835D01*
X66700Y-58815D01*
X66700Y-59018D01*
X66450Y-59018D01*
X66450Y-58900D01*
X66450Y-58712D01*
X66450Y-58487D01*
X66450Y-58299D01*
X66424Y-58274D01*
X66390Y-58274D01*
X66370Y-58278D01*
X66352Y-58285D01*
X66336Y-58296D01*
X66322Y-58310D01*
X66311Y-58327D01*
X66303Y-58345D01*
X66299Y-58364D01*
X66299Y-58384D01*
X66299Y-58462D01*
X66324Y-58487D01*
X66450Y-58487D01*
X66450Y-58712D01*
X66324Y-58712D01*
X66299Y-58737D01*
X66299Y-58815D01*
X66299Y-58835D01*
X66303Y-58854D01*
X66311Y-58872D01*
X66322Y-58889D01*
X66336Y-58903D01*
X66352Y-58914D01*
X66370Y-58921D01*
X66390Y-58925D01*
X66424Y-58925D01*
X66450Y-58900D01*
X66450Y-59018D01*
X66200Y-59018D01*
X66200Y-58815D01*
X66200Y-58384D01*
X66200Y-58364D01*
X66196Y-58345D01*
X66188Y-58327D01*
X66177Y-58310D01*
X66163Y-58296D01*
X66147Y-58285D01*
X66129Y-58278D01*
X66109Y-58274D01*
X66075Y-58274D01*
X66050Y-58299D01*
X66050Y-58487D01*
X66175Y-58487D01*
X66200Y-58462D01*
X66200Y-58384D01*
X66200Y-58815D01*
X66200Y-58737D01*
X66175Y-58712D01*
X66050Y-58712D01*
X66050Y-58900D01*
X66075Y-58925D01*
X66109Y-58925D01*
X66129Y-58921D01*
X66147Y-58914D01*
X66163Y-58903D01*
X66177Y-58889D01*
X66188Y-58872D01*
X66196Y-58854D01*
X66200Y-58835D01*
X66200Y-58815D01*
X66200Y-59018D01*
X65950Y-59018D01*
X65950Y-58900D01*
X65950Y-58712D01*
X65950Y-58487D01*
X65950Y-58299D01*
X65924Y-58274D01*
X65890Y-58274D01*
X65870Y-58278D01*
X65852Y-58285D01*
X65836Y-58296D01*
X65822Y-58310D01*
X65811Y-58327D01*
X65803Y-58345D01*
X65799Y-58364D01*
X65799Y-58384D01*
X65799Y-58462D01*
X65824Y-58487D01*
X65950Y-58487D01*
X65950Y-58712D01*
X65824Y-58712D01*
X65799Y-58737D01*
X65799Y-58815D01*
X65799Y-58835D01*
X65803Y-58854D01*
X65811Y-58872D01*
X65822Y-58889D01*
X65836Y-58903D01*
X65852Y-58914D01*
X65870Y-58921D01*
X65890Y-58925D01*
X65924Y-58925D01*
X65950Y-58900D01*
X65950Y-59018D01*
X65700Y-59018D01*
X65700Y-58815D01*
X65700Y-58384D01*
X65700Y-58364D01*
X65696Y-58345D01*
X65688Y-58327D01*
X65677Y-58310D01*
X65663Y-58296D01*
X65647Y-58285D01*
X65629Y-58278D01*
X65609Y-58274D01*
X65575Y-58274D01*
X65550Y-58299D01*
X65550Y-58487D01*
X65675Y-58487D01*
X65700Y-58462D01*
X65700Y-58384D01*
X65700Y-58815D01*
X65700Y-58737D01*
X65675Y-58712D01*
X65550Y-58712D01*
X65550Y-58900D01*
X65575Y-58925D01*
X65609Y-58925D01*
X65629Y-58921D01*
X65647Y-58914D01*
X65663Y-58903D01*
X65677Y-58889D01*
X65688Y-58872D01*
X65696Y-58854D01*
X65700Y-58835D01*
X65700Y-58815D01*
X65700Y-59018D01*
X65450Y-59018D01*
X65450Y-58900D01*
X65450Y-58712D01*
X65450Y-58487D01*
X65450Y-58299D01*
X65424Y-58274D01*
X65390Y-58274D01*
X65370Y-58278D01*
X65352Y-58285D01*
X65336Y-58296D01*
X65322Y-58310D01*
X65311Y-58327D01*
X65303Y-58345D01*
X65299Y-58364D01*
X65299Y-58384D01*
X65299Y-58462D01*
X65324Y-58487D01*
X65450Y-58487D01*
X65450Y-58712D01*
X65324Y-58712D01*
X65299Y-58737D01*
X65299Y-58815D01*
X65299Y-58835D01*
X65303Y-58854D01*
X65311Y-58872D01*
X65322Y-58889D01*
X65336Y-58903D01*
X65352Y-58914D01*
X65370Y-58921D01*
X65390Y-58925D01*
X65424Y-58925D01*
X65450Y-58900D01*
X65450Y-59018D01*
X65200Y-59018D01*
X65200Y-58815D01*
X65200Y-58384D01*
X65200Y-58364D01*
X65196Y-58345D01*
X65188Y-58327D01*
X65177Y-58310D01*
X65163Y-58296D01*
X65147Y-58285D01*
X65129Y-58278D01*
X65109Y-58274D01*
X65075Y-58274D01*
X65050Y-58299D01*
X65050Y-58487D01*
X65175Y-58487D01*
X65200Y-58462D01*
X65200Y-58384D01*
X65200Y-58815D01*
X65200Y-58737D01*
X65175Y-58712D01*
X65050Y-58712D01*
X65050Y-58900D01*
X65075Y-58925D01*
X65109Y-58925D01*
X65129Y-58921D01*
X65147Y-58914D01*
X65163Y-58903D01*
X65177Y-58889D01*
X65188Y-58872D01*
X65196Y-58854D01*
X65200Y-58835D01*
X65200Y-58815D01*
X65200Y-59018D01*
X64950Y-59018D01*
X64950Y-58900D01*
X64950Y-58712D01*
X64950Y-58487D01*
X64950Y-58299D01*
X64924Y-58274D01*
X64890Y-58274D01*
X64870Y-58278D01*
X64852Y-58285D01*
X64836Y-58296D01*
X64822Y-58310D01*
X64811Y-58327D01*
X64803Y-58345D01*
X64799Y-58364D01*
X64799Y-58384D01*
X64799Y-58462D01*
X64824Y-58487D01*
X64950Y-58487D01*
X64950Y-58712D01*
X64824Y-58712D01*
X64799Y-58737D01*
X64799Y-58815D01*
X64799Y-58835D01*
X64803Y-58854D01*
X64811Y-58872D01*
X64822Y-58889D01*
X64836Y-58903D01*
X64852Y-58914D01*
X64870Y-58921D01*
X64890Y-58925D01*
X64924Y-58925D01*
X64950Y-58900D01*
X64950Y-59018D01*
X64700Y-59018D01*
X64700Y-58815D01*
X64700Y-58384D01*
X64700Y-58364D01*
X64696Y-58345D01*
X64688Y-58327D01*
X64677Y-58310D01*
X64663Y-58296D01*
X64647Y-58285D01*
X64629Y-58278D01*
X64609Y-58274D01*
X64575Y-58274D01*
X64550Y-58299D01*
X64550Y-58487D01*
X64675Y-58487D01*
X64700Y-58462D01*
X64700Y-58384D01*
X64700Y-58815D01*
X64700Y-58737D01*
X64675Y-58712D01*
X64550Y-58712D01*
X64550Y-58900D01*
X64575Y-58925D01*
X64609Y-58925D01*
X64629Y-58921D01*
X64647Y-58914D01*
X64663Y-58903D01*
X64677Y-58889D01*
X64688Y-58872D01*
X64696Y-58854D01*
X64700Y-58835D01*
X64700Y-58815D01*
X64700Y-59018D01*
X64450Y-59018D01*
X64450Y-58900D01*
X64450Y-58712D01*
X64450Y-58487D01*
X64450Y-58299D01*
X64424Y-58274D01*
X64390Y-58274D01*
X64370Y-58278D01*
X64352Y-58285D01*
X64336Y-58296D01*
X64322Y-58310D01*
X64311Y-58327D01*
X64303Y-58345D01*
X64299Y-58364D01*
X64299Y-58384D01*
X64299Y-58462D01*
X64324Y-58487D01*
X64450Y-58487D01*
X64450Y-58712D01*
X64324Y-58712D01*
X64299Y-58737D01*
X64299Y-58815D01*
X64299Y-58835D01*
X64303Y-58854D01*
X64311Y-58872D01*
X64322Y-58889D01*
X64336Y-58903D01*
X64352Y-58914D01*
X64370Y-58921D01*
X64390Y-58925D01*
X64424Y-58925D01*
X64450Y-58900D01*
X64450Y-59018D01*
X64346Y-59018D01*
X64231Y-58903D01*
X64231Y-58846D01*
X64233Y-58839D01*
X64233Y-58812D01*
X64233Y-58361D01*
X64228Y-58336D01*
X64218Y-58312D01*
X64203Y-58290D01*
X64185Y-58271D01*
X64163Y-58257D01*
X64139Y-58246D01*
X64114Y-58241D01*
X64087Y-58241D01*
X63886Y-58241D01*
X63861Y-58246D01*
X63837Y-58256D01*
X63815Y-58271D01*
X63796Y-58289D01*
X63782Y-58311D01*
X63771Y-58335D01*
X63766Y-58360D01*
X63766Y-58387D01*
X63766Y-58838D01*
X63768Y-58846D01*
X63768Y-59000D01*
X63770Y-59021D01*
X63772Y-59042D01*
X63772Y-59043D01*
X63772Y-59045D01*
X63778Y-59065D01*
X63784Y-59086D01*
X63785Y-59087D01*
X63785Y-59088D01*
X63795Y-59107D01*
X63805Y-59126D01*
X63806Y-59127D01*
X63806Y-59128D01*
X63820Y-59144D01*
X63833Y-59161D01*
X63835Y-59163D01*
X63835Y-59163D01*
X63835Y-59163D01*
X63836Y-59163D01*
X64086Y-59413D01*
X64102Y-59427D01*
X64118Y-59441D01*
X64120Y-59441D01*
X64121Y-59442D01*
X64139Y-59452D01*
X64158Y-59463D01*
X64159Y-59463D01*
X64160Y-59464D01*
X64181Y-59470D01*
X64201Y-59476D01*
X64202Y-59476D01*
X64204Y-59477D01*
X64225Y-59479D01*
X64246Y-59481D01*
X64249Y-59481D01*
X64249Y-59481D01*
X64249Y-59481D01*
X64250Y-59481D01*
X68403Y-59481D01*
X68518Y-59596D01*
X68518Y-60663D01*
X68492Y-60680D01*
X68435Y-60736D01*
X68390Y-60802D01*
X68358Y-60875D01*
X68342Y-60954D01*
X68340Y-61034D01*
X68355Y-61113D01*
X68384Y-61187D01*
X68428Y-61254D01*
X68483Y-61312D01*
X68549Y-61358D01*
X68623Y-61390D01*
X68701Y-61407D01*
X68781Y-61409D01*
X68860Y-61395D01*
X68935Y-61366D01*
X69002Y-61323D01*
X69060Y-61268D01*
X69106Y-61202D01*
X69139Y-61129D01*
X69157Y-61051D01*
X69158Y-60959D01*
X69158Y-62379D01*
X68158Y-62379D01*
X68158Y-61262D01*
X68158Y-60711D01*
X68153Y-60686D01*
X68143Y-60662D01*
X68128Y-60640D01*
X68110Y-60621D01*
X68088Y-60607D01*
X68064Y-60596D01*
X68039Y-60591D01*
X68012Y-60591D01*
X67981Y-60591D01*
X67981Y-60000D01*
X67979Y-59978D01*
X67977Y-59957D01*
X67977Y-59956D01*
X67977Y-59954D01*
X67971Y-59934D01*
X67965Y-59913D01*
X67964Y-59912D01*
X67964Y-59911D01*
X67954Y-59892D01*
X67944Y-59873D01*
X67943Y-59872D01*
X67943Y-59871D01*
X67929Y-59855D01*
X67916Y-59838D01*
X67914Y-59836D01*
X67914Y-59836D01*
X67914Y-59836D01*
X67913Y-59836D01*
X67663Y-59586D01*
X67647Y-59572D01*
X67631Y-59558D01*
X67629Y-59558D01*
X67628Y-59557D01*
X67610Y-59547D01*
X67591Y-59536D01*
X67590Y-59536D01*
X67589Y-59535D01*
X67568Y-59529D01*
X67548Y-59523D01*
X67547Y-59523D01*
X67545Y-59522D01*
X67524Y-59520D01*
X67503Y-59518D01*
X67500Y-59518D01*
X67500Y-59518D01*
X67500Y-59518D01*
X67500Y-59518D01*
X63846Y-59518D01*
X63731Y-59403D01*
X63731Y-58846D01*
X63733Y-58839D01*
X63733Y-58812D01*
X63733Y-58361D01*
X63728Y-58336D01*
X63718Y-58312D01*
X63703Y-58290D01*
X63685Y-58271D01*
X63663Y-58257D01*
X63639Y-58246D01*
X63614Y-58241D01*
X63587Y-58241D01*
X63386Y-58241D01*
X63361Y-58246D01*
X63337Y-58256D01*
X63315Y-58271D01*
X63296Y-58289D01*
X63282Y-58311D01*
X63271Y-58335D01*
X63266Y-58360D01*
X63266Y-58387D01*
X63266Y-58838D01*
X63268Y-58846D01*
X63268Y-59500D01*
X63270Y-59521D01*
X63272Y-59542D01*
X63272Y-59543D01*
X63272Y-59545D01*
X63278Y-59565D01*
X63284Y-59586D01*
X63285Y-59587D01*
X63285Y-59588D01*
X63295Y-59607D01*
X63305Y-59626D01*
X63306Y-59627D01*
X63306Y-59628D01*
X63320Y-59644D01*
X63333Y-59661D01*
X63335Y-59663D01*
X63335Y-59663D01*
X63335Y-59663D01*
X63336Y-59663D01*
X63586Y-59913D01*
X63602Y-59927D01*
X63618Y-59941D01*
X63620Y-59941D01*
X63621Y-59942D01*
X63639Y-59952D01*
X63658Y-59963D01*
X63659Y-59963D01*
X63660Y-59964D01*
X63681Y-59970D01*
X63701Y-59976D01*
X63702Y-59976D01*
X63704Y-59977D01*
X63725Y-59979D01*
X63746Y-59981D01*
X63749Y-59981D01*
X63749Y-59981D01*
X63749Y-59981D01*
X63750Y-59981D01*
X67403Y-59981D01*
X67518Y-60096D01*
X67518Y-60591D01*
X67461Y-60591D01*
X67436Y-60596D01*
X67412Y-60606D01*
X67390Y-60621D01*
X67371Y-60639D01*
X67357Y-60661D01*
X67346Y-60685D01*
X67341Y-60710D01*
X67341Y-60737D01*
X67341Y-61288D01*
X67346Y-61313D01*
X67356Y-61337D01*
X67371Y-61359D01*
X67389Y-61378D01*
X67411Y-61392D01*
X67435Y-61403D01*
X67460Y-61408D01*
X67487Y-61408D01*
X68038Y-61408D01*
X68063Y-61403D01*
X68087Y-61393D01*
X68109Y-61378D01*
X68128Y-61360D01*
X68142Y-61338D01*
X68153Y-61314D01*
X68158Y-61289D01*
X68158Y-61262D01*
X68158Y-62379D01*
X65353Y-62379D01*
X65353Y-61003D01*
X65342Y-60886D01*
X65341Y-60879D01*
X65295Y-60808D01*
X65103Y-61000D01*
X65295Y-61191D01*
X65341Y-61120D01*
X65353Y-61003D01*
X65353Y-62379D01*
X64941Y-62379D01*
X64941Y-61545D01*
X64941Y-60454D01*
X64870Y-60408D01*
X64753Y-60396D01*
X64636Y-60407D01*
X64629Y-60408D01*
X64558Y-60454D01*
X64750Y-60646D01*
X64941Y-60454D01*
X64941Y-61545D01*
X64750Y-61353D01*
X64558Y-61545D01*
X64629Y-61591D01*
X64746Y-61603D01*
X64863Y-61592D01*
X64870Y-61591D01*
X64941Y-61545D01*
X64941Y-62379D01*
X64396Y-62379D01*
X64396Y-61000D01*
X64204Y-60808D01*
X64158Y-60879D01*
X64146Y-60996D01*
X64157Y-61113D01*
X64158Y-61120D01*
X64204Y-61191D01*
X64396Y-61000D01*
X64396Y-62379D01*
X63383Y-62379D01*
X63383Y-61487D01*
X63383Y-60486D01*
X63378Y-60461D01*
X63368Y-60437D01*
X63353Y-60415D01*
X63335Y-60396D01*
X63313Y-60382D01*
X63289Y-60371D01*
X63264Y-60366D01*
X63237Y-60366D01*
X62236Y-60366D01*
X62211Y-60371D01*
X62187Y-60381D01*
X62165Y-60396D01*
X62146Y-60414D01*
X62132Y-60436D01*
X62121Y-60460D01*
X62116Y-60485D01*
X62116Y-60512D01*
X62116Y-61513D01*
X62121Y-61538D01*
X62131Y-61562D01*
X62146Y-61584D01*
X62164Y-61603D01*
X62186Y-61617D01*
X62210Y-61628D01*
X62235Y-61633D01*
X62262Y-61633D01*
X63263Y-61633D01*
X63288Y-61628D01*
X63312Y-61618D01*
X63334Y-61603D01*
X63353Y-61585D01*
X63367Y-61563D01*
X63378Y-61539D01*
X63383Y-61514D01*
X63383Y-61487D01*
X63383Y-62379D01*
X60933Y-62379D01*
X60933Y-60908D01*
X60933Y-44408D01*
X60897Y-44228D01*
X60828Y-44059D01*
X60726Y-43907D01*
X60597Y-43777D01*
X60446Y-43674D01*
X60277Y-43603D01*
X60098Y-43567D01*
X59914Y-43565D01*
X59735Y-43600D01*
X59565Y-43668D01*
X59412Y-43768D01*
X59281Y-43897D01*
X59178Y-44048D01*
X59105Y-44216D01*
X59067Y-44395D01*
X59065Y-44578D01*
X59098Y-44758D01*
X59165Y-44928D01*
X59264Y-45082D01*
X59392Y-45214D01*
X59542Y-45318D01*
X59710Y-45392D01*
X59888Y-45431D01*
X60071Y-45435D01*
X60252Y-45403D01*
X60422Y-45337D01*
X60577Y-45239D01*
X60710Y-45112D01*
X60815Y-44963D01*
X60890Y-44796D01*
X60930Y-44617D01*
X60933Y-44408D01*
X60933Y-60908D01*
X60897Y-60728D01*
X60828Y-60559D01*
X60726Y-60407D01*
X60597Y-60277D01*
X60446Y-60174D01*
X60277Y-60103D01*
X60098Y-60067D01*
X59914Y-60065D01*
X59735Y-60100D01*
X59565Y-60168D01*
X59412Y-60268D01*
X59281Y-60397D01*
X59178Y-60548D01*
X59105Y-60716D01*
X59067Y-60895D01*
X59065Y-61078D01*
X59098Y-61258D01*
X59165Y-61428D01*
X59264Y-61582D01*
X59392Y-61714D01*
X59542Y-61818D01*
X59710Y-61892D01*
X59888Y-61931D01*
X60071Y-61935D01*
X60252Y-61903D01*
X60422Y-61837D01*
X60577Y-61739D01*
X60710Y-61612D01*
X60815Y-61463D01*
X60890Y-61296D01*
X60930Y-61117D01*
X60933Y-60908D01*
X60933Y-62379D01*
X60005Y-62379D01*
X59732Y-62353D01*
X59474Y-62275D01*
X59236Y-62148D01*
X59028Y-61978D01*
X58856Y-61771D01*
X58728Y-61534D01*
X58648Y-61277D01*
X58620Y-61003D01*
X58620Y-60999D01*
X58620Y-44505D01*
X58646Y-44232D01*
X58724Y-43974D01*
X58851Y-43736D01*
X59021Y-43528D01*
X59228Y-43356D01*
X59465Y-43228D01*
X59722Y-43148D01*
X59996Y-43120D01*
X60000Y-43120D01*
X71744Y-43120D01*
X72017Y-43146D01*
X72275Y-43224D01*
X72513Y-43351D01*
X72721Y-43521D01*
X72893Y-43728D01*
X73021Y-43965D01*
X73101Y-44222D01*
X73129Y-44496D01*
X73129Y-44500D01*
X73129Y-60994D01*
M02*
