G04 (created by PCBNEW (2013-may-18)-stable) date Wed 03 Jun 2015 10:45:29 PM CEST*
%MOIN*%
G04 Gerber Fmt 3.4, Leading zero omitted, Abs format*
%FSLAX34Y34*%
G01*
G70*
G90*
G04 APERTURE LIST*
%ADD10C,0.00590551*%
%ADD11R,0.055X0.055*%
%ADD12C,0.055*%
%ADD13C,0.15*%
%ADD14R,0.15X0.15*%
%ADD15R,0.1X0.1*%
%ADD16C,0.1*%
%ADD17C,0.177165*%
%ADD18C,0.16*%
%ADD19C,0.035*%
%ADD20C,0.019685*%
%ADD21C,0.00669291*%
G04 APERTURE END LIST*
G54D10*
G54D11*
X9250Y-1500D03*
G54D12*
X10250Y-1500D03*
X11250Y-1500D03*
G54D13*
X13250Y-12750D03*
X13250Y-10750D03*
G54D14*
X13250Y-14750D03*
G54D13*
X13250Y-8750D03*
G54D15*
X4250Y-18000D03*
G54D16*
X6250Y-18000D03*
G54D15*
X6250Y-1500D03*
G54D16*
X4250Y-1500D03*
G54D11*
X9250Y-18000D03*
G54D12*
X10250Y-18000D03*
X11250Y-18000D03*
G54D17*
X13250Y-1500D03*
G54D18*
X13250Y-18000D03*
X1500Y-18000D03*
X1500Y-1500D03*
G54D19*
X3750Y-16000D03*
X8000Y-5250D03*
X5500Y-12500D03*
X8500Y-3250D03*
X6000Y-12750D03*
X8750Y-3750D03*
X7500Y-12750D03*
X9500Y-12750D03*
X8000Y-14500D03*
X9500Y-14500D03*
X7000Y-11500D03*
X9500Y-11500D03*
G54D20*
X6500Y-13500D02*
X6500Y-6750D01*
X3750Y-16000D02*
X5250Y-16000D01*
X5250Y-16000D02*
X6500Y-14750D01*
X6500Y-14750D02*
X6500Y-13500D01*
X6500Y-6750D02*
X8000Y-5250D01*
X5500Y-6500D02*
X5500Y-6250D01*
X5500Y-12500D02*
X5500Y-6500D01*
X5500Y-6250D02*
X8500Y-3250D01*
X8750Y-3750D02*
X6000Y-6500D01*
X6000Y-6500D02*
X6000Y-7250D01*
X6000Y-12750D02*
X6000Y-8250D01*
X6000Y-8250D02*
X6000Y-7250D01*
X7500Y-12750D02*
X9500Y-12750D01*
X9500Y-14500D02*
X8000Y-14500D01*
X9500Y-11500D02*
X7000Y-11500D01*
G54D10*
G36*
X14629Y-17994D02*
X14603Y-18267D01*
X14525Y-18525D01*
X14398Y-18763D01*
X14239Y-18959D01*
X14239Y-1560D01*
X14232Y-1366D01*
X14208Y-1248D01*
X14138Y-1121D01*
X13759Y-1500D01*
X14138Y-1878D01*
X14208Y-1751D01*
X14239Y-1560D01*
X14239Y-18959D01*
X14228Y-18971D01*
X14154Y-19033D01*
X14154Y-18021D01*
X14141Y-17845D01*
X14133Y-17805D01*
X14133Y-15487D01*
X14133Y-14529D01*
X14133Y-12663D01*
X14133Y-10663D01*
X14133Y-8663D01*
X14099Y-8493D01*
X14033Y-8333D01*
X13937Y-8188D01*
X13815Y-8065D01*
X13672Y-7969D01*
X13628Y-7950D01*
X13628Y-2388D01*
X13628Y-611D01*
X13501Y-541D01*
X13310Y-510D01*
X13116Y-517D01*
X12998Y-541D01*
X12871Y-611D01*
X13250Y-990D01*
X13628Y-611D01*
X13628Y-2388D01*
X13250Y-2009D01*
X12871Y-2388D01*
X12998Y-2458D01*
X13189Y-2489D01*
X13383Y-2482D01*
X13501Y-2458D01*
X13628Y-2388D01*
X13628Y-7950D01*
X13512Y-7901D01*
X13342Y-7867D01*
X13169Y-7865D01*
X12999Y-7898D01*
X12838Y-7963D01*
X12740Y-8027D01*
X12740Y-1500D01*
X12361Y-1121D01*
X12291Y-1248D01*
X12260Y-1439D01*
X12267Y-1633D01*
X12291Y-1751D01*
X12361Y-1878D01*
X12740Y-1500D01*
X12740Y-8027D01*
X12693Y-8058D01*
X12569Y-8179D01*
X12472Y-8322D01*
X12403Y-8481D01*
X12367Y-8651D01*
X12365Y-8824D01*
X12396Y-8994D01*
X12460Y-9155D01*
X12554Y-9301D01*
X12674Y-9426D01*
X12816Y-9524D01*
X12975Y-9594D01*
X13144Y-9631D01*
X13318Y-9635D01*
X13488Y-9605D01*
X13650Y-9542D01*
X13796Y-9449D01*
X13922Y-9330D01*
X14021Y-9188D01*
X14092Y-9030D01*
X14130Y-8861D01*
X14133Y-8663D01*
X14133Y-10663D01*
X14099Y-10493D01*
X14033Y-10333D01*
X13937Y-10188D01*
X13815Y-10065D01*
X13672Y-9969D01*
X13512Y-9901D01*
X13342Y-9867D01*
X13169Y-9865D01*
X12999Y-9898D01*
X12838Y-9963D01*
X12693Y-10058D01*
X12569Y-10179D01*
X12472Y-10322D01*
X12403Y-10481D01*
X12367Y-10651D01*
X12365Y-10824D01*
X12396Y-10994D01*
X12460Y-11155D01*
X12554Y-11301D01*
X12674Y-11426D01*
X12816Y-11524D01*
X12975Y-11594D01*
X13144Y-11631D01*
X13318Y-11635D01*
X13488Y-11605D01*
X13650Y-11542D01*
X13796Y-11449D01*
X13922Y-11330D01*
X14021Y-11188D01*
X14092Y-11030D01*
X14130Y-10861D01*
X14133Y-10663D01*
X14133Y-12663D01*
X14099Y-12493D01*
X14033Y-12333D01*
X13937Y-12188D01*
X13815Y-12065D01*
X13672Y-11969D01*
X13512Y-11901D01*
X13342Y-11867D01*
X13169Y-11865D01*
X12999Y-11898D01*
X12838Y-11963D01*
X12693Y-12058D01*
X12569Y-12179D01*
X12472Y-12322D01*
X12403Y-12481D01*
X12367Y-12651D01*
X12365Y-12824D01*
X12396Y-12994D01*
X12460Y-13155D01*
X12554Y-13301D01*
X12674Y-13426D01*
X12816Y-13524D01*
X12975Y-13594D01*
X13144Y-13631D01*
X13318Y-13635D01*
X13488Y-13605D01*
X13650Y-13542D01*
X13796Y-13449D01*
X13922Y-13330D01*
X14021Y-13188D01*
X14092Y-13030D01*
X14130Y-12861D01*
X14133Y-12663D01*
X14133Y-14529D01*
X14133Y-13986D01*
X14128Y-13961D01*
X14118Y-13937D01*
X14103Y-13915D01*
X14085Y-13896D01*
X14063Y-13882D01*
X14039Y-13871D01*
X14014Y-13866D01*
X13987Y-13866D01*
X12486Y-13866D01*
X12461Y-13871D01*
X12437Y-13881D01*
X12415Y-13896D01*
X12396Y-13914D01*
X12382Y-13936D01*
X12371Y-13960D01*
X12366Y-13985D01*
X12366Y-14012D01*
X12366Y-15513D01*
X12371Y-15538D01*
X12381Y-15562D01*
X12396Y-15584D01*
X12414Y-15603D01*
X12436Y-15617D01*
X12460Y-15628D01*
X12485Y-15633D01*
X12512Y-15633D01*
X14013Y-15633D01*
X14038Y-15628D01*
X14062Y-15618D01*
X14084Y-15603D01*
X14103Y-15585D01*
X14117Y-15563D01*
X14128Y-15539D01*
X14133Y-15514D01*
X14133Y-15487D01*
X14133Y-17805D01*
X14133Y-17803D01*
X14072Y-17687D01*
X13759Y-18000D01*
X14072Y-18312D01*
X14133Y-18196D01*
X14154Y-18021D01*
X14154Y-19033D01*
X14021Y-19143D01*
X13784Y-19271D01*
X13562Y-19340D01*
X13562Y-18822D01*
X13562Y-17177D01*
X13446Y-17116D01*
X13271Y-17095D01*
X13095Y-17108D01*
X13053Y-17116D01*
X12937Y-17177D01*
X13250Y-17490D01*
X13562Y-17177D01*
X13562Y-18822D01*
X13250Y-18509D01*
X12937Y-18822D01*
X13053Y-18883D01*
X13228Y-18904D01*
X13404Y-18891D01*
X13446Y-18883D01*
X13562Y-18822D01*
X13562Y-19340D01*
X13527Y-19351D01*
X13253Y-19379D01*
X13249Y-19379D01*
X12740Y-19379D01*
X12740Y-18000D01*
X12427Y-17687D01*
X12366Y-17803D01*
X12345Y-17978D01*
X12358Y-18154D01*
X12366Y-18196D01*
X12427Y-18312D01*
X12740Y-18000D01*
X12740Y-19379D01*
X11626Y-19379D01*
X11626Y-18022D01*
X11626Y-1522D01*
X11623Y-1448D01*
X11614Y-1404D01*
X11576Y-1368D01*
X11444Y-1500D01*
X11576Y-1631D01*
X11614Y-1595D01*
X11626Y-1522D01*
X11626Y-18022D01*
X11623Y-17948D01*
X11614Y-17904D01*
X11576Y-17868D01*
X11444Y-18000D01*
X11576Y-18131D01*
X11614Y-18095D01*
X11626Y-18022D01*
X11626Y-19379D01*
X11381Y-19379D01*
X11381Y-18326D01*
X11381Y-17673D01*
X11381Y-1826D01*
X11381Y-1173D01*
X11345Y-1135D01*
X11272Y-1123D01*
X11198Y-1126D01*
X11154Y-1135D01*
X11118Y-1173D01*
X11250Y-1305D01*
X11381Y-1173D01*
X11381Y-1826D01*
X11250Y-1694D01*
X11118Y-1826D01*
X11154Y-1864D01*
X11227Y-1876D01*
X11301Y-1873D01*
X11345Y-1864D01*
X11381Y-1826D01*
X11381Y-17673D01*
X11345Y-17635D01*
X11272Y-17623D01*
X11198Y-17626D01*
X11154Y-17635D01*
X11118Y-17673D01*
X11250Y-17805D01*
X11381Y-17673D01*
X11381Y-18326D01*
X11250Y-18194D01*
X11118Y-18326D01*
X11154Y-18364D01*
X11227Y-18376D01*
X11301Y-18373D01*
X11345Y-18364D01*
X11381Y-18326D01*
X11381Y-19379D01*
X11055Y-19379D01*
X11055Y-18000D01*
X11055Y-1500D01*
X10923Y-1368D01*
X10885Y-1404D01*
X10873Y-1477D01*
X10876Y-1551D01*
X10885Y-1595D01*
X10923Y-1631D01*
X11055Y-1500D01*
X11055Y-18000D01*
X10923Y-17868D01*
X10885Y-17904D01*
X10873Y-17977D01*
X10876Y-18051D01*
X10885Y-18095D01*
X10923Y-18131D01*
X11055Y-18000D01*
X11055Y-19379D01*
X10658Y-19379D01*
X10658Y-17959D01*
X10658Y-1459D01*
X10642Y-1381D01*
X10612Y-1307D01*
X10568Y-1240D01*
X10511Y-1183D01*
X10445Y-1138D01*
X10371Y-1107D01*
X10292Y-1091D01*
X10212Y-1091D01*
X10134Y-1106D01*
X10059Y-1136D01*
X9992Y-1180D01*
X9935Y-1236D01*
X9890Y-1302D01*
X9858Y-1375D01*
X9842Y-1454D01*
X9840Y-1534D01*
X9855Y-1613D01*
X9884Y-1687D01*
X9928Y-1754D01*
X9983Y-1812D01*
X10049Y-1858D01*
X10123Y-1890D01*
X10201Y-1907D01*
X10281Y-1909D01*
X10360Y-1895D01*
X10435Y-1866D01*
X10502Y-1823D01*
X10560Y-1768D01*
X10606Y-1702D01*
X10639Y-1629D01*
X10657Y-1551D01*
X10658Y-1459D01*
X10658Y-17959D01*
X10642Y-17881D01*
X10612Y-17807D01*
X10568Y-17740D01*
X10511Y-17683D01*
X10445Y-17638D01*
X10371Y-17607D01*
X10292Y-17591D01*
X10212Y-17591D01*
X10134Y-17606D01*
X10059Y-17636D01*
X9992Y-17680D01*
X9935Y-17736D01*
X9890Y-17802D01*
X9858Y-17875D01*
X9842Y-17954D01*
X9840Y-18034D01*
X9855Y-18113D01*
X9884Y-18187D01*
X9928Y-18254D01*
X9983Y-18312D01*
X10049Y-18358D01*
X10123Y-18390D01*
X10201Y-18407D01*
X10281Y-18409D01*
X10360Y-18395D01*
X10435Y-18366D01*
X10502Y-18323D01*
X10560Y-18268D01*
X10606Y-18202D01*
X10639Y-18129D01*
X10657Y-18051D01*
X10658Y-17959D01*
X10658Y-19379D01*
X9808Y-19379D01*
X9808Y-14469D01*
X9808Y-12719D01*
X9796Y-12660D01*
X9773Y-12604D01*
X9740Y-12554D01*
X9697Y-12511D01*
X9647Y-12477D01*
X9591Y-12453D01*
X9532Y-12441D01*
X9471Y-12441D01*
X9412Y-12452D01*
X9356Y-12475D01*
X9305Y-12508D01*
X9295Y-12518D01*
X7704Y-12518D01*
X7697Y-12511D01*
X7647Y-12477D01*
X7591Y-12453D01*
X7532Y-12441D01*
X7471Y-12441D01*
X7412Y-12452D01*
X7356Y-12475D01*
X7305Y-12508D01*
X7262Y-12550D01*
X7228Y-12600D01*
X7204Y-12656D01*
X7191Y-12715D01*
X7191Y-12775D01*
X7202Y-12835D01*
X7224Y-12891D01*
X7257Y-12942D01*
X7299Y-12986D01*
X7348Y-13020D01*
X7404Y-13044D01*
X7463Y-13057D01*
X7523Y-13059D01*
X7583Y-13048D01*
X7639Y-13026D01*
X7690Y-12994D01*
X7703Y-12981D01*
X9295Y-12981D01*
X9299Y-12986D01*
X9348Y-13020D01*
X9404Y-13044D01*
X9463Y-13057D01*
X9523Y-13059D01*
X9583Y-13048D01*
X9639Y-13026D01*
X9690Y-12994D01*
X9734Y-12952D01*
X9769Y-12903D01*
X9794Y-12847D01*
X9807Y-12788D01*
X9808Y-12719D01*
X9808Y-14469D01*
X9796Y-14410D01*
X9773Y-14354D01*
X9740Y-14304D01*
X9697Y-14261D01*
X9647Y-14227D01*
X9591Y-14203D01*
X9532Y-14191D01*
X9471Y-14191D01*
X9412Y-14202D01*
X9356Y-14225D01*
X9305Y-14258D01*
X9295Y-14268D01*
X8204Y-14268D01*
X8197Y-14261D01*
X8147Y-14227D01*
X8091Y-14203D01*
X8032Y-14191D01*
X7971Y-14191D01*
X7912Y-14202D01*
X7856Y-14225D01*
X7805Y-14258D01*
X7762Y-14300D01*
X7728Y-14350D01*
X7704Y-14406D01*
X7691Y-14465D01*
X7691Y-14525D01*
X7702Y-14585D01*
X7724Y-14641D01*
X7757Y-14692D01*
X7799Y-14736D01*
X7848Y-14770D01*
X7904Y-14794D01*
X7963Y-14807D01*
X8023Y-14809D01*
X8083Y-14798D01*
X8139Y-14776D01*
X8190Y-14744D01*
X8203Y-14731D01*
X9295Y-14731D01*
X9299Y-14736D01*
X9348Y-14770D01*
X9404Y-14794D01*
X9463Y-14807D01*
X9523Y-14809D01*
X9583Y-14798D01*
X9639Y-14776D01*
X9690Y-14744D01*
X9734Y-14702D01*
X9769Y-14653D01*
X9794Y-14597D01*
X9807Y-14538D01*
X9808Y-14469D01*
X9808Y-19379D01*
X9658Y-19379D01*
X9658Y-18262D01*
X9658Y-17711D01*
X9653Y-17686D01*
X9643Y-17662D01*
X9628Y-17640D01*
X9610Y-17621D01*
X9588Y-17607D01*
X9564Y-17596D01*
X9539Y-17591D01*
X9512Y-17591D01*
X8961Y-17591D01*
X8936Y-17596D01*
X8912Y-17606D01*
X8890Y-17621D01*
X8871Y-17639D01*
X8857Y-17661D01*
X8846Y-17685D01*
X8841Y-17710D01*
X8841Y-17737D01*
X8841Y-18288D01*
X8846Y-18313D01*
X8856Y-18337D01*
X8871Y-18359D01*
X8889Y-18378D01*
X8911Y-18392D01*
X8935Y-18403D01*
X8960Y-18408D01*
X8987Y-18408D01*
X9538Y-18408D01*
X9563Y-18403D01*
X9587Y-18393D01*
X9609Y-18378D01*
X9628Y-18360D01*
X9642Y-18338D01*
X9653Y-18314D01*
X9658Y-18289D01*
X9658Y-18262D01*
X9658Y-19379D01*
X6853Y-19379D01*
X6853Y-18003D01*
X6842Y-17886D01*
X6841Y-17879D01*
X6795Y-17808D01*
X6603Y-18000D01*
X6795Y-18191D01*
X6841Y-18120D01*
X6853Y-18003D01*
X6853Y-19379D01*
X6441Y-19379D01*
X6441Y-18545D01*
X6441Y-17454D01*
X6370Y-17408D01*
X6253Y-17396D01*
X6136Y-17407D01*
X6129Y-17408D01*
X6058Y-17454D01*
X6250Y-17646D01*
X6441Y-17454D01*
X6441Y-18545D01*
X6250Y-18353D01*
X6058Y-18545D01*
X6129Y-18591D01*
X6246Y-18603D01*
X6363Y-18592D01*
X6370Y-18591D01*
X6441Y-18545D01*
X6441Y-19379D01*
X5896Y-19379D01*
X5896Y-18000D01*
X5704Y-17808D01*
X5658Y-17879D01*
X5646Y-17996D01*
X5657Y-18113D01*
X5658Y-18120D01*
X5704Y-18191D01*
X5896Y-18000D01*
X5896Y-19379D01*
X5533Y-19379D01*
X5533Y-16044D01*
X6663Y-14913D01*
X6677Y-14897D01*
X6691Y-14881D01*
X6691Y-14879D01*
X6692Y-14878D01*
X6702Y-14860D01*
X6713Y-14841D01*
X6713Y-14840D01*
X6714Y-14839D01*
X6720Y-14818D01*
X6726Y-14798D01*
X6726Y-14797D01*
X6727Y-14795D01*
X6729Y-14774D01*
X6731Y-14753D01*
X6731Y-14750D01*
X6731Y-14750D01*
X6731Y-14750D01*
X6731Y-14750D01*
X6731Y-13500D01*
X6731Y-11653D01*
X6757Y-11692D01*
X6799Y-11736D01*
X6848Y-11770D01*
X6904Y-11794D01*
X6963Y-11807D01*
X7023Y-11809D01*
X7083Y-11798D01*
X7139Y-11776D01*
X7190Y-11744D01*
X7203Y-11731D01*
X9295Y-11731D01*
X9299Y-11736D01*
X9348Y-11770D01*
X9404Y-11794D01*
X9463Y-11807D01*
X9523Y-11809D01*
X9583Y-11798D01*
X9639Y-11776D01*
X9690Y-11744D01*
X9734Y-11702D01*
X9769Y-11653D01*
X9794Y-11597D01*
X9807Y-11538D01*
X9808Y-11469D01*
X9796Y-11410D01*
X9773Y-11354D01*
X9740Y-11304D01*
X9697Y-11261D01*
X9658Y-11234D01*
X9658Y-1762D01*
X9658Y-1211D01*
X9653Y-1186D01*
X9643Y-1162D01*
X9628Y-1140D01*
X9610Y-1121D01*
X9588Y-1107D01*
X9564Y-1096D01*
X9539Y-1091D01*
X9512Y-1091D01*
X8961Y-1091D01*
X8936Y-1096D01*
X8912Y-1106D01*
X8890Y-1121D01*
X8871Y-1139D01*
X8857Y-1161D01*
X8846Y-1185D01*
X8841Y-1210D01*
X8841Y-1237D01*
X8841Y-1788D01*
X8846Y-1813D01*
X8856Y-1837D01*
X8871Y-1859D01*
X8889Y-1878D01*
X8911Y-1892D01*
X8935Y-1903D01*
X8960Y-1908D01*
X8987Y-1908D01*
X9538Y-1908D01*
X9563Y-1903D01*
X9587Y-1893D01*
X9609Y-1878D01*
X9628Y-1860D01*
X9642Y-1838D01*
X9653Y-1814D01*
X9658Y-1789D01*
X9658Y-1762D01*
X9658Y-11234D01*
X9647Y-11227D01*
X9591Y-11203D01*
X9532Y-11191D01*
X9471Y-11191D01*
X9412Y-11202D01*
X9356Y-11225D01*
X9305Y-11258D01*
X9295Y-11268D01*
X7204Y-11268D01*
X7197Y-11261D01*
X7147Y-11227D01*
X7091Y-11203D01*
X7032Y-11191D01*
X6971Y-11191D01*
X6912Y-11202D01*
X6856Y-11225D01*
X6805Y-11258D01*
X6762Y-11300D01*
X6731Y-11345D01*
X6731Y-6846D01*
X8018Y-5558D01*
X8023Y-5559D01*
X8083Y-5548D01*
X8139Y-5526D01*
X8190Y-5494D01*
X8234Y-5452D01*
X8269Y-5403D01*
X8294Y-5347D01*
X8307Y-5288D01*
X8308Y-5219D01*
X8296Y-5160D01*
X8273Y-5104D01*
X8240Y-5054D01*
X8197Y-5011D01*
X8147Y-4977D01*
X8091Y-4953D01*
X8032Y-4941D01*
X7971Y-4941D01*
X7912Y-4952D01*
X7856Y-4975D01*
X7845Y-4982D01*
X8768Y-4058D01*
X8773Y-4059D01*
X8833Y-4048D01*
X8889Y-4026D01*
X8940Y-3994D01*
X8984Y-3952D01*
X9019Y-3903D01*
X9044Y-3847D01*
X9057Y-3788D01*
X9058Y-3719D01*
X9046Y-3660D01*
X9023Y-3604D01*
X8990Y-3554D01*
X8947Y-3511D01*
X8897Y-3477D01*
X8841Y-3453D01*
X8782Y-3441D01*
X8742Y-3441D01*
X8769Y-3403D01*
X8794Y-3347D01*
X8807Y-3288D01*
X8808Y-3219D01*
X8796Y-3160D01*
X8773Y-3104D01*
X8740Y-3054D01*
X8697Y-3011D01*
X8647Y-2977D01*
X8591Y-2953D01*
X8532Y-2941D01*
X8471Y-2941D01*
X8412Y-2952D01*
X8356Y-2975D01*
X8305Y-3008D01*
X8262Y-3050D01*
X8228Y-3100D01*
X8204Y-3156D01*
X8191Y-3215D01*
X8191Y-3230D01*
X6850Y-4571D01*
X6850Y-1990D01*
X6850Y-1009D01*
X6850Y-989D01*
X6846Y-970D01*
X6838Y-952D01*
X6827Y-935D01*
X6813Y-921D01*
X6797Y-910D01*
X6779Y-903D01*
X6759Y-899D01*
X6525Y-899D01*
X6500Y-924D01*
X6500Y-1250D01*
X6825Y-1250D01*
X6850Y-1224D01*
X6850Y-1009D01*
X6850Y-1990D01*
X6850Y-1775D01*
X6825Y-1750D01*
X6500Y-1750D01*
X6500Y-2075D01*
X6525Y-2100D01*
X6759Y-2100D01*
X6779Y-2096D01*
X6797Y-2089D01*
X6813Y-2078D01*
X6827Y-2064D01*
X6838Y-2047D01*
X6846Y-2029D01*
X6850Y-2010D01*
X6850Y-1990D01*
X6850Y-4571D01*
X6000Y-5422D01*
X6000Y-2075D01*
X6000Y-1750D01*
X6000Y-1250D01*
X6000Y-924D01*
X5974Y-899D01*
X5740Y-899D01*
X5720Y-903D01*
X5702Y-910D01*
X5686Y-921D01*
X5672Y-935D01*
X5661Y-952D01*
X5653Y-970D01*
X5649Y-989D01*
X5649Y-1009D01*
X5649Y-1224D01*
X5674Y-1250D01*
X6000Y-1250D01*
X6000Y-1750D01*
X5674Y-1750D01*
X5649Y-1775D01*
X5649Y-1990D01*
X5649Y-2010D01*
X5653Y-2029D01*
X5661Y-2047D01*
X5672Y-2064D01*
X5686Y-2078D01*
X5702Y-2089D01*
X5720Y-2096D01*
X5740Y-2100D01*
X5974Y-2100D01*
X6000Y-2075D01*
X6000Y-5422D01*
X5533Y-5888D01*
X5533Y-120D01*
X13244Y-120D01*
X13517Y-146D01*
X13775Y-224D01*
X14013Y-351D01*
X14221Y-521D01*
X14393Y-728D01*
X14521Y-965D01*
X14601Y-1222D01*
X14629Y-1496D01*
X14629Y-1500D01*
X14629Y-17994D01*
X14629Y-17994D01*
G37*
G54D21*
X14629Y-17994D02*
X14603Y-18267D01*
X14525Y-18525D01*
X14398Y-18763D01*
X14239Y-18959D01*
X14239Y-1560D01*
X14232Y-1366D01*
X14208Y-1248D01*
X14138Y-1121D01*
X13759Y-1500D01*
X14138Y-1878D01*
X14208Y-1751D01*
X14239Y-1560D01*
X14239Y-18959D01*
X14228Y-18971D01*
X14154Y-19033D01*
X14154Y-18021D01*
X14141Y-17845D01*
X14133Y-17805D01*
X14133Y-15487D01*
X14133Y-14529D01*
X14133Y-12663D01*
X14133Y-10663D01*
X14133Y-8663D01*
X14099Y-8493D01*
X14033Y-8333D01*
X13937Y-8188D01*
X13815Y-8065D01*
X13672Y-7969D01*
X13628Y-7950D01*
X13628Y-2388D01*
X13628Y-611D01*
X13501Y-541D01*
X13310Y-510D01*
X13116Y-517D01*
X12998Y-541D01*
X12871Y-611D01*
X13250Y-990D01*
X13628Y-611D01*
X13628Y-2388D01*
X13250Y-2009D01*
X12871Y-2388D01*
X12998Y-2458D01*
X13189Y-2489D01*
X13383Y-2482D01*
X13501Y-2458D01*
X13628Y-2388D01*
X13628Y-7950D01*
X13512Y-7901D01*
X13342Y-7867D01*
X13169Y-7865D01*
X12999Y-7898D01*
X12838Y-7963D01*
X12740Y-8027D01*
X12740Y-1500D01*
X12361Y-1121D01*
X12291Y-1248D01*
X12260Y-1439D01*
X12267Y-1633D01*
X12291Y-1751D01*
X12361Y-1878D01*
X12740Y-1500D01*
X12740Y-8027D01*
X12693Y-8058D01*
X12569Y-8179D01*
X12472Y-8322D01*
X12403Y-8481D01*
X12367Y-8651D01*
X12365Y-8824D01*
X12396Y-8994D01*
X12460Y-9155D01*
X12554Y-9301D01*
X12674Y-9426D01*
X12816Y-9524D01*
X12975Y-9594D01*
X13144Y-9631D01*
X13318Y-9635D01*
X13488Y-9605D01*
X13650Y-9542D01*
X13796Y-9449D01*
X13922Y-9330D01*
X14021Y-9188D01*
X14092Y-9030D01*
X14130Y-8861D01*
X14133Y-8663D01*
X14133Y-10663D01*
X14099Y-10493D01*
X14033Y-10333D01*
X13937Y-10188D01*
X13815Y-10065D01*
X13672Y-9969D01*
X13512Y-9901D01*
X13342Y-9867D01*
X13169Y-9865D01*
X12999Y-9898D01*
X12838Y-9963D01*
X12693Y-10058D01*
X12569Y-10179D01*
X12472Y-10322D01*
X12403Y-10481D01*
X12367Y-10651D01*
X12365Y-10824D01*
X12396Y-10994D01*
X12460Y-11155D01*
X12554Y-11301D01*
X12674Y-11426D01*
X12816Y-11524D01*
X12975Y-11594D01*
X13144Y-11631D01*
X13318Y-11635D01*
X13488Y-11605D01*
X13650Y-11542D01*
X13796Y-11449D01*
X13922Y-11330D01*
X14021Y-11188D01*
X14092Y-11030D01*
X14130Y-10861D01*
X14133Y-10663D01*
X14133Y-12663D01*
X14099Y-12493D01*
X14033Y-12333D01*
X13937Y-12188D01*
X13815Y-12065D01*
X13672Y-11969D01*
X13512Y-11901D01*
X13342Y-11867D01*
X13169Y-11865D01*
X12999Y-11898D01*
X12838Y-11963D01*
X12693Y-12058D01*
X12569Y-12179D01*
X12472Y-12322D01*
X12403Y-12481D01*
X12367Y-12651D01*
X12365Y-12824D01*
X12396Y-12994D01*
X12460Y-13155D01*
X12554Y-13301D01*
X12674Y-13426D01*
X12816Y-13524D01*
X12975Y-13594D01*
X13144Y-13631D01*
X13318Y-13635D01*
X13488Y-13605D01*
X13650Y-13542D01*
X13796Y-13449D01*
X13922Y-13330D01*
X14021Y-13188D01*
X14092Y-13030D01*
X14130Y-12861D01*
X14133Y-12663D01*
X14133Y-14529D01*
X14133Y-13986D01*
X14128Y-13961D01*
X14118Y-13937D01*
X14103Y-13915D01*
X14085Y-13896D01*
X14063Y-13882D01*
X14039Y-13871D01*
X14014Y-13866D01*
X13987Y-13866D01*
X12486Y-13866D01*
X12461Y-13871D01*
X12437Y-13881D01*
X12415Y-13896D01*
X12396Y-13914D01*
X12382Y-13936D01*
X12371Y-13960D01*
X12366Y-13985D01*
X12366Y-14012D01*
X12366Y-15513D01*
X12371Y-15538D01*
X12381Y-15562D01*
X12396Y-15584D01*
X12414Y-15603D01*
X12436Y-15617D01*
X12460Y-15628D01*
X12485Y-15633D01*
X12512Y-15633D01*
X14013Y-15633D01*
X14038Y-15628D01*
X14062Y-15618D01*
X14084Y-15603D01*
X14103Y-15585D01*
X14117Y-15563D01*
X14128Y-15539D01*
X14133Y-15514D01*
X14133Y-15487D01*
X14133Y-17805D01*
X14133Y-17803D01*
X14072Y-17687D01*
X13759Y-18000D01*
X14072Y-18312D01*
X14133Y-18196D01*
X14154Y-18021D01*
X14154Y-19033D01*
X14021Y-19143D01*
X13784Y-19271D01*
X13562Y-19340D01*
X13562Y-18822D01*
X13562Y-17177D01*
X13446Y-17116D01*
X13271Y-17095D01*
X13095Y-17108D01*
X13053Y-17116D01*
X12937Y-17177D01*
X13250Y-17490D01*
X13562Y-17177D01*
X13562Y-18822D01*
X13250Y-18509D01*
X12937Y-18822D01*
X13053Y-18883D01*
X13228Y-18904D01*
X13404Y-18891D01*
X13446Y-18883D01*
X13562Y-18822D01*
X13562Y-19340D01*
X13527Y-19351D01*
X13253Y-19379D01*
X13249Y-19379D01*
X12740Y-19379D01*
X12740Y-18000D01*
X12427Y-17687D01*
X12366Y-17803D01*
X12345Y-17978D01*
X12358Y-18154D01*
X12366Y-18196D01*
X12427Y-18312D01*
X12740Y-18000D01*
X12740Y-19379D01*
X11626Y-19379D01*
X11626Y-18022D01*
X11626Y-1522D01*
X11623Y-1448D01*
X11614Y-1404D01*
X11576Y-1368D01*
X11444Y-1500D01*
X11576Y-1631D01*
X11614Y-1595D01*
X11626Y-1522D01*
X11626Y-18022D01*
X11623Y-17948D01*
X11614Y-17904D01*
X11576Y-17868D01*
X11444Y-18000D01*
X11576Y-18131D01*
X11614Y-18095D01*
X11626Y-18022D01*
X11626Y-19379D01*
X11381Y-19379D01*
X11381Y-18326D01*
X11381Y-17673D01*
X11381Y-1826D01*
X11381Y-1173D01*
X11345Y-1135D01*
X11272Y-1123D01*
X11198Y-1126D01*
X11154Y-1135D01*
X11118Y-1173D01*
X11250Y-1305D01*
X11381Y-1173D01*
X11381Y-1826D01*
X11250Y-1694D01*
X11118Y-1826D01*
X11154Y-1864D01*
X11227Y-1876D01*
X11301Y-1873D01*
X11345Y-1864D01*
X11381Y-1826D01*
X11381Y-17673D01*
X11345Y-17635D01*
X11272Y-17623D01*
X11198Y-17626D01*
X11154Y-17635D01*
X11118Y-17673D01*
X11250Y-17805D01*
X11381Y-17673D01*
X11381Y-18326D01*
X11250Y-18194D01*
X11118Y-18326D01*
X11154Y-18364D01*
X11227Y-18376D01*
X11301Y-18373D01*
X11345Y-18364D01*
X11381Y-18326D01*
X11381Y-19379D01*
X11055Y-19379D01*
X11055Y-18000D01*
X11055Y-1500D01*
X10923Y-1368D01*
X10885Y-1404D01*
X10873Y-1477D01*
X10876Y-1551D01*
X10885Y-1595D01*
X10923Y-1631D01*
X11055Y-1500D01*
X11055Y-18000D01*
X10923Y-17868D01*
X10885Y-17904D01*
X10873Y-17977D01*
X10876Y-18051D01*
X10885Y-18095D01*
X10923Y-18131D01*
X11055Y-18000D01*
X11055Y-19379D01*
X10658Y-19379D01*
X10658Y-17959D01*
X10658Y-1459D01*
X10642Y-1381D01*
X10612Y-1307D01*
X10568Y-1240D01*
X10511Y-1183D01*
X10445Y-1138D01*
X10371Y-1107D01*
X10292Y-1091D01*
X10212Y-1091D01*
X10134Y-1106D01*
X10059Y-1136D01*
X9992Y-1180D01*
X9935Y-1236D01*
X9890Y-1302D01*
X9858Y-1375D01*
X9842Y-1454D01*
X9840Y-1534D01*
X9855Y-1613D01*
X9884Y-1687D01*
X9928Y-1754D01*
X9983Y-1812D01*
X10049Y-1858D01*
X10123Y-1890D01*
X10201Y-1907D01*
X10281Y-1909D01*
X10360Y-1895D01*
X10435Y-1866D01*
X10502Y-1823D01*
X10560Y-1768D01*
X10606Y-1702D01*
X10639Y-1629D01*
X10657Y-1551D01*
X10658Y-1459D01*
X10658Y-17959D01*
X10642Y-17881D01*
X10612Y-17807D01*
X10568Y-17740D01*
X10511Y-17683D01*
X10445Y-17638D01*
X10371Y-17607D01*
X10292Y-17591D01*
X10212Y-17591D01*
X10134Y-17606D01*
X10059Y-17636D01*
X9992Y-17680D01*
X9935Y-17736D01*
X9890Y-17802D01*
X9858Y-17875D01*
X9842Y-17954D01*
X9840Y-18034D01*
X9855Y-18113D01*
X9884Y-18187D01*
X9928Y-18254D01*
X9983Y-18312D01*
X10049Y-18358D01*
X10123Y-18390D01*
X10201Y-18407D01*
X10281Y-18409D01*
X10360Y-18395D01*
X10435Y-18366D01*
X10502Y-18323D01*
X10560Y-18268D01*
X10606Y-18202D01*
X10639Y-18129D01*
X10657Y-18051D01*
X10658Y-17959D01*
X10658Y-19379D01*
X9808Y-19379D01*
X9808Y-14469D01*
X9808Y-12719D01*
X9796Y-12660D01*
X9773Y-12604D01*
X9740Y-12554D01*
X9697Y-12511D01*
X9647Y-12477D01*
X9591Y-12453D01*
X9532Y-12441D01*
X9471Y-12441D01*
X9412Y-12452D01*
X9356Y-12475D01*
X9305Y-12508D01*
X9295Y-12518D01*
X7704Y-12518D01*
X7697Y-12511D01*
X7647Y-12477D01*
X7591Y-12453D01*
X7532Y-12441D01*
X7471Y-12441D01*
X7412Y-12452D01*
X7356Y-12475D01*
X7305Y-12508D01*
X7262Y-12550D01*
X7228Y-12600D01*
X7204Y-12656D01*
X7191Y-12715D01*
X7191Y-12775D01*
X7202Y-12835D01*
X7224Y-12891D01*
X7257Y-12942D01*
X7299Y-12986D01*
X7348Y-13020D01*
X7404Y-13044D01*
X7463Y-13057D01*
X7523Y-13059D01*
X7583Y-13048D01*
X7639Y-13026D01*
X7690Y-12994D01*
X7703Y-12981D01*
X9295Y-12981D01*
X9299Y-12986D01*
X9348Y-13020D01*
X9404Y-13044D01*
X9463Y-13057D01*
X9523Y-13059D01*
X9583Y-13048D01*
X9639Y-13026D01*
X9690Y-12994D01*
X9734Y-12952D01*
X9769Y-12903D01*
X9794Y-12847D01*
X9807Y-12788D01*
X9808Y-12719D01*
X9808Y-14469D01*
X9796Y-14410D01*
X9773Y-14354D01*
X9740Y-14304D01*
X9697Y-14261D01*
X9647Y-14227D01*
X9591Y-14203D01*
X9532Y-14191D01*
X9471Y-14191D01*
X9412Y-14202D01*
X9356Y-14225D01*
X9305Y-14258D01*
X9295Y-14268D01*
X8204Y-14268D01*
X8197Y-14261D01*
X8147Y-14227D01*
X8091Y-14203D01*
X8032Y-14191D01*
X7971Y-14191D01*
X7912Y-14202D01*
X7856Y-14225D01*
X7805Y-14258D01*
X7762Y-14300D01*
X7728Y-14350D01*
X7704Y-14406D01*
X7691Y-14465D01*
X7691Y-14525D01*
X7702Y-14585D01*
X7724Y-14641D01*
X7757Y-14692D01*
X7799Y-14736D01*
X7848Y-14770D01*
X7904Y-14794D01*
X7963Y-14807D01*
X8023Y-14809D01*
X8083Y-14798D01*
X8139Y-14776D01*
X8190Y-14744D01*
X8203Y-14731D01*
X9295Y-14731D01*
X9299Y-14736D01*
X9348Y-14770D01*
X9404Y-14794D01*
X9463Y-14807D01*
X9523Y-14809D01*
X9583Y-14798D01*
X9639Y-14776D01*
X9690Y-14744D01*
X9734Y-14702D01*
X9769Y-14653D01*
X9794Y-14597D01*
X9807Y-14538D01*
X9808Y-14469D01*
X9808Y-19379D01*
X9658Y-19379D01*
X9658Y-18262D01*
X9658Y-17711D01*
X9653Y-17686D01*
X9643Y-17662D01*
X9628Y-17640D01*
X9610Y-17621D01*
X9588Y-17607D01*
X9564Y-17596D01*
X9539Y-17591D01*
X9512Y-17591D01*
X8961Y-17591D01*
X8936Y-17596D01*
X8912Y-17606D01*
X8890Y-17621D01*
X8871Y-17639D01*
X8857Y-17661D01*
X8846Y-17685D01*
X8841Y-17710D01*
X8841Y-17737D01*
X8841Y-18288D01*
X8846Y-18313D01*
X8856Y-18337D01*
X8871Y-18359D01*
X8889Y-18378D01*
X8911Y-18392D01*
X8935Y-18403D01*
X8960Y-18408D01*
X8987Y-18408D01*
X9538Y-18408D01*
X9563Y-18403D01*
X9587Y-18393D01*
X9609Y-18378D01*
X9628Y-18360D01*
X9642Y-18338D01*
X9653Y-18314D01*
X9658Y-18289D01*
X9658Y-18262D01*
X9658Y-19379D01*
X6853Y-19379D01*
X6853Y-18003D01*
X6842Y-17886D01*
X6841Y-17879D01*
X6795Y-17808D01*
X6603Y-18000D01*
X6795Y-18191D01*
X6841Y-18120D01*
X6853Y-18003D01*
X6853Y-19379D01*
X6441Y-19379D01*
X6441Y-18545D01*
X6441Y-17454D01*
X6370Y-17408D01*
X6253Y-17396D01*
X6136Y-17407D01*
X6129Y-17408D01*
X6058Y-17454D01*
X6250Y-17646D01*
X6441Y-17454D01*
X6441Y-18545D01*
X6250Y-18353D01*
X6058Y-18545D01*
X6129Y-18591D01*
X6246Y-18603D01*
X6363Y-18592D01*
X6370Y-18591D01*
X6441Y-18545D01*
X6441Y-19379D01*
X5896Y-19379D01*
X5896Y-18000D01*
X5704Y-17808D01*
X5658Y-17879D01*
X5646Y-17996D01*
X5657Y-18113D01*
X5658Y-18120D01*
X5704Y-18191D01*
X5896Y-18000D01*
X5896Y-19379D01*
X5533Y-19379D01*
X5533Y-16044D01*
X6663Y-14913D01*
X6677Y-14897D01*
X6691Y-14881D01*
X6691Y-14879D01*
X6692Y-14878D01*
X6702Y-14860D01*
X6713Y-14841D01*
X6713Y-14840D01*
X6714Y-14839D01*
X6720Y-14818D01*
X6726Y-14798D01*
X6726Y-14797D01*
X6727Y-14795D01*
X6729Y-14774D01*
X6731Y-14753D01*
X6731Y-14750D01*
X6731Y-14750D01*
X6731Y-14750D01*
X6731Y-14750D01*
X6731Y-13500D01*
X6731Y-11653D01*
X6757Y-11692D01*
X6799Y-11736D01*
X6848Y-11770D01*
X6904Y-11794D01*
X6963Y-11807D01*
X7023Y-11809D01*
X7083Y-11798D01*
X7139Y-11776D01*
X7190Y-11744D01*
X7203Y-11731D01*
X9295Y-11731D01*
X9299Y-11736D01*
X9348Y-11770D01*
X9404Y-11794D01*
X9463Y-11807D01*
X9523Y-11809D01*
X9583Y-11798D01*
X9639Y-11776D01*
X9690Y-11744D01*
X9734Y-11702D01*
X9769Y-11653D01*
X9794Y-11597D01*
X9807Y-11538D01*
X9808Y-11469D01*
X9796Y-11410D01*
X9773Y-11354D01*
X9740Y-11304D01*
X9697Y-11261D01*
X9658Y-11234D01*
X9658Y-1762D01*
X9658Y-1211D01*
X9653Y-1186D01*
X9643Y-1162D01*
X9628Y-1140D01*
X9610Y-1121D01*
X9588Y-1107D01*
X9564Y-1096D01*
X9539Y-1091D01*
X9512Y-1091D01*
X8961Y-1091D01*
X8936Y-1096D01*
X8912Y-1106D01*
X8890Y-1121D01*
X8871Y-1139D01*
X8857Y-1161D01*
X8846Y-1185D01*
X8841Y-1210D01*
X8841Y-1237D01*
X8841Y-1788D01*
X8846Y-1813D01*
X8856Y-1837D01*
X8871Y-1859D01*
X8889Y-1878D01*
X8911Y-1892D01*
X8935Y-1903D01*
X8960Y-1908D01*
X8987Y-1908D01*
X9538Y-1908D01*
X9563Y-1903D01*
X9587Y-1893D01*
X9609Y-1878D01*
X9628Y-1860D01*
X9642Y-1838D01*
X9653Y-1814D01*
X9658Y-1789D01*
X9658Y-1762D01*
X9658Y-11234D01*
X9647Y-11227D01*
X9591Y-11203D01*
X9532Y-11191D01*
X9471Y-11191D01*
X9412Y-11202D01*
X9356Y-11225D01*
X9305Y-11258D01*
X9295Y-11268D01*
X7204Y-11268D01*
X7197Y-11261D01*
X7147Y-11227D01*
X7091Y-11203D01*
X7032Y-11191D01*
X6971Y-11191D01*
X6912Y-11202D01*
X6856Y-11225D01*
X6805Y-11258D01*
X6762Y-11300D01*
X6731Y-11345D01*
X6731Y-6846D01*
X8018Y-5558D01*
X8023Y-5559D01*
X8083Y-5548D01*
X8139Y-5526D01*
X8190Y-5494D01*
X8234Y-5452D01*
X8269Y-5403D01*
X8294Y-5347D01*
X8307Y-5288D01*
X8308Y-5219D01*
X8296Y-5160D01*
X8273Y-5104D01*
X8240Y-5054D01*
X8197Y-5011D01*
X8147Y-4977D01*
X8091Y-4953D01*
X8032Y-4941D01*
X7971Y-4941D01*
X7912Y-4952D01*
X7856Y-4975D01*
X7845Y-4982D01*
X8768Y-4058D01*
X8773Y-4059D01*
X8833Y-4048D01*
X8889Y-4026D01*
X8940Y-3994D01*
X8984Y-3952D01*
X9019Y-3903D01*
X9044Y-3847D01*
X9057Y-3788D01*
X9058Y-3719D01*
X9046Y-3660D01*
X9023Y-3604D01*
X8990Y-3554D01*
X8947Y-3511D01*
X8897Y-3477D01*
X8841Y-3453D01*
X8782Y-3441D01*
X8742Y-3441D01*
X8769Y-3403D01*
X8794Y-3347D01*
X8807Y-3288D01*
X8808Y-3219D01*
X8796Y-3160D01*
X8773Y-3104D01*
X8740Y-3054D01*
X8697Y-3011D01*
X8647Y-2977D01*
X8591Y-2953D01*
X8532Y-2941D01*
X8471Y-2941D01*
X8412Y-2952D01*
X8356Y-2975D01*
X8305Y-3008D01*
X8262Y-3050D01*
X8228Y-3100D01*
X8204Y-3156D01*
X8191Y-3215D01*
X8191Y-3230D01*
X6850Y-4571D01*
X6850Y-1990D01*
X6850Y-1009D01*
X6850Y-989D01*
X6846Y-970D01*
X6838Y-952D01*
X6827Y-935D01*
X6813Y-921D01*
X6797Y-910D01*
X6779Y-903D01*
X6759Y-899D01*
X6525Y-899D01*
X6500Y-924D01*
X6500Y-1250D01*
X6825Y-1250D01*
X6850Y-1224D01*
X6850Y-1009D01*
X6850Y-1990D01*
X6850Y-1775D01*
X6825Y-1750D01*
X6500Y-1750D01*
X6500Y-2075D01*
X6525Y-2100D01*
X6759Y-2100D01*
X6779Y-2096D01*
X6797Y-2089D01*
X6813Y-2078D01*
X6827Y-2064D01*
X6838Y-2047D01*
X6846Y-2029D01*
X6850Y-2010D01*
X6850Y-1990D01*
X6850Y-4571D01*
X6000Y-5422D01*
X6000Y-2075D01*
X6000Y-1750D01*
X6000Y-1250D01*
X6000Y-924D01*
X5974Y-899D01*
X5740Y-899D01*
X5720Y-903D01*
X5702Y-910D01*
X5686Y-921D01*
X5672Y-935D01*
X5661Y-952D01*
X5653Y-970D01*
X5649Y-989D01*
X5649Y-1009D01*
X5649Y-1224D01*
X5674Y-1250D01*
X6000Y-1250D01*
X6000Y-1750D01*
X5674Y-1750D01*
X5649Y-1775D01*
X5649Y-1990D01*
X5649Y-2010D01*
X5653Y-2029D01*
X5661Y-2047D01*
X5672Y-2064D01*
X5686Y-2078D01*
X5702Y-2089D01*
X5720Y-2096D01*
X5740Y-2100D01*
X5974Y-2100D01*
X6000Y-2075D01*
X6000Y-5422D01*
X5533Y-5888D01*
X5533Y-120D01*
X13244Y-120D01*
X13517Y-146D01*
X13775Y-224D01*
X14013Y-351D01*
X14221Y-521D01*
X14393Y-728D01*
X14521Y-965D01*
X14601Y-1222D01*
X14629Y-1496D01*
X14629Y-1500D01*
X14629Y-17994D01*
G54D10*
G36*
X4966Y-19379D02*
X4850Y-19379D01*
X4850Y-18490D01*
X4850Y-17509D01*
X4850Y-17489D01*
X4846Y-17470D01*
X4838Y-17452D01*
X4827Y-17435D01*
X4813Y-17421D01*
X4797Y-17410D01*
X4779Y-17403D01*
X4759Y-17399D01*
X4525Y-17399D01*
X4500Y-17424D01*
X4500Y-17750D01*
X4825Y-17750D01*
X4850Y-17724D01*
X4850Y-17509D01*
X4850Y-18490D01*
X4850Y-18275D01*
X4825Y-18250D01*
X4500Y-18250D01*
X4500Y-18575D01*
X4525Y-18600D01*
X4759Y-18600D01*
X4779Y-18596D01*
X4797Y-18589D01*
X4813Y-18578D01*
X4827Y-18564D01*
X4838Y-18547D01*
X4846Y-18529D01*
X4850Y-18510D01*
X4850Y-18490D01*
X4850Y-19379D01*
X4000Y-19379D01*
X4000Y-18575D01*
X4000Y-18250D01*
X4000Y-17750D01*
X4000Y-17424D01*
X3974Y-17399D01*
X3740Y-17399D01*
X3720Y-17403D01*
X3702Y-17410D01*
X3686Y-17421D01*
X3672Y-17435D01*
X3661Y-17452D01*
X3653Y-17470D01*
X3649Y-17489D01*
X3649Y-17509D01*
X3649Y-17724D01*
X3674Y-17750D01*
X4000Y-17750D01*
X4000Y-18250D01*
X3674Y-18250D01*
X3649Y-18275D01*
X3649Y-18490D01*
X3649Y-18510D01*
X3653Y-18529D01*
X3661Y-18547D01*
X3672Y-18564D01*
X3686Y-18578D01*
X3702Y-18589D01*
X3720Y-18596D01*
X3740Y-18600D01*
X3974Y-18600D01*
X4000Y-18575D01*
X4000Y-19379D01*
X2433Y-19379D01*
X2433Y-17908D01*
X2433Y-1408D01*
X2397Y-1228D01*
X2328Y-1059D01*
X2226Y-907D01*
X2097Y-777D01*
X1946Y-674D01*
X1777Y-603D01*
X1598Y-567D01*
X1414Y-565D01*
X1235Y-600D01*
X1065Y-668D01*
X912Y-768D01*
X781Y-897D01*
X678Y-1048D01*
X605Y-1216D01*
X567Y-1395D01*
X565Y-1578D01*
X598Y-1758D01*
X665Y-1928D01*
X764Y-2082D01*
X892Y-2214D01*
X1042Y-2318D01*
X1210Y-2392D01*
X1388Y-2431D01*
X1571Y-2435D01*
X1752Y-2403D01*
X1922Y-2337D01*
X2077Y-2239D01*
X2210Y-2112D01*
X2315Y-1963D01*
X2390Y-1796D01*
X2430Y-1617D01*
X2433Y-1408D01*
X2433Y-17908D01*
X2397Y-17728D01*
X2328Y-17559D01*
X2226Y-17407D01*
X2097Y-17277D01*
X1946Y-17174D01*
X1777Y-17103D01*
X1598Y-17067D01*
X1414Y-17065D01*
X1235Y-17100D01*
X1065Y-17168D01*
X912Y-17268D01*
X781Y-17397D01*
X678Y-17548D01*
X605Y-17716D01*
X567Y-17895D01*
X565Y-18078D01*
X598Y-18258D01*
X665Y-18428D01*
X764Y-18582D01*
X892Y-18714D01*
X1042Y-18818D01*
X1210Y-18892D01*
X1388Y-18931D01*
X1571Y-18935D01*
X1752Y-18903D01*
X1922Y-18837D01*
X2077Y-18739D01*
X2210Y-18612D01*
X2315Y-18463D01*
X2390Y-18296D01*
X2430Y-18117D01*
X2433Y-17908D01*
X2433Y-19379D01*
X1505Y-19379D01*
X1232Y-19353D01*
X974Y-19275D01*
X736Y-19148D01*
X528Y-18978D01*
X356Y-18771D01*
X228Y-18534D01*
X148Y-18277D01*
X120Y-18003D01*
X120Y-17999D01*
X120Y-1505D01*
X146Y-1232D01*
X224Y-974D01*
X351Y-736D01*
X521Y-528D01*
X728Y-356D01*
X965Y-228D01*
X1222Y-148D01*
X1496Y-120D01*
X1500Y-120D01*
X4966Y-120D01*
X4966Y-15768D01*
X4853Y-15768D01*
X4853Y-1503D01*
X4842Y-1386D01*
X4841Y-1379D01*
X4795Y-1308D01*
X4603Y-1500D01*
X4795Y-1691D01*
X4841Y-1620D01*
X4853Y-1503D01*
X4853Y-15768D01*
X4441Y-15768D01*
X4441Y-2045D01*
X4441Y-954D01*
X4370Y-908D01*
X4253Y-896D01*
X4136Y-907D01*
X4129Y-908D01*
X4058Y-954D01*
X4250Y-1146D01*
X4441Y-954D01*
X4441Y-2045D01*
X4250Y-1853D01*
X4058Y-2045D01*
X4129Y-2091D01*
X4246Y-2103D01*
X4363Y-2092D01*
X4370Y-2091D01*
X4441Y-2045D01*
X4441Y-15768D01*
X3954Y-15768D01*
X3947Y-15761D01*
X3897Y-15727D01*
X3896Y-15726D01*
X3896Y-1500D01*
X3704Y-1308D01*
X3658Y-1379D01*
X3646Y-1496D01*
X3657Y-1613D01*
X3658Y-1620D01*
X3704Y-1691D01*
X3896Y-1500D01*
X3896Y-15726D01*
X3841Y-15703D01*
X3782Y-15691D01*
X3721Y-15691D01*
X3662Y-15702D01*
X3606Y-15725D01*
X3555Y-15758D01*
X3512Y-15800D01*
X3478Y-15850D01*
X3454Y-15906D01*
X3441Y-15965D01*
X3441Y-16025D01*
X3452Y-16085D01*
X3474Y-16141D01*
X3507Y-16192D01*
X3549Y-16236D01*
X3598Y-16270D01*
X3654Y-16294D01*
X3713Y-16307D01*
X3773Y-16309D01*
X3833Y-16298D01*
X3889Y-16276D01*
X3940Y-16244D01*
X3953Y-16231D01*
X4966Y-16231D01*
X4966Y-19379D01*
X4966Y-19379D01*
G37*
G54D21*
X4966Y-19379D02*
X4850Y-19379D01*
X4850Y-18490D01*
X4850Y-17509D01*
X4850Y-17489D01*
X4846Y-17470D01*
X4838Y-17452D01*
X4827Y-17435D01*
X4813Y-17421D01*
X4797Y-17410D01*
X4779Y-17403D01*
X4759Y-17399D01*
X4525Y-17399D01*
X4500Y-17424D01*
X4500Y-17750D01*
X4825Y-17750D01*
X4850Y-17724D01*
X4850Y-17509D01*
X4850Y-18490D01*
X4850Y-18275D01*
X4825Y-18250D01*
X4500Y-18250D01*
X4500Y-18575D01*
X4525Y-18600D01*
X4759Y-18600D01*
X4779Y-18596D01*
X4797Y-18589D01*
X4813Y-18578D01*
X4827Y-18564D01*
X4838Y-18547D01*
X4846Y-18529D01*
X4850Y-18510D01*
X4850Y-18490D01*
X4850Y-19379D01*
X4000Y-19379D01*
X4000Y-18575D01*
X4000Y-18250D01*
X4000Y-17750D01*
X4000Y-17424D01*
X3974Y-17399D01*
X3740Y-17399D01*
X3720Y-17403D01*
X3702Y-17410D01*
X3686Y-17421D01*
X3672Y-17435D01*
X3661Y-17452D01*
X3653Y-17470D01*
X3649Y-17489D01*
X3649Y-17509D01*
X3649Y-17724D01*
X3674Y-17750D01*
X4000Y-17750D01*
X4000Y-18250D01*
X3674Y-18250D01*
X3649Y-18275D01*
X3649Y-18490D01*
X3649Y-18510D01*
X3653Y-18529D01*
X3661Y-18547D01*
X3672Y-18564D01*
X3686Y-18578D01*
X3702Y-18589D01*
X3720Y-18596D01*
X3740Y-18600D01*
X3974Y-18600D01*
X4000Y-18575D01*
X4000Y-19379D01*
X2433Y-19379D01*
X2433Y-17908D01*
X2433Y-1408D01*
X2397Y-1228D01*
X2328Y-1059D01*
X2226Y-907D01*
X2097Y-777D01*
X1946Y-674D01*
X1777Y-603D01*
X1598Y-567D01*
X1414Y-565D01*
X1235Y-600D01*
X1065Y-668D01*
X912Y-768D01*
X781Y-897D01*
X678Y-1048D01*
X605Y-1216D01*
X567Y-1395D01*
X565Y-1578D01*
X598Y-1758D01*
X665Y-1928D01*
X764Y-2082D01*
X892Y-2214D01*
X1042Y-2318D01*
X1210Y-2392D01*
X1388Y-2431D01*
X1571Y-2435D01*
X1752Y-2403D01*
X1922Y-2337D01*
X2077Y-2239D01*
X2210Y-2112D01*
X2315Y-1963D01*
X2390Y-1796D01*
X2430Y-1617D01*
X2433Y-1408D01*
X2433Y-17908D01*
X2397Y-17728D01*
X2328Y-17559D01*
X2226Y-17407D01*
X2097Y-17277D01*
X1946Y-17174D01*
X1777Y-17103D01*
X1598Y-17067D01*
X1414Y-17065D01*
X1235Y-17100D01*
X1065Y-17168D01*
X912Y-17268D01*
X781Y-17397D01*
X678Y-17548D01*
X605Y-17716D01*
X567Y-17895D01*
X565Y-18078D01*
X598Y-18258D01*
X665Y-18428D01*
X764Y-18582D01*
X892Y-18714D01*
X1042Y-18818D01*
X1210Y-18892D01*
X1388Y-18931D01*
X1571Y-18935D01*
X1752Y-18903D01*
X1922Y-18837D01*
X2077Y-18739D01*
X2210Y-18612D01*
X2315Y-18463D01*
X2390Y-18296D01*
X2430Y-18117D01*
X2433Y-17908D01*
X2433Y-19379D01*
X1505Y-19379D01*
X1232Y-19353D01*
X974Y-19275D01*
X736Y-19148D01*
X528Y-18978D01*
X356Y-18771D01*
X228Y-18534D01*
X148Y-18277D01*
X120Y-18003D01*
X120Y-17999D01*
X120Y-1505D01*
X146Y-1232D01*
X224Y-974D01*
X351Y-736D01*
X521Y-528D01*
X728Y-356D01*
X965Y-228D01*
X1222Y-148D01*
X1496Y-120D01*
X1500Y-120D01*
X4966Y-120D01*
X4966Y-15768D01*
X4853Y-15768D01*
X4853Y-1503D01*
X4842Y-1386D01*
X4841Y-1379D01*
X4795Y-1308D01*
X4603Y-1500D01*
X4795Y-1691D01*
X4841Y-1620D01*
X4853Y-1503D01*
X4853Y-15768D01*
X4441Y-15768D01*
X4441Y-2045D01*
X4441Y-954D01*
X4370Y-908D01*
X4253Y-896D01*
X4136Y-907D01*
X4129Y-908D01*
X4058Y-954D01*
X4250Y-1146D01*
X4441Y-954D01*
X4441Y-2045D01*
X4250Y-1853D01*
X4058Y-2045D01*
X4129Y-2091D01*
X4246Y-2103D01*
X4363Y-2092D01*
X4370Y-2091D01*
X4441Y-2045D01*
X4441Y-15768D01*
X3954Y-15768D01*
X3947Y-15761D01*
X3897Y-15727D01*
X3896Y-15726D01*
X3896Y-1500D01*
X3704Y-1308D01*
X3658Y-1379D01*
X3646Y-1496D01*
X3657Y-1613D01*
X3658Y-1620D01*
X3704Y-1691D01*
X3896Y-1500D01*
X3896Y-15726D01*
X3841Y-15703D01*
X3782Y-15691D01*
X3721Y-15691D01*
X3662Y-15702D01*
X3606Y-15725D01*
X3555Y-15758D01*
X3512Y-15800D01*
X3478Y-15850D01*
X3454Y-15906D01*
X3441Y-15965D01*
X3441Y-16025D01*
X3452Y-16085D01*
X3474Y-16141D01*
X3507Y-16192D01*
X3549Y-16236D01*
X3598Y-16270D01*
X3654Y-16294D01*
X3713Y-16307D01*
X3773Y-16309D01*
X3833Y-16298D01*
X3889Y-16276D01*
X3940Y-16244D01*
X3953Y-16231D01*
X4966Y-16231D01*
X4966Y-19379D01*
M02*
