G04 (created by PCBNEW (2013-may-18)-stable) date Tue 26 May 2015 10:23:06 PM CEST*
%MOIN*%
G04 Gerber Fmt 3.4, Leading zero omitted, Abs format*
%FSLAX34Y34*%
G01*
G70*
G90*
G04 APERTURE LIST*
%ADD10C,0.00590551*%
%ADD11C,0.00738189*%
%ADD12C,0.011811*%
%ADD13C,0.0047*%
%ADD14C,0.005*%
%ADD15C,0.008*%
%ADD16C,0.0059*%
%ADD17C,0.012*%
%ADD18C,0.015*%
%ADD19C,0.00787402*%
%ADD20R,0.036X0.036*%
%ADD21R,0.0709X0.0512*%
%ADD22R,0.0709X0.1496*%
%ADD23R,0.02X0.045*%
%ADD24R,0.1181X0.0787*%
%ADD25R,0.025X0.045*%
%ADD26R,0.045X0.025*%
%ADD27R,0.055X0.055*%
%ADD28C,0.055*%
%ADD29R,0.063X0.1024*%
%ADD30C,0.15*%
%ADD31R,0.15X0.15*%
%ADD32R,0.1X0.1*%
%ADD33C,0.1*%
%ADD34C,0.177165*%
%ADD35C,0.16*%
G04 APERTURE END LIST*
G54D10*
G54D11*
X60824Y-55770D02*
X61119Y-55671D01*
X60824Y-55573D01*
X61091Y-55474D02*
X61105Y-55460D01*
X61119Y-55474D01*
X61105Y-55489D01*
X61091Y-55474D01*
X61119Y-55474D01*
X60824Y-55278D02*
X60824Y-55250D01*
X60838Y-55221D01*
X60852Y-55207D01*
X60880Y-55193D01*
X60936Y-55179D01*
X61007Y-55179D01*
X61063Y-55193D01*
X61091Y-55207D01*
X61105Y-55221D01*
X61119Y-55250D01*
X61119Y-55278D01*
X61105Y-55306D01*
X61091Y-55320D01*
X61063Y-55334D01*
X61007Y-55348D01*
X60936Y-55348D01*
X60880Y-55334D01*
X60852Y-55320D01*
X60838Y-55306D01*
X60824Y-55278D01*
X61091Y-55053D02*
X61105Y-55039D01*
X61119Y-55053D01*
X61105Y-55067D01*
X61091Y-55053D01*
X61119Y-55053D01*
X61119Y-54757D02*
X61119Y-54926D01*
X61119Y-54842D02*
X60824Y-54842D01*
X60866Y-54870D01*
X60894Y-54898D01*
X60908Y-54926D01*
X67841Y-46149D02*
X67855Y-46163D01*
X67869Y-46206D01*
X67869Y-46234D01*
X67855Y-46276D01*
X67827Y-46304D01*
X67799Y-46318D01*
X67742Y-46332D01*
X67700Y-46332D01*
X67644Y-46318D01*
X67616Y-46304D01*
X67588Y-46276D01*
X67574Y-46234D01*
X67574Y-46206D01*
X67588Y-46163D01*
X67602Y-46149D01*
X67869Y-45882D02*
X67869Y-46023D01*
X67574Y-46023D01*
X67869Y-45784D02*
X67574Y-45784D01*
X67869Y-45615D02*
X67700Y-45742D01*
X67574Y-45615D02*
X67742Y-45784D01*
X67574Y-45432D02*
X67574Y-45376D01*
X67588Y-45348D01*
X67616Y-45320D01*
X67672Y-45306D01*
X67771Y-45306D01*
X67827Y-45320D01*
X67855Y-45348D01*
X67869Y-45376D01*
X67869Y-45432D01*
X67855Y-45460D01*
X67827Y-45489D01*
X67771Y-45503D01*
X67672Y-45503D01*
X67616Y-45489D01*
X67588Y-45460D01*
X67574Y-45432D01*
X68869Y-45784D02*
X68574Y-45784D01*
X68574Y-45714D01*
X68588Y-45671D01*
X68616Y-45643D01*
X68644Y-45629D01*
X68700Y-45615D01*
X68742Y-45615D01*
X68799Y-45629D01*
X68827Y-45643D01*
X68855Y-45671D01*
X68869Y-45714D01*
X68869Y-45784D01*
X68574Y-45432D02*
X68574Y-45376D01*
X68588Y-45348D01*
X68616Y-45320D01*
X68672Y-45306D01*
X68771Y-45306D01*
X68827Y-45320D01*
X68855Y-45348D01*
X68869Y-45376D01*
X68869Y-45432D01*
X68855Y-45460D01*
X68827Y-45489D01*
X68771Y-45503D01*
X68672Y-45503D01*
X68616Y-45489D01*
X68588Y-45460D01*
X68574Y-45432D01*
X69588Y-45924D02*
X69574Y-45953D01*
X69574Y-45995D01*
X69588Y-46037D01*
X69616Y-46065D01*
X69644Y-46079D01*
X69700Y-46093D01*
X69742Y-46093D01*
X69799Y-46079D01*
X69827Y-46065D01*
X69855Y-46037D01*
X69869Y-45995D01*
X69869Y-45967D01*
X69855Y-45924D01*
X69841Y-45910D01*
X69742Y-45910D01*
X69742Y-45967D01*
X69869Y-45784D02*
X69574Y-45784D01*
X69869Y-45615D01*
X69574Y-45615D01*
X69869Y-45474D02*
X69574Y-45474D01*
X69574Y-45404D01*
X69588Y-45362D01*
X69616Y-45334D01*
X69644Y-45320D01*
X69700Y-45306D01*
X69742Y-45306D01*
X69799Y-45320D01*
X69827Y-45334D01*
X69855Y-45362D01*
X69869Y-45404D01*
X69869Y-45474D01*
X69588Y-60025D02*
X69574Y-60053D01*
X69574Y-60095D01*
X69588Y-60137D01*
X69616Y-60165D01*
X69644Y-60179D01*
X69700Y-60193D01*
X69742Y-60193D01*
X69799Y-60179D01*
X69827Y-60165D01*
X69855Y-60137D01*
X69869Y-60095D01*
X69869Y-60067D01*
X69855Y-60025D01*
X69841Y-60010D01*
X69742Y-60010D01*
X69742Y-60067D01*
X69869Y-59884D02*
X69574Y-59884D01*
X69869Y-59715D01*
X69574Y-59715D01*
X69869Y-59575D02*
X69574Y-59575D01*
X69574Y-59504D01*
X69588Y-59462D01*
X69616Y-59434D01*
X69644Y-59420D01*
X69700Y-59406D01*
X69742Y-59406D01*
X69799Y-59420D01*
X69827Y-59434D01*
X69855Y-59462D01*
X69869Y-59504D01*
X69869Y-59575D01*
X68869Y-60179D02*
X68574Y-60179D01*
X68574Y-60109D01*
X68588Y-60067D01*
X68616Y-60039D01*
X68644Y-60025D01*
X68700Y-60010D01*
X68742Y-60010D01*
X68799Y-60025D01*
X68827Y-60039D01*
X68855Y-60067D01*
X68869Y-60109D01*
X68869Y-60179D01*
X68869Y-59884D02*
X68574Y-59884D01*
X67841Y-60010D02*
X67855Y-60025D01*
X67869Y-60067D01*
X67869Y-60095D01*
X67855Y-60137D01*
X67827Y-60165D01*
X67799Y-60179D01*
X67742Y-60193D01*
X67700Y-60193D01*
X67644Y-60179D01*
X67616Y-60165D01*
X67588Y-60137D01*
X67574Y-60095D01*
X67574Y-60067D01*
X67588Y-60025D01*
X67602Y-60010D01*
X67869Y-59743D02*
X67869Y-59884D01*
X67574Y-59884D01*
X67869Y-59645D02*
X67574Y-59645D01*
X67869Y-59476D02*
X67700Y-59603D01*
X67574Y-59476D02*
X67742Y-59645D01*
X67869Y-59350D02*
X67574Y-59350D01*
X61119Y-53766D02*
X60824Y-53766D01*
X60936Y-53766D02*
X60922Y-53737D01*
X60922Y-53681D01*
X60936Y-53653D01*
X60950Y-53639D01*
X60978Y-53625D01*
X61063Y-53625D01*
X61091Y-53639D01*
X61105Y-53653D01*
X61119Y-53681D01*
X61119Y-53737D01*
X61105Y-53766D01*
X60922Y-53526D02*
X61119Y-53456D01*
X60922Y-53386D02*
X61119Y-53456D01*
X61189Y-53484D01*
X61203Y-53498D01*
X61217Y-53526D01*
X61105Y-53062D02*
X61119Y-53020D01*
X61119Y-52950D01*
X61105Y-52922D01*
X61091Y-52908D01*
X61063Y-52894D01*
X61035Y-52894D01*
X61007Y-52908D01*
X60992Y-52922D01*
X60978Y-52950D01*
X60964Y-53006D01*
X60950Y-53034D01*
X60936Y-53048D01*
X60908Y-53062D01*
X60880Y-53062D01*
X60852Y-53048D01*
X60838Y-53034D01*
X60824Y-53006D01*
X60824Y-52936D01*
X60838Y-52894D01*
X61105Y-52655D02*
X61119Y-52683D01*
X61119Y-52739D01*
X61105Y-52767D01*
X61077Y-52781D01*
X60964Y-52781D01*
X60936Y-52767D01*
X60922Y-52739D01*
X60922Y-52683D01*
X60936Y-52655D01*
X60964Y-52641D01*
X60992Y-52641D01*
X61021Y-52781D01*
X61119Y-52514D02*
X60824Y-52514D01*
X60936Y-52514D02*
X60922Y-52486D01*
X60922Y-52430D01*
X60936Y-52402D01*
X60950Y-52388D01*
X60978Y-52374D01*
X61063Y-52374D01*
X61091Y-52388D01*
X61105Y-52402D01*
X61119Y-52430D01*
X61119Y-52486D01*
X61105Y-52514D01*
X61119Y-52120D02*
X60964Y-52120D01*
X60936Y-52134D01*
X60922Y-52163D01*
X60922Y-52219D01*
X60936Y-52247D01*
X61105Y-52120D02*
X61119Y-52149D01*
X61119Y-52219D01*
X61105Y-52247D01*
X61077Y-52261D01*
X61049Y-52261D01*
X61021Y-52247D01*
X61007Y-52219D01*
X61007Y-52149D01*
X60992Y-52120D01*
X61105Y-51994D02*
X61119Y-51966D01*
X61119Y-51910D01*
X61105Y-51881D01*
X61077Y-51867D01*
X61063Y-51867D01*
X61035Y-51881D01*
X61021Y-51910D01*
X61021Y-51952D01*
X61007Y-51980D01*
X60978Y-51994D01*
X60964Y-51994D01*
X60936Y-51980D01*
X60922Y-51952D01*
X60922Y-51910D01*
X60936Y-51881D01*
X60922Y-51783D02*
X60922Y-51670D01*
X60824Y-51741D02*
X61077Y-51741D01*
X61105Y-51727D01*
X61119Y-51699D01*
X61119Y-51670D01*
X61119Y-51572D02*
X60922Y-51572D01*
X60824Y-51572D02*
X60838Y-51586D01*
X60852Y-51572D01*
X60838Y-51558D01*
X60824Y-51572D01*
X60852Y-51572D01*
X61119Y-51305D02*
X60964Y-51305D01*
X60936Y-51319D01*
X60922Y-51347D01*
X60922Y-51403D01*
X60936Y-51431D01*
X61105Y-51305D02*
X61119Y-51333D01*
X61119Y-51403D01*
X61105Y-51431D01*
X61077Y-51446D01*
X61049Y-51446D01*
X61021Y-51431D01*
X61007Y-51403D01*
X61007Y-51333D01*
X60992Y-51305D01*
X60922Y-51164D02*
X61119Y-51164D01*
X60950Y-51164D02*
X60936Y-51150D01*
X60922Y-51122D01*
X60922Y-51080D01*
X60936Y-51052D01*
X60964Y-51038D01*
X61119Y-51038D01*
X61105Y-50686D02*
X61119Y-50644D01*
X61119Y-50574D01*
X61105Y-50546D01*
X61091Y-50532D01*
X61063Y-50517D01*
X61035Y-50517D01*
X61007Y-50532D01*
X60992Y-50546D01*
X60978Y-50574D01*
X60964Y-50630D01*
X60950Y-50658D01*
X60936Y-50672D01*
X60908Y-50686D01*
X60880Y-50686D01*
X60852Y-50672D01*
X60838Y-50658D01*
X60824Y-50630D01*
X60824Y-50560D01*
X60838Y-50517D01*
X61105Y-50264D02*
X61119Y-50293D01*
X61119Y-50349D01*
X61105Y-50377D01*
X61091Y-50391D01*
X61063Y-50405D01*
X60978Y-50405D01*
X60950Y-50391D01*
X60936Y-50377D01*
X60922Y-50349D01*
X60922Y-50293D01*
X60936Y-50264D01*
X61119Y-50138D02*
X60824Y-50138D01*
X61119Y-50011D02*
X60964Y-50011D01*
X60936Y-50025D01*
X60922Y-50053D01*
X60922Y-50096D01*
X60936Y-50124D01*
X60950Y-50138D01*
X60922Y-49744D02*
X61119Y-49744D01*
X60922Y-49871D02*
X61077Y-49871D01*
X61105Y-49857D01*
X61119Y-49829D01*
X61119Y-49786D01*
X61105Y-49758D01*
X61091Y-49744D01*
X61119Y-49604D02*
X60922Y-49604D01*
X60950Y-49604D02*
X60936Y-49589D01*
X60922Y-49561D01*
X60922Y-49519D01*
X60936Y-49491D01*
X60964Y-49477D01*
X61119Y-49477D01*
X60964Y-49477D02*
X60936Y-49463D01*
X60922Y-49435D01*
X60922Y-49393D01*
X60936Y-49365D01*
X60964Y-49350D01*
X61119Y-49350D01*
X61119Y-49210D02*
X60824Y-49210D01*
X60936Y-49210D02*
X60922Y-49182D01*
X60922Y-49125D01*
X60936Y-49097D01*
X60950Y-49083D01*
X60978Y-49069D01*
X61063Y-49069D01*
X61091Y-49083D01*
X61105Y-49097D01*
X61119Y-49125D01*
X61119Y-49182D01*
X61105Y-49210D01*
X60852Y-48732D02*
X60838Y-48718D01*
X60824Y-48690D01*
X60824Y-48619D01*
X60838Y-48591D01*
X60852Y-48577D01*
X60880Y-48563D01*
X60908Y-48563D01*
X60950Y-48577D01*
X61119Y-48746D01*
X61119Y-48563D01*
X60824Y-48380D02*
X60824Y-48352D01*
X60838Y-48324D01*
X60852Y-48310D01*
X60880Y-48296D01*
X60936Y-48282D01*
X61007Y-48282D01*
X61063Y-48296D01*
X61091Y-48310D01*
X61105Y-48324D01*
X61119Y-48352D01*
X61119Y-48380D01*
X61105Y-48408D01*
X61091Y-48422D01*
X61063Y-48437D01*
X61007Y-48451D01*
X60936Y-48451D01*
X60880Y-48437D01*
X60852Y-48422D01*
X60838Y-48408D01*
X60824Y-48380D01*
X61119Y-48001D02*
X61119Y-48169D01*
X61119Y-48085D02*
X60824Y-48085D01*
X60866Y-48113D01*
X60894Y-48141D01*
X60908Y-48169D01*
X60824Y-47733D02*
X60824Y-47874D01*
X60964Y-47888D01*
X60950Y-47874D01*
X60936Y-47846D01*
X60936Y-47776D01*
X60950Y-47748D01*
X60964Y-47733D01*
X60992Y-47719D01*
X61063Y-47719D01*
X61091Y-47733D01*
X61105Y-47748D01*
X61119Y-47776D01*
X61119Y-47846D01*
X61105Y-47874D01*
X61091Y-47888D01*
G54D12*
X59281Y-58530D02*
X60068Y-58343D01*
X59506Y-58193D01*
X60068Y-58043D01*
X59281Y-57855D01*
X60031Y-57593D02*
X60068Y-57480D01*
X60068Y-57293D01*
X60031Y-57218D01*
X59993Y-57180D01*
X59918Y-57143D01*
X59843Y-57143D01*
X59768Y-57180D01*
X59731Y-57218D01*
X59693Y-57293D01*
X59656Y-57443D01*
X59618Y-57518D01*
X59581Y-57555D01*
X59506Y-57593D01*
X59431Y-57593D01*
X59356Y-57555D01*
X59318Y-57518D01*
X59281Y-57443D01*
X59281Y-57255D01*
X59318Y-57143D01*
X59356Y-56843D02*
X59318Y-56805D01*
X59281Y-56730D01*
X59281Y-56543D01*
X59318Y-56468D01*
X59356Y-56430D01*
X59431Y-56393D01*
X59506Y-56393D01*
X59618Y-56430D01*
X60068Y-56880D01*
X60068Y-56393D01*
X59618Y-55943D02*
X59581Y-56018D01*
X59543Y-56055D01*
X59468Y-56093D01*
X59431Y-56093D01*
X59356Y-56055D01*
X59318Y-56018D01*
X59281Y-55943D01*
X59281Y-55793D01*
X59318Y-55718D01*
X59356Y-55680D01*
X59431Y-55643D01*
X59468Y-55643D01*
X59543Y-55680D01*
X59581Y-55718D01*
X59618Y-55793D01*
X59618Y-55943D01*
X59656Y-56018D01*
X59693Y-56055D01*
X59768Y-56093D01*
X59918Y-56093D01*
X59993Y-56055D01*
X60031Y-56018D01*
X60068Y-55943D01*
X60068Y-55793D01*
X60031Y-55718D01*
X59993Y-55680D01*
X59918Y-55643D01*
X59768Y-55643D01*
X59693Y-55680D01*
X59656Y-55718D01*
X59618Y-55793D01*
X59281Y-55155D02*
X59281Y-55080D01*
X59318Y-55005D01*
X59356Y-54968D01*
X59431Y-54931D01*
X59581Y-54893D01*
X59768Y-54893D01*
X59918Y-54931D01*
X59993Y-54968D01*
X60031Y-55005D01*
X60068Y-55080D01*
X60068Y-55155D01*
X60031Y-55230D01*
X59993Y-55268D01*
X59918Y-55305D01*
X59768Y-55343D01*
X59581Y-55343D01*
X59431Y-55305D01*
X59356Y-55268D01*
X59318Y-55230D01*
X59281Y-55155D01*
X60068Y-54143D02*
X60068Y-54593D01*
X60068Y-54368D02*
X59281Y-54368D01*
X59393Y-54443D01*
X59468Y-54518D01*
X59506Y-54593D01*
X60068Y-52831D02*
X60068Y-53206D01*
X59281Y-53206D01*
X60031Y-52268D02*
X60068Y-52343D01*
X60068Y-52493D01*
X60031Y-52568D01*
X59956Y-52606D01*
X59656Y-52606D01*
X59581Y-52568D01*
X59543Y-52493D01*
X59543Y-52343D01*
X59581Y-52268D01*
X59656Y-52231D01*
X59731Y-52231D01*
X59806Y-52606D01*
X60068Y-51556D02*
X59281Y-51556D01*
X60031Y-51556D02*
X60068Y-51631D01*
X60068Y-51781D01*
X60031Y-51856D01*
X59993Y-51893D01*
X59918Y-51931D01*
X59693Y-51931D01*
X59618Y-51893D01*
X59581Y-51856D01*
X59543Y-51781D01*
X59543Y-51631D01*
X59581Y-51556D01*
X60068Y-50581D02*
X59281Y-50581D01*
X59281Y-50394D01*
X59318Y-50281D01*
X59393Y-50206D01*
X59468Y-50169D01*
X59618Y-50131D01*
X59731Y-50131D01*
X59881Y-50169D01*
X59956Y-50206D01*
X60031Y-50281D01*
X60068Y-50394D01*
X60068Y-50581D01*
X60068Y-49794D02*
X59543Y-49794D01*
X59693Y-49794D02*
X59618Y-49756D01*
X59581Y-49719D01*
X59543Y-49644D01*
X59543Y-49569D01*
X60068Y-49306D02*
X59543Y-49306D01*
X59281Y-49306D02*
X59318Y-49344D01*
X59356Y-49306D01*
X59318Y-49269D01*
X59281Y-49306D01*
X59356Y-49306D01*
X59543Y-49006D02*
X60068Y-48819D01*
X59543Y-48631D01*
X60031Y-48031D02*
X60068Y-48106D01*
X60068Y-48256D01*
X60031Y-48331D01*
X59956Y-48369D01*
X59656Y-48369D01*
X59581Y-48331D01*
X59543Y-48256D01*
X59543Y-48106D01*
X59581Y-48031D01*
X59656Y-47994D01*
X59731Y-47994D01*
X59806Y-48369D01*
X60068Y-47656D02*
X59543Y-47656D01*
X59693Y-47656D02*
X59618Y-47619D01*
X59581Y-47581D01*
X59543Y-47506D01*
X59543Y-47431D01*
G54D13*
X68850Y-58350D02*
X68850Y-57150D01*
X68850Y-57150D02*
X69150Y-57150D01*
X69150Y-57150D02*
X69150Y-58350D01*
X69150Y-58350D02*
X68850Y-58350D01*
X68850Y-56850D02*
X68850Y-55650D01*
X68850Y-55650D02*
X69150Y-55650D01*
X69150Y-55650D02*
X69150Y-56850D01*
X69150Y-56850D02*
X68850Y-56850D01*
X68850Y-55350D02*
X68850Y-54150D01*
X68850Y-54150D02*
X69150Y-54150D01*
X69150Y-54150D02*
X69150Y-55350D01*
X69150Y-55350D02*
X68850Y-55350D01*
G54D14*
X71435Y-48390D02*
X71435Y-49610D01*
X71435Y-49610D02*
X70730Y-49610D01*
X71435Y-48390D02*
X70730Y-48390D01*
X68565Y-49745D02*
X68565Y-50065D01*
X68565Y-50065D02*
X69270Y-50065D01*
X68565Y-49745D02*
X69270Y-49745D01*
X68565Y-48840D02*
X69270Y-48840D01*
X68565Y-49160D02*
X69270Y-49160D01*
X68565Y-48840D02*
X68565Y-49160D01*
X68565Y-47935D02*
X68565Y-48255D01*
X68565Y-48255D02*
X69270Y-48255D01*
X68565Y-47935D02*
X69270Y-47935D01*
X69270Y-50320D02*
X69270Y-47680D01*
X69270Y-47680D02*
X70730Y-47680D01*
X70730Y-47680D02*
X70730Y-50320D01*
X70730Y-50320D02*
X69270Y-50320D01*
G54D15*
X63100Y-56800D02*
X66900Y-56800D01*
X66900Y-56800D02*
X66900Y-58300D01*
X66900Y-58300D02*
X63100Y-58300D01*
X63100Y-58300D02*
X63100Y-56800D01*
X63100Y-57300D02*
X63400Y-57300D01*
X63400Y-57300D02*
X63400Y-57700D01*
X63400Y-57700D02*
X63100Y-57700D01*
G54D16*
X63577Y-46425D02*
X61923Y-46425D01*
X63577Y-46307D02*
X61923Y-46307D01*
X63577Y-49693D02*
X61923Y-49693D01*
X61921Y-48786D02*
X61921Y-49686D01*
X63579Y-49686D02*
X63579Y-48786D01*
X63579Y-47213D02*
X63579Y-46313D01*
X61921Y-46314D02*
X61921Y-47214D01*
G54D14*
X61800Y-57250D02*
X62700Y-57250D01*
X62700Y-57250D02*
X62700Y-57750D01*
X62700Y-57750D02*
X61800Y-57750D01*
X61800Y-57750D02*
X61800Y-57250D01*
X61800Y-58000D02*
X62700Y-58000D01*
X62700Y-58000D02*
X62700Y-58500D01*
X62700Y-58500D02*
X61800Y-58500D01*
X61800Y-58500D02*
X61800Y-58000D01*
X61800Y-56500D02*
X62700Y-56500D01*
X62700Y-56500D02*
X62700Y-57000D01*
X62700Y-57000D02*
X61800Y-57000D01*
X61800Y-57000D02*
X61800Y-56500D01*
X68550Y-46750D02*
X69450Y-46750D01*
X69450Y-46750D02*
X69450Y-47250D01*
X69450Y-47250D02*
X68550Y-47250D01*
X68550Y-47250D02*
X68550Y-46750D01*
X69800Y-46750D02*
X70700Y-46750D01*
X70700Y-46750D02*
X70700Y-47250D01*
X70700Y-47250D02*
X69800Y-47250D01*
X69800Y-47250D02*
X69800Y-46750D01*
X66250Y-47700D02*
X66250Y-46800D01*
X66250Y-46800D02*
X66750Y-46800D01*
X66750Y-46800D02*
X66750Y-47700D01*
X66750Y-47700D02*
X66250Y-47700D01*
X66750Y-50050D02*
X66750Y-50950D01*
X66750Y-50950D02*
X66250Y-50950D01*
X66250Y-50950D02*
X66250Y-50050D01*
X66250Y-50050D02*
X66750Y-50050D01*
G54D17*
X67250Y-45000D02*
X67250Y-44000D01*
X67250Y-44000D02*
X70250Y-44000D01*
X70250Y-44000D02*
X70250Y-45000D01*
X70250Y-45000D02*
X67250Y-45000D01*
X68250Y-44000D02*
X68250Y-45000D01*
G54D14*
X65000Y-50350D02*
X65000Y-50650D01*
X64850Y-50500D02*
X65150Y-50500D01*
X65900Y-50400D02*
X65900Y-51900D01*
X64400Y-50100D02*
X65600Y-50100D01*
X65900Y-50400D02*
X65600Y-50100D01*
X64100Y-50400D02*
X64100Y-51900D01*
X64100Y-50400D02*
X64400Y-50100D01*
X65050Y-51800D02*
X64950Y-51800D01*
X64750Y-51750D02*
X65250Y-51750D01*
X65350Y-51700D02*
X64650Y-51700D01*
X65450Y-51650D02*
X64550Y-51650D01*
X64500Y-51600D02*
X65500Y-51600D01*
X65550Y-51550D02*
X64450Y-51550D01*
X64400Y-51500D02*
X65600Y-51500D01*
X64350Y-51450D02*
X65650Y-51450D01*
X65800Y-51000D02*
G75*
G03X65800Y-51000I-800J0D01*
G74*
G01*
X64100Y-51900D02*
X65900Y-51900D01*
X65000Y-48150D02*
X65000Y-47850D01*
X65150Y-48000D02*
X64850Y-48000D01*
X64100Y-48100D02*
X64100Y-46600D01*
X65600Y-48400D02*
X64400Y-48400D01*
X64100Y-48100D02*
X64400Y-48400D01*
X65900Y-48100D02*
X65900Y-46600D01*
X65900Y-48100D02*
X65600Y-48400D01*
X64950Y-46700D02*
X65050Y-46700D01*
X65250Y-46750D02*
X64750Y-46750D01*
X64650Y-46800D02*
X65350Y-46800D01*
X64550Y-46850D02*
X65450Y-46850D01*
X65500Y-46900D02*
X64500Y-46900D01*
X64450Y-46950D02*
X65550Y-46950D01*
X65600Y-47000D02*
X64400Y-47000D01*
X65650Y-47050D02*
X64350Y-47050D01*
X65800Y-47500D02*
G75*
G03X65800Y-47500I-800J0D01*
G74*
G01*
X65900Y-46600D02*
X64100Y-46600D01*
G54D17*
X70250Y-58750D02*
X73250Y-58750D01*
X73250Y-50750D02*
X70250Y-50750D01*
X72750Y-50750D02*
X72750Y-58750D01*
X70250Y-58750D02*
X70250Y-50750D01*
X73250Y-58750D02*
X73250Y-50750D01*
X65750Y-62000D02*
X61750Y-62000D01*
X65750Y-62500D02*
X65750Y-59500D01*
X65750Y-59500D02*
X61750Y-59500D01*
X61750Y-59500D02*
X61750Y-62500D01*
X61750Y-62500D02*
X65750Y-62500D01*
X61750Y-43500D02*
X65750Y-43500D01*
X61750Y-43000D02*
X61750Y-46000D01*
X61750Y-46000D02*
X65750Y-46000D01*
X65750Y-46000D02*
X65750Y-43000D01*
X65750Y-43000D02*
X61750Y-43000D01*
X67250Y-61500D02*
X67250Y-60500D01*
X67250Y-60500D02*
X70250Y-60500D01*
X70250Y-60500D02*
X70250Y-61500D01*
X70250Y-61500D02*
X67250Y-61500D01*
X68250Y-60500D02*
X68250Y-61500D01*
G54D18*
X72650Y-44500D02*
G75*
G03X72650Y-44500I-900J0D01*
G74*
G01*
X72650Y-61000D02*
G75*
G03X72650Y-61000I-900J0D01*
G74*
G01*
X60900Y-61000D02*
G75*
G03X60900Y-61000I-900J0D01*
G74*
G01*
X60900Y-44500D02*
G75*
G03X60900Y-44500I-900J0D01*
G74*
G01*
G54D11*
X69471Y-58647D02*
X69443Y-58633D01*
X69415Y-58605D01*
X69373Y-58563D01*
X69345Y-58549D01*
X69317Y-58549D01*
X69331Y-58619D02*
X69303Y-58605D01*
X69275Y-58577D01*
X69260Y-58521D01*
X69260Y-58422D01*
X69275Y-58366D01*
X69303Y-58338D01*
X69331Y-58324D01*
X69387Y-58324D01*
X69415Y-58338D01*
X69443Y-58366D01*
X69457Y-58422D01*
X69457Y-58521D01*
X69443Y-58577D01*
X69415Y-58605D01*
X69387Y-58619D01*
X69331Y-58619D01*
X69556Y-58324D02*
X69739Y-58324D01*
X69640Y-58436D01*
X69682Y-58436D01*
X69710Y-58450D01*
X69724Y-58464D01*
X69739Y-58492D01*
X69739Y-58563D01*
X69724Y-58591D01*
X69710Y-58605D01*
X69682Y-58619D01*
X69598Y-58619D01*
X69570Y-58605D01*
X69556Y-58591D01*
G54D19*
G54D11*
X69471Y-57147D02*
X69443Y-57133D01*
X69415Y-57105D01*
X69373Y-57063D01*
X69345Y-57049D01*
X69317Y-57049D01*
X69331Y-57119D02*
X69303Y-57105D01*
X69275Y-57077D01*
X69260Y-57021D01*
X69260Y-56922D01*
X69275Y-56866D01*
X69303Y-56838D01*
X69331Y-56824D01*
X69387Y-56824D01*
X69415Y-56838D01*
X69443Y-56866D01*
X69457Y-56922D01*
X69457Y-57021D01*
X69443Y-57077D01*
X69415Y-57105D01*
X69387Y-57119D01*
X69331Y-57119D01*
X69570Y-56852D02*
X69584Y-56838D01*
X69612Y-56824D01*
X69682Y-56824D01*
X69710Y-56838D01*
X69724Y-56852D01*
X69739Y-56880D01*
X69739Y-56908D01*
X69724Y-56950D01*
X69556Y-57119D01*
X69739Y-57119D01*
G54D19*
G54D11*
X69471Y-55647D02*
X69443Y-55633D01*
X69415Y-55605D01*
X69373Y-55563D01*
X69345Y-55549D01*
X69317Y-55549D01*
X69331Y-55619D02*
X69303Y-55605D01*
X69275Y-55577D01*
X69260Y-55521D01*
X69260Y-55422D01*
X69275Y-55366D01*
X69303Y-55338D01*
X69331Y-55324D01*
X69387Y-55324D01*
X69415Y-55338D01*
X69443Y-55366D01*
X69457Y-55422D01*
X69457Y-55521D01*
X69443Y-55577D01*
X69415Y-55605D01*
X69387Y-55619D01*
X69331Y-55619D01*
X69739Y-55619D02*
X69570Y-55619D01*
X69654Y-55619D02*
X69654Y-55324D01*
X69626Y-55366D01*
X69598Y-55394D01*
X69570Y-55408D01*
G54D19*
G54D11*
X71025Y-50074D02*
X71025Y-50313D01*
X71039Y-50341D01*
X71053Y-50355D01*
X71081Y-50369D01*
X71137Y-50369D01*
X71165Y-50355D01*
X71179Y-50341D01*
X71193Y-50313D01*
X71193Y-50074D01*
X71489Y-50369D02*
X71320Y-50369D01*
X71404Y-50369D02*
X71404Y-50074D01*
X71376Y-50116D01*
X71348Y-50144D01*
X71320Y-50158D01*
G54D19*
G54D11*
X67025Y-58574D02*
X67025Y-58813D01*
X67039Y-58841D01*
X67053Y-58855D01*
X67081Y-58869D01*
X67137Y-58869D01*
X67165Y-58855D01*
X67179Y-58841D01*
X67193Y-58813D01*
X67193Y-58574D01*
X67320Y-58602D02*
X67334Y-58588D01*
X67362Y-58574D01*
X67432Y-58574D01*
X67460Y-58588D01*
X67474Y-58602D01*
X67489Y-58630D01*
X67489Y-58658D01*
X67474Y-58700D01*
X67306Y-58869D01*
X67489Y-58869D01*
G54D19*
G54D11*
X64170Y-57324D02*
X64240Y-57619D01*
X64296Y-57408D01*
X64353Y-57619D01*
X64423Y-57324D01*
X64521Y-57605D02*
X64564Y-57619D01*
X64634Y-57619D01*
X64662Y-57605D01*
X64676Y-57591D01*
X64690Y-57563D01*
X64690Y-57535D01*
X64676Y-57507D01*
X64662Y-57492D01*
X64634Y-57478D01*
X64578Y-57464D01*
X64550Y-57450D01*
X64535Y-57436D01*
X64521Y-57408D01*
X64521Y-57380D01*
X64535Y-57352D01*
X64550Y-57338D01*
X64578Y-57324D01*
X64648Y-57324D01*
X64690Y-57338D01*
X64803Y-57352D02*
X64817Y-57338D01*
X64845Y-57324D01*
X64915Y-57324D01*
X64943Y-57338D01*
X64957Y-57352D01*
X64971Y-57380D01*
X64971Y-57408D01*
X64957Y-57450D01*
X64789Y-57619D01*
X64971Y-57619D01*
X65140Y-57450D02*
X65112Y-57436D01*
X65098Y-57422D01*
X65084Y-57394D01*
X65084Y-57380D01*
X65098Y-57352D01*
X65112Y-57338D01*
X65140Y-57324D01*
X65196Y-57324D01*
X65224Y-57338D01*
X65239Y-57352D01*
X65253Y-57380D01*
X65253Y-57394D01*
X65239Y-57422D01*
X65224Y-57436D01*
X65196Y-57450D01*
X65140Y-57450D01*
X65112Y-57464D01*
X65098Y-57478D01*
X65084Y-57507D01*
X65084Y-57563D01*
X65098Y-57591D01*
X65112Y-57605D01*
X65140Y-57619D01*
X65196Y-57619D01*
X65224Y-57605D01*
X65239Y-57591D01*
X65253Y-57563D01*
X65253Y-57507D01*
X65239Y-57478D01*
X65224Y-57464D01*
X65196Y-57450D01*
X65435Y-57324D02*
X65464Y-57324D01*
X65492Y-57338D01*
X65506Y-57352D01*
X65520Y-57380D01*
X65534Y-57436D01*
X65534Y-57507D01*
X65520Y-57563D01*
X65506Y-57591D01*
X65492Y-57605D01*
X65464Y-57619D01*
X65435Y-57619D01*
X65407Y-57605D01*
X65393Y-57591D01*
X65379Y-57563D01*
X65365Y-57507D01*
X65365Y-57436D01*
X65379Y-57380D01*
X65393Y-57352D01*
X65407Y-57338D01*
X65435Y-57324D01*
X65815Y-57619D02*
X65646Y-57619D01*
X65731Y-57619D02*
X65731Y-57324D01*
X65703Y-57366D01*
X65674Y-57394D01*
X65646Y-57408D01*
G54D19*
G54D11*
X62651Y-49964D02*
X62553Y-49964D01*
X62553Y-50119D02*
X62553Y-49824D01*
X62693Y-49824D01*
X62960Y-50119D02*
X62792Y-50119D01*
X62876Y-50119D02*
X62876Y-49824D01*
X62848Y-49866D01*
X62820Y-49894D01*
X62792Y-49908D01*
G54D19*
G54D11*
X61200Y-57619D02*
X61102Y-57478D01*
X61032Y-57619D02*
X61032Y-57324D01*
X61144Y-57324D01*
X61172Y-57338D01*
X61186Y-57352D01*
X61200Y-57380D01*
X61200Y-57422D01*
X61186Y-57450D01*
X61172Y-57464D01*
X61144Y-57478D01*
X61032Y-57478D01*
X61299Y-57324D02*
X61482Y-57324D01*
X61383Y-57436D01*
X61425Y-57436D01*
X61453Y-57450D01*
X61467Y-57464D01*
X61482Y-57492D01*
X61482Y-57563D01*
X61467Y-57591D01*
X61453Y-57605D01*
X61425Y-57619D01*
X61341Y-57619D01*
X61313Y-57605D01*
X61299Y-57591D01*
G54D19*
G54D11*
X61200Y-58369D02*
X61102Y-58228D01*
X61032Y-58369D02*
X61032Y-58074D01*
X61144Y-58074D01*
X61172Y-58088D01*
X61186Y-58102D01*
X61200Y-58130D01*
X61200Y-58172D01*
X61186Y-58200D01*
X61172Y-58214D01*
X61144Y-58228D01*
X61032Y-58228D01*
X61453Y-58172D02*
X61453Y-58369D01*
X61383Y-58060D02*
X61313Y-58271D01*
X61496Y-58271D01*
G54D19*
G54D11*
X61200Y-56869D02*
X61102Y-56728D01*
X61032Y-56869D02*
X61032Y-56574D01*
X61144Y-56574D01*
X61172Y-56588D01*
X61186Y-56602D01*
X61200Y-56630D01*
X61200Y-56672D01*
X61186Y-56700D01*
X61172Y-56714D01*
X61144Y-56728D01*
X61032Y-56728D01*
X61313Y-56602D02*
X61327Y-56588D01*
X61355Y-56574D01*
X61425Y-56574D01*
X61453Y-56588D01*
X61467Y-56602D01*
X61482Y-56630D01*
X61482Y-56658D01*
X61467Y-56700D01*
X61299Y-56869D01*
X61482Y-56869D01*
G54D19*
G54D11*
X68950Y-46619D02*
X68852Y-46478D01*
X68782Y-46619D02*
X68782Y-46324D01*
X68894Y-46324D01*
X68922Y-46338D01*
X68936Y-46352D01*
X68950Y-46380D01*
X68950Y-46422D01*
X68936Y-46450D01*
X68922Y-46464D01*
X68894Y-46478D01*
X68782Y-46478D01*
X69232Y-46619D02*
X69063Y-46619D01*
X69147Y-46619D02*
X69147Y-46324D01*
X69119Y-46366D01*
X69091Y-46394D01*
X69063Y-46408D01*
G54D19*
G54D11*
X70032Y-46619D02*
X70032Y-46324D01*
X70102Y-46324D01*
X70144Y-46338D01*
X70172Y-46366D01*
X70186Y-46394D01*
X70200Y-46450D01*
X70200Y-46492D01*
X70186Y-46549D01*
X70172Y-46577D01*
X70144Y-46605D01*
X70102Y-46619D01*
X70032Y-46619D01*
X70482Y-46619D02*
X70313Y-46619D01*
X70397Y-46619D02*
X70397Y-46324D01*
X70369Y-46366D01*
X70341Y-46394D01*
X70313Y-46408D01*
G54D19*
G54D11*
X66450Y-46591D02*
X66436Y-46605D01*
X66394Y-46619D01*
X66366Y-46619D01*
X66324Y-46605D01*
X66296Y-46577D01*
X66282Y-46549D01*
X66267Y-46492D01*
X66267Y-46450D01*
X66282Y-46394D01*
X66296Y-46366D01*
X66324Y-46338D01*
X66366Y-46324D01*
X66394Y-46324D01*
X66436Y-46338D01*
X66450Y-46352D01*
X66549Y-46324D02*
X66732Y-46324D01*
X66633Y-46436D01*
X66675Y-46436D01*
X66703Y-46450D01*
X66717Y-46464D01*
X66732Y-46492D01*
X66732Y-46563D01*
X66717Y-46591D01*
X66703Y-46605D01*
X66675Y-46619D01*
X66591Y-46619D01*
X66563Y-46605D01*
X66549Y-46591D01*
G54D19*
G54D11*
X66450Y-49841D02*
X66436Y-49855D01*
X66394Y-49869D01*
X66366Y-49869D01*
X66324Y-49855D01*
X66296Y-49827D01*
X66282Y-49799D01*
X66267Y-49742D01*
X66267Y-49700D01*
X66282Y-49644D01*
X66296Y-49616D01*
X66324Y-49588D01*
X66366Y-49574D01*
X66394Y-49574D01*
X66436Y-49588D01*
X66450Y-49602D01*
X66563Y-49602D02*
X66577Y-49588D01*
X66605Y-49574D01*
X66675Y-49574D01*
X66703Y-49588D01*
X66717Y-49602D01*
X66732Y-49630D01*
X66732Y-49658D01*
X66717Y-49700D01*
X66549Y-49869D01*
X66732Y-49869D01*
G54D19*
G54D11*
X66532Y-45119D02*
X66532Y-44824D01*
X66700Y-45119D02*
X66574Y-44950D01*
X66700Y-44824D02*
X66532Y-44992D01*
X66813Y-44852D02*
X66827Y-44838D01*
X66855Y-44824D01*
X66925Y-44824D01*
X66953Y-44838D01*
X66967Y-44852D01*
X66982Y-44880D01*
X66982Y-44908D01*
X66967Y-44950D01*
X66799Y-45119D01*
X66982Y-45119D01*
G54D19*
G54D11*
X64200Y-52341D02*
X64186Y-52355D01*
X64144Y-52369D01*
X64116Y-52369D01*
X64074Y-52355D01*
X64046Y-52327D01*
X64032Y-52299D01*
X64017Y-52242D01*
X64017Y-52200D01*
X64032Y-52144D01*
X64046Y-52116D01*
X64074Y-52088D01*
X64116Y-52074D01*
X64144Y-52074D01*
X64186Y-52088D01*
X64200Y-52102D01*
X64482Y-52369D02*
X64313Y-52369D01*
X64397Y-52369D02*
X64397Y-52074D01*
X64369Y-52116D01*
X64341Y-52144D01*
X64313Y-52158D01*
G54D19*
G54D11*
X64200Y-48841D02*
X64186Y-48855D01*
X64144Y-48869D01*
X64116Y-48869D01*
X64074Y-48855D01*
X64046Y-48827D01*
X64032Y-48799D01*
X64017Y-48742D01*
X64017Y-48700D01*
X64032Y-48644D01*
X64046Y-48616D01*
X64074Y-48588D01*
X64116Y-48574D01*
X64144Y-48574D01*
X64186Y-48588D01*
X64200Y-48602D01*
X64453Y-48672D02*
X64453Y-48869D01*
X64383Y-48560D02*
X64313Y-48771D01*
X64496Y-48771D01*
G54D19*
G54D11*
X70282Y-59369D02*
X70282Y-59074D01*
X70394Y-59074D01*
X70422Y-59088D01*
X70436Y-59102D01*
X70450Y-59130D01*
X70450Y-59172D01*
X70436Y-59200D01*
X70422Y-59214D01*
X70394Y-59228D01*
X70282Y-59228D01*
X70549Y-59074D02*
X70732Y-59074D01*
X70633Y-59186D01*
X70675Y-59186D01*
X70703Y-59200D01*
X70717Y-59214D01*
X70732Y-59242D01*
X70732Y-59313D01*
X70717Y-59341D01*
X70703Y-59355D01*
X70675Y-59369D01*
X70591Y-59369D01*
X70563Y-59355D01*
X70549Y-59341D01*
G54D19*
G54D11*
X66032Y-62119D02*
X66032Y-61824D01*
X66144Y-61824D01*
X66172Y-61838D01*
X66186Y-61852D01*
X66200Y-61880D01*
X66200Y-61922D01*
X66186Y-61950D01*
X66172Y-61964D01*
X66144Y-61978D01*
X66032Y-61978D01*
X66482Y-62119D02*
X66313Y-62119D01*
X66397Y-62119D02*
X66397Y-61824D01*
X66369Y-61866D01*
X66341Y-61894D01*
X66313Y-61908D01*
G54D19*
G54D11*
X61032Y-45869D02*
X61032Y-45574D01*
X61144Y-45574D01*
X61172Y-45588D01*
X61186Y-45602D01*
X61200Y-45630D01*
X61200Y-45672D01*
X61186Y-45700D01*
X61172Y-45714D01*
X61144Y-45728D01*
X61032Y-45728D01*
X61313Y-45602D02*
X61327Y-45588D01*
X61355Y-45574D01*
X61425Y-45574D01*
X61453Y-45588D01*
X61467Y-45602D01*
X61482Y-45630D01*
X61482Y-45658D01*
X61467Y-45700D01*
X61299Y-45869D01*
X61482Y-45869D01*
G54D19*
G54D11*
X69782Y-62119D02*
X69782Y-61824D01*
X69950Y-62119D02*
X69824Y-61950D01*
X69950Y-61824D02*
X69782Y-61992D01*
X70232Y-62119D02*
X70063Y-62119D01*
X70147Y-62119D02*
X70147Y-61824D01*
X70119Y-61866D01*
X70091Y-61894D01*
X70063Y-61908D01*
G54D19*
%LPC*%
G54D20*
X68600Y-58100D03*
X68600Y-57400D03*
X69400Y-57750D03*
X68600Y-56600D03*
X68600Y-55900D03*
X69400Y-56250D03*
X68600Y-55100D03*
X68600Y-54400D03*
X69400Y-54750D03*
G54D21*
X68819Y-48094D03*
X68819Y-49000D03*
X68819Y-49906D03*
G54D22*
X71181Y-49000D03*
G54D23*
X63500Y-58600D03*
X64000Y-58600D03*
X64500Y-58600D03*
X65000Y-58600D03*
X65500Y-58600D03*
X66000Y-58600D03*
X66500Y-58600D03*
X66500Y-56500D03*
X66000Y-56500D03*
X65500Y-56500D03*
X65000Y-56500D03*
X64500Y-56500D03*
X64000Y-56500D03*
X63500Y-56500D03*
G54D24*
X62750Y-46819D03*
X62750Y-49181D03*
G54D25*
X61950Y-57500D03*
X62550Y-57500D03*
X61950Y-58250D03*
X62550Y-58250D03*
X61950Y-56750D03*
X62550Y-56750D03*
X68700Y-47000D03*
X69300Y-47000D03*
X69950Y-47000D03*
X70550Y-47000D03*
G54D26*
X66500Y-47550D03*
X66500Y-46950D03*
X66500Y-50200D03*
X66500Y-50800D03*
G54D27*
X67750Y-44500D03*
G54D28*
X68750Y-44500D03*
X69750Y-44500D03*
G54D29*
X65000Y-50291D03*
X65000Y-51709D03*
X65000Y-48209D03*
X65000Y-46791D03*
G54D30*
X71750Y-55750D03*
X71750Y-53750D03*
G54D31*
X71750Y-57750D03*
G54D30*
X71750Y-51750D03*
G54D32*
X62750Y-61000D03*
G54D33*
X64750Y-61000D03*
G54D32*
X64750Y-44500D03*
G54D33*
X62750Y-44500D03*
G54D27*
X67750Y-61000D03*
G54D28*
X68750Y-61000D03*
X69750Y-61000D03*
G54D34*
X71750Y-44500D03*
G54D35*
X71750Y-61000D03*
X60000Y-61000D03*
X60000Y-44500D03*
M02*
