G04 (created by PCBNEW (2013-may-18)-stable) date Wed 03 Jun 2015 10:45:29 PM CEST*
%MOIN*%
G04 Gerber Fmt 3.4, Leading zero omitted, Abs format*
%FSLAX34Y34*%
G01*
G70*
G90*
G04 APERTURE LIST*
%ADD10C,0.00590551*%
%ADD11R,0.036X0.036*%
%ADD12R,0.0709X0.0512*%
%ADD13R,0.0709X0.1496*%
%ADD14R,0.02X0.045*%
%ADD15R,0.1181X0.0787*%
%ADD16R,0.025X0.045*%
%ADD17R,0.045X0.025*%
%ADD18R,0.055X0.055*%
%ADD19C,0.055*%
%ADD20R,0.063X0.1024*%
%ADD21C,0.15*%
%ADD22R,0.15X0.15*%
%ADD23R,0.1X0.1*%
%ADD24C,0.1*%
%ADD25C,0.177165*%
%ADD26C,0.16*%
G04 APERTURE END LIST*
G54D10*
G54D11*
X10100Y-15100D03*
X10100Y-14400D03*
X10900Y-14750D03*
X10100Y-13600D03*
X10100Y-12900D03*
X10900Y-13250D03*
X10100Y-12100D03*
X10100Y-11400D03*
X10900Y-11750D03*
G54D12*
X10319Y-5094D03*
X10319Y-6000D03*
X10319Y-6906D03*
G54D13*
X12681Y-6000D03*
G54D14*
X5000Y-15600D03*
X5500Y-15600D03*
X6000Y-15600D03*
X6500Y-15600D03*
X7000Y-15600D03*
X7500Y-15600D03*
X8000Y-15600D03*
X8000Y-13500D03*
X7500Y-13500D03*
X7000Y-13500D03*
X6500Y-13500D03*
X6000Y-13500D03*
X5500Y-13500D03*
X5000Y-13500D03*
G54D15*
X4250Y-3819D03*
X4250Y-6181D03*
G54D16*
X3450Y-14500D03*
X4050Y-14500D03*
X3450Y-15250D03*
X4050Y-15250D03*
X3450Y-13750D03*
X4050Y-13750D03*
X10200Y-4000D03*
X10800Y-4000D03*
X11450Y-4000D03*
X12050Y-4000D03*
G54D17*
X8000Y-4550D03*
X8000Y-3950D03*
X8000Y-7200D03*
X8000Y-7800D03*
G54D18*
X9250Y-1500D03*
G54D19*
X10250Y-1500D03*
X11250Y-1500D03*
G54D20*
X6500Y-7291D03*
X6500Y-8709D03*
X6500Y-5209D03*
X6500Y-3791D03*
G54D21*
X13250Y-12750D03*
X13250Y-10750D03*
G54D22*
X13250Y-14750D03*
G54D21*
X13250Y-8750D03*
G54D23*
X4250Y-18000D03*
G54D24*
X6250Y-18000D03*
G54D23*
X6250Y-1500D03*
G54D24*
X4250Y-1500D03*
G54D18*
X9250Y-18000D03*
G54D19*
X10250Y-18000D03*
X11250Y-18000D03*
G54D25*
X13250Y-1500D03*
G54D26*
X13250Y-18000D03*
X1500Y-18000D03*
X1500Y-1500D03*
M02*
