G04 (created by PCBNEW (2013-may-18)-stable) date Wed 03 Jun 2015 10:45:29 PM CEST*
%MOIN*%
G04 Gerber Fmt 3.4, Leading zero omitted, Abs format*
%FSLAX34Y34*%
G01*
G70*
G90*
G04 APERTURE LIST*
%ADD10C,0.00590551*%
%ADD11C,0.00738189*%
%ADD12C,0.0001*%
G04 APERTURE END LIST*
G54D10*
G54D11*
X11831Y-14714D02*
X11789Y-14728D01*
X11775Y-14742D01*
X11760Y-14771D01*
X11760Y-14813D01*
X11775Y-14841D01*
X11789Y-14855D01*
X11817Y-14869D01*
X11929Y-14869D01*
X11929Y-14574D01*
X11831Y-14574D01*
X11803Y-14588D01*
X11789Y-14602D01*
X11775Y-14630D01*
X11775Y-14658D01*
X11789Y-14686D01*
X11803Y-14700D01*
X11831Y-14714D01*
X11929Y-14714D01*
X11775Y-12588D02*
X11803Y-12574D01*
X11845Y-12574D01*
X11887Y-12588D01*
X11915Y-12616D01*
X11929Y-12644D01*
X11943Y-12700D01*
X11943Y-12742D01*
X11929Y-12799D01*
X11915Y-12827D01*
X11887Y-12855D01*
X11845Y-12869D01*
X11817Y-12869D01*
X11775Y-12855D01*
X11760Y-12841D01*
X11760Y-12742D01*
X11817Y-12742D01*
X11760Y-10869D02*
X11859Y-10728D01*
X11929Y-10869D02*
X11929Y-10574D01*
X11817Y-10574D01*
X11789Y-10588D01*
X11775Y-10602D01*
X11760Y-10630D01*
X11760Y-10672D01*
X11775Y-10700D01*
X11789Y-10714D01*
X11817Y-10728D01*
X11929Y-10728D01*
X11929Y-8757D02*
X11704Y-8757D01*
X11817Y-8869D02*
X11817Y-8644D01*
X11409Y-8869D02*
X11578Y-8869D01*
X11493Y-8869D02*
X11493Y-8574D01*
X11521Y-8616D01*
X11550Y-8644D01*
X11578Y-8658D01*
X11296Y-8602D02*
X11282Y-8588D01*
X11254Y-8574D01*
X11184Y-8574D01*
X11156Y-8588D01*
X11142Y-8602D01*
X11128Y-8630D01*
X11128Y-8658D01*
X11142Y-8700D01*
X11311Y-8869D01*
X11128Y-8869D01*
X11043Y-8574D02*
X10945Y-8869D01*
X10847Y-8574D01*
X6362Y-17007D02*
X6137Y-17007D01*
X4362Y-17007D02*
X4137Y-17007D01*
X4249Y-17119D02*
X4249Y-16894D01*
X6362Y-2507D02*
X6137Y-2507D01*
X4362Y-2507D02*
X4137Y-2507D01*
X4249Y-2619D02*
X4249Y-2394D01*
G54D12*
G36*
X9204Y-13509D02*
X9205Y-13529D01*
X9208Y-13546D01*
X9213Y-13561D01*
X9222Y-13576D01*
X9235Y-13591D01*
X9238Y-13594D01*
X9255Y-13609D01*
X9273Y-13621D01*
X9295Y-13632D01*
X9315Y-13639D01*
X9315Y-13532D01*
X9318Y-13523D01*
X9324Y-13516D01*
X9334Y-13511D01*
X9339Y-13509D01*
X9345Y-13508D01*
X9355Y-13507D01*
X9369Y-13506D01*
X9387Y-13506D01*
X9408Y-13505D01*
X9418Y-13505D01*
X9434Y-13504D01*
X9449Y-13504D01*
X9462Y-13503D01*
X9473Y-13503D01*
X9482Y-13502D01*
X9488Y-13502D01*
X9490Y-13501D01*
X9493Y-13501D01*
X9497Y-13503D01*
X9501Y-13506D01*
X9505Y-13510D01*
X9514Y-13520D01*
X9520Y-13530D01*
X9521Y-13540D01*
X9519Y-13551D01*
X9514Y-13560D01*
X9505Y-13567D01*
X9492Y-13574D01*
X9477Y-13579D01*
X9459Y-13583D01*
X9455Y-13583D01*
X9444Y-13584D01*
X9431Y-13584D01*
X9417Y-13584D01*
X9402Y-13584D01*
X9389Y-13583D01*
X9377Y-13581D01*
X9373Y-13580D01*
X9357Y-13576D01*
X9343Y-13570D01*
X9332Y-13563D01*
X9323Y-13555D01*
X9317Y-13547D01*
X9315Y-13542D01*
X9315Y-13532D01*
X9315Y-13639D01*
X9319Y-13641D01*
X9346Y-13648D01*
X9367Y-13652D01*
X9380Y-13654D01*
X9395Y-13656D01*
X9412Y-13657D01*
X9430Y-13657D01*
X9448Y-13657D01*
X9464Y-13657D01*
X9478Y-13656D01*
X9481Y-13656D01*
X9510Y-13652D01*
X9535Y-13646D01*
X9557Y-13638D01*
X9575Y-13628D01*
X9591Y-13616D01*
X9603Y-13603D01*
X9611Y-13588D01*
X9612Y-13586D01*
X9615Y-13572D01*
X9616Y-13557D01*
X9615Y-13542D01*
X9612Y-13531D01*
X9606Y-13521D01*
X9598Y-13510D01*
X9587Y-13499D01*
X9576Y-13490D01*
X9570Y-13486D01*
X9564Y-13482D01*
X9559Y-13479D01*
X9557Y-13477D01*
X9557Y-13476D01*
X9558Y-13474D01*
X9562Y-13470D01*
X9566Y-13467D01*
X9578Y-13455D01*
X9587Y-13441D01*
X9593Y-13426D01*
X9595Y-13411D01*
X9594Y-13395D01*
X9590Y-13383D01*
X9586Y-13374D01*
X9579Y-13363D01*
X9570Y-13353D01*
X9562Y-13344D01*
X9559Y-13342D01*
X9554Y-13338D01*
X9550Y-13335D01*
X9549Y-13333D01*
X9550Y-13331D01*
X9554Y-13327D01*
X9559Y-13322D01*
X9562Y-13318D01*
X9576Y-13303D01*
X9587Y-13286D01*
X9594Y-13267D01*
X9598Y-13247D01*
X9599Y-13236D01*
X9599Y-13212D01*
X9595Y-13190D01*
X9587Y-13169D01*
X9577Y-13151D01*
X9563Y-13134D01*
X9545Y-13120D01*
X9525Y-13108D01*
X9502Y-13098D01*
X9476Y-13091D01*
X9473Y-13090D01*
X9461Y-13088D01*
X9448Y-13087D01*
X9433Y-13087D01*
X9418Y-13087D01*
X9405Y-13088D01*
X9393Y-13089D01*
X9389Y-13090D01*
X9385Y-13091D01*
X9381Y-13092D01*
X9375Y-13092D01*
X9368Y-13093D01*
X9359Y-13093D01*
X9347Y-13093D01*
X9333Y-13094D01*
X9315Y-13094D01*
X9295Y-13094D01*
X9291Y-13094D01*
X9206Y-13095D01*
X9206Y-13138D01*
X9207Y-13180D01*
X9246Y-13181D01*
X9258Y-13181D01*
X9268Y-13182D01*
X9276Y-13182D01*
X9282Y-13182D01*
X9284Y-13183D01*
X9284Y-13183D01*
X9279Y-13194D01*
X9275Y-13202D01*
X9272Y-13208D01*
X9271Y-13214D01*
X9270Y-13220D01*
X9269Y-13228D01*
X9269Y-13231D01*
X9270Y-13254D01*
X9274Y-13275D01*
X9282Y-13294D01*
X9293Y-13311D01*
X9307Y-13326D01*
X9325Y-13339D01*
X9345Y-13349D01*
X9369Y-13357D01*
X9371Y-13358D01*
X9372Y-13358D01*
X9372Y-13230D01*
X9372Y-13230D01*
X9373Y-13216D01*
X9374Y-13206D01*
X9377Y-13197D01*
X9382Y-13190D01*
X9388Y-13183D01*
X9400Y-13173D01*
X9413Y-13168D01*
X9428Y-13165D01*
X9431Y-13165D01*
X9446Y-13167D01*
X9458Y-13171D01*
X9469Y-13178D01*
X9475Y-13183D01*
X9482Y-13193D01*
X9486Y-13203D01*
X9489Y-13215D01*
X9490Y-13230D01*
X9488Y-13247D01*
X9484Y-13262D01*
X9477Y-13274D01*
X9468Y-13283D01*
X9455Y-13290D01*
X9453Y-13291D01*
X9445Y-13293D01*
X9436Y-13293D01*
X9425Y-13293D01*
X9415Y-13292D01*
X9407Y-13290D01*
X9405Y-13289D01*
X9392Y-13281D01*
X9383Y-13271D01*
X9378Y-13263D01*
X9375Y-13257D01*
X9374Y-13252D01*
X9373Y-13247D01*
X9372Y-13240D01*
X9372Y-13230D01*
X9372Y-13358D01*
X9386Y-13361D01*
X9404Y-13363D01*
X9422Y-13364D01*
X9441Y-13364D01*
X9457Y-13363D01*
X9468Y-13361D01*
X9486Y-13358D01*
X9492Y-13363D01*
X9499Y-13371D01*
X9502Y-13379D01*
X9503Y-13388D01*
X9500Y-13397D01*
X9496Y-13403D01*
X9493Y-13406D01*
X9489Y-13408D01*
X9485Y-13410D01*
X9481Y-13411D01*
X9475Y-13412D01*
X9467Y-13413D01*
X9457Y-13414D01*
X9444Y-13415D01*
X9429Y-13415D01*
X9410Y-13416D01*
X9396Y-13416D01*
X9379Y-13416D01*
X9362Y-13417D01*
X9346Y-13417D01*
X9333Y-13418D01*
X9321Y-13419D01*
X9313Y-13419D01*
X9307Y-13420D01*
X9307Y-13420D01*
X9283Y-13425D01*
X9262Y-13431D01*
X9244Y-13440D01*
X9230Y-13451D01*
X9218Y-13463D01*
X9211Y-13474D01*
X9209Y-13481D01*
X9207Y-13486D01*
X9205Y-13492D01*
X9205Y-13499D01*
X9204Y-13509D01*
X9204Y-13509D01*
X9204Y-13509D01*
X9204Y-13509D01*
G37*
G36*
X10174Y-13294D02*
X10174Y-13307D01*
X10175Y-13318D01*
X10175Y-13326D01*
X10176Y-13333D01*
X10177Y-13339D01*
X10178Y-13346D01*
X10180Y-13352D01*
X10188Y-13377D01*
X10199Y-13400D01*
X10213Y-13420D01*
X10228Y-13438D01*
X10242Y-13452D01*
X10257Y-13463D01*
X10272Y-13473D01*
X10286Y-13480D01*
X10294Y-13483D01*
X10294Y-13287D01*
X10294Y-13273D01*
X10295Y-13261D01*
X10296Y-13256D01*
X10301Y-13238D01*
X10308Y-13222D01*
X10317Y-13207D01*
X10327Y-13196D01*
X10339Y-13188D01*
X10341Y-13187D01*
X10346Y-13185D01*
X10351Y-13184D01*
X10357Y-13183D01*
X10365Y-13182D01*
X10374Y-13182D01*
X10384Y-13182D01*
X10392Y-13183D01*
X10397Y-13184D01*
X10402Y-13185D01*
X10407Y-13187D01*
X10408Y-13187D01*
X10421Y-13196D01*
X10432Y-13207D01*
X10441Y-13222D01*
X10448Y-13239D01*
X10450Y-13245D01*
X10452Y-13255D01*
X10453Y-13266D01*
X10454Y-13280D01*
X10454Y-13294D01*
X10454Y-13307D01*
X10454Y-13319D01*
X10453Y-13323D01*
X10449Y-13344D01*
X10442Y-13362D01*
X10433Y-13377D01*
X10422Y-13388D01*
X10409Y-13397D01*
X10402Y-13400D01*
X10392Y-13403D01*
X10380Y-13404D01*
X10366Y-13404D01*
X10354Y-13402D01*
X10345Y-13400D01*
X10332Y-13393D01*
X10321Y-13383D01*
X10311Y-13370D01*
X10303Y-13354D01*
X10298Y-13340D01*
X10296Y-13330D01*
X10295Y-13317D01*
X10294Y-13302D01*
X10294Y-13287D01*
X10294Y-13483D01*
X10304Y-13488D01*
X10323Y-13493D01*
X10344Y-13497D01*
X10353Y-13498D01*
X10363Y-13499D01*
X10371Y-13500D01*
X10377Y-13500D01*
X10384Y-13500D01*
X10391Y-13499D01*
X10419Y-13495D01*
X10446Y-13487D01*
X10471Y-13476D01*
X10494Y-13462D01*
X10514Y-13445D01*
X10532Y-13425D01*
X10547Y-13403D01*
X10554Y-13391D01*
X10558Y-13380D01*
X10563Y-13368D01*
X10567Y-13357D01*
X10568Y-13352D01*
X10570Y-13345D01*
X10572Y-13338D01*
X10573Y-13332D01*
X10573Y-13325D01*
X10574Y-13316D01*
X10574Y-13305D01*
X10574Y-13294D01*
X10574Y-13280D01*
X10574Y-13269D01*
X10573Y-13260D01*
X10573Y-13253D01*
X10572Y-13246D01*
X10570Y-13240D01*
X10570Y-13239D01*
X10561Y-13211D01*
X10549Y-13185D01*
X10534Y-13163D01*
X10516Y-13143D01*
X10496Y-13125D01*
X10473Y-13111D01*
X10447Y-13099D01*
X10419Y-13091D01*
X10417Y-13090D01*
X10401Y-13088D01*
X10383Y-13087D01*
X10364Y-13087D01*
X10347Y-13088D01*
X10334Y-13090D01*
X10307Y-13097D01*
X10281Y-13108D01*
X10258Y-13122D01*
X10237Y-13139D01*
X10218Y-13159D01*
X10203Y-13181D01*
X10190Y-13205D01*
X10180Y-13232D01*
X10179Y-13238D01*
X10177Y-13245D01*
X10176Y-13251D01*
X10175Y-13258D01*
X10175Y-13266D01*
X10174Y-13276D01*
X10174Y-13289D01*
X10174Y-13294D01*
X10174Y-13294D01*
X10174Y-13294D01*
G37*
G36*
X8278Y-13491D02*
X8326Y-13490D01*
X8373Y-13490D01*
X8378Y-13469D01*
X8379Y-13460D01*
X8381Y-13453D01*
X8382Y-13448D01*
X8383Y-13446D01*
X8385Y-13447D01*
X8389Y-13449D01*
X8394Y-13452D01*
X8394Y-13372D01*
X8395Y-13339D01*
X8395Y-13307D01*
X8405Y-13307D01*
X8429Y-13309D01*
X8452Y-13312D01*
X8473Y-13316D01*
X8492Y-13321D01*
X8500Y-13324D01*
X8515Y-13330D01*
X8526Y-13338D01*
X8535Y-13346D01*
X8540Y-13356D01*
X8542Y-13368D01*
X8542Y-13372D01*
X8541Y-13380D01*
X8540Y-13387D01*
X8537Y-13390D01*
X8531Y-13398D01*
X8520Y-13403D01*
X8508Y-13407D01*
X8494Y-13408D01*
X8478Y-13408D01*
X8462Y-13406D01*
X8456Y-13405D01*
X8446Y-13401D01*
X8435Y-13397D01*
X8423Y-13390D01*
X8410Y-13382D01*
X8409Y-13382D01*
X8394Y-13372D01*
X8394Y-13452D01*
X8395Y-13453D01*
X8400Y-13456D01*
X8420Y-13469D01*
X8442Y-13480D01*
X8463Y-13488D01*
X8483Y-13495D01*
X8491Y-13496D01*
X8504Y-13498D01*
X8519Y-13499D01*
X8533Y-13499D01*
X8545Y-13499D01*
X8545Y-13499D01*
X8568Y-13494D01*
X8588Y-13486D01*
X8607Y-13475D01*
X8622Y-13462D01*
X8635Y-13447D01*
X8645Y-13429D01*
X8651Y-13411D01*
X8653Y-13401D01*
X8654Y-13389D01*
X8654Y-13376D01*
X8653Y-13363D01*
X8652Y-13352D01*
X8652Y-13352D01*
X8646Y-13334D01*
X8637Y-13317D01*
X8625Y-13302D01*
X8609Y-13289D01*
X8596Y-13280D01*
X8578Y-13271D01*
X8556Y-13263D01*
X8531Y-13255D01*
X8503Y-13249D01*
X8472Y-13244D01*
X8439Y-13240D01*
X8422Y-13238D01*
X8394Y-13236D01*
X8395Y-13231D01*
X8401Y-13216D01*
X8409Y-13203D01*
X8421Y-13193D01*
X8435Y-13186D01*
X8451Y-13182D01*
X8471Y-13179D01*
X8493Y-13180D01*
X8516Y-13184D01*
X8541Y-13191D01*
X8567Y-13201D01*
X8580Y-13207D01*
X8588Y-13210D01*
X8594Y-13213D01*
X8598Y-13214D01*
X8600Y-13215D01*
X8601Y-13212D01*
X8604Y-13207D01*
X8608Y-13200D01*
X8612Y-13192D01*
X8618Y-13182D01*
X8623Y-13172D01*
X8628Y-13162D01*
X8633Y-13154D01*
X8636Y-13147D01*
X8639Y-13141D01*
X8640Y-13139D01*
X8640Y-13139D01*
X8635Y-13136D01*
X8628Y-13132D01*
X8618Y-13127D01*
X8606Y-13122D01*
X8594Y-13116D01*
X8581Y-13111D01*
X8568Y-13106D01*
X8557Y-13102D01*
X8553Y-13101D01*
X8532Y-13095D01*
X8509Y-13091D01*
X8485Y-13088D01*
X8462Y-13086D01*
X8439Y-13087D01*
X8419Y-13088D01*
X8411Y-13090D01*
X8385Y-13096D01*
X8361Y-13106D01*
X8341Y-13118D01*
X8323Y-13132D01*
X8308Y-13150D01*
X8296Y-13170D01*
X8292Y-13180D01*
X8289Y-13186D01*
X8287Y-13191D01*
X8286Y-13196D01*
X8284Y-13202D01*
X8283Y-13207D01*
X8282Y-13214D01*
X8281Y-13221D01*
X8280Y-13230D01*
X8280Y-13241D01*
X8279Y-13253D01*
X8279Y-13268D01*
X8279Y-13286D01*
X8279Y-13306D01*
X8279Y-13330D01*
X8278Y-13357D01*
X8278Y-13491D01*
X8278Y-13491D01*
X8278Y-13491D01*
G37*
G36*
X6839Y-13261D02*
X6839Y-13271D01*
X6839Y-13284D01*
X6840Y-13295D01*
X6840Y-13306D01*
X6841Y-13314D01*
X6841Y-13320D01*
X6842Y-13323D01*
X6843Y-13327D01*
X6944Y-13327D01*
X6944Y-13249D01*
X6945Y-13240D01*
X6947Y-13223D01*
X6953Y-13209D01*
X6962Y-13197D01*
X6973Y-13187D01*
X6987Y-13180D01*
X7004Y-13176D01*
X7019Y-13176D01*
X7038Y-13177D01*
X7055Y-13181D01*
X7070Y-13189D01*
X7084Y-13200D01*
X7091Y-13207D01*
X7097Y-13216D01*
X7102Y-13227D01*
X7106Y-13237D01*
X7108Y-13243D01*
X7109Y-13250D01*
X7027Y-13250D01*
X6944Y-13249D01*
X6944Y-13327D01*
X6976Y-13327D01*
X7109Y-13327D01*
X7108Y-13333D01*
X7102Y-13351D01*
X7095Y-13367D01*
X7084Y-13380D01*
X7071Y-13390D01*
X7058Y-13397D01*
X7044Y-13403D01*
X7028Y-13407D01*
X7011Y-13409D01*
X6991Y-13410D01*
X6985Y-13409D01*
X6966Y-13408D01*
X6949Y-13405D01*
X6932Y-13401D01*
X6915Y-13394D01*
X6909Y-13391D01*
X6902Y-13388D01*
X6896Y-13386D01*
X6892Y-13385D01*
X6892Y-13385D01*
X6891Y-13387D01*
X6888Y-13392D01*
X6883Y-13399D01*
X6878Y-13409D01*
X6873Y-13419D01*
X6872Y-13420D01*
X6866Y-13432D01*
X6861Y-13441D01*
X6858Y-13447D01*
X6856Y-13452D01*
X6856Y-13454D01*
X6857Y-13456D01*
X6859Y-13457D01*
X6865Y-13460D01*
X6873Y-13464D01*
X6881Y-13468D01*
X6883Y-13469D01*
X6906Y-13479D01*
X6927Y-13487D01*
X6949Y-13493D01*
X6972Y-13497D01*
X6987Y-13499D01*
X6998Y-13499D01*
X7006Y-13500D01*
X7014Y-13500D01*
X7022Y-13500D01*
X7032Y-13499D01*
X7038Y-13498D01*
X7068Y-13494D01*
X7095Y-13486D01*
X7121Y-13475D01*
X7144Y-13461D01*
X7165Y-13445D01*
X7184Y-13426D01*
X7199Y-13404D01*
X7212Y-13380D01*
X7218Y-13364D01*
X7224Y-13340D01*
X7228Y-13316D01*
X7229Y-13290D01*
X7227Y-13264D01*
X7223Y-13240D01*
X7216Y-13217D01*
X7213Y-13210D01*
X7200Y-13185D01*
X7185Y-13162D01*
X7166Y-13142D01*
X7145Y-13125D01*
X7121Y-13110D01*
X7096Y-13099D01*
X7068Y-13091D01*
X7059Y-13089D01*
X7048Y-13087D01*
X7034Y-13087D01*
X7019Y-13087D01*
X7003Y-13087D01*
X6989Y-13089D01*
X6976Y-13090D01*
X6976Y-13090D01*
X6951Y-13097D01*
X6928Y-13108D01*
X6907Y-13121D01*
X6889Y-13136D01*
X6886Y-13140D01*
X6871Y-13158D01*
X6860Y-13177D01*
X6851Y-13199D01*
X6844Y-13223D01*
X6843Y-13229D01*
X6841Y-13237D01*
X6840Y-13245D01*
X6839Y-13252D01*
X6839Y-13261D01*
X6839Y-13261D01*
X6839Y-13261D01*
G37*
G36*
X6376Y-13491D02*
X6423Y-13491D01*
X6438Y-13491D01*
X6449Y-13491D01*
X6458Y-13490D01*
X6464Y-13490D01*
X6467Y-13490D01*
X6470Y-13489D01*
X6471Y-13488D01*
X6471Y-13487D01*
X6472Y-13484D01*
X6473Y-13478D01*
X6475Y-13470D01*
X6475Y-13467D01*
X6477Y-13459D01*
X6478Y-13453D01*
X6479Y-13450D01*
X6479Y-13450D01*
X6481Y-13451D01*
X6485Y-13453D01*
X6491Y-13458D01*
X6492Y-13459D01*
X6492Y-13368D01*
X6493Y-13287D01*
X6493Y-13206D01*
X6504Y-13199D01*
X6519Y-13190D01*
X6536Y-13185D01*
X6555Y-13182D01*
X6558Y-13182D01*
X6567Y-13183D01*
X6574Y-13183D01*
X6580Y-13185D01*
X6587Y-13187D01*
X6587Y-13188D01*
X6602Y-13197D01*
X6614Y-13209D01*
X6624Y-13224D01*
X6632Y-13242D01*
X6633Y-13248D01*
X6635Y-13257D01*
X6636Y-13269D01*
X6637Y-13283D01*
X6637Y-13297D01*
X6636Y-13312D01*
X6635Y-13325D01*
X6634Y-13336D01*
X6633Y-13340D01*
X6627Y-13358D01*
X6620Y-13373D01*
X6613Y-13382D01*
X6603Y-13392D01*
X6592Y-13398D01*
X6579Y-13402D01*
X6564Y-13403D01*
X6557Y-13403D01*
X6547Y-13403D01*
X6539Y-13401D01*
X6532Y-13399D01*
X6527Y-13396D01*
X6513Y-13388D01*
X6503Y-13379D01*
X6492Y-13368D01*
X6492Y-13459D01*
X6496Y-13462D01*
X6509Y-13471D01*
X6522Y-13479D01*
X6536Y-13487D01*
X6549Y-13492D01*
X6559Y-13495D01*
X6574Y-13498D01*
X6592Y-13499D01*
X6608Y-13499D01*
X6614Y-13498D01*
X6628Y-13496D01*
X6643Y-13491D01*
X6658Y-13486D01*
X6671Y-13479D01*
X6673Y-13479D01*
X6683Y-13471D01*
X6695Y-13462D01*
X6706Y-13451D01*
X6716Y-13440D01*
X6723Y-13429D01*
X6724Y-13429D01*
X6735Y-13407D01*
X6745Y-13382D01*
X6752Y-13355D01*
X6756Y-13327D01*
X6758Y-13299D01*
X6757Y-13270D01*
X6753Y-13242D01*
X6753Y-13241D01*
X6746Y-13214D01*
X6736Y-13189D01*
X6724Y-13166D01*
X6709Y-13146D01*
X6692Y-13128D01*
X6673Y-13113D01*
X6652Y-13101D01*
X6629Y-13092D01*
X6621Y-13090D01*
X6610Y-13088D01*
X6596Y-13087D01*
X6582Y-13087D01*
X6569Y-13087D01*
X6557Y-13089D01*
X6554Y-13090D01*
X6540Y-13095D01*
X6525Y-13102D01*
X6510Y-13111D01*
X6502Y-13117D01*
X6496Y-13121D01*
X6492Y-13124D01*
X6489Y-13126D01*
X6489Y-13126D01*
X6489Y-13123D01*
X6489Y-13118D01*
X6489Y-13110D01*
X6490Y-13101D01*
X6490Y-13097D01*
X6490Y-13089D01*
X6491Y-13077D01*
X6491Y-13062D01*
X6492Y-13046D01*
X6492Y-13029D01*
X6492Y-13011D01*
X6492Y-13001D01*
X6492Y-12931D01*
X6434Y-12931D01*
X6376Y-12931D01*
X6376Y-13211D01*
X6376Y-13491D01*
X6376Y-13491D01*
X6376Y-13491D01*
G37*
G36*
X5414Y-13491D02*
X5462Y-13491D01*
X5510Y-13491D01*
X5514Y-13469D01*
X5516Y-13460D01*
X5518Y-13453D01*
X5519Y-13448D01*
X5520Y-13446D01*
X5521Y-13447D01*
X5526Y-13449D01*
X5532Y-13453D01*
X5533Y-13453D01*
X5533Y-13372D01*
X5533Y-13339D01*
X5533Y-13306D01*
X5552Y-13308D01*
X5581Y-13311D01*
X5605Y-13315D01*
X5627Y-13320D01*
X5644Y-13326D01*
X5658Y-13334D01*
X5669Y-13342D01*
X5675Y-13352D01*
X5678Y-13358D01*
X5680Y-13370D01*
X5678Y-13382D01*
X5673Y-13392D01*
X5666Y-13399D01*
X5659Y-13403D01*
X5648Y-13407D01*
X5634Y-13408D01*
X5619Y-13408D01*
X5603Y-13407D01*
X5591Y-13404D01*
X5578Y-13399D01*
X5565Y-13393D01*
X5551Y-13385D01*
X5544Y-13380D01*
X5533Y-13372D01*
X5533Y-13453D01*
X5539Y-13457D01*
X5565Y-13473D01*
X5592Y-13485D01*
X5619Y-13494D01*
X5645Y-13499D01*
X5671Y-13499D01*
X5683Y-13498D01*
X5702Y-13495D01*
X5720Y-13488D01*
X5737Y-13480D01*
X5751Y-13470D01*
X5760Y-13462D01*
X5773Y-13446D01*
X5782Y-13429D01*
X5788Y-13410D01*
X5791Y-13389D01*
X5791Y-13381D01*
X5790Y-13359D01*
X5785Y-13339D01*
X5777Y-13322D01*
X5766Y-13306D01*
X5751Y-13292D01*
X5732Y-13279D01*
X5726Y-13276D01*
X5707Y-13268D01*
X5686Y-13261D01*
X5661Y-13254D01*
X5634Y-13248D01*
X5605Y-13244D01*
X5574Y-13240D01*
X5550Y-13237D01*
X5541Y-13237D01*
X5536Y-13236D01*
X5533Y-13233D01*
X5533Y-13230D01*
X5534Y-13224D01*
X5536Y-13220D01*
X5542Y-13208D01*
X5551Y-13198D01*
X5563Y-13190D01*
X5577Y-13184D01*
X5594Y-13181D01*
X5612Y-13179D01*
X5632Y-13180D01*
X5652Y-13184D01*
X5674Y-13189D01*
X5679Y-13191D01*
X5689Y-13195D01*
X5701Y-13200D01*
X5712Y-13204D01*
X5717Y-13206D01*
X5725Y-13210D01*
X5731Y-13212D01*
X5735Y-13214D01*
X5737Y-13214D01*
X5738Y-13212D01*
X5740Y-13208D01*
X5744Y-13201D01*
X5749Y-13192D01*
X5754Y-13183D01*
X5759Y-13173D01*
X5765Y-13163D01*
X5769Y-13155D01*
X5773Y-13148D01*
X5775Y-13143D01*
X5776Y-13141D01*
X5776Y-13140D01*
X5774Y-13138D01*
X5770Y-13135D01*
X5763Y-13131D01*
X5754Y-13127D01*
X5751Y-13125D01*
X5717Y-13111D01*
X5684Y-13099D01*
X5653Y-13091D01*
X5637Y-13089D01*
X5625Y-13088D01*
X5611Y-13087D01*
X5595Y-13087D01*
X5580Y-13087D01*
X5565Y-13088D01*
X5552Y-13089D01*
X5548Y-13090D01*
X5523Y-13096D01*
X5500Y-13105D01*
X5479Y-13117D01*
X5461Y-13132D01*
X5446Y-13149D01*
X5434Y-13168D01*
X5425Y-13190D01*
X5422Y-13199D01*
X5421Y-13206D01*
X5420Y-13212D01*
X5418Y-13219D01*
X5417Y-13227D01*
X5417Y-13235D01*
X5416Y-13245D01*
X5415Y-13257D01*
X5415Y-13270D01*
X5415Y-13286D01*
X5415Y-13305D01*
X5414Y-13326D01*
X5414Y-13351D01*
X5414Y-13370D01*
X5414Y-13491D01*
X5414Y-13491D01*
X5414Y-13491D01*
G37*
G36*
X4929Y-13440D02*
X4930Y-13443D01*
X4934Y-13446D01*
X4940Y-13451D01*
X4948Y-13457D01*
X4957Y-13463D01*
X4967Y-13469D01*
X4970Y-13470D01*
X4997Y-13482D01*
X5025Y-13491D01*
X5056Y-13497D01*
X5067Y-13498D01*
X5078Y-13499D01*
X5086Y-13500D01*
X5093Y-13500D01*
X5100Y-13500D01*
X5108Y-13499D01*
X5137Y-13496D01*
X5163Y-13490D01*
X5188Y-13482D01*
X5194Y-13479D01*
X5206Y-13473D01*
X5219Y-13466D01*
X5232Y-13457D01*
X5243Y-13449D01*
X5249Y-13444D01*
X5259Y-13434D01*
X5269Y-13421D01*
X5279Y-13408D01*
X5287Y-13394D01*
X5288Y-13391D01*
X5298Y-13367D01*
X5305Y-13341D01*
X5309Y-13315D01*
X5310Y-13288D01*
X5308Y-13261D01*
X5303Y-13236D01*
X5294Y-13212D01*
X5290Y-13202D01*
X5276Y-13178D01*
X5259Y-13157D01*
X5239Y-13138D01*
X5216Y-13122D01*
X5190Y-13109D01*
X5164Y-13099D01*
X5144Y-13093D01*
X5126Y-13090D01*
X5107Y-13088D01*
X5086Y-13087D01*
X5081Y-13087D01*
X5057Y-13088D01*
X5034Y-13090D01*
X5014Y-13095D01*
X4993Y-13103D01*
X4976Y-13111D01*
X4967Y-13116D01*
X4957Y-13121D01*
X4949Y-13127D01*
X4942Y-13132D01*
X4937Y-13136D01*
X4935Y-13140D01*
X4935Y-13141D01*
X4937Y-13143D01*
X4941Y-13149D01*
X4946Y-13156D01*
X4952Y-13164D01*
X4959Y-13173D01*
X4966Y-13182D01*
X4972Y-13191D01*
X4978Y-13199D01*
X4983Y-13205D01*
X4986Y-13209D01*
X4988Y-13211D01*
X4988Y-13211D01*
X4990Y-13210D01*
X4994Y-13207D01*
X5000Y-13204D01*
X5001Y-13203D01*
X5009Y-13198D01*
X5019Y-13194D01*
X5029Y-13189D01*
X5030Y-13189D01*
X5039Y-13186D01*
X5046Y-13184D01*
X5053Y-13183D01*
X5062Y-13182D01*
X5071Y-13182D01*
X5092Y-13182D01*
X5111Y-13185D01*
X5128Y-13191D01*
X5143Y-13200D01*
X5157Y-13211D01*
X5169Y-13224D01*
X5178Y-13239D01*
X5185Y-13256D01*
X5188Y-13276D01*
X5189Y-13285D01*
X5189Y-13307D01*
X5185Y-13327D01*
X5179Y-13346D01*
X5169Y-13362D01*
X5156Y-13377D01*
X5141Y-13388D01*
X5124Y-13397D01*
X5112Y-13401D01*
X5101Y-13403D01*
X5087Y-13404D01*
X5073Y-13404D01*
X5058Y-13403D01*
X5046Y-13401D01*
X5042Y-13400D01*
X5030Y-13396D01*
X5016Y-13391D01*
X5002Y-13384D01*
X4988Y-13376D01*
X4984Y-13374D01*
X4979Y-13371D01*
X4975Y-13369D01*
X4974Y-13369D01*
X4973Y-13371D01*
X4970Y-13376D01*
X4965Y-13382D01*
X4960Y-13391D01*
X4954Y-13400D01*
X4948Y-13410D01*
X4942Y-13419D01*
X4937Y-13427D01*
X4932Y-13434D01*
X4930Y-13438D01*
X4929Y-13440D01*
X4929Y-13440D01*
X4929Y-13440D01*
G37*
G36*
X3975Y-13273D02*
X3975Y-13285D01*
X3976Y-13297D01*
X3976Y-13307D01*
X3976Y-13314D01*
X3977Y-13318D01*
X3978Y-13327D01*
X4081Y-13327D01*
X4081Y-13250D01*
X4081Y-13242D01*
X4082Y-13233D01*
X4084Y-13223D01*
X4087Y-13214D01*
X4090Y-13207D01*
X4093Y-13203D01*
X4098Y-13197D01*
X4101Y-13194D01*
X4109Y-13187D01*
X4119Y-13181D01*
X4131Y-13178D01*
X4146Y-13176D01*
X4151Y-13176D01*
X4167Y-13176D01*
X4181Y-13178D01*
X4194Y-13182D01*
X4202Y-13186D01*
X4210Y-13191D01*
X4219Y-13198D01*
X4227Y-13207D01*
X4233Y-13215D01*
X4233Y-13216D01*
X4236Y-13221D01*
X4239Y-13228D01*
X4242Y-13236D01*
X4245Y-13243D01*
X4246Y-13247D01*
X4246Y-13249D01*
X4244Y-13249D01*
X4239Y-13249D01*
X4230Y-13250D01*
X4219Y-13250D01*
X4205Y-13250D01*
X4190Y-13250D01*
X4173Y-13250D01*
X4163Y-13250D01*
X4081Y-13250D01*
X4081Y-13327D01*
X4111Y-13327D01*
X4138Y-13327D01*
X4161Y-13327D01*
X4180Y-13327D01*
X4196Y-13327D01*
X4210Y-13327D01*
X4221Y-13328D01*
X4229Y-13328D01*
X4235Y-13328D01*
X4239Y-13329D01*
X4242Y-13329D01*
X4244Y-13329D01*
X4244Y-13330D01*
X4243Y-13335D01*
X4241Y-13342D01*
X4238Y-13350D01*
X4235Y-13358D01*
X4232Y-13364D01*
X4232Y-13365D01*
X4222Y-13377D01*
X4210Y-13388D01*
X4195Y-13397D01*
X4177Y-13404D01*
X4163Y-13407D01*
X4154Y-13409D01*
X4145Y-13410D01*
X4134Y-13410D01*
X4121Y-13409D01*
X4120Y-13409D01*
X4104Y-13408D01*
X4091Y-13407D01*
X4078Y-13404D01*
X4065Y-13399D01*
X4050Y-13393D01*
X4047Y-13392D01*
X4039Y-13389D01*
X4033Y-13387D01*
X4028Y-13386D01*
X4027Y-13386D01*
X4026Y-13388D01*
X4023Y-13393D01*
X4019Y-13400D01*
X4014Y-13409D01*
X4008Y-13420D01*
X4008Y-13421D01*
X4001Y-13433D01*
X3997Y-13442D01*
X3994Y-13448D01*
X3992Y-13452D01*
X3992Y-13455D01*
X3992Y-13456D01*
X3995Y-13457D01*
X4000Y-13460D01*
X4008Y-13464D01*
X4014Y-13467D01*
X4041Y-13479D01*
X4071Y-13489D01*
X4101Y-13495D01*
X4131Y-13499D01*
X4160Y-13499D01*
X4174Y-13498D01*
X4204Y-13494D01*
X4232Y-13486D01*
X4257Y-13475D01*
X4281Y-13461D01*
X4302Y-13445D01*
X4320Y-13426D01*
X4335Y-13404D01*
X4347Y-13381D01*
X4357Y-13355D01*
X4361Y-13334D01*
X4363Y-13320D01*
X4364Y-13303D01*
X4364Y-13286D01*
X4363Y-13269D01*
X4362Y-13257D01*
X4357Y-13231D01*
X4347Y-13206D01*
X4335Y-13182D01*
X4320Y-13161D01*
X4302Y-13142D01*
X4281Y-13125D01*
X4258Y-13110D01*
X4233Y-13099D01*
X4207Y-13091D01*
X4195Y-13089D01*
X4187Y-13088D01*
X4176Y-13087D01*
X4164Y-13087D01*
X4151Y-13087D01*
X4139Y-13087D01*
X4129Y-13088D01*
X4126Y-13088D01*
X4102Y-13093D01*
X4078Y-13101D01*
X4056Y-13112D01*
X4037Y-13125D01*
X4020Y-13141D01*
X4015Y-13147D01*
X4007Y-13159D01*
X3999Y-13173D01*
X3991Y-13189D01*
X3985Y-13205D01*
X3981Y-13218D01*
X3979Y-13226D01*
X3977Y-13232D01*
X3977Y-13239D01*
X3976Y-13247D01*
X3976Y-13257D01*
X3975Y-13269D01*
X3975Y-13273D01*
X3975Y-13273D01*
X3975Y-13273D01*
G37*
G36*
X10658Y-13491D02*
X10831Y-13491D01*
X11005Y-13491D01*
X11005Y-13231D01*
X11005Y-12971D01*
X10946Y-12971D01*
X10888Y-12971D01*
X10888Y-13181D01*
X10888Y-13392D01*
X10773Y-13392D01*
X10658Y-13392D01*
X10658Y-13441D01*
X10658Y-13491D01*
X10658Y-13491D01*
X10658Y-13491D01*
G37*
G36*
X9706Y-13491D02*
X9764Y-13491D01*
X9822Y-13491D01*
X9822Y-13369D01*
X9823Y-13343D01*
X9823Y-13318D01*
X9823Y-13297D01*
X9823Y-13278D01*
X9823Y-13262D01*
X9824Y-13250D01*
X9824Y-13240D01*
X9825Y-13235D01*
X9825Y-13235D01*
X9828Y-13219D01*
X9834Y-13206D01*
X9843Y-13197D01*
X9854Y-13190D01*
X9867Y-13186D01*
X9883Y-13186D01*
X9888Y-13186D01*
X9904Y-13189D01*
X9920Y-13195D01*
X9935Y-13204D01*
X9946Y-13213D01*
X9960Y-13225D01*
X9961Y-13357D01*
X9961Y-13490D01*
X10020Y-13490D01*
X10079Y-13491D01*
X10079Y-13293D01*
X10079Y-13095D01*
X10031Y-13095D01*
X9983Y-13095D01*
X9978Y-13121D01*
X9977Y-13130D01*
X9975Y-13139D01*
X9974Y-13144D01*
X9973Y-13147D01*
X9973Y-13148D01*
X9971Y-13147D01*
X9967Y-13144D01*
X9962Y-13140D01*
X9961Y-13139D01*
X9941Y-13123D01*
X9923Y-13110D01*
X9906Y-13101D01*
X9888Y-13094D01*
X9870Y-13089D01*
X9850Y-13087D01*
X9833Y-13087D01*
X9810Y-13088D01*
X9789Y-13092D01*
X9771Y-13100D01*
X9755Y-13110D01*
X9741Y-13123D01*
X9730Y-13140D01*
X9720Y-13160D01*
X9713Y-13183D01*
X9707Y-13202D01*
X9707Y-13346D01*
X9706Y-13491D01*
X9706Y-13491D01*
X9706Y-13491D01*
G37*
G36*
X8755Y-13491D02*
X8813Y-13491D01*
X8871Y-13491D01*
X8871Y-13382D01*
X8871Y-13274D01*
X8942Y-13274D01*
X9013Y-13274D01*
X9013Y-13382D01*
X9013Y-13491D01*
X9071Y-13491D01*
X9129Y-13491D01*
X9129Y-13231D01*
X9129Y-12971D01*
X9071Y-12971D01*
X9013Y-12971D01*
X9013Y-13071D01*
X9013Y-13172D01*
X8942Y-13172D01*
X8871Y-13172D01*
X8871Y-13071D01*
X8871Y-12971D01*
X8813Y-12971D01*
X8755Y-12971D01*
X8755Y-13231D01*
X8755Y-13491D01*
X8755Y-13491D01*
X8755Y-13491D01*
G37*
G36*
X7888Y-13491D02*
X7946Y-13491D01*
X8004Y-13491D01*
X8004Y-13339D01*
X8004Y-13187D01*
X8084Y-13187D01*
X8164Y-13187D01*
X8164Y-13141D01*
X8164Y-13095D01*
X8026Y-13095D01*
X7888Y-13095D01*
X7888Y-13293D01*
X7888Y-13491D01*
X7888Y-13491D01*
X7888Y-13491D01*
G37*
G36*
X7313Y-13102D02*
X7313Y-13104D01*
X7315Y-13109D01*
X7316Y-13117D01*
X7319Y-13127D01*
X7322Y-13139D01*
X7323Y-13146D01*
X7327Y-13159D01*
X7329Y-13171D01*
X7332Y-13181D01*
X7334Y-13189D01*
X7335Y-13194D01*
X7335Y-13195D01*
X7337Y-13198D01*
X7340Y-13198D01*
X7341Y-13198D01*
X7359Y-13194D01*
X7378Y-13191D01*
X7398Y-13189D01*
X7416Y-13190D01*
X7431Y-13191D01*
X7436Y-13192D01*
X7458Y-13199D01*
X7477Y-13209D01*
X7495Y-13223D01*
X7511Y-13240D01*
X7526Y-13261D01*
X7530Y-13267D01*
X7539Y-13283D01*
X7539Y-13387D01*
X7539Y-13491D01*
X7597Y-13491D01*
X7615Y-13491D01*
X7629Y-13491D01*
X7640Y-13490D01*
X7647Y-13490D01*
X7653Y-13489D01*
X7655Y-13489D01*
X7656Y-13488D01*
X7657Y-13486D01*
X7657Y-13480D01*
X7657Y-13471D01*
X7657Y-13458D01*
X7657Y-13443D01*
X7657Y-13425D01*
X7657Y-13405D01*
X7657Y-13382D01*
X7657Y-13358D01*
X7657Y-13333D01*
X7657Y-13306D01*
X7657Y-13291D01*
X7656Y-13096D01*
X7609Y-13095D01*
X7595Y-13095D01*
X7583Y-13095D01*
X7574Y-13095D01*
X7566Y-13096D01*
X7562Y-13096D01*
X7561Y-13096D01*
X7561Y-13100D01*
X7560Y-13106D01*
X7559Y-13115D01*
X7558Y-13126D01*
X7557Y-13137D01*
X7555Y-13148D01*
X7554Y-13158D01*
X7553Y-13167D01*
X7552Y-13174D01*
X7551Y-13178D01*
X7551Y-13178D01*
X7550Y-13180D01*
X7549Y-13179D01*
X7546Y-13176D01*
X7542Y-13171D01*
X7530Y-13155D01*
X7516Y-13139D01*
X7500Y-13125D01*
X7489Y-13116D01*
X7479Y-13110D01*
X7467Y-13104D01*
X7454Y-13098D01*
X7442Y-13094D01*
X7435Y-13092D01*
X7422Y-13089D01*
X7407Y-13088D01*
X7391Y-13087D01*
X7375Y-13087D01*
X7361Y-13088D01*
X7348Y-13089D01*
X7343Y-13091D01*
X7338Y-13092D01*
X7332Y-13095D01*
X7325Y-13097D01*
X7319Y-13099D01*
X7314Y-13101D01*
X7313Y-13102D01*
X7313Y-13102D01*
X7313Y-13102D01*
G37*
G36*
X5891Y-13491D02*
X5949Y-13491D01*
X6007Y-13491D01*
X6007Y-13382D01*
X6007Y-13274D01*
X6078Y-13274D01*
X6149Y-13274D01*
X6150Y-13382D01*
X6150Y-13490D01*
X6209Y-13490D01*
X6267Y-13491D01*
X6267Y-13231D01*
X6267Y-12971D01*
X6209Y-12971D01*
X6150Y-12972D01*
X6150Y-13072D01*
X6149Y-13172D01*
X6079Y-13171D01*
X6008Y-13171D01*
X6008Y-13071D01*
X6007Y-12971D01*
X5949Y-12971D01*
X5891Y-12971D01*
X5891Y-13231D01*
X5891Y-13491D01*
X5891Y-13491D01*
X5891Y-13491D01*
G37*
G36*
X4421Y-13490D02*
X4423Y-13490D01*
X4429Y-13490D01*
X4437Y-13490D01*
X4448Y-13490D01*
X4461Y-13491D01*
X4476Y-13491D01*
X4484Y-13491D01*
X4547Y-13491D01*
X4597Y-13413D01*
X4607Y-13397D01*
X4617Y-13382D01*
X4625Y-13368D01*
X4633Y-13357D01*
X4639Y-13347D01*
X4644Y-13339D01*
X4647Y-13334D01*
X4649Y-13332D01*
X4650Y-13333D01*
X4655Y-13336D01*
X4661Y-13342D01*
X4670Y-13351D01*
X4680Y-13361D01*
X4709Y-13391D01*
X4709Y-13441D01*
X4709Y-13491D01*
X4767Y-13491D01*
X4825Y-13491D01*
X4825Y-13211D01*
X4825Y-12931D01*
X4767Y-12931D01*
X4709Y-12931D01*
X4709Y-13093D01*
X4709Y-13123D01*
X4709Y-13149D01*
X4709Y-13172D01*
X4709Y-13192D01*
X4709Y-13208D01*
X4709Y-13222D01*
X4708Y-13232D01*
X4708Y-13241D01*
X4708Y-13247D01*
X4707Y-13251D01*
X4707Y-13253D01*
X4707Y-13254D01*
X4705Y-13253D01*
X4701Y-13249D01*
X4694Y-13242D01*
X4686Y-13233D01*
X4677Y-13223D01*
X4665Y-13211D01*
X4653Y-13197D01*
X4640Y-13183D01*
X4632Y-13174D01*
X4560Y-13095D01*
X4497Y-13095D01*
X4481Y-13095D01*
X4467Y-13095D01*
X4455Y-13095D01*
X4445Y-13095D01*
X4438Y-13095D01*
X4434Y-13095D01*
X4433Y-13096D01*
X4435Y-13097D01*
X4438Y-13101D01*
X4444Y-13108D01*
X4452Y-13117D01*
X4462Y-13127D01*
X4473Y-13139D01*
X4485Y-13153D01*
X4498Y-13167D01*
X4507Y-13177D01*
X4521Y-13192D01*
X4534Y-13206D01*
X4546Y-13219D01*
X4556Y-13231D01*
X4565Y-13241D01*
X4572Y-13249D01*
X4577Y-13255D01*
X4580Y-13258D01*
X4580Y-13259D01*
X4579Y-13261D01*
X4576Y-13266D01*
X4571Y-13274D01*
X4564Y-13284D01*
X4555Y-13296D01*
X4546Y-13310D01*
X4535Y-13326D01*
X4523Y-13343D01*
X4510Y-13361D01*
X4500Y-13375D01*
X4487Y-13394D01*
X4475Y-13412D01*
X4463Y-13428D01*
X4453Y-13444D01*
X4444Y-13457D01*
X4436Y-13469D01*
X4429Y-13478D01*
X4425Y-13485D01*
X4422Y-13489D01*
X4421Y-13490D01*
X4421Y-13490D01*
X4421Y-13490D01*
G37*
G36*
X3497Y-13103D02*
X3498Y-13108D01*
X3499Y-13116D01*
X3501Y-13126D01*
X3504Y-13137D01*
X3506Y-13149D01*
X3509Y-13161D01*
X3512Y-13172D01*
X3515Y-13182D01*
X3518Y-13190D01*
X3520Y-13195D01*
X3521Y-13198D01*
X3521Y-13198D01*
X3524Y-13197D01*
X3530Y-13196D01*
X3538Y-13195D01*
X3545Y-13193D01*
X3555Y-13191D01*
X3564Y-13190D01*
X3574Y-13190D01*
X3585Y-13190D01*
X3591Y-13190D01*
X3602Y-13190D01*
X3611Y-13191D01*
X3618Y-13192D01*
X3624Y-13194D01*
X3631Y-13196D01*
X3633Y-13197D01*
X3650Y-13204D01*
X3665Y-13213D01*
X3678Y-13223D01*
X3685Y-13230D01*
X3699Y-13246D01*
X3710Y-13263D01*
X3717Y-13275D01*
X3722Y-13286D01*
X3722Y-13388D01*
X3722Y-13491D01*
X3780Y-13491D01*
X3838Y-13491D01*
X3838Y-13293D01*
X3838Y-13095D01*
X3791Y-13095D01*
X3744Y-13095D01*
X3743Y-13101D01*
X3742Y-13105D01*
X3741Y-13112D01*
X3740Y-13122D01*
X3739Y-13133D01*
X3738Y-13144D01*
X3736Y-13158D01*
X3735Y-13168D01*
X3734Y-13176D01*
X3733Y-13180D01*
X3732Y-13182D01*
X3731Y-13181D01*
X3730Y-13180D01*
X3728Y-13176D01*
X3724Y-13170D01*
X3718Y-13162D01*
X3711Y-13154D01*
X3705Y-13146D01*
X3698Y-13139D01*
X3694Y-13135D01*
X3674Y-13118D01*
X3652Y-13105D01*
X3628Y-13095D01*
X3603Y-13089D01*
X3576Y-13086D01*
X3552Y-13087D01*
X3541Y-13088D01*
X3529Y-13090D01*
X3518Y-13093D01*
X3507Y-13096D01*
X3500Y-13099D01*
X3498Y-13101D01*
X3497Y-13103D01*
X3497Y-13103D01*
X3497Y-13103D01*
G37*
G36*
X7874Y-12974D02*
X7876Y-12987D01*
X7877Y-12989D01*
X7884Y-13003D01*
X7893Y-13015D01*
X7906Y-13025D01*
X7920Y-13032D01*
X7921Y-13033D01*
X7931Y-13035D01*
X7944Y-13036D01*
X7957Y-13037D01*
X7969Y-13036D01*
X7974Y-13035D01*
X7991Y-13029D01*
X8004Y-13021D01*
X8016Y-13009D01*
X8024Y-12995D01*
X8024Y-12995D01*
X8027Y-12986D01*
X8029Y-12974D01*
X8029Y-12961D01*
X8027Y-12949D01*
X8025Y-12940D01*
X8019Y-12928D01*
X8011Y-12917D01*
X7999Y-12908D01*
X7989Y-12901D01*
X7983Y-12898D01*
X7978Y-12897D01*
X7973Y-12896D01*
X7967Y-12895D01*
X7959Y-12895D01*
X7952Y-12895D01*
X7941Y-12895D01*
X7934Y-12895D01*
X7928Y-12896D01*
X7924Y-12897D01*
X7919Y-12899D01*
X7917Y-12900D01*
X7905Y-12907D01*
X7893Y-12917D01*
X7884Y-12928D01*
X7881Y-12935D01*
X7876Y-12947D01*
X7874Y-12960D01*
X7874Y-12974D01*
X7874Y-12974D01*
X7874Y-12974D01*
G37*
G36*
X3314Y-12508D02*
X3314Y-12530D01*
X3317Y-12549D01*
X3321Y-12567D01*
X3328Y-12586D01*
X3335Y-12599D01*
X3344Y-12617D01*
X3354Y-12632D01*
X3366Y-12646D01*
X3374Y-12654D01*
X3393Y-12671D01*
X3413Y-12686D01*
X3434Y-12697D01*
X3457Y-12706D01*
X3483Y-12714D01*
X3483Y-12714D01*
X3484Y-12714D01*
X3486Y-12714D01*
X3487Y-12714D01*
X3489Y-12715D01*
X3492Y-12715D01*
X3495Y-12715D01*
X3498Y-12715D01*
X3503Y-12715D01*
X3508Y-12715D01*
X3513Y-12715D01*
X3520Y-12715D01*
X3527Y-12715D01*
X3535Y-12715D01*
X3544Y-12716D01*
X3555Y-12716D01*
X3566Y-12716D01*
X3578Y-12716D01*
X3592Y-12716D01*
X3606Y-12716D01*
X3622Y-12716D01*
X3639Y-12716D01*
X3658Y-12716D01*
X3678Y-12716D01*
X3700Y-12716D01*
X3723Y-12716D01*
X3747Y-12716D01*
X3773Y-12716D01*
X3801Y-12717D01*
X3831Y-12717D01*
X3862Y-12717D01*
X3895Y-12717D01*
X3930Y-12717D01*
X3967Y-12717D01*
X4006Y-12717D01*
X4047Y-12717D01*
X4071Y-12717D01*
X4071Y-11981D01*
X4072Y-11979D01*
X4075Y-11974D01*
X4079Y-11966D01*
X4086Y-11955D01*
X4094Y-11941D01*
X4103Y-11925D01*
X4113Y-11907D01*
X4125Y-11886D01*
X4138Y-11863D01*
X4153Y-11839D01*
X4168Y-11812D01*
X4184Y-11785D01*
X4200Y-11756D01*
X4218Y-11726D01*
X4236Y-11694D01*
X4240Y-11687D01*
X4409Y-11395D01*
X4691Y-11251D01*
X4786Y-11203D01*
X4879Y-11156D01*
X4971Y-11110D01*
X5060Y-11065D01*
X5148Y-11021D01*
X5234Y-10978D01*
X5317Y-10936D01*
X5398Y-10896D01*
X5477Y-10856D01*
X5554Y-10818D01*
X5628Y-10781D01*
X5700Y-10746D01*
X5769Y-10712D01*
X5835Y-10679D01*
X5899Y-10648D01*
X5960Y-10618D01*
X6018Y-10590D01*
X6073Y-10563D01*
X6124Y-10538D01*
X6173Y-10515D01*
X6218Y-10493D01*
X6261Y-10474D01*
X6299Y-10456D01*
X6304Y-10453D01*
X6320Y-10446D01*
X6336Y-10439D01*
X6349Y-10432D01*
X6361Y-10427D01*
X6371Y-10422D01*
X6378Y-10419D01*
X6382Y-10417D01*
X6383Y-10416D01*
X6383Y-10415D01*
X6379Y-10411D01*
X6375Y-10405D01*
X6369Y-10398D01*
X6369Y-10397D01*
X6361Y-10388D01*
X6353Y-10379D01*
X6346Y-10370D01*
X6342Y-10366D01*
X6337Y-10358D01*
X6332Y-10354D01*
X6330Y-10353D01*
X6329Y-10353D01*
X6316Y-10358D01*
X6304Y-10363D01*
X6291Y-10368D01*
X6279Y-10372D01*
X6269Y-10376D01*
X6260Y-10378D01*
X6254Y-10380D01*
X6251Y-10381D01*
X6251Y-10381D01*
X6249Y-10379D01*
X6246Y-10374D01*
X6243Y-10367D01*
X6241Y-10362D01*
X6237Y-10354D01*
X6233Y-10346D01*
X6229Y-10340D01*
X6228Y-10338D01*
X6225Y-10335D01*
X6221Y-10333D01*
X6217Y-10333D01*
X6209Y-10333D01*
X6201Y-10333D01*
X6190Y-10335D01*
X6178Y-10337D01*
X6165Y-10340D01*
X6154Y-10343D01*
X6145Y-10346D01*
X6142Y-10347D01*
X6134Y-10352D01*
X6127Y-10360D01*
X6123Y-10368D01*
X6122Y-10376D01*
X6122Y-10376D01*
X6122Y-10383D01*
X6120Y-10389D01*
X6119Y-10393D01*
X6119Y-10395D01*
X6119Y-10395D01*
X6121Y-10396D01*
X6127Y-10396D01*
X6134Y-10397D01*
X6139Y-10397D01*
X6149Y-10397D01*
X6156Y-10397D01*
X6160Y-10399D01*
X6164Y-10401D01*
X6166Y-10405D01*
X6167Y-10407D01*
X6171Y-10413D01*
X6155Y-10419D01*
X6131Y-10429D01*
X6104Y-10441D01*
X6073Y-10454D01*
X6039Y-10469D01*
X6001Y-10485D01*
X5960Y-10504D01*
X5916Y-10524D01*
X5868Y-10545D01*
X5816Y-10569D01*
X5761Y-10594D01*
X5703Y-10621D01*
X5641Y-10649D01*
X5576Y-10679D01*
X5507Y-10711D01*
X5435Y-10744D01*
X5360Y-10779D01*
X5281Y-10816D01*
X5199Y-10854D01*
X5114Y-10894D01*
X5025Y-10936D01*
X4933Y-10979D01*
X4838Y-11024D01*
X4777Y-11053D01*
X4749Y-11066D01*
X4721Y-11079D01*
X4695Y-11091D01*
X4670Y-11103D01*
X4647Y-11114D01*
X4625Y-11124D01*
X4606Y-11133D01*
X4589Y-11141D01*
X4574Y-11148D01*
X4562Y-11153D01*
X4553Y-11158D01*
X4547Y-11160D01*
X4545Y-11161D01*
X4544Y-11162D01*
X4545Y-11160D01*
X4548Y-11155D01*
X4552Y-11147D01*
X4558Y-11136D01*
X4566Y-11123D01*
X4575Y-11108D01*
X4585Y-11090D01*
X4596Y-11071D01*
X4608Y-11050D01*
X4621Y-11027D01*
X4635Y-11004D01*
X4649Y-10979D01*
X4663Y-10954D01*
X4678Y-10928D01*
X4693Y-10902D01*
X4709Y-10876D01*
X4724Y-10850D01*
X4738Y-10824D01*
X4753Y-10799D01*
X4767Y-10775D01*
X4781Y-10752D01*
X4793Y-10730D01*
X4805Y-10710D01*
X4816Y-10691D01*
X4826Y-10674D01*
X4835Y-10660D01*
X4842Y-10648D01*
X4847Y-10638D01*
X4852Y-10631D01*
X4854Y-10627D01*
X4854Y-10627D01*
X4857Y-10626D01*
X4863Y-10624D01*
X4872Y-10622D01*
X4884Y-10618D01*
X4899Y-10614D01*
X4917Y-10609D01*
X4937Y-10604D01*
X4960Y-10598D01*
X4984Y-10591D01*
X5010Y-10585D01*
X5037Y-10577D01*
X5065Y-10570D01*
X5083Y-10565D01*
X5123Y-10555D01*
X5166Y-10543D01*
X5210Y-10531D01*
X5257Y-10519D01*
X5305Y-10506D01*
X5354Y-10493D01*
X5404Y-10480D01*
X5454Y-10467D01*
X5504Y-10453D01*
X5554Y-10440D01*
X5604Y-10427D01*
X5652Y-10414D01*
X5699Y-10401D01*
X5744Y-10389D01*
X5787Y-10377D01*
X5828Y-10366D01*
X5866Y-10356D01*
X5901Y-10346D01*
X5930Y-10339D01*
X5948Y-10334D01*
X5968Y-10328D01*
X5984Y-10324D01*
X5984Y-10204D01*
X5985Y-10203D01*
X5986Y-10204D01*
X5985Y-10205D01*
X5984Y-10204D01*
X5984Y-10324D01*
X5989Y-10322D01*
X6011Y-10316D01*
X6034Y-10310D01*
X6058Y-10303D01*
X6081Y-10297D01*
X6105Y-10290D01*
X6128Y-10284D01*
X6150Y-10278D01*
X6171Y-10272D01*
X6191Y-10267D01*
X6209Y-10262D01*
X6224Y-10257D01*
X6238Y-10254D01*
X6248Y-10251D01*
X6256Y-10248D01*
X6260Y-10247D01*
X6261Y-10247D01*
X6260Y-10245D01*
X6259Y-10240D01*
X6256Y-10233D01*
X6252Y-10225D01*
X6247Y-10215D01*
X6242Y-10205D01*
X6237Y-10195D01*
X6233Y-10185D01*
X6229Y-10177D01*
X6225Y-10171D01*
X6223Y-10168D01*
X6223Y-10168D01*
X6220Y-10168D01*
X6215Y-10169D01*
X6206Y-10170D01*
X6194Y-10172D01*
X6180Y-10174D01*
X6163Y-10176D01*
X6145Y-10179D01*
X6125Y-10182D01*
X6106Y-10185D01*
X6086Y-10188D01*
X6066Y-10191D01*
X6048Y-10194D01*
X6031Y-10196D01*
X6017Y-10198D01*
X6005Y-10200D01*
X5997Y-10201D01*
X5991Y-10202D01*
X5989Y-10202D01*
X5989Y-10202D01*
X5992Y-10200D01*
X5994Y-10200D01*
X6005Y-10195D01*
X6013Y-10189D01*
X6018Y-10184D01*
X6020Y-10180D01*
X6021Y-10175D01*
X6022Y-10167D01*
X6022Y-10155D01*
X6022Y-10153D01*
X6023Y-10143D01*
X6023Y-10134D01*
X6022Y-10128D01*
X6022Y-10125D01*
X6022Y-10125D01*
X6019Y-10125D01*
X6014Y-10125D01*
X6006Y-10126D01*
X6000Y-10127D01*
X5987Y-10129D01*
X5974Y-10129D01*
X5967Y-10129D01*
X5961Y-10128D01*
X5955Y-10129D01*
X5949Y-10130D01*
X5942Y-10132D01*
X5937Y-10135D01*
X5929Y-10138D01*
X5918Y-10142D01*
X5906Y-10148D01*
X5895Y-10153D01*
X5891Y-10155D01*
X5879Y-10161D01*
X5871Y-10165D01*
X5865Y-10168D01*
X5861Y-10171D01*
X5858Y-10174D01*
X5857Y-10176D01*
X5852Y-10185D01*
X5850Y-10192D01*
X5851Y-10197D01*
X5852Y-10198D01*
X5858Y-10202D01*
X5867Y-10205D01*
X5880Y-10208D01*
X5897Y-10210D01*
X5905Y-10210D01*
X5934Y-10211D01*
X5645Y-10257D01*
X5608Y-10263D01*
X5570Y-10270D01*
X5531Y-10276D01*
X5491Y-10282D01*
X5452Y-10288D01*
X5412Y-10295D01*
X5374Y-10301D01*
X5337Y-10307D01*
X5302Y-10313D01*
X5268Y-10318D01*
X5238Y-10323D01*
X5210Y-10327D01*
X5186Y-10331D01*
X5182Y-10332D01*
X5156Y-10336D01*
X5132Y-10340D01*
X5109Y-10344D01*
X5087Y-10347D01*
X5068Y-10350D01*
X5050Y-10353D01*
X5036Y-10355D01*
X5024Y-10357D01*
X5015Y-10358D01*
X5009Y-10359D01*
X5007Y-10360D01*
X5008Y-10358D01*
X5011Y-10353D01*
X5015Y-10345D01*
X5021Y-10335D01*
X5028Y-10322D01*
X5037Y-10308D01*
X5046Y-10291D01*
X5056Y-10274D01*
X5067Y-10255D01*
X5073Y-10244D01*
X5140Y-10129D01*
X5150Y-10127D01*
X5153Y-10127D01*
X5160Y-10126D01*
X5170Y-10124D01*
X5184Y-10122D01*
X5199Y-10120D01*
X5218Y-10117D01*
X5238Y-10114D01*
X5260Y-10111D01*
X5284Y-10107D01*
X5308Y-10103D01*
X5324Y-10101D01*
X5375Y-10093D01*
X5428Y-10086D01*
X5481Y-10077D01*
X5535Y-10069D01*
X5588Y-10061D01*
X5641Y-10053D01*
X5694Y-10044D01*
X5744Y-10036D01*
X5793Y-10028D01*
X5840Y-10021D01*
X5885Y-10014D01*
X5926Y-10007D01*
X5964Y-10001D01*
X5969Y-10000D01*
X6000Y-9994D01*
X6028Y-9990D01*
X6052Y-9986D01*
X6073Y-9982D01*
X6091Y-9979D01*
X6107Y-9976D01*
X6120Y-9974D01*
X6130Y-9972D01*
X6139Y-9971D01*
X6145Y-9970D01*
X6150Y-9969D01*
X6154Y-9968D01*
X6157Y-9967D01*
X6158Y-9967D01*
X6159Y-9967D01*
X6160Y-9966D01*
X6160Y-9966D01*
X6160Y-9964D01*
X6160Y-9958D01*
X6159Y-9951D01*
X6158Y-9947D01*
X6157Y-9937D01*
X6155Y-9925D01*
X6153Y-9913D01*
X6152Y-9908D01*
X6151Y-9899D01*
X6150Y-9892D01*
X6149Y-9887D01*
X6148Y-9886D01*
X6146Y-9886D01*
X6141Y-9886D01*
X6131Y-9886D01*
X6119Y-9887D01*
X6103Y-9888D01*
X6084Y-9889D01*
X6063Y-9890D01*
X6039Y-9891D01*
X6013Y-9892D01*
X5985Y-9893D01*
X5955Y-9895D01*
X5924Y-9896D01*
X5891Y-9898D01*
X5857Y-9900D01*
X5833Y-9901D01*
X5774Y-9904D01*
X5718Y-9907D01*
X5667Y-9909D01*
X5619Y-9912D01*
X5575Y-9914D01*
X5534Y-9916D01*
X5497Y-9918D01*
X5462Y-9920D01*
X5431Y-9921D01*
X5403Y-9922D01*
X5377Y-9924D01*
X5355Y-9925D01*
X5335Y-9926D01*
X5317Y-9926D01*
X5302Y-9927D01*
X5290Y-9928D01*
X5279Y-9928D01*
X5271Y-9928D01*
X5265Y-9928D01*
X5261Y-9928D01*
X5258Y-9928D01*
X5258Y-9928D01*
X5258Y-9926D01*
X5261Y-9922D01*
X5264Y-9915D01*
X5269Y-9906D01*
X5274Y-9896D01*
X5280Y-9886D01*
X5286Y-9875D01*
X5292Y-9866D01*
X5297Y-9857D01*
X5301Y-9850D01*
X5304Y-9845D01*
X5306Y-9843D01*
X5308Y-9843D01*
X5314Y-9842D01*
X5323Y-9842D01*
X5335Y-9841D01*
X5351Y-9839D01*
X5369Y-9838D01*
X5390Y-9836D01*
X5414Y-9834D01*
X5439Y-9832D01*
X5467Y-9829D01*
X5496Y-9827D01*
X5526Y-9824D01*
X5558Y-9821D01*
X5586Y-9819D01*
X5619Y-9816D01*
X5651Y-9814D01*
X5681Y-9811D01*
X5710Y-9809D01*
X5737Y-9806D01*
X5762Y-9804D01*
X5785Y-9802D01*
X5806Y-9800D01*
X5823Y-9799D01*
X5838Y-9797D01*
X5850Y-9796D01*
X5859Y-9796D01*
X5864Y-9795D01*
X5866Y-9795D01*
X5864Y-9794D01*
X5858Y-9794D01*
X5849Y-9793D01*
X5837Y-9791D01*
X5821Y-9790D01*
X5803Y-9788D01*
X5783Y-9786D01*
X5760Y-9783D01*
X5735Y-9781D01*
X5708Y-9778D01*
X5680Y-9775D01*
X5650Y-9772D01*
X5619Y-9769D01*
X5615Y-9769D01*
X5584Y-9766D01*
X5554Y-9763D01*
X5526Y-9760D01*
X5499Y-9757D01*
X5473Y-9754D01*
X5450Y-9752D01*
X5429Y-9750D01*
X5411Y-9749D01*
X5395Y-9747D01*
X5382Y-9746D01*
X5373Y-9745D01*
X5366Y-9744D01*
X5364Y-9744D01*
X5364Y-9744D01*
X5365Y-9742D01*
X5367Y-9737D01*
X5371Y-9730D01*
X5375Y-9722D01*
X5379Y-9716D01*
X5395Y-9688D01*
X5772Y-9689D01*
X6149Y-9690D01*
X6150Y-9685D01*
X6151Y-9682D01*
X6152Y-9675D01*
X6153Y-9666D01*
X6154Y-9656D01*
X6155Y-9650D01*
X6157Y-9639D01*
X6158Y-9629D01*
X6159Y-9620D01*
X6160Y-9614D01*
X6160Y-9613D01*
X6161Y-9606D01*
X6076Y-9584D01*
X6055Y-9579D01*
X6031Y-9573D01*
X6004Y-9566D01*
X5975Y-9559D01*
X5944Y-9551D01*
X5911Y-9542D01*
X5878Y-9534D01*
X5844Y-9525D01*
X5810Y-9516D01*
X5776Y-9508D01*
X5743Y-9499D01*
X5712Y-9491D01*
X5683Y-9484D01*
X5656Y-9477D01*
X5631Y-9471D01*
X5610Y-9465D01*
X5608Y-9465D01*
X5592Y-9460D01*
X5577Y-9456D01*
X5564Y-9453D01*
X5553Y-9450D01*
X5544Y-9447D01*
X5539Y-9446D01*
X5537Y-9445D01*
X5537Y-9445D01*
X5537Y-9443D01*
X5540Y-9438D01*
X5544Y-9430D01*
X5549Y-9421D01*
X5555Y-9410D01*
X5562Y-9399D01*
X5569Y-9386D01*
X5576Y-9374D01*
X5583Y-9362D01*
X5590Y-9351D01*
X5595Y-9341D01*
X5600Y-9333D01*
X5603Y-9328D01*
X5605Y-9325D01*
X5605Y-9325D01*
X5607Y-9325D01*
X5612Y-9326D01*
X5617Y-9327D01*
X5623Y-9328D01*
X5632Y-9330D01*
X5644Y-9333D01*
X5659Y-9337D01*
X5677Y-9341D01*
X5698Y-9346D01*
X5720Y-9352D01*
X5744Y-9358D01*
X5769Y-9364D01*
X5795Y-9371D01*
X5823Y-9378D01*
X5850Y-9384D01*
X5878Y-9391D01*
X5906Y-9398D01*
X5933Y-9405D01*
X5960Y-9412D01*
X5985Y-9418D01*
X6010Y-9424D01*
X6032Y-9430D01*
X6053Y-9435D01*
X6071Y-9440D01*
X6087Y-9444D01*
X6100Y-9448D01*
X6102Y-9448D01*
X6120Y-9453D01*
X6138Y-9457D01*
X6154Y-9461D01*
X6168Y-9465D01*
X6180Y-9468D01*
X6189Y-9470D01*
X6195Y-9471D01*
X6198Y-9471D01*
X6198Y-9471D01*
X6200Y-9468D01*
X6202Y-9464D01*
X6204Y-9459D01*
X6207Y-9452D01*
X6208Y-9448D01*
X6212Y-9437D01*
X6201Y-9430D01*
X6189Y-9423D01*
X6175Y-9414D01*
X6157Y-9403D01*
X6137Y-9391D01*
X6114Y-9377D01*
X6090Y-9363D01*
X6064Y-9347D01*
X6036Y-9331D01*
X6007Y-9314D01*
X5977Y-9296D01*
X5946Y-9278D01*
X5915Y-9260D01*
X5884Y-9242D01*
X5853Y-9224D01*
X5823Y-9207D01*
X5806Y-9197D01*
X5788Y-9187D01*
X5772Y-9177D01*
X5757Y-9168D01*
X5743Y-9160D01*
X5732Y-9154D01*
X5723Y-9148D01*
X5716Y-9144D01*
X5713Y-9142D01*
X5712Y-9141D01*
X5713Y-9139D01*
X5715Y-9134D01*
X5719Y-9126D01*
X5724Y-9118D01*
X5730Y-9108D01*
X5736Y-9098D01*
X5741Y-9088D01*
X5747Y-9079D01*
X5752Y-9072D01*
X5755Y-9066D01*
X5757Y-9063D01*
X5758Y-9063D01*
X5760Y-9064D01*
X5765Y-9067D01*
X5772Y-9072D01*
X5782Y-9078D01*
X5794Y-9086D01*
X5808Y-9095D01*
X5824Y-9105D01*
X5840Y-9116D01*
X5855Y-9126D01*
X5873Y-9137D01*
X5893Y-9150D01*
X5915Y-9165D01*
X5940Y-9181D01*
X5965Y-9198D01*
X5992Y-9215D01*
X6018Y-9232D01*
X6045Y-9249D01*
X6070Y-9266D01*
X6095Y-9282D01*
X6095Y-9282D01*
X6239Y-9376D01*
X6251Y-9352D01*
X6265Y-9327D01*
X6279Y-9302D01*
X6293Y-9280D01*
X6295Y-9276D01*
X6300Y-9269D01*
X6303Y-9264D01*
X6305Y-9260D01*
X6305Y-9260D01*
X6303Y-9258D01*
X6299Y-9254D01*
X6293Y-9248D01*
X6283Y-9240D01*
X6272Y-9229D01*
X6259Y-9217D01*
X6243Y-9203D01*
X6226Y-9187D01*
X6208Y-9171D01*
X6188Y-9153D01*
X6167Y-9134D01*
X6145Y-9114D01*
X6123Y-9093D01*
X6099Y-9072D01*
X6076Y-9050D01*
X6052Y-9028D01*
X6028Y-9007D01*
X6004Y-8985D01*
X5980Y-8963D01*
X5956Y-8942D01*
X5934Y-8922D01*
X5930Y-8918D01*
X5914Y-8904D01*
X5901Y-8891D01*
X5890Y-8882D01*
X5882Y-8874D01*
X5877Y-8868D01*
X5873Y-8864D01*
X5872Y-8862D01*
X5872Y-8862D01*
X5874Y-8860D01*
X5876Y-8855D01*
X5881Y-8848D01*
X5886Y-8838D01*
X5892Y-8828D01*
X5898Y-8817D01*
X5904Y-8806D01*
X5911Y-8795D01*
X5916Y-8785D01*
X5921Y-8777D01*
X5925Y-8770D01*
X5927Y-8767D01*
X5928Y-8766D01*
X5929Y-8767D01*
X5934Y-8769D01*
X5943Y-8773D01*
X5954Y-8778D01*
X5967Y-8785D01*
X5983Y-8793D01*
X6001Y-8802D01*
X6021Y-8812D01*
X6043Y-8822D01*
X6066Y-8834D01*
X6090Y-8846D01*
X6109Y-8855D01*
X6134Y-8867D01*
X6158Y-8879D01*
X6180Y-8890D01*
X6202Y-8901D01*
X6221Y-8911D01*
X6239Y-8919D01*
X6254Y-8927D01*
X6267Y-8933D01*
X6277Y-8938D01*
X6285Y-8942D01*
X6289Y-8944D01*
X6290Y-8944D01*
X6289Y-8943D01*
X6286Y-8938D01*
X6280Y-8931D01*
X6273Y-8921D01*
X6263Y-8909D01*
X6252Y-8895D01*
X6240Y-8879D01*
X6226Y-8862D01*
X6211Y-8843D01*
X6194Y-8822D01*
X6177Y-8801D01*
X6160Y-8778D01*
X6156Y-8774D01*
X6021Y-8603D01*
X6025Y-8597D01*
X6027Y-8594D01*
X6031Y-8587D01*
X6036Y-8579D01*
X6041Y-8569D01*
X6048Y-8558D01*
X6048Y-8558D01*
X6054Y-8546D01*
X6061Y-8535D01*
X6066Y-8526D01*
X6071Y-8518D01*
X6074Y-8513D01*
X6081Y-8501D01*
X6113Y-8532D01*
X6125Y-8543D01*
X6138Y-8555D01*
X6152Y-8568D01*
X6164Y-8580D01*
X6174Y-8589D01*
X6203Y-8617D01*
X6192Y-8626D01*
X6182Y-8636D01*
X6174Y-8648D01*
X6168Y-8661D01*
X6166Y-8673D01*
X6165Y-8682D01*
X6167Y-8688D01*
X6171Y-8693D01*
X6178Y-8697D01*
X6180Y-8698D01*
X6189Y-8704D01*
X6198Y-8712D01*
X6200Y-8715D01*
X6205Y-8721D01*
X6211Y-8726D01*
X6215Y-8729D01*
X6215Y-8729D01*
X6219Y-8731D01*
X6223Y-8734D01*
X6228Y-8739D01*
X6235Y-8746D01*
X6244Y-8755D01*
X6246Y-8757D01*
X6254Y-8765D01*
X6262Y-8770D01*
X6270Y-8774D01*
X6277Y-8775D01*
X6278Y-8774D01*
X6284Y-8771D01*
X6292Y-8765D01*
X6300Y-8757D01*
X6306Y-8749D01*
X6311Y-8744D01*
X6315Y-8740D01*
X6317Y-8738D01*
X6317Y-8738D01*
X6319Y-8739D01*
X6323Y-8743D01*
X6329Y-8750D01*
X6336Y-8757D01*
X6344Y-8766D01*
X6348Y-8770D01*
X6400Y-8831D01*
X6449Y-8891D01*
X6496Y-8950D01*
X6518Y-8980D01*
X6545Y-9016D01*
X6565Y-9002D01*
X6578Y-8994D01*
X6591Y-8986D01*
X6604Y-8978D01*
X6617Y-8970D01*
X6628Y-8964D01*
X6635Y-8960D01*
X6642Y-8956D01*
X6647Y-8953D01*
X6648Y-8952D01*
X6649Y-8952D01*
X6649Y-8951D01*
X6649Y-8949D01*
X6649Y-8947D01*
X6648Y-8944D01*
X6646Y-8939D01*
X6644Y-8934D01*
X6641Y-8927D01*
X6637Y-8918D01*
X6632Y-8907D01*
X6627Y-8894D01*
X6620Y-8879D01*
X6612Y-8861D01*
X6603Y-8840D01*
X6592Y-8817D01*
X6580Y-8790D01*
X6567Y-8761D01*
X6559Y-8744D01*
X6544Y-8711D01*
X6529Y-8676D01*
X6512Y-8639D01*
X6494Y-8601D01*
X6476Y-8562D01*
X6458Y-8522D01*
X6441Y-8483D01*
X6423Y-8445D01*
X6407Y-8409D01*
X6391Y-8375D01*
X6377Y-8344D01*
X6377Y-8343D01*
X6365Y-8316D01*
X6353Y-8291D01*
X6342Y-8267D01*
X6332Y-8245D01*
X6322Y-8224D01*
X6314Y-8205D01*
X6306Y-8188D01*
X6300Y-8174D01*
X6295Y-8162D01*
X6291Y-8153D01*
X6288Y-8148D01*
X6287Y-8145D01*
X6287Y-8145D01*
X6288Y-8143D01*
X6291Y-8138D01*
X6295Y-8131D01*
X6300Y-8121D01*
X6307Y-8109D01*
X6314Y-8097D01*
X6322Y-8083D01*
X6330Y-8069D01*
X6338Y-8054D01*
X6346Y-8040D01*
X6354Y-8027D01*
X6361Y-8015D01*
X6367Y-8005D01*
X6372Y-7996D01*
X6376Y-7990D01*
X6377Y-7987D01*
X6380Y-7983D01*
X6387Y-7995D01*
X6392Y-8005D01*
X6399Y-8011D01*
X6407Y-8015D01*
X6415Y-8015D01*
X6429Y-8014D01*
X6443Y-8009D01*
X6456Y-8001D01*
X6470Y-7989D01*
X6483Y-7974D01*
X6492Y-7961D01*
X6504Y-7944D01*
X6513Y-7929D01*
X6519Y-7917D01*
X6524Y-7907D01*
X6526Y-7898D01*
X6527Y-7897D01*
X6529Y-7887D01*
X6530Y-7880D01*
X6529Y-7874D01*
X6527Y-7868D01*
X6523Y-7862D01*
X6517Y-7855D01*
X6512Y-7850D01*
X6505Y-7842D01*
X6497Y-7834D01*
X6491Y-7827D01*
X6486Y-7822D01*
X6477Y-7814D01*
X6511Y-7756D01*
X6519Y-7742D01*
X6526Y-7730D01*
X6532Y-7719D01*
X6538Y-7709D01*
X6542Y-7702D01*
X6545Y-7698D01*
X6545Y-7697D01*
X6546Y-7699D01*
X6548Y-7704D01*
X6550Y-7713D01*
X6554Y-7725D01*
X6559Y-7740D01*
X6564Y-7758D01*
X6570Y-7779D01*
X6577Y-7803D01*
X6585Y-7829D01*
X6593Y-7857D01*
X6602Y-7888D01*
X6612Y-7920D01*
X6621Y-7954D01*
X6632Y-7990D01*
X6643Y-8027D01*
X6654Y-8066D01*
X6665Y-8106D01*
X6677Y-8146D01*
X6689Y-8188D01*
X6701Y-8230D01*
X6714Y-8273D01*
X6726Y-8316D01*
X6739Y-8359D01*
X6751Y-8402D01*
X6763Y-8445D01*
X6775Y-8487D01*
X6787Y-8529D01*
X6799Y-8570D01*
X6811Y-8611D01*
X6822Y-8650D01*
X6828Y-8671D01*
X6836Y-8698D01*
X6843Y-8723D01*
X6850Y-8747D01*
X6856Y-8770D01*
X6862Y-8791D01*
X6868Y-8810D01*
X6873Y-8826D01*
X6877Y-8840D01*
X6880Y-8851D01*
X6882Y-8859D01*
X6884Y-8863D01*
X6884Y-8864D01*
X6886Y-8865D01*
X6892Y-8864D01*
X6900Y-8863D01*
X6909Y-8862D01*
X6911Y-8861D01*
X6953Y-8854D01*
X6997Y-8849D01*
X7040Y-8846D01*
X7083Y-8844D01*
X7124Y-8845D01*
X7156Y-8846D01*
X7167Y-8847D01*
X7175Y-8848D01*
X7180Y-8847D01*
X7183Y-8846D01*
X7185Y-8844D01*
X7185Y-8840D01*
X7185Y-8837D01*
X7186Y-8833D01*
X7187Y-8826D01*
X7188Y-8817D01*
X7190Y-8808D01*
X7192Y-8788D01*
X7192Y-8772D01*
X7191Y-8759D01*
X7189Y-8753D01*
X7186Y-8749D01*
X7181Y-8744D01*
X7175Y-8737D01*
X7167Y-8730D01*
X7164Y-8728D01*
X7152Y-8717D01*
X7143Y-8708D01*
X7135Y-8700D01*
X7130Y-8692D01*
X7125Y-8684D01*
X7122Y-8679D01*
X7116Y-8667D01*
X7121Y-8638D01*
X7124Y-8626D01*
X7127Y-8612D01*
X7130Y-8600D01*
X7132Y-8589D01*
X7133Y-8588D01*
X7135Y-8579D01*
X7137Y-8571D01*
X7137Y-8565D01*
X7137Y-8563D01*
X7134Y-8557D01*
X7128Y-8550D01*
X7121Y-8544D01*
X7116Y-8541D01*
X7111Y-8539D01*
X7107Y-8538D01*
X7102Y-8537D01*
X7096Y-8538D01*
X7090Y-8539D01*
X7079Y-8540D01*
X7072Y-8540D01*
X7067Y-8539D01*
X7064Y-8536D01*
X7062Y-8532D01*
X7061Y-8527D01*
X7056Y-8523D01*
X7054Y-8522D01*
X7049Y-8520D01*
X7045Y-8519D01*
X7039Y-8520D01*
X7035Y-8521D01*
X7028Y-8523D01*
X7020Y-8526D01*
X7010Y-8530D01*
X7003Y-8534D01*
X6993Y-8538D01*
X6986Y-8541D01*
X6982Y-8542D01*
X6978Y-8541D01*
X6975Y-8538D01*
X6972Y-8533D01*
X6972Y-8532D01*
X6970Y-8529D01*
X6969Y-8523D01*
X6967Y-8516D01*
X6966Y-8506D01*
X6965Y-8493D01*
X6963Y-8478D01*
X6962Y-8459D01*
X6960Y-8436D01*
X6959Y-8415D01*
X6958Y-8407D01*
X6958Y-8396D01*
X6958Y-8382D01*
X6957Y-8367D01*
X6957Y-8349D01*
X6957Y-8330D01*
X6956Y-8310D01*
X6956Y-8289D01*
X6956Y-8268D01*
X6956Y-8247D01*
X6955Y-8226D01*
X6955Y-8206D01*
X6955Y-8187D01*
X6955Y-8169D01*
X6955Y-8153D01*
X6956Y-8139D01*
X6956Y-8128D01*
X6956Y-8120D01*
X6956Y-8115D01*
X6956Y-8113D01*
X6957Y-8115D01*
X6957Y-8095D01*
X6957Y-8089D01*
X6958Y-8088D01*
X6958Y-8086D01*
X6958Y-8088D01*
X6958Y-8093D01*
X6958Y-8095D01*
X6958Y-8100D01*
X6958Y-8103D01*
X6958Y-8103D01*
X6958Y-8102D01*
X6957Y-8095D01*
X6957Y-8115D01*
X6958Y-8115D01*
X6959Y-8120D01*
X6960Y-8126D01*
X6960Y-8128D01*
X6960Y-7995D01*
X6960Y-7989D01*
X6960Y-7980D01*
X6961Y-7969D01*
X6961Y-7956D01*
X6962Y-7940D01*
X6963Y-7924D01*
X6963Y-7920D01*
X6969Y-7816D01*
X6976Y-7708D01*
X6984Y-7597D01*
X6994Y-7483D01*
X7005Y-7366D01*
X7018Y-7245D01*
X7031Y-7121D01*
X7038Y-7062D01*
X7048Y-6973D01*
X7060Y-6995D01*
X7068Y-7013D01*
X7074Y-7029D01*
X7075Y-7033D01*
X7080Y-7049D01*
X7085Y-7062D01*
X7092Y-7073D01*
X7099Y-7082D01*
X7103Y-7085D01*
X7108Y-7090D01*
X7116Y-7098D01*
X7124Y-7107D01*
X7132Y-7116D01*
X7136Y-7121D01*
X7145Y-7130D01*
X7153Y-7140D01*
X7162Y-7148D01*
X7169Y-7155D01*
X7171Y-7157D01*
X7181Y-7166D01*
X7191Y-7176D01*
X7201Y-7186D01*
X7209Y-7196D01*
X7212Y-7201D01*
X7215Y-7207D01*
X7218Y-7215D01*
X7219Y-7220D01*
X7221Y-7229D01*
X7225Y-7237D01*
X7227Y-7242D01*
X7230Y-7247D01*
X7236Y-7254D01*
X7244Y-7263D01*
X7253Y-7273D01*
X7264Y-7285D01*
X7276Y-7297D01*
X7289Y-7309D01*
X7301Y-7320D01*
X7303Y-7322D01*
X7316Y-7334D01*
X7325Y-7345D01*
X7333Y-7356D01*
X7339Y-7368D01*
X7340Y-7371D01*
X7346Y-7382D01*
X7354Y-7390D01*
X7364Y-7394D01*
X7377Y-7396D01*
X7391Y-7394D01*
X7402Y-7392D01*
X7416Y-7386D01*
X7429Y-7379D01*
X7443Y-7369D01*
X7456Y-7356D01*
X7470Y-7339D01*
X7482Y-7323D01*
X7491Y-7310D01*
X7500Y-7297D01*
X7508Y-7284D01*
X7515Y-7272D01*
X7521Y-7261D01*
X7526Y-7252D01*
X7529Y-7245D01*
X7529Y-7245D01*
X7530Y-7238D01*
X7532Y-7230D01*
X7533Y-7220D01*
X7534Y-7211D01*
X7535Y-7203D01*
X7535Y-7201D01*
X7535Y-7198D01*
X7533Y-7194D01*
X7529Y-7189D01*
X7524Y-7182D01*
X7517Y-7174D01*
X7508Y-7164D01*
X7496Y-7153D01*
X7482Y-7138D01*
X7474Y-7130D01*
X7460Y-7116D01*
X7448Y-7104D01*
X7439Y-7093D01*
X7431Y-7084D01*
X7424Y-7075D01*
X7419Y-7066D01*
X7414Y-7057D01*
X7409Y-7047D01*
X7405Y-7040D01*
X7401Y-7030D01*
X7395Y-7019D01*
X7391Y-7010D01*
X7388Y-7005D01*
X7382Y-6996D01*
X7375Y-6985D01*
X7369Y-6973D01*
X7363Y-6962D01*
X7357Y-6951D01*
X7353Y-6943D01*
X7350Y-6936D01*
X7349Y-6934D01*
X7347Y-6928D01*
X7346Y-6922D01*
X7346Y-6921D01*
X7344Y-6915D01*
X7340Y-6909D01*
X7334Y-6901D01*
X7326Y-6893D01*
X7317Y-6886D01*
X7309Y-6880D01*
X7301Y-6875D01*
X7294Y-6872D01*
X7292Y-6872D01*
X7288Y-6873D01*
X7281Y-6874D01*
X7272Y-6877D01*
X7261Y-6881D01*
X7250Y-6884D01*
X7248Y-6885D01*
X7235Y-6889D01*
X7226Y-6893D01*
X7218Y-6895D01*
X7212Y-6896D01*
X7208Y-6897D01*
X7203Y-6897D01*
X7199Y-6897D01*
X7194Y-6897D01*
X7181Y-6895D01*
X7167Y-6893D01*
X7154Y-6889D01*
X7141Y-6885D01*
X7132Y-6881D01*
X7129Y-6880D01*
X7121Y-6875D01*
X7114Y-6874D01*
X7111Y-6873D01*
X7101Y-6874D01*
X7090Y-6877D01*
X7079Y-6882D01*
X7070Y-6886D01*
X7067Y-6888D01*
X7063Y-6891D01*
X7059Y-6893D01*
X7058Y-6894D01*
X7058Y-6892D01*
X7058Y-6888D01*
X7057Y-6885D01*
X7057Y-6879D01*
X7055Y-6870D01*
X7052Y-6861D01*
X7050Y-6855D01*
X7043Y-6833D01*
X7146Y-6655D01*
X7161Y-6630D01*
X7174Y-6607D01*
X7187Y-6585D01*
X7199Y-6564D01*
X7210Y-6545D01*
X7220Y-6528D01*
X7229Y-6513D01*
X7236Y-6500D01*
X7242Y-6489D01*
X7247Y-6482D01*
X7250Y-6477D01*
X7250Y-6476D01*
X7251Y-6478D01*
X7254Y-6483D01*
X7258Y-6491D01*
X7265Y-6501D01*
X7272Y-6514D01*
X7281Y-6530D01*
X7292Y-6548D01*
X7303Y-6567D01*
X7316Y-6589D01*
X7329Y-6612D01*
X7343Y-6636D01*
X7357Y-6661D01*
X7372Y-6687D01*
X7388Y-6714D01*
X7403Y-6741D01*
X7419Y-6769D01*
X7435Y-6796D01*
X7451Y-6823D01*
X7466Y-6850D01*
X7481Y-6876D01*
X7496Y-6901D01*
X7510Y-6926D01*
X7523Y-6949D01*
X7535Y-6970D01*
X7546Y-6990D01*
X7557Y-7008D01*
X7566Y-7024D01*
X7573Y-7037D01*
X7580Y-7048D01*
X7584Y-7057D01*
X7587Y-7062D01*
X7588Y-7064D01*
X7588Y-7066D01*
X7587Y-7073D01*
X7585Y-7082D01*
X7583Y-7095D01*
X7581Y-7111D01*
X7578Y-7129D01*
X7574Y-7150D01*
X7570Y-7173D01*
X7566Y-7198D01*
X7561Y-7225D01*
X7556Y-7253D01*
X7551Y-7283D01*
X7546Y-7313D01*
X7540Y-7345D01*
X7535Y-7377D01*
X7529Y-7410D01*
X7523Y-7442D01*
X7518Y-7475D01*
X7512Y-7507D01*
X7506Y-7538D01*
X7501Y-7569D01*
X7496Y-7599D01*
X7491Y-7627D01*
X7486Y-7654D01*
X7481Y-7679D01*
X7477Y-7702D01*
X7474Y-7723D01*
X7470Y-7741D01*
X7467Y-7757D01*
X7465Y-7769D01*
X7463Y-7779D01*
X7462Y-7785D01*
X7461Y-7788D01*
X7460Y-7791D01*
X7458Y-7796D01*
X7456Y-7803D01*
X7454Y-7812D01*
X7451Y-7822D01*
X7448Y-7835D01*
X7445Y-7850D01*
X7441Y-7867D01*
X7437Y-7887D01*
X7432Y-7910D01*
X7426Y-7935D01*
X7420Y-7964D01*
X7414Y-7995D01*
X7407Y-8030D01*
X7399Y-8068D01*
X7390Y-8110D01*
X7382Y-8154D01*
X7374Y-8189D01*
X7368Y-8222D01*
X7362Y-8250D01*
X7357Y-8276D01*
X7352Y-8298D01*
X7348Y-8317D01*
X7345Y-8334D01*
X7342Y-8348D01*
X7339Y-8360D01*
X7337Y-8370D01*
X7336Y-8378D01*
X7334Y-8384D01*
X7333Y-8389D01*
X7332Y-8392D01*
X7332Y-8395D01*
X7331Y-8396D01*
X7331Y-8397D01*
X7330Y-8397D01*
X7329Y-8395D01*
X7327Y-8391D01*
X7327Y-8389D01*
X7324Y-8383D01*
X7320Y-8374D01*
X7315Y-8364D01*
X7309Y-8351D01*
X7301Y-8338D01*
X7293Y-8323D01*
X7287Y-8313D01*
X7281Y-8302D01*
X7275Y-8289D01*
X7269Y-8277D01*
X7265Y-8269D01*
X7256Y-8250D01*
X7247Y-8228D01*
X7236Y-8204D01*
X7224Y-8178D01*
X7211Y-8152D01*
X7199Y-8127D01*
X7187Y-8102D01*
X7179Y-8087D01*
X7150Y-8028D01*
X7133Y-8011D01*
X7113Y-7993D01*
X7093Y-7978D01*
X7074Y-7967D01*
X7055Y-7958D01*
X7038Y-7954D01*
X7022Y-7951D01*
X7007Y-7950D01*
X6994Y-7951D01*
X6985Y-7954D01*
X6978Y-7958D01*
X6977Y-7959D01*
X6975Y-7963D01*
X6972Y-7970D01*
X6968Y-7978D01*
X6967Y-7981D01*
X6964Y-7988D01*
X6962Y-7993D01*
X6960Y-7996D01*
X6960Y-7997D01*
X6960Y-7995D01*
X6960Y-8128D01*
X6961Y-8137D01*
X6965Y-8147D01*
X6970Y-8156D01*
X6977Y-8165D01*
X6988Y-8174D01*
X7000Y-8184D01*
X7008Y-8190D01*
X7012Y-8195D01*
X7014Y-8199D01*
X7013Y-8202D01*
X7011Y-8204D01*
X7009Y-8207D01*
X7009Y-8213D01*
X7010Y-8222D01*
X7013Y-8233D01*
X7018Y-8247D01*
X7019Y-8250D01*
X7029Y-8275D01*
X7039Y-8278D01*
X7052Y-8281D01*
X7062Y-8282D01*
X7071Y-8282D01*
X7080Y-8279D01*
X7089Y-8274D01*
X7091Y-8273D01*
X7102Y-8266D01*
X7113Y-8263D01*
X7123Y-8263D01*
X7127Y-8264D01*
X7134Y-8267D01*
X7137Y-8271D01*
X7138Y-8278D01*
X7137Y-8283D01*
X7137Y-8289D01*
X7137Y-8294D01*
X7139Y-8299D01*
X7142Y-8307D01*
X7143Y-8310D01*
X7147Y-8320D01*
X7152Y-8329D01*
X7156Y-8337D01*
X7157Y-8338D01*
X7161Y-8345D01*
X7166Y-8354D01*
X7170Y-8363D01*
X7171Y-8364D01*
X7176Y-8372D01*
X7182Y-8382D01*
X7188Y-8391D01*
X7190Y-8394D01*
X7199Y-8406D01*
X7208Y-8420D01*
X7216Y-8434D01*
X7223Y-8447D01*
X7228Y-8458D01*
X7228Y-8458D01*
X7231Y-8465D01*
X7232Y-8469D01*
X7232Y-8471D01*
X7230Y-8473D01*
X7229Y-8475D01*
X7226Y-8479D01*
X7223Y-8485D01*
X7223Y-8486D01*
X7220Y-8490D01*
X7216Y-8497D01*
X7210Y-8504D01*
X7207Y-8507D01*
X7202Y-8514D01*
X7198Y-8520D01*
X7196Y-8525D01*
X7196Y-8531D01*
X7197Y-8539D01*
X7198Y-8546D01*
X7200Y-8554D01*
X7203Y-8560D01*
X7207Y-8565D01*
X7209Y-8567D01*
X7211Y-8570D01*
X7213Y-8571D01*
X7215Y-8573D01*
X7218Y-8574D01*
X7221Y-8575D01*
X7226Y-8575D01*
X7232Y-8575D01*
X7241Y-8575D01*
X7251Y-8575D01*
X7266Y-8574D01*
X7284Y-8573D01*
X7286Y-8573D01*
X7301Y-8573D01*
X7312Y-8573D01*
X7320Y-8573D01*
X7325Y-8573D01*
X7328Y-8573D01*
X7330Y-8574D01*
X7330Y-8575D01*
X7330Y-8577D01*
X7329Y-8583D01*
X7328Y-8592D01*
X7326Y-8604D01*
X7323Y-8619D01*
X7320Y-8636D01*
X7317Y-8655D01*
X7314Y-8676D01*
X7310Y-8698D01*
X7306Y-8720D01*
X7302Y-8743D01*
X7299Y-8765D01*
X7295Y-8785D01*
X7292Y-8804D01*
X7290Y-8821D01*
X7287Y-8835D01*
X7285Y-8847D01*
X7284Y-8856D01*
X7283Y-8861D01*
X7283Y-8863D01*
X7285Y-8864D01*
X7291Y-8865D01*
X7299Y-8867D01*
X7308Y-8870D01*
X7316Y-8872D01*
X7329Y-8875D01*
X7345Y-8879D01*
X7360Y-8884D01*
X7373Y-8888D01*
X7375Y-8889D01*
X7385Y-8892D01*
X7394Y-8894D01*
X7401Y-8896D01*
X7404Y-8896D01*
X7405Y-8896D01*
X7406Y-8894D01*
X7408Y-8888D01*
X7411Y-8879D01*
X7416Y-8867D01*
X7421Y-8852D01*
X7427Y-8833D01*
X7435Y-8812D01*
X7443Y-8788D01*
X7452Y-8762D01*
X7462Y-8733D01*
X7473Y-8702D01*
X7484Y-8669D01*
X7496Y-8634D01*
X7509Y-8598D01*
X7522Y-8559D01*
X7536Y-8520D01*
X7550Y-8479D01*
X7564Y-8437D01*
X7579Y-8394D01*
X7594Y-8350D01*
X7609Y-8305D01*
X7625Y-8260D01*
X7640Y-8215D01*
X7656Y-8169D01*
X7671Y-8124D01*
X7687Y-8078D01*
X7702Y-8033D01*
X7718Y-7988D01*
X7733Y-7943D01*
X7748Y-7900D01*
X7763Y-7857D01*
X7777Y-7815D01*
X7791Y-7775D01*
X7804Y-7735D01*
X7809Y-7720D01*
X7818Y-7695D01*
X7826Y-7672D01*
X7833Y-7649D01*
X7841Y-7628D01*
X7847Y-7609D01*
X7853Y-7593D01*
X7858Y-7578D01*
X7862Y-7566D01*
X7865Y-7557D01*
X7867Y-7552D01*
X7868Y-7549D01*
X7868Y-7549D01*
X7869Y-7551D01*
X7872Y-7555D01*
X7877Y-7563D01*
X7883Y-7573D01*
X7890Y-7585D01*
X7898Y-7599D01*
X7908Y-7615D01*
X7918Y-7633D01*
X7929Y-7651D01*
X7940Y-7671D01*
X7952Y-7691D01*
X7963Y-7711D01*
X7975Y-7731D01*
X7986Y-7751D01*
X7998Y-7770D01*
X8008Y-7789D01*
X8018Y-7806D01*
X8027Y-7822D01*
X8035Y-7836D01*
X8042Y-7848D01*
X8048Y-7858D01*
X8051Y-7865D01*
X8054Y-7870D01*
X8054Y-7871D01*
X8053Y-7873D01*
X8051Y-7879D01*
X8047Y-7887D01*
X8041Y-7898D01*
X8034Y-7912D01*
X8026Y-7928D01*
X8017Y-7947D01*
X8006Y-7967D01*
X7995Y-7989D01*
X7983Y-8013D01*
X7970Y-8038D01*
X7957Y-8064D01*
X7951Y-8075D01*
X7939Y-8099D01*
X7925Y-8126D01*
X7910Y-8156D01*
X7893Y-8188D01*
X7876Y-8223D01*
X7857Y-8259D01*
X7838Y-8297D01*
X7818Y-8336D01*
X7797Y-8376D01*
X7777Y-8416D01*
X7756Y-8457D01*
X7736Y-8497D01*
X7715Y-8537D01*
X7695Y-8575D01*
X7678Y-8609D01*
X7508Y-8942D01*
X7523Y-8950D01*
X7560Y-8971D01*
X7594Y-8992D01*
X7628Y-9014D01*
X7661Y-9038D01*
X7668Y-9044D01*
X7670Y-9043D01*
X7676Y-9040D01*
X7683Y-9034D01*
X7693Y-9027D01*
X7706Y-9017D01*
X7721Y-9006D01*
X7722Y-9005D01*
X7754Y-8980D01*
X7790Y-8953D01*
X7828Y-8924D01*
X7869Y-8893D01*
X7912Y-8862D01*
X7957Y-8829D01*
X7992Y-8803D01*
X7992Y-8440D01*
X7995Y-8428D01*
X8001Y-8415D01*
X8010Y-8401D01*
X8018Y-8391D01*
X8026Y-8381D01*
X8032Y-8373D01*
X8036Y-8364D01*
X8039Y-8355D01*
X8039Y-8353D01*
X8042Y-8346D01*
X8047Y-8338D01*
X8053Y-8331D01*
X8064Y-8317D01*
X8071Y-8302D01*
X8074Y-8290D01*
X8076Y-8284D01*
X8079Y-8280D01*
X8085Y-8278D01*
X8094Y-8275D01*
X8096Y-8275D01*
X8112Y-8274D01*
X8128Y-8276D01*
X8145Y-8281D01*
X8162Y-8289D01*
X8177Y-8301D01*
X8182Y-8306D01*
X8188Y-8313D01*
X8189Y-8322D01*
X8188Y-8332D01*
X8188Y-8333D01*
X8185Y-8343D01*
X8179Y-8355D01*
X8172Y-8368D01*
X8164Y-8383D01*
X8156Y-8398D01*
X8147Y-8413D01*
X8139Y-8424D01*
X8134Y-8433D01*
X8130Y-8440D01*
X8128Y-8447D01*
X8126Y-8453D01*
X8126Y-8454D01*
X8122Y-8466D01*
X8119Y-8475D01*
X8115Y-8482D01*
X8110Y-8487D01*
X8102Y-8491D01*
X8092Y-8495D01*
X8085Y-8498D01*
X8076Y-8501D01*
X8071Y-8502D01*
X8067Y-8503D01*
X8065Y-8503D01*
X8062Y-8502D01*
X8061Y-8501D01*
X8056Y-8498D01*
X8051Y-8494D01*
X8050Y-8493D01*
X8044Y-8489D01*
X8037Y-8485D01*
X8033Y-8483D01*
X8020Y-8476D01*
X8009Y-8469D01*
X8001Y-8462D01*
X7997Y-8458D01*
X7993Y-8449D01*
X7992Y-8440D01*
X7992Y-8803D01*
X8003Y-8795D01*
X8051Y-8761D01*
X8100Y-8726D01*
X8149Y-8690D01*
X8198Y-8655D01*
X8248Y-8620D01*
X8297Y-8586D01*
X8346Y-8552D01*
X8394Y-8519D01*
X8395Y-8519D01*
X8419Y-8501D01*
X8426Y-8513D01*
X8428Y-8515D01*
X8431Y-8521D01*
X8436Y-8530D01*
X8444Y-8542D01*
X8452Y-8558D01*
X8463Y-8576D01*
X8475Y-8597D01*
X8489Y-8621D01*
X8504Y-8648D01*
X8521Y-8677D01*
X8540Y-8709D01*
X8560Y-8743D01*
X8581Y-8780D01*
X8603Y-8819D01*
X8627Y-8860D01*
X8652Y-8904D01*
X8678Y-8949D01*
X8706Y-8996D01*
X8734Y-9046D01*
X8764Y-9097D01*
X8794Y-9150D01*
X8826Y-9204D01*
X8858Y-9260D01*
X8891Y-9318D01*
X8925Y-9376D01*
X8960Y-9437D01*
X8995Y-9498D01*
X9032Y-9560D01*
X9068Y-9624D01*
X9105Y-9689D01*
X9143Y-9753D01*
X9181Y-9819D01*
X9220Y-9886D01*
X9259Y-9954D01*
X9298Y-10022D01*
X9338Y-10090D01*
X9378Y-10159D01*
X9418Y-10228D01*
X9458Y-10298D01*
X9498Y-10367D01*
X9538Y-10437D01*
X9578Y-10506D01*
X9618Y-10576D01*
X9658Y-10645D01*
X9698Y-10714D01*
X9738Y-10782D01*
X9777Y-10851D01*
X9816Y-10918D01*
X9855Y-10985D01*
X9893Y-11051D01*
X9931Y-11117D01*
X9968Y-11181D01*
X10004Y-11245D01*
X10041Y-11307D01*
X10076Y-11369D01*
X10111Y-11429D01*
X10145Y-11488D01*
X10178Y-11545D01*
X10210Y-11601D01*
X10242Y-11656D01*
X10272Y-11709D01*
X10302Y-11760D01*
X10330Y-11809D01*
X10358Y-11857D01*
X10384Y-11902D01*
X10409Y-11945D01*
X10433Y-11987D01*
X10455Y-12026D01*
X10476Y-12063D01*
X10496Y-12097D01*
X10515Y-12129D01*
X10532Y-12158D01*
X10547Y-12185D01*
X10561Y-12209D01*
X10573Y-12230D01*
X10584Y-12249D01*
X10593Y-12264D01*
X10600Y-12276D01*
X10605Y-12285D01*
X10608Y-12291D01*
X10610Y-12294D01*
X10610Y-12294D01*
X10610Y-12294D01*
X10609Y-12294D01*
X10607Y-12294D01*
X10604Y-12294D01*
X10601Y-12295D01*
X10596Y-12295D01*
X10591Y-12295D01*
X10584Y-12295D01*
X10577Y-12295D01*
X10568Y-12295D01*
X10558Y-12295D01*
X10547Y-12295D01*
X10535Y-12295D01*
X10521Y-12295D01*
X10506Y-12295D01*
X10489Y-12296D01*
X10471Y-12296D01*
X10451Y-12296D01*
X10429Y-12296D01*
X10406Y-12296D01*
X10381Y-12296D01*
X10354Y-12296D01*
X10325Y-12296D01*
X10295Y-12296D01*
X10262Y-12296D01*
X10228Y-12296D01*
X10191Y-12296D01*
X10152Y-12296D01*
X10111Y-12296D01*
X10068Y-12296D01*
X10023Y-12296D01*
X9975Y-12296D01*
X9925Y-12296D01*
X9872Y-12296D01*
X9817Y-12296D01*
X9759Y-12297D01*
X9698Y-12297D01*
X9635Y-12297D01*
X9569Y-12297D01*
X9501Y-12297D01*
X9429Y-12297D01*
X9355Y-12297D01*
X9277Y-12297D01*
X9197Y-12297D01*
X9113Y-12297D01*
X9027Y-12297D01*
X8937Y-12297D01*
X8844Y-12297D01*
X8748Y-12297D01*
X8648Y-12297D01*
X8545Y-12297D01*
X8439Y-12297D01*
X8329Y-12297D01*
X8216Y-12297D01*
X8098Y-12297D01*
X7978Y-12297D01*
X7853Y-12297D01*
X7725Y-12297D01*
X7593Y-12297D01*
X7457Y-12297D01*
X7454Y-12297D01*
X7317Y-12297D01*
X7185Y-12297D01*
X7056Y-12297D01*
X6931Y-12297D01*
X6809Y-12297D01*
X6691Y-12297D01*
X6576Y-12297D01*
X6465Y-12297D01*
X6358Y-12297D01*
X6254Y-12297D01*
X6154Y-12297D01*
X6057Y-12297D01*
X5963Y-12297D01*
X5872Y-12297D01*
X5785Y-12297D01*
X5701Y-12297D01*
X5620Y-12297D01*
X5542Y-12297D01*
X5467Y-12297D01*
X5394Y-12297D01*
X5325Y-12297D01*
X5259Y-12297D01*
X5195Y-12297D01*
X5134Y-12296D01*
X5076Y-12296D01*
X5020Y-12296D01*
X4967Y-12296D01*
X4916Y-12296D01*
X4868Y-12296D01*
X4822Y-12296D01*
X4779Y-12296D01*
X4738Y-12296D01*
X4699Y-12296D01*
X4662Y-12296D01*
X4628Y-12296D01*
X4595Y-12296D01*
X4565Y-12296D01*
X4537Y-12296D01*
X4510Y-12296D01*
X4485Y-12296D01*
X4463Y-12296D01*
X4442Y-12296D01*
X4422Y-12296D01*
X4405Y-12295D01*
X4388Y-12295D01*
X4374Y-12295D01*
X4361Y-12295D01*
X4349Y-12295D01*
X4339Y-12295D01*
X4330Y-12295D01*
X4323Y-12295D01*
X4316Y-12295D01*
X4311Y-12295D01*
X4307Y-12295D01*
X4304Y-12294D01*
X4302Y-12294D01*
X4301Y-12294D01*
X4301Y-12294D01*
X4303Y-12292D01*
X4308Y-12289D01*
X4315Y-12283D01*
X4325Y-12275D01*
X4337Y-12265D01*
X4350Y-12255D01*
X4364Y-12243D01*
X4380Y-12230D01*
X4397Y-12217D01*
X4436Y-12185D01*
X4479Y-12151D01*
X4524Y-12114D01*
X4572Y-12075D01*
X4622Y-12034D01*
X4675Y-11992D01*
X4729Y-11947D01*
X4786Y-11901D01*
X4844Y-11853D01*
X4904Y-11804D01*
X4966Y-11754D01*
X5029Y-11702D01*
X5094Y-11649D01*
X5159Y-11595D01*
X5226Y-11541D01*
X5293Y-11485D01*
X5361Y-11430D01*
X5429Y-11373D01*
X5498Y-11317D01*
X5567Y-11260D01*
X5637Y-11203D01*
X5706Y-11146D01*
X5774Y-11089D01*
X5843Y-11032D01*
X5911Y-10976D01*
X5978Y-10920D01*
X6045Y-10865D01*
X6110Y-10811D01*
X6175Y-10757D01*
X6208Y-10730D01*
X6476Y-10507D01*
X6452Y-10484D01*
X6444Y-10476D01*
X6437Y-10470D01*
X6431Y-10465D01*
X6428Y-10462D01*
X6426Y-10461D01*
X6425Y-10462D01*
X6420Y-10465D01*
X6412Y-10470D01*
X6403Y-10476D01*
X6391Y-10484D01*
X6378Y-10493D01*
X6364Y-10502D01*
X6357Y-10508D01*
X6337Y-10521D01*
X6315Y-10536D01*
X6290Y-10553D01*
X6263Y-10571D01*
X6234Y-10591D01*
X6203Y-10611D01*
X6172Y-10632D01*
X6139Y-10654D01*
X6107Y-10676D01*
X6074Y-10697D01*
X6041Y-10719D01*
X6009Y-10740D01*
X5978Y-10761D01*
X5961Y-10772D01*
X5948Y-10780D01*
X5933Y-10790D01*
X5916Y-10801D01*
X5898Y-10813D01*
X5878Y-10826D01*
X5857Y-10840D01*
X5836Y-10854D01*
X5814Y-10868D01*
X5791Y-10882D01*
X5769Y-10897D01*
X5748Y-10911D01*
X5727Y-10924D01*
X5707Y-10937D01*
X5688Y-10949D01*
X5671Y-10960D01*
X5656Y-10970D01*
X5643Y-10979D01*
X5633Y-10986D01*
X5625Y-10991D01*
X5620Y-10994D01*
X5614Y-10997D01*
X5619Y-10992D01*
X5622Y-10988D01*
X5623Y-10986D01*
X5623Y-10985D01*
X5621Y-10983D01*
X5617Y-10978D01*
X5610Y-10972D01*
X5603Y-10965D01*
X5594Y-10956D01*
X5585Y-10948D01*
X5576Y-10940D01*
X5567Y-10932D01*
X5559Y-10925D01*
X5553Y-10920D01*
X5553Y-10920D01*
X5546Y-10914D01*
X5540Y-10909D01*
X5535Y-10904D01*
X5534Y-10902D01*
X5531Y-10898D01*
X5527Y-10893D01*
X5521Y-10889D01*
X5516Y-10885D01*
X5513Y-10884D01*
X5509Y-10885D01*
X5504Y-10889D01*
X5503Y-10890D01*
X5499Y-10892D01*
X5494Y-10895D01*
X5488Y-10897D01*
X5478Y-10900D01*
X5466Y-10904D01*
X5460Y-10906D01*
X5447Y-10909D01*
X5434Y-10913D01*
X5421Y-10916D01*
X5411Y-10918D01*
X5405Y-10920D01*
X5385Y-10926D01*
X5368Y-10934D01*
X5357Y-10939D01*
X5344Y-10945D01*
X5333Y-10950D01*
X5329Y-10951D01*
X5320Y-10955D01*
X5309Y-10960D01*
X5297Y-10965D01*
X5284Y-10971D01*
X5273Y-10977D01*
X5261Y-10983D01*
X5252Y-10988D01*
X5244Y-10992D01*
X5239Y-10995D01*
X5234Y-10999D01*
X5229Y-11003D01*
X5224Y-11009D01*
X5223Y-11010D01*
X5216Y-11017D01*
X5211Y-11022D01*
X5208Y-11027D01*
X5206Y-11032D01*
X5204Y-11038D01*
X5203Y-11046D01*
X5202Y-11056D01*
X5201Y-11066D01*
X5201Y-11075D01*
X5202Y-11083D01*
X5202Y-11085D01*
X5206Y-11089D01*
X5209Y-11090D01*
X5220Y-11093D01*
X5233Y-11098D01*
X5248Y-11104D01*
X5255Y-11107D01*
X5264Y-11111D01*
X5272Y-11113D01*
X5279Y-11115D01*
X5280Y-11115D01*
X5285Y-11115D01*
X5293Y-11116D01*
X5302Y-11117D01*
X5307Y-11118D01*
X5320Y-11120D01*
X5331Y-11120D01*
X5341Y-11120D01*
X5350Y-11119D01*
X5360Y-11116D01*
X5361Y-11116D01*
X5370Y-11114D01*
X5381Y-11111D01*
X5393Y-11108D01*
X5403Y-11105D01*
X5421Y-11100D01*
X5442Y-11094D01*
X5463Y-11086D01*
X5482Y-11078D01*
X5486Y-11076D01*
X5492Y-11074D01*
X5495Y-11073D01*
X5496Y-11073D01*
X5496Y-11073D01*
X5494Y-11074D01*
X5489Y-11078D01*
X5480Y-11084D01*
X5469Y-11091D01*
X5455Y-11100D01*
X5438Y-11111D01*
X5419Y-11123D01*
X5397Y-11137D01*
X5373Y-11152D01*
X5347Y-11169D01*
X5319Y-11187D01*
X5289Y-11206D01*
X5258Y-11226D01*
X5225Y-11248D01*
X5190Y-11270D01*
X5154Y-11293D01*
X5117Y-11317D01*
X5078Y-11341D01*
X5039Y-11366D01*
X4999Y-11392D01*
X4958Y-11418D01*
X4917Y-11444D01*
X4875Y-11470D01*
X4834Y-11497D01*
X4791Y-11524D01*
X4749Y-11551D01*
X4707Y-11578D01*
X4665Y-11604D01*
X4624Y-11631D01*
X4583Y-11657D01*
X4543Y-11682D01*
X4503Y-11707D01*
X4465Y-11732D01*
X4427Y-11756D01*
X4391Y-11779D01*
X4355Y-11801D01*
X4322Y-11823D01*
X4289Y-11843D01*
X4259Y-11863D01*
X4230Y-11881D01*
X4203Y-11898D01*
X4179Y-11913D01*
X4156Y-11928D01*
X4136Y-11940D01*
X4119Y-11951D01*
X4103Y-11961D01*
X4091Y-11969D01*
X4082Y-11974D01*
X4075Y-11978D01*
X4072Y-11980D01*
X4071Y-11981D01*
X4071Y-12717D01*
X4091Y-12717D01*
X4136Y-12717D01*
X4183Y-12717D01*
X4233Y-12717D01*
X4285Y-12717D01*
X4340Y-12717D01*
X4396Y-12717D01*
X4456Y-12717D01*
X4517Y-12717D01*
X4582Y-12717D01*
X4649Y-12717D01*
X4718Y-12717D01*
X4791Y-12717D01*
X4866Y-12717D01*
X4944Y-12717D01*
X5024Y-12717D01*
X5108Y-12717D01*
X5195Y-12717D01*
X5285Y-12717D01*
X5377Y-12717D01*
X5473Y-12717D01*
X5573Y-12717D01*
X5675Y-12717D01*
X5781Y-12717D01*
X5890Y-12717D01*
X6002Y-12717D01*
X6118Y-12717D01*
X6237Y-12717D01*
X6360Y-12717D01*
X6487Y-12718D01*
X6617Y-12718D01*
X6751Y-12718D01*
X6888Y-12718D01*
X7030Y-12718D01*
X7175Y-12718D01*
X7239Y-12718D01*
X7359Y-12718D01*
X7480Y-12718D01*
X7600Y-12718D01*
X7718Y-12718D01*
X7836Y-12718D01*
X7952Y-12718D01*
X8067Y-12718D01*
X8181Y-12718D01*
X8293Y-12718D01*
X8404Y-12718D01*
X8514Y-12718D01*
X8622Y-12718D01*
X8729Y-12718D01*
X8834Y-12718D01*
X8937Y-12718D01*
X9038Y-12718D01*
X9137Y-12718D01*
X9235Y-12717D01*
X9331Y-12717D01*
X9424Y-12717D01*
X9516Y-12717D01*
X9605Y-12717D01*
X9693Y-12717D01*
X9778Y-12717D01*
X9860Y-12717D01*
X9941Y-12717D01*
X10018Y-12717D01*
X10094Y-12717D01*
X10167Y-12717D01*
X10237Y-12717D01*
X10304Y-12717D01*
X10369Y-12717D01*
X10431Y-12717D01*
X10490Y-12717D01*
X10546Y-12717D01*
X10599Y-12717D01*
X10649Y-12717D01*
X10696Y-12717D01*
X10740Y-12717D01*
X10780Y-12717D01*
X10818Y-12717D01*
X10851Y-12717D01*
X10882Y-12717D01*
X10909Y-12717D01*
X10932Y-12717D01*
X10952Y-12717D01*
X10969Y-12717D01*
X10981Y-12716D01*
X10990Y-12716D01*
X10995Y-12716D01*
X10996Y-12716D01*
X11024Y-12712D01*
X11051Y-12704D01*
X11077Y-12692D01*
X11100Y-12677D01*
X11122Y-12659D01*
X11141Y-12638D01*
X11157Y-12615D01*
X11166Y-12599D01*
X11174Y-12580D01*
X11181Y-12561D01*
X11184Y-12542D01*
X11186Y-12521D01*
X11187Y-12508D01*
X11186Y-12486D01*
X11183Y-12467D01*
X11179Y-12449D01*
X11173Y-12431D01*
X11165Y-12414D01*
X11163Y-12412D01*
X11160Y-12406D01*
X11155Y-12397D01*
X11148Y-12385D01*
X11139Y-12370D01*
X11129Y-12352D01*
X11116Y-12330D01*
X11102Y-12306D01*
X11087Y-12278D01*
X11069Y-12248D01*
X11050Y-12215D01*
X11030Y-12180D01*
X11008Y-12141D01*
X10984Y-12101D01*
X10959Y-12057D01*
X10933Y-12011D01*
X10905Y-11963D01*
X10876Y-11913D01*
X10845Y-11860D01*
X10814Y-11805D01*
X10781Y-11748D01*
X10747Y-11689D01*
X10711Y-11628D01*
X10675Y-11564D01*
X10638Y-11500D01*
X10599Y-11433D01*
X10560Y-11364D01*
X10519Y-11294D01*
X10478Y-11222D01*
X10435Y-11149D01*
X10392Y-11074D01*
X10348Y-10998D01*
X10304Y-10920D01*
X10258Y-10842D01*
X10212Y-10761D01*
X10165Y-10680D01*
X10117Y-10598D01*
X10069Y-10514D01*
X10021Y-10430D01*
X9971Y-10345D01*
X9922Y-10259D01*
X9872Y-10172D01*
X9821Y-10084D01*
X9770Y-9996D01*
X9719Y-9907D01*
X9667Y-9818D01*
X9615Y-9729D01*
X9563Y-9639D01*
X9511Y-9548D01*
X9459Y-9458D01*
X9406Y-9367D01*
X9354Y-9275D01*
X9301Y-9184D01*
X9248Y-9093D01*
X9196Y-9002D01*
X9143Y-8911D01*
X9091Y-8820D01*
X9039Y-8730D01*
X8986Y-8639D01*
X8935Y-8549D01*
X8883Y-8460D01*
X8832Y-8371D01*
X8781Y-8283D01*
X8730Y-8195D01*
X8680Y-8108D01*
X8630Y-8022D01*
X8581Y-7936D01*
X8532Y-7852D01*
X8484Y-7768D01*
X8436Y-7686D01*
X8389Y-7604D01*
X8343Y-7524D01*
X8297Y-7445D01*
X8252Y-7367D01*
X8208Y-7291D01*
X8165Y-7216D01*
X8122Y-7142D01*
X8081Y-7070D01*
X8040Y-7000D01*
X8000Y-6931D01*
X7961Y-6864D01*
X7924Y-6799D01*
X7887Y-6735D01*
X7852Y-6674D01*
X7817Y-6615D01*
X7784Y-6557D01*
X7752Y-6502D01*
X7722Y-6449D01*
X7692Y-6398D01*
X7664Y-6349D01*
X7637Y-6303D01*
X7612Y-6260D01*
X7588Y-6218D01*
X7566Y-6180D01*
X7545Y-6144D01*
X7526Y-6110D01*
X7508Y-6080D01*
X7492Y-6052D01*
X7478Y-6027D01*
X7465Y-6005D01*
X7454Y-5986D01*
X7445Y-5970D01*
X7437Y-5958D01*
X7432Y-5948D01*
X7428Y-5942D01*
X7427Y-5939D01*
X7427Y-5939D01*
X7409Y-5916D01*
X7389Y-5896D01*
X7367Y-5879D01*
X7342Y-5864D01*
X7315Y-5853D01*
X7288Y-5845D01*
X7280Y-5844D01*
X7268Y-5843D01*
X7256Y-5843D01*
X7243Y-5843D01*
X7230Y-5844D01*
X7220Y-5844D01*
X7212Y-5845D01*
X7183Y-5853D01*
X7156Y-5865D01*
X7132Y-5879D01*
X7109Y-5897D01*
X7090Y-5917D01*
X7074Y-5938D01*
X7072Y-5941D01*
X7069Y-5947D01*
X7064Y-5956D01*
X7057Y-5968D01*
X7048Y-5983D01*
X7037Y-6002D01*
X7025Y-6023D01*
X7011Y-6048D01*
X6995Y-6075D01*
X6977Y-6105D01*
X6958Y-6138D01*
X6938Y-6174D01*
X6915Y-6212D01*
X6892Y-6253D01*
X6867Y-6296D01*
X6840Y-6342D01*
X6812Y-6390D01*
X6783Y-6441D01*
X6753Y-6494D01*
X6721Y-6549D01*
X6688Y-6606D01*
X6654Y-6665D01*
X6618Y-6726D01*
X6582Y-6789D01*
X6544Y-6854D01*
X6506Y-6921D01*
X6466Y-6989D01*
X6426Y-7059D01*
X6384Y-7131D01*
X6342Y-7205D01*
X6299Y-7279D01*
X6255Y-7356D01*
X6210Y-7433D01*
X6164Y-7512D01*
X6118Y-7592D01*
X6071Y-7674D01*
X6024Y-7756D01*
X5975Y-7839D01*
X5927Y-7924D01*
X5877Y-8009D01*
X5828Y-8095D01*
X5778Y-8182D01*
X5727Y-8270D01*
X5676Y-8358D01*
X5625Y-8447D01*
X5573Y-8536D01*
X5521Y-8626D01*
X5469Y-8716D01*
X5417Y-8807D01*
X5365Y-8897D01*
X5312Y-8988D01*
X5259Y-9080D01*
X5207Y-9171D01*
X5154Y-9262D01*
X5102Y-9353D01*
X5049Y-9444D01*
X4997Y-9535D01*
X4944Y-9625D01*
X4892Y-9716D01*
X4840Y-9805D01*
X4789Y-9894D01*
X4737Y-9983D01*
X4687Y-10071D01*
X4636Y-10159D01*
X4586Y-10246D01*
X4536Y-10332D01*
X4487Y-10418D01*
X4438Y-10502D01*
X4390Y-10586D01*
X4342Y-10668D01*
X4295Y-10750D01*
X4249Y-10830D01*
X4203Y-10909D01*
X4158Y-10987D01*
X4114Y-11063D01*
X4071Y-11138D01*
X4028Y-11212D01*
X3987Y-11284D01*
X3946Y-11354D01*
X3907Y-11423D01*
X3868Y-11490D01*
X3830Y-11555D01*
X3794Y-11618D01*
X3758Y-11680D01*
X3724Y-11739D01*
X3691Y-11797D01*
X3659Y-11852D01*
X3629Y-11905D01*
X3599Y-11956D01*
X3571Y-12004D01*
X3545Y-12051D01*
X3519Y-12094D01*
X3496Y-12135D01*
X3473Y-12174D01*
X3453Y-12210D01*
X3434Y-12243D01*
X3416Y-12274D01*
X3400Y-12302D01*
X3386Y-12327D01*
X3373Y-12349D01*
X3362Y-12367D01*
X3353Y-12383D01*
X3346Y-12396D01*
X3340Y-12405D01*
X3337Y-12412D01*
X3335Y-12414D01*
X3335Y-12414D01*
X3326Y-12434D01*
X3320Y-12452D01*
X3316Y-12471D01*
X3314Y-12490D01*
X3314Y-12508D01*
X3314Y-12508D01*
X3314Y-12508D01*
G37*
G36*
X6790Y-11017D02*
X6792Y-11018D01*
X6798Y-11019D01*
X6807Y-11021D01*
X6819Y-11023D01*
X6835Y-11026D01*
X6853Y-11029D01*
X6874Y-11033D01*
X6898Y-11037D01*
X6924Y-11041D01*
X6952Y-11046D01*
X6982Y-11052D01*
X7014Y-11057D01*
X7047Y-11063D01*
X7081Y-11069D01*
X7117Y-11076D01*
X7133Y-11079D01*
X7475Y-11139D01*
X7704Y-11299D01*
X7731Y-11318D01*
X7757Y-11336D01*
X7782Y-11353D01*
X7806Y-11370D01*
X7828Y-11385D01*
X7849Y-11399D01*
X7867Y-11413D01*
X7884Y-11424D01*
X7899Y-11435D01*
X7911Y-11443D01*
X7921Y-11450D01*
X7928Y-11455D01*
X7932Y-11458D01*
X7933Y-11459D01*
X7931Y-11459D01*
X7925Y-11460D01*
X7916Y-11462D01*
X7904Y-11465D01*
X7888Y-11468D01*
X7870Y-11472D01*
X7850Y-11476D01*
X7827Y-11481D01*
X7801Y-11486D01*
X7774Y-11491D01*
X7745Y-11497D01*
X7714Y-11504D01*
X7682Y-11510D01*
X7649Y-11517D01*
X7636Y-11520D01*
X7339Y-11580D01*
X7068Y-11773D01*
X7028Y-11802D01*
X6991Y-11828D01*
X6957Y-11852D01*
X6927Y-11873D01*
X6900Y-11893D01*
X6876Y-11910D01*
X6855Y-11925D01*
X6838Y-11937D01*
X6823Y-11948D01*
X6812Y-11957D01*
X6803Y-11963D01*
X6798Y-11967D01*
X6796Y-11969D01*
X6796Y-11969D01*
X6798Y-11971D01*
X6801Y-11976D01*
X6806Y-11983D01*
X6813Y-11993D01*
X6821Y-12005D01*
X6830Y-12018D01*
X6840Y-12032D01*
X6850Y-12047D01*
X6862Y-12063D01*
X6873Y-12078D01*
X6884Y-12094D01*
X6895Y-12109D01*
X6905Y-12124D01*
X6915Y-12137D01*
X6923Y-12149D01*
X6931Y-12159D01*
X6936Y-12167D01*
X6941Y-12173D01*
X6943Y-12176D01*
X6943Y-12176D01*
X6945Y-12175D01*
X6950Y-12172D01*
X6957Y-12167D01*
X6967Y-12161D01*
X6979Y-12153D01*
X6993Y-12143D01*
X7009Y-12133D01*
X7026Y-12122D01*
X7044Y-12110D01*
X7051Y-12105D01*
X7069Y-12093D01*
X7090Y-12079D01*
X7113Y-12063D01*
X7138Y-12046D01*
X7165Y-12029D01*
X7192Y-12010D01*
X7220Y-11992D01*
X7248Y-11973D01*
X7274Y-11955D01*
X7301Y-11937D01*
X7316Y-11927D01*
X7475Y-11820D01*
X7908Y-11769D01*
X7949Y-11764D01*
X7989Y-11759D01*
X8028Y-11755D01*
X8065Y-11750D01*
X8102Y-11746D01*
X8136Y-11742D01*
X8169Y-11738D01*
X8200Y-11734D01*
X8228Y-11730D01*
X8254Y-11727D01*
X8278Y-11724D01*
X8299Y-11722D01*
X8316Y-11720D01*
X8331Y-11718D01*
X8342Y-11716D01*
X8350Y-11715D01*
X8354Y-11715D01*
X8355Y-11715D01*
X8379Y-11709D01*
X8405Y-11701D01*
X8433Y-11690D01*
X8463Y-11678D01*
X8493Y-11665D01*
X8523Y-11650D01*
X8553Y-11635D01*
X8582Y-11618D01*
X8610Y-11602D01*
X8636Y-11585D01*
X8657Y-11569D01*
X8659Y-11567D01*
X8661Y-11566D01*
X8663Y-11564D01*
X8666Y-11561D01*
X8669Y-11558D01*
X8672Y-11555D01*
X8676Y-11551D01*
X8681Y-11546D01*
X8686Y-11540D01*
X8692Y-11534D01*
X8699Y-11526D01*
X8707Y-11517D01*
X8716Y-11506D01*
X8726Y-11495D01*
X8737Y-11482D01*
X8750Y-11467D01*
X8764Y-11450D01*
X8779Y-11432D01*
X8797Y-11412D01*
X8815Y-11389D01*
X8836Y-11365D01*
X8859Y-11338D01*
X8883Y-11309D01*
X8910Y-11278D01*
X8938Y-11244D01*
X8969Y-11208D01*
X9002Y-11168D01*
X9038Y-11126D01*
X9060Y-11100D01*
X9073Y-11084D01*
X9086Y-11070D01*
X9097Y-11056D01*
X9107Y-11044D01*
X9116Y-11034D01*
X9124Y-11025D01*
X9129Y-11019D01*
X9132Y-11016D01*
X9133Y-11015D01*
X9135Y-11017D01*
X9139Y-11020D01*
X9146Y-11026D01*
X9155Y-11034D01*
X9167Y-11044D01*
X9180Y-11055D01*
X9194Y-11068D01*
X9210Y-11081D01*
X9227Y-11096D01*
X9243Y-11111D01*
X9352Y-11206D01*
X9352Y-11452D01*
X9352Y-11698D01*
X9424Y-11697D01*
X9444Y-11697D01*
X9464Y-11696D01*
X9486Y-11696D01*
X9506Y-11696D01*
X9525Y-11695D01*
X9542Y-11695D01*
X9548Y-11695D01*
X9600Y-11693D01*
X9600Y-11387D01*
X9600Y-11080D01*
X9409Y-10887D01*
X9219Y-10693D01*
X9109Y-10693D01*
X8999Y-10693D01*
X8972Y-10708D01*
X8946Y-10721D01*
X8922Y-10731D01*
X8899Y-10739D01*
X8877Y-10744D01*
X8855Y-10746D01*
X8832Y-10745D01*
X8809Y-10741D01*
X8785Y-10734D01*
X8759Y-10725D01*
X8731Y-10713D01*
X8715Y-10705D01*
X8692Y-10693D01*
X8473Y-10693D01*
X8255Y-10693D01*
X8059Y-10538D01*
X8031Y-10515D01*
X8005Y-10495D01*
X7982Y-10477D01*
X7962Y-10461D01*
X7944Y-10447D01*
X7928Y-10435D01*
X7915Y-10424D01*
X7903Y-10415D01*
X7894Y-10408D01*
X7886Y-10402D01*
X7879Y-10397D01*
X7874Y-10393D01*
X7870Y-10390D01*
X7867Y-10388D01*
X7864Y-10387D01*
X7863Y-10386D01*
X7862Y-10386D01*
X7861Y-10387D01*
X7860Y-10387D01*
X7859Y-10389D01*
X7855Y-10394D01*
X7849Y-10402D01*
X7841Y-10412D01*
X7831Y-10423D01*
X7821Y-10436D01*
X7809Y-10451D01*
X7796Y-10467D01*
X7787Y-10479D01*
X7774Y-10495D01*
X7762Y-10510D01*
X7750Y-10524D01*
X7740Y-10536D01*
X7732Y-10547D01*
X7725Y-10556D01*
X7720Y-10562D01*
X7717Y-10566D01*
X7716Y-10567D01*
X7717Y-10569D01*
X7722Y-10572D01*
X7729Y-10578D01*
X7738Y-10587D01*
X7750Y-10597D01*
X7764Y-10609D01*
X7780Y-10622D01*
X7798Y-10637D01*
X7818Y-10654D01*
X7839Y-10671D01*
X7862Y-10690D01*
X7886Y-10710D01*
X7911Y-10731D01*
X7937Y-10752D01*
X7942Y-10757D01*
X8168Y-10945D01*
X8248Y-10946D01*
X8270Y-10946D01*
X8294Y-10947D01*
X8320Y-10947D01*
X8346Y-10948D01*
X8371Y-10948D01*
X8394Y-10949D01*
X8405Y-10949D01*
X8482Y-10950D01*
X8335Y-11103D01*
X8308Y-11131D01*
X8283Y-11157D01*
X8262Y-11179D01*
X8242Y-11198D01*
X8226Y-11215D01*
X8213Y-11229D01*
X8202Y-11240D01*
X8193Y-11248D01*
X8188Y-11253D01*
X8185Y-11255D01*
X8184Y-11255D01*
X8183Y-11254D01*
X8177Y-11251D01*
X8169Y-11246D01*
X8159Y-11239D01*
X8145Y-11231D01*
X8129Y-11220D01*
X8111Y-11209D01*
X8090Y-11196D01*
X8068Y-11182D01*
X8044Y-11167D01*
X8018Y-11151D01*
X7991Y-11134D01*
X7962Y-11116D01*
X7932Y-11098D01*
X7902Y-11079D01*
X7898Y-11076D01*
X7613Y-10898D01*
X7220Y-10821D01*
X7181Y-10813D01*
X7144Y-10806D01*
X7107Y-10799D01*
X7072Y-10792D01*
X7038Y-10785D01*
X7007Y-10779D01*
X6977Y-10773D01*
X6949Y-10768D01*
X6924Y-10763D01*
X6901Y-10758D01*
X6880Y-10754D01*
X6863Y-10751D01*
X6849Y-10748D01*
X6837Y-10746D01*
X6830Y-10745D01*
X6825Y-10744D01*
X6825Y-10744D01*
X6824Y-10746D01*
X6823Y-10752D01*
X6822Y-10761D01*
X6821Y-10772D01*
X6819Y-10786D01*
X6817Y-10802D01*
X6815Y-10819D01*
X6812Y-10838D01*
X6810Y-10857D01*
X6807Y-10877D01*
X6805Y-10897D01*
X6802Y-10917D01*
X6800Y-10936D01*
X6798Y-10954D01*
X6796Y-10970D01*
X6794Y-10985D01*
X6792Y-10997D01*
X6791Y-11007D01*
X6791Y-11014D01*
X6790Y-11017D01*
X6790Y-11017D01*
X6790Y-11017D01*
X6790Y-11017D01*
G37*
G36*
X4579Y-11427D02*
X4580Y-11433D01*
X4585Y-11437D01*
X4591Y-11441D01*
X4598Y-11444D01*
X4607Y-11447D01*
X4616Y-11449D01*
X4629Y-11450D01*
X4640Y-11452D01*
X4675Y-11453D01*
X4701Y-11452D01*
X4718Y-11451D01*
X4735Y-11448D01*
X4752Y-11444D01*
X4767Y-11440D01*
X4781Y-11435D01*
X4789Y-11431D01*
X4800Y-11425D01*
X4808Y-11418D01*
X4813Y-11409D01*
X4815Y-11399D01*
X4815Y-11389D01*
X4815Y-11380D01*
X4815Y-11368D01*
X4815Y-11357D01*
X4815Y-11355D01*
X4815Y-11347D01*
X4815Y-11340D01*
X4814Y-11336D01*
X4814Y-11335D01*
X4811Y-11335D01*
X4805Y-11335D01*
X4796Y-11336D01*
X4784Y-11337D01*
X4784Y-11337D01*
X4769Y-11339D01*
X4757Y-11341D01*
X4747Y-11341D01*
X4744Y-11340D01*
X4734Y-11339D01*
X4727Y-11339D01*
X4720Y-11340D01*
X4713Y-11342D01*
X4704Y-11345D01*
X4693Y-11349D01*
X4682Y-11354D01*
X4670Y-11359D01*
X4657Y-11365D01*
X4644Y-11371D01*
X4631Y-11377D01*
X4620Y-11383D01*
X4610Y-11388D01*
X4601Y-11392D01*
X4596Y-11395D01*
X4594Y-11396D01*
X4591Y-11400D01*
X4588Y-11405D01*
X4585Y-11411D01*
X4581Y-11420D01*
X4579Y-11427D01*
X4579Y-11427D01*
X4579Y-11427D01*
G37*
G36*
X8593Y-10442D02*
X8595Y-10472D01*
X8600Y-10502D01*
X8609Y-10531D01*
X8621Y-10558D01*
X8636Y-10584D01*
X8654Y-10609D01*
X8668Y-10623D01*
X8692Y-10644D01*
X8717Y-10662D01*
X8744Y-10676D01*
X8773Y-10687D01*
X8792Y-10692D01*
X8800Y-10694D01*
X8811Y-10695D01*
X8824Y-10696D01*
X8838Y-10696D01*
X8851Y-10696D01*
X8864Y-10696D01*
X8874Y-10696D01*
X8882Y-10695D01*
X8882Y-10695D01*
X8908Y-10689D01*
X8931Y-10682D01*
X8953Y-10673D01*
X8968Y-10664D01*
X8995Y-10647D01*
X9018Y-10627D01*
X9039Y-10604D01*
X9057Y-10578D01*
X9072Y-10551D01*
X9084Y-10521D01*
X9091Y-10494D01*
X9093Y-10483D01*
X9094Y-10468D01*
X9095Y-10452D01*
X9095Y-10435D01*
X9094Y-10419D01*
X9093Y-10404D01*
X9091Y-10392D01*
X9091Y-10390D01*
X9083Y-10360D01*
X9071Y-10331D01*
X9056Y-10304D01*
X9038Y-10279D01*
X9018Y-10256D01*
X8995Y-10237D01*
X8992Y-10235D01*
X8970Y-10220D01*
X8945Y-10208D01*
X8919Y-10198D01*
X8892Y-10191D01*
X8888Y-10190D01*
X8873Y-10188D01*
X8857Y-10187D01*
X8839Y-10187D01*
X8822Y-10187D01*
X8807Y-10189D01*
X8802Y-10190D01*
X8772Y-10197D01*
X8743Y-10208D01*
X8716Y-10222D01*
X8691Y-10239D01*
X8668Y-10260D01*
X8647Y-10283D01*
X8630Y-10309D01*
X8621Y-10324D01*
X8609Y-10353D01*
X8600Y-10382D01*
X8595Y-10412D01*
X8593Y-10442D01*
X8593Y-10442D01*
X8593Y-10442D01*
G37*
G36*
X5143Y-10599D02*
X5145Y-10600D01*
X5150Y-10602D01*
X5158Y-10605D01*
X5168Y-10609D01*
X5181Y-10613D01*
X5196Y-10619D01*
X5212Y-10624D01*
X5229Y-10630D01*
X5247Y-10637D01*
X5265Y-10643D01*
X5283Y-10649D01*
X5301Y-10655D01*
X5318Y-10661D01*
X5334Y-10667D01*
X5348Y-10672D01*
X5360Y-10676D01*
X5370Y-10679D01*
X5378Y-10681D01*
X5382Y-10683D01*
X5383Y-10683D01*
X5385Y-10682D01*
X5391Y-10680D01*
X5400Y-10677D01*
X5411Y-10673D01*
X5425Y-10668D01*
X5440Y-10662D01*
X5458Y-10655D01*
X5476Y-10648D01*
X5494Y-10641D01*
X5513Y-10634D01*
X5532Y-10626D01*
X5549Y-10620D01*
X5564Y-10614D01*
X5577Y-10608D01*
X5587Y-10604D01*
X5595Y-10600D01*
X5600Y-10598D01*
X5602Y-10597D01*
X5603Y-10594D01*
X5608Y-10589D01*
X5615Y-10582D01*
X5625Y-10574D01*
X5636Y-10566D01*
X5648Y-10557D01*
X5661Y-10548D01*
X5675Y-10540D01*
X5689Y-10531D01*
X5702Y-10524D01*
X5715Y-10517D01*
X5719Y-10515D01*
X5730Y-10510D01*
X5737Y-10506D01*
X5742Y-10503D01*
X5745Y-10501D01*
X5746Y-10500D01*
X5745Y-10498D01*
X5745Y-10498D01*
X5743Y-10495D01*
X5739Y-10490D01*
X5733Y-10483D01*
X5726Y-10476D01*
X5726Y-10476D01*
X5716Y-10465D01*
X5710Y-10456D01*
X5706Y-10450D01*
X5706Y-10445D01*
X5707Y-10443D01*
X5707Y-10441D01*
X5705Y-10438D01*
X5700Y-10435D01*
X5692Y-10433D01*
X5681Y-10434D01*
X5666Y-10437D01*
X5654Y-10440D01*
X5646Y-10442D01*
X5637Y-10444D01*
X5628Y-10447D01*
X5617Y-10449D01*
X5604Y-10452D01*
X5590Y-10455D01*
X5573Y-10458D01*
X5553Y-10462D01*
X5529Y-10467D01*
X5525Y-10468D01*
X5470Y-10480D01*
X5415Y-10494D01*
X5363Y-10511D01*
X5320Y-10528D01*
X5310Y-10531D01*
X5298Y-10537D01*
X5283Y-10543D01*
X5267Y-10549D01*
X5249Y-10556D01*
X5231Y-10564D01*
X5215Y-10570D01*
X5200Y-10576D01*
X5185Y-10582D01*
X5172Y-10588D01*
X5161Y-10592D01*
X5152Y-10596D01*
X5146Y-10598D01*
X5143Y-10599D01*
X5143Y-10599D01*
X5143Y-10599D01*
X5143Y-10599D01*
G37*
G36*
X6210Y-9877D02*
X6215Y-9882D01*
X6216Y-9883D01*
X6218Y-9884D01*
X6220Y-9885D01*
X6224Y-9887D01*
X6229Y-9888D01*
X6236Y-9890D01*
X6245Y-9891D01*
X6257Y-9894D01*
X6271Y-9896D01*
X6289Y-9900D01*
X6309Y-9904D01*
X6323Y-9906D01*
X6342Y-9910D01*
X6361Y-9913D01*
X6379Y-9916D01*
X6394Y-9919D01*
X6408Y-9922D01*
X6419Y-9924D01*
X6427Y-9926D01*
X6432Y-9927D01*
X6432Y-9927D01*
X6438Y-9930D01*
X6442Y-9934D01*
X6444Y-9939D01*
X6447Y-9947D01*
X6451Y-9957D01*
X6456Y-9969D01*
X6462Y-9983D01*
X6468Y-9998D01*
X6474Y-10013D01*
X6480Y-10029D01*
X6486Y-10044D01*
X6492Y-10059D01*
X6497Y-10073D01*
X6502Y-10085D01*
X6505Y-10095D01*
X6508Y-10103D01*
X6510Y-10108D01*
X6510Y-10109D01*
X6510Y-10111D01*
X6509Y-10113D01*
X6509Y-10115D01*
X6507Y-10118D01*
X6505Y-10123D01*
X6501Y-10128D01*
X6496Y-10136D01*
X6489Y-10146D01*
X6481Y-10158D01*
X6472Y-10171D01*
X6461Y-10187D01*
X6450Y-10203D01*
X6439Y-10219D01*
X6429Y-10234D01*
X6419Y-10249D01*
X6410Y-10262D01*
X6402Y-10274D01*
X6396Y-10284D01*
X6391Y-10292D01*
X6388Y-10297D01*
X6387Y-10299D01*
X6387Y-10300D01*
X6387Y-10302D01*
X6389Y-10305D01*
X6392Y-10308D01*
X6396Y-10313D01*
X6402Y-10319D01*
X6409Y-10327D01*
X6418Y-10336D01*
X6430Y-10348D01*
X6444Y-10362D01*
X6460Y-10379D01*
X6465Y-10383D01*
X6479Y-10398D01*
X6494Y-10412D01*
X6507Y-10425D01*
X6518Y-10436D01*
X6529Y-10447D01*
X6537Y-10455D01*
X6544Y-10461D01*
X6548Y-10465D01*
X6550Y-10466D01*
X6555Y-10467D01*
X6558Y-10467D01*
X6561Y-10466D01*
X6566Y-10462D01*
X6574Y-10457D01*
X6584Y-10451D01*
X6595Y-10443D01*
X6608Y-10434D01*
X6622Y-10425D01*
X6625Y-10423D01*
X6639Y-10413D01*
X6651Y-10405D01*
X6663Y-10397D01*
X6673Y-10390D01*
X6680Y-10385D01*
X6686Y-10381D01*
X6688Y-10380D01*
X6688Y-10380D01*
X6690Y-10379D01*
X6695Y-10376D01*
X6701Y-10372D01*
X6709Y-10366D01*
X6713Y-10364D01*
X6724Y-10356D01*
X6733Y-10351D01*
X6739Y-10348D01*
X6742Y-10348D01*
X6746Y-10349D01*
X6752Y-10351D01*
X6761Y-10355D01*
X6771Y-10360D01*
X6773Y-10362D01*
X6789Y-10370D01*
X6803Y-10377D01*
X6815Y-10383D01*
X6824Y-10387D01*
X6829Y-10388D01*
X6832Y-10389D01*
X6835Y-10386D01*
X6837Y-10383D01*
X6839Y-10381D01*
X6841Y-10375D01*
X6845Y-10367D01*
X6849Y-10357D01*
X6854Y-10345D01*
X6859Y-10332D01*
X6865Y-10319D01*
X6871Y-10305D01*
X6876Y-10293D01*
X6881Y-10281D01*
X6885Y-10270D01*
X6889Y-10262D01*
X6891Y-10256D01*
X6892Y-10253D01*
X6892Y-10253D01*
X6893Y-10251D01*
X6895Y-10246D01*
X6898Y-10237D01*
X6903Y-10226D01*
X6908Y-10213D01*
X6915Y-10197D01*
X6922Y-10180D01*
X6930Y-10160D01*
X6938Y-10140D01*
X6943Y-10127D01*
X6954Y-10103D01*
X6962Y-10081D01*
X6970Y-10063D01*
X6976Y-10047D01*
X6981Y-10034D01*
X6985Y-10024D01*
X6988Y-10016D01*
X6991Y-10010D01*
X6992Y-10005D01*
X6993Y-10002D01*
X6993Y-10000D01*
X6993Y-9999D01*
X6990Y-9995D01*
X6985Y-9991D01*
X6981Y-9989D01*
X6969Y-9981D01*
X6956Y-9971D01*
X6942Y-9961D01*
X6929Y-9949D01*
X6917Y-9939D01*
X6912Y-9933D01*
X6892Y-9910D01*
X6876Y-9885D01*
X6863Y-9858D01*
X6853Y-9830D01*
X6847Y-9801D01*
X6845Y-9772D01*
X6846Y-9743D01*
X6850Y-9714D01*
X6859Y-9685D01*
X6866Y-9667D01*
X6880Y-9639D01*
X6898Y-9614D01*
X6918Y-9592D01*
X6941Y-9572D01*
X6966Y-9555D01*
X6993Y-9541D01*
X7021Y-9531D01*
X7047Y-9525D01*
X7061Y-9523D01*
X7077Y-9522D01*
X7094Y-9522D01*
X7111Y-9522D01*
X7126Y-9524D01*
X7133Y-9525D01*
X7162Y-9532D01*
X7191Y-9543D01*
X7217Y-9557D01*
X7241Y-9573D01*
X7262Y-9593D01*
X7282Y-9615D01*
X7299Y-9640D01*
X7313Y-9666D01*
X7324Y-9695D01*
X7331Y-9725D01*
X7332Y-9729D01*
X7333Y-9747D01*
X7334Y-9766D01*
X7333Y-9787D01*
X7331Y-9807D01*
X7328Y-9824D01*
X7318Y-9853D01*
X7305Y-9881D01*
X7289Y-9907D01*
X7269Y-9931D01*
X7267Y-9933D01*
X7257Y-9943D01*
X7246Y-9954D01*
X7232Y-9965D01*
X7218Y-9976D01*
X7205Y-9985D01*
X7199Y-9989D01*
X7193Y-9993D01*
X7189Y-9997D01*
X7187Y-9999D01*
X7187Y-10000D01*
X7188Y-10003D01*
X7189Y-10006D01*
X7190Y-10011D01*
X7192Y-10017D01*
X7195Y-10025D01*
X7199Y-10035D01*
X7204Y-10047D01*
X7210Y-10062D01*
X7217Y-10079D01*
X7225Y-10098D01*
X7234Y-10121D01*
X7245Y-10147D01*
X7256Y-10176D01*
X7263Y-10194D01*
X7274Y-10220D01*
X7285Y-10245D01*
X7295Y-10269D01*
X7304Y-10292D01*
X7313Y-10312D01*
X7320Y-10331D01*
X7328Y-10347D01*
X7333Y-10361D01*
X7338Y-10372D01*
X7342Y-10381D01*
X7345Y-10386D01*
X7345Y-10387D01*
X7347Y-10388D01*
X7348Y-10389D01*
X7350Y-10389D01*
X7352Y-10388D01*
X7356Y-10387D01*
X7362Y-10384D01*
X7369Y-10380D01*
X7380Y-10374D01*
X7393Y-10367D01*
X7394Y-10367D01*
X7406Y-10361D01*
X7417Y-10355D01*
X7426Y-10351D01*
X7433Y-10348D01*
X7437Y-10347D01*
X7438Y-10346D01*
X7440Y-10347D01*
X7445Y-10350D01*
X7452Y-10354D01*
X7461Y-10360D01*
X7473Y-10368D01*
X7488Y-10377D01*
X7506Y-10389D01*
X7526Y-10404D01*
X7530Y-10406D01*
X7547Y-10418D01*
X7562Y-10428D01*
X7577Y-10438D01*
X7590Y-10447D01*
X7601Y-10454D01*
X7610Y-10460D01*
X7617Y-10465D01*
X7620Y-10467D01*
X7621Y-10467D01*
X7626Y-10467D01*
X7629Y-10466D01*
X7631Y-10464D01*
X7636Y-10460D01*
X7643Y-10453D01*
X7652Y-10445D01*
X7662Y-10435D01*
X7673Y-10424D01*
X7686Y-10411D01*
X7699Y-10399D01*
X7712Y-10385D01*
X7725Y-10372D01*
X7738Y-10359D01*
X7750Y-10347D01*
X7761Y-10336D01*
X7771Y-10326D01*
X7779Y-10317D01*
X7785Y-10311D01*
X7789Y-10306D01*
X7790Y-10305D01*
X7792Y-10300D01*
X7792Y-10296D01*
X7791Y-10294D01*
X7787Y-10289D01*
X7782Y-10281D01*
X7775Y-10271D01*
X7767Y-10259D01*
X7758Y-10245D01*
X7747Y-10230D01*
X7736Y-10213D01*
X7730Y-10204D01*
X7716Y-10184D01*
X7704Y-10167D01*
X7695Y-10152D01*
X7687Y-10140D01*
X7680Y-10131D01*
X7676Y-10123D01*
X7672Y-10117D01*
X7670Y-10113D01*
X7669Y-10110D01*
X7669Y-10109D01*
X7670Y-10106D01*
X7672Y-10101D01*
X7675Y-10092D01*
X7679Y-10081D01*
X7684Y-10068D01*
X7689Y-10054D01*
X7695Y-10038D01*
X7701Y-10023D01*
X7707Y-10007D01*
X7714Y-9992D01*
X7719Y-9977D01*
X7725Y-9964D01*
X7729Y-9953D01*
X7733Y-9943D01*
X7736Y-9937D01*
X7737Y-9934D01*
X7741Y-9930D01*
X7746Y-9927D01*
X7750Y-9926D01*
X7756Y-9925D01*
X7766Y-9923D01*
X7778Y-9921D01*
X7793Y-9918D01*
X7810Y-9915D01*
X7828Y-9911D01*
X7848Y-9908D01*
X7856Y-9906D01*
X7879Y-9902D01*
X7898Y-9898D01*
X7914Y-9895D01*
X7927Y-9893D01*
X7938Y-9891D01*
X7946Y-9889D01*
X7952Y-9887D01*
X7957Y-9886D01*
X7960Y-9885D01*
X7962Y-9884D01*
X7964Y-9883D01*
X7964Y-9882D01*
X7969Y-9877D01*
X7969Y-9765D01*
X7969Y-9739D01*
X7968Y-9716D01*
X7968Y-9695D01*
X7968Y-9679D01*
X7968Y-9666D01*
X7967Y-9657D01*
X7967Y-9651D01*
X7967Y-9650D01*
X7963Y-9646D01*
X7961Y-9644D01*
X7959Y-9644D01*
X7953Y-9642D01*
X7943Y-9640D01*
X7931Y-9638D01*
X7917Y-9635D01*
X7901Y-9632D01*
X7882Y-9629D01*
X7863Y-9625D01*
X7849Y-9622D01*
X7822Y-9617D01*
X7799Y-9613D01*
X7779Y-9609D01*
X7763Y-9606D01*
X7751Y-9603D01*
X7742Y-9601D01*
X7737Y-9600D01*
X7736Y-9599D01*
X7735Y-9597D01*
X7732Y-9592D01*
X7728Y-9584D01*
X7722Y-9573D01*
X7716Y-9558D01*
X7708Y-9541D01*
X7699Y-9519D01*
X7698Y-9516D01*
X7689Y-9496D01*
X7682Y-9480D01*
X7676Y-9466D01*
X7672Y-9456D01*
X7669Y-9447D01*
X7666Y-9440D01*
X7665Y-9435D01*
X7664Y-9432D01*
X7664Y-9429D01*
X7664Y-9428D01*
X7664Y-9426D01*
X7665Y-9423D01*
X7667Y-9420D01*
X7670Y-9415D01*
X7674Y-9408D01*
X7679Y-9400D01*
X7686Y-9390D01*
X7694Y-9377D01*
X7705Y-9362D01*
X7717Y-9345D01*
X7727Y-9329D01*
X7739Y-9312D01*
X7750Y-9296D01*
X7760Y-9281D01*
X7769Y-9267D01*
X7777Y-9256D01*
X7784Y-9246D01*
X7788Y-9239D01*
X7791Y-9235D01*
X7792Y-9234D01*
X7792Y-9229D01*
X7790Y-9225D01*
X7789Y-9222D01*
X7784Y-9218D01*
X7778Y-9211D01*
X7769Y-9202D01*
X7759Y-9192D01*
X7748Y-9180D01*
X7736Y-9168D01*
X7723Y-9155D01*
X7710Y-9142D01*
X7697Y-9129D01*
X7684Y-9117D01*
X7672Y-9104D01*
X7661Y-9093D01*
X7650Y-9084D01*
X7642Y-9075D01*
X7635Y-9069D01*
X7630Y-9065D01*
X7628Y-9063D01*
X7628Y-9063D01*
X7623Y-9063D01*
X7621Y-9063D01*
X7619Y-9064D01*
X7614Y-9067D01*
X7606Y-9072D01*
X7596Y-9079D01*
X7584Y-9087D01*
X7570Y-9096D01*
X7555Y-9107D01*
X7538Y-9118D01*
X7524Y-9128D01*
X7506Y-9140D01*
X7490Y-9151D01*
X7474Y-9161D01*
X7461Y-9171D01*
X7449Y-9179D01*
X7439Y-9185D01*
X7431Y-9190D01*
X7426Y-9193D01*
X7424Y-9194D01*
X7422Y-9194D01*
X7417Y-9193D01*
X7410Y-9190D01*
X7401Y-9187D01*
X7388Y-9182D01*
X7373Y-9176D01*
X7354Y-9168D01*
X7342Y-9163D01*
X7325Y-9157D01*
X7310Y-9150D01*
X7296Y-9144D01*
X7283Y-9139D01*
X7273Y-9135D01*
X7266Y-9132D01*
X7261Y-9129D01*
X7260Y-9129D01*
X7257Y-9125D01*
X7254Y-9120D01*
X7254Y-9120D01*
X7253Y-9117D01*
X7252Y-9110D01*
X7250Y-9100D01*
X7248Y-9088D01*
X7246Y-9073D01*
X7242Y-9056D01*
X7239Y-9037D01*
X7235Y-9018D01*
X7233Y-9004D01*
X7228Y-8980D01*
X7225Y-8960D01*
X7222Y-8944D01*
X7219Y-8930D01*
X7217Y-8919D01*
X7215Y-8910D01*
X7213Y-8904D01*
X7212Y-8899D01*
X7211Y-8895D01*
X7210Y-8893D01*
X7209Y-8891D01*
X7208Y-8890D01*
X7203Y-8886D01*
X7090Y-8886D01*
X6976Y-8886D01*
X6972Y-8890D01*
X6968Y-8894D01*
X6967Y-8897D01*
X6967Y-8897D01*
X6966Y-8900D01*
X6965Y-8906D01*
X6964Y-8915D01*
X6962Y-8927D01*
X6959Y-8941D01*
X6956Y-8956D01*
X6953Y-8973D01*
X6950Y-8991D01*
X6946Y-9009D01*
X6943Y-9027D01*
X6939Y-9045D01*
X6936Y-9062D01*
X6933Y-9078D01*
X6930Y-9092D01*
X6928Y-9104D01*
X6926Y-9114D01*
X6924Y-9120D01*
X6924Y-9124D01*
X6924Y-9124D01*
X6923Y-9125D01*
X6922Y-9126D01*
X6920Y-9128D01*
X6918Y-9129D01*
X6915Y-9131D01*
X6910Y-9133D01*
X6903Y-9136D01*
X6895Y-9140D01*
X6883Y-9145D01*
X6869Y-9150D01*
X6852Y-9157D01*
X6835Y-9164D01*
X6815Y-9173D01*
X6798Y-9179D01*
X6784Y-9185D01*
X6773Y-9189D01*
X6765Y-9192D01*
X6759Y-9193D01*
X6756Y-9194D01*
X6755Y-9194D01*
X6752Y-9193D01*
X6747Y-9189D01*
X6739Y-9184D01*
X6728Y-9177D01*
X6716Y-9169D01*
X6702Y-9160D01*
X6686Y-9149D01*
X6670Y-9138D01*
X6656Y-9128D01*
X6639Y-9116D01*
X6622Y-9105D01*
X6607Y-9095D01*
X6594Y-9086D01*
X6582Y-9078D01*
X6572Y-9071D01*
X6565Y-9066D01*
X6560Y-9063D01*
X6558Y-9062D01*
X6554Y-9062D01*
X6550Y-9064D01*
X6547Y-9066D01*
X6542Y-9070D01*
X6535Y-9077D01*
X6527Y-9085D01*
X6516Y-9095D01*
X6505Y-9107D01*
X6493Y-9119D01*
X6480Y-9132D01*
X6466Y-9145D01*
X6453Y-9158D01*
X6441Y-9171D01*
X6428Y-9183D01*
X6417Y-9194D01*
X6408Y-9204D01*
X6399Y-9213D01*
X6393Y-9220D01*
X6389Y-9224D01*
X6388Y-9226D01*
X6387Y-9231D01*
X6387Y-9234D01*
X6388Y-9236D01*
X6392Y-9241D01*
X6397Y-9249D01*
X6404Y-9259D01*
X6412Y-9271D01*
X6421Y-9285D01*
X6432Y-9300D01*
X6443Y-9317D01*
X6451Y-9329D01*
X6463Y-9346D01*
X6474Y-9362D01*
X6484Y-9377D01*
X6493Y-9391D01*
X6501Y-9402D01*
X6508Y-9412D01*
X6512Y-9419D01*
X6515Y-9424D01*
X6516Y-9425D01*
X6516Y-9426D01*
X6517Y-9428D01*
X6517Y-9430D01*
X6516Y-9432D01*
X6515Y-9436D01*
X6513Y-9441D01*
X6511Y-9447D01*
X6507Y-9456D01*
X6503Y-9467D01*
X6497Y-9480D01*
X6490Y-9496D01*
X6482Y-9516D01*
X6480Y-9519D01*
X6473Y-9537D01*
X6466Y-9553D01*
X6459Y-9567D01*
X6454Y-9579D01*
X6449Y-9588D01*
X6446Y-9595D01*
X6444Y-9598D01*
X6444Y-9598D01*
X6442Y-9599D01*
X6439Y-9600D01*
X6434Y-9602D01*
X6428Y-9603D01*
X6419Y-9605D01*
X6407Y-9608D01*
X6392Y-9610D01*
X6375Y-9614D01*
X6353Y-9618D01*
X6351Y-9618D01*
X6325Y-9623D01*
X6303Y-9627D01*
X6284Y-9631D01*
X6268Y-9634D01*
X6255Y-9636D01*
X6244Y-9638D01*
X6235Y-9640D01*
X6229Y-9642D01*
X6224Y-9643D01*
X6220Y-9644D01*
X6218Y-9645D01*
X6216Y-9646D01*
X6215Y-9646D01*
X6214Y-9647D01*
X6214Y-9648D01*
X6213Y-9649D01*
X6213Y-9651D01*
X6212Y-9653D01*
X6212Y-9656D01*
X6211Y-9661D01*
X6211Y-9667D01*
X6211Y-9675D01*
X6211Y-9686D01*
X6210Y-9699D01*
X6210Y-9715D01*
X6210Y-9734D01*
X6210Y-9756D01*
X6210Y-9764D01*
X6210Y-9877D01*
X6210Y-9877D01*
X6210Y-9877D01*
G37*
G36*
X5358Y-10169D02*
X5358Y-10173D01*
X5360Y-10187D01*
X5362Y-10196D01*
X5363Y-10203D01*
X5365Y-10209D01*
X5368Y-10212D01*
X5371Y-10215D01*
X5376Y-10218D01*
X5380Y-10220D01*
X5386Y-10222D01*
X5392Y-10224D01*
X5399Y-10225D01*
X5408Y-10225D01*
X5419Y-10225D01*
X5433Y-10224D01*
X5449Y-10222D01*
X5468Y-10219D01*
X5471Y-10218D01*
X5487Y-10216D01*
X5501Y-10214D01*
X5514Y-10213D01*
X5527Y-10212D01*
X5540Y-10211D01*
X5555Y-10210D01*
X5573Y-10209D01*
X5580Y-10209D01*
X5605Y-10208D01*
X5627Y-10207D01*
X5645Y-10206D01*
X5660Y-10205D01*
X5672Y-10205D01*
X5682Y-10204D01*
X5690Y-10203D01*
X5696Y-10203D01*
X5701Y-10202D01*
X5704Y-10201D01*
X5707Y-10200D01*
X5709Y-10199D01*
X5719Y-10193D01*
X5726Y-10186D01*
X5728Y-10182D01*
X5729Y-10173D01*
X5729Y-10163D01*
X5727Y-10153D01*
X5725Y-10149D01*
X5723Y-10141D01*
X5723Y-10132D01*
X5725Y-10121D01*
X5727Y-10114D01*
X5729Y-10106D01*
X5728Y-10100D01*
X5725Y-10094D01*
X5720Y-10087D01*
X5714Y-10080D01*
X5638Y-10078D01*
X5605Y-10078D01*
X5576Y-10077D01*
X5551Y-10078D01*
X5528Y-10078D01*
X5517Y-10079D01*
X5473Y-10081D01*
X5462Y-10092D01*
X5454Y-10099D01*
X5447Y-10105D01*
X5440Y-10110D01*
X5431Y-10115D01*
X5421Y-10121D01*
X5403Y-10130D01*
X5389Y-10139D01*
X5377Y-10146D01*
X5369Y-10153D01*
X5363Y-10158D01*
X5359Y-10164D01*
X5358Y-10169D01*
X5358Y-10169D01*
X5358Y-10169D01*
G37*
G36*
X6727Y-8913D02*
X6727Y-8915D01*
X6729Y-8914D01*
X6733Y-8913D01*
X6740Y-8911D01*
X6747Y-8908D01*
X6765Y-8900D01*
X6756Y-8900D01*
X6749Y-8900D01*
X6741Y-8903D01*
X6734Y-8906D01*
X6729Y-8910D01*
X6728Y-8911D01*
X6727Y-8913D01*
X6727Y-8913D01*
X6727Y-8913D01*
G37*
G36*
X6611Y-8656D02*
X6613Y-8664D01*
X6618Y-8670D01*
X6619Y-8671D01*
X6625Y-8676D01*
X6631Y-8685D01*
X6635Y-8695D01*
X6638Y-8706D01*
X6639Y-8717D01*
X6638Y-8722D01*
X6637Y-8728D01*
X6635Y-8736D01*
X6633Y-8746D01*
X6632Y-8750D01*
X6630Y-8758D01*
X6629Y-8766D01*
X6628Y-8771D01*
X6628Y-8773D01*
X6630Y-8781D01*
X6635Y-8787D01*
X6641Y-8792D01*
X6648Y-8794D01*
X6658Y-8797D01*
X6670Y-8799D01*
X6681Y-8802D01*
X6692Y-8803D01*
X6697Y-8804D01*
X6710Y-8805D01*
X6723Y-8795D01*
X6730Y-8789D01*
X6734Y-8785D01*
X6738Y-8780D01*
X6741Y-8774D01*
X6745Y-8766D01*
X6752Y-8749D01*
X6757Y-8734D01*
X6760Y-8721D01*
X6762Y-8710D01*
X6761Y-8704D01*
X6760Y-8696D01*
X6759Y-8688D01*
X6757Y-8685D01*
X6753Y-8679D01*
X6747Y-8671D01*
X6739Y-8662D01*
X6731Y-8652D01*
X6722Y-8643D01*
X6713Y-8635D01*
X6710Y-8632D01*
X6702Y-8626D01*
X6695Y-8618D01*
X6688Y-8612D01*
X6687Y-8610D01*
X6677Y-8601D01*
X6667Y-8595D01*
X6656Y-8593D01*
X6645Y-8595D01*
X6637Y-8599D01*
X6631Y-8603D01*
X6626Y-8608D01*
X6622Y-8614D01*
X6620Y-8618D01*
X6614Y-8633D01*
X6611Y-8645D01*
X6611Y-8656D01*
X6611Y-8656D01*
X6611Y-8656D01*
G37*
G36*
X7624Y-8335D02*
X7624Y-8341D01*
X7626Y-8345D01*
X7626Y-8345D01*
X7628Y-8347D01*
X7631Y-8352D01*
X7634Y-8358D01*
X7634Y-8359D01*
X7638Y-8366D01*
X7641Y-8371D01*
X7644Y-8374D01*
X7648Y-8376D01*
X7655Y-8378D01*
X7664Y-8380D01*
X7675Y-8381D01*
X7687Y-8383D01*
X7699Y-8384D01*
X7711Y-8384D01*
X7721Y-8384D01*
X7729Y-8384D01*
X7733Y-8383D01*
X7743Y-8380D01*
X7751Y-8373D01*
X7753Y-8370D01*
X7755Y-8365D01*
X7756Y-8356D01*
X7755Y-8344D01*
X7753Y-8329D01*
X7751Y-8312D01*
X7749Y-8301D01*
X7746Y-8293D01*
X7743Y-8287D01*
X7738Y-8283D01*
X7733Y-8279D01*
X7726Y-8277D01*
X7717Y-8274D01*
X7706Y-8272D01*
X7695Y-8270D01*
X7684Y-8270D01*
X7675Y-8269D01*
X7671Y-8270D01*
X7658Y-8274D01*
X7648Y-8281D01*
X7638Y-8291D01*
X7631Y-8304D01*
X7628Y-8311D01*
X7626Y-8319D01*
X7624Y-8327D01*
X7624Y-8335D01*
X7624Y-8335D01*
X7624Y-8335D01*
G37*
G36*
X7137Y-7592D02*
X7138Y-7599D01*
X7141Y-7605D01*
X7146Y-7609D01*
X7150Y-7611D01*
X7156Y-7616D01*
X7162Y-7624D01*
X7167Y-7635D01*
X7171Y-7649D01*
X7173Y-7657D01*
X7177Y-7674D01*
X7170Y-7699D01*
X7166Y-7718D01*
X7163Y-7734D01*
X7161Y-7746D01*
X7160Y-7754D01*
X7161Y-7757D01*
X7164Y-7764D01*
X7169Y-7770D01*
X7174Y-7775D01*
X7177Y-7777D01*
X7183Y-7779D01*
X7191Y-7781D01*
X7202Y-7784D01*
X7213Y-7786D01*
X7224Y-7789D01*
X7234Y-7791D01*
X7241Y-7792D01*
X7242Y-7792D01*
X7253Y-7794D01*
X7262Y-7794D01*
X7269Y-7793D01*
X7275Y-7791D01*
X7281Y-7788D01*
X7282Y-7787D01*
X7292Y-7780D01*
X7300Y-7774D01*
X7306Y-7767D01*
X7311Y-7760D01*
X7316Y-7750D01*
X7319Y-7742D01*
X7328Y-7721D01*
X7335Y-7703D01*
X7339Y-7687D01*
X7342Y-7672D01*
X7343Y-7659D01*
X7342Y-7647D01*
X7339Y-7637D01*
X7338Y-7632D01*
X7335Y-7627D01*
X7332Y-7622D01*
X7328Y-7616D01*
X7322Y-7609D01*
X7314Y-7600D01*
X7306Y-7591D01*
X7297Y-7582D01*
X7290Y-7574D01*
X7283Y-7567D01*
X7281Y-7565D01*
X7269Y-7556D01*
X7260Y-7548D01*
X7253Y-7542D01*
X7249Y-7536D01*
X7244Y-7531D01*
X7240Y-7526D01*
X7239Y-7526D01*
X7228Y-7515D01*
X7217Y-7507D01*
X7204Y-7504D01*
X7192Y-7504D01*
X7179Y-7508D01*
X7175Y-7510D01*
X7167Y-7515D01*
X7161Y-7519D01*
X7156Y-7524D01*
X7153Y-7530D01*
X7149Y-7539D01*
X7146Y-7546D01*
X7142Y-7557D01*
X7139Y-7567D01*
X7137Y-7576D01*
X7137Y-7582D01*
X7137Y-7592D01*
X7137Y-7592D01*
X7137Y-7592D01*
G37*
M02*
