G04 (created by PCBNEW (2013-may-18)-stable) date Tue 26 May 2015 10:23:06 PM CEST*
%MOIN*%
G04 Gerber Fmt 3.4, Leading zero omitted, Abs format*
%FSLAX34Y34*%
G01*
G70*
G90*
G04 APERTURE LIST*
%ADD10C,0.00590551*%
%ADD11R,0.055X0.055*%
%ADD12C,0.055*%
%ADD13C,0.15*%
%ADD14R,0.15X0.15*%
%ADD15R,0.1X0.1*%
%ADD16C,0.1*%
%ADD17C,0.177165*%
%ADD18C,0.16*%
%ADD19C,0.035*%
%ADD20C,0.019685*%
%ADD21C,0.00669291*%
G04 APERTURE END LIST*
G54D10*
G54D11*
X67750Y-44500D03*
G54D12*
X68750Y-44500D03*
X69750Y-44500D03*
G54D13*
X71750Y-55750D03*
X71750Y-53750D03*
G54D14*
X71750Y-57750D03*
G54D13*
X71750Y-51750D03*
G54D15*
X62750Y-61000D03*
G54D16*
X64750Y-61000D03*
G54D15*
X64750Y-44500D03*
G54D16*
X62750Y-44500D03*
G54D11*
X67750Y-61000D03*
G54D12*
X68750Y-61000D03*
X69750Y-61000D03*
G54D17*
X71750Y-44500D03*
G54D18*
X71750Y-61000D03*
X60000Y-61000D03*
X60000Y-44500D03*
G54D19*
X62250Y-59000D03*
X66500Y-48250D03*
X64000Y-55500D03*
X67000Y-46250D03*
X64500Y-55750D03*
X67250Y-46750D03*
X66000Y-55750D03*
X68000Y-55750D03*
X66500Y-57500D03*
X68000Y-57500D03*
X65500Y-54500D03*
X68000Y-54500D03*
G54D20*
X65000Y-56500D02*
X65000Y-49750D01*
X62250Y-59000D02*
X63750Y-59000D01*
X63750Y-59000D02*
X65000Y-57750D01*
X65000Y-57750D02*
X65000Y-56500D01*
X65000Y-49750D02*
X66500Y-48250D01*
X64000Y-49500D02*
X64000Y-49250D01*
X64000Y-55500D02*
X64000Y-49500D01*
X64000Y-49250D02*
X67000Y-46250D01*
X67250Y-46750D02*
X64500Y-49500D01*
X64500Y-49500D02*
X64500Y-50250D01*
X64500Y-55750D02*
X64500Y-51250D01*
X64500Y-51250D02*
X64500Y-50250D01*
X66000Y-55750D02*
X68000Y-55750D01*
X68000Y-57500D02*
X66500Y-57500D01*
X68000Y-54500D02*
X65500Y-54500D01*
G54D10*
G36*
X73129Y-60994D02*
X73103Y-61267D01*
X73025Y-61525D01*
X72898Y-61763D01*
X72739Y-61959D01*
X72739Y-44560D01*
X72732Y-44366D01*
X72708Y-44248D01*
X72638Y-44121D01*
X72259Y-44500D01*
X72638Y-44878D01*
X72708Y-44751D01*
X72739Y-44560D01*
X72739Y-61959D01*
X72728Y-61971D01*
X72654Y-62033D01*
X72654Y-61021D01*
X72641Y-60845D01*
X72633Y-60805D01*
X72633Y-58487D01*
X72633Y-57529D01*
X72633Y-55663D01*
X72633Y-53663D01*
X72633Y-51663D01*
X72599Y-51493D01*
X72533Y-51333D01*
X72437Y-51188D01*
X72315Y-51065D01*
X72172Y-50969D01*
X72128Y-50950D01*
X72128Y-45388D01*
X72128Y-43611D01*
X72001Y-43541D01*
X71810Y-43510D01*
X71616Y-43517D01*
X71498Y-43541D01*
X71371Y-43611D01*
X71750Y-43990D01*
X72128Y-43611D01*
X72128Y-45388D01*
X71750Y-45009D01*
X71371Y-45388D01*
X71498Y-45458D01*
X71689Y-45489D01*
X71883Y-45482D01*
X72001Y-45458D01*
X72128Y-45388D01*
X72128Y-50950D01*
X72012Y-50901D01*
X71842Y-50867D01*
X71669Y-50865D01*
X71499Y-50898D01*
X71338Y-50963D01*
X71240Y-51027D01*
X71240Y-44500D01*
X70861Y-44121D01*
X70791Y-44248D01*
X70760Y-44439D01*
X70767Y-44633D01*
X70791Y-44751D01*
X70861Y-44878D01*
X71240Y-44500D01*
X71240Y-51027D01*
X71193Y-51058D01*
X71069Y-51179D01*
X70972Y-51322D01*
X70903Y-51481D01*
X70867Y-51651D01*
X70865Y-51824D01*
X70896Y-51994D01*
X70960Y-52155D01*
X71054Y-52301D01*
X71174Y-52426D01*
X71316Y-52524D01*
X71475Y-52594D01*
X71644Y-52631D01*
X71818Y-52635D01*
X71988Y-52605D01*
X72150Y-52542D01*
X72296Y-52449D01*
X72422Y-52330D01*
X72521Y-52188D01*
X72592Y-52030D01*
X72630Y-51861D01*
X72633Y-51663D01*
X72633Y-53663D01*
X72599Y-53493D01*
X72533Y-53333D01*
X72437Y-53188D01*
X72315Y-53065D01*
X72172Y-52969D01*
X72012Y-52901D01*
X71842Y-52867D01*
X71669Y-52865D01*
X71499Y-52898D01*
X71338Y-52963D01*
X71193Y-53058D01*
X71069Y-53179D01*
X70972Y-53322D01*
X70903Y-53481D01*
X70867Y-53651D01*
X70865Y-53824D01*
X70896Y-53994D01*
X70960Y-54155D01*
X71054Y-54301D01*
X71174Y-54426D01*
X71316Y-54524D01*
X71475Y-54594D01*
X71644Y-54631D01*
X71818Y-54635D01*
X71988Y-54605D01*
X72150Y-54542D01*
X72296Y-54449D01*
X72422Y-54330D01*
X72521Y-54188D01*
X72592Y-54030D01*
X72630Y-53861D01*
X72633Y-53663D01*
X72633Y-55663D01*
X72599Y-55493D01*
X72533Y-55333D01*
X72437Y-55188D01*
X72315Y-55065D01*
X72172Y-54969D01*
X72012Y-54901D01*
X71842Y-54867D01*
X71669Y-54865D01*
X71499Y-54898D01*
X71338Y-54963D01*
X71193Y-55058D01*
X71069Y-55179D01*
X70972Y-55322D01*
X70903Y-55481D01*
X70867Y-55651D01*
X70865Y-55824D01*
X70896Y-55994D01*
X70960Y-56155D01*
X71054Y-56301D01*
X71174Y-56426D01*
X71316Y-56524D01*
X71475Y-56594D01*
X71644Y-56631D01*
X71818Y-56635D01*
X71988Y-56605D01*
X72150Y-56542D01*
X72296Y-56449D01*
X72422Y-56330D01*
X72521Y-56188D01*
X72592Y-56030D01*
X72630Y-55861D01*
X72633Y-55663D01*
X72633Y-57529D01*
X72633Y-56986D01*
X72628Y-56961D01*
X72618Y-56937D01*
X72603Y-56915D01*
X72585Y-56896D01*
X72563Y-56882D01*
X72539Y-56871D01*
X72514Y-56866D01*
X72487Y-56866D01*
X70986Y-56866D01*
X70961Y-56871D01*
X70937Y-56881D01*
X70915Y-56896D01*
X70896Y-56914D01*
X70882Y-56936D01*
X70871Y-56960D01*
X70866Y-56985D01*
X70866Y-57012D01*
X70866Y-58513D01*
X70871Y-58538D01*
X70881Y-58562D01*
X70896Y-58584D01*
X70914Y-58603D01*
X70936Y-58617D01*
X70960Y-58628D01*
X70985Y-58633D01*
X71012Y-58633D01*
X72513Y-58633D01*
X72538Y-58628D01*
X72562Y-58618D01*
X72584Y-58603D01*
X72603Y-58585D01*
X72617Y-58563D01*
X72628Y-58539D01*
X72633Y-58514D01*
X72633Y-58487D01*
X72633Y-60805D01*
X72633Y-60803D01*
X72572Y-60687D01*
X72259Y-61000D01*
X72572Y-61312D01*
X72633Y-61196D01*
X72654Y-61021D01*
X72654Y-62033D01*
X72521Y-62143D01*
X72284Y-62271D01*
X72062Y-62340D01*
X72062Y-61822D01*
X72062Y-60177D01*
X71946Y-60116D01*
X71771Y-60095D01*
X71595Y-60108D01*
X71553Y-60116D01*
X71437Y-60177D01*
X71750Y-60490D01*
X72062Y-60177D01*
X72062Y-61822D01*
X71750Y-61509D01*
X71437Y-61822D01*
X71553Y-61883D01*
X71728Y-61904D01*
X71904Y-61891D01*
X71946Y-61883D01*
X72062Y-61822D01*
X72062Y-62340D01*
X72027Y-62351D01*
X71753Y-62379D01*
X71749Y-62379D01*
X71240Y-62379D01*
X71240Y-61000D01*
X70927Y-60687D01*
X70866Y-60803D01*
X70845Y-60978D01*
X70858Y-61154D01*
X70866Y-61196D01*
X70927Y-61312D01*
X71240Y-61000D01*
X71240Y-62379D01*
X70126Y-62379D01*
X70126Y-61022D01*
X70126Y-44522D01*
X70123Y-44448D01*
X70114Y-44404D01*
X70076Y-44368D01*
X69944Y-44500D01*
X70076Y-44631D01*
X70114Y-44595D01*
X70126Y-44522D01*
X70126Y-61022D01*
X70123Y-60948D01*
X70114Y-60904D01*
X70076Y-60868D01*
X69944Y-61000D01*
X70076Y-61131D01*
X70114Y-61095D01*
X70126Y-61022D01*
X70126Y-62379D01*
X69881Y-62379D01*
X69881Y-61326D01*
X69881Y-60673D01*
X69881Y-44826D01*
X69881Y-44173D01*
X69845Y-44135D01*
X69772Y-44123D01*
X69698Y-44126D01*
X69654Y-44135D01*
X69618Y-44173D01*
X69750Y-44305D01*
X69881Y-44173D01*
X69881Y-44826D01*
X69750Y-44694D01*
X69618Y-44826D01*
X69654Y-44864D01*
X69727Y-44876D01*
X69801Y-44873D01*
X69845Y-44864D01*
X69881Y-44826D01*
X69881Y-60673D01*
X69845Y-60635D01*
X69772Y-60623D01*
X69698Y-60626D01*
X69654Y-60635D01*
X69618Y-60673D01*
X69750Y-60805D01*
X69881Y-60673D01*
X69881Y-61326D01*
X69750Y-61194D01*
X69618Y-61326D01*
X69654Y-61364D01*
X69727Y-61376D01*
X69801Y-61373D01*
X69845Y-61364D01*
X69881Y-61326D01*
X69881Y-62379D01*
X69555Y-62379D01*
X69555Y-61000D01*
X69555Y-44500D01*
X69423Y-44368D01*
X69385Y-44404D01*
X69373Y-44477D01*
X69376Y-44551D01*
X69385Y-44595D01*
X69423Y-44631D01*
X69555Y-44500D01*
X69555Y-61000D01*
X69423Y-60868D01*
X69385Y-60904D01*
X69373Y-60977D01*
X69376Y-61051D01*
X69385Y-61095D01*
X69423Y-61131D01*
X69555Y-61000D01*
X69555Y-62379D01*
X69158Y-62379D01*
X69158Y-60959D01*
X69158Y-44459D01*
X69142Y-44381D01*
X69112Y-44307D01*
X69068Y-44240D01*
X69011Y-44183D01*
X68945Y-44138D01*
X68871Y-44107D01*
X68792Y-44091D01*
X68712Y-44091D01*
X68634Y-44106D01*
X68559Y-44136D01*
X68492Y-44180D01*
X68435Y-44236D01*
X68390Y-44302D01*
X68358Y-44375D01*
X68342Y-44454D01*
X68340Y-44534D01*
X68355Y-44613D01*
X68384Y-44687D01*
X68428Y-44754D01*
X68483Y-44812D01*
X68549Y-44858D01*
X68623Y-44890D01*
X68701Y-44907D01*
X68781Y-44909D01*
X68860Y-44895D01*
X68935Y-44866D01*
X69002Y-44823D01*
X69060Y-44768D01*
X69106Y-44702D01*
X69139Y-44629D01*
X69157Y-44551D01*
X69158Y-44459D01*
X69158Y-60959D01*
X69142Y-60881D01*
X69112Y-60807D01*
X69068Y-60740D01*
X69011Y-60683D01*
X68945Y-60638D01*
X68871Y-60607D01*
X68792Y-60591D01*
X68712Y-60591D01*
X68634Y-60606D01*
X68559Y-60636D01*
X68492Y-60680D01*
X68435Y-60736D01*
X68390Y-60802D01*
X68358Y-60875D01*
X68342Y-60954D01*
X68340Y-61034D01*
X68355Y-61113D01*
X68384Y-61187D01*
X68428Y-61254D01*
X68483Y-61312D01*
X68549Y-61358D01*
X68623Y-61390D01*
X68701Y-61407D01*
X68781Y-61409D01*
X68860Y-61395D01*
X68935Y-61366D01*
X69002Y-61323D01*
X69060Y-61268D01*
X69106Y-61202D01*
X69139Y-61129D01*
X69157Y-61051D01*
X69158Y-60959D01*
X69158Y-62379D01*
X68308Y-62379D01*
X68308Y-57469D01*
X68308Y-55719D01*
X68296Y-55660D01*
X68273Y-55604D01*
X68240Y-55554D01*
X68197Y-55511D01*
X68147Y-55477D01*
X68091Y-55453D01*
X68032Y-55441D01*
X67971Y-55441D01*
X67912Y-55452D01*
X67856Y-55475D01*
X67805Y-55508D01*
X67795Y-55518D01*
X66204Y-55518D01*
X66197Y-55511D01*
X66147Y-55477D01*
X66091Y-55453D01*
X66032Y-55441D01*
X65971Y-55441D01*
X65912Y-55452D01*
X65856Y-55475D01*
X65805Y-55508D01*
X65762Y-55550D01*
X65728Y-55600D01*
X65704Y-55656D01*
X65691Y-55715D01*
X65691Y-55775D01*
X65702Y-55835D01*
X65724Y-55891D01*
X65757Y-55942D01*
X65799Y-55986D01*
X65848Y-56020D01*
X65904Y-56044D01*
X65963Y-56057D01*
X66023Y-56059D01*
X66083Y-56048D01*
X66139Y-56026D01*
X66190Y-55994D01*
X66203Y-55981D01*
X67795Y-55981D01*
X67799Y-55986D01*
X67848Y-56020D01*
X67904Y-56044D01*
X67963Y-56057D01*
X68023Y-56059D01*
X68083Y-56048D01*
X68139Y-56026D01*
X68190Y-55994D01*
X68234Y-55952D01*
X68269Y-55903D01*
X68294Y-55847D01*
X68307Y-55788D01*
X68308Y-55719D01*
X68308Y-57469D01*
X68296Y-57410D01*
X68273Y-57354D01*
X68240Y-57304D01*
X68197Y-57261D01*
X68147Y-57227D01*
X68091Y-57203D01*
X68032Y-57191D01*
X67971Y-57191D01*
X67912Y-57202D01*
X67856Y-57225D01*
X67805Y-57258D01*
X67795Y-57268D01*
X66704Y-57268D01*
X66697Y-57261D01*
X66647Y-57227D01*
X66591Y-57203D01*
X66532Y-57191D01*
X66471Y-57191D01*
X66412Y-57202D01*
X66356Y-57225D01*
X66305Y-57258D01*
X66262Y-57300D01*
X66228Y-57350D01*
X66204Y-57406D01*
X66191Y-57465D01*
X66191Y-57525D01*
X66202Y-57585D01*
X66224Y-57641D01*
X66257Y-57692D01*
X66299Y-57736D01*
X66348Y-57770D01*
X66404Y-57794D01*
X66463Y-57807D01*
X66523Y-57809D01*
X66583Y-57798D01*
X66639Y-57776D01*
X66690Y-57744D01*
X66703Y-57731D01*
X67795Y-57731D01*
X67799Y-57736D01*
X67848Y-57770D01*
X67904Y-57794D01*
X67963Y-57807D01*
X68023Y-57809D01*
X68083Y-57798D01*
X68139Y-57776D01*
X68190Y-57744D01*
X68234Y-57702D01*
X68269Y-57653D01*
X68294Y-57597D01*
X68307Y-57538D01*
X68308Y-57469D01*
X68308Y-62379D01*
X68158Y-62379D01*
X68158Y-61262D01*
X68158Y-60711D01*
X68153Y-60686D01*
X68143Y-60662D01*
X68128Y-60640D01*
X68110Y-60621D01*
X68088Y-60607D01*
X68064Y-60596D01*
X68039Y-60591D01*
X68012Y-60591D01*
X67461Y-60591D01*
X67436Y-60596D01*
X67412Y-60606D01*
X67390Y-60621D01*
X67371Y-60639D01*
X67357Y-60661D01*
X67346Y-60685D01*
X67341Y-60710D01*
X67341Y-60737D01*
X67341Y-61288D01*
X67346Y-61313D01*
X67356Y-61337D01*
X67371Y-61359D01*
X67389Y-61378D01*
X67411Y-61392D01*
X67435Y-61403D01*
X67460Y-61408D01*
X67487Y-61408D01*
X68038Y-61408D01*
X68063Y-61403D01*
X68087Y-61393D01*
X68109Y-61378D01*
X68128Y-61360D01*
X68142Y-61338D01*
X68153Y-61314D01*
X68158Y-61289D01*
X68158Y-61262D01*
X68158Y-62379D01*
X65353Y-62379D01*
X65353Y-61003D01*
X65342Y-60886D01*
X65341Y-60879D01*
X65295Y-60808D01*
X65103Y-61000D01*
X65295Y-61191D01*
X65341Y-61120D01*
X65353Y-61003D01*
X65353Y-62379D01*
X64941Y-62379D01*
X64941Y-61545D01*
X64941Y-60454D01*
X64870Y-60408D01*
X64753Y-60396D01*
X64636Y-60407D01*
X64629Y-60408D01*
X64558Y-60454D01*
X64750Y-60646D01*
X64941Y-60454D01*
X64941Y-61545D01*
X64750Y-61353D01*
X64558Y-61545D01*
X64629Y-61591D01*
X64746Y-61603D01*
X64863Y-61592D01*
X64870Y-61591D01*
X64941Y-61545D01*
X64941Y-62379D01*
X64396Y-62379D01*
X64396Y-61000D01*
X64204Y-60808D01*
X64158Y-60879D01*
X64146Y-60996D01*
X64157Y-61113D01*
X64158Y-61120D01*
X64204Y-61191D01*
X64396Y-61000D01*
X64396Y-62379D01*
X64033Y-62379D01*
X64033Y-59044D01*
X65163Y-57913D01*
X65177Y-57897D01*
X65191Y-57881D01*
X65191Y-57879D01*
X65192Y-57878D01*
X65202Y-57860D01*
X65213Y-57841D01*
X65213Y-57840D01*
X65214Y-57839D01*
X65220Y-57818D01*
X65226Y-57798D01*
X65226Y-57797D01*
X65227Y-57795D01*
X65229Y-57774D01*
X65231Y-57753D01*
X65231Y-57750D01*
X65231Y-57750D01*
X65231Y-57750D01*
X65231Y-57750D01*
X65231Y-56500D01*
X65231Y-54653D01*
X65257Y-54692D01*
X65299Y-54736D01*
X65348Y-54770D01*
X65404Y-54794D01*
X65463Y-54807D01*
X65523Y-54809D01*
X65583Y-54798D01*
X65639Y-54776D01*
X65690Y-54744D01*
X65703Y-54731D01*
X67795Y-54731D01*
X67799Y-54736D01*
X67848Y-54770D01*
X67904Y-54794D01*
X67963Y-54807D01*
X68023Y-54809D01*
X68083Y-54798D01*
X68139Y-54776D01*
X68190Y-54744D01*
X68234Y-54702D01*
X68269Y-54653D01*
X68294Y-54597D01*
X68307Y-54538D01*
X68308Y-54469D01*
X68296Y-54410D01*
X68273Y-54354D01*
X68240Y-54304D01*
X68197Y-54261D01*
X68158Y-54234D01*
X68158Y-44762D01*
X68158Y-44211D01*
X68153Y-44186D01*
X68143Y-44162D01*
X68128Y-44140D01*
X68110Y-44121D01*
X68088Y-44107D01*
X68064Y-44096D01*
X68039Y-44091D01*
X68012Y-44091D01*
X67461Y-44091D01*
X67436Y-44096D01*
X67412Y-44106D01*
X67390Y-44121D01*
X67371Y-44139D01*
X67357Y-44161D01*
X67346Y-44185D01*
X67341Y-44210D01*
X67341Y-44237D01*
X67341Y-44788D01*
X67346Y-44813D01*
X67356Y-44837D01*
X67371Y-44859D01*
X67389Y-44878D01*
X67411Y-44892D01*
X67435Y-44903D01*
X67460Y-44908D01*
X67487Y-44908D01*
X68038Y-44908D01*
X68063Y-44903D01*
X68087Y-44893D01*
X68109Y-44878D01*
X68128Y-44860D01*
X68142Y-44838D01*
X68153Y-44814D01*
X68158Y-44789D01*
X68158Y-44762D01*
X68158Y-54234D01*
X68147Y-54227D01*
X68091Y-54203D01*
X68032Y-54191D01*
X67971Y-54191D01*
X67912Y-54202D01*
X67856Y-54225D01*
X67805Y-54258D01*
X67795Y-54268D01*
X65704Y-54268D01*
X65697Y-54261D01*
X65647Y-54227D01*
X65591Y-54203D01*
X65532Y-54191D01*
X65471Y-54191D01*
X65412Y-54202D01*
X65356Y-54225D01*
X65305Y-54258D01*
X65262Y-54300D01*
X65231Y-54345D01*
X65231Y-49846D01*
X66518Y-48558D01*
X66523Y-48559D01*
X66583Y-48548D01*
X66639Y-48526D01*
X66690Y-48494D01*
X66734Y-48452D01*
X66769Y-48403D01*
X66794Y-48347D01*
X66807Y-48288D01*
X66808Y-48219D01*
X66796Y-48160D01*
X66773Y-48104D01*
X66740Y-48054D01*
X66697Y-48011D01*
X66647Y-47977D01*
X66591Y-47953D01*
X66532Y-47941D01*
X66471Y-47941D01*
X66412Y-47952D01*
X66356Y-47975D01*
X66345Y-47982D01*
X67268Y-47058D01*
X67273Y-47059D01*
X67333Y-47048D01*
X67389Y-47026D01*
X67440Y-46994D01*
X67484Y-46952D01*
X67519Y-46903D01*
X67544Y-46847D01*
X67557Y-46788D01*
X67558Y-46719D01*
X67546Y-46660D01*
X67523Y-46604D01*
X67490Y-46554D01*
X67447Y-46511D01*
X67397Y-46477D01*
X67341Y-46453D01*
X67282Y-46441D01*
X67242Y-46441D01*
X67269Y-46403D01*
X67294Y-46347D01*
X67307Y-46288D01*
X67308Y-46219D01*
X67296Y-46160D01*
X67273Y-46104D01*
X67240Y-46054D01*
X67197Y-46011D01*
X67147Y-45977D01*
X67091Y-45953D01*
X67032Y-45941D01*
X66971Y-45941D01*
X66912Y-45952D01*
X66856Y-45975D01*
X66805Y-46008D01*
X66762Y-46050D01*
X66728Y-46100D01*
X66704Y-46156D01*
X66691Y-46215D01*
X66691Y-46230D01*
X65350Y-47571D01*
X65350Y-44990D01*
X65350Y-44009D01*
X65350Y-43989D01*
X65346Y-43970D01*
X65338Y-43952D01*
X65327Y-43935D01*
X65313Y-43921D01*
X65297Y-43910D01*
X65279Y-43903D01*
X65259Y-43899D01*
X65025Y-43899D01*
X65000Y-43924D01*
X65000Y-44250D01*
X65325Y-44250D01*
X65350Y-44224D01*
X65350Y-44009D01*
X65350Y-44990D01*
X65350Y-44775D01*
X65325Y-44750D01*
X65000Y-44750D01*
X65000Y-45075D01*
X65025Y-45100D01*
X65259Y-45100D01*
X65279Y-45096D01*
X65297Y-45089D01*
X65313Y-45078D01*
X65327Y-45064D01*
X65338Y-45047D01*
X65346Y-45029D01*
X65350Y-45010D01*
X65350Y-44990D01*
X65350Y-47571D01*
X64500Y-48422D01*
X64500Y-45075D01*
X64500Y-44750D01*
X64500Y-44250D01*
X64500Y-43924D01*
X64474Y-43899D01*
X64240Y-43899D01*
X64220Y-43903D01*
X64202Y-43910D01*
X64186Y-43921D01*
X64172Y-43935D01*
X64161Y-43952D01*
X64153Y-43970D01*
X64149Y-43989D01*
X64149Y-44009D01*
X64149Y-44224D01*
X64174Y-44250D01*
X64500Y-44250D01*
X64500Y-44750D01*
X64174Y-44750D01*
X64149Y-44775D01*
X64149Y-44990D01*
X64149Y-45010D01*
X64153Y-45029D01*
X64161Y-45047D01*
X64172Y-45064D01*
X64186Y-45078D01*
X64202Y-45089D01*
X64220Y-45096D01*
X64240Y-45100D01*
X64474Y-45100D01*
X64500Y-45075D01*
X64500Y-48422D01*
X64033Y-48888D01*
X64033Y-43120D01*
X71744Y-43120D01*
X72017Y-43146D01*
X72275Y-43224D01*
X72513Y-43351D01*
X72721Y-43521D01*
X72893Y-43728D01*
X73021Y-43965D01*
X73101Y-44222D01*
X73129Y-44496D01*
X73129Y-44500D01*
X73129Y-60994D01*
X73129Y-60994D01*
G37*
G54D21*
X73129Y-60994D02*
X73103Y-61267D01*
X73025Y-61525D01*
X72898Y-61763D01*
X72739Y-61959D01*
X72739Y-44560D01*
X72732Y-44366D01*
X72708Y-44248D01*
X72638Y-44121D01*
X72259Y-44500D01*
X72638Y-44878D01*
X72708Y-44751D01*
X72739Y-44560D01*
X72739Y-61959D01*
X72728Y-61971D01*
X72654Y-62033D01*
X72654Y-61021D01*
X72641Y-60845D01*
X72633Y-60805D01*
X72633Y-58487D01*
X72633Y-57529D01*
X72633Y-55663D01*
X72633Y-53663D01*
X72633Y-51663D01*
X72599Y-51493D01*
X72533Y-51333D01*
X72437Y-51188D01*
X72315Y-51065D01*
X72172Y-50969D01*
X72128Y-50950D01*
X72128Y-45388D01*
X72128Y-43611D01*
X72001Y-43541D01*
X71810Y-43510D01*
X71616Y-43517D01*
X71498Y-43541D01*
X71371Y-43611D01*
X71750Y-43990D01*
X72128Y-43611D01*
X72128Y-45388D01*
X71750Y-45009D01*
X71371Y-45388D01*
X71498Y-45458D01*
X71689Y-45489D01*
X71883Y-45482D01*
X72001Y-45458D01*
X72128Y-45388D01*
X72128Y-50950D01*
X72012Y-50901D01*
X71842Y-50867D01*
X71669Y-50865D01*
X71499Y-50898D01*
X71338Y-50963D01*
X71240Y-51027D01*
X71240Y-44500D01*
X70861Y-44121D01*
X70791Y-44248D01*
X70760Y-44439D01*
X70767Y-44633D01*
X70791Y-44751D01*
X70861Y-44878D01*
X71240Y-44500D01*
X71240Y-51027D01*
X71193Y-51058D01*
X71069Y-51179D01*
X70972Y-51322D01*
X70903Y-51481D01*
X70867Y-51651D01*
X70865Y-51824D01*
X70896Y-51994D01*
X70960Y-52155D01*
X71054Y-52301D01*
X71174Y-52426D01*
X71316Y-52524D01*
X71475Y-52594D01*
X71644Y-52631D01*
X71818Y-52635D01*
X71988Y-52605D01*
X72150Y-52542D01*
X72296Y-52449D01*
X72422Y-52330D01*
X72521Y-52188D01*
X72592Y-52030D01*
X72630Y-51861D01*
X72633Y-51663D01*
X72633Y-53663D01*
X72599Y-53493D01*
X72533Y-53333D01*
X72437Y-53188D01*
X72315Y-53065D01*
X72172Y-52969D01*
X72012Y-52901D01*
X71842Y-52867D01*
X71669Y-52865D01*
X71499Y-52898D01*
X71338Y-52963D01*
X71193Y-53058D01*
X71069Y-53179D01*
X70972Y-53322D01*
X70903Y-53481D01*
X70867Y-53651D01*
X70865Y-53824D01*
X70896Y-53994D01*
X70960Y-54155D01*
X71054Y-54301D01*
X71174Y-54426D01*
X71316Y-54524D01*
X71475Y-54594D01*
X71644Y-54631D01*
X71818Y-54635D01*
X71988Y-54605D01*
X72150Y-54542D01*
X72296Y-54449D01*
X72422Y-54330D01*
X72521Y-54188D01*
X72592Y-54030D01*
X72630Y-53861D01*
X72633Y-53663D01*
X72633Y-55663D01*
X72599Y-55493D01*
X72533Y-55333D01*
X72437Y-55188D01*
X72315Y-55065D01*
X72172Y-54969D01*
X72012Y-54901D01*
X71842Y-54867D01*
X71669Y-54865D01*
X71499Y-54898D01*
X71338Y-54963D01*
X71193Y-55058D01*
X71069Y-55179D01*
X70972Y-55322D01*
X70903Y-55481D01*
X70867Y-55651D01*
X70865Y-55824D01*
X70896Y-55994D01*
X70960Y-56155D01*
X71054Y-56301D01*
X71174Y-56426D01*
X71316Y-56524D01*
X71475Y-56594D01*
X71644Y-56631D01*
X71818Y-56635D01*
X71988Y-56605D01*
X72150Y-56542D01*
X72296Y-56449D01*
X72422Y-56330D01*
X72521Y-56188D01*
X72592Y-56030D01*
X72630Y-55861D01*
X72633Y-55663D01*
X72633Y-57529D01*
X72633Y-56986D01*
X72628Y-56961D01*
X72618Y-56937D01*
X72603Y-56915D01*
X72585Y-56896D01*
X72563Y-56882D01*
X72539Y-56871D01*
X72514Y-56866D01*
X72487Y-56866D01*
X70986Y-56866D01*
X70961Y-56871D01*
X70937Y-56881D01*
X70915Y-56896D01*
X70896Y-56914D01*
X70882Y-56936D01*
X70871Y-56960D01*
X70866Y-56985D01*
X70866Y-57012D01*
X70866Y-58513D01*
X70871Y-58538D01*
X70881Y-58562D01*
X70896Y-58584D01*
X70914Y-58603D01*
X70936Y-58617D01*
X70960Y-58628D01*
X70985Y-58633D01*
X71012Y-58633D01*
X72513Y-58633D01*
X72538Y-58628D01*
X72562Y-58618D01*
X72584Y-58603D01*
X72603Y-58585D01*
X72617Y-58563D01*
X72628Y-58539D01*
X72633Y-58514D01*
X72633Y-58487D01*
X72633Y-60805D01*
X72633Y-60803D01*
X72572Y-60687D01*
X72259Y-61000D01*
X72572Y-61312D01*
X72633Y-61196D01*
X72654Y-61021D01*
X72654Y-62033D01*
X72521Y-62143D01*
X72284Y-62271D01*
X72062Y-62340D01*
X72062Y-61822D01*
X72062Y-60177D01*
X71946Y-60116D01*
X71771Y-60095D01*
X71595Y-60108D01*
X71553Y-60116D01*
X71437Y-60177D01*
X71750Y-60490D01*
X72062Y-60177D01*
X72062Y-61822D01*
X71750Y-61509D01*
X71437Y-61822D01*
X71553Y-61883D01*
X71728Y-61904D01*
X71904Y-61891D01*
X71946Y-61883D01*
X72062Y-61822D01*
X72062Y-62340D01*
X72027Y-62351D01*
X71753Y-62379D01*
X71749Y-62379D01*
X71240Y-62379D01*
X71240Y-61000D01*
X70927Y-60687D01*
X70866Y-60803D01*
X70845Y-60978D01*
X70858Y-61154D01*
X70866Y-61196D01*
X70927Y-61312D01*
X71240Y-61000D01*
X71240Y-62379D01*
X70126Y-62379D01*
X70126Y-61022D01*
X70126Y-44522D01*
X70123Y-44448D01*
X70114Y-44404D01*
X70076Y-44368D01*
X69944Y-44500D01*
X70076Y-44631D01*
X70114Y-44595D01*
X70126Y-44522D01*
X70126Y-61022D01*
X70123Y-60948D01*
X70114Y-60904D01*
X70076Y-60868D01*
X69944Y-61000D01*
X70076Y-61131D01*
X70114Y-61095D01*
X70126Y-61022D01*
X70126Y-62379D01*
X69881Y-62379D01*
X69881Y-61326D01*
X69881Y-60673D01*
X69881Y-44826D01*
X69881Y-44173D01*
X69845Y-44135D01*
X69772Y-44123D01*
X69698Y-44126D01*
X69654Y-44135D01*
X69618Y-44173D01*
X69750Y-44305D01*
X69881Y-44173D01*
X69881Y-44826D01*
X69750Y-44694D01*
X69618Y-44826D01*
X69654Y-44864D01*
X69727Y-44876D01*
X69801Y-44873D01*
X69845Y-44864D01*
X69881Y-44826D01*
X69881Y-60673D01*
X69845Y-60635D01*
X69772Y-60623D01*
X69698Y-60626D01*
X69654Y-60635D01*
X69618Y-60673D01*
X69750Y-60805D01*
X69881Y-60673D01*
X69881Y-61326D01*
X69750Y-61194D01*
X69618Y-61326D01*
X69654Y-61364D01*
X69727Y-61376D01*
X69801Y-61373D01*
X69845Y-61364D01*
X69881Y-61326D01*
X69881Y-62379D01*
X69555Y-62379D01*
X69555Y-61000D01*
X69555Y-44500D01*
X69423Y-44368D01*
X69385Y-44404D01*
X69373Y-44477D01*
X69376Y-44551D01*
X69385Y-44595D01*
X69423Y-44631D01*
X69555Y-44500D01*
X69555Y-61000D01*
X69423Y-60868D01*
X69385Y-60904D01*
X69373Y-60977D01*
X69376Y-61051D01*
X69385Y-61095D01*
X69423Y-61131D01*
X69555Y-61000D01*
X69555Y-62379D01*
X69158Y-62379D01*
X69158Y-60959D01*
X69158Y-44459D01*
X69142Y-44381D01*
X69112Y-44307D01*
X69068Y-44240D01*
X69011Y-44183D01*
X68945Y-44138D01*
X68871Y-44107D01*
X68792Y-44091D01*
X68712Y-44091D01*
X68634Y-44106D01*
X68559Y-44136D01*
X68492Y-44180D01*
X68435Y-44236D01*
X68390Y-44302D01*
X68358Y-44375D01*
X68342Y-44454D01*
X68340Y-44534D01*
X68355Y-44613D01*
X68384Y-44687D01*
X68428Y-44754D01*
X68483Y-44812D01*
X68549Y-44858D01*
X68623Y-44890D01*
X68701Y-44907D01*
X68781Y-44909D01*
X68860Y-44895D01*
X68935Y-44866D01*
X69002Y-44823D01*
X69060Y-44768D01*
X69106Y-44702D01*
X69139Y-44629D01*
X69157Y-44551D01*
X69158Y-44459D01*
X69158Y-60959D01*
X69142Y-60881D01*
X69112Y-60807D01*
X69068Y-60740D01*
X69011Y-60683D01*
X68945Y-60638D01*
X68871Y-60607D01*
X68792Y-60591D01*
X68712Y-60591D01*
X68634Y-60606D01*
X68559Y-60636D01*
X68492Y-60680D01*
X68435Y-60736D01*
X68390Y-60802D01*
X68358Y-60875D01*
X68342Y-60954D01*
X68340Y-61034D01*
X68355Y-61113D01*
X68384Y-61187D01*
X68428Y-61254D01*
X68483Y-61312D01*
X68549Y-61358D01*
X68623Y-61390D01*
X68701Y-61407D01*
X68781Y-61409D01*
X68860Y-61395D01*
X68935Y-61366D01*
X69002Y-61323D01*
X69060Y-61268D01*
X69106Y-61202D01*
X69139Y-61129D01*
X69157Y-61051D01*
X69158Y-60959D01*
X69158Y-62379D01*
X68308Y-62379D01*
X68308Y-57469D01*
X68308Y-55719D01*
X68296Y-55660D01*
X68273Y-55604D01*
X68240Y-55554D01*
X68197Y-55511D01*
X68147Y-55477D01*
X68091Y-55453D01*
X68032Y-55441D01*
X67971Y-55441D01*
X67912Y-55452D01*
X67856Y-55475D01*
X67805Y-55508D01*
X67795Y-55518D01*
X66204Y-55518D01*
X66197Y-55511D01*
X66147Y-55477D01*
X66091Y-55453D01*
X66032Y-55441D01*
X65971Y-55441D01*
X65912Y-55452D01*
X65856Y-55475D01*
X65805Y-55508D01*
X65762Y-55550D01*
X65728Y-55600D01*
X65704Y-55656D01*
X65691Y-55715D01*
X65691Y-55775D01*
X65702Y-55835D01*
X65724Y-55891D01*
X65757Y-55942D01*
X65799Y-55986D01*
X65848Y-56020D01*
X65904Y-56044D01*
X65963Y-56057D01*
X66023Y-56059D01*
X66083Y-56048D01*
X66139Y-56026D01*
X66190Y-55994D01*
X66203Y-55981D01*
X67795Y-55981D01*
X67799Y-55986D01*
X67848Y-56020D01*
X67904Y-56044D01*
X67963Y-56057D01*
X68023Y-56059D01*
X68083Y-56048D01*
X68139Y-56026D01*
X68190Y-55994D01*
X68234Y-55952D01*
X68269Y-55903D01*
X68294Y-55847D01*
X68307Y-55788D01*
X68308Y-55719D01*
X68308Y-57469D01*
X68296Y-57410D01*
X68273Y-57354D01*
X68240Y-57304D01*
X68197Y-57261D01*
X68147Y-57227D01*
X68091Y-57203D01*
X68032Y-57191D01*
X67971Y-57191D01*
X67912Y-57202D01*
X67856Y-57225D01*
X67805Y-57258D01*
X67795Y-57268D01*
X66704Y-57268D01*
X66697Y-57261D01*
X66647Y-57227D01*
X66591Y-57203D01*
X66532Y-57191D01*
X66471Y-57191D01*
X66412Y-57202D01*
X66356Y-57225D01*
X66305Y-57258D01*
X66262Y-57300D01*
X66228Y-57350D01*
X66204Y-57406D01*
X66191Y-57465D01*
X66191Y-57525D01*
X66202Y-57585D01*
X66224Y-57641D01*
X66257Y-57692D01*
X66299Y-57736D01*
X66348Y-57770D01*
X66404Y-57794D01*
X66463Y-57807D01*
X66523Y-57809D01*
X66583Y-57798D01*
X66639Y-57776D01*
X66690Y-57744D01*
X66703Y-57731D01*
X67795Y-57731D01*
X67799Y-57736D01*
X67848Y-57770D01*
X67904Y-57794D01*
X67963Y-57807D01*
X68023Y-57809D01*
X68083Y-57798D01*
X68139Y-57776D01*
X68190Y-57744D01*
X68234Y-57702D01*
X68269Y-57653D01*
X68294Y-57597D01*
X68307Y-57538D01*
X68308Y-57469D01*
X68308Y-62379D01*
X68158Y-62379D01*
X68158Y-61262D01*
X68158Y-60711D01*
X68153Y-60686D01*
X68143Y-60662D01*
X68128Y-60640D01*
X68110Y-60621D01*
X68088Y-60607D01*
X68064Y-60596D01*
X68039Y-60591D01*
X68012Y-60591D01*
X67461Y-60591D01*
X67436Y-60596D01*
X67412Y-60606D01*
X67390Y-60621D01*
X67371Y-60639D01*
X67357Y-60661D01*
X67346Y-60685D01*
X67341Y-60710D01*
X67341Y-60737D01*
X67341Y-61288D01*
X67346Y-61313D01*
X67356Y-61337D01*
X67371Y-61359D01*
X67389Y-61378D01*
X67411Y-61392D01*
X67435Y-61403D01*
X67460Y-61408D01*
X67487Y-61408D01*
X68038Y-61408D01*
X68063Y-61403D01*
X68087Y-61393D01*
X68109Y-61378D01*
X68128Y-61360D01*
X68142Y-61338D01*
X68153Y-61314D01*
X68158Y-61289D01*
X68158Y-61262D01*
X68158Y-62379D01*
X65353Y-62379D01*
X65353Y-61003D01*
X65342Y-60886D01*
X65341Y-60879D01*
X65295Y-60808D01*
X65103Y-61000D01*
X65295Y-61191D01*
X65341Y-61120D01*
X65353Y-61003D01*
X65353Y-62379D01*
X64941Y-62379D01*
X64941Y-61545D01*
X64941Y-60454D01*
X64870Y-60408D01*
X64753Y-60396D01*
X64636Y-60407D01*
X64629Y-60408D01*
X64558Y-60454D01*
X64750Y-60646D01*
X64941Y-60454D01*
X64941Y-61545D01*
X64750Y-61353D01*
X64558Y-61545D01*
X64629Y-61591D01*
X64746Y-61603D01*
X64863Y-61592D01*
X64870Y-61591D01*
X64941Y-61545D01*
X64941Y-62379D01*
X64396Y-62379D01*
X64396Y-61000D01*
X64204Y-60808D01*
X64158Y-60879D01*
X64146Y-60996D01*
X64157Y-61113D01*
X64158Y-61120D01*
X64204Y-61191D01*
X64396Y-61000D01*
X64396Y-62379D01*
X64033Y-62379D01*
X64033Y-59044D01*
X65163Y-57913D01*
X65177Y-57897D01*
X65191Y-57881D01*
X65191Y-57879D01*
X65192Y-57878D01*
X65202Y-57860D01*
X65213Y-57841D01*
X65213Y-57840D01*
X65214Y-57839D01*
X65220Y-57818D01*
X65226Y-57798D01*
X65226Y-57797D01*
X65227Y-57795D01*
X65229Y-57774D01*
X65231Y-57753D01*
X65231Y-57750D01*
X65231Y-57750D01*
X65231Y-57750D01*
X65231Y-57750D01*
X65231Y-56500D01*
X65231Y-54653D01*
X65257Y-54692D01*
X65299Y-54736D01*
X65348Y-54770D01*
X65404Y-54794D01*
X65463Y-54807D01*
X65523Y-54809D01*
X65583Y-54798D01*
X65639Y-54776D01*
X65690Y-54744D01*
X65703Y-54731D01*
X67795Y-54731D01*
X67799Y-54736D01*
X67848Y-54770D01*
X67904Y-54794D01*
X67963Y-54807D01*
X68023Y-54809D01*
X68083Y-54798D01*
X68139Y-54776D01*
X68190Y-54744D01*
X68234Y-54702D01*
X68269Y-54653D01*
X68294Y-54597D01*
X68307Y-54538D01*
X68308Y-54469D01*
X68296Y-54410D01*
X68273Y-54354D01*
X68240Y-54304D01*
X68197Y-54261D01*
X68158Y-54234D01*
X68158Y-44762D01*
X68158Y-44211D01*
X68153Y-44186D01*
X68143Y-44162D01*
X68128Y-44140D01*
X68110Y-44121D01*
X68088Y-44107D01*
X68064Y-44096D01*
X68039Y-44091D01*
X68012Y-44091D01*
X67461Y-44091D01*
X67436Y-44096D01*
X67412Y-44106D01*
X67390Y-44121D01*
X67371Y-44139D01*
X67357Y-44161D01*
X67346Y-44185D01*
X67341Y-44210D01*
X67341Y-44237D01*
X67341Y-44788D01*
X67346Y-44813D01*
X67356Y-44837D01*
X67371Y-44859D01*
X67389Y-44878D01*
X67411Y-44892D01*
X67435Y-44903D01*
X67460Y-44908D01*
X67487Y-44908D01*
X68038Y-44908D01*
X68063Y-44903D01*
X68087Y-44893D01*
X68109Y-44878D01*
X68128Y-44860D01*
X68142Y-44838D01*
X68153Y-44814D01*
X68158Y-44789D01*
X68158Y-44762D01*
X68158Y-54234D01*
X68147Y-54227D01*
X68091Y-54203D01*
X68032Y-54191D01*
X67971Y-54191D01*
X67912Y-54202D01*
X67856Y-54225D01*
X67805Y-54258D01*
X67795Y-54268D01*
X65704Y-54268D01*
X65697Y-54261D01*
X65647Y-54227D01*
X65591Y-54203D01*
X65532Y-54191D01*
X65471Y-54191D01*
X65412Y-54202D01*
X65356Y-54225D01*
X65305Y-54258D01*
X65262Y-54300D01*
X65231Y-54345D01*
X65231Y-49846D01*
X66518Y-48558D01*
X66523Y-48559D01*
X66583Y-48548D01*
X66639Y-48526D01*
X66690Y-48494D01*
X66734Y-48452D01*
X66769Y-48403D01*
X66794Y-48347D01*
X66807Y-48288D01*
X66808Y-48219D01*
X66796Y-48160D01*
X66773Y-48104D01*
X66740Y-48054D01*
X66697Y-48011D01*
X66647Y-47977D01*
X66591Y-47953D01*
X66532Y-47941D01*
X66471Y-47941D01*
X66412Y-47952D01*
X66356Y-47975D01*
X66345Y-47982D01*
X67268Y-47058D01*
X67273Y-47059D01*
X67333Y-47048D01*
X67389Y-47026D01*
X67440Y-46994D01*
X67484Y-46952D01*
X67519Y-46903D01*
X67544Y-46847D01*
X67557Y-46788D01*
X67558Y-46719D01*
X67546Y-46660D01*
X67523Y-46604D01*
X67490Y-46554D01*
X67447Y-46511D01*
X67397Y-46477D01*
X67341Y-46453D01*
X67282Y-46441D01*
X67242Y-46441D01*
X67269Y-46403D01*
X67294Y-46347D01*
X67307Y-46288D01*
X67308Y-46219D01*
X67296Y-46160D01*
X67273Y-46104D01*
X67240Y-46054D01*
X67197Y-46011D01*
X67147Y-45977D01*
X67091Y-45953D01*
X67032Y-45941D01*
X66971Y-45941D01*
X66912Y-45952D01*
X66856Y-45975D01*
X66805Y-46008D01*
X66762Y-46050D01*
X66728Y-46100D01*
X66704Y-46156D01*
X66691Y-46215D01*
X66691Y-46230D01*
X65350Y-47571D01*
X65350Y-44990D01*
X65350Y-44009D01*
X65350Y-43989D01*
X65346Y-43970D01*
X65338Y-43952D01*
X65327Y-43935D01*
X65313Y-43921D01*
X65297Y-43910D01*
X65279Y-43903D01*
X65259Y-43899D01*
X65025Y-43899D01*
X65000Y-43924D01*
X65000Y-44250D01*
X65325Y-44250D01*
X65350Y-44224D01*
X65350Y-44009D01*
X65350Y-44990D01*
X65350Y-44775D01*
X65325Y-44750D01*
X65000Y-44750D01*
X65000Y-45075D01*
X65025Y-45100D01*
X65259Y-45100D01*
X65279Y-45096D01*
X65297Y-45089D01*
X65313Y-45078D01*
X65327Y-45064D01*
X65338Y-45047D01*
X65346Y-45029D01*
X65350Y-45010D01*
X65350Y-44990D01*
X65350Y-47571D01*
X64500Y-48422D01*
X64500Y-45075D01*
X64500Y-44750D01*
X64500Y-44250D01*
X64500Y-43924D01*
X64474Y-43899D01*
X64240Y-43899D01*
X64220Y-43903D01*
X64202Y-43910D01*
X64186Y-43921D01*
X64172Y-43935D01*
X64161Y-43952D01*
X64153Y-43970D01*
X64149Y-43989D01*
X64149Y-44009D01*
X64149Y-44224D01*
X64174Y-44250D01*
X64500Y-44250D01*
X64500Y-44750D01*
X64174Y-44750D01*
X64149Y-44775D01*
X64149Y-44990D01*
X64149Y-45010D01*
X64153Y-45029D01*
X64161Y-45047D01*
X64172Y-45064D01*
X64186Y-45078D01*
X64202Y-45089D01*
X64220Y-45096D01*
X64240Y-45100D01*
X64474Y-45100D01*
X64500Y-45075D01*
X64500Y-48422D01*
X64033Y-48888D01*
X64033Y-43120D01*
X71744Y-43120D01*
X72017Y-43146D01*
X72275Y-43224D01*
X72513Y-43351D01*
X72721Y-43521D01*
X72893Y-43728D01*
X73021Y-43965D01*
X73101Y-44222D01*
X73129Y-44496D01*
X73129Y-44500D01*
X73129Y-60994D01*
G54D10*
G36*
X63466Y-62379D02*
X63350Y-62379D01*
X63350Y-61490D01*
X63350Y-60509D01*
X63350Y-60489D01*
X63346Y-60470D01*
X63338Y-60452D01*
X63327Y-60435D01*
X63313Y-60421D01*
X63297Y-60410D01*
X63279Y-60403D01*
X63259Y-60399D01*
X63025Y-60399D01*
X63000Y-60424D01*
X63000Y-60750D01*
X63325Y-60750D01*
X63350Y-60724D01*
X63350Y-60509D01*
X63350Y-61490D01*
X63350Y-61275D01*
X63325Y-61250D01*
X63000Y-61250D01*
X63000Y-61575D01*
X63025Y-61600D01*
X63259Y-61600D01*
X63279Y-61596D01*
X63297Y-61589D01*
X63313Y-61578D01*
X63327Y-61564D01*
X63338Y-61547D01*
X63346Y-61529D01*
X63350Y-61510D01*
X63350Y-61490D01*
X63350Y-62379D01*
X62500Y-62379D01*
X62500Y-61575D01*
X62500Y-61250D01*
X62500Y-60750D01*
X62500Y-60424D01*
X62474Y-60399D01*
X62240Y-60399D01*
X62220Y-60403D01*
X62202Y-60410D01*
X62186Y-60421D01*
X62172Y-60435D01*
X62161Y-60452D01*
X62153Y-60470D01*
X62149Y-60489D01*
X62149Y-60509D01*
X62149Y-60724D01*
X62174Y-60750D01*
X62500Y-60750D01*
X62500Y-61250D01*
X62174Y-61250D01*
X62149Y-61275D01*
X62149Y-61490D01*
X62149Y-61510D01*
X62153Y-61529D01*
X62161Y-61547D01*
X62172Y-61564D01*
X62186Y-61578D01*
X62202Y-61589D01*
X62220Y-61596D01*
X62240Y-61600D01*
X62474Y-61600D01*
X62500Y-61575D01*
X62500Y-62379D01*
X60933Y-62379D01*
X60933Y-60908D01*
X60933Y-44408D01*
X60897Y-44228D01*
X60828Y-44059D01*
X60726Y-43907D01*
X60597Y-43777D01*
X60446Y-43674D01*
X60277Y-43603D01*
X60098Y-43567D01*
X59914Y-43565D01*
X59735Y-43600D01*
X59565Y-43668D01*
X59412Y-43768D01*
X59281Y-43897D01*
X59178Y-44048D01*
X59105Y-44216D01*
X59067Y-44395D01*
X59065Y-44578D01*
X59098Y-44758D01*
X59165Y-44928D01*
X59264Y-45082D01*
X59392Y-45214D01*
X59542Y-45318D01*
X59710Y-45392D01*
X59888Y-45431D01*
X60071Y-45435D01*
X60252Y-45403D01*
X60422Y-45337D01*
X60577Y-45239D01*
X60710Y-45112D01*
X60815Y-44963D01*
X60890Y-44796D01*
X60930Y-44617D01*
X60933Y-44408D01*
X60933Y-60908D01*
X60897Y-60728D01*
X60828Y-60559D01*
X60726Y-60407D01*
X60597Y-60277D01*
X60446Y-60174D01*
X60277Y-60103D01*
X60098Y-60067D01*
X59914Y-60065D01*
X59735Y-60100D01*
X59565Y-60168D01*
X59412Y-60268D01*
X59281Y-60397D01*
X59178Y-60548D01*
X59105Y-60716D01*
X59067Y-60895D01*
X59065Y-61078D01*
X59098Y-61258D01*
X59165Y-61428D01*
X59264Y-61582D01*
X59392Y-61714D01*
X59542Y-61818D01*
X59710Y-61892D01*
X59888Y-61931D01*
X60071Y-61935D01*
X60252Y-61903D01*
X60422Y-61837D01*
X60577Y-61739D01*
X60710Y-61612D01*
X60815Y-61463D01*
X60890Y-61296D01*
X60930Y-61117D01*
X60933Y-60908D01*
X60933Y-62379D01*
X60005Y-62379D01*
X59732Y-62353D01*
X59474Y-62275D01*
X59236Y-62148D01*
X59028Y-61978D01*
X58856Y-61771D01*
X58728Y-61534D01*
X58648Y-61277D01*
X58620Y-61003D01*
X58620Y-60999D01*
X58620Y-44505D01*
X58646Y-44232D01*
X58724Y-43974D01*
X58851Y-43736D01*
X59021Y-43528D01*
X59228Y-43356D01*
X59465Y-43228D01*
X59722Y-43148D01*
X59996Y-43120D01*
X60000Y-43120D01*
X63466Y-43120D01*
X63466Y-58768D01*
X63353Y-58768D01*
X63353Y-44503D01*
X63342Y-44386D01*
X63341Y-44379D01*
X63295Y-44308D01*
X63103Y-44500D01*
X63295Y-44691D01*
X63341Y-44620D01*
X63353Y-44503D01*
X63353Y-58768D01*
X62941Y-58768D01*
X62941Y-45045D01*
X62941Y-43954D01*
X62870Y-43908D01*
X62753Y-43896D01*
X62636Y-43907D01*
X62629Y-43908D01*
X62558Y-43954D01*
X62750Y-44146D01*
X62941Y-43954D01*
X62941Y-45045D01*
X62750Y-44853D01*
X62558Y-45045D01*
X62629Y-45091D01*
X62746Y-45103D01*
X62863Y-45092D01*
X62870Y-45091D01*
X62941Y-45045D01*
X62941Y-58768D01*
X62454Y-58768D01*
X62447Y-58761D01*
X62397Y-58727D01*
X62396Y-58726D01*
X62396Y-44500D01*
X62204Y-44308D01*
X62158Y-44379D01*
X62146Y-44496D01*
X62157Y-44613D01*
X62158Y-44620D01*
X62204Y-44691D01*
X62396Y-44500D01*
X62396Y-58726D01*
X62341Y-58703D01*
X62282Y-58691D01*
X62221Y-58691D01*
X62162Y-58702D01*
X62106Y-58725D01*
X62055Y-58758D01*
X62012Y-58800D01*
X61978Y-58850D01*
X61954Y-58906D01*
X61941Y-58965D01*
X61941Y-59025D01*
X61952Y-59085D01*
X61974Y-59141D01*
X62007Y-59192D01*
X62049Y-59236D01*
X62098Y-59270D01*
X62154Y-59294D01*
X62213Y-59307D01*
X62273Y-59309D01*
X62333Y-59298D01*
X62389Y-59276D01*
X62440Y-59244D01*
X62453Y-59231D01*
X63466Y-59231D01*
X63466Y-62379D01*
X63466Y-62379D01*
G37*
G54D21*
X63466Y-62379D02*
X63350Y-62379D01*
X63350Y-61490D01*
X63350Y-60509D01*
X63350Y-60489D01*
X63346Y-60470D01*
X63338Y-60452D01*
X63327Y-60435D01*
X63313Y-60421D01*
X63297Y-60410D01*
X63279Y-60403D01*
X63259Y-60399D01*
X63025Y-60399D01*
X63000Y-60424D01*
X63000Y-60750D01*
X63325Y-60750D01*
X63350Y-60724D01*
X63350Y-60509D01*
X63350Y-61490D01*
X63350Y-61275D01*
X63325Y-61250D01*
X63000Y-61250D01*
X63000Y-61575D01*
X63025Y-61600D01*
X63259Y-61600D01*
X63279Y-61596D01*
X63297Y-61589D01*
X63313Y-61578D01*
X63327Y-61564D01*
X63338Y-61547D01*
X63346Y-61529D01*
X63350Y-61510D01*
X63350Y-61490D01*
X63350Y-62379D01*
X62500Y-62379D01*
X62500Y-61575D01*
X62500Y-61250D01*
X62500Y-60750D01*
X62500Y-60424D01*
X62474Y-60399D01*
X62240Y-60399D01*
X62220Y-60403D01*
X62202Y-60410D01*
X62186Y-60421D01*
X62172Y-60435D01*
X62161Y-60452D01*
X62153Y-60470D01*
X62149Y-60489D01*
X62149Y-60509D01*
X62149Y-60724D01*
X62174Y-60750D01*
X62500Y-60750D01*
X62500Y-61250D01*
X62174Y-61250D01*
X62149Y-61275D01*
X62149Y-61490D01*
X62149Y-61510D01*
X62153Y-61529D01*
X62161Y-61547D01*
X62172Y-61564D01*
X62186Y-61578D01*
X62202Y-61589D01*
X62220Y-61596D01*
X62240Y-61600D01*
X62474Y-61600D01*
X62500Y-61575D01*
X62500Y-62379D01*
X60933Y-62379D01*
X60933Y-60908D01*
X60933Y-44408D01*
X60897Y-44228D01*
X60828Y-44059D01*
X60726Y-43907D01*
X60597Y-43777D01*
X60446Y-43674D01*
X60277Y-43603D01*
X60098Y-43567D01*
X59914Y-43565D01*
X59735Y-43600D01*
X59565Y-43668D01*
X59412Y-43768D01*
X59281Y-43897D01*
X59178Y-44048D01*
X59105Y-44216D01*
X59067Y-44395D01*
X59065Y-44578D01*
X59098Y-44758D01*
X59165Y-44928D01*
X59264Y-45082D01*
X59392Y-45214D01*
X59542Y-45318D01*
X59710Y-45392D01*
X59888Y-45431D01*
X60071Y-45435D01*
X60252Y-45403D01*
X60422Y-45337D01*
X60577Y-45239D01*
X60710Y-45112D01*
X60815Y-44963D01*
X60890Y-44796D01*
X60930Y-44617D01*
X60933Y-44408D01*
X60933Y-60908D01*
X60897Y-60728D01*
X60828Y-60559D01*
X60726Y-60407D01*
X60597Y-60277D01*
X60446Y-60174D01*
X60277Y-60103D01*
X60098Y-60067D01*
X59914Y-60065D01*
X59735Y-60100D01*
X59565Y-60168D01*
X59412Y-60268D01*
X59281Y-60397D01*
X59178Y-60548D01*
X59105Y-60716D01*
X59067Y-60895D01*
X59065Y-61078D01*
X59098Y-61258D01*
X59165Y-61428D01*
X59264Y-61582D01*
X59392Y-61714D01*
X59542Y-61818D01*
X59710Y-61892D01*
X59888Y-61931D01*
X60071Y-61935D01*
X60252Y-61903D01*
X60422Y-61837D01*
X60577Y-61739D01*
X60710Y-61612D01*
X60815Y-61463D01*
X60890Y-61296D01*
X60930Y-61117D01*
X60933Y-60908D01*
X60933Y-62379D01*
X60005Y-62379D01*
X59732Y-62353D01*
X59474Y-62275D01*
X59236Y-62148D01*
X59028Y-61978D01*
X58856Y-61771D01*
X58728Y-61534D01*
X58648Y-61277D01*
X58620Y-61003D01*
X58620Y-60999D01*
X58620Y-44505D01*
X58646Y-44232D01*
X58724Y-43974D01*
X58851Y-43736D01*
X59021Y-43528D01*
X59228Y-43356D01*
X59465Y-43228D01*
X59722Y-43148D01*
X59996Y-43120D01*
X60000Y-43120D01*
X63466Y-43120D01*
X63466Y-58768D01*
X63353Y-58768D01*
X63353Y-44503D01*
X63342Y-44386D01*
X63341Y-44379D01*
X63295Y-44308D01*
X63103Y-44500D01*
X63295Y-44691D01*
X63341Y-44620D01*
X63353Y-44503D01*
X63353Y-58768D01*
X62941Y-58768D01*
X62941Y-45045D01*
X62941Y-43954D01*
X62870Y-43908D01*
X62753Y-43896D01*
X62636Y-43907D01*
X62629Y-43908D01*
X62558Y-43954D01*
X62750Y-44146D01*
X62941Y-43954D01*
X62941Y-45045D01*
X62750Y-44853D01*
X62558Y-45045D01*
X62629Y-45091D01*
X62746Y-45103D01*
X62863Y-45092D01*
X62870Y-45091D01*
X62941Y-45045D01*
X62941Y-58768D01*
X62454Y-58768D01*
X62447Y-58761D01*
X62397Y-58727D01*
X62396Y-58726D01*
X62396Y-44500D01*
X62204Y-44308D01*
X62158Y-44379D01*
X62146Y-44496D01*
X62157Y-44613D01*
X62158Y-44620D01*
X62204Y-44691D01*
X62396Y-44500D01*
X62396Y-58726D01*
X62341Y-58703D01*
X62282Y-58691D01*
X62221Y-58691D01*
X62162Y-58702D01*
X62106Y-58725D01*
X62055Y-58758D01*
X62012Y-58800D01*
X61978Y-58850D01*
X61954Y-58906D01*
X61941Y-58965D01*
X61941Y-59025D01*
X61952Y-59085D01*
X61974Y-59141D01*
X62007Y-59192D01*
X62049Y-59236D01*
X62098Y-59270D01*
X62154Y-59294D01*
X62213Y-59307D01*
X62273Y-59309D01*
X62333Y-59298D01*
X62389Y-59276D01*
X62440Y-59244D01*
X62453Y-59231D01*
X63466Y-59231D01*
X63466Y-62379D01*
M02*
