M48
;DRILL file {Pcbnew (2013-may-18)-stable} date Mon 01 Jun 2015 11:01:11 PM CEST
;FORMAT={3:3/ absolute / metric / suppress leading zeros}
FMAT,2
METRIC,TZ
T1C0.635
T2C0.813
T3C1.524
T4C3.048
T5C3.500
%
G90
G05
M71
T1
X158115Y-149860
X162560Y-140970
X163830Y-141605
X166370Y-138430
X167640Y-141605
X168910Y-122555
X168910Y-146050
X170180Y-117475
X170815Y-118745
X172720Y-138430
X172720Y-141605
X172720Y-146050
T2
X172085Y-113030
X172085Y-154940
X174625Y-113030
X174625Y-154940
X177165Y-113030
X177165Y-154940
T3
X159385Y-113030
X159385Y-154940
X164465Y-113030
X164465Y-154940
X182245Y-131445
X182245Y-136525
X182245Y-141605
X182245Y-146685
T4
X152400Y-113030
X152400Y-154940
X182245Y-154940
T5
X182245Y-113030
T0
M30
